G04 #@! TF.GenerationSoftware,KiCad,Pcbnew,(5.1.12-1-10_14)*
G04 #@! TF.CreationDate,2022-11-01T19:03:59-07:00*
G04 #@! TF.ProjectId,mouse_v2_PAIN,6d6f7573-655f-4763-925f-5041494e2e6b,rev?*
G04 #@! TF.SameCoordinates,Original*
G04 #@! TF.FileFunction,Paste,Top*
G04 #@! TF.FilePolarity,Positive*
%FSLAX46Y46*%
G04 Gerber Fmt 4.6, Leading zero omitted, Abs format (unit mm)*
G04 Created by KiCad (PCBNEW (5.1.12-1-10_14)) date 2022-11-01 19:03:59*
%MOMM*%
%LPD*%
G01*
G04 APERTURE LIST*
G04 #@! TA.AperFunction,Profile*
%ADD10C,0.150000*%
G04 #@! TD*
%ADD11R,2.500000X2.000000*%
%ADD12R,4.600000X1.100000*%
%ADD13R,4.550000X5.250000*%
%ADD14R,0.800000X0.900000*%
%ADD15R,0.900000X0.800000*%
G04 APERTURE END LIST*
D10*
X202570805Y-122880473D02*
X202562460Y-102412800D01*
X117662960Y-123477020D02*
X117652800Y-102158800D01*
X117667417Y-58036462D02*
G75*
G02*
X120972580Y-54653180I3371202J12703D01*
G01*
X199156316Y-54647889D02*
G75*
G02*
X202521820Y-57980580I-5075J-3370790D01*
G01*
X117678200Y-72212200D02*
X117668040Y-58036460D01*
X202514200Y-72212200D02*
X202521820Y-57980580D01*
X117678200Y-72212200D02*
X127711200Y-72212200D01*
X192227200Y-72212200D02*
X202514200Y-72212200D01*
X202562460Y-102412800D02*
X192227200Y-102412800D01*
X117652800Y-102158800D02*
X127711200Y-102158800D01*
X202570804Y-122880472D02*
G75*
G02*
X117662960Y-123477020I-42601604J20721672D01*
G01*
X192227200Y-72212200D02*
X192227200Y-102412800D01*
X120972580Y-54653180D02*
X199156320Y-54645560D01*
X127711200Y-102158800D02*
X127711200Y-72212200D01*
G36*
G01*
X125113201Y-58597600D02*
X124213199Y-58597600D01*
G75*
G02*
X123963200Y-58347601I0J249999D01*
G01*
X123963200Y-57697599D01*
G75*
G02*
X124213199Y-57447600I249999J0D01*
G01*
X125113201Y-57447600D01*
G75*
G02*
X125363200Y-57697599I0J-249999D01*
G01*
X125363200Y-58347601D01*
G75*
G02*
X125113201Y-58597600I-249999J0D01*
G01*
G37*
G36*
G01*
X125113201Y-56547600D02*
X124213199Y-56547600D01*
G75*
G02*
X123963200Y-56297601I0J249999D01*
G01*
X123963200Y-55647599D01*
G75*
G02*
X124213199Y-55397600I249999J0D01*
G01*
X125113201Y-55397600D01*
G75*
G02*
X125363200Y-55647599I0J-249999D01*
G01*
X125363200Y-56297601D01*
G75*
G02*
X125113201Y-56547600I-249999J0D01*
G01*
G37*
G36*
G01*
X121049201Y-58597600D02*
X120149199Y-58597600D01*
G75*
G02*
X119899200Y-58347601I0J249999D01*
G01*
X119899200Y-57697599D01*
G75*
G02*
X120149199Y-57447600I249999J0D01*
G01*
X121049201Y-57447600D01*
G75*
G02*
X121299200Y-57697599I0J-249999D01*
G01*
X121299200Y-58347601D01*
G75*
G02*
X121049201Y-58597600I-249999J0D01*
G01*
G37*
G36*
G01*
X121049201Y-56547600D02*
X120149199Y-56547600D01*
G75*
G02*
X119899200Y-56297601I0J249999D01*
G01*
X119899200Y-55647599D01*
G75*
G02*
X120149199Y-55397600I249999J0D01*
G01*
X121049201Y-55397600D01*
G75*
G02*
X121299200Y-55647599I0J-249999D01*
G01*
X121299200Y-56297601D01*
G75*
G02*
X121049201Y-56547600I-249999J0D01*
G01*
G37*
G36*
G01*
X123081201Y-56547600D02*
X122181199Y-56547600D01*
G75*
G02*
X121931200Y-56297601I0J249999D01*
G01*
X121931200Y-55647599D01*
G75*
G02*
X122181199Y-55397600I249999J0D01*
G01*
X123081201Y-55397600D01*
G75*
G02*
X123331200Y-55647599I0J-249999D01*
G01*
X123331200Y-56297601D01*
G75*
G02*
X123081201Y-56547600I-249999J0D01*
G01*
G37*
G36*
G01*
X123081201Y-58597600D02*
X122181199Y-58597600D01*
G75*
G02*
X121931200Y-58347601I0J249999D01*
G01*
X121931200Y-57697599D01*
G75*
G02*
X122181199Y-57447600I249999J0D01*
G01*
X123081201Y-57447600D01*
G75*
G02*
X123331200Y-57697599I0J-249999D01*
G01*
X123331200Y-58347601D01*
G75*
G02*
X123081201Y-58597600I-249999J0D01*
G01*
G37*
G36*
G01*
X188585000Y-133467200D02*
X187335000Y-133467200D01*
G75*
G02*
X187085000Y-133217200I0J250000D01*
G01*
X187085000Y-132417200D01*
G75*
G02*
X187335000Y-132167200I250000J0D01*
G01*
X188585000Y-132167200D01*
G75*
G02*
X188835000Y-132417200I0J-250000D01*
G01*
X188835000Y-133217200D01*
G75*
G02*
X188585000Y-133467200I-250000J0D01*
G01*
G37*
G36*
G01*
X188585000Y-130367200D02*
X187335000Y-130367200D01*
G75*
G02*
X187085000Y-130117200I0J250000D01*
G01*
X187085000Y-129317200D01*
G75*
G02*
X187335000Y-129067200I250000J0D01*
G01*
X188585000Y-129067200D01*
G75*
G02*
X188835000Y-129317200I0J-250000D01*
G01*
X188835000Y-130117200D01*
G75*
G02*
X188585000Y-130367200I-250000J0D01*
G01*
G37*
G36*
G01*
X172247400Y-135875600D02*
X173497400Y-135875600D01*
G75*
G02*
X173747400Y-136125600I0J-250000D01*
G01*
X173747400Y-136925600D01*
G75*
G02*
X173497400Y-137175600I-250000J0D01*
G01*
X172247400Y-137175600D01*
G75*
G02*
X171997400Y-136925600I0J250000D01*
G01*
X171997400Y-136125600D01*
G75*
G02*
X172247400Y-135875600I250000J0D01*
G01*
G37*
G36*
G01*
X172247400Y-132775600D02*
X173497400Y-132775600D01*
G75*
G02*
X173747400Y-133025600I0J-250000D01*
G01*
X173747400Y-133825600D01*
G75*
G02*
X173497400Y-134075600I-250000J0D01*
G01*
X172247400Y-134075600D01*
G75*
G02*
X171997400Y-133825600I0J250000D01*
G01*
X171997400Y-133025600D01*
G75*
G02*
X172247400Y-132775600I250000J0D01*
G01*
G37*
G36*
G01*
X133289200Y-130647800D02*
X132039200Y-130647800D01*
G75*
G02*
X131789200Y-130397800I0J250000D01*
G01*
X131789200Y-129597800D01*
G75*
G02*
X132039200Y-129347800I250000J0D01*
G01*
X133289200Y-129347800D01*
G75*
G02*
X133539200Y-129597800I0J-250000D01*
G01*
X133539200Y-130397800D01*
G75*
G02*
X133289200Y-130647800I-250000J0D01*
G01*
G37*
G36*
G01*
X133289200Y-127547800D02*
X132039200Y-127547800D01*
G75*
G02*
X131789200Y-127297800I0J250000D01*
G01*
X131789200Y-126497800D01*
G75*
G02*
X132039200Y-126247800I250000J0D01*
G01*
X133289200Y-126247800D01*
G75*
G02*
X133539200Y-126497800I0J-250000D01*
G01*
X133539200Y-127297800D01*
G75*
G02*
X133289200Y-127547800I-250000J0D01*
G01*
G37*
G36*
G01*
X149819200Y-135621600D02*
X151069200Y-135621600D01*
G75*
G02*
X151319200Y-135871600I0J-250000D01*
G01*
X151319200Y-136671600D01*
G75*
G02*
X151069200Y-136921600I-250000J0D01*
G01*
X149819200Y-136921600D01*
G75*
G02*
X149569200Y-136671600I0J250000D01*
G01*
X149569200Y-135871600D01*
G75*
G02*
X149819200Y-135621600I250000J0D01*
G01*
G37*
G36*
G01*
X149819200Y-132521600D02*
X151069200Y-132521600D01*
G75*
G02*
X151319200Y-132771600I0J-250000D01*
G01*
X151319200Y-133571600D01*
G75*
G02*
X151069200Y-133821600I-250000J0D01*
G01*
X149819200Y-133821600D01*
G75*
G02*
X149569200Y-133571600I0J250000D01*
G01*
X149569200Y-132771600D01*
G75*
G02*
X149819200Y-132521600I250000J0D01*
G01*
G37*
G36*
G01*
X163433999Y-65035000D02*
X164734001Y-65035000D01*
G75*
G02*
X164984000Y-65284999I0J-249999D01*
G01*
X164984000Y-66110001D01*
G75*
G02*
X164734001Y-66360000I-249999J0D01*
G01*
X163433999Y-66360000D01*
G75*
G02*
X163184000Y-66110001I0J249999D01*
G01*
X163184000Y-65284999D01*
G75*
G02*
X163433999Y-65035000I249999J0D01*
G01*
G37*
G36*
G01*
X163433999Y-61910000D02*
X164734001Y-61910000D01*
G75*
G02*
X164984000Y-62159999I0J-249999D01*
G01*
X164984000Y-62985001D01*
G75*
G02*
X164734001Y-63235000I-249999J0D01*
G01*
X163433999Y-63235000D01*
G75*
G02*
X163184000Y-62985001I0J249999D01*
G01*
X163184000Y-62159999D01*
G75*
G02*
X163433999Y-61910000I249999J0D01*
G01*
G37*
G36*
G01*
X142011800Y-73574999D02*
X142011800Y-74875001D01*
G75*
G02*
X141761801Y-75125000I-249999J0D01*
G01*
X141061799Y-75125000D01*
G75*
G02*
X140811800Y-74875001I0J249999D01*
G01*
X140811800Y-73574999D01*
G75*
G02*
X141061799Y-73325000I249999J0D01*
G01*
X141761801Y-73325000D01*
G75*
G02*
X142011800Y-73574999I0J-249999D01*
G01*
G37*
G36*
G01*
X149611800Y-73574999D02*
X149611800Y-74875001D01*
G75*
G02*
X149361801Y-75125000I-249999J0D01*
G01*
X148661799Y-75125000D01*
G75*
G02*
X148411800Y-74875001I0J249999D01*
G01*
X148411800Y-73574999D01*
G75*
G02*
X148661799Y-73325000I249999J0D01*
G01*
X149361801Y-73325000D01*
G75*
G02*
X149611800Y-73574999I0J-249999D01*
G01*
G37*
G36*
G01*
X143011800Y-71075000D02*
X143011800Y-72325000D01*
G75*
G02*
X142861800Y-72475000I-150000J0D01*
G01*
X142561800Y-72475000D01*
G75*
G02*
X142411800Y-72325000I0J150000D01*
G01*
X142411800Y-71075000D01*
G75*
G02*
X142561800Y-70925000I150000J0D01*
G01*
X142861800Y-70925000D01*
G75*
G02*
X143011800Y-71075000I0J-150000D01*
G01*
G37*
G36*
G01*
X144011800Y-71075000D02*
X144011800Y-72325000D01*
G75*
G02*
X143861800Y-72475000I-150000J0D01*
G01*
X143561800Y-72475000D01*
G75*
G02*
X143411800Y-72325000I0J150000D01*
G01*
X143411800Y-71075000D01*
G75*
G02*
X143561800Y-70925000I150000J0D01*
G01*
X143861800Y-70925000D01*
G75*
G02*
X144011800Y-71075000I0J-150000D01*
G01*
G37*
G36*
G01*
X145011800Y-71075000D02*
X145011800Y-72325000D01*
G75*
G02*
X144861800Y-72475000I-150000J0D01*
G01*
X144561800Y-72475000D01*
G75*
G02*
X144411800Y-72325000I0J150000D01*
G01*
X144411800Y-71075000D01*
G75*
G02*
X144561800Y-70925000I150000J0D01*
G01*
X144861800Y-70925000D01*
G75*
G02*
X145011800Y-71075000I0J-150000D01*
G01*
G37*
G36*
G01*
X146011800Y-71075000D02*
X146011800Y-72325000D01*
G75*
G02*
X145861800Y-72475000I-150000J0D01*
G01*
X145561800Y-72475000D01*
G75*
G02*
X145411800Y-72325000I0J150000D01*
G01*
X145411800Y-71075000D01*
G75*
G02*
X145561800Y-70925000I150000J0D01*
G01*
X145861800Y-70925000D01*
G75*
G02*
X146011800Y-71075000I0J-150000D01*
G01*
G37*
G36*
G01*
X147011800Y-71075000D02*
X147011800Y-72325000D01*
G75*
G02*
X146861800Y-72475000I-150000J0D01*
G01*
X146561800Y-72475000D01*
G75*
G02*
X146411800Y-72325000I0J150000D01*
G01*
X146411800Y-71075000D01*
G75*
G02*
X146561800Y-70925000I150000J0D01*
G01*
X146861800Y-70925000D01*
G75*
G02*
X147011800Y-71075000I0J-150000D01*
G01*
G37*
G36*
G01*
X148011800Y-71075000D02*
X148011800Y-72325000D01*
G75*
G02*
X147861800Y-72475000I-150000J0D01*
G01*
X147561800Y-72475000D01*
G75*
G02*
X147411800Y-72325000I0J150000D01*
G01*
X147411800Y-71075000D01*
G75*
G02*
X147561800Y-70925000I150000J0D01*
G01*
X147861800Y-70925000D01*
G75*
G02*
X148011800Y-71075000I0J-150000D01*
G01*
G37*
G36*
G01*
X177958400Y-70744800D02*
X177958400Y-71994800D01*
G75*
G02*
X177808400Y-72144800I-150000J0D01*
G01*
X177508400Y-72144800D01*
G75*
G02*
X177358400Y-71994800I0J150000D01*
G01*
X177358400Y-70744800D01*
G75*
G02*
X177508400Y-70594800I150000J0D01*
G01*
X177808400Y-70594800D01*
G75*
G02*
X177958400Y-70744800I0J-150000D01*
G01*
G37*
G36*
G01*
X176958400Y-70744800D02*
X176958400Y-71994800D01*
G75*
G02*
X176808400Y-72144800I-150000J0D01*
G01*
X176508400Y-72144800D01*
G75*
G02*
X176358400Y-71994800I0J150000D01*
G01*
X176358400Y-70744800D01*
G75*
G02*
X176508400Y-70594800I150000J0D01*
G01*
X176808400Y-70594800D01*
G75*
G02*
X176958400Y-70744800I0J-150000D01*
G01*
G37*
G36*
G01*
X175958400Y-70744800D02*
X175958400Y-71994800D01*
G75*
G02*
X175808400Y-72144800I-150000J0D01*
G01*
X175508400Y-72144800D01*
G75*
G02*
X175358400Y-71994800I0J150000D01*
G01*
X175358400Y-70744800D01*
G75*
G02*
X175508400Y-70594800I150000J0D01*
G01*
X175808400Y-70594800D01*
G75*
G02*
X175958400Y-70744800I0J-150000D01*
G01*
G37*
G36*
G01*
X174958400Y-70744800D02*
X174958400Y-71994800D01*
G75*
G02*
X174808400Y-72144800I-150000J0D01*
G01*
X174508400Y-72144800D01*
G75*
G02*
X174358400Y-71994800I0J150000D01*
G01*
X174358400Y-70744800D01*
G75*
G02*
X174508400Y-70594800I150000J0D01*
G01*
X174808400Y-70594800D01*
G75*
G02*
X174958400Y-70744800I0J-150000D01*
G01*
G37*
G36*
G01*
X173958400Y-70744800D02*
X173958400Y-71994800D01*
G75*
G02*
X173808400Y-72144800I-150000J0D01*
G01*
X173508400Y-72144800D01*
G75*
G02*
X173358400Y-71994800I0J150000D01*
G01*
X173358400Y-70744800D01*
G75*
G02*
X173508400Y-70594800I150000J0D01*
G01*
X173808400Y-70594800D01*
G75*
G02*
X173958400Y-70744800I0J-150000D01*
G01*
G37*
G36*
G01*
X172958400Y-70744800D02*
X172958400Y-71994800D01*
G75*
G02*
X172808400Y-72144800I-150000J0D01*
G01*
X172508400Y-72144800D01*
G75*
G02*
X172358400Y-71994800I0J150000D01*
G01*
X172358400Y-70744800D01*
G75*
G02*
X172508400Y-70594800I150000J0D01*
G01*
X172808400Y-70594800D01*
G75*
G02*
X172958400Y-70744800I0J-150000D01*
G01*
G37*
G36*
G01*
X179558400Y-73244799D02*
X179558400Y-74544801D01*
G75*
G02*
X179308401Y-74794800I-249999J0D01*
G01*
X178608399Y-74794800D01*
G75*
G02*
X178358400Y-74544801I0J249999D01*
G01*
X178358400Y-73244799D01*
G75*
G02*
X178608399Y-72994800I249999J0D01*
G01*
X179308401Y-72994800D01*
G75*
G02*
X179558400Y-73244799I0J-249999D01*
G01*
G37*
G36*
G01*
X171958400Y-73244799D02*
X171958400Y-74544801D01*
G75*
G02*
X171708401Y-74794800I-249999J0D01*
G01*
X171008399Y-74794800D01*
G75*
G02*
X170758400Y-74544801I0J249999D01*
G01*
X170758400Y-73244799D01*
G75*
G02*
X171008399Y-72994800I249999J0D01*
G01*
X171708401Y-72994800D01*
G75*
G02*
X171958400Y-73244799I0J-249999D01*
G01*
G37*
G36*
G01*
X167878999Y-64704800D02*
X169179001Y-64704800D01*
G75*
G02*
X169429000Y-64954799I0J-249999D01*
G01*
X169429000Y-65779801D01*
G75*
G02*
X169179001Y-66029800I-249999J0D01*
G01*
X167878999Y-66029800D01*
G75*
G02*
X167629000Y-65779801I0J249999D01*
G01*
X167629000Y-64954799D01*
G75*
G02*
X167878999Y-64704800I249999J0D01*
G01*
G37*
G36*
G01*
X167878999Y-61579800D02*
X169179001Y-61579800D01*
G75*
G02*
X169429000Y-61829799I0J-249999D01*
G01*
X169429000Y-62654801D01*
G75*
G02*
X169179001Y-62904800I-249999J0D01*
G01*
X167878999Y-62904800D01*
G75*
G02*
X167629000Y-62654801I0J249999D01*
G01*
X167629000Y-61829799D01*
G75*
G02*
X167878999Y-61579800I249999J0D01*
G01*
G37*
D11*
X136207600Y-57073800D03*
X127647600Y-57073800D03*
X176491800Y-134747000D03*
X185051800Y-134747000D03*
D12*
X184108400Y-64439800D03*
X184108400Y-61899800D03*
X184108400Y-59359800D03*
D13*
X172533400Y-59124800D03*
X177383400Y-64674800D03*
X172533400Y-64674800D03*
X177383400Y-59124800D03*
D14*
X190515200Y-119643400D03*
X192415200Y-119643400D03*
X191465200Y-117643400D03*
D15*
X168697400Y-135483600D03*
X170697400Y-134533600D03*
X170697400Y-136433600D03*
D14*
X133289000Y-123224800D03*
X135189000Y-123224800D03*
X134239000Y-121224800D03*
X153517600Y-139861800D03*
X152567600Y-137861800D03*
X154467600Y-137861800D03*
G36*
G01*
X138648201Y-99862600D02*
X137348199Y-99862600D01*
G75*
G02*
X137098200Y-99612601I0J249999D01*
G01*
X137098200Y-98787599D01*
G75*
G02*
X137348199Y-98537600I249999J0D01*
G01*
X138648201Y-98537600D01*
G75*
G02*
X138898200Y-98787599I0J-249999D01*
G01*
X138898200Y-99612601D01*
G75*
G02*
X138648201Y-99862600I-249999J0D01*
G01*
G37*
G36*
G01*
X138648201Y-96737600D02*
X137348199Y-96737600D01*
G75*
G02*
X137098200Y-96487601I0J249999D01*
G01*
X137098200Y-95662599D01*
G75*
G02*
X137348199Y-95412600I249999J0D01*
G01*
X138648201Y-95412600D01*
G75*
G02*
X138898200Y-95662599I0J-249999D01*
G01*
X138898200Y-96487601D01*
G75*
G02*
X138648201Y-96737600I-249999J0D01*
G01*
G37*
M02*
