G04 #@! TF.GenerationSoftware,KiCad,Pcbnew,(5.1.12-1-10_14)*
G04 #@! TF.CreationDate,2023-02-02T16:13:30-08:00*
G04 #@! TF.ProjectId,mouse_v2_PAIN,6d6f7573-655f-4763-925f-5041494e2e6b,rev?*
G04 #@! TF.SameCoordinates,Original*
G04 #@! TF.FileFunction,Soldermask,Top*
G04 #@! TF.FilePolarity,Negative*
%FSLAX46Y46*%
G04 Gerber Fmt 4.6, Leading zero omitted, Abs format (unit mm)*
G04 Created by KiCad (PCBNEW (5.1.12-1-10_14)) date 2023-02-02 16:13:30*
%MOMM*%
%LPD*%
G01*
G04 APERTURE LIST*
%ADD10O,2.100000X2.100000*%
%ADD11C,2.600000*%
%ADD12C,2.400000*%
%ADD13C,2.000000*%
%ADD14O,1.400000X1.400000*%
%ADD15C,1.700000*%
%ADD16C,3.400000*%
%ADD17O,2.000000X2.000000*%
%ADD18C,2.584400*%
%ADD19C,2.200000*%
%ADD20O,1.750000X1.750000*%
%ADD21C,1.924000*%
%ADD22C,2.100000*%
%ADD23C,0.100000*%
G04 APERTURE END LIST*
G36*
G01*
X183882400Y-71712800D02*
X182182400Y-71712800D01*
G75*
G02*
X181982400Y-71512800I0J200000D01*
G01*
X181982400Y-69812800D01*
G75*
G02*
X182182400Y-69612800I200000J0D01*
G01*
X183882400Y-69612800D01*
G75*
G02*
X184082400Y-69812800I0J-200000D01*
G01*
X184082400Y-71512800D01*
G75*
G02*
X183882400Y-71712800I-200000J0D01*
G01*
G37*
D10*
X185572400Y-70662800D03*
G36*
G01*
X201532200Y-116955200D02*
X201532200Y-118655200D01*
G75*
G02*
X201332200Y-118855200I-200000J0D01*
G01*
X199632200Y-118855200D01*
G75*
G02*
X199432200Y-118655200I0J200000D01*
G01*
X199432200Y-116955200D01*
G75*
G02*
X199632200Y-116755200I200000J0D01*
G01*
X201332200Y-116755200D01*
G75*
G02*
X201532200Y-116955200I0J-200000D01*
G01*
G37*
X200482200Y-115265200D03*
X200482200Y-112725200D03*
X200482200Y-110185200D03*
X200482200Y-107645200D03*
X200482200Y-105105200D03*
D11*
X168198800Y-100253800D03*
X151790400Y-100253800D03*
X160083500Y-64262000D03*
X160020000Y-139954000D03*
X160096200Y-56413400D03*
X160020000Y-147828000D03*
G36*
G01*
X129201922Y-63424414D02*
X129549218Y-65394030D01*
G75*
G02*
X129386986Y-65625722I-196962J-34730D01*
G01*
X127417370Y-65973018D01*
G75*
G02*
X127185678Y-65810786I-34730J196962D01*
G01*
X126838382Y-63841170D01*
G75*
G02*
X127000614Y-63609478I196962J34730D01*
G01*
X128970230Y-63262182D01*
G75*
G02*
X129201922Y-63424414I34730J-196962D01*
G01*
G37*
D12*
X120709261Y-65937326D03*
G36*
G01*
X125438575Y-61554370D02*
X127170625Y-62554370D01*
G75*
G02*
X127243830Y-62827575I-100000J-173205D01*
G01*
X126243830Y-64559625D01*
G75*
G02*
X125970625Y-64632830I-173205J100000D01*
G01*
X124238575Y-63632830D01*
G75*
G02*
X124165370Y-63359625I100000J173205D01*
G01*
X125165370Y-61627575D01*
G75*
G02*
X125438575Y-61554370I173205J-100000D01*
G01*
G37*
X123204600Y-67423727D03*
G36*
G01*
X193049400Y-61074400D02*
X193049400Y-62674400D01*
G75*
G02*
X192849400Y-62874400I-200000J0D01*
G01*
X191249400Y-62874400D01*
G75*
G02*
X191049400Y-62674400I0J200000D01*
G01*
X191049400Y-61074400D01*
G75*
G02*
X191249400Y-60874400I200000J0D01*
G01*
X192849400Y-60874400D01*
G75*
G02*
X193049400Y-61074400I0J-200000D01*
G01*
G37*
D13*
X189549400Y-61874400D03*
G36*
G01*
X194690800Y-115740500D02*
X194690800Y-116415500D01*
G75*
G02*
X194353300Y-116753000I-337500J0D01*
G01*
X193553300Y-116753000D01*
G75*
G02*
X193215800Y-116415500I0J337500D01*
G01*
X193215800Y-115740500D01*
G75*
G02*
X193553300Y-115403000I337500J0D01*
G01*
X194353300Y-115403000D01*
G75*
G02*
X194690800Y-115740500I0J-337500D01*
G01*
G37*
G36*
G01*
X192965800Y-115740500D02*
X192965800Y-116415500D01*
G75*
G02*
X192628300Y-116753000I-337500J0D01*
G01*
X191828300Y-116753000D01*
G75*
G02*
X191490800Y-116415500I0J337500D01*
G01*
X191490800Y-115740500D01*
G75*
G02*
X191828300Y-115403000I337500J0D01*
G01*
X192628300Y-115403000D01*
G75*
G02*
X192965800Y-115740500I0J-337500D01*
G01*
G37*
G36*
G01*
X192940400Y-110762100D02*
X192940400Y-111437100D01*
G75*
G02*
X192602900Y-111774600I-337500J0D01*
G01*
X191802900Y-111774600D01*
G75*
G02*
X191465400Y-111437100I0J337500D01*
G01*
X191465400Y-110762100D01*
G75*
G02*
X191802900Y-110424600I337500J0D01*
G01*
X192602900Y-110424600D01*
G75*
G02*
X192940400Y-110762100I0J-337500D01*
G01*
G37*
G36*
G01*
X194665400Y-110762100D02*
X194665400Y-111437100D01*
G75*
G02*
X194327900Y-111774600I-337500J0D01*
G01*
X193527900Y-111774600D01*
G75*
G02*
X193190400Y-111437100I0J337500D01*
G01*
X193190400Y-110762100D01*
G75*
G02*
X193527900Y-110424600I337500J0D01*
G01*
X194327900Y-110424600D01*
G75*
G02*
X194665400Y-110762100I0J-337500D01*
G01*
G37*
G36*
G01*
X125226245Y-58797600D02*
X124100155Y-58797600D01*
G75*
G02*
X123763200Y-58460645I0J336955D01*
G01*
X123763200Y-57584555D01*
G75*
G02*
X124100155Y-57247600I336955J0D01*
G01*
X125226245Y-57247600D01*
G75*
G02*
X125563200Y-57584555I0J-336955D01*
G01*
X125563200Y-58460645D01*
G75*
G02*
X125226245Y-58797600I-336955J0D01*
G01*
G37*
G36*
G01*
X125226245Y-56747600D02*
X124100155Y-56747600D01*
G75*
G02*
X123763200Y-56410645I0J336955D01*
G01*
X123763200Y-55534555D01*
G75*
G02*
X124100155Y-55197600I336955J0D01*
G01*
X125226245Y-55197600D01*
G75*
G02*
X125563200Y-55534555I0J-336955D01*
G01*
X125563200Y-56410645D01*
G75*
G02*
X125226245Y-56747600I-336955J0D01*
G01*
G37*
G36*
G01*
X121162245Y-58797600D02*
X120036155Y-58797600D01*
G75*
G02*
X119699200Y-58460645I0J336955D01*
G01*
X119699200Y-57584555D01*
G75*
G02*
X120036155Y-57247600I336955J0D01*
G01*
X121162245Y-57247600D01*
G75*
G02*
X121499200Y-57584555I0J-336955D01*
G01*
X121499200Y-58460645D01*
G75*
G02*
X121162245Y-58797600I-336955J0D01*
G01*
G37*
G36*
G01*
X121162245Y-56747600D02*
X120036155Y-56747600D01*
G75*
G02*
X119699200Y-56410645I0J336955D01*
G01*
X119699200Y-55534555D01*
G75*
G02*
X120036155Y-55197600I336955J0D01*
G01*
X121162245Y-55197600D01*
G75*
G02*
X121499200Y-55534555I0J-336955D01*
G01*
X121499200Y-56410645D01*
G75*
G02*
X121162245Y-56747600I-336955J0D01*
G01*
G37*
G36*
G01*
X123194245Y-56747600D02*
X122068155Y-56747600D01*
G75*
G02*
X121731200Y-56410645I0J336955D01*
G01*
X121731200Y-55534555D01*
G75*
G02*
X122068155Y-55197600I336955J0D01*
G01*
X123194245Y-55197600D01*
G75*
G02*
X123531200Y-55534555I0J-336955D01*
G01*
X123531200Y-56410645D01*
G75*
G02*
X123194245Y-56747600I-336955J0D01*
G01*
G37*
G36*
G01*
X123194245Y-58797600D02*
X122068155Y-58797600D01*
G75*
G02*
X121731200Y-58460645I0J336955D01*
G01*
X121731200Y-57584555D01*
G75*
G02*
X122068155Y-57247600I336955J0D01*
G01*
X123194245Y-57247600D01*
G75*
G02*
X123531200Y-57584555I0J-336955D01*
G01*
X123531200Y-58460645D01*
G75*
G02*
X123194245Y-58797600I-336955J0D01*
G01*
G37*
G36*
G01*
X193290400Y-113037300D02*
X193290400Y-112362300D01*
G75*
G02*
X193627900Y-112024800I337500J0D01*
G01*
X194327900Y-112024800D01*
G75*
G02*
X194665400Y-112362300I0J-337500D01*
G01*
X194665400Y-113037300D01*
G75*
G02*
X194327900Y-113374800I-337500J0D01*
G01*
X193627900Y-113374800D01*
G75*
G02*
X193290400Y-113037300I0J337500D01*
G01*
G37*
G36*
G01*
X191465400Y-113037300D02*
X191465400Y-112362300D01*
G75*
G02*
X191802900Y-112024800I337500J0D01*
G01*
X192502900Y-112024800D01*
G75*
G02*
X192840400Y-112362300I0J-337500D01*
G01*
X192840400Y-113037300D01*
G75*
G02*
X192502900Y-113374800I-337500J0D01*
G01*
X191802900Y-113374800D01*
G75*
G02*
X191465400Y-113037300I0J337500D01*
G01*
G37*
G36*
G01*
X194690800Y-114165700D02*
X194690800Y-114840700D01*
G75*
G02*
X194353300Y-115178200I-337500J0D01*
G01*
X193653300Y-115178200D01*
G75*
G02*
X193315800Y-114840700I0J337500D01*
G01*
X193315800Y-114165700D01*
G75*
G02*
X193653300Y-113828200I337500J0D01*
G01*
X194353300Y-113828200D01*
G75*
G02*
X194690800Y-114165700I0J-337500D01*
G01*
G37*
G36*
G01*
X192865800Y-114165700D02*
X192865800Y-114840700D01*
G75*
G02*
X192528300Y-115178200I-337500J0D01*
G01*
X191828300Y-115178200D01*
G75*
G02*
X191490800Y-114840700I0J337500D01*
G01*
X191490800Y-114165700D01*
G75*
G02*
X191828300Y-113828200I337500J0D01*
G01*
X192528300Y-113828200D01*
G75*
G02*
X192865800Y-114165700I0J-337500D01*
G01*
G37*
G36*
G01*
X121781800Y-113546000D02*
X121781800Y-114546000D01*
G75*
G02*
X121581800Y-114746000I-200000J0D01*
G01*
X120581800Y-114746000D01*
G75*
G02*
X120381800Y-114546000I0J200000D01*
G01*
X120381800Y-113546000D01*
G75*
G02*
X120581800Y-113346000I200000J0D01*
G01*
X121581800Y-113346000D01*
G75*
G02*
X121781800Y-113546000I0J-200000D01*
G01*
G37*
D14*
X119811800Y-114046000D03*
X121081800Y-112776000D03*
X119811800Y-112776000D03*
X121081800Y-111506000D03*
X119811800Y-111506000D03*
X121081800Y-110236000D03*
X119811800Y-110236000D03*
X121081800Y-108966000D03*
X119811800Y-108966000D03*
G36*
G01*
X126204000Y-107225200D02*
X126204000Y-105525200D01*
G75*
G02*
X126404000Y-105325200I200000J0D01*
G01*
X128104000Y-105325200D01*
G75*
G02*
X128304000Y-105525200I0J-200000D01*
G01*
X128304000Y-107225200D01*
G75*
G02*
X128104000Y-107425200I-200000J0D01*
G01*
X126404000Y-107425200D01*
G75*
G02*
X126204000Y-107225200I0J200000D01*
G01*
G37*
D10*
X127254000Y-108915200D03*
X127254000Y-111455200D03*
X127254000Y-113995200D03*
X127254000Y-116535200D03*
D15*
X190677800Y-123596400D03*
X189407800Y-122326400D03*
G36*
G01*
X192797800Y-121676400D02*
X192797800Y-122976400D01*
G75*
G02*
X192597800Y-123176400I-200000J0D01*
G01*
X191297800Y-123176400D01*
G75*
G02*
X191097800Y-122976400I0J200000D01*
G01*
X191097800Y-121676400D01*
G75*
G02*
X191297800Y-121476400I200000J0D01*
G01*
X192597800Y-121476400D01*
G75*
G02*
X192797800Y-121676400I0J-200000D01*
G01*
G37*
G36*
G01*
X167601000Y-133741400D02*
X167601000Y-135041400D01*
G75*
G02*
X167401000Y-135241400I-200000J0D01*
G01*
X166101000Y-135241400D01*
G75*
G02*
X165901000Y-135041400I0J200000D01*
G01*
X165901000Y-133741400D01*
G75*
G02*
X166101000Y-133541400I200000J0D01*
G01*
X167401000Y-133541400D01*
G75*
G02*
X167601000Y-133741400I0J-200000D01*
G01*
G37*
X164211000Y-134391400D03*
X165481000Y-135661400D03*
X129692400Y-123393200D03*
X128422400Y-122123200D03*
G36*
G01*
X131812400Y-121473200D02*
X131812400Y-122773200D01*
G75*
G02*
X131612400Y-122973200I-200000J0D01*
G01*
X130312400Y-122973200D01*
G75*
G02*
X130112400Y-122773200I0J200000D01*
G01*
X130112400Y-121473200D01*
G75*
G02*
X130312400Y-121273200I200000J0D01*
G01*
X131612400Y-121273200D01*
G75*
G02*
X131812400Y-121473200I0J-200000D01*
G01*
G37*
G36*
G01*
X156882200Y-133741400D02*
X156882200Y-135041400D01*
G75*
G02*
X156682200Y-135241400I-200000J0D01*
G01*
X155382200Y-135241400D01*
G75*
G02*
X155182200Y-135041400I0J200000D01*
G01*
X155182200Y-133741400D01*
G75*
G02*
X155382200Y-133541400I200000J0D01*
G01*
X156682200Y-133541400D01*
G75*
G02*
X156882200Y-133741400I0J-200000D01*
G01*
G37*
X153492200Y-134391400D03*
X154762200Y-135661400D03*
X132308600Y-62026800D03*
X133578600Y-60756800D03*
G36*
G01*
X134228600Y-64146800D02*
X132928600Y-64146800D01*
G75*
G02*
X132728600Y-63946800I0J200000D01*
G01*
X132728600Y-62646800D01*
G75*
G02*
X132928600Y-62446800I200000J0D01*
G01*
X134228600Y-62446800D01*
G75*
G02*
X134428600Y-62646800I0J-200000D01*
G01*
X134428600Y-63946800D01*
G75*
G02*
X134228600Y-64146800I-200000J0D01*
G01*
G37*
G36*
G01*
X188708079Y-133667200D02*
X187211921Y-133667200D01*
G75*
G02*
X186885000Y-133340279I0J326921D01*
G01*
X186885000Y-132294121D01*
G75*
G02*
X187211921Y-131967200I326921J0D01*
G01*
X188708079Y-131967200D01*
G75*
G02*
X189035000Y-132294121I0J-326921D01*
G01*
X189035000Y-133340279D01*
G75*
G02*
X188708079Y-133667200I-326921J0D01*
G01*
G37*
G36*
G01*
X188708079Y-130567200D02*
X187211921Y-130567200D01*
G75*
G02*
X186885000Y-130240279I0J326921D01*
G01*
X186885000Y-129194121D01*
G75*
G02*
X187211921Y-128867200I326921J0D01*
G01*
X188708079Y-128867200D01*
G75*
G02*
X189035000Y-129194121I0J-326921D01*
G01*
X189035000Y-130240279D01*
G75*
G02*
X188708079Y-130567200I-326921J0D01*
G01*
G37*
G36*
G01*
X172124321Y-135675600D02*
X173620479Y-135675600D01*
G75*
G02*
X173947400Y-136002521I0J-326921D01*
G01*
X173947400Y-137048679D01*
G75*
G02*
X173620479Y-137375600I-326921J0D01*
G01*
X172124321Y-137375600D01*
G75*
G02*
X171797400Y-137048679I0J326921D01*
G01*
X171797400Y-136002521D01*
G75*
G02*
X172124321Y-135675600I326921J0D01*
G01*
G37*
G36*
G01*
X172124321Y-132575600D02*
X173620479Y-132575600D01*
G75*
G02*
X173947400Y-132902521I0J-326921D01*
G01*
X173947400Y-133948679D01*
G75*
G02*
X173620479Y-134275600I-326921J0D01*
G01*
X172124321Y-134275600D01*
G75*
G02*
X171797400Y-133948679I0J326921D01*
G01*
X171797400Y-132902521D01*
G75*
G02*
X172124321Y-132575600I326921J0D01*
G01*
G37*
G36*
G01*
X133412279Y-130847800D02*
X131916121Y-130847800D01*
G75*
G02*
X131589200Y-130520879I0J326921D01*
G01*
X131589200Y-129474721D01*
G75*
G02*
X131916121Y-129147800I326921J0D01*
G01*
X133412279Y-129147800D01*
G75*
G02*
X133739200Y-129474721I0J-326921D01*
G01*
X133739200Y-130520879D01*
G75*
G02*
X133412279Y-130847800I-326921J0D01*
G01*
G37*
G36*
G01*
X133412279Y-127747800D02*
X131916121Y-127747800D01*
G75*
G02*
X131589200Y-127420879I0J326921D01*
G01*
X131589200Y-126374721D01*
G75*
G02*
X131916121Y-126047800I326921J0D01*
G01*
X133412279Y-126047800D01*
G75*
G02*
X133739200Y-126374721I0J-326921D01*
G01*
X133739200Y-127420879D01*
G75*
G02*
X133412279Y-127747800I-326921J0D01*
G01*
G37*
G36*
G01*
X149696121Y-135421600D02*
X151192279Y-135421600D01*
G75*
G02*
X151519200Y-135748521I0J-326921D01*
G01*
X151519200Y-136794679D01*
G75*
G02*
X151192279Y-137121600I-326921J0D01*
G01*
X149696121Y-137121600D01*
G75*
G02*
X149369200Y-136794679I0J326921D01*
G01*
X149369200Y-135748521D01*
G75*
G02*
X149696121Y-135421600I326921J0D01*
G01*
G37*
G36*
G01*
X149696121Y-132321600D02*
X151192279Y-132321600D01*
G75*
G02*
X151519200Y-132648521I0J-326921D01*
G01*
X151519200Y-133694679D01*
G75*
G02*
X151192279Y-134021600I-326921J0D01*
G01*
X149696121Y-134021600D01*
G75*
G02*
X149369200Y-133694679I0J326921D01*
G01*
X149369200Y-132648521D01*
G75*
G02*
X149696121Y-132321600I326921J0D01*
G01*
G37*
D16*
X198196200Y-63119000D03*
X198196200Y-67945000D03*
X198196200Y-58293000D03*
G36*
G01*
X191885200Y-55515800D02*
X193585200Y-55515800D01*
G75*
G02*
X193785200Y-55715800I0J-200000D01*
G01*
X193785200Y-57415800D01*
G75*
G02*
X193585200Y-57615800I-200000J0D01*
G01*
X191885200Y-57615800D01*
G75*
G02*
X191685200Y-57415800I0J200000D01*
G01*
X191685200Y-55715800D01*
G75*
G02*
X191885200Y-55515800I200000J0D01*
G01*
G37*
G36*
G01*
X137778200Y-137453000D02*
X137778200Y-139153000D01*
G75*
G02*
X137578200Y-139353000I-200000J0D01*
G01*
X135878200Y-139353000D01*
G75*
G02*
X135678200Y-139153000I0J200000D01*
G01*
X135678200Y-137453000D01*
G75*
G02*
X135878200Y-137253000I200000J0D01*
G01*
X137578200Y-137253000D01*
G75*
G02*
X137778200Y-137453000I0J-200000D01*
G01*
G37*
G36*
G01*
X138112400Y-69199000D02*
X136512400Y-69199000D01*
G75*
G02*
X136312400Y-68999000I0J200000D01*
G01*
X136312400Y-67399000D01*
G75*
G02*
X136512400Y-67199000I200000J0D01*
G01*
X138112400Y-67199000D01*
G75*
G02*
X138312400Y-67399000I0J-200000D01*
G01*
X138312400Y-68999000D01*
G75*
G02*
X138112400Y-69199000I-200000J0D01*
G01*
G37*
D17*
X155092400Y-60579000D03*
X139852400Y-68199000D03*
X152552400Y-60579000D03*
X142392400Y-68199000D03*
X150012400Y-60579000D03*
X144932400Y-68199000D03*
X147472400Y-60579000D03*
X147472400Y-68199000D03*
X144932400Y-60579000D03*
X150012400Y-68199000D03*
X142392400Y-60579000D03*
X152552400Y-68199000D03*
X139852400Y-60579000D03*
X155092400Y-68199000D03*
X137312400Y-60579000D03*
D18*
X132254000Y-78376000D03*
X132254000Y-96376000D03*
X187786000Y-78376000D03*
X187786000Y-96376000D03*
D16*
X161493200Y-73406000D03*
X166319200Y-73406000D03*
X156667200Y-73406000D03*
G36*
G01*
X194835600Y-122058000D02*
X194835600Y-120258000D01*
G75*
G02*
X195035600Y-120058000I200000J0D01*
G01*
X196835600Y-120058000D01*
G75*
G02*
X197035600Y-120258000I0J-200000D01*
G01*
X197035600Y-122058000D01*
G75*
G02*
X196835600Y-122258000I-200000J0D01*
G01*
X195035600Y-122258000D01*
G75*
G02*
X194835600Y-122058000I0J200000D01*
G01*
G37*
D19*
X198475600Y-121158000D03*
D12*
X197205600Y-124968000D03*
X165875971Y-145140247D03*
D19*
X163032942Y-142303667D03*
G36*
G01*
X162214223Y-145962806D02*
X160603341Y-145159650D01*
G75*
G02*
X160513594Y-144891423I89240J178987D01*
G01*
X161316750Y-143280541D01*
G75*
G02*
X161584977Y-143190794I178987J-89240D01*
G01*
X163195859Y-143993950D01*
G75*
G02*
X163285606Y-144262177I-89240J-178987D01*
G01*
X162482450Y-145873059D01*
G75*
G02*
X162214223Y-145962806I-178987J89240D01*
G01*
G37*
D12*
X122948700Y-124841000D03*
D19*
X124218700Y-121031000D03*
G36*
G01*
X120578700Y-121931000D02*
X120578700Y-120131000D01*
G75*
G02*
X120778700Y-119931000I200000J0D01*
G01*
X122578700Y-119931000D01*
G75*
G02*
X122778700Y-120131000I0J-200000D01*
G01*
X122778700Y-121931000D01*
G75*
G02*
X122578700Y-122131000I-200000J0D01*
G01*
X120778700Y-122131000D01*
G75*
G02*
X120578700Y-121931000I0J200000D01*
G01*
G37*
G36*
G01*
X155786999Y-141720817D02*
X157397881Y-140917661D01*
G75*
G02*
X157666108Y-141007408I89240J-178987D01*
G01*
X158469264Y-142618290D01*
G75*
G02*
X158379517Y-142886517I-178987J-89240D01*
G01*
X156768635Y-143689673D01*
G75*
G02*
X156500408Y-143599926I-89240J178987D01*
G01*
X155697252Y-141989044D01*
G75*
G02*
X155786999Y-141720817I178987J89240D01*
G01*
G37*
X158216600Y-144576800D03*
D12*
X154240229Y-145140247D03*
G36*
G01*
X189349200Y-127950800D02*
X189349200Y-126150800D01*
G75*
G02*
X189549200Y-125950800I200000J0D01*
G01*
X191349200Y-125950800D01*
G75*
G02*
X191549200Y-126150800I0J-200000D01*
G01*
X191549200Y-127950800D01*
G75*
G02*
X191349200Y-128150800I-200000J0D01*
G01*
X189549200Y-128150800D01*
G75*
G02*
X189349200Y-127950800I0J200000D01*
G01*
G37*
D19*
X192989200Y-127050800D03*
D12*
X191719200Y-130860800D03*
X173699171Y-142574847D03*
D19*
X170856142Y-139738267D03*
G36*
G01*
X170037423Y-143397406D02*
X168426541Y-142594250D01*
G75*
G02*
X168336794Y-142326023I89240J178987D01*
G01*
X169139950Y-140715141D01*
G75*
G02*
X169408177Y-140625394I178987J-89240D01*
G01*
X171019059Y-141428550D01*
G75*
G02*
X171108806Y-141696777I-89240J-178987D01*
G01*
X170305650Y-143307659D01*
G75*
G02*
X170037423Y-143397406I-178987J89240D01*
G01*
G37*
G36*
G01*
X126458800Y-127823800D02*
X126458800Y-126023800D01*
G75*
G02*
X126658800Y-125823800I200000J0D01*
G01*
X128458800Y-125823800D01*
G75*
G02*
X128658800Y-126023800I0J-200000D01*
G01*
X128658800Y-127823800D01*
G75*
G02*
X128458800Y-128023800I-200000J0D01*
G01*
X126658800Y-128023800D01*
G75*
G02*
X126458800Y-127823800I0J200000D01*
G01*
G37*
X130098800Y-126923800D03*
D12*
X128828800Y-130733800D03*
X146442429Y-142574847D03*
D19*
X150418800Y-142011400D03*
G36*
G01*
X147989199Y-139155417D02*
X149600081Y-138352261D01*
G75*
G02*
X149868308Y-138442008I89240J-178987D01*
G01*
X150671464Y-140052890D01*
G75*
G02*
X150581717Y-140321117I-178987J-89240D01*
G01*
X148970835Y-141124273D01*
G75*
G02*
X148702608Y-141034526I-89240J178987D01*
G01*
X147899452Y-139423644D01*
G75*
G02*
X147989199Y-139155417I178987J89240D01*
G01*
G37*
G36*
G01*
X163309469Y-64835000D02*
X164858531Y-64835000D01*
G75*
G02*
X165184000Y-65160469I0J-325469D01*
G01*
X165184000Y-66234531D01*
G75*
G02*
X164858531Y-66560000I-325469J0D01*
G01*
X163309469Y-66560000D01*
G75*
G02*
X162984000Y-66234531I0J325469D01*
G01*
X162984000Y-65160469D01*
G75*
G02*
X163309469Y-64835000I325469J0D01*
G01*
G37*
G36*
G01*
X163309469Y-61710000D02*
X164858531Y-61710000D01*
G75*
G02*
X165184000Y-62035469I0J-325469D01*
G01*
X165184000Y-63109531D01*
G75*
G02*
X164858531Y-63435000I-325469J0D01*
G01*
X163309469Y-63435000D01*
G75*
G02*
X162984000Y-63109531I0J325469D01*
G01*
X162984000Y-62035469D01*
G75*
G02*
X163309469Y-61710000I325469J0D01*
G01*
G37*
G36*
G01*
X166890600Y-60537600D02*
X165290600Y-60537600D01*
G75*
G02*
X165090600Y-60337600I0J200000D01*
G01*
X165090600Y-58737600D01*
G75*
G02*
X165290600Y-58537600I200000J0D01*
G01*
X166890600Y-58537600D01*
G75*
G02*
X167090600Y-58737600I0J-200000D01*
G01*
X167090600Y-60337600D01*
G75*
G02*
X166890600Y-60537600I-200000J0D01*
G01*
G37*
D13*
X166090600Y-57037600D03*
G36*
G01*
X142211800Y-73458332D02*
X142211800Y-74991668D01*
G75*
G02*
X141878468Y-75325000I-333332J0D01*
G01*
X140945132Y-75325000D01*
G75*
G02*
X140611800Y-74991668I0J333332D01*
G01*
X140611800Y-73458332D01*
G75*
G02*
X140945132Y-73125000I333332J0D01*
G01*
X141878468Y-73125000D01*
G75*
G02*
X142211800Y-73458332I0J-333332D01*
G01*
G37*
G36*
G01*
X149811800Y-73458332D02*
X149811800Y-74991668D01*
G75*
G02*
X149478468Y-75325000I-333332J0D01*
G01*
X148545132Y-75325000D01*
G75*
G02*
X148211800Y-74991668I0J333332D01*
G01*
X148211800Y-73458332D01*
G75*
G02*
X148545132Y-73125000I333332J0D01*
G01*
X149478468Y-73125000D01*
G75*
G02*
X149811800Y-73458332I0J-333332D01*
G01*
G37*
G36*
G01*
X143211800Y-70975000D02*
X143211800Y-72425000D01*
G75*
G02*
X142961800Y-72675000I-250000J0D01*
G01*
X142461800Y-72675000D01*
G75*
G02*
X142211800Y-72425000I0J250000D01*
G01*
X142211800Y-70975000D01*
G75*
G02*
X142461800Y-70725000I250000J0D01*
G01*
X142961800Y-70725000D01*
G75*
G02*
X143211800Y-70975000I0J-250000D01*
G01*
G37*
G36*
G01*
X144211800Y-70975000D02*
X144211800Y-72425000D01*
G75*
G02*
X143961800Y-72675000I-250000J0D01*
G01*
X143461800Y-72675000D01*
G75*
G02*
X143211800Y-72425000I0J250000D01*
G01*
X143211800Y-70975000D01*
G75*
G02*
X143461800Y-70725000I250000J0D01*
G01*
X143961800Y-70725000D01*
G75*
G02*
X144211800Y-70975000I0J-250000D01*
G01*
G37*
G36*
G01*
X145211800Y-70975000D02*
X145211800Y-72425000D01*
G75*
G02*
X144961800Y-72675000I-250000J0D01*
G01*
X144461800Y-72675000D01*
G75*
G02*
X144211800Y-72425000I0J250000D01*
G01*
X144211800Y-70975000D01*
G75*
G02*
X144461800Y-70725000I250000J0D01*
G01*
X144961800Y-70725000D01*
G75*
G02*
X145211800Y-70975000I0J-250000D01*
G01*
G37*
G36*
G01*
X146211800Y-70975000D02*
X146211800Y-72425000D01*
G75*
G02*
X145961800Y-72675000I-250000J0D01*
G01*
X145461800Y-72675000D01*
G75*
G02*
X145211800Y-72425000I0J250000D01*
G01*
X145211800Y-70975000D01*
G75*
G02*
X145461800Y-70725000I250000J0D01*
G01*
X145961800Y-70725000D01*
G75*
G02*
X146211800Y-70975000I0J-250000D01*
G01*
G37*
G36*
G01*
X147211800Y-70975000D02*
X147211800Y-72425000D01*
G75*
G02*
X146961800Y-72675000I-250000J0D01*
G01*
X146461800Y-72675000D01*
G75*
G02*
X146211800Y-72425000I0J250000D01*
G01*
X146211800Y-70975000D01*
G75*
G02*
X146461800Y-70725000I250000J0D01*
G01*
X146961800Y-70725000D01*
G75*
G02*
X147211800Y-70975000I0J-250000D01*
G01*
G37*
G36*
G01*
X148211800Y-70975000D02*
X148211800Y-72425000D01*
G75*
G02*
X147961800Y-72675000I-250000J0D01*
G01*
X147461800Y-72675000D01*
G75*
G02*
X147211800Y-72425000I0J250000D01*
G01*
X147211800Y-70975000D01*
G75*
G02*
X147461800Y-70725000I250000J0D01*
G01*
X147961800Y-70725000D01*
G75*
G02*
X148211800Y-70975000I0J-250000D01*
G01*
G37*
G36*
G01*
X178158400Y-70644800D02*
X178158400Y-72094800D01*
G75*
G02*
X177908400Y-72344800I-250000J0D01*
G01*
X177408400Y-72344800D01*
G75*
G02*
X177158400Y-72094800I0J250000D01*
G01*
X177158400Y-70644800D01*
G75*
G02*
X177408400Y-70394800I250000J0D01*
G01*
X177908400Y-70394800D01*
G75*
G02*
X178158400Y-70644800I0J-250000D01*
G01*
G37*
G36*
G01*
X177158400Y-70644800D02*
X177158400Y-72094800D01*
G75*
G02*
X176908400Y-72344800I-250000J0D01*
G01*
X176408400Y-72344800D01*
G75*
G02*
X176158400Y-72094800I0J250000D01*
G01*
X176158400Y-70644800D01*
G75*
G02*
X176408400Y-70394800I250000J0D01*
G01*
X176908400Y-70394800D01*
G75*
G02*
X177158400Y-70644800I0J-250000D01*
G01*
G37*
G36*
G01*
X176158400Y-70644800D02*
X176158400Y-72094800D01*
G75*
G02*
X175908400Y-72344800I-250000J0D01*
G01*
X175408400Y-72344800D01*
G75*
G02*
X175158400Y-72094800I0J250000D01*
G01*
X175158400Y-70644800D01*
G75*
G02*
X175408400Y-70394800I250000J0D01*
G01*
X175908400Y-70394800D01*
G75*
G02*
X176158400Y-70644800I0J-250000D01*
G01*
G37*
G36*
G01*
X175158400Y-70644800D02*
X175158400Y-72094800D01*
G75*
G02*
X174908400Y-72344800I-250000J0D01*
G01*
X174408400Y-72344800D01*
G75*
G02*
X174158400Y-72094800I0J250000D01*
G01*
X174158400Y-70644800D01*
G75*
G02*
X174408400Y-70394800I250000J0D01*
G01*
X174908400Y-70394800D01*
G75*
G02*
X175158400Y-70644800I0J-250000D01*
G01*
G37*
G36*
G01*
X174158400Y-70644800D02*
X174158400Y-72094800D01*
G75*
G02*
X173908400Y-72344800I-250000J0D01*
G01*
X173408400Y-72344800D01*
G75*
G02*
X173158400Y-72094800I0J250000D01*
G01*
X173158400Y-70644800D01*
G75*
G02*
X173408400Y-70394800I250000J0D01*
G01*
X173908400Y-70394800D01*
G75*
G02*
X174158400Y-70644800I0J-250000D01*
G01*
G37*
G36*
G01*
X173158400Y-70644800D02*
X173158400Y-72094800D01*
G75*
G02*
X172908400Y-72344800I-250000J0D01*
G01*
X172408400Y-72344800D01*
G75*
G02*
X172158400Y-72094800I0J250000D01*
G01*
X172158400Y-70644800D01*
G75*
G02*
X172408400Y-70394800I250000J0D01*
G01*
X172908400Y-70394800D01*
G75*
G02*
X173158400Y-70644800I0J-250000D01*
G01*
G37*
G36*
G01*
X179758400Y-73128132D02*
X179758400Y-74661468D01*
G75*
G02*
X179425068Y-74994800I-333332J0D01*
G01*
X178491732Y-74994800D01*
G75*
G02*
X178158400Y-74661468I0J333332D01*
G01*
X178158400Y-73128132D01*
G75*
G02*
X178491732Y-72794800I333332J0D01*
G01*
X179425068Y-72794800D01*
G75*
G02*
X179758400Y-73128132I0J-333332D01*
G01*
G37*
G36*
G01*
X172158400Y-73128132D02*
X172158400Y-74661468D01*
G75*
G02*
X171825068Y-74994800I-333332J0D01*
G01*
X170891732Y-74994800D01*
G75*
G02*
X170558400Y-74661468I0J333332D01*
G01*
X170558400Y-73128132D01*
G75*
G02*
X170891732Y-72794800I333332J0D01*
G01*
X171825068Y-72794800D01*
G75*
G02*
X172158400Y-73128132I0J-333332D01*
G01*
G37*
G36*
G01*
X167754469Y-64504800D02*
X169303531Y-64504800D01*
G75*
G02*
X169629000Y-64830269I0J-325469D01*
G01*
X169629000Y-65904331D01*
G75*
G02*
X169303531Y-66229800I-325469J0D01*
G01*
X167754469Y-66229800D01*
G75*
G02*
X167429000Y-65904331I0J325469D01*
G01*
X167429000Y-64830269D01*
G75*
G02*
X167754469Y-64504800I325469J0D01*
G01*
G37*
G36*
G01*
X167754469Y-61379800D02*
X169303531Y-61379800D01*
G75*
G02*
X169629000Y-61705269I0J-325469D01*
G01*
X169629000Y-62779331D01*
G75*
G02*
X169303531Y-63104800I-325469J0D01*
G01*
X167754469Y-63104800D01*
G75*
G02*
X167429000Y-62779331I0J325469D01*
G01*
X167429000Y-61705269D01*
G75*
G02*
X167754469Y-61379800I325469J0D01*
G01*
G37*
D10*
X151917400Y-77470000D03*
X149377400Y-77470000D03*
X146837400Y-77470000D03*
X144297400Y-77470000D03*
X141757400Y-77470000D03*
G36*
G01*
X140067400Y-78520000D02*
X138367400Y-78520000D01*
G75*
G02*
X138167400Y-78320000I0J200000D01*
G01*
X138167400Y-76620000D01*
G75*
G02*
X138367400Y-76420000I200000J0D01*
G01*
X140067400Y-76420000D01*
G75*
G02*
X140267400Y-76620000I0J-200000D01*
G01*
X140267400Y-78320000D01*
G75*
G02*
X140067400Y-78520000I-200000J0D01*
G01*
G37*
G36*
G01*
X168921800Y-78621600D02*
X167221800Y-78621600D01*
G75*
G02*
X167021800Y-78421600I0J200000D01*
G01*
X167021800Y-76721600D01*
G75*
G02*
X167221800Y-76521600I200000J0D01*
G01*
X168921800Y-76521600D01*
G75*
G02*
X169121800Y-76721600I0J-200000D01*
G01*
X169121800Y-78421600D01*
G75*
G02*
X168921800Y-78621600I-200000J0D01*
G01*
G37*
X170611800Y-77571600D03*
X173151800Y-77571600D03*
X175691800Y-77571600D03*
X178231800Y-77571600D03*
X180771800Y-77571600D03*
G36*
G01*
X151146800Y-58431800D02*
X151146800Y-56731800D01*
G75*
G02*
X151346800Y-56531800I200000J0D01*
G01*
X153046800Y-56531800D01*
G75*
G02*
X153246800Y-56731800I0J-200000D01*
G01*
X153246800Y-58431800D01*
G75*
G02*
X153046800Y-58631800I-200000J0D01*
G01*
X151346800Y-58631800D01*
G75*
G02*
X151146800Y-58431800I0J200000D01*
G01*
G37*
G36*
G01*
X121830200Y-105952000D02*
X120130200Y-105952000D01*
G75*
G02*
X119930200Y-105752000I0J200000D01*
G01*
X119930200Y-104052000D01*
G75*
G02*
X120130200Y-103852000I200000J0D01*
G01*
X121830200Y-103852000D01*
G75*
G02*
X122030200Y-104052000I0J-200000D01*
G01*
X122030200Y-105752000D01*
G75*
G02*
X121830200Y-105952000I-200000J0D01*
G01*
G37*
G36*
G01*
X159677800Y-134344400D02*
X158177800Y-134344400D01*
G75*
G02*
X157977800Y-134144400I0J200000D01*
G01*
X157977800Y-133144400D01*
G75*
G02*
X158177800Y-132944400I200000J0D01*
G01*
X159677800Y-132944400D01*
G75*
G02*
X159877800Y-133144400I0J-200000D01*
G01*
X159877800Y-134144400D01*
G75*
G02*
X159677800Y-134344400I-200000J0D01*
G01*
G37*
G36*
G01*
X159677800Y-133044400D02*
X158177800Y-133044400D01*
G75*
G02*
X157977800Y-132844400I0J200000D01*
G01*
X157977800Y-131844400D01*
G75*
G02*
X158177800Y-131644400I200000J0D01*
G01*
X159677800Y-131644400D01*
G75*
G02*
X159877800Y-131844400I0J-200000D01*
G01*
X159877800Y-132844400D01*
G75*
G02*
X159677800Y-133044400I-200000J0D01*
G01*
G37*
G36*
G01*
X134757600Y-58073800D02*
X134757600Y-56073800D01*
G75*
G02*
X134957600Y-55873800I200000J0D01*
G01*
X137457600Y-55873800D01*
G75*
G02*
X137657600Y-56073800I0J-200000D01*
G01*
X137657600Y-58073800D01*
G75*
G02*
X137457600Y-58273800I-200000J0D01*
G01*
X134957600Y-58273800D01*
G75*
G02*
X134757600Y-58073800I0J200000D01*
G01*
G37*
G36*
G01*
X126197600Y-58073800D02*
X126197600Y-56073800D01*
G75*
G02*
X126397600Y-55873800I200000J0D01*
G01*
X128897600Y-55873800D01*
G75*
G02*
X129097600Y-56073800I0J-200000D01*
G01*
X129097600Y-58073800D01*
G75*
G02*
X128897600Y-58273800I-200000J0D01*
G01*
X126397600Y-58273800D01*
G75*
G02*
X126197600Y-58073800I0J200000D01*
G01*
G37*
G36*
G01*
X175041800Y-135747000D02*
X175041800Y-133747000D01*
G75*
G02*
X175241800Y-133547000I200000J0D01*
G01*
X177741800Y-133547000D01*
G75*
G02*
X177941800Y-133747000I0J-200000D01*
G01*
X177941800Y-135747000D01*
G75*
G02*
X177741800Y-135947000I-200000J0D01*
G01*
X175241800Y-135947000D01*
G75*
G02*
X175041800Y-135747000I0J200000D01*
G01*
G37*
G36*
G01*
X183601800Y-135747000D02*
X183601800Y-133747000D01*
G75*
G02*
X183801800Y-133547000I200000J0D01*
G01*
X186301800Y-133547000D01*
G75*
G02*
X186501800Y-133747000I0J-200000D01*
G01*
X186501800Y-135747000D01*
G75*
G02*
X186301800Y-135947000I-200000J0D01*
G01*
X183801800Y-135947000D01*
G75*
G02*
X183601800Y-135747000I0J200000D01*
G01*
G37*
D20*
X146754600Y-135280400D03*
G36*
G01*
X145429600Y-136155400D02*
X144079600Y-136155400D01*
G75*
G02*
X143879600Y-135955400I0J200000D01*
G01*
X143879600Y-134605400D01*
G75*
G02*
X144079600Y-134405400I200000J0D01*
G01*
X145429600Y-134405400D01*
G75*
G02*
X145629600Y-134605400I0J-200000D01*
G01*
X145629600Y-135955400D01*
G75*
G02*
X145429600Y-136155400I-200000J0D01*
G01*
G37*
G36*
G01*
X135752200Y-136130000D02*
X134402200Y-136130000D01*
G75*
G02*
X134202200Y-135930000I0J200000D01*
G01*
X134202200Y-134580000D01*
G75*
G02*
X134402200Y-134380000I200000J0D01*
G01*
X135752200Y-134380000D01*
G75*
G02*
X135952200Y-134580000I0J-200000D01*
G01*
X135952200Y-135930000D01*
G75*
G02*
X135752200Y-136130000I-200000J0D01*
G01*
G37*
X137077200Y-135255000D03*
X178987200Y-138455400D03*
G36*
G01*
X177662200Y-139330400D02*
X176312200Y-139330400D01*
G75*
G02*
X176112200Y-139130400I0J200000D01*
G01*
X176112200Y-137780400D01*
G75*
G02*
X176312200Y-137580400I200000J0D01*
G01*
X177662200Y-137580400D01*
G75*
G02*
X177862200Y-137780400I0J-200000D01*
G01*
X177862200Y-139130400D01*
G75*
G02*
X177662200Y-139330400I-200000J0D01*
G01*
G37*
G36*
G01*
X183983000Y-137580400D02*
X185333000Y-137580400D01*
G75*
G02*
X185533000Y-137780400I0J-200000D01*
G01*
X185533000Y-139130400D01*
G75*
G02*
X185333000Y-139330400I-200000J0D01*
G01*
X183983000Y-139330400D01*
G75*
G02*
X183783000Y-139130400I0J200000D01*
G01*
X183783000Y-137780400D01*
G75*
G02*
X183983000Y-137580400I200000J0D01*
G01*
G37*
X182658000Y-138455400D03*
G36*
G01*
X186608400Y-63889800D02*
X186608400Y-64989800D01*
G75*
G02*
X186408400Y-65189800I-200000J0D01*
G01*
X181808400Y-65189800D01*
G75*
G02*
X181608400Y-64989800I0J200000D01*
G01*
X181608400Y-63889800D01*
G75*
G02*
X181808400Y-63689800I200000J0D01*
G01*
X186408400Y-63689800D01*
G75*
G02*
X186608400Y-63889800I0J-200000D01*
G01*
G37*
G36*
G01*
X186608400Y-61349800D02*
X186608400Y-62449800D01*
G75*
G02*
X186408400Y-62649800I-200000J0D01*
G01*
X181808400Y-62649800D01*
G75*
G02*
X181608400Y-62449800I0J200000D01*
G01*
X181608400Y-61349800D01*
G75*
G02*
X181808400Y-61149800I200000J0D01*
G01*
X186408400Y-61149800D01*
G75*
G02*
X186608400Y-61349800I0J-200000D01*
G01*
G37*
G36*
G01*
X186608400Y-58809800D02*
X186608400Y-59909800D01*
G75*
G02*
X186408400Y-60109800I-200000J0D01*
G01*
X181808400Y-60109800D01*
G75*
G02*
X181608400Y-59909800I0J200000D01*
G01*
X181608400Y-58809800D01*
G75*
G02*
X181808400Y-58609800I200000J0D01*
G01*
X186408400Y-58609800D01*
G75*
G02*
X186608400Y-58809800I0J-200000D01*
G01*
G37*
G36*
G01*
X179858400Y-56499799D02*
X179858400Y-67299801D01*
G75*
G02*
X179658401Y-67499800I-199999J0D01*
G01*
X170258399Y-67499800D01*
G75*
G02*
X170058400Y-67299801I0J199999D01*
G01*
X170058400Y-56499799D01*
G75*
G02*
X170258399Y-56299800I199999J0D01*
G01*
X179658401Y-56299800D01*
G75*
G02*
X179858400Y-56499799I0J-199999D01*
G01*
G37*
D21*
X176047400Y-58343800D03*
X176047400Y-60375800D03*
X178079400Y-60375800D03*
X178079400Y-58343800D03*
X174015400Y-58343800D03*
X171983400Y-58343800D03*
X174015400Y-60375800D03*
X171983400Y-60375800D03*
X171983400Y-62407800D03*
X174015400Y-62407800D03*
X176047400Y-62407800D03*
X178079400Y-62407800D03*
X171983400Y-64439800D03*
X174015400Y-64439800D03*
X176047400Y-64439800D03*
X178079400Y-64439800D03*
X178079400Y-66471800D03*
X176047400Y-66471800D03*
X174015400Y-66471800D03*
X171983400Y-66471800D03*
G36*
G01*
X190915200Y-120293400D02*
X190115200Y-120293400D01*
G75*
G02*
X189915200Y-120093400I0J200000D01*
G01*
X189915200Y-119193400D01*
G75*
G02*
X190115200Y-118993400I200000J0D01*
G01*
X190915200Y-118993400D01*
G75*
G02*
X191115200Y-119193400I0J-200000D01*
G01*
X191115200Y-120093400D01*
G75*
G02*
X190915200Y-120293400I-200000J0D01*
G01*
G37*
G36*
G01*
X192815200Y-120293400D02*
X192015200Y-120293400D01*
G75*
G02*
X191815200Y-120093400I0J200000D01*
G01*
X191815200Y-119193400D01*
G75*
G02*
X192015200Y-118993400I200000J0D01*
G01*
X192815200Y-118993400D01*
G75*
G02*
X193015200Y-119193400I0J-200000D01*
G01*
X193015200Y-120093400D01*
G75*
G02*
X192815200Y-120293400I-200000J0D01*
G01*
G37*
G36*
G01*
X191865200Y-118293400D02*
X191065200Y-118293400D01*
G75*
G02*
X190865200Y-118093400I0J200000D01*
G01*
X190865200Y-117193400D01*
G75*
G02*
X191065200Y-116993400I200000J0D01*
G01*
X191865200Y-116993400D01*
G75*
G02*
X192065200Y-117193400I0J-200000D01*
G01*
X192065200Y-118093400D01*
G75*
G02*
X191865200Y-118293400I-200000J0D01*
G01*
G37*
G36*
G01*
X169347400Y-135083600D02*
X169347400Y-135883600D01*
G75*
G02*
X169147400Y-136083600I-200000J0D01*
G01*
X168247400Y-136083600D01*
G75*
G02*
X168047400Y-135883600I0J200000D01*
G01*
X168047400Y-135083600D01*
G75*
G02*
X168247400Y-134883600I200000J0D01*
G01*
X169147400Y-134883600D01*
G75*
G02*
X169347400Y-135083600I0J-200000D01*
G01*
G37*
G36*
G01*
X171347400Y-134133600D02*
X171347400Y-134933600D01*
G75*
G02*
X171147400Y-135133600I-200000J0D01*
G01*
X170247400Y-135133600D01*
G75*
G02*
X170047400Y-134933600I0J200000D01*
G01*
X170047400Y-134133600D01*
G75*
G02*
X170247400Y-133933600I200000J0D01*
G01*
X171147400Y-133933600D01*
G75*
G02*
X171347400Y-134133600I0J-200000D01*
G01*
G37*
G36*
G01*
X171347400Y-136033600D02*
X171347400Y-136833600D01*
G75*
G02*
X171147400Y-137033600I-200000J0D01*
G01*
X170247400Y-137033600D01*
G75*
G02*
X170047400Y-136833600I0J200000D01*
G01*
X170047400Y-136033600D01*
G75*
G02*
X170247400Y-135833600I200000J0D01*
G01*
X171147400Y-135833600D01*
G75*
G02*
X171347400Y-136033600I0J-200000D01*
G01*
G37*
G36*
G01*
X133689000Y-123874800D02*
X132889000Y-123874800D01*
G75*
G02*
X132689000Y-123674800I0J200000D01*
G01*
X132689000Y-122774800D01*
G75*
G02*
X132889000Y-122574800I200000J0D01*
G01*
X133689000Y-122574800D01*
G75*
G02*
X133889000Y-122774800I0J-200000D01*
G01*
X133889000Y-123674800D01*
G75*
G02*
X133689000Y-123874800I-200000J0D01*
G01*
G37*
G36*
G01*
X135589000Y-123874800D02*
X134789000Y-123874800D01*
G75*
G02*
X134589000Y-123674800I0J200000D01*
G01*
X134589000Y-122774800D01*
G75*
G02*
X134789000Y-122574800I200000J0D01*
G01*
X135589000Y-122574800D01*
G75*
G02*
X135789000Y-122774800I0J-200000D01*
G01*
X135789000Y-123674800D01*
G75*
G02*
X135589000Y-123874800I-200000J0D01*
G01*
G37*
G36*
G01*
X134639000Y-121874800D02*
X133839000Y-121874800D01*
G75*
G02*
X133639000Y-121674800I0J200000D01*
G01*
X133639000Y-120774800D01*
G75*
G02*
X133839000Y-120574800I200000J0D01*
G01*
X134639000Y-120574800D01*
G75*
G02*
X134839000Y-120774800I0J-200000D01*
G01*
X134839000Y-121674800D01*
G75*
G02*
X134639000Y-121874800I-200000J0D01*
G01*
G37*
G36*
G01*
X153117600Y-139211800D02*
X153917600Y-139211800D01*
G75*
G02*
X154117600Y-139411800I0J-200000D01*
G01*
X154117600Y-140311800D01*
G75*
G02*
X153917600Y-140511800I-200000J0D01*
G01*
X153117600Y-140511800D01*
G75*
G02*
X152917600Y-140311800I0J200000D01*
G01*
X152917600Y-139411800D01*
G75*
G02*
X153117600Y-139211800I200000J0D01*
G01*
G37*
G36*
G01*
X152167600Y-137211800D02*
X152967600Y-137211800D01*
G75*
G02*
X153167600Y-137411800I0J-200000D01*
G01*
X153167600Y-138311800D01*
G75*
G02*
X152967600Y-138511800I-200000J0D01*
G01*
X152167600Y-138511800D01*
G75*
G02*
X151967600Y-138311800I0J200000D01*
G01*
X151967600Y-137411800D01*
G75*
G02*
X152167600Y-137211800I200000J0D01*
G01*
G37*
G36*
G01*
X154067600Y-137211800D02*
X154867600Y-137211800D01*
G75*
G02*
X155067600Y-137411800I0J-200000D01*
G01*
X155067600Y-138311800D01*
G75*
G02*
X154867600Y-138511800I-200000J0D01*
G01*
X154067600Y-138511800D01*
G75*
G02*
X153867600Y-138311800I0J200000D01*
G01*
X153867600Y-137411800D01*
G75*
G02*
X154067600Y-137211800I200000J0D01*
G01*
G37*
G36*
G01*
X138772731Y-100062600D02*
X137223669Y-100062600D01*
G75*
G02*
X136898200Y-99737131I0J325469D01*
G01*
X136898200Y-98663069D01*
G75*
G02*
X137223669Y-98337600I325469J0D01*
G01*
X138772731Y-98337600D01*
G75*
G02*
X139098200Y-98663069I0J-325469D01*
G01*
X139098200Y-99737131D01*
G75*
G02*
X138772731Y-100062600I-325469J0D01*
G01*
G37*
G36*
G01*
X138772731Y-96937600D02*
X137223669Y-96937600D01*
G75*
G02*
X136898200Y-96612131I0J325469D01*
G01*
X136898200Y-95538069D01*
G75*
G02*
X137223669Y-95212600I325469J0D01*
G01*
X138772731Y-95212600D01*
G75*
G02*
X139098200Y-95538069I0J-325469D01*
G01*
X139098200Y-96612131D01*
G75*
G02*
X138772731Y-96937600I-325469J0D01*
G01*
G37*
D22*
X139522200Y-116840000D03*
X139522200Y-119380000D03*
X139522200Y-121920000D03*
X139522200Y-124460000D03*
X183972200Y-128270000D03*
G36*
G01*
X183122200Y-111980000D02*
X184822200Y-111980000D01*
G75*
G02*
X185022200Y-112180000I0J-200000D01*
G01*
X185022200Y-113880000D01*
G75*
G02*
X184822200Y-114080000I-200000J0D01*
G01*
X183122200Y-114080000D01*
G75*
G02*
X182922200Y-113880000I0J200000D01*
G01*
X182922200Y-112180000D01*
G75*
G02*
X183122200Y-111980000I200000J0D01*
G01*
G37*
X181432200Y-128270000D03*
X181432200Y-113030000D03*
X178892200Y-128270000D03*
X178892200Y-113030000D03*
X176352200Y-128270000D03*
X176352200Y-113030000D03*
X173812200Y-128270000D03*
X173812200Y-113030000D03*
X171272200Y-128270000D03*
X171272200Y-113030000D03*
X168732200Y-128270000D03*
X168732200Y-113030000D03*
X166192200Y-128270000D03*
X166192200Y-113030000D03*
X163652200Y-128270000D03*
X163652200Y-113030000D03*
X161112200Y-128270000D03*
X161112200Y-113030000D03*
X158572200Y-128270000D03*
X158572200Y-113030000D03*
X156032200Y-128270000D03*
X156032200Y-113030000D03*
X153492200Y-128270000D03*
X153492200Y-113030000D03*
X150952200Y-128270000D03*
X150952200Y-113030000D03*
X148412200Y-128270000D03*
X148412200Y-113030000D03*
X145872200Y-128270000D03*
X145872200Y-113030000D03*
X143332200Y-128270000D03*
X143332200Y-113030000D03*
X140792200Y-128270000D03*
X140792200Y-113030000D03*
X138252200Y-128270000D03*
X138252200Y-113030000D03*
X135712200Y-128270000D03*
X135712200Y-113030000D03*
G36*
G01*
X197874600Y-116929800D02*
X197874600Y-118629800D01*
G75*
G02*
X197674600Y-118829800I-200000J0D01*
G01*
X195974600Y-118829800D01*
G75*
G02*
X195774600Y-118629800I0J200000D01*
G01*
X195774600Y-116929800D01*
G75*
G02*
X195974600Y-116729800I200000J0D01*
G01*
X197674600Y-116729800D01*
G75*
G02*
X197874600Y-116929800I0J-200000D01*
G01*
G37*
D10*
X196824600Y-115239800D03*
X196824600Y-112699800D03*
X196824600Y-110159800D03*
X196824600Y-107619800D03*
X196824600Y-105079800D03*
G36*
G01*
X143399800Y-57111000D02*
X143399800Y-55411000D01*
G75*
G02*
X143599800Y-55211000I200000J0D01*
G01*
X145299800Y-55211000D01*
G75*
G02*
X145499800Y-55411000I0J-200000D01*
G01*
X145499800Y-57111000D01*
G75*
G02*
X145299800Y-57311000I-200000J0D01*
G01*
X143599800Y-57311000D01*
G75*
G02*
X143399800Y-57111000I0J200000D01*
G01*
G37*
G36*
G01*
X139742200Y-57085600D02*
X139742200Y-55385600D01*
G75*
G02*
X139942200Y-55185600I200000J0D01*
G01*
X141642200Y-55185600D01*
G75*
G02*
X141842200Y-55385600I0J-200000D01*
G01*
X141842200Y-57085600D01*
G75*
G02*
X141642200Y-57285600I-200000J0D01*
G01*
X139942200Y-57285600D01*
G75*
G02*
X139742200Y-57085600I0J200000D01*
G01*
G37*
D23*
G36*
X163375738Y-144081400D02*
G01*
X163376842Y-144083068D01*
X163376636Y-144084082D01*
X162395000Y-146052938D01*
X162393332Y-146054042D01*
X162392318Y-146053836D01*
X160423462Y-145072200D01*
X160422358Y-145070532D01*
X160422564Y-145069518D01*
X160422566Y-145069513D01*
X160427037Y-145069513D01*
X162392313Y-146049363D01*
X163372163Y-144084087D01*
X161406887Y-143104237D01*
X161215781Y-143487537D01*
X161070062Y-143779804D01*
X160427037Y-145069513D01*
X160422566Y-145069513D01*
X161066482Y-143778020D01*
X161212201Y-143485753D01*
X161404200Y-143100662D01*
X161406882Y-143099764D01*
X163375738Y-144081400D01*
G37*
G36*
X157577972Y-140826753D02*
G01*
X157578658Y-140827529D01*
X157770657Y-141212620D01*
X158560294Y-142796385D01*
X158559396Y-142799067D01*
X156590540Y-143780703D01*
X156588544Y-143780581D01*
X156587858Y-143779805D01*
X156250140Y-143102447D01*
X155606225Y-141810954D01*
X155610695Y-141810954D01*
X156253720Y-143100663D01*
X156590545Y-143776230D01*
X158555821Y-142796380D01*
X157767077Y-141214404D01*
X157575971Y-140831104D01*
X155610695Y-141810954D01*
X155606225Y-141810954D01*
X155606222Y-141810949D01*
X155607120Y-141808267D01*
X157575976Y-140826631D01*
X157577972Y-140826753D01*
G37*
G36*
X171198938Y-141516000D02*
G01*
X171200042Y-141517668D01*
X171199836Y-141518682D01*
X170410199Y-143102447D01*
X170218200Y-143487538D01*
X170215518Y-143488436D01*
X168246662Y-142506800D01*
X168245558Y-142505132D01*
X168245764Y-142504118D01*
X168245766Y-142504113D01*
X168250237Y-142504113D01*
X170215513Y-143483963D01*
X170406619Y-143100663D01*
X171195363Y-141518687D01*
X169230087Y-140538837D01*
X168893262Y-141214404D01*
X168250237Y-142504113D01*
X168245766Y-142504113D01*
X168889682Y-141212620D01*
X169227400Y-140535262D01*
X169230082Y-140534364D01*
X171198938Y-141516000D01*
G37*
G36*
X149780172Y-138261353D02*
G01*
X149780858Y-138262129D01*
X150762494Y-140230985D01*
X150762372Y-140232981D01*
X150761596Y-140233667D01*
X148792740Y-141215303D01*
X148790744Y-141215181D01*
X148790058Y-141214405D01*
X148598059Y-140829314D01*
X148452340Y-140537047D01*
X147808425Y-139245554D01*
X147812895Y-139245554D01*
X148455920Y-140535263D01*
X148601639Y-140827530D01*
X148792745Y-141210830D01*
X150758021Y-140230980D01*
X149778171Y-138265704D01*
X147812895Y-139245554D01*
X147808425Y-139245554D01*
X147808422Y-139245549D01*
X147809320Y-139242867D01*
X149778176Y-138261231D01*
X149780172Y-138261353D01*
G37*
G36*
X171799390Y-137048483D02*
G01*
X171805652Y-137112063D01*
X171824142Y-137173017D01*
X171854167Y-137229191D01*
X171894574Y-137278426D01*
X171943809Y-137318833D01*
X171999983Y-137348858D01*
X172060937Y-137367348D01*
X172124517Y-137373610D01*
X172126143Y-137374775D01*
X172125947Y-137376765D01*
X172124321Y-137377600D01*
X172053537Y-137377600D01*
X172053341Y-137377590D01*
X171998553Y-137372194D01*
X171998168Y-137372118D01*
X171951377Y-137357924D01*
X171951015Y-137357774D01*
X171907899Y-137334728D01*
X171907573Y-137334510D01*
X171869781Y-137303496D01*
X171869504Y-137303219D01*
X171838490Y-137265427D01*
X171838272Y-137265101D01*
X171815226Y-137221985D01*
X171815076Y-137221623D01*
X171800882Y-137174832D01*
X171800806Y-137174447D01*
X171795410Y-137119659D01*
X171795400Y-137119463D01*
X171795400Y-137048679D01*
X171796400Y-137046947D01*
X171798400Y-137046947D01*
X171799390Y-137048483D01*
G37*
G36*
X173948565Y-137047053D02*
G01*
X173949400Y-137048679D01*
X173949400Y-137119463D01*
X173949390Y-137119659D01*
X173943994Y-137174447D01*
X173943918Y-137174832D01*
X173929724Y-137221623D01*
X173929574Y-137221985D01*
X173906528Y-137265101D01*
X173906310Y-137265427D01*
X173875296Y-137303219D01*
X173875019Y-137303496D01*
X173837227Y-137334510D01*
X173836901Y-137334728D01*
X173793785Y-137357774D01*
X173793423Y-137357924D01*
X173746632Y-137372118D01*
X173746247Y-137372194D01*
X173691459Y-137377590D01*
X173691263Y-137377600D01*
X173620479Y-137377600D01*
X173618747Y-137376600D01*
X173618747Y-137374600D01*
X173620283Y-137373610D01*
X173683863Y-137367348D01*
X173744817Y-137348858D01*
X173800991Y-137318833D01*
X173850226Y-137278426D01*
X173890633Y-137229191D01*
X173920658Y-137173017D01*
X173939148Y-137112063D01*
X173945410Y-137048483D01*
X173946575Y-137046857D01*
X173948565Y-137047053D01*
G37*
G36*
X149371190Y-136794483D02*
G01*
X149377452Y-136858063D01*
X149395942Y-136919017D01*
X149425967Y-136975191D01*
X149466374Y-137024426D01*
X149515609Y-137064833D01*
X149571783Y-137094858D01*
X149632737Y-137113348D01*
X149696317Y-137119610D01*
X149697943Y-137120775D01*
X149697747Y-137122765D01*
X149696121Y-137123600D01*
X149625337Y-137123600D01*
X149625141Y-137123590D01*
X149570353Y-137118194D01*
X149569968Y-137118118D01*
X149523177Y-137103924D01*
X149522815Y-137103774D01*
X149479699Y-137080728D01*
X149479373Y-137080510D01*
X149441581Y-137049496D01*
X149441304Y-137049219D01*
X149410290Y-137011427D01*
X149410072Y-137011101D01*
X149387026Y-136967985D01*
X149386876Y-136967623D01*
X149372682Y-136920832D01*
X149372606Y-136920447D01*
X149367210Y-136865659D01*
X149367200Y-136865463D01*
X149367200Y-136794679D01*
X149368200Y-136792947D01*
X149370200Y-136792947D01*
X149371190Y-136794483D01*
G37*
G36*
X151520365Y-136793053D02*
G01*
X151521200Y-136794679D01*
X151521200Y-136865463D01*
X151521190Y-136865659D01*
X151515794Y-136920447D01*
X151515718Y-136920832D01*
X151501524Y-136967623D01*
X151501374Y-136967985D01*
X151478328Y-137011101D01*
X151478110Y-137011427D01*
X151447096Y-137049219D01*
X151446819Y-137049496D01*
X151409027Y-137080510D01*
X151408701Y-137080728D01*
X151365585Y-137103774D01*
X151365223Y-137103924D01*
X151318432Y-137118118D01*
X151318047Y-137118194D01*
X151263259Y-137123590D01*
X151263063Y-137123600D01*
X151192279Y-137123600D01*
X151190547Y-137122600D01*
X151190547Y-137120600D01*
X151192083Y-137119610D01*
X151255663Y-137113348D01*
X151316617Y-137094858D01*
X151372791Y-137064833D01*
X151422026Y-137024426D01*
X151462433Y-136975191D01*
X151492458Y-136919017D01*
X151510948Y-136858063D01*
X151517210Y-136794483D01*
X151518375Y-136792857D01*
X151520365Y-136793053D01*
G37*
G36*
X172126053Y-135674600D02*
G01*
X172126053Y-135676600D01*
X172124517Y-135677590D01*
X172060937Y-135683852D01*
X171999983Y-135702342D01*
X171943809Y-135732367D01*
X171894574Y-135772774D01*
X171854167Y-135822009D01*
X171824142Y-135878183D01*
X171805652Y-135939137D01*
X171799390Y-136002717D01*
X171798225Y-136004343D01*
X171796235Y-136004147D01*
X171795400Y-136002521D01*
X171795400Y-135931737D01*
X171795410Y-135931541D01*
X171800806Y-135876753D01*
X171800882Y-135876368D01*
X171815076Y-135829577D01*
X171815226Y-135829215D01*
X171838272Y-135786099D01*
X171838490Y-135785773D01*
X171869504Y-135747981D01*
X171869781Y-135747704D01*
X171907573Y-135716690D01*
X171907899Y-135716472D01*
X171951015Y-135693426D01*
X171951377Y-135693276D01*
X171998168Y-135679082D01*
X171998553Y-135679006D01*
X172053341Y-135673610D01*
X172053537Y-135673600D01*
X172124321Y-135673600D01*
X172126053Y-135674600D01*
G37*
G36*
X173691459Y-135673610D02*
G01*
X173746247Y-135679006D01*
X173746632Y-135679082D01*
X173793423Y-135693276D01*
X173793785Y-135693426D01*
X173836901Y-135716472D01*
X173837227Y-135716690D01*
X173875019Y-135747704D01*
X173875296Y-135747981D01*
X173906310Y-135785773D01*
X173906528Y-135786099D01*
X173929574Y-135829215D01*
X173929724Y-135829577D01*
X173943918Y-135876368D01*
X173943994Y-135876753D01*
X173949390Y-135931541D01*
X173949400Y-135931737D01*
X173949400Y-136002521D01*
X173948400Y-136004253D01*
X173946400Y-136004253D01*
X173945410Y-136002717D01*
X173939148Y-135939137D01*
X173920658Y-135878183D01*
X173890633Y-135822009D01*
X173850226Y-135772774D01*
X173800991Y-135732367D01*
X173744817Y-135702342D01*
X173683863Y-135683852D01*
X173620283Y-135677590D01*
X173618657Y-135676425D01*
X173618853Y-135674435D01*
X173620479Y-135673600D01*
X173691263Y-135673600D01*
X173691459Y-135673610D01*
G37*
G36*
X149697853Y-135420600D02*
G01*
X149697853Y-135422600D01*
X149696317Y-135423590D01*
X149632737Y-135429852D01*
X149571783Y-135448342D01*
X149515609Y-135478367D01*
X149466374Y-135518774D01*
X149425967Y-135568009D01*
X149395942Y-135624183D01*
X149377452Y-135685137D01*
X149371190Y-135748717D01*
X149370025Y-135750343D01*
X149368035Y-135750147D01*
X149367200Y-135748521D01*
X149367200Y-135677737D01*
X149367210Y-135677541D01*
X149372606Y-135622753D01*
X149372682Y-135622368D01*
X149386876Y-135575577D01*
X149387026Y-135575215D01*
X149410072Y-135532099D01*
X149410290Y-135531773D01*
X149441304Y-135493981D01*
X149441581Y-135493704D01*
X149479373Y-135462690D01*
X149479699Y-135462472D01*
X149522815Y-135439426D01*
X149523177Y-135439276D01*
X149569968Y-135425082D01*
X149570353Y-135425006D01*
X149625141Y-135419610D01*
X149625337Y-135419600D01*
X149696121Y-135419600D01*
X149697853Y-135420600D01*
G37*
G36*
X151263259Y-135419610D02*
G01*
X151318047Y-135425006D01*
X151318432Y-135425082D01*
X151365223Y-135439276D01*
X151365585Y-135439426D01*
X151408701Y-135462472D01*
X151409027Y-135462690D01*
X151446819Y-135493704D01*
X151447096Y-135493981D01*
X151478110Y-135531773D01*
X151478328Y-135532099D01*
X151501374Y-135575215D01*
X151501524Y-135575577D01*
X151515718Y-135622368D01*
X151515794Y-135622753D01*
X151521190Y-135677541D01*
X151521200Y-135677737D01*
X151521200Y-135748521D01*
X151520200Y-135750253D01*
X151518200Y-135750253D01*
X151517210Y-135748717D01*
X151510948Y-135685137D01*
X151492458Y-135624183D01*
X151462433Y-135568009D01*
X151422026Y-135518774D01*
X151372791Y-135478367D01*
X151316617Y-135448342D01*
X151255663Y-135429852D01*
X151192083Y-135423590D01*
X151190457Y-135422425D01*
X151190653Y-135420435D01*
X151192279Y-135419600D01*
X151263063Y-135419600D01*
X151263259Y-135419610D01*
G37*
G36*
X154271382Y-134723363D02*
G01*
X154271709Y-134725162D01*
X154266435Y-134742546D01*
X154264072Y-134766538D01*
X154266435Y-134790529D01*
X154273435Y-134813604D01*
X154284800Y-134834867D01*
X154300095Y-134853504D01*
X154318732Y-134868800D01*
X154339996Y-134880165D01*
X154363070Y-134887165D01*
X154387062Y-134889528D01*
X154411053Y-134887165D01*
X154428439Y-134881891D01*
X154430387Y-134882345D01*
X154430968Y-134884259D01*
X154429785Y-134885653D01*
X154362460Y-134913540D01*
X154224240Y-135005895D01*
X154106695Y-135123440D01*
X154014340Y-135261660D01*
X153986453Y-135328984D01*
X153984866Y-135330202D01*
X153983018Y-135329437D01*
X153982691Y-135327638D01*
X153987965Y-135310254D01*
X153990328Y-135286262D01*
X153987965Y-135262271D01*
X153980965Y-135239196D01*
X153969600Y-135217933D01*
X153954305Y-135199296D01*
X153935668Y-135184000D01*
X153914404Y-135172635D01*
X153891330Y-135165635D01*
X153867338Y-135163272D01*
X153843347Y-135165635D01*
X153825961Y-135170909D01*
X153824013Y-135170455D01*
X153823432Y-135168541D01*
X153824615Y-135167147D01*
X153891940Y-135139260D01*
X154030160Y-135046905D01*
X154147705Y-134929360D01*
X154240060Y-134791140D01*
X154267947Y-134723816D01*
X154269534Y-134722598D01*
X154271382Y-134723363D01*
G37*
G36*
X164990182Y-134723363D02*
G01*
X164990509Y-134725162D01*
X164985235Y-134742546D01*
X164982872Y-134766538D01*
X164985235Y-134790529D01*
X164992235Y-134813604D01*
X165003600Y-134834867D01*
X165018895Y-134853504D01*
X165037532Y-134868800D01*
X165058796Y-134880165D01*
X165081870Y-134887165D01*
X165105862Y-134889528D01*
X165129853Y-134887165D01*
X165147239Y-134881891D01*
X165149187Y-134882345D01*
X165149768Y-134884259D01*
X165148585Y-134885653D01*
X165081260Y-134913540D01*
X164943040Y-135005895D01*
X164825495Y-135123440D01*
X164733140Y-135261660D01*
X164705253Y-135328984D01*
X164703666Y-135330202D01*
X164701818Y-135329437D01*
X164701491Y-135327638D01*
X164706765Y-135310254D01*
X164709128Y-135286262D01*
X164706765Y-135262271D01*
X164699765Y-135239196D01*
X164688400Y-135217933D01*
X164673105Y-135199296D01*
X164654468Y-135184000D01*
X164633204Y-135172635D01*
X164610130Y-135165635D01*
X164586138Y-135163272D01*
X164562147Y-135165635D01*
X164544761Y-135170909D01*
X164542813Y-135170455D01*
X164542232Y-135168541D01*
X164543415Y-135167147D01*
X164610740Y-135139260D01*
X164748960Y-135046905D01*
X164866505Y-134929360D01*
X164958860Y-134791140D01*
X164986747Y-134723816D01*
X164988334Y-134722598D01*
X164990182Y-134723363D01*
G37*
G36*
X171799390Y-133948483D02*
G01*
X171805652Y-134012063D01*
X171824142Y-134073017D01*
X171854167Y-134129191D01*
X171894574Y-134178426D01*
X171943809Y-134218833D01*
X171999983Y-134248858D01*
X172060937Y-134267348D01*
X172124517Y-134273610D01*
X172126143Y-134274775D01*
X172125947Y-134276765D01*
X172124321Y-134277600D01*
X172053537Y-134277600D01*
X172053341Y-134277590D01*
X171998553Y-134272194D01*
X171998168Y-134272118D01*
X171951377Y-134257924D01*
X171951015Y-134257774D01*
X171907899Y-134234728D01*
X171907573Y-134234510D01*
X171869781Y-134203496D01*
X171869504Y-134203219D01*
X171838490Y-134165427D01*
X171838272Y-134165101D01*
X171815226Y-134121985D01*
X171815076Y-134121623D01*
X171800882Y-134074832D01*
X171800806Y-134074447D01*
X171795410Y-134019659D01*
X171795400Y-134019463D01*
X171795400Y-133948679D01*
X171796400Y-133946947D01*
X171798400Y-133946947D01*
X171799390Y-133948483D01*
G37*
G36*
X173948565Y-133947053D02*
G01*
X173949400Y-133948679D01*
X173949400Y-134019463D01*
X173949390Y-134019659D01*
X173943994Y-134074447D01*
X173943918Y-134074832D01*
X173929724Y-134121623D01*
X173929574Y-134121985D01*
X173906528Y-134165101D01*
X173906310Y-134165427D01*
X173875296Y-134203219D01*
X173875019Y-134203496D01*
X173837227Y-134234510D01*
X173836901Y-134234728D01*
X173793785Y-134257774D01*
X173793423Y-134257924D01*
X173746632Y-134272118D01*
X173746247Y-134272194D01*
X173691459Y-134277590D01*
X173691263Y-134277600D01*
X173620479Y-134277600D01*
X173618747Y-134276600D01*
X173618747Y-134274600D01*
X173620283Y-134273610D01*
X173683863Y-134267348D01*
X173744817Y-134248858D01*
X173800991Y-134218833D01*
X173850226Y-134178426D01*
X173890633Y-134129191D01*
X173920658Y-134073017D01*
X173939148Y-134012063D01*
X173945410Y-133948483D01*
X173946575Y-133946857D01*
X173948565Y-133947053D01*
G37*
G36*
X151520365Y-133693053D02*
G01*
X151521200Y-133694679D01*
X151521200Y-133765463D01*
X151521190Y-133765659D01*
X151515794Y-133820447D01*
X151515718Y-133820832D01*
X151501524Y-133867623D01*
X151501374Y-133867985D01*
X151478328Y-133911101D01*
X151478110Y-133911427D01*
X151447096Y-133949219D01*
X151446819Y-133949496D01*
X151409027Y-133980510D01*
X151408701Y-133980728D01*
X151365585Y-134003774D01*
X151365223Y-134003924D01*
X151318432Y-134018118D01*
X151318047Y-134018194D01*
X151263259Y-134023590D01*
X151263063Y-134023600D01*
X151192279Y-134023600D01*
X151190547Y-134022600D01*
X151190547Y-134020600D01*
X151192083Y-134019610D01*
X151255663Y-134013348D01*
X151316617Y-133994858D01*
X151372791Y-133964833D01*
X151422026Y-133924426D01*
X151462433Y-133875191D01*
X151492458Y-133819017D01*
X151510948Y-133758063D01*
X151517210Y-133694483D01*
X151518375Y-133692857D01*
X151520365Y-133693053D01*
G37*
G36*
X149371190Y-133694483D02*
G01*
X149377452Y-133758063D01*
X149395942Y-133819017D01*
X149425967Y-133875191D01*
X149466374Y-133924426D01*
X149515609Y-133964833D01*
X149571783Y-133994858D01*
X149632737Y-134013348D01*
X149696317Y-134019610D01*
X149697943Y-134020775D01*
X149697747Y-134022765D01*
X149696121Y-134023600D01*
X149625337Y-134023600D01*
X149625141Y-134023590D01*
X149570353Y-134018194D01*
X149569968Y-134018118D01*
X149523177Y-134003924D01*
X149522815Y-134003774D01*
X149479699Y-133980728D01*
X149479373Y-133980510D01*
X149441581Y-133949496D01*
X149441304Y-133949219D01*
X149410290Y-133911427D01*
X149410072Y-133911101D01*
X149387026Y-133867985D01*
X149386876Y-133867623D01*
X149372682Y-133820832D01*
X149372606Y-133820447D01*
X149367210Y-133765659D01*
X149367200Y-133765463D01*
X149367200Y-133694679D01*
X149368200Y-133692947D01*
X149370200Y-133692947D01*
X149371190Y-133694483D01*
G37*
G36*
X189036165Y-133338653D02*
G01*
X189037000Y-133340279D01*
X189037000Y-133411063D01*
X189036990Y-133411259D01*
X189031594Y-133466047D01*
X189031518Y-133466432D01*
X189017324Y-133513223D01*
X189017174Y-133513585D01*
X188994128Y-133556701D01*
X188993910Y-133557027D01*
X188962896Y-133594819D01*
X188962619Y-133595096D01*
X188924827Y-133626110D01*
X188924501Y-133626328D01*
X188881385Y-133649374D01*
X188881023Y-133649524D01*
X188834232Y-133663718D01*
X188833847Y-133663794D01*
X188779059Y-133669190D01*
X188778863Y-133669200D01*
X188708079Y-133669200D01*
X188706347Y-133668200D01*
X188706347Y-133666200D01*
X188707883Y-133665210D01*
X188771463Y-133658948D01*
X188832417Y-133640458D01*
X188888591Y-133610433D01*
X188937826Y-133570026D01*
X188978233Y-133520791D01*
X189008258Y-133464617D01*
X189026748Y-133403663D01*
X189033010Y-133340083D01*
X189034175Y-133338457D01*
X189036165Y-133338653D01*
G37*
G36*
X186886990Y-133340083D02*
G01*
X186893252Y-133403663D01*
X186911742Y-133464617D01*
X186941767Y-133520791D01*
X186982174Y-133570026D01*
X187031409Y-133610433D01*
X187087583Y-133640458D01*
X187148537Y-133658948D01*
X187212117Y-133665210D01*
X187213743Y-133666375D01*
X187213547Y-133668365D01*
X187211921Y-133669200D01*
X187141137Y-133669200D01*
X187140941Y-133669190D01*
X187086153Y-133663794D01*
X187085768Y-133663718D01*
X187038977Y-133649524D01*
X187038615Y-133649374D01*
X186995499Y-133626328D01*
X186995173Y-133626110D01*
X186957381Y-133595096D01*
X186957104Y-133594819D01*
X186926090Y-133557027D01*
X186925872Y-133556701D01*
X186902826Y-133513585D01*
X186902676Y-133513223D01*
X186888482Y-133466432D01*
X186888406Y-133466047D01*
X186883010Y-133411259D01*
X186883000Y-133411063D01*
X186883000Y-133340279D01*
X186884000Y-133338547D01*
X186886000Y-133338547D01*
X186886990Y-133340083D01*
G37*
G36*
X172126053Y-132574600D02*
G01*
X172126053Y-132576600D01*
X172124517Y-132577590D01*
X172060937Y-132583852D01*
X171999983Y-132602342D01*
X171943809Y-132632367D01*
X171894574Y-132672774D01*
X171854167Y-132722009D01*
X171824142Y-132778183D01*
X171805652Y-132839137D01*
X171799390Y-132902717D01*
X171798225Y-132904343D01*
X171796235Y-132904147D01*
X171795400Y-132902521D01*
X171795400Y-132831737D01*
X171795410Y-132831541D01*
X171800806Y-132776753D01*
X171800882Y-132776368D01*
X171815076Y-132729577D01*
X171815226Y-132729215D01*
X171838272Y-132686099D01*
X171838490Y-132685773D01*
X171869504Y-132647981D01*
X171869781Y-132647704D01*
X171907573Y-132616690D01*
X171907899Y-132616472D01*
X171951015Y-132593426D01*
X171951377Y-132593276D01*
X171998168Y-132579082D01*
X171998553Y-132579006D01*
X172053341Y-132573610D01*
X172053537Y-132573600D01*
X172124321Y-132573600D01*
X172126053Y-132574600D01*
G37*
G36*
X173691459Y-132573610D02*
G01*
X173746247Y-132579006D01*
X173746632Y-132579082D01*
X173793423Y-132593276D01*
X173793785Y-132593426D01*
X173836901Y-132616472D01*
X173837227Y-132616690D01*
X173875019Y-132647704D01*
X173875296Y-132647981D01*
X173906310Y-132685773D01*
X173906528Y-132686099D01*
X173929574Y-132729215D01*
X173929724Y-132729577D01*
X173943918Y-132776368D01*
X173943994Y-132776753D01*
X173949390Y-132831541D01*
X173949400Y-132831737D01*
X173949400Y-132902521D01*
X173948400Y-132904253D01*
X173946400Y-132904253D01*
X173945410Y-132902717D01*
X173939148Y-132839137D01*
X173920658Y-132778183D01*
X173890633Y-132722009D01*
X173850226Y-132672774D01*
X173800991Y-132632367D01*
X173744817Y-132602342D01*
X173683863Y-132583852D01*
X173620283Y-132577590D01*
X173618657Y-132576425D01*
X173618853Y-132574435D01*
X173620479Y-132573600D01*
X173691263Y-132573600D01*
X173691459Y-132573610D01*
G37*
G36*
X149697853Y-132320600D02*
G01*
X149697853Y-132322600D01*
X149696317Y-132323590D01*
X149632737Y-132329852D01*
X149571783Y-132348342D01*
X149515609Y-132378367D01*
X149466374Y-132418774D01*
X149425967Y-132468009D01*
X149395942Y-132524183D01*
X149377452Y-132585137D01*
X149371190Y-132648717D01*
X149370025Y-132650343D01*
X149368035Y-132650147D01*
X149367200Y-132648521D01*
X149367200Y-132577737D01*
X149367210Y-132577541D01*
X149372606Y-132522753D01*
X149372682Y-132522368D01*
X149386876Y-132475577D01*
X149387026Y-132475215D01*
X149410072Y-132432099D01*
X149410290Y-132431773D01*
X149441304Y-132393981D01*
X149441581Y-132393704D01*
X149479373Y-132362690D01*
X149479699Y-132362472D01*
X149522815Y-132339426D01*
X149523177Y-132339276D01*
X149569968Y-132325082D01*
X149570353Y-132325006D01*
X149625141Y-132319610D01*
X149625337Y-132319600D01*
X149696121Y-132319600D01*
X149697853Y-132320600D01*
G37*
G36*
X151263259Y-132319610D02*
G01*
X151318047Y-132325006D01*
X151318432Y-132325082D01*
X151365223Y-132339276D01*
X151365585Y-132339426D01*
X151408701Y-132362472D01*
X151409027Y-132362690D01*
X151446819Y-132393704D01*
X151447096Y-132393981D01*
X151478110Y-132431773D01*
X151478328Y-132432099D01*
X151501374Y-132475215D01*
X151501524Y-132475577D01*
X151515718Y-132522368D01*
X151515794Y-132522753D01*
X151521190Y-132577541D01*
X151521200Y-132577737D01*
X151521200Y-132648521D01*
X151520200Y-132650253D01*
X151518200Y-132650253D01*
X151517210Y-132648717D01*
X151510948Y-132585137D01*
X151492458Y-132524183D01*
X151462433Y-132468009D01*
X151422026Y-132418774D01*
X151372791Y-132378367D01*
X151316617Y-132348342D01*
X151255663Y-132329852D01*
X151192083Y-132323590D01*
X151190457Y-132322425D01*
X151190653Y-132320435D01*
X151192279Y-132319600D01*
X151263063Y-132319600D01*
X151263259Y-132319610D01*
G37*
G36*
X187213653Y-131966200D02*
G01*
X187213653Y-131968200D01*
X187212117Y-131969190D01*
X187148537Y-131975452D01*
X187087583Y-131993942D01*
X187031409Y-132023967D01*
X186982174Y-132064374D01*
X186941767Y-132113609D01*
X186911742Y-132169783D01*
X186893252Y-132230737D01*
X186886990Y-132294317D01*
X186885825Y-132295943D01*
X186883835Y-132295747D01*
X186883000Y-132294121D01*
X186883000Y-132223337D01*
X186883010Y-132223141D01*
X186888406Y-132168353D01*
X186888482Y-132167968D01*
X186902676Y-132121177D01*
X186902826Y-132120815D01*
X186925872Y-132077699D01*
X186926090Y-132077373D01*
X186957104Y-132039581D01*
X186957381Y-132039304D01*
X186995173Y-132008290D01*
X186995499Y-132008072D01*
X187038615Y-131985026D01*
X187038977Y-131984876D01*
X187085768Y-131970682D01*
X187086153Y-131970606D01*
X187140941Y-131965210D01*
X187141137Y-131965200D01*
X187211921Y-131965200D01*
X187213653Y-131966200D01*
G37*
G36*
X188779059Y-131965210D02*
G01*
X188833847Y-131970606D01*
X188834232Y-131970682D01*
X188881023Y-131984876D01*
X188881385Y-131985026D01*
X188924501Y-132008072D01*
X188924827Y-132008290D01*
X188962619Y-132039304D01*
X188962896Y-132039581D01*
X188993910Y-132077373D01*
X188994128Y-132077699D01*
X189017174Y-132120815D01*
X189017324Y-132121177D01*
X189031518Y-132167968D01*
X189031594Y-132168353D01*
X189036990Y-132223141D01*
X189037000Y-132223337D01*
X189037000Y-132294121D01*
X189036000Y-132295853D01*
X189034000Y-132295853D01*
X189033010Y-132294317D01*
X189026748Y-132230737D01*
X189008258Y-132169783D01*
X188978233Y-132113609D01*
X188937826Y-132064374D01*
X188888591Y-132023967D01*
X188832417Y-131993942D01*
X188771463Y-131975452D01*
X188707883Y-131969190D01*
X188706257Y-131968025D01*
X188706453Y-131966035D01*
X188708079Y-131965200D01*
X188778863Y-131965200D01*
X188779059Y-131965210D01*
G37*
G36*
X131591190Y-130520683D02*
G01*
X131597452Y-130584263D01*
X131615942Y-130645217D01*
X131645967Y-130701391D01*
X131686374Y-130750626D01*
X131735609Y-130791033D01*
X131791783Y-130821058D01*
X131852737Y-130839548D01*
X131916317Y-130845810D01*
X131917943Y-130846975D01*
X131917747Y-130848965D01*
X131916121Y-130849800D01*
X131845337Y-130849800D01*
X131845141Y-130849790D01*
X131790353Y-130844394D01*
X131789968Y-130844318D01*
X131743177Y-130830124D01*
X131742815Y-130829974D01*
X131699699Y-130806928D01*
X131699373Y-130806710D01*
X131661581Y-130775696D01*
X131661304Y-130775419D01*
X131630290Y-130737627D01*
X131630072Y-130737301D01*
X131607026Y-130694185D01*
X131606876Y-130693823D01*
X131592682Y-130647032D01*
X131592606Y-130646647D01*
X131587210Y-130591859D01*
X131587200Y-130591663D01*
X131587200Y-130520879D01*
X131588200Y-130519147D01*
X131590200Y-130519147D01*
X131591190Y-130520683D01*
G37*
G36*
X133740365Y-130519253D02*
G01*
X133741200Y-130520879D01*
X133741200Y-130591663D01*
X133741190Y-130591859D01*
X133735794Y-130646647D01*
X133735718Y-130647032D01*
X133721524Y-130693823D01*
X133721374Y-130694185D01*
X133698328Y-130737301D01*
X133698110Y-130737627D01*
X133667096Y-130775419D01*
X133666819Y-130775696D01*
X133629027Y-130806710D01*
X133628701Y-130806928D01*
X133585585Y-130829974D01*
X133585223Y-130830124D01*
X133538432Y-130844318D01*
X133538047Y-130844394D01*
X133483259Y-130849790D01*
X133483063Y-130849800D01*
X133412279Y-130849800D01*
X133410547Y-130848800D01*
X133410547Y-130846800D01*
X133412083Y-130845810D01*
X133475663Y-130839548D01*
X133536617Y-130821058D01*
X133592791Y-130791033D01*
X133642026Y-130750626D01*
X133682433Y-130701391D01*
X133712458Y-130645217D01*
X133730948Y-130584263D01*
X133737210Y-130520683D01*
X133738375Y-130519057D01*
X133740365Y-130519253D01*
G37*
G36*
X186886990Y-130240083D02*
G01*
X186893252Y-130303663D01*
X186911742Y-130364617D01*
X186941767Y-130420791D01*
X186982174Y-130470026D01*
X187031409Y-130510433D01*
X187087583Y-130540458D01*
X187148537Y-130558948D01*
X187212117Y-130565210D01*
X187213743Y-130566375D01*
X187213547Y-130568365D01*
X187211921Y-130569200D01*
X187141137Y-130569200D01*
X187140941Y-130569190D01*
X187086153Y-130563794D01*
X187085768Y-130563718D01*
X187038977Y-130549524D01*
X187038615Y-130549374D01*
X186995499Y-130526328D01*
X186995173Y-130526110D01*
X186957381Y-130495096D01*
X186957104Y-130494819D01*
X186926090Y-130457027D01*
X186925872Y-130456701D01*
X186902826Y-130413585D01*
X186902676Y-130413223D01*
X186888482Y-130366432D01*
X186888406Y-130366047D01*
X186883010Y-130311259D01*
X186883000Y-130311063D01*
X186883000Y-130240279D01*
X186884000Y-130238547D01*
X186886000Y-130238547D01*
X186886990Y-130240083D01*
G37*
G36*
X189036165Y-130238653D02*
G01*
X189037000Y-130240279D01*
X189037000Y-130311063D01*
X189036990Y-130311259D01*
X189031594Y-130366047D01*
X189031518Y-130366432D01*
X189017324Y-130413223D01*
X189017174Y-130413585D01*
X188994128Y-130456701D01*
X188993910Y-130457027D01*
X188962896Y-130494819D01*
X188962619Y-130495096D01*
X188924827Y-130526110D01*
X188924501Y-130526328D01*
X188881385Y-130549374D01*
X188881023Y-130549524D01*
X188834232Y-130563718D01*
X188833847Y-130563794D01*
X188779059Y-130569190D01*
X188778863Y-130569200D01*
X188708079Y-130569200D01*
X188706347Y-130568200D01*
X188706347Y-130566200D01*
X188707883Y-130565210D01*
X188771463Y-130558948D01*
X188832417Y-130540458D01*
X188888591Y-130510433D01*
X188937826Y-130470026D01*
X188978233Y-130420791D01*
X189008258Y-130364617D01*
X189026748Y-130303663D01*
X189033010Y-130240083D01*
X189034175Y-130238457D01*
X189036165Y-130238653D01*
G37*
G36*
X131917853Y-129146800D02*
G01*
X131917853Y-129148800D01*
X131916317Y-129149790D01*
X131852737Y-129156052D01*
X131791783Y-129174542D01*
X131735609Y-129204567D01*
X131686374Y-129244974D01*
X131645967Y-129294209D01*
X131615942Y-129350383D01*
X131597452Y-129411337D01*
X131591190Y-129474917D01*
X131590025Y-129476543D01*
X131588035Y-129476347D01*
X131587200Y-129474721D01*
X131587200Y-129403937D01*
X131587210Y-129403741D01*
X131592606Y-129348953D01*
X131592682Y-129348568D01*
X131606876Y-129301777D01*
X131607026Y-129301415D01*
X131630072Y-129258299D01*
X131630290Y-129257973D01*
X131661304Y-129220181D01*
X131661581Y-129219904D01*
X131699373Y-129188890D01*
X131699699Y-129188672D01*
X131742815Y-129165626D01*
X131743177Y-129165476D01*
X131789968Y-129151282D01*
X131790353Y-129151206D01*
X131845141Y-129145810D01*
X131845337Y-129145800D01*
X131916121Y-129145800D01*
X131917853Y-129146800D01*
G37*
G36*
X133483259Y-129145810D02*
G01*
X133538047Y-129151206D01*
X133538432Y-129151282D01*
X133585223Y-129165476D01*
X133585585Y-129165626D01*
X133628701Y-129188672D01*
X133629027Y-129188890D01*
X133666819Y-129219904D01*
X133667096Y-129220181D01*
X133698110Y-129257973D01*
X133698328Y-129258299D01*
X133721374Y-129301415D01*
X133721524Y-129301777D01*
X133735718Y-129348568D01*
X133735794Y-129348953D01*
X133741190Y-129403741D01*
X133741200Y-129403937D01*
X133741200Y-129474721D01*
X133740200Y-129476453D01*
X133738200Y-129476453D01*
X133737210Y-129474917D01*
X133730948Y-129411337D01*
X133712458Y-129350383D01*
X133682433Y-129294209D01*
X133642026Y-129244974D01*
X133592791Y-129204567D01*
X133536617Y-129174542D01*
X133475663Y-129156052D01*
X133412083Y-129149790D01*
X133410457Y-129148625D01*
X133410653Y-129146635D01*
X133412279Y-129145800D01*
X133483063Y-129145800D01*
X133483259Y-129145810D01*
G37*
G36*
X187213653Y-128866200D02*
G01*
X187213653Y-128868200D01*
X187212117Y-128869190D01*
X187148537Y-128875452D01*
X187087583Y-128893942D01*
X187031409Y-128923967D01*
X186982174Y-128964374D01*
X186941767Y-129013609D01*
X186911742Y-129069783D01*
X186893252Y-129130737D01*
X186886990Y-129194317D01*
X186885825Y-129195943D01*
X186883835Y-129195747D01*
X186883000Y-129194121D01*
X186883000Y-129123337D01*
X186883010Y-129123141D01*
X186888406Y-129068353D01*
X186888482Y-129067968D01*
X186902676Y-129021177D01*
X186902826Y-129020815D01*
X186925872Y-128977699D01*
X186926090Y-128977373D01*
X186957104Y-128939581D01*
X186957381Y-128939304D01*
X186995173Y-128908290D01*
X186995499Y-128908072D01*
X187038615Y-128885026D01*
X187038977Y-128884876D01*
X187085768Y-128870682D01*
X187086153Y-128870606D01*
X187140941Y-128865210D01*
X187141137Y-128865200D01*
X187211921Y-128865200D01*
X187213653Y-128866200D01*
G37*
G36*
X188779059Y-128865210D02*
G01*
X188833847Y-128870606D01*
X188834232Y-128870682D01*
X188881023Y-128884876D01*
X188881385Y-128885026D01*
X188924501Y-128908072D01*
X188924827Y-128908290D01*
X188962619Y-128939304D01*
X188962896Y-128939581D01*
X188993910Y-128977373D01*
X188994128Y-128977699D01*
X189017174Y-129020815D01*
X189017324Y-129021177D01*
X189031518Y-129067968D01*
X189031594Y-129068353D01*
X189036990Y-129123141D01*
X189037000Y-129123337D01*
X189037000Y-129194121D01*
X189036000Y-129195853D01*
X189034000Y-129195853D01*
X189033010Y-129194317D01*
X189026748Y-129130737D01*
X189008258Y-129069783D01*
X188978233Y-129013609D01*
X188937826Y-128964374D01*
X188888591Y-128923967D01*
X188832417Y-128893942D01*
X188771463Y-128875452D01*
X188707883Y-128869190D01*
X188706257Y-128868025D01*
X188706453Y-128866035D01*
X188708079Y-128865200D01*
X188778863Y-128865200D01*
X188779059Y-128865210D01*
G37*
G36*
X133740365Y-127419253D02*
G01*
X133741200Y-127420879D01*
X133741200Y-127491663D01*
X133741190Y-127491859D01*
X133735794Y-127546647D01*
X133735718Y-127547032D01*
X133721524Y-127593823D01*
X133721374Y-127594185D01*
X133698328Y-127637301D01*
X133698110Y-127637627D01*
X133667096Y-127675419D01*
X133666819Y-127675696D01*
X133629027Y-127706710D01*
X133628701Y-127706928D01*
X133585585Y-127729974D01*
X133585223Y-127730124D01*
X133538432Y-127744318D01*
X133538047Y-127744394D01*
X133483259Y-127749790D01*
X133483063Y-127749800D01*
X133412279Y-127749800D01*
X133410547Y-127748800D01*
X133410547Y-127746800D01*
X133412083Y-127745810D01*
X133475663Y-127739548D01*
X133536617Y-127721058D01*
X133592791Y-127691033D01*
X133642026Y-127650626D01*
X133682433Y-127601391D01*
X133712458Y-127545217D01*
X133730948Y-127484263D01*
X133737210Y-127420683D01*
X133738375Y-127419057D01*
X133740365Y-127419253D01*
G37*
G36*
X131591190Y-127420683D02*
G01*
X131597452Y-127484263D01*
X131615942Y-127545217D01*
X131645967Y-127601391D01*
X131686374Y-127650626D01*
X131735609Y-127691033D01*
X131791783Y-127721058D01*
X131852737Y-127739548D01*
X131916317Y-127745810D01*
X131917943Y-127746975D01*
X131917747Y-127748965D01*
X131916121Y-127749800D01*
X131845337Y-127749800D01*
X131845141Y-127749790D01*
X131790353Y-127744394D01*
X131789968Y-127744318D01*
X131743177Y-127730124D01*
X131742815Y-127729974D01*
X131699699Y-127706928D01*
X131699373Y-127706710D01*
X131661581Y-127675696D01*
X131661304Y-127675419D01*
X131630290Y-127637627D01*
X131630072Y-127637301D01*
X131607026Y-127594185D01*
X131606876Y-127593823D01*
X131592682Y-127547032D01*
X131592606Y-127546647D01*
X131587210Y-127491859D01*
X131587200Y-127491663D01*
X131587200Y-127420879D01*
X131588200Y-127419147D01*
X131590200Y-127419147D01*
X131591190Y-127420683D01*
G37*
G36*
X131917853Y-126046800D02*
G01*
X131917853Y-126048800D01*
X131916317Y-126049790D01*
X131852737Y-126056052D01*
X131791783Y-126074542D01*
X131735609Y-126104567D01*
X131686374Y-126144974D01*
X131645967Y-126194209D01*
X131615942Y-126250383D01*
X131597452Y-126311337D01*
X131591190Y-126374917D01*
X131590025Y-126376543D01*
X131588035Y-126376347D01*
X131587200Y-126374721D01*
X131587200Y-126303937D01*
X131587210Y-126303741D01*
X131592606Y-126248953D01*
X131592682Y-126248568D01*
X131606876Y-126201777D01*
X131607026Y-126201415D01*
X131630072Y-126158299D01*
X131630290Y-126157973D01*
X131661304Y-126120181D01*
X131661581Y-126119904D01*
X131699373Y-126088890D01*
X131699699Y-126088672D01*
X131742815Y-126065626D01*
X131743177Y-126065476D01*
X131789968Y-126051282D01*
X131790353Y-126051206D01*
X131845141Y-126045810D01*
X131845337Y-126045800D01*
X131916121Y-126045800D01*
X131917853Y-126046800D01*
G37*
G36*
X133483259Y-126045810D02*
G01*
X133538047Y-126051206D01*
X133538432Y-126051282D01*
X133585223Y-126065476D01*
X133585585Y-126065626D01*
X133628701Y-126088672D01*
X133629027Y-126088890D01*
X133666819Y-126119904D01*
X133667096Y-126120181D01*
X133698110Y-126157973D01*
X133698328Y-126158299D01*
X133721374Y-126201415D01*
X133721524Y-126201777D01*
X133735718Y-126248568D01*
X133735794Y-126248953D01*
X133741190Y-126303741D01*
X133741200Y-126303937D01*
X133741200Y-126374721D01*
X133740200Y-126376453D01*
X133738200Y-126376453D01*
X133737210Y-126374917D01*
X133730948Y-126311337D01*
X133712458Y-126250383D01*
X133682433Y-126194209D01*
X133642026Y-126144974D01*
X133592791Y-126104567D01*
X133536617Y-126074542D01*
X133475663Y-126056052D01*
X133412083Y-126049790D01*
X133410457Y-126048625D01*
X133410653Y-126046635D01*
X133412279Y-126045800D01*
X133483063Y-126045800D01*
X133483259Y-126045810D01*
G37*
G36*
X190186982Y-122658363D02*
G01*
X190187309Y-122660162D01*
X190182035Y-122677546D01*
X190179672Y-122701538D01*
X190182035Y-122725529D01*
X190189035Y-122748604D01*
X190200400Y-122769867D01*
X190215695Y-122788504D01*
X190234332Y-122803800D01*
X190255596Y-122815165D01*
X190278670Y-122822165D01*
X190302662Y-122824528D01*
X190326653Y-122822165D01*
X190344039Y-122816891D01*
X190345987Y-122817345D01*
X190346568Y-122819259D01*
X190345385Y-122820653D01*
X190278060Y-122848540D01*
X190139840Y-122940895D01*
X190022295Y-123058440D01*
X189929940Y-123196660D01*
X189902053Y-123263984D01*
X189900466Y-123265202D01*
X189898618Y-123264437D01*
X189898291Y-123262638D01*
X189903565Y-123245254D01*
X189905928Y-123221262D01*
X189903565Y-123197271D01*
X189896565Y-123174196D01*
X189885200Y-123152933D01*
X189869905Y-123134296D01*
X189851268Y-123119000D01*
X189830004Y-123107635D01*
X189806930Y-123100635D01*
X189782938Y-123098272D01*
X189758947Y-123100635D01*
X189741561Y-123105909D01*
X189739613Y-123105455D01*
X189739032Y-123103541D01*
X189740215Y-123102147D01*
X189807540Y-123074260D01*
X189945760Y-122981905D01*
X190063305Y-122864360D01*
X190155660Y-122726140D01*
X190183547Y-122658816D01*
X190185134Y-122657598D01*
X190186982Y-122658363D01*
G37*
G36*
X129201582Y-122455163D02*
G01*
X129201909Y-122456962D01*
X129196635Y-122474346D01*
X129194272Y-122498338D01*
X129196635Y-122522329D01*
X129203635Y-122545404D01*
X129215000Y-122566667D01*
X129230295Y-122585304D01*
X129248932Y-122600600D01*
X129270196Y-122611965D01*
X129293270Y-122618965D01*
X129317262Y-122621328D01*
X129341253Y-122618965D01*
X129358639Y-122613691D01*
X129360587Y-122614145D01*
X129361168Y-122616059D01*
X129359985Y-122617453D01*
X129292660Y-122645340D01*
X129154440Y-122737695D01*
X129036895Y-122855240D01*
X128944540Y-122993460D01*
X128916653Y-123060784D01*
X128915066Y-123062002D01*
X128913218Y-123061237D01*
X128912891Y-123059438D01*
X128918165Y-123042054D01*
X128920528Y-123018062D01*
X128918165Y-122994071D01*
X128911165Y-122970996D01*
X128899800Y-122949733D01*
X128884505Y-122931096D01*
X128865868Y-122915800D01*
X128844604Y-122904435D01*
X128821530Y-122897435D01*
X128797538Y-122895072D01*
X128773547Y-122897435D01*
X128756161Y-122902709D01*
X128754213Y-122902255D01*
X128753632Y-122900341D01*
X128754815Y-122898947D01*
X128822140Y-122871060D01*
X128960360Y-122778705D01*
X129077905Y-122661160D01*
X129170260Y-122522940D01*
X129198147Y-122455616D01*
X129199734Y-122454398D01*
X129201582Y-122455163D01*
G37*
G36*
X191492790Y-116415304D02*
G01*
X191499255Y-116480948D01*
X191518348Y-116543887D01*
X191549350Y-116601889D01*
X191591072Y-116652728D01*
X191641911Y-116694450D01*
X191699913Y-116725452D01*
X191762852Y-116744545D01*
X191828394Y-116751000D01*
X192190199Y-116751000D01*
X192191931Y-116752000D01*
X192191931Y-116754000D01*
X192190395Y-116754990D01*
X192166208Y-116757372D01*
X192143133Y-116764372D01*
X192121869Y-116775737D01*
X192103232Y-116791032D01*
X192087937Y-116809669D01*
X192076572Y-116830933D01*
X192069572Y-116854008D01*
X192067200Y-116878093D01*
X192067200Y-116993400D01*
X192066200Y-116995132D01*
X192065200Y-116995400D01*
X191681461Y-116995400D01*
X191679729Y-116994400D01*
X191679729Y-116992400D01*
X191681265Y-116991410D01*
X191705452Y-116989028D01*
X191728527Y-116982028D01*
X191749791Y-116970663D01*
X191768428Y-116955368D01*
X191783723Y-116936731D01*
X191795088Y-116915467D01*
X191802088Y-116892392D01*
X191804451Y-116868401D01*
X191802088Y-116844410D01*
X191795088Y-116821335D01*
X191783723Y-116800071D01*
X191768428Y-116781434D01*
X191749791Y-116766139D01*
X191728482Y-116754750D01*
X191717123Y-116750685D01*
X191660209Y-116733421D01*
X191659847Y-116733271D01*
X191612412Y-116707916D01*
X191612086Y-116707698D01*
X191570504Y-116673573D01*
X191570227Y-116673296D01*
X191536102Y-116631714D01*
X191535884Y-116631388D01*
X191510529Y-116583953D01*
X191510379Y-116583591D01*
X191494763Y-116532111D01*
X191494687Y-116531726D01*
X191488810Y-116472056D01*
X191488800Y-116471860D01*
X191488800Y-116415500D01*
X191489800Y-116413768D01*
X191491800Y-116413768D01*
X191492790Y-116415304D01*
G37*
G36*
X193217790Y-116415304D02*
G01*
X193224255Y-116480948D01*
X193243348Y-116543887D01*
X193274350Y-116601889D01*
X193316072Y-116652728D01*
X193366911Y-116694450D01*
X193424913Y-116725452D01*
X193487852Y-116744545D01*
X193553496Y-116751010D01*
X193555122Y-116752175D01*
X193554926Y-116754165D01*
X193553300Y-116755000D01*
X193496940Y-116755000D01*
X193496744Y-116754990D01*
X193437074Y-116749113D01*
X193436689Y-116749037D01*
X193385209Y-116733421D01*
X193384847Y-116733271D01*
X193337412Y-116707916D01*
X193337086Y-116707698D01*
X193295504Y-116673573D01*
X193295227Y-116673296D01*
X193261102Y-116631714D01*
X193260884Y-116631388D01*
X193235529Y-116583953D01*
X193235379Y-116583591D01*
X193219763Y-116532111D01*
X193219687Y-116531726D01*
X193213810Y-116472056D01*
X193213800Y-116471860D01*
X193213800Y-116415500D01*
X193214800Y-116413768D01*
X193216800Y-116413768D01*
X193217790Y-116415304D01*
G37*
G36*
X194691965Y-116413874D02*
G01*
X194692800Y-116415500D01*
X194692800Y-116471860D01*
X194692790Y-116472056D01*
X194686913Y-116531726D01*
X194686837Y-116532111D01*
X194671221Y-116583591D01*
X194671071Y-116583953D01*
X194645716Y-116631388D01*
X194645498Y-116631714D01*
X194611373Y-116673296D01*
X194611096Y-116673573D01*
X194569514Y-116707698D01*
X194569188Y-116707916D01*
X194521753Y-116733271D01*
X194521391Y-116733421D01*
X194469911Y-116749037D01*
X194469526Y-116749113D01*
X194409856Y-116754990D01*
X194409660Y-116755000D01*
X194353300Y-116755000D01*
X194351568Y-116754000D01*
X194351568Y-116752000D01*
X194353104Y-116751010D01*
X194418748Y-116744545D01*
X194481687Y-116725452D01*
X194539689Y-116694450D01*
X194590528Y-116652728D01*
X194632250Y-116601889D01*
X194663252Y-116543887D01*
X194682345Y-116480948D01*
X194688810Y-116415304D01*
X194689975Y-116413678D01*
X194691965Y-116413874D01*
G37*
G36*
X192966965Y-116413874D02*
G01*
X192967800Y-116415500D01*
X192967800Y-116471860D01*
X192967790Y-116472056D01*
X192961913Y-116531726D01*
X192961837Y-116532111D01*
X192946221Y-116583591D01*
X192946071Y-116583953D01*
X192920716Y-116631388D01*
X192920498Y-116631714D01*
X192886373Y-116673296D01*
X192886096Y-116673573D01*
X192844514Y-116707698D01*
X192844188Y-116707916D01*
X192796753Y-116733271D01*
X192796391Y-116733421D01*
X192744911Y-116749037D01*
X192744526Y-116749113D01*
X192684856Y-116754990D01*
X192684660Y-116755000D01*
X192628300Y-116755000D01*
X192626568Y-116754000D01*
X192626568Y-116752000D01*
X192628104Y-116751010D01*
X192693748Y-116744545D01*
X192756687Y-116725452D01*
X192814689Y-116694450D01*
X192865528Y-116652728D01*
X192907250Y-116601889D01*
X192938252Y-116543887D01*
X192957345Y-116480948D01*
X192963810Y-116415304D01*
X192964975Y-116413678D01*
X192966965Y-116413874D01*
G37*
G36*
X194691965Y-114839074D02*
G01*
X194692800Y-114840700D01*
X194692800Y-114897060D01*
X194692790Y-114897256D01*
X194686913Y-114956926D01*
X194686837Y-114957311D01*
X194671221Y-115008791D01*
X194671071Y-115009153D01*
X194645716Y-115056588D01*
X194645498Y-115056914D01*
X194611373Y-115098496D01*
X194611096Y-115098773D01*
X194569514Y-115132898D01*
X194569188Y-115133116D01*
X194521753Y-115158471D01*
X194521391Y-115158621D01*
X194474420Y-115172869D01*
X194452055Y-115182134D01*
X194432008Y-115195528D01*
X194414961Y-115212575D01*
X194401566Y-115232622D01*
X194392340Y-115254896D01*
X194387635Y-115278547D01*
X194387635Y-115302653D01*
X194392339Y-115326303D01*
X194401566Y-115348577D01*
X194414960Y-115368624D01*
X194432007Y-115385671D01*
X194452054Y-115399066D01*
X194474420Y-115408331D01*
X194521391Y-115422579D01*
X194521753Y-115422729D01*
X194569188Y-115448084D01*
X194569514Y-115448302D01*
X194611096Y-115482427D01*
X194611373Y-115482704D01*
X194645498Y-115524286D01*
X194645716Y-115524612D01*
X194671071Y-115572047D01*
X194671221Y-115572409D01*
X194686837Y-115623889D01*
X194686913Y-115624274D01*
X194692790Y-115683944D01*
X194692800Y-115684140D01*
X194692800Y-115740500D01*
X194691800Y-115742232D01*
X194689800Y-115742232D01*
X194688810Y-115740696D01*
X194682345Y-115675052D01*
X194663252Y-115612113D01*
X194632250Y-115554111D01*
X194590528Y-115503272D01*
X194539689Y-115461550D01*
X194481687Y-115430548D01*
X194418748Y-115411455D01*
X194353206Y-115405000D01*
X193553394Y-115405000D01*
X193487852Y-115411455D01*
X193424913Y-115430548D01*
X193366911Y-115461550D01*
X193316072Y-115503272D01*
X193274350Y-115554111D01*
X193243348Y-115612113D01*
X193224255Y-115675052D01*
X193217790Y-115740696D01*
X193216625Y-115742322D01*
X193214635Y-115742126D01*
X193213800Y-115740500D01*
X193213800Y-115684140D01*
X193213810Y-115683944D01*
X193219687Y-115624274D01*
X193219763Y-115623889D01*
X193235379Y-115572409D01*
X193235529Y-115572047D01*
X193260884Y-115524612D01*
X193261102Y-115524286D01*
X193295227Y-115482704D01*
X193295504Y-115482427D01*
X193337086Y-115448302D01*
X193337412Y-115448084D01*
X193384847Y-115422729D01*
X193385209Y-115422579D01*
X193436689Y-115406963D01*
X193437074Y-115406887D01*
X193475753Y-115403077D01*
X193499505Y-115398352D01*
X193521779Y-115389126D01*
X193541826Y-115375731D01*
X193558873Y-115358684D01*
X193572268Y-115338636D01*
X193581494Y-115316363D01*
X193586198Y-115292712D01*
X193586198Y-115268606D01*
X193581493Y-115244956D01*
X193572267Y-115222682D01*
X193558872Y-115202635D01*
X193541825Y-115185588D01*
X193521777Y-115172193D01*
X193499411Y-115162929D01*
X193485211Y-115158622D01*
X193484849Y-115158472D01*
X193437412Y-115133116D01*
X193437086Y-115132898D01*
X193395504Y-115098773D01*
X193395227Y-115098496D01*
X193361102Y-115056914D01*
X193360884Y-115056588D01*
X193335529Y-115009153D01*
X193335379Y-115008791D01*
X193319763Y-114957311D01*
X193319687Y-114956926D01*
X193313810Y-114897256D01*
X193313800Y-114897060D01*
X193313800Y-114840700D01*
X193314800Y-114838968D01*
X193316800Y-114838968D01*
X193317790Y-114840504D01*
X193324255Y-114906148D01*
X193343348Y-114969087D01*
X193374350Y-115027089D01*
X193416072Y-115077928D01*
X193466911Y-115119650D01*
X193524913Y-115150652D01*
X193587852Y-115169745D01*
X193653394Y-115176200D01*
X194353206Y-115176200D01*
X194418748Y-115169745D01*
X194481687Y-115150652D01*
X194539689Y-115119650D01*
X194590528Y-115077928D01*
X194632250Y-115027089D01*
X194663252Y-114969087D01*
X194682345Y-114906148D01*
X194688810Y-114840504D01*
X194689975Y-114838878D01*
X194691965Y-114839074D01*
G37*
G36*
X192866965Y-114839074D02*
G01*
X192867800Y-114840700D01*
X192867800Y-114897060D01*
X192867790Y-114897256D01*
X192861913Y-114956926D01*
X192861837Y-114957311D01*
X192846221Y-115008791D01*
X192846071Y-115009153D01*
X192820716Y-115056588D01*
X192820498Y-115056914D01*
X192786373Y-115098496D01*
X192786096Y-115098773D01*
X192744514Y-115132898D01*
X192744188Y-115133116D01*
X192696751Y-115158472D01*
X192696389Y-115158622D01*
X192682189Y-115162929D01*
X192659824Y-115172193D01*
X192639776Y-115185587D01*
X192622729Y-115202634D01*
X192609334Y-115222681D01*
X192600107Y-115244955D01*
X192595402Y-115268605D01*
X192595402Y-115292711D01*
X192600106Y-115316361D01*
X192609332Y-115338635D01*
X192622726Y-115358683D01*
X192639773Y-115375730D01*
X192659820Y-115389125D01*
X192682094Y-115398352D01*
X192705847Y-115403077D01*
X192744526Y-115406887D01*
X192744911Y-115406963D01*
X192796391Y-115422579D01*
X192796753Y-115422729D01*
X192844188Y-115448084D01*
X192844514Y-115448302D01*
X192886096Y-115482427D01*
X192886373Y-115482704D01*
X192920498Y-115524286D01*
X192920716Y-115524612D01*
X192946071Y-115572047D01*
X192946221Y-115572409D01*
X192961837Y-115623889D01*
X192961913Y-115624274D01*
X192967790Y-115683944D01*
X192967800Y-115684140D01*
X192967800Y-115740500D01*
X192966800Y-115742232D01*
X192964800Y-115742232D01*
X192963810Y-115740696D01*
X192957345Y-115675052D01*
X192938252Y-115612113D01*
X192907250Y-115554111D01*
X192865528Y-115503272D01*
X192814689Y-115461550D01*
X192756687Y-115430548D01*
X192693748Y-115411455D01*
X192628206Y-115405000D01*
X191828394Y-115405000D01*
X191762852Y-115411455D01*
X191699913Y-115430548D01*
X191641911Y-115461550D01*
X191591072Y-115503272D01*
X191549350Y-115554111D01*
X191518348Y-115612113D01*
X191499255Y-115675052D01*
X191492790Y-115740696D01*
X191491625Y-115742322D01*
X191489635Y-115742126D01*
X191488800Y-115740500D01*
X191488800Y-115684140D01*
X191488810Y-115683944D01*
X191494687Y-115624274D01*
X191494763Y-115623889D01*
X191510379Y-115572409D01*
X191510529Y-115572047D01*
X191535884Y-115524612D01*
X191536102Y-115524286D01*
X191570227Y-115482704D01*
X191570504Y-115482427D01*
X191612086Y-115448302D01*
X191612412Y-115448084D01*
X191659847Y-115422729D01*
X191660209Y-115422579D01*
X191707180Y-115408331D01*
X191729545Y-115399066D01*
X191749592Y-115385672D01*
X191766639Y-115368625D01*
X191780034Y-115348578D01*
X191789260Y-115326304D01*
X191793965Y-115302653D01*
X191793965Y-115278547D01*
X191789261Y-115254897D01*
X191780034Y-115232623D01*
X191766640Y-115212576D01*
X191749593Y-115195529D01*
X191729546Y-115182134D01*
X191707180Y-115172869D01*
X191660209Y-115158621D01*
X191659847Y-115158471D01*
X191612412Y-115133116D01*
X191612086Y-115132898D01*
X191570504Y-115098773D01*
X191570227Y-115098496D01*
X191536102Y-115056914D01*
X191535884Y-115056588D01*
X191510529Y-115009153D01*
X191510379Y-115008791D01*
X191494763Y-114957311D01*
X191494687Y-114956926D01*
X191488810Y-114897256D01*
X191488800Y-114897060D01*
X191488800Y-114840700D01*
X191489800Y-114838968D01*
X191491800Y-114838968D01*
X191492790Y-114840504D01*
X191499255Y-114906148D01*
X191518348Y-114969087D01*
X191549350Y-115027089D01*
X191591072Y-115077928D01*
X191641911Y-115119650D01*
X191699913Y-115150652D01*
X191762852Y-115169745D01*
X191828394Y-115176200D01*
X192528206Y-115176200D01*
X192593748Y-115169745D01*
X192656687Y-115150652D01*
X192714689Y-115119650D01*
X192765528Y-115077928D01*
X192807250Y-115027089D01*
X192838252Y-114969087D01*
X192857345Y-114906148D01*
X192863810Y-114840504D01*
X192864975Y-114838878D01*
X192866965Y-114839074D01*
G37*
G36*
X120383800Y-114446834D02*
G01*
X120383800Y-114736100D01*
X120382800Y-114737832D01*
X120380800Y-114737832D01*
X120379810Y-114736296D01*
X120377428Y-114712109D01*
X120370428Y-114689034D01*
X120359063Y-114667770D01*
X120343768Y-114649133D01*
X120325131Y-114633838D01*
X120303867Y-114622473D01*
X120280792Y-114615473D01*
X120256801Y-114613110D01*
X120232810Y-114615473D01*
X120209735Y-114622473D01*
X120193714Y-114631036D01*
X120191715Y-114630970D01*
X120190772Y-114629207D01*
X120191660Y-114627609D01*
X120254601Y-114585553D01*
X120351353Y-114488801D01*
X120380137Y-114445723D01*
X120381931Y-114444838D01*
X120383800Y-114446834D01*
G37*
G36*
X193655032Y-113827200D02*
G01*
X193655032Y-113829200D01*
X193653496Y-113830190D01*
X193587852Y-113836655D01*
X193524913Y-113855748D01*
X193466911Y-113886750D01*
X193416072Y-113928472D01*
X193374350Y-113979311D01*
X193343348Y-114037313D01*
X193324255Y-114100252D01*
X193317790Y-114165896D01*
X193316625Y-114167522D01*
X193314635Y-114167326D01*
X193313800Y-114165700D01*
X193313800Y-114109340D01*
X193313810Y-114109144D01*
X193319687Y-114049474D01*
X193319763Y-114049089D01*
X193335379Y-113997609D01*
X193335529Y-113997247D01*
X193360884Y-113949812D01*
X193361102Y-113949486D01*
X193395227Y-113907904D01*
X193395504Y-113907627D01*
X193437086Y-113873502D01*
X193437412Y-113873284D01*
X193484847Y-113847929D01*
X193485209Y-113847779D01*
X193536689Y-113832163D01*
X193537074Y-113832087D01*
X193596744Y-113826210D01*
X193596940Y-113826200D01*
X193653300Y-113826200D01*
X193655032Y-113827200D01*
G37*
G36*
X191830032Y-113827200D02*
G01*
X191830032Y-113829200D01*
X191828496Y-113830190D01*
X191762852Y-113836655D01*
X191699913Y-113855748D01*
X191641911Y-113886750D01*
X191591072Y-113928472D01*
X191549350Y-113979311D01*
X191518348Y-114037313D01*
X191499255Y-114100252D01*
X191492790Y-114165896D01*
X191491625Y-114167522D01*
X191489635Y-114167326D01*
X191488800Y-114165700D01*
X191488800Y-114109340D01*
X191488810Y-114109144D01*
X191494687Y-114049474D01*
X191494763Y-114049089D01*
X191510379Y-113997609D01*
X191510529Y-113997247D01*
X191535884Y-113949812D01*
X191536102Y-113949486D01*
X191570227Y-113907904D01*
X191570504Y-113907627D01*
X191612086Y-113873502D01*
X191612412Y-113873284D01*
X191659847Y-113847929D01*
X191660209Y-113847779D01*
X191711689Y-113832163D01*
X191712074Y-113832087D01*
X191771744Y-113826210D01*
X191771940Y-113826200D01*
X191828300Y-113826200D01*
X191830032Y-113827200D01*
G37*
G36*
X192584856Y-113826210D02*
G01*
X192644526Y-113832087D01*
X192644911Y-113832163D01*
X192696391Y-113847779D01*
X192696753Y-113847929D01*
X192744188Y-113873284D01*
X192744514Y-113873502D01*
X192786096Y-113907627D01*
X192786373Y-113907904D01*
X192820498Y-113949486D01*
X192820716Y-113949812D01*
X192846071Y-113997247D01*
X192846221Y-113997609D01*
X192861837Y-114049089D01*
X192861913Y-114049474D01*
X192867790Y-114109144D01*
X192867800Y-114109340D01*
X192867800Y-114165700D01*
X192866800Y-114167432D01*
X192864800Y-114167432D01*
X192863810Y-114165896D01*
X192857345Y-114100252D01*
X192838252Y-114037313D01*
X192807250Y-113979311D01*
X192765528Y-113928472D01*
X192714689Y-113886750D01*
X192656687Y-113855748D01*
X192593748Y-113836655D01*
X192528104Y-113830190D01*
X192526478Y-113829025D01*
X192526674Y-113827035D01*
X192528300Y-113826200D01*
X192584660Y-113826200D01*
X192584856Y-113826210D01*
G37*
G36*
X194409856Y-113826210D02*
G01*
X194469526Y-113832087D01*
X194469911Y-113832163D01*
X194521391Y-113847779D01*
X194521753Y-113847929D01*
X194569188Y-113873284D01*
X194569514Y-113873502D01*
X194611096Y-113907627D01*
X194611373Y-113907904D01*
X194645498Y-113949486D01*
X194645716Y-113949812D01*
X194671071Y-113997247D01*
X194671221Y-113997609D01*
X194686837Y-114049089D01*
X194686913Y-114049474D01*
X194692790Y-114109144D01*
X194692800Y-114109340D01*
X194692800Y-114165700D01*
X194691800Y-114167432D01*
X194689800Y-114167432D01*
X194688810Y-114165896D01*
X194682345Y-114100252D01*
X194663252Y-114037313D01*
X194632250Y-113979311D01*
X194590528Y-113928472D01*
X194539689Y-113886750D01*
X194481687Y-113855748D01*
X194418748Y-113836655D01*
X194353104Y-113830190D01*
X194351478Y-113829025D01*
X194351674Y-113827035D01*
X194353300Y-113826200D01*
X194409660Y-113826200D01*
X194409856Y-113826210D01*
G37*
G36*
X120448648Y-113062590D02*
G01*
X120466228Y-113105031D01*
X120542247Y-113218801D01*
X120638999Y-113315553D01*
X120682077Y-113344337D01*
X120682962Y-113346131D01*
X120680966Y-113348000D01*
X120383800Y-113348000D01*
X120383800Y-113645166D01*
X120382800Y-113646898D01*
X120380137Y-113646277D01*
X120351353Y-113603199D01*
X120254601Y-113506447D01*
X120140831Y-113430428D01*
X120098390Y-113412848D01*
X120097172Y-113411261D01*
X120098390Y-113409152D01*
X120140831Y-113391572D01*
X120254601Y-113315553D01*
X120351353Y-113218801D01*
X120427372Y-113105031D01*
X120444952Y-113062590D01*
X120446539Y-113061372D01*
X120448648Y-113062590D01*
G37*
G36*
X191467390Y-113037104D02*
G01*
X191473855Y-113102748D01*
X191492948Y-113165687D01*
X191523950Y-113223689D01*
X191565672Y-113274528D01*
X191616511Y-113316250D01*
X191674513Y-113347252D01*
X191737452Y-113366345D01*
X191803096Y-113372810D01*
X191804722Y-113373975D01*
X191804526Y-113375965D01*
X191802900Y-113376800D01*
X191746540Y-113376800D01*
X191746344Y-113376790D01*
X191686674Y-113370913D01*
X191686289Y-113370837D01*
X191634809Y-113355221D01*
X191634447Y-113355071D01*
X191587012Y-113329716D01*
X191586686Y-113329498D01*
X191545104Y-113295373D01*
X191544827Y-113295096D01*
X191510702Y-113253514D01*
X191510484Y-113253188D01*
X191485129Y-113205753D01*
X191484979Y-113205391D01*
X191469363Y-113153911D01*
X191469287Y-113153526D01*
X191463410Y-113093856D01*
X191463400Y-113093660D01*
X191463400Y-113037300D01*
X191464400Y-113035568D01*
X191466400Y-113035568D01*
X191467390Y-113037104D01*
G37*
G36*
X192841565Y-113035674D02*
G01*
X192842400Y-113037300D01*
X192842400Y-113093660D01*
X192842390Y-113093856D01*
X192836513Y-113153526D01*
X192836437Y-113153911D01*
X192820821Y-113205391D01*
X192820671Y-113205753D01*
X192795316Y-113253188D01*
X192795098Y-113253514D01*
X192760973Y-113295096D01*
X192760696Y-113295373D01*
X192719114Y-113329498D01*
X192718788Y-113329716D01*
X192671353Y-113355071D01*
X192670991Y-113355221D01*
X192619511Y-113370837D01*
X192619126Y-113370913D01*
X192559456Y-113376790D01*
X192559260Y-113376800D01*
X192502900Y-113376800D01*
X192501168Y-113375800D01*
X192501168Y-113373800D01*
X192502704Y-113372810D01*
X192568348Y-113366345D01*
X192631287Y-113347252D01*
X192689289Y-113316250D01*
X192740128Y-113274528D01*
X192781850Y-113223689D01*
X192812852Y-113165687D01*
X192831945Y-113102748D01*
X192838410Y-113037104D01*
X192839575Y-113035478D01*
X192841565Y-113035674D01*
G37*
G36*
X194666565Y-113035674D02*
G01*
X194667400Y-113037300D01*
X194667400Y-113093660D01*
X194667390Y-113093856D01*
X194661513Y-113153526D01*
X194661437Y-113153911D01*
X194645821Y-113205391D01*
X194645671Y-113205753D01*
X194620316Y-113253188D01*
X194620098Y-113253514D01*
X194585973Y-113295096D01*
X194585696Y-113295373D01*
X194544114Y-113329498D01*
X194543788Y-113329716D01*
X194496353Y-113355071D01*
X194495991Y-113355221D01*
X194444511Y-113370837D01*
X194444126Y-113370913D01*
X194384456Y-113376790D01*
X194384260Y-113376800D01*
X194327900Y-113376800D01*
X194326168Y-113375800D01*
X194326168Y-113373800D01*
X194327704Y-113372810D01*
X194393348Y-113366345D01*
X194456287Y-113347252D01*
X194514289Y-113316250D01*
X194565128Y-113274528D01*
X194606850Y-113223689D01*
X194637852Y-113165687D01*
X194656945Y-113102748D01*
X194663410Y-113037104D01*
X194664575Y-113035478D01*
X194666565Y-113035674D01*
G37*
G36*
X193292390Y-113037104D02*
G01*
X193298855Y-113102748D01*
X193317948Y-113165687D01*
X193348950Y-113223689D01*
X193390672Y-113274528D01*
X193441511Y-113316250D01*
X193499513Y-113347252D01*
X193562452Y-113366345D01*
X193628096Y-113372810D01*
X193629722Y-113373975D01*
X193629526Y-113375965D01*
X193627900Y-113376800D01*
X193571540Y-113376800D01*
X193571344Y-113376790D01*
X193511674Y-113370913D01*
X193511289Y-113370837D01*
X193459809Y-113355221D01*
X193459447Y-113355071D01*
X193412012Y-113329716D01*
X193411686Y-113329498D01*
X193370104Y-113295373D01*
X193369827Y-113295096D01*
X193335702Y-113253514D01*
X193335484Y-113253188D01*
X193310129Y-113205753D01*
X193309979Y-113205391D01*
X193294363Y-113153911D01*
X193294287Y-113153526D01*
X193288410Y-113093856D01*
X193288400Y-113093660D01*
X193288400Y-113037300D01*
X193289400Y-113035568D01*
X193291400Y-113035568D01*
X193292390Y-113037104D01*
G37*
G36*
X121666866Y-113156086D02*
G01*
X121666836Y-113157914D01*
X121658273Y-113173935D01*
X121651273Y-113197010D01*
X121648910Y-113221001D01*
X121651273Y-113244992D01*
X121658273Y-113268067D01*
X121669638Y-113289331D01*
X121684934Y-113307968D01*
X121703570Y-113323263D01*
X121724834Y-113334628D01*
X121747909Y-113341628D01*
X121772096Y-113344010D01*
X121773722Y-113345175D01*
X121773526Y-113347165D01*
X121771900Y-113348000D01*
X121482634Y-113348000D01*
X121480902Y-113347000D01*
X121481523Y-113344337D01*
X121524601Y-113315553D01*
X121621353Y-113218801D01*
X121663409Y-113155860D01*
X121665203Y-113154975D01*
X121666866Y-113156086D01*
G37*
G36*
X193629632Y-112023800D02*
G01*
X193629632Y-112025800D01*
X193628096Y-112026790D01*
X193562452Y-112033255D01*
X193499513Y-112052348D01*
X193441511Y-112083350D01*
X193390672Y-112125072D01*
X193348950Y-112175911D01*
X193317948Y-112233913D01*
X193298855Y-112296852D01*
X193292390Y-112362496D01*
X193291225Y-112364122D01*
X193289235Y-112363926D01*
X193288400Y-112362300D01*
X193288400Y-112305940D01*
X193288410Y-112305744D01*
X193294287Y-112246074D01*
X193294363Y-112245689D01*
X193309979Y-112194209D01*
X193310129Y-112193847D01*
X193335484Y-112146412D01*
X193335702Y-112146086D01*
X193369827Y-112104504D01*
X193370104Y-112104227D01*
X193411686Y-112070102D01*
X193412012Y-112069884D01*
X193459447Y-112044529D01*
X193459809Y-112044379D01*
X193511289Y-112028763D01*
X193511674Y-112028687D01*
X193571344Y-112022810D01*
X193571540Y-112022800D01*
X193627900Y-112022800D01*
X193629632Y-112023800D01*
G37*
G36*
X191804632Y-112023800D02*
G01*
X191804632Y-112025800D01*
X191803096Y-112026790D01*
X191737452Y-112033255D01*
X191674513Y-112052348D01*
X191616511Y-112083350D01*
X191565672Y-112125072D01*
X191523950Y-112175911D01*
X191492948Y-112233913D01*
X191473855Y-112296852D01*
X191467390Y-112362496D01*
X191466225Y-112364122D01*
X191464235Y-112363926D01*
X191463400Y-112362300D01*
X191463400Y-112305940D01*
X191463410Y-112305744D01*
X191469287Y-112246074D01*
X191469363Y-112245689D01*
X191484979Y-112194209D01*
X191485129Y-112193847D01*
X191510484Y-112146412D01*
X191510702Y-112146086D01*
X191544827Y-112104504D01*
X191545104Y-112104227D01*
X191586686Y-112070102D01*
X191587012Y-112069884D01*
X191634447Y-112044529D01*
X191634809Y-112044379D01*
X191686289Y-112028763D01*
X191686674Y-112028687D01*
X191746344Y-112022810D01*
X191746540Y-112022800D01*
X191802900Y-112022800D01*
X191804632Y-112023800D01*
G37*
G36*
X192559456Y-112022810D02*
G01*
X192619126Y-112028687D01*
X192619511Y-112028763D01*
X192670991Y-112044379D01*
X192671353Y-112044529D01*
X192718788Y-112069884D01*
X192719114Y-112070102D01*
X192760696Y-112104227D01*
X192760973Y-112104504D01*
X192795098Y-112146086D01*
X192795316Y-112146412D01*
X192820671Y-112193847D01*
X192820821Y-112194209D01*
X192836437Y-112245689D01*
X192836513Y-112246074D01*
X192842390Y-112305744D01*
X192842400Y-112305940D01*
X192842400Y-112362300D01*
X192841400Y-112364032D01*
X192839400Y-112364032D01*
X192838410Y-112362496D01*
X192831945Y-112296852D01*
X192812852Y-112233913D01*
X192781850Y-112175911D01*
X192740128Y-112125072D01*
X192689289Y-112083350D01*
X192631287Y-112052348D01*
X192568348Y-112033255D01*
X192502704Y-112026790D01*
X192501078Y-112025625D01*
X192501274Y-112023635D01*
X192502900Y-112022800D01*
X192559260Y-112022800D01*
X192559456Y-112022810D01*
G37*
G36*
X194384456Y-112022810D02*
G01*
X194444126Y-112028687D01*
X194444511Y-112028763D01*
X194495991Y-112044379D01*
X194496353Y-112044529D01*
X194543788Y-112069884D01*
X194544114Y-112070102D01*
X194585696Y-112104227D01*
X194585973Y-112104504D01*
X194620098Y-112146086D01*
X194620316Y-112146412D01*
X194645671Y-112193847D01*
X194645821Y-112194209D01*
X194661437Y-112245689D01*
X194661513Y-112246074D01*
X194667390Y-112305744D01*
X194667400Y-112305940D01*
X194667400Y-112362300D01*
X194666400Y-112364032D01*
X194664400Y-112364032D01*
X194663410Y-112362496D01*
X194656945Y-112296852D01*
X194637852Y-112233913D01*
X194606850Y-112175911D01*
X194565128Y-112125072D01*
X194514289Y-112083350D01*
X194456287Y-112052348D01*
X194393348Y-112033255D01*
X194327704Y-112026790D01*
X194326078Y-112025625D01*
X194326274Y-112023635D01*
X194327900Y-112022800D01*
X194384260Y-112022800D01*
X194384456Y-112022810D01*
G37*
G36*
X193192390Y-111436904D02*
G01*
X193198855Y-111502548D01*
X193217948Y-111565487D01*
X193248950Y-111623489D01*
X193290672Y-111674328D01*
X193341511Y-111716050D01*
X193399513Y-111747052D01*
X193462452Y-111766145D01*
X193528096Y-111772610D01*
X193529722Y-111773775D01*
X193529526Y-111775765D01*
X193527900Y-111776600D01*
X193471540Y-111776600D01*
X193471344Y-111776590D01*
X193411674Y-111770713D01*
X193411289Y-111770637D01*
X193359809Y-111755021D01*
X193359447Y-111754871D01*
X193312012Y-111729516D01*
X193311686Y-111729298D01*
X193270104Y-111695173D01*
X193269827Y-111694896D01*
X193235702Y-111653314D01*
X193235484Y-111652988D01*
X193210129Y-111605553D01*
X193209979Y-111605191D01*
X193194363Y-111553711D01*
X193194287Y-111553326D01*
X193188410Y-111493656D01*
X193188400Y-111493460D01*
X193188400Y-111437100D01*
X193189400Y-111435368D01*
X193191400Y-111435368D01*
X193192390Y-111436904D01*
G37*
G36*
X191467390Y-111436904D02*
G01*
X191473855Y-111502548D01*
X191492948Y-111565487D01*
X191523950Y-111623489D01*
X191565672Y-111674328D01*
X191616511Y-111716050D01*
X191674513Y-111747052D01*
X191737452Y-111766145D01*
X191803096Y-111772610D01*
X191804722Y-111773775D01*
X191804526Y-111775765D01*
X191802900Y-111776600D01*
X191746540Y-111776600D01*
X191746344Y-111776590D01*
X191686674Y-111770713D01*
X191686289Y-111770637D01*
X191634809Y-111755021D01*
X191634447Y-111754871D01*
X191587012Y-111729516D01*
X191586686Y-111729298D01*
X191545104Y-111695173D01*
X191544827Y-111694896D01*
X191510702Y-111653314D01*
X191510484Y-111652988D01*
X191485129Y-111605553D01*
X191484979Y-111605191D01*
X191469363Y-111553711D01*
X191469287Y-111553326D01*
X191463410Y-111493656D01*
X191463400Y-111493460D01*
X191463400Y-111437100D01*
X191464400Y-111435368D01*
X191466400Y-111435368D01*
X191467390Y-111436904D01*
G37*
G36*
X194666565Y-111435474D02*
G01*
X194667400Y-111437100D01*
X194667400Y-111493460D01*
X194667390Y-111493656D01*
X194661513Y-111553326D01*
X194661437Y-111553711D01*
X194645821Y-111605191D01*
X194645671Y-111605553D01*
X194620316Y-111652988D01*
X194620098Y-111653314D01*
X194585973Y-111694896D01*
X194585696Y-111695173D01*
X194544114Y-111729298D01*
X194543788Y-111729516D01*
X194496353Y-111754871D01*
X194495991Y-111755021D01*
X194444511Y-111770637D01*
X194444126Y-111770713D01*
X194384456Y-111776590D01*
X194384260Y-111776600D01*
X194327900Y-111776600D01*
X194326168Y-111775600D01*
X194326168Y-111773600D01*
X194327704Y-111772610D01*
X194393348Y-111766145D01*
X194456287Y-111747052D01*
X194514289Y-111716050D01*
X194565128Y-111674328D01*
X194606850Y-111623489D01*
X194637852Y-111565487D01*
X194656945Y-111502548D01*
X194663410Y-111436904D01*
X194664575Y-111435278D01*
X194666565Y-111435474D01*
G37*
G36*
X192941565Y-111435474D02*
G01*
X192942400Y-111437100D01*
X192942400Y-111493460D01*
X192942390Y-111493656D01*
X192936513Y-111553326D01*
X192936437Y-111553711D01*
X192920821Y-111605191D01*
X192920671Y-111605553D01*
X192895316Y-111652988D01*
X192895098Y-111653314D01*
X192860973Y-111694896D01*
X192860696Y-111695173D01*
X192819114Y-111729298D01*
X192818788Y-111729516D01*
X192771353Y-111754871D01*
X192770991Y-111755021D01*
X192719511Y-111770637D01*
X192719126Y-111770713D01*
X192659456Y-111776590D01*
X192659260Y-111776600D01*
X192602900Y-111776600D01*
X192601168Y-111775600D01*
X192601168Y-111773600D01*
X192602704Y-111772610D01*
X192668348Y-111766145D01*
X192731287Y-111747052D01*
X192789289Y-111716050D01*
X192840128Y-111674328D01*
X192881850Y-111623489D01*
X192912852Y-111565487D01*
X192931945Y-111502548D01*
X192938410Y-111436904D01*
X192939575Y-111435278D01*
X192941565Y-111435474D01*
G37*
G36*
X193529632Y-110423600D02*
G01*
X193529632Y-110425600D01*
X193528096Y-110426590D01*
X193462452Y-110433055D01*
X193399513Y-110452148D01*
X193341511Y-110483150D01*
X193290672Y-110524872D01*
X193248950Y-110575711D01*
X193217948Y-110633713D01*
X193198855Y-110696652D01*
X193192390Y-110762296D01*
X193191225Y-110763922D01*
X193189235Y-110763726D01*
X193188400Y-110762100D01*
X193188400Y-110705740D01*
X193188410Y-110705544D01*
X193194287Y-110645874D01*
X193194363Y-110645489D01*
X193209979Y-110594009D01*
X193210129Y-110593647D01*
X193235484Y-110546212D01*
X193235702Y-110545886D01*
X193269827Y-110504304D01*
X193270104Y-110504027D01*
X193311686Y-110469902D01*
X193312012Y-110469684D01*
X193359447Y-110444329D01*
X193359809Y-110444179D01*
X193411289Y-110428563D01*
X193411674Y-110428487D01*
X193471344Y-110422610D01*
X193471540Y-110422600D01*
X193527900Y-110422600D01*
X193529632Y-110423600D01*
G37*
G36*
X191804632Y-110423600D02*
G01*
X191804632Y-110425600D01*
X191803096Y-110426590D01*
X191737452Y-110433055D01*
X191674513Y-110452148D01*
X191616511Y-110483150D01*
X191565672Y-110524872D01*
X191523950Y-110575711D01*
X191492948Y-110633713D01*
X191473855Y-110696652D01*
X191467390Y-110762296D01*
X191466225Y-110763922D01*
X191464235Y-110763726D01*
X191463400Y-110762100D01*
X191463400Y-110705740D01*
X191463410Y-110705544D01*
X191469287Y-110645874D01*
X191469363Y-110645489D01*
X191484979Y-110594009D01*
X191485129Y-110593647D01*
X191510484Y-110546212D01*
X191510702Y-110545886D01*
X191544827Y-110504304D01*
X191545104Y-110504027D01*
X191586686Y-110469902D01*
X191587012Y-110469684D01*
X191634447Y-110444329D01*
X191634809Y-110444179D01*
X191686289Y-110428563D01*
X191686674Y-110428487D01*
X191746344Y-110422610D01*
X191746540Y-110422600D01*
X191802900Y-110422600D01*
X191804632Y-110423600D01*
G37*
G36*
X192659456Y-110422610D02*
G01*
X192719126Y-110428487D01*
X192719511Y-110428563D01*
X192770991Y-110444179D01*
X192771353Y-110444329D01*
X192818788Y-110469684D01*
X192819114Y-110469902D01*
X192860696Y-110504027D01*
X192860973Y-110504304D01*
X192895098Y-110545886D01*
X192895316Y-110546212D01*
X192920671Y-110593647D01*
X192920821Y-110594009D01*
X192936437Y-110645489D01*
X192936513Y-110645874D01*
X192942390Y-110705544D01*
X192942400Y-110705740D01*
X192942400Y-110762100D01*
X192941400Y-110763832D01*
X192939400Y-110763832D01*
X192938410Y-110762296D01*
X192931945Y-110696652D01*
X192912852Y-110633713D01*
X192881850Y-110575711D01*
X192840128Y-110524872D01*
X192789289Y-110483150D01*
X192731287Y-110452148D01*
X192668348Y-110433055D01*
X192602704Y-110426590D01*
X192601078Y-110425425D01*
X192601274Y-110423435D01*
X192602900Y-110422600D01*
X192659260Y-110422600D01*
X192659456Y-110422610D01*
G37*
G36*
X194384456Y-110422610D02*
G01*
X194444126Y-110428487D01*
X194444511Y-110428563D01*
X194495991Y-110444179D01*
X194496353Y-110444329D01*
X194543788Y-110469684D01*
X194544114Y-110469902D01*
X194585696Y-110504027D01*
X194585973Y-110504304D01*
X194620098Y-110545886D01*
X194620316Y-110546212D01*
X194645671Y-110593647D01*
X194645821Y-110594009D01*
X194661437Y-110645489D01*
X194661513Y-110645874D01*
X194667390Y-110705544D01*
X194667400Y-110705740D01*
X194667400Y-110762100D01*
X194666400Y-110763832D01*
X194664400Y-110763832D01*
X194663410Y-110762296D01*
X194656945Y-110696652D01*
X194637852Y-110633713D01*
X194606850Y-110575711D01*
X194565128Y-110524872D01*
X194514289Y-110483150D01*
X194456287Y-110452148D01*
X194393348Y-110433055D01*
X194327704Y-110426590D01*
X194326078Y-110425425D01*
X194326274Y-110423435D01*
X194327900Y-110422600D01*
X194384260Y-110422600D01*
X194384456Y-110422610D01*
G37*
G36*
X139099365Y-99735505D02*
G01*
X139100200Y-99737131D01*
X139100200Y-99808821D01*
X139100190Y-99809017D01*
X139094839Y-99863349D01*
X139094763Y-99863734D01*
X139080704Y-99910080D01*
X139080554Y-99910442D01*
X139057727Y-99953148D01*
X139057509Y-99953474D01*
X139026787Y-99990910D01*
X139026510Y-99991187D01*
X138989074Y-100021909D01*
X138988748Y-100022127D01*
X138946042Y-100044954D01*
X138945680Y-100045104D01*
X138899334Y-100059163D01*
X138898949Y-100059239D01*
X138844617Y-100064590D01*
X138844421Y-100064600D01*
X138772731Y-100064600D01*
X138770999Y-100063600D01*
X138770999Y-100061600D01*
X138772535Y-100060610D01*
X138835832Y-100054376D01*
X138896514Y-100035968D01*
X138952436Y-100006078D01*
X139001451Y-99965851D01*
X139041678Y-99916836D01*
X139071568Y-99860914D01*
X139089976Y-99800232D01*
X139096210Y-99736935D01*
X139097375Y-99735309D01*
X139099365Y-99735505D01*
G37*
G36*
X136900190Y-99736935D02*
G01*
X136906424Y-99800232D01*
X136924832Y-99860914D01*
X136954722Y-99916836D01*
X136994949Y-99965851D01*
X137043964Y-100006078D01*
X137099886Y-100035968D01*
X137160568Y-100054376D01*
X137223865Y-100060610D01*
X137225491Y-100061775D01*
X137225295Y-100063765D01*
X137223669Y-100064600D01*
X137151979Y-100064600D01*
X137151783Y-100064590D01*
X137097451Y-100059239D01*
X137097066Y-100059163D01*
X137050720Y-100045104D01*
X137050358Y-100044954D01*
X137007652Y-100022127D01*
X137007326Y-100021909D01*
X136969890Y-99991187D01*
X136969613Y-99990910D01*
X136938891Y-99953474D01*
X136938673Y-99953148D01*
X136915846Y-99910442D01*
X136915696Y-99910080D01*
X136901637Y-99863734D01*
X136901561Y-99863349D01*
X136896210Y-99809017D01*
X136896200Y-99808821D01*
X136896200Y-99737131D01*
X136897200Y-99735399D01*
X136899200Y-99735399D01*
X136900190Y-99736935D01*
G37*
G36*
X137225401Y-98336600D02*
G01*
X137225401Y-98338600D01*
X137223865Y-98339590D01*
X137160568Y-98345824D01*
X137099886Y-98364232D01*
X137043964Y-98394122D01*
X136994949Y-98434349D01*
X136954722Y-98483364D01*
X136924832Y-98539286D01*
X136906424Y-98599968D01*
X136900190Y-98663265D01*
X136899025Y-98664891D01*
X136897035Y-98664695D01*
X136896200Y-98663069D01*
X136896200Y-98591379D01*
X136896210Y-98591183D01*
X136901561Y-98536851D01*
X136901637Y-98536466D01*
X136915696Y-98490120D01*
X136915846Y-98489758D01*
X136938673Y-98447052D01*
X136938891Y-98446726D01*
X136969613Y-98409290D01*
X136969890Y-98409013D01*
X137007326Y-98378291D01*
X137007652Y-98378073D01*
X137050358Y-98355246D01*
X137050720Y-98355096D01*
X137097066Y-98341037D01*
X137097451Y-98340961D01*
X137151783Y-98335610D01*
X137151979Y-98335600D01*
X137223669Y-98335600D01*
X137225401Y-98336600D01*
G37*
G36*
X138844617Y-98335610D02*
G01*
X138898949Y-98340961D01*
X138899334Y-98341037D01*
X138945680Y-98355096D01*
X138946042Y-98355246D01*
X138988748Y-98378073D01*
X138989074Y-98378291D01*
X139026510Y-98409013D01*
X139026787Y-98409290D01*
X139057509Y-98446726D01*
X139057727Y-98447052D01*
X139080554Y-98489758D01*
X139080704Y-98490120D01*
X139094763Y-98536466D01*
X139094839Y-98536851D01*
X139100190Y-98591183D01*
X139100200Y-98591379D01*
X139100200Y-98663069D01*
X139099200Y-98664801D01*
X139097200Y-98664801D01*
X139096210Y-98663265D01*
X139089976Y-98599968D01*
X139071568Y-98539286D01*
X139041678Y-98483364D01*
X139001451Y-98434349D01*
X138952436Y-98394122D01*
X138896514Y-98364232D01*
X138835832Y-98345824D01*
X138772535Y-98339590D01*
X138770909Y-98338425D01*
X138771105Y-98336435D01*
X138772731Y-98335600D01*
X138844421Y-98335600D01*
X138844617Y-98335610D01*
G37*
G36*
X139099365Y-96610505D02*
G01*
X139100200Y-96612131D01*
X139100200Y-96683821D01*
X139100190Y-96684017D01*
X139094839Y-96738349D01*
X139094763Y-96738734D01*
X139080704Y-96785080D01*
X139080554Y-96785442D01*
X139057727Y-96828148D01*
X139057509Y-96828474D01*
X139026787Y-96865910D01*
X139026510Y-96866187D01*
X138989074Y-96896909D01*
X138988748Y-96897127D01*
X138946042Y-96919954D01*
X138945680Y-96920104D01*
X138899334Y-96934163D01*
X138898949Y-96934239D01*
X138844617Y-96939590D01*
X138844421Y-96939600D01*
X138772731Y-96939600D01*
X138770999Y-96938600D01*
X138770999Y-96936600D01*
X138772535Y-96935610D01*
X138835832Y-96929376D01*
X138896514Y-96910968D01*
X138952436Y-96881078D01*
X139001451Y-96840851D01*
X139041678Y-96791836D01*
X139071568Y-96735914D01*
X139089976Y-96675232D01*
X139096210Y-96611935D01*
X139097375Y-96610309D01*
X139099365Y-96610505D01*
G37*
G36*
X136900190Y-96611935D02*
G01*
X136906424Y-96675232D01*
X136924832Y-96735914D01*
X136954722Y-96791836D01*
X136994949Y-96840851D01*
X137043964Y-96881078D01*
X137099886Y-96910968D01*
X137160568Y-96929376D01*
X137223865Y-96935610D01*
X137225491Y-96936775D01*
X137225295Y-96938765D01*
X137223669Y-96939600D01*
X137151979Y-96939600D01*
X137151783Y-96939590D01*
X137097451Y-96934239D01*
X137097066Y-96934163D01*
X137050720Y-96920104D01*
X137050358Y-96919954D01*
X137007652Y-96897127D01*
X137007326Y-96896909D01*
X136969890Y-96866187D01*
X136969613Y-96865910D01*
X136938891Y-96828474D01*
X136938673Y-96828148D01*
X136915846Y-96785442D01*
X136915696Y-96785080D01*
X136901637Y-96738734D01*
X136901561Y-96738349D01*
X136896210Y-96684017D01*
X136896200Y-96683821D01*
X136896200Y-96612131D01*
X136897200Y-96610399D01*
X136899200Y-96610399D01*
X136900190Y-96611935D01*
G37*
G36*
X137225401Y-95211600D02*
G01*
X137225401Y-95213600D01*
X137223865Y-95214590D01*
X137160568Y-95220824D01*
X137099886Y-95239232D01*
X137043964Y-95269122D01*
X136994949Y-95309349D01*
X136954722Y-95358364D01*
X136924832Y-95414286D01*
X136906424Y-95474968D01*
X136900190Y-95538265D01*
X136899025Y-95539891D01*
X136897035Y-95539695D01*
X136896200Y-95538069D01*
X136896200Y-95466379D01*
X136896210Y-95466183D01*
X136901561Y-95411851D01*
X136901637Y-95411466D01*
X136915696Y-95365120D01*
X136915846Y-95364758D01*
X136938673Y-95322052D01*
X136938891Y-95321726D01*
X136969613Y-95284290D01*
X136969890Y-95284013D01*
X137007326Y-95253291D01*
X137007652Y-95253073D01*
X137050358Y-95230246D01*
X137050720Y-95230096D01*
X137097066Y-95216037D01*
X137097451Y-95215961D01*
X137151783Y-95210610D01*
X137151979Y-95210600D01*
X137223669Y-95210600D01*
X137225401Y-95211600D01*
G37*
G36*
X138844617Y-95210610D02*
G01*
X138898949Y-95215961D01*
X138899334Y-95216037D01*
X138945680Y-95230096D01*
X138946042Y-95230246D01*
X138988748Y-95253073D01*
X138989074Y-95253291D01*
X139026510Y-95284013D01*
X139026787Y-95284290D01*
X139057509Y-95321726D01*
X139057727Y-95322052D01*
X139080554Y-95364758D01*
X139080704Y-95365120D01*
X139094763Y-95411466D01*
X139094839Y-95411851D01*
X139100190Y-95466183D01*
X139100200Y-95466379D01*
X139100200Y-95538069D01*
X139099200Y-95539801D01*
X139097200Y-95539801D01*
X139096210Y-95538265D01*
X139089976Y-95474968D01*
X139071568Y-95414286D01*
X139041678Y-95358364D01*
X139001451Y-95309349D01*
X138952436Y-95269122D01*
X138896514Y-95239232D01*
X138835832Y-95220824D01*
X138772535Y-95214590D01*
X138770909Y-95213425D01*
X138771105Y-95211435D01*
X138772731Y-95210600D01*
X138844421Y-95210600D01*
X138844617Y-95210610D01*
G37*
G36*
X140613790Y-74991472D02*
G01*
X140620175Y-75056303D01*
X140639030Y-75118460D01*
X140669648Y-75175741D01*
X140710852Y-75225948D01*
X140761059Y-75267152D01*
X140818340Y-75297770D01*
X140880497Y-75316625D01*
X140945328Y-75323010D01*
X140946954Y-75324175D01*
X140946758Y-75326165D01*
X140945132Y-75327000D01*
X140878356Y-75327000D01*
X140878160Y-75326990D01*
X140821334Y-75321393D01*
X140820949Y-75321317D01*
X140772205Y-75306531D01*
X140771843Y-75306381D01*
X140726929Y-75282374D01*
X140726603Y-75282156D01*
X140687232Y-75249845D01*
X140686955Y-75249568D01*
X140654644Y-75210197D01*
X140654426Y-75209871D01*
X140630419Y-75164957D01*
X140630269Y-75164595D01*
X140615483Y-75115851D01*
X140615407Y-75115466D01*
X140609810Y-75058640D01*
X140609800Y-75058444D01*
X140609800Y-74991668D01*
X140610800Y-74989936D01*
X140612800Y-74989936D01*
X140613790Y-74991472D01*
G37*
G36*
X148213790Y-74991472D02*
G01*
X148220175Y-75056303D01*
X148239030Y-75118460D01*
X148269648Y-75175741D01*
X148310852Y-75225948D01*
X148361059Y-75267152D01*
X148418340Y-75297770D01*
X148480497Y-75316625D01*
X148545328Y-75323010D01*
X148546954Y-75324175D01*
X148546758Y-75326165D01*
X148545132Y-75327000D01*
X148478356Y-75327000D01*
X148478160Y-75326990D01*
X148421334Y-75321393D01*
X148420949Y-75321317D01*
X148372205Y-75306531D01*
X148371843Y-75306381D01*
X148326929Y-75282374D01*
X148326603Y-75282156D01*
X148287232Y-75249845D01*
X148286955Y-75249568D01*
X148254644Y-75210197D01*
X148254426Y-75209871D01*
X148230419Y-75164957D01*
X148230269Y-75164595D01*
X148215483Y-75115851D01*
X148215407Y-75115466D01*
X148209810Y-75058640D01*
X148209800Y-75058444D01*
X148209800Y-74991668D01*
X148210800Y-74989936D01*
X148212800Y-74989936D01*
X148213790Y-74991472D01*
G37*
G36*
X142212965Y-74990042D02*
G01*
X142213800Y-74991668D01*
X142213800Y-75058444D01*
X142213790Y-75058640D01*
X142208193Y-75115466D01*
X142208117Y-75115851D01*
X142193331Y-75164595D01*
X142193181Y-75164957D01*
X142169174Y-75209871D01*
X142168956Y-75210197D01*
X142136645Y-75249568D01*
X142136368Y-75249845D01*
X142096997Y-75282156D01*
X142096671Y-75282374D01*
X142051757Y-75306381D01*
X142051395Y-75306531D01*
X142002651Y-75321317D01*
X142002266Y-75321393D01*
X141945440Y-75326990D01*
X141945244Y-75327000D01*
X141878468Y-75327000D01*
X141876736Y-75326000D01*
X141876736Y-75324000D01*
X141878272Y-75323010D01*
X141943103Y-75316625D01*
X142005260Y-75297770D01*
X142062541Y-75267152D01*
X142112748Y-75225948D01*
X142153952Y-75175741D01*
X142184570Y-75118460D01*
X142203425Y-75056303D01*
X142209810Y-74991472D01*
X142210975Y-74989846D01*
X142212965Y-74990042D01*
G37*
G36*
X149812965Y-74990042D02*
G01*
X149813800Y-74991668D01*
X149813800Y-75058444D01*
X149813790Y-75058640D01*
X149808193Y-75115466D01*
X149808117Y-75115851D01*
X149793331Y-75164595D01*
X149793181Y-75164957D01*
X149769174Y-75209871D01*
X149768956Y-75210197D01*
X149736645Y-75249568D01*
X149736368Y-75249845D01*
X149696997Y-75282156D01*
X149696671Y-75282374D01*
X149651757Y-75306381D01*
X149651395Y-75306531D01*
X149602651Y-75321317D01*
X149602266Y-75321393D01*
X149545440Y-75326990D01*
X149545244Y-75327000D01*
X149478468Y-75327000D01*
X149476736Y-75326000D01*
X149476736Y-75324000D01*
X149478272Y-75323010D01*
X149543103Y-75316625D01*
X149605260Y-75297770D01*
X149662541Y-75267152D01*
X149712748Y-75225948D01*
X149753952Y-75175741D01*
X149784570Y-75118460D01*
X149803425Y-75056303D01*
X149809810Y-74991472D01*
X149810975Y-74989846D01*
X149812965Y-74990042D01*
G37*
G36*
X172159565Y-74659842D02*
G01*
X172160400Y-74661468D01*
X172160400Y-74728244D01*
X172160390Y-74728440D01*
X172154793Y-74785266D01*
X172154717Y-74785651D01*
X172139931Y-74834395D01*
X172139781Y-74834757D01*
X172115774Y-74879671D01*
X172115556Y-74879997D01*
X172083245Y-74919368D01*
X172082968Y-74919645D01*
X172043597Y-74951956D01*
X172043271Y-74952174D01*
X171998357Y-74976181D01*
X171997995Y-74976331D01*
X171949251Y-74991117D01*
X171948866Y-74991193D01*
X171892040Y-74996790D01*
X171891844Y-74996800D01*
X171825068Y-74996800D01*
X171823336Y-74995800D01*
X171823336Y-74993800D01*
X171824872Y-74992810D01*
X171889703Y-74986425D01*
X171951860Y-74967570D01*
X172009141Y-74936952D01*
X172059348Y-74895748D01*
X172100552Y-74845541D01*
X172131170Y-74788260D01*
X172150025Y-74726103D01*
X172156410Y-74661272D01*
X172157575Y-74659646D01*
X172159565Y-74659842D01*
G37*
G36*
X179759565Y-74659842D02*
G01*
X179760400Y-74661468D01*
X179760400Y-74728244D01*
X179760390Y-74728440D01*
X179754793Y-74785266D01*
X179754717Y-74785651D01*
X179739931Y-74834395D01*
X179739781Y-74834757D01*
X179715774Y-74879671D01*
X179715556Y-74879997D01*
X179683245Y-74919368D01*
X179682968Y-74919645D01*
X179643597Y-74951956D01*
X179643271Y-74952174D01*
X179598357Y-74976181D01*
X179597995Y-74976331D01*
X179549251Y-74991117D01*
X179548866Y-74991193D01*
X179492040Y-74996790D01*
X179491844Y-74996800D01*
X179425068Y-74996800D01*
X179423336Y-74995800D01*
X179423336Y-74993800D01*
X179424872Y-74992810D01*
X179489703Y-74986425D01*
X179551860Y-74967570D01*
X179609141Y-74936952D01*
X179659348Y-74895748D01*
X179700552Y-74845541D01*
X179731170Y-74788260D01*
X179750025Y-74726103D01*
X179756410Y-74661272D01*
X179757575Y-74659646D01*
X179759565Y-74659842D01*
G37*
G36*
X170560390Y-74661272D02*
G01*
X170566775Y-74726103D01*
X170585630Y-74788260D01*
X170616248Y-74845541D01*
X170657452Y-74895748D01*
X170707659Y-74936952D01*
X170764940Y-74967570D01*
X170827097Y-74986425D01*
X170891928Y-74992810D01*
X170893554Y-74993975D01*
X170893358Y-74995965D01*
X170891732Y-74996800D01*
X170824956Y-74996800D01*
X170824760Y-74996790D01*
X170767934Y-74991193D01*
X170767549Y-74991117D01*
X170718805Y-74976331D01*
X170718443Y-74976181D01*
X170673529Y-74952174D01*
X170673203Y-74951956D01*
X170633832Y-74919645D01*
X170633555Y-74919368D01*
X170601244Y-74879997D01*
X170601026Y-74879671D01*
X170577019Y-74834757D01*
X170576869Y-74834395D01*
X170562083Y-74785651D01*
X170562007Y-74785266D01*
X170556410Y-74728440D01*
X170556400Y-74728244D01*
X170556400Y-74661468D01*
X170557400Y-74659736D01*
X170559400Y-74659736D01*
X170560390Y-74661272D01*
G37*
G36*
X178160390Y-74661272D02*
G01*
X178166775Y-74726103D01*
X178185630Y-74788260D01*
X178216248Y-74845541D01*
X178257452Y-74895748D01*
X178307659Y-74936952D01*
X178364940Y-74967570D01*
X178427097Y-74986425D01*
X178491928Y-74992810D01*
X178493554Y-74993975D01*
X178493358Y-74995965D01*
X178491732Y-74996800D01*
X178424956Y-74996800D01*
X178424760Y-74996790D01*
X178367934Y-74991193D01*
X178367549Y-74991117D01*
X178318805Y-74976331D01*
X178318443Y-74976181D01*
X178273529Y-74952174D01*
X178273203Y-74951956D01*
X178233832Y-74919645D01*
X178233555Y-74919368D01*
X178201244Y-74879997D01*
X178201026Y-74879671D01*
X178177019Y-74834757D01*
X178176869Y-74834395D01*
X178162083Y-74785651D01*
X178162007Y-74785266D01*
X178156410Y-74728440D01*
X178156400Y-74728244D01*
X178156400Y-74661468D01*
X178157400Y-74659736D01*
X178159400Y-74659736D01*
X178160390Y-74661272D01*
G37*
G36*
X140946864Y-73124000D02*
G01*
X140946864Y-73126000D01*
X140945328Y-73126990D01*
X140880497Y-73133375D01*
X140818340Y-73152230D01*
X140761059Y-73182848D01*
X140710852Y-73224052D01*
X140669648Y-73274259D01*
X140639030Y-73331540D01*
X140620175Y-73393697D01*
X140613790Y-73458528D01*
X140612625Y-73460154D01*
X140610635Y-73459958D01*
X140609800Y-73458332D01*
X140609800Y-73391556D01*
X140609810Y-73391360D01*
X140615407Y-73334534D01*
X140615483Y-73334149D01*
X140630269Y-73285405D01*
X140630419Y-73285043D01*
X140654426Y-73240129D01*
X140654644Y-73239803D01*
X140686955Y-73200432D01*
X140687232Y-73200155D01*
X140726603Y-73167844D01*
X140726929Y-73167626D01*
X140771843Y-73143619D01*
X140772205Y-73143469D01*
X140820949Y-73128683D01*
X140821334Y-73128607D01*
X140878160Y-73123010D01*
X140878356Y-73123000D01*
X140945132Y-73123000D01*
X140946864Y-73124000D01*
G37*
G36*
X148546864Y-73124000D02*
G01*
X148546864Y-73126000D01*
X148545328Y-73126990D01*
X148480497Y-73133375D01*
X148418340Y-73152230D01*
X148361059Y-73182848D01*
X148310852Y-73224052D01*
X148269648Y-73274259D01*
X148239030Y-73331540D01*
X148220175Y-73393697D01*
X148213790Y-73458528D01*
X148212625Y-73460154D01*
X148210635Y-73459958D01*
X148209800Y-73458332D01*
X148209800Y-73391556D01*
X148209810Y-73391360D01*
X148215407Y-73334534D01*
X148215483Y-73334149D01*
X148230269Y-73285405D01*
X148230419Y-73285043D01*
X148254426Y-73240129D01*
X148254644Y-73239803D01*
X148286955Y-73200432D01*
X148287232Y-73200155D01*
X148326603Y-73167844D01*
X148326929Y-73167626D01*
X148371843Y-73143619D01*
X148372205Y-73143469D01*
X148420949Y-73128683D01*
X148421334Y-73128607D01*
X148478160Y-73123010D01*
X148478356Y-73123000D01*
X148545132Y-73123000D01*
X148546864Y-73124000D01*
G37*
G36*
X141945440Y-73123010D02*
G01*
X142002266Y-73128607D01*
X142002651Y-73128683D01*
X142051395Y-73143469D01*
X142051757Y-73143619D01*
X142096671Y-73167626D01*
X142096997Y-73167844D01*
X142136368Y-73200155D01*
X142136645Y-73200432D01*
X142168956Y-73239803D01*
X142169174Y-73240129D01*
X142193181Y-73285043D01*
X142193331Y-73285405D01*
X142208117Y-73334149D01*
X142208193Y-73334534D01*
X142213790Y-73391360D01*
X142213800Y-73391556D01*
X142213800Y-73458332D01*
X142212800Y-73460064D01*
X142210800Y-73460064D01*
X142209810Y-73458528D01*
X142203425Y-73393697D01*
X142184570Y-73331540D01*
X142153952Y-73274259D01*
X142112748Y-73224052D01*
X142062541Y-73182848D01*
X142005260Y-73152230D01*
X141943103Y-73133375D01*
X141878272Y-73126990D01*
X141876646Y-73125825D01*
X141876842Y-73123835D01*
X141878468Y-73123000D01*
X141945244Y-73123000D01*
X141945440Y-73123010D01*
G37*
G36*
X149545440Y-73123010D02*
G01*
X149602266Y-73128607D01*
X149602651Y-73128683D01*
X149651395Y-73143469D01*
X149651757Y-73143619D01*
X149696671Y-73167626D01*
X149696997Y-73167844D01*
X149736368Y-73200155D01*
X149736645Y-73200432D01*
X149768956Y-73239803D01*
X149769174Y-73240129D01*
X149793181Y-73285043D01*
X149793331Y-73285405D01*
X149808117Y-73334149D01*
X149808193Y-73334534D01*
X149813790Y-73391360D01*
X149813800Y-73391556D01*
X149813800Y-73458332D01*
X149812800Y-73460064D01*
X149810800Y-73460064D01*
X149809810Y-73458528D01*
X149803425Y-73393697D01*
X149784570Y-73331540D01*
X149753952Y-73274259D01*
X149712748Y-73224052D01*
X149662541Y-73182848D01*
X149605260Y-73152230D01*
X149543103Y-73133375D01*
X149478272Y-73126990D01*
X149476646Y-73125825D01*
X149476842Y-73123835D01*
X149478468Y-73123000D01*
X149545244Y-73123000D01*
X149545440Y-73123010D01*
G37*
G36*
X170893464Y-72793800D02*
G01*
X170893464Y-72795800D01*
X170891928Y-72796790D01*
X170827097Y-72803175D01*
X170764940Y-72822030D01*
X170707659Y-72852648D01*
X170657452Y-72893852D01*
X170616248Y-72944059D01*
X170585630Y-73001340D01*
X170566775Y-73063497D01*
X170560390Y-73128328D01*
X170559225Y-73129954D01*
X170557235Y-73129758D01*
X170556400Y-73128132D01*
X170556400Y-73061356D01*
X170556410Y-73061160D01*
X170562007Y-73004334D01*
X170562083Y-73003949D01*
X170576869Y-72955205D01*
X170577019Y-72954843D01*
X170601026Y-72909929D01*
X170601244Y-72909603D01*
X170633555Y-72870232D01*
X170633832Y-72869955D01*
X170673203Y-72837644D01*
X170673529Y-72837426D01*
X170718443Y-72813419D01*
X170718805Y-72813269D01*
X170767549Y-72798483D01*
X170767934Y-72798407D01*
X170824760Y-72792810D01*
X170824956Y-72792800D01*
X170891732Y-72792800D01*
X170893464Y-72793800D01*
G37*
G36*
X178493464Y-72793800D02*
G01*
X178493464Y-72795800D01*
X178491928Y-72796790D01*
X178427097Y-72803175D01*
X178364940Y-72822030D01*
X178307659Y-72852648D01*
X178257452Y-72893852D01*
X178216248Y-72944059D01*
X178185630Y-73001340D01*
X178166775Y-73063497D01*
X178160390Y-73128328D01*
X178159225Y-73129954D01*
X178157235Y-73129758D01*
X178156400Y-73128132D01*
X178156400Y-73061356D01*
X178156410Y-73061160D01*
X178162007Y-73004334D01*
X178162083Y-73003949D01*
X178176869Y-72955205D01*
X178177019Y-72954843D01*
X178201026Y-72909929D01*
X178201244Y-72909603D01*
X178233555Y-72870232D01*
X178233832Y-72869955D01*
X178273203Y-72837644D01*
X178273529Y-72837426D01*
X178318443Y-72813419D01*
X178318805Y-72813269D01*
X178367549Y-72798483D01*
X178367934Y-72798407D01*
X178424760Y-72792810D01*
X178424956Y-72792800D01*
X178491732Y-72792800D01*
X178493464Y-72793800D01*
G37*
G36*
X171892040Y-72792810D02*
G01*
X171948866Y-72798407D01*
X171949251Y-72798483D01*
X171997995Y-72813269D01*
X171998357Y-72813419D01*
X172043271Y-72837426D01*
X172043597Y-72837644D01*
X172082968Y-72869955D01*
X172083245Y-72870232D01*
X172115556Y-72909603D01*
X172115774Y-72909929D01*
X172139781Y-72954843D01*
X172139931Y-72955205D01*
X172154717Y-73003949D01*
X172154793Y-73004334D01*
X172160390Y-73061160D01*
X172160400Y-73061356D01*
X172160400Y-73128132D01*
X172159400Y-73129864D01*
X172157400Y-73129864D01*
X172156410Y-73128328D01*
X172150025Y-73063497D01*
X172131170Y-73001340D01*
X172100552Y-72944059D01*
X172059348Y-72893852D01*
X172009141Y-72852648D01*
X171951860Y-72822030D01*
X171889703Y-72803175D01*
X171824872Y-72796790D01*
X171823246Y-72795625D01*
X171823442Y-72793635D01*
X171825068Y-72792800D01*
X171891844Y-72792800D01*
X171892040Y-72792810D01*
G37*
G36*
X179492040Y-72792810D02*
G01*
X179548866Y-72798407D01*
X179549251Y-72798483D01*
X179597995Y-72813269D01*
X179598357Y-72813419D01*
X179643271Y-72837426D01*
X179643597Y-72837644D01*
X179682968Y-72869955D01*
X179683245Y-72870232D01*
X179715556Y-72909603D01*
X179715774Y-72909929D01*
X179739781Y-72954843D01*
X179739931Y-72955205D01*
X179754717Y-73003949D01*
X179754793Y-73004334D01*
X179760390Y-73061160D01*
X179760400Y-73061356D01*
X179760400Y-73128132D01*
X179759400Y-73129864D01*
X179757400Y-73129864D01*
X179756410Y-73128328D01*
X179750025Y-73063497D01*
X179731170Y-73001340D01*
X179700552Y-72944059D01*
X179659348Y-72893852D01*
X179609141Y-72852648D01*
X179551860Y-72822030D01*
X179489703Y-72803175D01*
X179424872Y-72796790D01*
X179423246Y-72795625D01*
X179423442Y-72793635D01*
X179425068Y-72792800D01*
X179491844Y-72792800D01*
X179492040Y-72792810D01*
G37*
G36*
X144212965Y-72423374D02*
G01*
X144213790Y-72424804D01*
X144218574Y-72473378D01*
X144232687Y-72519902D01*
X144255604Y-72562777D01*
X144286444Y-72600356D01*
X144324023Y-72631196D01*
X144366898Y-72654113D01*
X144413422Y-72668226D01*
X144461996Y-72673010D01*
X144463622Y-72674175D01*
X144463426Y-72676165D01*
X144461800Y-72677000D01*
X144405441Y-72677000D01*
X144405245Y-72676990D01*
X144362641Y-72672794D01*
X144362256Y-72672718D01*
X144327198Y-72662083D01*
X144326836Y-72661933D01*
X144294525Y-72644662D01*
X144294199Y-72644444D01*
X144289904Y-72640920D01*
X144269777Y-72627471D01*
X144247503Y-72618245D01*
X144223852Y-72613541D01*
X144199746Y-72613541D01*
X144176096Y-72618246D01*
X144153822Y-72627472D01*
X144133696Y-72640920D01*
X144129401Y-72644444D01*
X144129075Y-72644662D01*
X144096764Y-72661933D01*
X144096402Y-72662083D01*
X144061344Y-72672718D01*
X144060959Y-72672794D01*
X144018355Y-72676990D01*
X144018159Y-72677000D01*
X143961800Y-72677000D01*
X143960068Y-72676000D01*
X143960068Y-72674000D01*
X143961604Y-72673010D01*
X144010178Y-72668226D01*
X144056702Y-72654113D01*
X144099577Y-72631196D01*
X144137156Y-72600356D01*
X144167996Y-72562777D01*
X144190913Y-72519902D01*
X144205026Y-72473378D01*
X144209810Y-72424804D01*
X144210975Y-72423178D01*
X144212965Y-72423374D01*
G37*
G36*
X147212965Y-72423374D02*
G01*
X147213790Y-72424804D01*
X147218574Y-72473378D01*
X147232687Y-72519902D01*
X147255604Y-72562777D01*
X147286444Y-72600356D01*
X147324023Y-72631196D01*
X147366898Y-72654113D01*
X147413422Y-72668226D01*
X147461996Y-72673010D01*
X147463622Y-72674175D01*
X147463426Y-72676165D01*
X147461800Y-72677000D01*
X147405441Y-72677000D01*
X147405245Y-72676990D01*
X147362641Y-72672794D01*
X147362256Y-72672718D01*
X147327198Y-72662083D01*
X147326836Y-72661933D01*
X147294525Y-72644662D01*
X147294199Y-72644444D01*
X147289904Y-72640920D01*
X147269777Y-72627471D01*
X147247503Y-72618245D01*
X147223852Y-72613541D01*
X147199746Y-72613541D01*
X147176096Y-72618246D01*
X147153822Y-72627472D01*
X147133696Y-72640920D01*
X147129401Y-72644444D01*
X147129075Y-72644662D01*
X147096764Y-72661933D01*
X147096402Y-72662083D01*
X147061344Y-72672718D01*
X147060959Y-72672794D01*
X147018355Y-72676990D01*
X147018159Y-72677000D01*
X146961800Y-72677000D01*
X146960068Y-72676000D01*
X146960068Y-72674000D01*
X146961604Y-72673010D01*
X147010178Y-72668226D01*
X147056702Y-72654113D01*
X147099577Y-72631196D01*
X147137156Y-72600356D01*
X147167996Y-72562777D01*
X147190913Y-72519902D01*
X147205026Y-72473378D01*
X147209810Y-72424804D01*
X147210975Y-72423178D01*
X147212965Y-72423374D01*
G37*
G36*
X145212965Y-72423374D02*
G01*
X145213790Y-72424804D01*
X145218574Y-72473378D01*
X145232687Y-72519902D01*
X145255604Y-72562777D01*
X145286444Y-72600356D01*
X145324023Y-72631196D01*
X145366898Y-72654113D01*
X145413422Y-72668226D01*
X145461996Y-72673010D01*
X145463622Y-72674175D01*
X145463426Y-72676165D01*
X145461800Y-72677000D01*
X145405441Y-72677000D01*
X145405245Y-72676990D01*
X145362641Y-72672794D01*
X145362256Y-72672718D01*
X145327198Y-72662083D01*
X145326836Y-72661933D01*
X145294525Y-72644662D01*
X145294199Y-72644444D01*
X145289904Y-72640920D01*
X145269777Y-72627471D01*
X145247503Y-72618245D01*
X145223852Y-72613541D01*
X145199746Y-72613541D01*
X145176096Y-72618246D01*
X145153822Y-72627472D01*
X145133696Y-72640920D01*
X145129401Y-72644444D01*
X145129075Y-72644662D01*
X145096764Y-72661933D01*
X145096402Y-72662083D01*
X145061344Y-72672718D01*
X145060959Y-72672794D01*
X145018355Y-72676990D01*
X145018159Y-72677000D01*
X144961800Y-72677000D01*
X144960068Y-72676000D01*
X144960068Y-72674000D01*
X144961604Y-72673010D01*
X145010178Y-72668226D01*
X145056702Y-72654113D01*
X145099577Y-72631196D01*
X145137156Y-72600356D01*
X145167996Y-72562777D01*
X145190913Y-72519902D01*
X145205026Y-72473378D01*
X145209810Y-72424804D01*
X145210975Y-72423178D01*
X145212965Y-72423374D01*
G37*
G36*
X143212965Y-72423374D02*
G01*
X143213790Y-72424804D01*
X143218574Y-72473378D01*
X143232687Y-72519902D01*
X143255604Y-72562777D01*
X143286444Y-72600356D01*
X143324023Y-72631196D01*
X143366898Y-72654113D01*
X143413422Y-72668226D01*
X143461996Y-72673010D01*
X143463622Y-72674175D01*
X143463426Y-72676165D01*
X143461800Y-72677000D01*
X143405441Y-72677000D01*
X143405245Y-72676990D01*
X143362641Y-72672794D01*
X143362256Y-72672718D01*
X143327198Y-72662083D01*
X143326836Y-72661933D01*
X143294525Y-72644662D01*
X143294199Y-72644444D01*
X143289904Y-72640920D01*
X143269777Y-72627471D01*
X143247503Y-72618245D01*
X143223852Y-72613541D01*
X143199746Y-72613541D01*
X143176096Y-72618246D01*
X143153822Y-72627472D01*
X143133696Y-72640920D01*
X143129401Y-72644444D01*
X143129075Y-72644662D01*
X143096764Y-72661933D01*
X143096402Y-72662083D01*
X143061344Y-72672718D01*
X143060959Y-72672794D01*
X143018355Y-72676990D01*
X143018159Y-72677000D01*
X142961800Y-72677000D01*
X142960068Y-72676000D01*
X142960068Y-72674000D01*
X142961604Y-72673010D01*
X143010178Y-72668226D01*
X143056702Y-72654113D01*
X143099577Y-72631196D01*
X143137156Y-72600356D01*
X143167996Y-72562777D01*
X143190913Y-72519902D01*
X143205026Y-72473378D01*
X143209810Y-72424804D01*
X143210975Y-72423178D01*
X143212965Y-72423374D01*
G37*
G36*
X146212965Y-72423374D02*
G01*
X146213790Y-72424804D01*
X146218574Y-72473378D01*
X146232687Y-72519902D01*
X146255604Y-72562777D01*
X146286444Y-72600356D01*
X146324023Y-72631196D01*
X146366898Y-72654113D01*
X146413422Y-72668226D01*
X146461996Y-72673010D01*
X146463622Y-72674175D01*
X146463426Y-72676165D01*
X146461800Y-72677000D01*
X146405441Y-72677000D01*
X146405245Y-72676990D01*
X146362641Y-72672794D01*
X146362256Y-72672718D01*
X146327198Y-72662083D01*
X146326836Y-72661933D01*
X146294525Y-72644662D01*
X146294199Y-72644444D01*
X146289904Y-72640920D01*
X146269777Y-72627471D01*
X146247503Y-72618245D01*
X146223852Y-72613541D01*
X146199746Y-72613541D01*
X146176096Y-72618246D01*
X146153822Y-72627472D01*
X146133696Y-72640920D01*
X146129401Y-72644444D01*
X146129075Y-72644662D01*
X146096764Y-72661933D01*
X146096402Y-72662083D01*
X146061344Y-72672718D01*
X146060959Y-72672794D01*
X146018355Y-72676990D01*
X146018159Y-72677000D01*
X145961800Y-72677000D01*
X145960068Y-72676000D01*
X145960068Y-72674000D01*
X145961604Y-72673010D01*
X146010178Y-72668226D01*
X146056702Y-72654113D01*
X146099577Y-72631196D01*
X146137156Y-72600356D01*
X146167996Y-72562777D01*
X146190913Y-72519902D01*
X146205026Y-72473378D01*
X146209810Y-72424804D01*
X146210975Y-72423178D01*
X146212965Y-72423374D01*
G37*
G36*
X175159565Y-72093174D02*
G01*
X175160390Y-72094604D01*
X175165174Y-72143178D01*
X175179287Y-72189702D01*
X175202204Y-72232577D01*
X175233044Y-72270156D01*
X175270623Y-72300996D01*
X175313498Y-72323913D01*
X175360022Y-72338026D01*
X175408596Y-72342810D01*
X175410222Y-72343975D01*
X175410026Y-72345965D01*
X175408400Y-72346800D01*
X175352041Y-72346800D01*
X175351845Y-72346790D01*
X175309241Y-72342594D01*
X175308856Y-72342518D01*
X175273798Y-72331883D01*
X175273436Y-72331733D01*
X175241125Y-72314462D01*
X175240799Y-72314244D01*
X175236504Y-72310720D01*
X175216377Y-72297271D01*
X175194103Y-72288045D01*
X175170452Y-72283341D01*
X175146346Y-72283341D01*
X175122696Y-72288046D01*
X175100422Y-72297272D01*
X175080296Y-72310720D01*
X175076001Y-72314244D01*
X175075675Y-72314462D01*
X175043364Y-72331733D01*
X175043002Y-72331883D01*
X175007944Y-72342518D01*
X175007559Y-72342594D01*
X174964955Y-72346790D01*
X174964759Y-72346800D01*
X174908400Y-72346800D01*
X174906668Y-72345800D01*
X174906668Y-72343800D01*
X174908204Y-72342810D01*
X174956778Y-72338026D01*
X175003302Y-72323913D01*
X175046177Y-72300996D01*
X175083756Y-72270156D01*
X175114596Y-72232577D01*
X175137513Y-72189702D01*
X175151626Y-72143178D01*
X175156410Y-72094604D01*
X175157575Y-72092978D01*
X175159565Y-72093174D01*
G37*
G36*
X173159565Y-72093174D02*
G01*
X173160390Y-72094604D01*
X173165174Y-72143178D01*
X173179287Y-72189702D01*
X173202204Y-72232577D01*
X173233044Y-72270156D01*
X173270623Y-72300996D01*
X173313498Y-72323913D01*
X173360022Y-72338026D01*
X173408596Y-72342810D01*
X173410222Y-72343975D01*
X173410026Y-72345965D01*
X173408400Y-72346800D01*
X173352041Y-72346800D01*
X173351845Y-72346790D01*
X173309241Y-72342594D01*
X173308856Y-72342518D01*
X173273798Y-72331883D01*
X173273436Y-72331733D01*
X173241125Y-72314462D01*
X173240799Y-72314244D01*
X173236504Y-72310720D01*
X173216377Y-72297271D01*
X173194103Y-72288045D01*
X173170452Y-72283341D01*
X173146346Y-72283341D01*
X173122696Y-72288046D01*
X173100422Y-72297272D01*
X173080296Y-72310720D01*
X173076001Y-72314244D01*
X173075675Y-72314462D01*
X173043364Y-72331733D01*
X173043002Y-72331883D01*
X173007944Y-72342518D01*
X173007559Y-72342594D01*
X172964955Y-72346790D01*
X172964759Y-72346800D01*
X172908400Y-72346800D01*
X172906668Y-72345800D01*
X172906668Y-72343800D01*
X172908204Y-72342810D01*
X172956778Y-72338026D01*
X173003302Y-72323913D01*
X173046177Y-72300996D01*
X173083756Y-72270156D01*
X173114596Y-72232577D01*
X173137513Y-72189702D01*
X173151626Y-72143178D01*
X173156410Y-72094604D01*
X173157575Y-72092978D01*
X173159565Y-72093174D01*
G37*
G36*
X174159565Y-72093174D02*
G01*
X174160390Y-72094604D01*
X174165174Y-72143178D01*
X174179287Y-72189702D01*
X174202204Y-72232577D01*
X174233044Y-72270156D01*
X174270623Y-72300996D01*
X174313498Y-72323913D01*
X174360022Y-72338026D01*
X174408596Y-72342810D01*
X174410222Y-72343975D01*
X174410026Y-72345965D01*
X174408400Y-72346800D01*
X174352041Y-72346800D01*
X174351845Y-72346790D01*
X174309241Y-72342594D01*
X174308856Y-72342518D01*
X174273798Y-72331883D01*
X174273436Y-72331733D01*
X174241125Y-72314462D01*
X174240799Y-72314244D01*
X174236504Y-72310720D01*
X174216377Y-72297271D01*
X174194103Y-72288045D01*
X174170452Y-72283341D01*
X174146346Y-72283341D01*
X174122696Y-72288046D01*
X174100422Y-72297272D01*
X174080296Y-72310720D01*
X174076001Y-72314244D01*
X174075675Y-72314462D01*
X174043364Y-72331733D01*
X174043002Y-72331883D01*
X174007944Y-72342518D01*
X174007559Y-72342594D01*
X173964955Y-72346790D01*
X173964759Y-72346800D01*
X173908400Y-72346800D01*
X173906668Y-72345800D01*
X173906668Y-72343800D01*
X173908204Y-72342810D01*
X173956778Y-72338026D01*
X174003302Y-72323913D01*
X174046177Y-72300996D01*
X174083756Y-72270156D01*
X174114596Y-72232577D01*
X174137513Y-72189702D01*
X174151626Y-72143178D01*
X174156410Y-72094604D01*
X174157575Y-72092978D01*
X174159565Y-72093174D01*
G37*
G36*
X176159565Y-72093174D02*
G01*
X176160390Y-72094604D01*
X176165174Y-72143178D01*
X176179287Y-72189702D01*
X176202204Y-72232577D01*
X176233044Y-72270156D01*
X176270623Y-72300996D01*
X176313498Y-72323913D01*
X176360022Y-72338026D01*
X176408596Y-72342810D01*
X176410222Y-72343975D01*
X176410026Y-72345965D01*
X176408400Y-72346800D01*
X176352041Y-72346800D01*
X176351845Y-72346790D01*
X176309241Y-72342594D01*
X176308856Y-72342518D01*
X176273798Y-72331883D01*
X176273436Y-72331733D01*
X176241125Y-72314462D01*
X176240799Y-72314244D01*
X176236504Y-72310720D01*
X176216377Y-72297271D01*
X176194103Y-72288045D01*
X176170452Y-72283341D01*
X176146346Y-72283341D01*
X176122696Y-72288046D01*
X176100422Y-72297272D01*
X176080296Y-72310720D01*
X176076001Y-72314244D01*
X176075675Y-72314462D01*
X176043364Y-72331733D01*
X176043002Y-72331883D01*
X176007944Y-72342518D01*
X176007559Y-72342594D01*
X175964955Y-72346790D01*
X175964759Y-72346800D01*
X175908400Y-72346800D01*
X175906668Y-72345800D01*
X175906668Y-72343800D01*
X175908204Y-72342810D01*
X175956778Y-72338026D01*
X176003302Y-72323913D01*
X176046177Y-72300996D01*
X176083756Y-72270156D01*
X176114596Y-72232577D01*
X176137513Y-72189702D01*
X176151626Y-72143178D01*
X176156410Y-72094604D01*
X176157575Y-72092978D01*
X176159565Y-72093174D01*
G37*
G36*
X177159565Y-72093174D02*
G01*
X177160390Y-72094604D01*
X177165174Y-72143178D01*
X177179287Y-72189702D01*
X177202204Y-72232577D01*
X177233044Y-72270156D01*
X177270623Y-72300996D01*
X177313498Y-72323913D01*
X177360022Y-72338026D01*
X177408596Y-72342810D01*
X177410222Y-72343975D01*
X177410026Y-72345965D01*
X177408400Y-72346800D01*
X177352041Y-72346800D01*
X177351845Y-72346790D01*
X177309241Y-72342594D01*
X177308856Y-72342518D01*
X177273798Y-72331883D01*
X177273436Y-72331733D01*
X177241125Y-72314462D01*
X177240799Y-72314244D01*
X177236504Y-72310720D01*
X177216377Y-72297271D01*
X177194103Y-72288045D01*
X177170452Y-72283341D01*
X177146346Y-72283341D01*
X177122696Y-72288046D01*
X177100422Y-72297272D01*
X177080296Y-72310720D01*
X177076001Y-72314244D01*
X177075675Y-72314462D01*
X177043364Y-72331733D01*
X177043002Y-72331883D01*
X177007944Y-72342518D01*
X177007559Y-72342594D01*
X176964955Y-72346790D01*
X176964759Y-72346800D01*
X176908400Y-72346800D01*
X176906668Y-72345800D01*
X176906668Y-72343800D01*
X176908204Y-72342810D01*
X176956778Y-72338026D01*
X177003302Y-72323913D01*
X177046177Y-72300996D01*
X177083756Y-72270156D01*
X177114596Y-72232577D01*
X177137513Y-72189702D01*
X177151626Y-72143178D01*
X177156410Y-72094604D01*
X177157575Y-72092978D01*
X177159565Y-72093174D01*
G37*
G36*
X147018355Y-70723010D02*
G01*
X147060959Y-70727206D01*
X147061344Y-70727282D01*
X147096402Y-70737917D01*
X147096764Y-70738067D01*
X147129075Y-70755338D01*
X147129401Y-70755556D01*
X147133696Y-70759080D01*
X147153823Y-70772529D01*
X147176097Y-70781755D01*
X147199748Y-70786459D01*
X147223854Y-70786459D01*
X147247504Y-70781754D01*
X147269778Y-70772528D01*
X147289904Y-70759080D01*
X147294199Y-70755556D01*
X147294525Y-70755338D01*
X147326836Y-70738067D01*
X147327198Y-70737917D01*
X147362256Y-70727282D01*
X147362641Y-70727206D01*
X147405245Y-70723010D01*
X147405441Y-70723000D01*
X147461800Y-70723000D01*
X147463532Y-70724000D01*
X147463532Y-70726000D01*
X147461996Y-70726990D01*
X147413422Y-70731774D01*
X147366898Y-70745887D01*
X147324023Y-70768804D01*
X147286444Y-70799644D01*
X147255604Y-70837223D01*
X147232687Y-70880098D01*
X147218574Y-70926622D01*
X147213790Y-70975196D01*
X147212625Y-70976822D01*
X147210635Y-70976626D01*
X147209810Y-70975196D01*
X147205026Y-70926622D01*
X147190913Y-70880098D01*
X147167996Y-70837223D01*
X147137156Y-70799644D01*
X147099577Y-70768804D01*
X147056702Y-70745887D01*
X147010178Y-70731774D01*
X146961604Y-70726990D01*
X146959978Y-70725825D01*
X146960174Y-70723835D01*
X146961800Y-70723000D01*
X147018159Y-70723000D01*
X147018355Y-70723010D01*
G37*
G36*
X144018355Y-70723010D02*
G01*
X144060959Y-70727206D01*
X144061344Y-70727282D01*
X144096402Y-70737917D01*
X144096764Y-70738067D01*
X144129075Y-70755338D01*
X144129401Y-70755556D01*
X144133696Y-70759080D01*
X144153823Y-70772529D01*
X144176097Y-70781755D01*
X144199748Y-70786459D01*
X144223854Y-70786459D01*
X144247504Y-70781754D01*
X144269778Y-70772528D01*
X144289904Y-70759080D01*
X144294199Y-70755556D01*
X144294525Y-70755338D01*
X144326836Y-70738067D01*
X144327198Y-70737917D01*
X144362256Y-70727282D01*
X144362641Y-70727206D01*
X144405245Y-70723010D01*
X144405441Y-70723000D01*
X144461800Y-70723000D01*
X144463532Y-70724000D01*
X144463532Y-70726000D01*
X144461996Y-70726990D01*
X144413422Y-70731774D01*
X144366898Y-70745887D01*
X144324023Y-70768804D01*
X144286444Y-70799644D01*
X144255604Y-70837223D01*
X144232687Y-70880098D01*
X144218574Y-70926622D01*
X144213790Y-70975196D01*
X144212625Y-70976822D01*
X144210635Y-70976626D01*
X144209810Y-70975196D01*
X144205026Y-70926622D01*
X144190913Y-70880098D01*
X144167996Y-70837223D01*
X144137156Y-70799644D01*
X144099577Y-70768804D01*
X144056702Y-70745887D01*
X144010178Y-70731774D01*
X143961604Y-70726990D01*
X143959978Y-70725825D01*
X143960174Y-70723835D01*
X143961800Y-70723000D01*
X144018159Y-70723000D01*
X144018355Y-70723010D01*
G37*
G36*
X146018355Y-70723010D02*
G01*
X146060959Y-70727206D01*
X146061344Y-70727282D01*
X146096402Y-70737917D01*
X146096764Y-70738067D01*
X146129075Y-70755338D01*
X146129401Y-70755556D01*
X146133696Y-70759080D01*
X146153823Y-70772529D01*
X146176097Y-70781755D01*
X146199748Y-70786459D01*
X146223854Y-70786459D01*
X146247504Y-70781754D01*
X146269778Y-70772528D01*
X146289904Y-70759080D01*
X146294199Y-70755556D01*
X146294525Y-70755338D01*
X146326836Y-70738067D01*
X146327198Y-70737917D01*
X146362256Y-70727282D01*
X146362641Y-70727206D01*
X146405245Y-70723010D01*
X146405441Y-70723000D01*
X146461800Y-70723000D01*
X146463532Y-70724000D01*
X146463532Y-70726000D01*
X146461996Y-70726990D01*
X146413422Y-70731774D01*
X146366898Y-70745887D01*
X146324023Y-70768804D01*
X146286444Y-70799644D01*
X146255604Y-70837223D01*
X146232687Y-70880098D01*
X146218574Y-70926622D01*
X146213790Y-70975196D01*
X146212625Y-70976822D01*
X146210635Y-70976626D01*
X146209810Y-70975196D01*
X146205026Y-70926622D01*
X146190913Y-70880098D01*
X146167996Y-70837223D01*
X146137156Y-70799644D01*
X146099577Y-70768804D01*
X146056702Y-70745887D01*
X146010178Y-70731774D01*
X145961604Y-70726990D01*
X145959978Y-70725825D01*
X145960174Y-70723835D01*
X145961800Y-70723000D01*
X146018159Y-70723000D01*
X146018355Y-70723010D01*
G37*
G36*
X143018355Y-70723010D02*
G01*
X143060959Y-70727206D01*
X143061344Y-70727282D01*
X143096402Y-70737917D01*
X143096764Y-70738067D01*
X143129075Y-70755338D01*
X143129401Y-70755556D01*
X143133696Y-70759080D01*
X143153823Y-70772529D01*
X143176097Y-70781755D01*
X143199748Y-70786459D01*
X143223854Y-70786459D01*
X143247504Y-70781754D01*
X143269778Y-70772528D01*
X143289904Y-70759080D01*
X143294199Y-70755556D01*
X143294525Y-70755338D01*
X143326836Y-70738067D01*
X143327198Y-70737917D01*
X143362256Y-70727282D01*
X143362641Y-70727206D01*
X143405245Y-70723010D01*
X143405441Y-70723000D01*
X143461800Y-70723000D01*
X143463532Y-70724000D01*
X143463532Y-70726000D01*
X143461996Y-70726990D01*
X143413422Y-70731774D01*
X143366898Y-70745887D01*
X143324023Y-70768804D01*
X143286444Y-70799644D01*
X143255604Y-70837223D01*
X143232687Y-70880098D01*
X143218574Y-70926622D01*
X143213790Y-70975196D01*
X143212625Y-70976822D01*
X143210635Y-70976626D01*
X143209810Y-70975196D01*
X143205026Y-70926622D01*
X143190913Y-70880098D01*
X143167996Y-70837223D01*
X143137156Y-70799644D01*
X143099577Y-70768804D01*
X143056702Y-70745887D01*
X143010178Y-70731774D01*
X142961604Y-70726990D01*
X142959978Y-70725825D01*
X142960174Y-70723835D01*
X142961800Y-70723000D01*
X143018159Y-70723000D01*
X143018355Y-70723010D01*
G37*
G36*
X145018355Y-70723010D02*
G01*
X145060959Y-70727206D01*
X145061344Y-70727282D01*
X145096402Y-70737917D01*
X145096764Y-70738067D01*
X145129075Y-70755338D01*
X145129401Y-70755556D01*
X145133696Y-70759080D01*
X145153823Y-70772529D01*
X145176097Y-70781755D01*
X145199748Y-70786459D01*
X145223854Y-70786459D01*
X145247504Y-70781754D01*
X145269778Y-70772528D01*
X145289904Y-70759080D01*
X145294199Y-70755556D01*
X145294525Y-70755338D01*
X145326836Y-70738067D01*
X145327198Y-70737917D01*
X145362256Y-70727282D01*
X145362641Y-70727206D01*
X145405245Y-70723010D01*
X145405441Y-70723000D01*
X145461800Y-70723000D01*
X145463532Y-70724000D01*
X145463532Y-70726000D01*
X145461996Y-70726990D01*
X145413422Y-70731774D01*
X145366898Y-70745887D01*
X145324023Y-70768804D01*
X145286444Y-70799644D01*
X145255604Y-70837223D01*
X145232687Y-70880098D01*
X145218574Y-70926622D01*
X145213790Y-70975196D01*
X145212625Y-70976822D01*
X145210635Y-70976626D01*
X145209810Y-70975196D01*
X145205026Y-70926622D01*
X145190913Y-70880098D01*
X145167996Y-70837223D01*
X145137156Y-70799644D01*
X145099577Y-70768804D01*
X145056702Y-70745887D01*
X145010178Y-70731774D01*
X144961604Y-70726990D01*
X144959978Y-70725825D01*
X144960174Y-70723835D01*
X144961800Y-70723000D01*
X145018159Y-70723000D01*
X145018355Y-70723010D01*
G37*
G36*
X174964955Y-70392810D02*
G01*
X175007559Y-70397006D01*
X175007944Y-70397082D01*
X175043002Y-70407717D01*
X175043364Y-70407867D01*
X175075675Y-70425138D01*
X175076001Y-70425356D01*
X175080296Y-70428880D01*
X175100423Y-70442329D01*
X175122697Y-70451555D01*
X175146348Y-70456259D01*
X175170454Y-70456259D01*
X175194104Y-70451554D01*
X175216378Y-70442328D01*
X175236504Y-70428880D01*
X175240799Y-70425356D01*
X175241125Y-70425138D01*
X175273436Y-70407867D01*
X175273798Y-70407717D01*
X175308856Y-70397082D01*
X175309241Y-70397006D01*
X175351845Y-70392810D01*
X175352041Y-70392800D01*
X175408400Y-70392800D01*
X175410132Y-70393800D01*
X175410132Y-70395800D01*
X175408596Y-70396790D01*
X175360022Y-70401574D01*
X175313498Y-70415687D01*
X175270623Y-70438604D01*
X175233044Y-70469444D01*
X175202204Y-70507023D01*
X175179287Y-70549898D01*
X175165174Y-70596422D01*
X175160390Y-70644996D01*
X175159225Y-70646622D01*
X175157235Y-70646426D01*
X175156410Y-70644996D01*
X175151626Y-70596422D01*
X175137513Y-70549898D01*
X175114596Y-70507023D01*
X175083756Y-70469444D01*
X175046177Y-70438604D01*
X175003302Y-70415687D01*
X174956778Y-70401574D01*
X174908204Y-70396790D01*
X174906578Y-70395625D01*
X174906774Y-70393635D01*
X174908400Y-70392800D01*
X174964759Y-70392800D01*
X174964955Y-70392810D01*
G37*
G36*
X172964955Y-70392810D02*
G01*
X173007559Y-70397006D01*
X173007944Y-70397082D01*
X173043002Y-70407717D01*
X173043364Y-70407867D01*
X173075675Y-70425138D01*
X173076001Y-70425356D01*
X173080296Y-70428880D01*
X173100423Y-70442329D01*
X173122697Y-70451555D01*
X173146348Y-70456259D01*
X173170454Y-70456259D01*
X173194104Y-70451554D01*
X173216378Y-70442328D01*
X173236504Y-70428880D01*
X173240799Y-70425356D01*
X173241125Y-70425138D01*
X173273436Y-70407867D01*
X173273798Y-70407717D01*
X173308856Y-70397082D01*
X173309241Y-70397006D01*
X173351845Y-70392810D01*
X173352041Y-70392800D01*
X173408400Y-70392800D01*
X173410132Y-70393800D01*
X173410132Y-70395800D01*
X173408596Y-70396790D01*
X173360022Y-70401574D01*
X173313498Y-70415687D01*
X173270623Y-70438604D01*
X173233044Y-70469444D01*
X173202204Y-70507023D01*
X173179287Y-70549898D01*
X173165174Y-70596422D01*
X173160390Y-70644996D01*
X173159225Y-70646622D01*
X173157235Y-70646426D01*
X173156410Y-70644996D01*
X173151626Y-70596422D01*
X173137513Y-70549898D01*
X173114596Y-70507023D01*
X173083756Y-70469444D01*
X173046177Y-70438604D01*
X173003302Y-70415687D01*
X172956778Y-70401574D01*
X172908204Y-70396790D01*
X172906578Y-70395625D01*
X172906774Y-70393635D01*
X172908400Y-70392800D01*
X172964759Y-70392800D01*
X172964955Y-70392810D01*
G37*
G36*
X173964955Y-70392810D02*
G01*
X174007559Y-70397006D01*
X174007944Y-70397082D01*
X174043002Y-70407717D01*
X174043364Y-70407867D01*
X174075675Y-70425138D01*
X174076001Y-70425356D01*
X174080296Y-70428880D01*
X174100423Y-70442329D01*
X174122697Y-70451555D01*
X174146348Y-70456259D01*
X174170454Y-70456259D01*
X174194104Y-70451554D01*
X174216378Y-70442328D01*
X174236504Y-70428880D01*
X174240799Y-70425356D01*
X174241125Y-70425138D01*
X174273436Y-70407867D01*
X174273798Y-70407717D01*
X174308856Y-70397082D01*
X174309241Y-70397006D01*
X174351845Y-70392810D01*
X174352041Y-70392800D01*
X174408400Y-70392800D01*
X174410132Y-70393800D01*
X174410132Y-70395800D01*
X174408596Y-70396790D01*
X174360022Y-70401574D01*
X174313498Y-70415687D01*
X174270623Y-70438604D01*
X174233044Y-70469444D01*
X174202204Y-70507023D01*
X174179287Y-70549898D01*
X174165174Y-70596422D01*
X174160390Y-70644996D01*
X174159225Y-70646622D01*
X174157235Y-70646426D01*
X174156410Y-70644996D01*
X174151626Y-70596422D01*
X174137513Y-70549898D01*
X174114596Y-70507023D01*
X174083756Y-70469444D01*
X174046177Y-70438604D01*
X174003302Y-70415687D01*
X173956778Y-70401574D01*
X173908204Y-70396790D01*
X173906578Y-70395625D01*
X173906774Y-70393635D01*
X173908400Y-70392800D01*
X173964759Y-70392800D01*
X173964955Y-70392810D01*
G37*
G36*
X175964955Y-70392810D02*
G01*
X176007559Y-70397006D01*
X176007944Y-70397082D01*
X176043002Y-70407717D01*
X176043364Y-70407867D01*
X176075675Y-70425138D01*
X176076001Y-70425356D01*
X176080296Y-70428880D01*
X176100423Y-70442329D01*
X176122697Y-70451555D01*
X176146348Y-70456259D01*
X176170454Y-70456259D01*
X176194104Y-70451554D01*
X176216378Y-70442328D01*
X176236504Y-70428880D01*
X176240799Y-70425356D01*
X176241125Y-70425138D01*
X176273436Y-70407867D01*
X176273798Y-70407717D01*
X176308856Y-70397082D01*
X176309241Y-70397006D01*
X176351845Y-70392810D01*
X176352041Y-70392800D01*
X176408400Y-70392800D01*
X176410132Y-70393800D01*
X176410132Y-70395800D01*
X176408596Y-70396790D01*
X176360022Y-70401574D01*
X176313498Y-70415687D01*
X176270623Y-70438604D01*
X176233044Y-70469444D01*
X176202204Y-70507023D01*
X176179287Y-70549898D01*
X176165174Y-70596422D01*
X176160390Y-70644996D01*
X176159225Y-70646622D01*
X176157235Y-70646426D01*
X176156410Y-70644996D01*
X176151626Y-70596422D01*
X176137513Y-70549898D01*
X176114596Y-70507023D01*
X176083756Y-70469444D01*
X176046177Y-70438604D01*
X176003302Y-70415687D01*
X175956778Y-70401574D01*
X175908204Y-70396790D01*
X175906578Y-70395625D01*
X175906774Y-70393635D01*
X175908400Y-70392800D01*
X175964759Y-70392800D01*
X175964955Y-70392810D01*
G37*
G36*
X176964955Y-70392810D02*
G01*
X177007559Y-70397006D01*
X177007944Y-70397082D01*
X177043002Y-70407717D01*
X177043364Y-70407867D01*
X177075675Y-70425138D01*
X177076001Y-70425356D01*
X177080296Y-70428880D01*
X177100423Y-70442329D01*
X177122697Y-70451555D01*
X177146348Y-70456259D01*
X177170454Y-70456259D01*
X177194104Y-70451554D01*
X177216378Y-70442328D01*
X177236504Y-70428880D01*
X177240799Y-70425356D01*
X177241125Y-70425138D01*
X177273436Y-70407867D01*
X177273798Y-70407717D01*
X177308856Y-70397082D01*
X177309241Y-70397006D01*
X177351845Y-70392810D01*
X177352041Y-70392800D01*
X177408400Y-70392800D01*
X177410132Y-70393800D01*
X177410132Y-70395800D01*
X177408596Y-70396790D01*
X177360022Y-70401574D01*
X177313498Y-70415687D01*
X177270623Y-70438604D01*
X177233044Y-70469444D01*
X177202204Y-70507023D01*
X177179287Y-70549898D01*
X177165174Y-70596422D01*
X177160390Y-70644996D01*
X177159225Y-70646622D01*
X177157235Y-70646426D01*
X177156410Y-70644996D01*
X177151626Y-70596422D01*
X177137513Y-70549898D01*
X177114596Y-70507023D01*
X177083756Y-70469444D01*
X177046177Y-70438604D01*
X177003302Y-70415687D01*
X176956778Y-70401574D01*
X176908204Y-70396790D01*
X176906578Y-70395625D01*
X176906774Y-70393635D01*
X176908400Y-70392800D01*
X176964759Y-70392800D01*
X176964955Y-70392810D01*
G37*
G36*
X165185165Y-66232905D02*
G01*
X165186000Y-66234531D01*
X165186000Y-66306221D01*
X165185990Y-66306417D01*
X165180639Y-66360749D01*
X165180563Y-66361134D01*
X165166504Y-66407480D01*
X165166354Y-66407842D01*
X165143527Y-66450548D01*
X165143309Y-66450874D01*
X165112587Y-66488310D01*
X165112310Y-66488587D01*
X165074874Y-66519309D01*
X165074548Y-66519527D01*
X165031842Y-66542354D01*
X165031480Y-66542504D01*
X164985134Y-66556563D01*
X164984749Y-66556639D01*
X164930417Y-66561990D01*
X164930221Y-66562000D01*
X164858531Y-66562000D01*
X164856799Y-66561000D01*
X164856799Y-66559000D01*
X164858335Y-66558010D01*
X164921632Y-66551776D01*
X164982314Y-66533368D01*
X165038236Y-66503478D01*
X165087251Y-66463251D01*
X165127478Y-66414236D01*
X165157368Y-66358314D01*
X165175776Y-66297632D01*
X165182010Y-66234335D01*
X165183175Y-66232709D01*
X165185165Y-66232905D01*
G37*
G36*
X162985990Y-66234335D02*
G01*
X162992224Y-66297632D01*
X163010632Y-66358314D01*
X163040522Y-66414236D01*
X163080749Y-66463251D01*
X163129764Y-66503478D01*
X163185686Y-66533368D01*
X163246368Y-66551776D01*
X163309665Y-66558010D01*
X163311291Y-66559175D01*
X163311095Y-66561165D01*
X163309469Y-66562000D01*
X163237779Y-66562000D01*
X163237583Y-66561990D01*
X163183251Y-66556639D01*
X163182866Y-66556563D01*
X163136520Y-66542504D01*
X163136158Y-66542354D01*
X163093452Y-66519527D01*
X163093126Y-66519309D01*
X163055690Y-66488587D01*
X163055413Y-66488310D01*
X163024691Y-66450874D01*
X163024473Y-66450548D01*
X163001646Y-66407842D01*
X163001496Y-66407480D01*
X162987437Y-66361134D01*
X162987361Y-66360749D01*
X162982010Y-66306417D01*
X162982000Y-66306221D01*
X162982000Y-66234531D01*
X162983000Y-66232799D01*
X162985000Y-66232799D01*
X162985990Y-66234335D01*
G37*
G36*
X169630165Y-65902705D02*
G01*
X169631000Y-65904331D01*
X169631000Y-65976021D01*
X169630990Y-65976217D01*
X169625639Y-66030549D01*
X169625563Y-66030934D01*
X169611504Y-66077280D01*
X169611354Y-66077642D01*
X169588527Y-66120348D01*
X169588309Y-66120674D01*
X169557587Y-66158110D01*
X169557310Y-66158387D01*
X169519874Y-66189109D01*
X169519548Y-66189327D01*
X169476842Y-66212154D01*
X169476480Y-66212304D01*
X169430134Y-66226363D01*
X169429749Y-66226439D01*
X169375417Y-66231790D01*
X169375221Y-66231800D01*
X169303531Y-66231800D01*
X169301799Y-66230800D01*
X169301799Y-66228800D01*
X169303335Y-66227810D01*
X169366632Y-66221576D01*
X169427314Y-66203168D01*
X169483236Y-66173278D01*
X169532251Y-66133051D01*
X169572478Y-66084036D01*
X169602368Y-66028114D01*
X169620776Y-65967432D01*
X169627010Y-65904135D01*
X169628175Y-65902509D01*
X169630165Y-65902705D01*
G37*
G36*
X167430990Y-65904135D02*
G01*
X167437224Y-65967432D01*
X167455632Y-66028114D01*
X167485522Y-66084036D01*
X167525749Y-66133051D01*
X167574764Y-66173278D01*
X167630686Y-66203168D01*
X167691368Y-66221576D01*
X167754665Y-66227810D01*
X167756291Y-66228975D01*
X167756095Y-66230965D01*
X167754469Y-66231800D01*
X167682779Y-66231800D01*
X167682583Y-66231790D01*
X167628251Y-66226439D01*
X167627866Y-66226363D01*
X167581520Y-66212304D01*
X167581158Y-66212154D01*
X167538452Y-66189327D01*
X167538126Y-66189109D01*
X167500690Y-66158387D01*
X167500413Y-66158110D01*
X167469691Y-66120674D01*
X167469473Y-66120348D01*
X167446646Y-66077642D01*
X167446496Y-66077280D01*
X167432437Y-66030934D01*
X167432361Y-66030549D01*
X167427010Y-65976217D01*
X167427000Y-65976021D01*
X167427000Y-65904331D01*
X167428000Y-65902599D01*
X167430000Y-65902599D01*
X167430990Y-65904135D01*
G37*
G36*
X163311201Y-64834000D02*
G01*
X163311201Y-64836000D01*
X163309665Y-64836990D01*
X163246368Y-64843224D01*
X163185686Y-64861632D01*
X163129764Y-64891522D01*
X163080749Y-64931749D01*
X163040522Y-64980764D01*
X163010632Y-65036686D01*
X162992224Y-65097368D01*
X162985990Y-65160665D01*
X162984825Y-65162291D01*
X162982835Y-65162095D01*
X162982000Y-65160469D01*
X162982000Y-65088779D01*
X162982010Y-65088583D01*
X162987361Y-65034251D01*
X162987437Y-65033866D01*
X163001496Y-64987520D01*
X163001646Y-64987158D01*
X163024473Y-64944452D01*
X163024691Y-64944126D01*
X163055413Y-64906690D01*
X163055690Y-64906413D01*
X163093126Y-64875691D01*
X163093452Y-64875473D01*
X163136158Y-64852646D01*
X163136520Y-64852496D01*
X163182866Y-64838437D01*
X163183251Y-64838361D01*
X163237583Y-64833010D01*
X163237779Y-64833000D01*
X163309469Y-64833000D01*
X163311201Y-64834000D01*
G37*
G36*
X164930417Y-64833010D02*
G01*
X164984749Y-64838361D01*
X164985134Y-64838437D01*
X165031480Y-64852496D01*
X165031842Y-64852646D01*
X165074548Y-64875473D01*
X165074874Y-64875691D01*
X165112310Y-64906413D01*
X165112587Y-64906690D01*
X165143309Y-64944126D01*
X165143527Y-64944452D01*
X165166354Y-64987158D01*
X165166504Y-64987520D01*
X165180563Y-65033866D01*
X165180639Y-65034251D01*
X165185990Y-65088583D01*
X165186000Y-65088779D01*
X165186000Y-65160469D01*
X165185000Y-65162201D01*
X165183000Y-65162201D01*
X165182010Y-65160665D01*
X165175776Y-65097368D01*
X165157368Y-65036686D01*
X165127478Y-64980764D01*
X165087251Y-64931749D01*
X165038236Y-64891522D01*
X164982314Y-64861632D01*
X164921632Y-64843224D01*
X164858335Y-64836990D01*
X164856709Y-64835825D01*
X164856905Y-64833835D01*
X164858531Y-64833000D01*
X164930221Y-64833000D01*
X164930417Y-64833010D01*
G37*
G36*
X167756201Y-64503800D02*
G01*
X167756201Y-64505800D01*
X167754665Y-64506790D01*
X167691368Y-64513024D01*
X167630686Y-64531432D01*
X167574764Y-64561322D01*
X167525749Y-64601549D01*
X167485522Y-64650564D01*
X167455632Y-64706486D01*
X167437224Y-64767168D01*
X167430990Y-64830465D01*
X167429825Y-64832091D01*
X167427835Y-64831895D01*
X167427000Y-64830269D01*
X167427000Y-64758579D01*
X167427010Y-64758383D01*
X167432361Y-64704051D01*
X167432437Y-64703666D01*
X167446496Y-64657320D01*
X167446646Y-64656958D01*
X167469473Y-64614252D01*
X167469691Y-64613926D01*
X167500413Y-64576490D01*
X167500690Y-64576213D01*
X167538126Y-64545491D01*
X167538452Y-64545273D01*
X167581158Y-64522446D01*
X167581520Y-64522296D01*
X167627866Y-64508237D01*
X167628251Y-64508161D01*
X167682583Y-64502810D01*
X167682779Y-64502800D01*
X167754469Y-64502800D01*
X167756201Y-64503800D01*
G37*
G36*
X169375417Y-64502810D02*
G01*
X169429749Y-64508161D01*
X169430134Y-64508237D01*
X169476480Y-64522296D01*
X169476842Y-64522446D01*
X169519548Y-64545273D01*
X169519874Y-64545491D01*
X169557310Y-64576213D01*
X169557587Y-64576490D01*
X169588309Y-64613926D01*
X169588527Y-64614252D01*
X169611354Y-64656958D01*
X169611504Y-64657320D01*
X169625563Y-64703666D01*
X169625639Y-64704051D01*
X169630990Y-64758383D01*
X169631000Y-64758579D01*
X169631000Y-64830269D01*
X169630000Y-64832001D01*
X169628000Y-64832001D01*
X169627010Y-64830465D01*
X169620776Y-64767168D01*
X169602368Y-64706486D01*
X169572478Y-64650564D01*
X169532251Y-64601549D01*
X169483236Y-64561322D01*
X169427314Y-64531432D01*
X169366632Y-64513024D01*
X169303335Y-64506790D01*
X169301709Y-64505625D01*
X169301905Y-64503635D01*
X169303531Y-64502800D01*
X169375221Y-64502800D01*
X169375417Y-64502810D01*
G37*
G36*
X128132172Y-63408939D02*
G01*
X128132519Y-63410909D01*
X128130987Y-63412195D01*
X126805970Y-63645832D01*
X126857935Y-63940537D01*
X126857251Y-63942416D01*
X126855281Y-63942763D01*
X126854039Y-63941423D01*
X126847492Y-63918014D01*
X126836593Y-63896507D01*
X126821708Y-63877542D01*
X126803410Y-63861844D01*
X126782399Y-63850017D01*
X126759486Y-63842516D01*
X126735546Y-63839630D01*
X126711509Y-63841469D01*
X126688289Y-63847963D01*
X126666782Y-63858862D01*
X126647851Y-63873719D01*
X126626186Y-63901325D01*
X126624330Y-63902070D01*
X126622757Y-63900835D01*
X126622881Y-63899090D01*
X126901097Y-63417206D01*
X126902829Y-63416206D01*
X126904561Y-63417206D01*
X126904651Y-63419031D01*
X126894619Y-63441171D01*
X126889144Y-63464653D01*
X126888355Y-63488751D01*
X126892281Y-63512535D01*
X126900777Y-63535107D01*
X126913506Y-63555576D01*
X126929987Y-63573173D01*
X126949587Y-63587218D01*
X126971546Y-63597168D01*
X126995028Y-63602643D01*
X127019167Y-63603433D01*
X127032493Y-63601827D01*
X128130293Y-63408255D01*
X128132172Y-63408939D01*
G37*
G36*
X162985990Y-63109335D02*
G01*
X162992224Y-63172632D01*
X163010632Y-63233314D01*
X163040522Y-63289236D01*
X163080749Y-63338251D01*
X163129764Y-63378478D01*
X163185686Y-63408368D01*
X163246368Y-63426776D01*
X163309665Y-63433010D01*
X163311291Y-63434175D01*
X163311095Y-63436165D01*
X163309469Y-63437000D01*
X163237779Y-63437000D01*
X163237583Y-63436990D01*
X163183251Y-63431639D01*
X163182866Y-63431563D01*
X163136520Y-63417504D01*
X163136158Y-63417354D01*
X163093452Y-63394527D01*
X163093126Y-63394309D01*
X163055690Y-63363587D01*
X163055413Y-63363310D01*
X163024691Y-63325874D01*
X163024473Y-63325548D01*
X163001646Y-63282842D01*
X163001496Y-63282480D01*
X162987437Y-63236134D01*
X162987361Y-63235749D01*
X162982010Y-63181417D01*
X162982000Y-63181221D01*
X162982000Y-63109531D01*
X162983000Y-63107799D01*
X162985000Y-63107799D01*
X162985990Y-63109335D01*
G37*
G36*
X165185165Y-63107905D02*
G01*
X165186000Y-63109531D01*
X165186000Y-63181221D01*
X165185990Y-63181417D01*
X165180639Y-63235749D01*
X165180563Y-63236134D01*
X165166504Y-63282480D01*
X165166354Y-63282842D01*
X165143527Y-63325548D01*
X165143309Y-63325874D01*
X165112587Y-63363310D01*
X165112310Y-63363587D01*
X165074874Y-63394309D01*
X165074548Y-63394527D01*
X165031842Y-63417354D01*
X165031480Y-63417504D01*
X164985134Y-63431563D01*
X164984749Y-63431639D01*
X164930417Y-63436990D01*
X164930221Y-63437000D01*
X164858531Y-63437000D01*
X164856799Y-63436000D01*
X164856799Y-63434000D01*
X164858335Y-63433010D01*
X164921632Y-63426776D01*
X164982314Y-63408368D01*
X165038236Y-63378478D01*
X165087251Y-63338251D01*
X165127478Y-63289236D01*
X165157368Y-63233314D01*
X165175776Y-63172632D01*
X165182010Y-63109335D01*
X165183175Y-63107709D01*
X165185165Y-63107905D01*
G37*
G36*
X169630165Y-62777705D02*
G01*
X169631000Y-62779331D01*
X169631000Y-62851021D01*
X169630990Y-62851217D01*
X169625639Y-62905549D01*
X169625563Y-62905934D01*
X169611504Y-62952280D01*
X169611354Y-62952642D01*
X169588527Y-62995348D01*
X169588309Y-62995674D01*
X169557587Y-63033110D01*
X169557310Y-63033387D01*
X169519874Y-63064109D01*
X169519548Y-63064327D01*
X169476842Y-63087154D01*
X169476480Y-63087304D01*
X169430134Y-63101363D01*
X169429749Y-63101439D01*
X169375417Y-63106790D01*
X169375221Y-63106800D01*
X169303531Y-63106800D01*
X169301799Y-63105800D01*
X169301799Y-63103800D01*
X169303335Y-63102810D01*
X169366632Y-63096576D01*
X169427314Y-63078168D01*
X169483236Y-63048278D01*
X169532251Y-63008051D01*
X169572478Y-62959036D01*
X169602368Y-62903114D01*
X169620776Y-62842432D01*
X169627010Y-62779135D01*
X169628175Y-62777509D01*
X169630165Y-62777705D01*
G37*
G36*
X167430990Y-62779135D02*
G01*
X167437224Y-62842432D01*
X167455632Y-62903114D01*
X167485522Y-62959036D01*
X167525749Y-63008051D01*
X167574764Y-63048278D01*
X167630686Y-63078168D01*
X167691368Y-63096576D01*
X167754665Y-63102810D01*
X167756291Y-63103975D01*
X167756095Y-63105965D01*
X167754469Y-63106800D01*
X167682779Y-63106800D01*
X167682583Y-63106790D01*
X167628251Y-63101439D01*
X167627866Y-63101363D01*
X167581520Y-63087304D01*
X167581158Y-63087154D01*
X167538452Y-63064327D01*
X167538126Y-63064109D01*
X167500690Y-63033387D01*
X167500413Y-63033110D01*
X167469691Y-62995674D01*
X167469473Y-62995348D01*
X167446646Y-62952642D01*
X167446496Y-62952280D01*
X167432437Y-62905934D01*
X167432361Y-62905549D01*
X167427010Y-62851217D01*
X167427000Y-62851021D01*
X167427000Y-62779331D01*
X167428000Y-62777599D01*
X167430000Y-62777599D01*
X167430990Y-62779135D01*
G37*
G36*
X163311201Y-61709000D02*
G01*
X163311201Y-61711000D01*
X163309665Y-61711990D01*
X163246368Y-61718224D01*
X163185686Y-61736632D01*
X163129764Y-61766522D01*
X163080749Y-61806749D01*
X163040522Y-61855764D01*
X163010632Y-61911686D01*
X162992224Y-61972368D01*
X162985990Y-62035665D01*
X162984825Y-62037291D01*
X162982835Y-62037095D01*
X162982000Y-62035469D01*
X162982000Y-61963779D01*
X162982010Y-61963583D01*
X162987361Y-61909251D01*
X162987437Y-61908866D01*
X163001496Y-61862520D01*
X163001646Y-61862158D01*
X163024473Y-61819452D01*
X163024691Y-61819126D01*
X163055413Y-61781690D01*
X163055690Y-61781413D01*
X163093126Y-61750691D01*
X163093452Y-61750473D01*
X163136158Y-61727646D01*
X163136520Y-61727496D01*
X163182866Y-61713437D01*
X163183251Y-61713361D01*
X163237583Y-61708010D01*
X163237779Y-61708000D01*
X163309469Y-61708000D01*
X163311201Y-61709000D01*
G37*
G36*
X164930417Y-61708010D02*
G01*
X164984749Y-61713361D01*
X164985134Y-61713437D01*
X165031480Y-61727496D01*
X165031842Y-61727646D01*
X165074548Y-61750473D01*
X165074874Y-61750691D01*
X165112310Y-61781413D01*
X165112587Y-61781690D01*
X165143309Y-61819126D01*
X165143527Y-61819452D01*
X165166354Y-61862158D01*
X165166504Y-61862520D01*
X165180563Y-61908866D01*
X165180639Y-61909251D01*
X165185990Y-61963583D01*
X165186000Y-61963779D01*
X165186000Y-62035469D01*
X165185000Y-62037201D01*
X165183000Y-62037201D01*
X165182010Y-62035665D01*
X165175776Y-61972368D01*
X165157368Y-61911686D01*
X165127478Y-61855764D01*
X165087251Y-61806749D01*
X165038236Y-61766522D01*
X164982314Y-61736632D01*
X164921632Y-61718224D01*
X164858335Y-61711990D01*
X164856709Y-61710825D01*
X164856905Y-61708835D01*
X164858531Y-61708000D01*
X164930221Y-61708000D01*
X164930417Y-61708010D01*
G37*
G36*
X167756201Y-61378800D02*
G01*
X167756201Y-61380800D01*
X167754665Y-61381790D01*
X167691368Y-61388024D01*
X167630686Y-61406432D01*
X167574764Y-61436322D01*
X167525749Y-61476549D01*
X167485522Y-61525564D01*
X167455632Y-61581486D01*
X167437224Y-61642168D01*
X167430990Y-61705465D01*
X167429825Y-61707091D01*
X167427835Y-61706895D01*
X167427000Y-61705269D01*
X167427000Y-61633579D01*
X167427010Y-61633383D01*
X167432361Y-61579051D01*
X167432437Y-61578666D01*
X167446496Y-61532320D01*
X167446646Y-61531958D01*
X167469473Y-61489252D01*
X167469691Y-61488926D01*
X167500413Y-61451490D01*
X167500690Y-61451213D01*
X167538126Y-61420491D01*
X167538452Y-61420273D01*
X167581158Y-61397446D01*
X167581520Y-61397296D01*
X167627866Y-61383237D01*
X167628251Y-61383161D01*
X167682583Y-61377810D01*
X167682779Y-61377800D01*
X167754469Y-61377800D01*
X167756201Y-61378800D01*
G37*
G36*
X169375417Y-61377810D02*
G01*
X169429749Y-61383161D01*
X169430134Y-61383237D01*
X169476480Y-61397296D01*
X169476842Y-61397446D01*
X169519548Y-61420273D01*
X169519874Y-61420491D01*
X169557310Y-61451213D01*
X169557587Y-61451490D01*
X169588309Y-61488926D01*
X169588527Y-61489252D01*
X169611354Y-61531958D01*
X169611504Y-61532320D01*
X169625563Y-61578666D01*
X169625639Y-61579051D01*
X169630990Y-61633383D01*
X169631000Y-61633579D01*
X169631000Y-61705269D01*
X169630000Y-61707001D01*
X169628000Y-61707001D01*
X169627010Y-61705465D01*
X169620776Y-61642168D01*
X169602368Y-61581486D01*
X169572478Y-61525564D01*
X169532251Y-61476549D01*
X169483236Y-61436322D01*
X169427314Y-61406432D01*
X169366632Y-61388024D01*
X169303335Y-61381790D01*
X169301709Y-61380625D01*
X169301905Y-61378635D01*
X169303531Y-61377800D01*
X169375221Y-61377800D01*
X169375417Y-61377810D01*
G37*
G36*
X132802853Y-61089215D02*
G01*
X132830740Y-61156540D01*
X132923095Y-61294760D01*
X133040640Y-61412305D01*
X133178860Y-61504660D01*
X133246184Y-61532547D01*
X133247402Y-61534134D01*
X133246637Y-61535982D01*
X133244838Y-61536309D01*
X133227454Y-61531035D01*
X133203462Y-61528672D01*
X133179471Y-61531035D01*
X133156396Y-61538035D01*
X133135133Y-61549400D01*
X133116496Y-61564695D01*
X133101200Y-61583332D01*
X133089835Y-61604596D01*
X133082835Y-61627670D01*
X133080472Y-61651662D01*
X133082835Y-61675653D01*
X133088109Y-61693039D01*
X133087655Y-61694987D01*
X133085741Y-61695568D01*
X133084347Y-61694385D01*
X133056460Y-61627060D01*
X132964105Y-61488840D01*
X132846560Y-61371295D01*
X132708340Y-61278940D01*
X132641016Y-61251053D01*
X132639798Y-61249466D01*
X132640563Y-61247618D01*
X132642362Y-61247291D01*
X132659746Y-61252565D01*
X132683738Y-61254928D01*
X132707729Y-61252565D01*
X132730804Y-61245565D01*
X132752067Y-61234200D01*
X132770704Y-61218905D01*
X132786000Y-61200268D01*
X132797365Y-61179004D01*
X132804365Y-61155930D01*
X132806728Y-61131938D01*
X132804365Y-61107947D01*
X132799091Y-61090561D01*
X132799545Y-61088613D01*
X132801459Y-61088032D01*
X132802853Y-61089215D01*
G37*
G36*
X121226953Y-57245610D02*
G01*
X121284926Y-57251320D01*
X121285311Y-57251396D01*
X121335160Y-57266517D01*
X121335522Y-57266667D01*
X121381450Y-57291216D01*
X121381776Y-57291434D01*
X121422042Y-57324481D01*
X121422319Y-57324758D01*
X121455366Y-57365024D01*
X121455584Y-57365350D01*
X121480133Y-57411278D01*
X121480283Y-57411640D01*
X121497469Y-57468297D01*
X121506733Y-57490661D01*
X121520128Y-57510709D01*
X121537175Y-57527756D01*
X121557222Y-57541151D01*
X121579496Y-57550377D01*
X121603146Y-57555082D01*
X121627252Y-57555082D01*
X121650903Y-57550378D01*
X121673176Y-57541152D01*
X121693224Y-57527757D01*
X121710271Y-57510710D01*
X121723666Y-57490663D01*
X121732931Y-57468297D01*
X121750117Y-57411640D01*
X121750267Y-57411278D01*
X121774816Y-57365350D01*
X121775034Y-57365024D01*
X121808081Y-57324758D01*
X121808358Y-57324481D01*
X121848624Y-57291434D01*
X121848950Y-57291216D01*
X121894878Y-57266667D01*
X121895240Y-57266517D01*
X121945089Y-57251396D01*
X121945474Y-57251320D01*
X122003447Y-57245610D01*
X122003643Y-57245600D01*
X122068155Y-57245600D01*
X122069887Y-57246600D01*
X122069887Y-57248600D01*
X122068351Y-57249590D01*
X122002813Y-57256044D01*
X121939977Y-57275106D01*
X121882069Y-57306058D01*
X121831313Y-57347713D01*
X121789658Y-57398469D01*
X121758706Y-57456377D01*
X121739644Y-57519213D01*
X121733200Y-57584649D01*
X121733200Y-58460551D01*
X121739644Y-58525987D01*
X121758706Y-58588823D01*
X121789658Y-58646731D01*
X121831313Y-58697487D01*
X121882069Y-58739142D01*
X121939977Y-58770094D01*
X122002813Y-58789156D01*
X122068351Y-58795610D01*
X122069977Y-58796775D01*
X122069781Y-58798765D01*
X122068155Y-58799600D01*
X122003643Y-58799600D01*
X122003447Y-58799590D01*
X121945474Y-58793880D01*
X121945089Y-58793804D01*
X121895240Y-58778683D01*
X121894878Y-58778533D01*
X121848950Y-58753984D01*
X121848624Y-58753766D01*
X121808358Y-58720719D01*
X121808081Y-58720442D01*
X121775034Y-58680176D01*
X121774816Y-58679850D01*
X121750267Y-58633922D01*
X121750117Y-58633560D01*
X121732931Y-58576903D01*
X121723667Y-58554539D01*
X121710272Y-58534491D01*
X121693225Y-58517444D01*
X121673178Y-58504049D01*
X121650904Y-58494823D01*
X121627254Y-58490118D01*
X121603148Y-58490118D01*
X121579497Y-58494822D01*
X121557224Y-58504048D01*
X121537176Y-58517443D01*
X121520129Y-58534490D01*
X121506734Y-58554537D01*
X121497469Y-58576903D01*
X121480283Y-58633560D01*
X121480133Y-58633922D01*
X121455584Y-58679850D01*
X121455366Y-58680176D01*
X121422319Y-58720442D01*
X121422042Y-58720719D01*
X121381776Y-58753766D01*
X121381450Y-58753984D01*
X121335522Y-58778533D01*
X121335160Y-58778683D01*
X121285311Y-58793804D01*
X121284926Y-58793880D01*
X121226953Y-58799590D01*
X121226757Y-58799600D01*
X121162245Y-58799600D01*
X121160513Y-58798600D01*
X121160513Y-58796600D01*
X121162049Y-58795610D01*
X121227587Y-58789156D01*
X121290423Y-58770094D01*
X121348331Y-58739142D01*
X121399087Y-58697487D01*
X121440742Y-58646731D01*
X121471694Y-58588823D01*
X121490756Y-58525987D01*
X121497200Y-58460551D01*
X121497200Y-57584649D01*
X121490756Y-57519213D01*
X121471694Y-57456377D01*
X121440742Y-57398469D01*
X121399087Y-57347713D01*
X121348331Y-57306058D01*
X121290423Y-57275106D01*
X121227587Y-57256044D01*
X121162049Y-57249590D01*
X121160423Y-57248425D01*
X121160619Y-57246435D01*
X121162245Y-57245600D01*
X121226757Y-57245600D01*
X121226953Y-57245610D01*
G37*
G36*
X125564365Y-58459019D02*
G01*
X125565200Y-58460645D01*
X125565200Y-58525157D01*
X125565190Y-58525353D01*
X125559480Y-58583326D01*
X125559404Y-58583711D01*
X125544283Y-58633560D01*
X125544133Y-58633922D01*
X125519584Y-58679850D01*
X125519366Y-58680176D01*
X125486319Y-58720442D01*
X125486042Y-58720719D01*
X125445776Y-58753766D01*
X125445450Y-58753984D01*
X125399522Y-58778533D01*
X125399160Y-58778683D01*
X125349311Y-58793804D01*
X125348926Y-58793880D01*
X125290953Y-58799590D01*
X125290757Y-58799600D01*
X125226245Y-58799600D01*
X125224513Y-58798600D01*
X125224513Y-58796600D01*
X125226049Y-58795610D01*
X125291587Y-58789156D01*
X125354423Y-58770094D01*
X125412331Y-58739142D01*
X125463087Y-58697487D01*
X125504742Y-58646731D01*
X125535694Y-58588823D01*
X125554756Y-58525987D01*
X125561210Y-58460449D01*
X125562375Y-58458823D01*
X125564365Y-58459019D01*
G37*
G36*
X119701190Y-58460449D02*
G01*
X119707644Y-58525987D01*
X119726706Y-58588823D01*
X119757658Y-58646731D01*
X119799313Y-58697487D01*
X119850069Y-58739142D01*
X119907977Y-58770094D01*
X119970813Y-58789156D01*
X120036351Y-58795610D01*
X120037977Y-58796775D01*
X120037781Y-58798765D01*
X120036155Y-58799600D01*
X119971643Y-58799600D01*
X119971447Y-58799590D01*
X119913474Y-58793880D01*
X119913089Y-58793804D01*
X119863240Y-58778683D01*
X119862878Y-58778533D01*
X119816950Y-58753984D01*
X119816624Y-58753766D01*
X119776358Y-58720719D01*
X119776081Y-58720442D01*
X119743034Y-58680176D01*
X119742816Y-58679850D01*
X119718267Y-58633922D01*
X119718117Y-58633560D01*
X119702996Y-58583711D01*
X119702920Y-58583326D01*
X119697210Y-58525353D01*
X119697200Y-58525157D01*
X119697200Y-58460645D01*
X119698200Y-58458913D01*
X119700200Y-58458913D01*
X119701190Y-58460449D01*
G37*
G36*
X123258953Y-57245610D02*
G01*
X123316926Y-57251320D01*
X123317311Y-57251396D01*
X123367160Y-57266517D01*
X123367522Y-57266667D01*
X123413450Y-57291216D01*
X123413776Y-57291434D01*
X123454042Y-57324481D01*
X123454319Y-57324758D01*
X123487366Y-57365024D01*
X123487584Y-57365350D01*
X123512133Y-57411278D01*
X123512283Y-57411640D01*
X123529469Y-57468297D01*
X123538733Y-57490661D01*
X123552128Y-57510709D01*
X123569175Y-57527756D01*
X123589222Y-57541151D01*
X123611496Y-57550377D01*
X123635146Y-57555082D01*
X123659252Y-57555082D01*
X123682903Y-57550378D01*
X123705176Y-57541152D01*
X123725224Y-57527757D01*
X123742271Y-57510710D01*
X123755666Y-57490663D01*
X123764931Y-57468297D01*
X123782117Y-57411640D01*
X123782267Y-57411278D01*
X123806816Y-57365350D01*
X123807034Y-57365024D01*
X123840081Y-57324758D01*
X123840358Y-57324481D01*
X123880624Y-57291434D01*
X123880950Y-57291216D01*
X123926878Y-57266667D01*
X123927240Y-57266517D01*
X123977089Y-57251396D01*
X123977474Y-57251320D01*
X124035447Y-57245610D01*
X124035643Y-57245600D01*
X124100155Y-57245600D01*
X124101887Y-57246600D01*
X124101887Y-57248600D01*
X124100351Y-57249590D01*
X124034813Y-57256044D01*
X123971977Y-57275106D01*
X123914069Y-57306058D01*
X123863313Y-57347713D01*
X123821658Y-57398469D01*
X123790706Y-57456377D01*
X123771644Y-57519213D01*
X123765200Y-57584649D01*
X123765200Y-58460551D01*
X123771644Y-58525987D01*
X123790706Y-58588823D01*
X123821658Y-58646731D01*
X123863313Y-58697487D01*
X123914069Y-58739142D01*
X123971977Y-58770094D01*
X124034813Y-58789156D01*
X124100351Y-58795610D01*
X124101977Y-58796775D01*
X124101781Y-58798765D01*
X124100155Y-58799600D01*
X124035643Y-58799600D01*
X124035447Y-58799590D01*
X123977474Y-58793880D01*
X123977089Y-58793804D01*
X123927240Y-58778683D01*
X123926878Y-58778533D01*
X123880950Y-58753984D01*
X123880624Y-58753766D01*
X123840358Y-58720719D01*
X123840081Y-58720442D01*
X123807034Y-58680176D01*
X123806816Y-58679850D01*
X123782267Y-58633922D01*
X123782117Y-58633560D01*
X123764931Y-58576903D01*
X123755667Y-58554539D01*
X123742272Y-58534491D01*
X123725225Y-58517444D01*
X123705178Y-58504049D01*
X123682904Y-58494823D01*
X123659254Y-58490118D01*
X123635148Y-58490118D01*
X123611497Y-58494822D01*
X123589224Y-58504048D01*
X123569176Y-58517443D01*
X123552129Y-58534490D01*
X123538734Y-58554537D01*
X123529469Y-58576903D01*
X123512283Y-58633560D01*
X123512133Y-58633922D01*
X123487584Y-58679850D01*
X123487366Y-58680176D01*
X123454319Y-58720442D01*
X123454042Y-58720719D01*
X123413776Y-58753766D01*
X123413450Y-58753984D01*
X123367522Y-58778533D01*
X123367160Y-58778683D01*
X123317311Y-58793804D01*
X123316926Y-58793880D01*
X123258953Y-58799590D01*
X123258757Y-58799600D01*
X123194245Y-58799600D01*
X123192513Y-58798600D01*
X123192513Y-58796600D01*
X123194049Y-58795610D01*
X123259587Y-58789156D01*
X123322423Y-58770094D01*
X123380331Y-58739142D01*
X123431087Y-58697487D01*
X123472742Y-58646731D01*
X123503694Y-58588823D01*
X123522756Y-58525987D01*
X123529200Y-58460551D01*
X123529200Y-57584649D01*
X123522756Y-57519213D01*
X123503694Y-57456377D01*
X123472742Y-57398469D01*
X123431087Y-57347713D01*
X123380331Y-57306058D01*
X123322423Y-57275106D01*
X123259587Y-57256044D01*
X123194049Y-57249590D01*
X123192423Y-57248425D01*
X123192619Y-57246435D01*
X123194245Y-57245600D01*
X123258757Y-57245600D01*
X123258953Y-57245610D01*
G37*
G36*
X120037887Y-57246600D02*
G01*
X120037887Y-57248600D01*
X120036351Y-57249590D01*
X119970813Y-57256044D01*
X119907977Y-57275106D01*
X119850069Y-57306058D01*
X119799313Y-57347713D01*
X119757658Y-57398469D01*
X119726706Y-57456377D01*
X119707644Y-57519213D01*
X119701190Y-57584751D01*
X119700025Y-57586377D01*
X119698035Y-57586181D01*
X119697200Y-57584555D01*
X119697200Y-57520043D01*
X119697210Y-57519847D01*
X119702920Y-57461874D01*
X119702996Y-57461489D01*
X119718117Y-57411640D01*
X119718267Y-57411278D01*
X119742816Y-57365350D01*
X119743034Y-57365024D01*
X119776081Y-57324758D01*
X119776358Y-57324481D01*
X119816624Y-57291434D01*
X119816950Y-57291216D01*
X119862878Y-57266667D01*
X119863240Y-57266517D01*
X119913089Y-57251396D01*
X119913474Y-57251320D01*
X119971447Y-57245610D01*
X119971643Y-57245600D01*
X120036155Y-57245600D01*
X120037887Y-57246600D01*
G37*
G36*
X125290953Y-57245610D02*
G01*
X125348926Y-57251320D01*
X125349311Y-57251396D01*
X125399160Y-57266517D01*
X125399522Y-57266667D01*
X125445450Y-57291216D01*
X125445776Y-57291434D01*
X125486042Y-57324481D01*
X125486319Y-57324758D01*
X125519366Y-57365024D01*
X125519584Y-57365350D01*
X125544133Y-57411278D01*
X125544283Y-57411640D01*
X125559404Y-57461489D01*
X125559480Y-57461874D01*
X125565190Y-57519847D01*
X125565200Y-57520043D01*
X125565200Y-57584555D01*
X125564200Y-57586287D01*
X125562200Y-57586287D01*
X125561210Y-57584751D01*
X125554756Y-57519213D01*
X125535694Y-57456377D01*
X125504742Y-57398469D01*
X125463087Y-57347713D01*
X125412331Y-57306058D01*
X125354423Y-57275106D01*
X125291587Y-57256044D01*
X125226049Y-57249590D01*
X125224423Y-57248425D01*
X125224619Y-57246435D01*
X125226245Y-57245600D01*
X125290757Y-57245600D01*
X125290953Y-57245610D01*
G37*
G36*
X123258953Y-55195610D02*
G01*
X123316926Y-55201320D01*
X123317311Y-55201396D01*
X123367160Y-55216517D01*
X123367522Y-55216667D01*
X123413450Y-55241216D01*
X123413776Y-55241434D01*
X123454042Y-55274481D01*
X123454319Y-55274758D01*
X123487366Y-55315024D01*
X123487584Y-55315350D01*
X123512133Y-55361278D01*
X123512283Y-55361640D01*
X123529469Y-55418297D01*
X123538733Y-55440661D01*
X123552128Y-55460709D01*
X123569175Y-55477756D01*
X123589222Y-55491151D01*
X123611496Y-55500377D01*
X123635146Y-55505082D01*
X123659252Y-55505082D01*
X123682903Y-55500378D01*
X123705176Y-55491152D01*
X123725224Y-55477757D01*
X123742271Y-55460710D01*
X123755666Y-55440663D01*
X123764931Y-55418297D01*
X123782117Y-55361640D01*
X123782267Y-55361278D01*
X123806816Y-55315350D01*
X123807034Y-55315024D01*
X123840081Y-55274758D01*
X123840358Y-55274481D01*
X123880624Y-55241434D01*
X123880950Y-55241216D01*
X123926878Y-55216667D01*
X123927240Y-55216517D01*
X123977089Y-55201396D01*
X123977474Y-55201320D01*
X124035447Y-55195610D01*
X124035643Y-55195600D01*
X124100155Y-55195600D01*
X124101887Y-55196600D01*
X124101887Y-55198600D01*
X124100351Y-55199590D01*
X124034813Y-55206044D01*
X123971977Y-55225106D01*
X123914069Y-55256058D01*
X123863313Y-55297713D01*
X123821658Y-55348469D01*
X123790706Y-55406377D01*
X123771644Y-55469213D01*
X123765200Y-55534649D01*
X123765200Y-56410551D01*
X123771644Y-56475987D01*
X123790706Y-56538823D01*
X123821658Y-56596731D01*
X123863313Y-56647487D01*
X123914069Y-56689142D01*
X123971977Y-56720094D01*
X124034813Y-56739156D01*
X124100351Y-56745610D01*
X124101977Y-56746775D01*
X124101781Y-56748765D01*
X124100155Y-56749600D01*
X124035643Y-56749600D01*
X124035447Y-56749590D01*
X123977474Y-56743880D01*
X123977089Y-56743804D01*
X123927240Y-56728683D01*
X123926878Y-56728533D01*
X123880950Y-56703984D01*
X123880624Y-56703766D01*
X123840358Y-56670719D01*
X123840081Y-56670442D01*
X123807034Y-56630176D01*
X123806816Y-56629850D01*
X123782267Y-56583922D01*
X123782117Y-56583560D01*
X123764931Y-56526903D01*
X123755667Y-56504539D01*
X123742272Y-56484491D01*
X123725225Y-56467444D01*
X123705178Y-56454049D01*
X123682904Y-56444823D01*
X123659254Y-56440118D01*
X123635148Y-56440118D01*
X123611497Y-56444822D01*
X123589224Y-56454048D01*
X123569176Y-56467443D01*
X123552129Y-56484490D01*
X123538734Y-56504537D01*
X123529469Y-56526903D01*
X123512283Y-56583560D01*
X123512133Y-56583922D01*
X123487584Y-56629850D01*
X123487366Y-56630176D01*
X123454319Y-56670442D01*
X123454042Y-56670719D01*
X123413776Y-56703766D01*
X123413450Y-56703984D01*
X123367522Y-56728533D01*
X123367160Y-56728683D01*
X123317311Y-56743804D01*
X123316926Y-56743880D01*
X123258953Y-56749590D01*
X123258757Y-56749600D01*
X123194245Y-56749600D01*
X123192513Y-56748600D01*
X123192513Y-56746600D01*
X123194049Y-56745610D01*
X123259587Y-56739156D01*
X123322423Y-56720094D01*
X123380331Y-56689142D01*
X123431087Y-56647487D01*
X123472742Y-56596731D01*
X123503694Y-56538823D01*
X123522756Y-56475987D01*
X123529200Y-56410551D01*
X123529200Y-55534649D01*
X123522756Y-55469213D01*
X123503694Y-55406377D01*
X123472742Y-55348469D01*
X123431087Y-55297713D01*
X123380331Y-55256058D01*
X123322423Y-55225106D01*
X123259587Y-55206044D01*
X123194049Y-55199590D01*
X123192423Y-55198425D01*
X123192619Y-55196435D01*
X123194245Y-55195600D01*
X123258757Y-55195600D01*
X123258953Y-55195610D01*
G37*
G36*
X121226953Y-55195610D02*
G01*
X121284926Y-55201320D01*
X121285311Y-55201396D01*
X121335160Y-55216517D01*
X121335522Y-55216667D01*
X121381450Y-55241216D01*
X121381776Y-55241434D01*
X121422042Y-55274481D01*
X121422319Y-55274758D01*
X121455366Y-55315024D01*
X121455584Y-55315350D01*
X121480133Y-55361278D01*
X121480283Y-55361640D01*
X121497469Y-55418297D01*
X121506733Y-55440661D01*
X121520128Y-55460709D01*
X121537175Y-55477756D01*
X121557222Y-55491151D01*
X121579496Y-55500377D01*
X121603146Y-55505082D01*
X121627252Y-55505082D01*
X121650903Y-55500378D01*
X121673176Y-55491152D01*
X121693224Y-55477757D01*
X121710271Y-55460710D01*
X121723666Y-55440663D01*
X121732931Y-55418297D01*
X121750117Y-55361640D01*
X121750267Y-55361278D01*
X121774816Y-55315350D01*
X121775034Y-55315024D01*
X121808081Y-55274758D01*
X121808358Y-55274481D01*
X121848624Y-55241434D01*
X121848950Y-55241216D01*
X121894878Y-55216667D01*
X121895240Y-55216517D01*
X121945089Y-55201396D01*
X121945474Y-55201320D01*
X122003447Y-55195610D01*
X122003643Y-55195600D01*
X122068155Y-55195600D01*
X122069887Y-55196600D01*
X122069887Y-55198600D01*
X122068351Y-55199590D01*
X122002813Y-55206044D01*
X121939977Y-55225106D01*
X121882069Y-55256058D01*
X121831313Y-55297713D01*
X121789658Y-55348469D01*
X121758706Y-55406377D01*
X121739644Y-55469213D01*
X121733200Y-55534649D01*
X121733200Y-56410551D01*
X121739644Y-56475987D01*
X121758706Y-56538823D01*
X121789658Y-56596731D01*
X121831313Y-56647487D01*
X121882069Y-56689142D01*
X121939977Y-56720094D01*
X122002813Y-56739156D01*
X122068351Y-56745610D01*
X122069977Y-56746775D01*
X122069781Y-56748765D01*
X122068155Y-56749600D01*
X122003643Y-56749600D01*
X122003447Y-56749590D01*
X121945474Y-56743880D01*
X121945089Y-56743804D01*
X121895240Y-56728683D01*
X121894878Y-56728533D01*
X121848950Y-56703984D01*
X121848624Y-56703766D01*
X121808358Y-56670719D01*
X121808081Y-56670442D01*
X121775034Y-56630176D01*
X121774816Y-56629850D01*
X121750267Y-56583922D01*
X121750117Y-56583560D01*
X121732931Y-56526903D01*
X121723667Y-56504539D01*
X121710272Y-56484491D01*
X121693225Y-56467444D01*
X121673178Y-56454049D01*
X121650904Y-56444823D01*
X121627254Y-56440118D01*
X121603148Y-56440118D01*
X121579497Y-56444822D01*
X121557224Y-56454048D01*
X121537176Y-56467443D01*
X121520129Y-56484490D01*
X121506734Y-56504537D01*
X121497469Y-56526903D01*
X121480283Y-56583560D01*
X121480133Y-56583922D01*
X121455584Y-56629850D01*
X121455366Y-56630176D01*
X121422319Y-56670442D01*
X121422042Y-56670719D01*
X121381776Y-56703766D01*
X121381450Y-56703984D01*
X121335522Y-56728533D01*
X121335160Y-56728683D01*
X121285311Y-56743804D01*
X121284926Y-56743880D01*
X121226953Y-56749590D01*
X121226757Y-56749600D01*
X121162245Y-56749600D01*
X121160513Y-56748600D01*
X121160513Y-56746600D01*
X121162049Y-56745610D01*
X121227587Y-56739156D01*
X121290423Y-56720094D01*
X121348331Y-56689142D01*
X121399087Y-56647487D01*
X121440742Y-56596731D01*
X121471694Y-56538823D01*
X121490756Y-56475987D01*
X121497200Y-56410551D01*
X121497200Y-55534649D01*
X121490756Y-55469213D01*
X121471694Y-55406377D01*
X121440742Y-55348469D01*
X121399087Y-55297713D01*
X121348331Y-55256058D01*
X121290423Y-55225106D01*
X121227587Y-55206044D01*
X121162049Y-55199590D01*
X121160423Y-55198425D01*
X121160619Y-55196435D01*
X121162245Y-55195600D01*
X121226757Y-55195600D01*
X121226953Y-55195610D01*
G37*
G36*
X119701190Y-56410449D02*
G01*
X119707644Y-56475987D01*
X119726706Y-56538823D01*
X119757658Y-56596731D01*
X119799313Y-56647487D01*
X119850069Y-56689142D01*
X119907977Y-56720094D01*
X119970813Y-56739156D01*
X120036351Y-56745610D01*
X120037977Y-56746775D01*
X120037781Y-56748765D01*
X120036155Y-56749600D01*
X119971643Y-56749600D01*
X119971447Y-56749590D01*
X119913474Y-56743880D01*
X119913089Y-56743804D01*
X119863240Y-56728683D01*
X119862878Y-56728533D01*
X119816950Y-56703984D01*
X119816624Y-56703766D01*
X119776358Y-56670719D01*
X119776081Y-56670442D01*
X119743034Y-56630176D01*
X119742816Y-56629850D01*
X119718267Y-56583922D01*
X119718117Y-56583560D01*
X119702996Y-56533711D01*
X119702920Y-56533326D01*
X119697210Y-56475353D01*
X119697200Y-56475157D01*
X119697200Y-56410645D01*
X119698200Y-56408913D01*
X119700200Y-56408913D01*
X119701190Y-56410449D01*
G37*
G36*
X125564365Y-56409019D02*
G01*
X125565200Y-56410645D01*
X125565200Y-56475157D01*
X125565190Y-56475353D01*
X125559480Y-56533326D01*
X125559404Y-56533711D01*
X125544283Y-56583560D01*
X125544133Y-56583922D01*
X125519584Y-56629850D01*
X125519366Y-56630176D01*
X125486319Y-56670442D01*
X125486042Y-56670719D01*
X125445776Y-56703766D01*
X125445450Y-56703984D01*
X125399522Y-56728533D01*
X125399160Y-56728683D01*
X125349311Y-56743804D01*
X125348926Y-56743880D01*
X125290953Y-56749590D01*
X125290757Y-56749600D01*
X125226245Y-56749600D01*
X125224513Y-56748600D01*
X125224513Y-56746600D01*
X125226049Y-56745610D01*
X125291587Y-56739156D01*
X125354423Y-56720094D01*
X125412331Y-56689142D01*
X125463087Y-56647487D01*
X125504742Y-56596731D01*
X125535694Y-56538823D01*
X125554756Y-56475987D01*
X125561210Y-56410449D01*
X125562375Y-56408823D01*
X125564365Y-56409019D01*
G37*
G36*
X120037887Y-55196600D02*
G01*
X120037887Y-55198600D01*
X120036351Y-55199590D01*
X119970813Y-55206044D01*
X119907977Y-55225106D01*
X119850069Y-55256058D01*
X119799313Y-55297713D01*
X119757658Y-55348469D01*
X119726706Y-55406377D01*
X119707644Y-55469213D01*
X119701190Y-55534751D01*
X119700025Y-55536377D01*
X119698035Y-55536181D01*
X119697200Y-55534555D01*
X119697200Y-55470043D01*
X119697210Y-55469847D01*
X119702920Y-55411874D01*
X119702996Y-55411489D01*
X119718117Y-55361640D01*
X119718267Y-55361278D01*
X119742816Y-55315350D01*
X119743034Y-55315024D01*
X119776081Y-55274758D01*
X119776358Y-55274481D01*
X119816624Y-55241434D01*
X119816950Y-55241216D01*
X119862878Y-55216667D01*
X119863240Y-55216517D01*
X119913089Y-55201396D01*
X119913474Y-55201320D01*
X119971447Y-55195610D01*
X119971643Y-55195600D01*
X120036155Y-55195600D01*
X120037887Y-55196600D01*
G37*
G36*
X125290953Y-55195610D02*
G01*
X125348926Y-55201320D01*
X125349311Y-55201396D01*
X125399160Y-55216517D01*
X125399522Y-55216667D01*
X125445450Y-55241216D01*
X125445776Y-55241434D01*
X125486042Y-55274481D01*
X125486319Y-55274758D01*
X125519366Y-55315024D01*
X125519584Y-55315350D01*
X125544133Y-55361278D01*
X125544283Y-55361640D01*
X125559404Y-55411489D01*
X125559480Y-55411874D01*
X125565190Y-55469847D01*
X125565200Y-55470043D01*
X125565200Y-55534555D01*
X125564200Y-55536287D01*
X125562200Y-55536287D01*
X125561210Y-55534751D01*
X125554756Y-55469213D01*
X125535694Y-55406377D01*
X125504742Y-55348469D01*
X125463087Y-55297713D01*
X125412331Y-55256058D01*
X125354423Y-55225106D01*
X125291587Y-55206044D01*
X125226049Y-55199590D01*
X125224423Y-55198425D01*
X125224619Y-55196435D01*
X125226245Y-55195600D01*
X125290757Y-55195600D01*
X125290953Y-55195610D01*
G37*
M02*
