G04 #@! TF.GenerationSoftware,KiCad,Pcbnew,(5.1.12-1-10_14)*
G04 #@! TF.CreationDate,2023-02-02T16:13:30-08:00*
G04 #@! TF.ProjectId,mouse_v2_PAIN,6d6f7573-655f-4763-925f-5041494e2e6b,rev?*
G04 #@! TF.SameCoordinates,Original*
G04 #@! TF.FileFunction,Legend,Bot*
G04 #@! TF.FilePolarity,Positive*
%FSLAX46Y46*%
G04 Gerber Fmt 4.6, Leading zero omitted, Abs format (unit mm)*
G04 Created by KiCad (PCBNEW (5.1.12-1-10_14)) date 2023-02-02 16:13:30*
%MOMM*%
%LPD*%
G01*
G04 APERTURE LIST*
%ADD10C,0.300000*%
%ADD11C,0.200000*%
%ADD12C,0.120000*%
%ADD13C,0.150000*%
%ADD14O,2.100000X2.100000*%
%ADD15C,2.600000*%
%ADD16C,2.400000*%
%ADD17C,2.000000*%
%ADD18O,1.400000X1.400000*%
%ADD19C,1.700000*%
%ADD20C,3.400000*%
%ADD21O,2.000000X2.000000*%
%ADD22C,2.584400*%
%ADD23C,2.200000*%
%ADD24O,1.750000X1.750000*%
%ADD25C,1.924000*%
%ADD26C,2.100000*%
G04 APERTURE END LIST*
D10*
X152685028Y-103853828D02*
X152685028Y-102782400D01*
X152613600Y-102568114D01*
X152470742Y-102425257D01*
X152256457Y-102353828D01*
X152113600Y-102353828D01*
X153613600Y-102353828D02*
X153470742Y-102425257D01*
X153399314Y-102496685D01*
X153327885Y-102639542D01*
X153327885Y-103068114D01*
X153399314Y-103210971D01*
X153470742Y-103282400D01*
X153613600Y-103353828D01*
X153827885Y-103353828D01*
X153970742Y-103282400D01*
X154042171Y-103210971D01*
X154113600Y-103068114D01*
X154113600Y-102639542D01*
X154042171Y-102496685D01*
X153970742Y-102425257D01*
X153827885Y-102353828D01*
X153613600Y-102353828D01*
X154756457Y-103353828D02*
X154756457Y-102353828D01*
X154756457Y-103210971D02*
X154827885Y-103282400D01*
X154970742Y-103353828D01*
X155185028Y-103353828D01*
X155327885Y-103282400D01*
X155399314Y-103139542D01*
X155399314Y-102353828D01*
X156756457Y-102353828D02*
X156756457Y-103139542D01*
X156685028Y-103282400D01*
X156542171Y-103353828D01*
X156256457Y-103353828D01*
X156113599Y-103282400D01*
X156756457Y-102425257D02*
X156613599Y-102353828D01*
X156256457Y-102353828D01*
X156113599Y-102425257D01*
X156042171Y-102568114D01*
X156042171Y-102710971D01*
X156113599Y-102853828D01*
X156256457Y-102925257D01*
X156613599Y-102925257D01*
X156756457Y-102996685D01*
X157256457Y-103353828D02*
X157827885Y-103353828D01*
X157470742Y-103853828D02*
X157470742Y-102568114D01*
X157542171Y-102425257D01*
X157685028Y-102353828D01*
X157827885Y-102353828D01*
X158327885Y-102353828D02*
X158327885Y-103853828D01*
X158970742Y-102353828D02*
X158970742Y-103139542D01*
X158899314Y-103282400D01*
X158756457Y-103353828D01*
X158542171Y-103353828D01*
X158399314Y-103282400D01*
X158327885Y-103210971D01*
X160327885Y-102353828D02*
X160327885Y-103139542D01*
X160256457Y-103282400D01*
X160113599Y-103353828D01*
X159827885Y-103353828D01*
X159685028Y-103282400D01*
X160327885Y-102425257D02*
X160185028Y-102353828D01*
X159827885Y-102353828D01*
X159685028Y-102425257D01*
X159613599Y-102568114D01*
X159613599Y-102710971D01*
X159685028Y-102853828D01*
X159827885Y-102925257D01*
X160185028Y-102925257D01*
X160327885Y-102996685D01*
X161042171Y-103353828D02*
X161042171Y-102353828D01*
X161042171Y-103210971D02*
X161113599Y-103282400D01*
X161256457Y-103353828D01*
X161470742Y-103353828D01*
X161613599Y-103282400D01*
X161685028Y-103139542D01*
X161685028Y-102353828D01*
X164256457Y-102353828D02*
X163542171Y-102353828D01*
X163542171Y-103853828D01*
X164970742Y-102353828D02*
X164827885Y-102425257D01*
X164756457Y-102496685D01*
X164685028Y-102639542D01*
X164685028Y-103068114D01*
X164756457Y-103210971D01*
X164827885Y-103282400D01*
X164970742Y-103353828D01*
X165185028Y-103353828D01*
X165327885Y-103282400D01*
X165399314Y-103210971D01*
X165470742Y-103068114D01*
X165470742Y-102639542D01*
X165399314Y-102496685D01*
X165327885Y-102425257D01*
X165185028Y-102353828D01*
X164970742Y-102353828D01*
X165970742Y-103353828D02*
X166256457Y-102353828D01*
X166542171Y-103068114D01*
X166827885Y-102353828D01*
X167113599Y-103353828D01*
X157470742Y-100803828D02*
X157827885Y-99803828D01*
X158185028Y-100803828D01*
X159042171Y-101303828D02*
X159185028Y-101303828D01*
X159327885Y-101232400D01*
X159399314Y-101160971D01*
X159470742Y-101018114D01*
X159542171Y-100732400D01*
X159542171Y-100375257D01*
X159470742Y-100089542D01*
X159399314Y-99946685D01*
X159327885Y-99875257D01*
X159185028Y-99803828D01*
X159042171Y-99803828D01*
X158899314Y-99875257D01*
X158827885Y-99946685D01*
X158756457Y-100089542D01*
X158685028Y-100375257D01*
X158685028Y-100732400D01*
X158756457Y-101018114D01*
X158827885Y-101160971D01*
X158899314Y-101232400D01*
X159042171Y-101303828D01*
X160185028Y-99946685D02*
X160256457Y-99875257D01*
X160185028Y-99803828D01*
X160113600Y-99875257D01*
X160185028Y-99946685D01*
X160185028Y-99803828D01*
X161685028Y-99803828D02*
X160827885Y-99803828D01*
X161256457Y-99803828D02*
X161256457Y-101303828D01*
X161113600Y-101089542D01*
X160970742Y-100946685D01*
X160827885Y-100875257D01*
X157042171Y-98610971D02*
X157113600Y-98682400D01*
X157256457Y-98753828D01*
X157613600Y-98753828D01*
X157756457Y-98682400D01*
X157827885Y-98610971D01*
X157899314Y-98468114D01*
X157899314Y-98325257D01*
X157827885Y-98110971D01*
X156970742Y-97253828D01*
X157899314Y-97253828D01*
X158827885Y-98753828D02*
X158970742Y-98753828D01*
X159113600Y-98682400D01*
X159185028Y-98610971D01*
X159256457Y-98468114D01*
X159327885Y-98182400D01*
X159327885Y-97825257D01*
X159256457Y-97539542D01*
X159185028Y-97396685D01*
X159113600Y-97325257D01*
X158970742Y-97253828D01*
X158827885Y-97253828D01*
X158685028Y-97325257D01*
X158613600Y-97396685D01*
X158542171Y-97539542D01*
X158470742Y-97825257D01*
X158470742Y-98182400D01*
X158542171Y-98468114D01*
X158613600Y-98610971D01*
X158685028Y-98682400D01*
X158827885Y-98753828D01*
X159899314Y-98610971D02*
X159970742Y-98682400D01*
X160113600Y-98753828D01*
X160470742Y-98753828D01*
X160613600Y-98682400D01*
X160685028Y-98610971D01*
X160756457Y-98468114D01*
X160756457Y-98325257D01*
X160685028Y-98110971D01*
X159827885Y-97253828D01*
X160756457Y-97253828D01*
X161256457Y-98753828D02*
X162185028Y-98753828D01*
X161685028Y-98182400D01*
X161899314Y-98182400D01*
X162042171Y-98110971D01*
X162113600Y-98039542D01*
X162185028Y-97896685D01*
X162185028Y-97539542D01*
X162113600Y-97396685D01*
X162042171Y-97325257D01*
X161899314Y-97253828D01*
X161470742Y-97253828D01*
X161327885Y-97325257D01*
X161256457Y-97396685D01*
D11*
X150088600Y-104292400D02*
X150088600Y-96672400D01*
X169773600Y-104292400D02*
X150073360Y-104292400D01*
X169773600Y-96827340D02*
X169773600Y-104292400D01*
X150088600Y-96672400D02*
X169809160Y-96659700D01*
D12*
X126990464Y-61133400D02*
X125536336Y-61133400D01*
X126990464Y-59313400D02*
X125536336Y-59313400D01*
X118317600Y-60309136D02*
X118317600Y-61763264D01*
X120137600Y-60309136D02*
X120137600Y-61763264D01*
X123261800Y-60333936D02*
X123261800Y-61788064D01*
X121441800Y-60333936D02*
X121441800Y-61788064D01*
X138074348Y-61929600D02*
X139496852Y-61929600D01*
X138074348Y-63749600D02*
X139496852Y-63749600D01*
X153090200Y-64998652D02*
X153090200Y-63576148D01*
X154910200Y-64998652D02*
X154910200Y-63576148D01*
X122882200Y-112683800D02*
X125682200Y-112683800D01*
X125682200Y-112683800D02*
X125682200Y-110683800D01*
X125682200Y-110683800D02*
X122882200Y-110683800D01*
X122882200Y-110683800D02*
X122882200Y-112683800D01*
X125225000Y-107889800D02*
X122425000Y-107889800D01*
X122425000Y-107889800D02*
X122425000Y-109889800D01*
X122425000Y-109889800D02*
X125225000Y-109889800D01*
X125225000Y-109889800D02*
X125225000Y-107889800D01*
X125377400Y-116570000D02*
X125377400Y-114570000D01*
X122577400Y-116570000D02*
X125377400Y-116570000D01*
X122577400Y-114570000D02*
X122577400Y-116570000D01*
X125377400Y-114570000D02*
X122577400Y-114570000D01*
X192751064Y-119105000D02*
X191296936Y-119105000D01*
X192751064Y-120925000D02*
X191296936Y-120925000D01*
X166441800Y-139944464D02*
X166441800Y-138490336D01*
X164621800Y-139944464D02*
X164621800Y-138490336D01*
X127288936Y-120823400D02*
X128743064Y-120823400D01*
X127288936Y-119003400D02*
X128743064Y-119003400D01*
X153496600Y-139969864D02*
X153496600Y-138515736D01*
X155316600Y-139969864D02*
X155316600Y-138515736D01*
X131288200Y-106314864D02*
X131288200Y-104860736D01*
X129468200Y-106314864D02*
X129468200Y-104860736D01*
X131932000Y-106289464D02*
X131932000Y-104835336D01*
X133752000Y-106289464D02*
X133752000Y-104835336D01*
X131389800Y-59248664D02*
X131389800Y-57794536D01*
X129569800Y-59248664D02*
X129569800Y-57794536D01*
X187126200Y-126888864D02*
X187126200Y-125434736D01*
X188946200Y-126888864D02*
X188946200Y-125434736D01*
X170785200Y-134223136D02*
X170785200Y-135677264D01*
X168965200Y-134223136D02*
X168965200Y-135677264D01*
X134615600Y-121827936D02*
X134615600Y-123282064D01*
X132795600Y-121827936D02*
X132795600Y-123282064D01*
X159863200Y-133994536D02*
X159863200Y-135448664D01*
X158043200Y-133994536D02*
X158043200Y-135448664D01*
X146523064Y-130230200D02*
X145068936Y-130230200D01*
X146523064Y-132050200D02*
X145068936Y-132050200D01*
X126717456Y-67699615D02*
X125458144Y-66972551D01*
X127627456Y-66123449D02*
X126368144Y-65396385D01*
X156824000Y-119719736D02*
X156824000Y-121173864D01*
X158644000Y-119719736D02*
X158644000Y-121173864D01*
X154030000Y-121173864D02*
X154030000Y-119719736D01*
X155850000Y-121173864D02*
X155850000Y-119719736D01*
X191867200Y-67259148D02*
X191867200Y-68681652D01*
X190047200Y-67259148D02*
X190047200Y-68681652D01*
X136601148Y-106963800D02*
X138023652Y-106963800D01*
X136601148Y-108783800D02*
X138023652Y-108783800D01*
X136601148Y-106421600D02*
X138023652Y-106421600D01*
X136601148Y-104601600D02*
X138023652Y-104601600D01*
X136844600Y-101295200D02*
X136844600Y-99495200D01*
X136844600Y-101295200D02*
X136844600Y-102095200D01*
X139964600Y-101295200D02*
X139964600Y-100495200D01*
X139964600Y-101295200D02*
X139964600Y-102095200D01*
X134497400Y-101028848D02*
X134497400Y-102451352D01*
X136317400Y-101028848D02*
X136317400Y-102451352D01*
X136575748Y-109376800D02*
X137998252Y-109376800D01*
X136575748Y-111196800D02*
X137998252Y-111196800D01*
X180009748Y-135733200D02*
X181432252Y-135733200D01*
X180009748Y-133913200D02*
X181432252Y-133913200D01*
X178425464Y-123829400D02*
X176971336Y-123829400D01*
X178425464Y-125649400D02*
X176971336Y-125649400D01*
X192485600Y-68681652D02*
X192485600Y-67259148D01*
X194305600Y-68681652D02*
X194305600Y-67259148D01*
X139704400Y-135567336D02*
X139704400Y-136771464D01*
X141524400Y-135567336D02*
X141524400Y-136771464D01*
X144284248Y-138908200D02*
X145706752Y-138908200D01*
X144284248Y-137088200D02*
X145706752Y-137088200D01*
X189052252Y-136215800D02*
X187629748Y-136215800D01*
X189052252Y-134395800D02*
X187629748Y-134395800D01*
X133218600Y-134721652D02*
X133218600Y-133299148D01*
X131398600Y-134721652D02*
X131398600Y-133299148D01*
X172419600Y-138404652D02*
X172419600Y-136982148D01*
X174239600Y-138404652D02*
X174239600Y-136982148D01*
D13*
X129497057Y-62580780D02*
X129830390Y-62104590D01*
X130068485Y-62580780D02*
X130068485Y-61580780D01*
X129687533Y-61580780D01*
X129592295Y-61628400D01*
X129544676Y-61676019D01*
X129497057Y-61771257D01*
X129497057Y-61914114D01*
X129544676Y-62009352D01*
X129592295Y-62056971D01*
X129687533Y-62104590D01*
X130068485Y-62104590D01*
X128544676Y-62580780D02*
X129116104Y-62580780D01*
X128830390Y-62580780D02*
X128830390Y-61580780D01*
X128925628Y-61723638D01*
X129020866Y-61818876D01*
X129116104Y-61866495D01*
X128068485Y-62580780D02*
X127878009Y-62580780D01*
X127782771Y-62533161D01*
X127735152Y-62485542D01*
X127639914Y-62342685D01*
X127592295Y-62152209D01*
X127592295Y-61771257D01*
X127639914Y-61676019D01*
X127687533Y-61628400D01*
X127782771Y-61580780D01*
X127973247Y-61580780D01*
X128068485Y-61628400D01*
X128116104Y-61676019D01*
X128163723Y-61771257D01*
X128163723Y-62009352D01*
X128116104Y-62104590D01*
X128068485Y-62152209D01*
X127973247Y-62199828D01*
X127782771Y-62199828D01*
X127687533Y-62152209D01*
X127639914Y-62104590D01*
X127592295Y-62009352D01*
X119819657Y-64714380D02*
X120152990Y-64238190D01*
X120391085Y-64714380D02*
X120391085Y-63714380D01*
X120010133Y-63714380D01*
X119914895Y-63762000D01*
X119867276Y-63809619D01*
X119819657Y-63904857D01*
X119819657Y-64047714D01*
X119867276Y-64142952D01*
X119914895Y-64190571D01*
X120010133Y-64238190D01*
X120391085Y-64238190D01*
X119438704Y-63809619D02*
X119391085Y-63762000D01*
X119295847Y-63714380D01*
X119057752Y-63714380D01*
X118962514Y-63762000D01*
X118914895Y-63809619D01*
X118867276Y-63904857D01*
X118867276Y-64000095D01*
X118914895Y-64142952D01*
X119486323Y-64714380D01*
X118867276Y-64714380D01*
X118248228Y-63714380D02*
X118152990Y-63714380D01*
X118057752Y-63762000D01*
X118010133Y-63809619D01*
X117962514Y-63904857D01*
X117914895Y-64095333D01*
X117914895Y-64333428D01*
X117962514Y-64523904D01*
X118010133Y-64619142D01*
X118057752Y-64666761D01*
X118152990Y-64714380D01*
X118248228Y-64714380D01*
X118343466Y-64666761D01*
X118391085Y-64619142D01*
X118438704Y-64523904D01*
X118486323Y-64333428D01*
X118486323Y-64095333D01*
X118438704Y-63904857D01*
X118391085Y-63809619D01*
X118343466Y-63762000D01*
X118248228Y-63714380D01*
X122969257Y-64663580D02*
X123302590Y-64187390D01*
X123540685Y-64663580D02*
X123540685Y-63663580D01*
X123159733Y-63663580D01*
X123064495Y-63711200D01*
X123016876Y-63758819D01*
X122969257Y-63854057D01*
X122969257Y-63996914D01*
X123016876Y-64092152D01*
X123064495Y-64139771D01*
X123159733Y-64187390D01*
X123540685Y-64187390D01*
X122588304Y-63758819D02*
X122540685Y-63711200D01*
X122445447Y-63663580D01*
X122207352Y-63663580D01*
X122112114Y-63711200D01*
X122064495Y-63758819D01*
X122016876Y-63854057D01*
X122016876Y-63949295D01*
X122064495Y-64092152D01*
X122635923Y-64663580D01*
X122016876Y-64663580D01*
X121064495Y-64663580D02*
X121635923Y-64663580D01*
X121350209Y-64663580D02*
X121350209Y-63663580D01*
X121445447Y-63806438D01*
X121540685Y-63901676D01*
X121635923Y-63949295D01*
X138952266Y-65046742D02*
X138999885Y-65094361D01*
X139142742Y-65141980D01*
X139237980Y-65141980D01*
X139380838Y-65094361D01*
X139476076Y-64999123D01*
X139523695Y-64903885D01*
X139571314Y-64713409D01*
X139571314Y-64570552D01*
X139523695Y-64380076D01*
X139476076Y-64284838D01*
X139380838Y-64189600D01*
X139237980Y-64141980D01*
X139142742Y-64141980D01*
X138999885Y-64189600D01*
X138952266Y-64237219D01*
X138618933Y-64141980D02*
X137999885Y-64141980D01*
X138333219Y-64522933D01*
X138190361Y-64522933D01*
X138095123Y-64570552D01*
X138047504Y-64618171D01*
X137999885Y-64713409D01*
X137999885Y-64951504D01*
X138047504Y-65046742D01*
X138095123Y-65094361D01*
X138190361Y-65141980D01*
X138476076Y-65141980D01*
X138571314Y-65094361D01*
X138618933Y-65046742D01*
X156207342Y-64120733D02*
X156254961Y-64073114D01*
X156302580Y-63930257D01*
X156302580Y-63835019D01*
X156254961Y-63692161D01*
X156159723Y-63596923D01*
X156064485Y-63549304D01*
X155874009Y-63501685D01*
X155731152Y-63501685D01*
X155540676Y-63549304D01*
X155445438Y-63596923D01*
X155350200Y-63692161D01*
X155302580Y-63835019D01*
X155302580Y-63930257D01*
X155350200Y-64073114D01*
X155397819Y-64120733D01*
X155635914Y-64977876D02*
X156302580Y-64977876D01*
X155254961Y-64739780D02*
X155969247Y-64501685D01*
X155969247Y-65120733D01*
X125938142Y-113076485D02*
X125938142Y-113612200D01*
X125973857Y-113719342D01*
X126045285Y-113790771D01*
X126152428Y-113826485D01*
X126223857Y-113826485D01*
X125581000Y-113826485D02*
X125581000Y-113076485D01*
X125295285Y-113076485D01*
X125223857Y-113112200D01*
X125188142Y-113147914D01*
X125152428Y-113219342D01*
X125152428Y-113326485D01*
X125188142Y-113397914D01*
X125223857Y-113433628D01*
X125295285Y-113469342D01*
X125581000Y-113469342D01*
X125009571Y-113897914D02*
X124438142Y-113897914D01*
X124295285Y-113790771D02*
X124188142Y-113826485D01*
X124009571Y-113826485D01*
X123938142Y-113790771D01*
X123902428Y-113755057D01*
X123866714Y-113683628D01*
X123866714Y-113612200D01*
X123902428Y-113540771D01*
X123938142Y-113505057D01*
X124009571Y-113469342D01*
X124152428Y-113433628D01*
X124223857Y-113397914D01*
X124259571Y-113362200D01*
X124295285Y-113290771D01*
X124295285Y-113219342D01*
X124259571Y-113147914D01*
X124223857Y-113112200D01*
X124152428Y-113076485D01*
X123973857Y-113076485D01*
X123866714Y-113112200D01*
X123616714Y-113076485D02*
X123438142Y-113826485D01*
X123295285Y-113290771D01*
X123152428Y-113826485D01*
X122973857Y-113076485D01*
X122545285Y-113076485D02*
X122402428Y-113076485D01*
X122331000Y-113112200D01*
X122259571Y-113183628D01*
X122223857Y-113326485D01*
X122223857Y-113576485D01*
X122259571Y-113719342D01*
X122331000Y-113790771D01*
X122402428Y-113826485D01*
X122545285Y-113826485D01*
X122616714Y-113790771D01*
X122688142Y-113719342D01*
X122723857Y-113576485D01*
X122723857Y-113326485D01*
X122688142Y-113183628D01*
X122616714Y-113112200D01*
X122545285Y-113076485D01*
X125909104Y-106564180D02*
X125909104Y-107278466D01*
X125956723Y-107421323D01*
X126051961Y-107516561D01*
X126194819Y-107564180D01*
X126290057Y-107564180D01*
X125432914Y-107564180D02*
X125432914Y-106564180D01*
X125051961Y-106564180D01*
X124956723Y-106611800D01*
X124909104Y-106659419D01*
X124861485Y-106754657D01*
X124861485Y-106897514D01*
X124909104Y-106992752D01*
X124956723Y-107040371D01*
X125051961Y-107087990D01*
X125432914Y-107087990D01*
X124671009Y-107659419D02*
X123909104Y-107659419D01*
X123147200Y-106611800D02*
X123242438Y-106564180D01*
X123385295Y-106564180D01*
X123528152Y-106611800D01*
X123623390Y-106707038D01*
X123671009Y-106802276D01*
X123718628Y-106992752D01*
X123718628Y-107135609D01*
X123671009Y-107326085D01*
X123623390Y-107421323D01*
X123528152Y-107516561D01*
X123385295Y-107564180D01*
X123290057Y-107564180D01*
X123147200Y-107516561D01*
X123099580Y-107468942D01*
X123099580Y-107135609D01*
X123290057Y-107135609D01*
X122671009Y-107564180D02*
X122671009Y-106564180D01*
X122099580Y-107564180D01*
X122099580Y-106564180D01*
X121623390Y-107564180D02*
X121623390Y-106564180D01*
X121385295Y-106564180D01*
X121242438Y-106611800D01*
X121147200Y-106707038D01*
X121099580Y-106802276D01*
X121051961Y-106992752D01*
X121051961Y-107135609D01*
X121099580Y-107326085D01*
X121147200Y-107421323D01*
X121242438Y-107516561D01*
X121385295Y-107564180D01*
X121623390Y-107564180D01*
X126072638Y-116978180D02*
X126072638Y-117692466D01*
X126120257Y-117835323D01*
X126215495Y-117930561D01*
X126358352Y-117978180D01*
X126453590Y-117978180D01*
X125596447Y-117978180D02*
X125596447Y-116978180D01*
X125215495Y-116978180D01*
X125120257Y-117025800D01*
X125072638Y-117073419D01*
X125025019Y-117168657D01*
X125025019Y-117311514D01*
X125072638Y-117406752D01*
X125120257Y-117454371D01*
X125215495Y-117501990D01*
X125596447Y-117501990D01*
X124834542Y-118073419D02*
X124072638Y-118073419D01*
X123263114Y-117978180D02*
X123596447Y-117501990D01*
X123834542Y-117978180D02*
X123834542Y-116978180D01*
X123453590Y-116978180D01*
X123358352Y-117025800D01*
X123310733Y-117073419D01*
X123263114Y-117168657D01*
X123263114Y-117311514D01*
X123310733Y-117406752D01*
X123358352Y-117454371D01*
X123453590Y-117501990D01*
X123834542Y-117501990D01*
X122882161Y-117930561D02*
X122739304Y-117978180D01*
X122501209Y-117978180D01*
X122405971Y-117930561D01*
X122358352Y-117882942D01*
X122310733Y-117787704D01*
X122310733Y-117692466D01*
X122358352Y-117597228D01*
X122405971Y-117549609D01*
X122501209Y-117501990D01*
X122691685Y-117454371D01*
X122786923Y-117406752D01*
X122834542Y-117359133D01*
X122882161Y-117263895D01*
X122882161Y-117168657D01*
X122834542Y-117073419D01*
X122786923Y-117025800D01*
X122691685Y-116978180D01*
X122453590Y-116978180D01*
X122310733Y-117025800D01*
X122025019Y-116978180D02*
X121453590Y-116978180D01*
X121739304Y-117978180D02*
X121739304Y-116978180D01*
X192190666Y-118647380D02*
X192524000Y-118171190D01*
X192762095Y-118647380D02*
X192762095Y-117647380D01*
X192381142Y-117647380D01*
X192285904Y-117695000D01*
X192238285Y-117742619D01*
X192190666Y-117837857D01*
X192190666Y-117980714D01*
X192238285Y-118075952D01*
X192285904Y-118123571D01*
X192381142Y-118171190D01*
X192762095Y-118171190D01*
X191285904Y-117647380D02*
X191762095Y-117647380D01*
X191809714Y-118123571D01*
X191762095Y-118075952D01*
X191666857Y-118028333D01*
X191428761Y-118028333D01*
X191333523Y-118075952D01*
X191285904Y-118123571D01*
X191238285Y-118218809D01*
X191238285Y-118456904D01*
X191285904Y-118552142D01*
X191333523Y-118599761D01*
X191428761Y-118647380D01*
X191666857Y-118647380D01*
X191762095Y-118599761D01*
X191809714Y-118552142D01*
X167804180Y-139050733D02*
X167327990Y-138717400D01*
X167804180Y-138479304D02*
X166804180Y-138479304D01*
X166804180Y-138860257D01*
X166851800Y-138955495D01*
X166899419Y-139003114D01*
X166994657Y-139050733D01*
X167137514Y-139050733D01*
X167232752Y-139003114D01*
X167280371Y-138955495D01*
X167327990Y-138860257D01*
X167327990Y-138479304D01*
X166804180Y-139907876D02*
X166804180Y-139717400D01*
X166851800Y-139622161D01*
X166899419Y-139574542D01*
X167042276Y-139479304D01*
X167232752Y-139431685D01*
X167613704Y-139431685D01*
X167708942Y-139479304D01*
X167756561Y-139526923D01*
X167804180Y-139622161D01*
X167804180Y-139812638D01*
X167756561Y-139907876D01*
X167708942Y-139955495D01*
X167613704Y-140003114D01*
X167375609Y-140003114D01*
X167280371Y-139955495D01*
X167232752Y-139907876D01*
X167185133Y-139812638D01*
X167185133Y-139622161D01*
X167232752Y-139526923D01*
X167280371Y-139479304D01*
X167375609Y-139431685D01*
X131789466Y-119857780D02*
X132122800Y-119381590D01*
X132360895Y-119857780D02*
X132360895Y-118857780D01*
X131979942Y-118857780D01*
X131884704Y-118905400D01*
X131837085Y-118953019D01*
X131789466Y-119048257D01*
X131789466Y-119191114D01*
X131837085Y-119286352D01*
X131884704Y-119333971D01*
X131979942Y-119381590D01*
X132360895Y-119381590D01*
X131456133Y-118857780D02*
X130789466Y-118857780D01*
X131218038Y-119857780D01*
X156678980Y-139076133D02*
X156202790Y-138742800D01*
X156678980Y-138504704D02*
X155678980Y-138504704D01*
X155678980Y-138885657D01*
X155726600Y-138980895D01*
X155774219Y-139028514D01*
X155869457Y-139076133D01*
X156012314Y-139076133D01*
X156107552Y-139028514D01*
X156155171Y-138980895D01*
X156202790Y-138885657D01*
X156202790Y-138504704D01*
X156107552Y-139647561D02*
X156059933Y-139552323D01*
X156012314Y-139504704D01*
X155917076Y-139457085D01*
X155869457Y-139457085D01*
X155774219Y-139504704D01*
X155726600Y-139552323D01*
X155678980Y-139647561D01*
X155678980Y-139838038D01*
X155726600Y-139933276D01*
X155774219Y-139980895D01*
X155869457Y-140028514D01*
X155917076Y-140028514D01*
X156012314Y-139980895D01*
X156059933Y-139933276D01*
X156107552Y-139838038D01*
X156107552Y-139647561D01*
X156155171Y-139552323D01*
X156202790Y-139504704D01*
X156298028Y-139457085D01*
X156488504Y-139457085D01*
X156583742Y-139504704D01*
X156631361Y-139552323D01*
X156678980Y-139647561D01*
X156678980Y-139838038D01*
X156631361Y-139933276D01*
X156583742Y-139980895D01*
X156488504Y-140028514D01*
X156298028Y-140028514D01*
X156202790Y-139980895D01*
X156155171Y-139933276D01*
X156107552Y-139838038D01*
X130494066Y-109265980D02*
X130827400Y-108789790D01*
X131065495Y-109265980D02*
X131065495Y-108265980D01*
X130684542Y-108265980D01*
X130589304Y-108313600D01*
X130541685Y-108361219D01*
X130494066Y-108456457D01*
X130494066Y-108599314D01*
X130541685Y-108694552D01*
X130589304Y-108742171D01*
X130684542Y-108789790D01*
X131065495Y-108789790D01*
X130017876Y-109265980D02*
X129827400Y-109265980D01*
X129732161Y-109218361D01*
X129684542Y-109170742D01*
X129589304Y-109027885D01*
X129541685Y-108837409D01*
X129541685Y-108456457D01*
X129589304Y-108361219D01*
X129636923Y-108313600D01*
X129732161Y-108265980D01*
X129922638Y-108265980D01*
X130017876Y-108313600D01*
X130065495Y-108361219D01*
X130113114Y-108456457D01*
X130113114Y-108694552D01*
X130065495Y-108789790D01*
X130017876Y-108837409D01*
X129922638Y-108885028D01*
X129732161Y-108885028D01*
X129636923Y-108837409D01*
X129589304Y-108789790D01*
X129541685Y-108694552D01*
X133459457Y-109240580D02*
X133792790Y-108764390D01*
X134030885Y-109240580D02*
X134030885Y-108240580D01*
X133649933Y-108240580D01*
X133554695Y-108288200D01*
X133507076Y-108335819D01*
X133459457Y-108431057D01*
X133459457Y-108573914D01*
X133507076Y-108669152D01*
X133554695Y-108716771D01*
X133649933Y-108764390D01*
X134030885Y-108764390D01*
X132507076Y-109240580D02*
X133078504Y-109240580D01*
X132792790Y-109240580D02*
X132792790Y-108240580D01*
X132888028Y-108383438D01*
X132983266Y-108478676D01*
X133078504Y-108526295D01*
X131888028Y-108240580D02*
X131792790Y-108240580D01*
X131697552Y-108288200D01*
X131649933Y-108335819D01*
X131602314Y-108431057D01*
X131554695Y-108621533D01*
X131554695Y-108859628D01*
X131602314Y-109050104D01*
X131649933Y-109145342D01*
X131697552Y-109192961D01*
X131792790Y-109240580D01*
X131888028Y-109240580D01*
X131983266Y-109192961D01*
X132030885Y-109145342D01*
X132078504Y-109050104D01*
X132126123Y-108859628D01*
X132126123Y-108621533D01*
X132078504Y-108431057D01*
X132030885Y-108335819D01*
X131983266Y-108288200D01*
X131888028Y-108240580D01*
X133510257Y-57602380D02*
X133843590Y-57126190D01*
X134081685Y-57602380D02*
X134081685Y-56602380D01*
X133700733Y-56602380D01*
X133605495Y-56650000D01*
X133557876Y-56697619D01*
X133510257Y-56792857D01*
X133510257Y-56935714D01*
X133557876Y-57030952D01*
X133605495Y-57078571D01*
X133700733Y-57126190D01*
X134081685Y-57126190D01*
X132557876Y-57602380D02*
X133129304Y-57602380D01*
X132843590Y-57602380D02*
X132843590Y-56602380D01*
X132938828Y-56745238D01*
X133034066Y-56840476D01*
X133129304Y-56888095D01*
X131605495Y-57602380D02*
X132176923Y-57602380D01*
X131891209Y-57602380D02*
X131891209Y-56602380D01*
X131986447Y-56745238D01*
X132081685Y-56840476D01*
X132176923Y-56888095D01*
X186862980Y-125671342D02*
X186386790Y-125338009D01*
X186862980Y-125099914D02*
X185862980Y-125099914D01*
X185862980Y-125480866D01*
X185910600Y-125576104D01*
X185958219Y-125623723D01*
X186053457Y-125671342D01*
X186196314Y-125671342D01*
X186291552Y-125623723D01*
X186339171Y-125576104D01*
X186386790Y-125480866D01*
X186386790Y-125099914D01*
X186862980Y-126623723D02*
X186862980Y-126052295D01*
X186862980Y-126338009D02*
X185862980Y-126338009D01*
X186005838Y-126242771D01*
X186101076Y-126147533D01*
X186148695Y-126052295D01*
X185862980Y-126957057D02*
X185862980Y-127576104D01*
X186243933Y-127242771D01*
X186243933Y-127385628D01*
X186291552Y-127480866D01*
X186339171Y-127528485D01*
X186434409Y-127576104D01*
X186672504Y-127576104D01*
X186767742Y-127528485D01*
X186815361Y-127480866D01*
X186862980Y-127385628D01*
X186862980Y-127099914D01*
X186815361Y-127004676D01*
X186767742Y-126957057D01*
X170492657Y-138577580D02*
X170825990Y-138101390D01*
X171064085Y-138577580D02*
X171064085Y-137577580D01*
X170683133Y-137577580D01*
X170587895Y-137625200D01*
X170540276Y-137672819D01*
X170492657Y-137768057D01*
X170492657Y-137910914D01*
X170540276Y-138006152D01*
X170587895Y-138053771D01*
X170683133Y-138101390D01*
X171064085Y-138101390D01*
X169540276Y-138577580D02*
X170111704Y-138577580D01*
X169825990Y-138577580D02*
X169825990Y-137577580D01*
X169921228Y-137720438D01*
X170016466Y-137815676D01*
X170111704Y-137863295D01*
X168683133Y-137910914D02*
X168683133Y-138577580D01*
X168921228Y-137529961D02*
X169159323Y-138244247D01*
X168540276Y-138244247D01*
X135694657Y-119908580D02*
X136027990Y-119432390D01*
X136266085Y-119908580D02*
X136266085Y-118908580D01*
X135885133Y-118908580D01*
X135789895Y-118956200D01*
X135742276Y-119003819D01*
X135694657Y-119099057D01*
X135694657Y-119241914D01*
X135742276Y-119337152D01*
X135789895Y-119384771D01*
X135885133Y-119432390D01*
X136266085Y-119432390D01*
X134742276Y-119908580D02*
X135313704Y-119908580D01*
X135027990Y-119908580D02*
X135027990Y-118908580D01*
X135123228Y-119051438D01*
X135218466Y-119146676D01*
X135313704Y-119194295D01*
X133837514Y-118908580D02*
X134313704Y-118908580D01*
X134361323Y-119384771D01*
X134313704Y-119337152D01*
X134218466Y-119289533D01*
X133980371Y-119289533D01*
X133885133Y-119337152D01*
X133837514Y-119384771D01*
X133789895Y-119480009D01*
X133789895Y-119718104D01*
X133837514Y-119813342D01*
X133885133Y-119860961D01*
X133980371Y-119908580D01*
X134218466Y-119908580D01*
X134313704Y-119860961D01*
X134361323Y-119813342D01*
X161310580Y-134408942D02*
X160834390Y-134075609D01*
X161310580Y-133837514D02*
X160310580Y-133837514D01*
X160310580Y-134218466D01*
X160358200Y-134313704D01*
X160405819Y-134361323D01*
X160501057Y-134408942D01*
X160643914Y-134408942D01*
X160739152Y-134361323D01*
X160786771Y-134313704D01*
X160834390Y-134218466D01*
X160834390Y-133837514D01*
X161310580Y-135361323D02*
X161310580Y-134789895D01*
X161310580Y-135075609D02*
X160310580Y-135075609D01*
X160453438Y-134980371D01*
X160548676Y-134885133D01*
X160596295Y-134789895D01*
X160310580Y-136218466D02*
X160310580Y-136027990D01*
X160358200Y-135932752D01*
X160405819Y-135885133D01*
X160548676Y-135789895D01*
X160739152Y-135742276D01*
X161120104Y-135742276D01*
X161215342Y-135789895D01*
X161262961Y-135837514D01*
X161310580Y-135932752D01*
X161310580Y-136123228D01*
X161262961Y-136218466D01*
X161215342Y-136266085D01*
X161120104Y-136313704D01*
X160882009Y-136313704D01*
X160786771Y-136266085D01*
X160739152Y-136218466D01*
X160691533Y-136123228D01*
X160691533Y-135932752D01*
X160739152Y-135837514D01*
X160786771Y-135789895D01*
X160882009Y-135742276D01*
X146438857Y-129772580D02*
X146772190Y-129296390D01*
X147010285Y-129772580D02*
X147010285Y-128772580D01*
X146629333Y-128772580D01*
X146534095Y-128820200D01*
X146486476Y-128867819D01*
X146438857Y-128963057D01*
X146438857Y-129105914D01*
X146486476Y-129201152D01*
X146534095Y-129248771D01*
X146629333Y-129296390D01*
X147010285Y-129296390D01*
X145486476Y-129772580D02*
X146057904Y-129772580D01*
X145772190Y-129772580D02*
X145772190Y-128772580D01*
X145867428Y-128915438D01*
X145962666Y-129010676D01*
X146057904Y-129058295D01*
X145153142Y-128772580D02*
X144486476Y-128772580D01*
X144915047Y-129772580D01*
X126314540Y-69217001D02*
X126841310Y-68971275D01*
X126809411Y-69502716D02*
X127309411Y-68636690D01*
X126979497Y-68446214D01*
X126873209Y-68439834D01*
X126808160Y-68457264D01*
X126719302Y-68515933D01*
X126647873Y-68639651D01*
X126641493Y-68745939D01*
X126658923Y-68810988D01*
X126717592Y-68899847D01*
X127047507Y-69090323D01*
X125489754Y-68740811D02*
X125984625Y-69026525D01*
X125737189Y-68883668D02*
X126237189Y-68017643D01*
X126248239Y-68188980D01*
X126283099Y-68319077D01*
X126341768Y-68407936D01*
X125280596Y-67960225D02*
X125386884Y-67966605D01*
X125451933Y-67949175D01*
X125540791Y-67890506D01*
X125564601Y-67849267D01*
X125570981Y-67742978D01*
X125553551Y-67677930D01*
X125494882Y-67589071D01*
X125329925Y-67493833D01*
X125223637Y-67487453D01*
X125158588Y-67504883D01*
X125069729Y-67563552D01*
X125045920Y-67604792D01*
X125039540Y-67711080D01*
X125056970Y-67776129D01*
X125115639Y-67864987D01*
X125280596Y-67960225D01*
X125339265Y-68049083D01*
X125356695Y-68114132D01*
X125350315Y-68220420D01*
X125255077Y-68385378D01*
X125166219Y-68444047D01*
X125101170Y-68461476D01*
X124994882Y-68455097D01*
X124829925Y-68359859D01*
X124771256Y-68271000D01*
X124753826Y-68205951D01*
X124760206Y-68099663D01*
X124855444Y-67934706D01*
X124944302Y-67876037D01*
X125009351Y-67858607D01*
X125115639Y-67864987D01*
X160091380Y-119778542D02*
X159615190Y-119445209D01*
X160091380Y-119207114D02*
X159091380Y-119207114D01*
X159091380Y-119588066D01*
X159139000Y-119683304D01*
X159186619Y-119730923D01*
X159281857Y-119778542D01*
X159424714Y-119778542D01*
X159519952Y-119730923D01*
X159567571Y-119683304D01*
X159615190Y-119588066D01*
X159615190Y-119207114D01*
X159186619Y-120159495D02*
X159139000Y-120207114D01*
X159091380Y-120302352D01*
X159091380Y-120540447D01*
X159139000Y-120635685D01*
X159186619Y-120683304D01*
X159281857Y-120730923D01*
X159377095Y-120730923D01*
X159519952Y-120683304D01*
X160091380Y-120111876D01*
X160091380Y-120730923D01*
X159186619Y-121111876D02*
X159139000Y-121159495D01*
X159091380Y-121254733D01*
X159091380Y-121492828D01*
X159139000Y-121588066D01*
X159186619Y-121635685D01*
X159281857Y-121683304D01*
X159377095Y-121683304D01*
X159519952Y-121635685D01*
X160091380Y-121064257D01*
X160091380Y-121683304D01*
X153284180Y-119829342D02*
X152807990Y-119496009D01*
X153284180Y-119257914D02*
X152284180Y-119257914D01*
X152284180Y-119638866D01*
X152331800Y-119734104D01*
X152379419Y-119781723D01*
X152474657Y-119829342D01*
X152617514Y-119829342D01*
X152712752Y-119781723D01*
X152760371Y-119734104D01*
X152807990Y-119638866D01*
X152807990Y-119257914D01*
X152379419Y-120210295D02*
X152331800Y-120257914D01*
X152284180Y-120353152D01*
X152284180Y-120591247D01*
X152331800Y-120686485D01*
X152379419Y-120734104D01*
X152474657Y-120781723D01*
X152569895Y-120781723D01*
X152712752Y-120734104D01*
X153284180Y-120162676D01*
X153284180Y-120781723D01*
X152284180Y-121115057D02*
X152284180Y-121734104D01*
X152665133Y-121400771D01*
X152665133Y-121543628D01*
X152712752Y-121638866D01*
X152760371Y-121686485D01*
X152855609Y-121734104D01*
X153093704Y-121734104D01*
X153188942Y-121686485D01*
X153236561Y-121638866D01*
X153284180Y-121543628D01*
X153284180Y-121257914D01*
X153236561Y-121162676D01*
X153188942Y-121115057D01*
X191174666Y-71604142D02*
X191222285Y-71651761D01*
X191365142Y-71699380D01*
X191460380Y-71699380D01*
X191603238Y-71651761D01*
X191698476Y-71556523D01*
X191746095Y-71461285D01*
X191793714Y-71270809D01*
X191793714Y-71127952D01*
X191746095Y-70937476D01*
X191698476Y-70842238D01*
X191603238Y-70747000D01*
X191460380Y-70699380D01*
X191365142Y-70699380D01*
X191222285Y-70747000D01*
X191174666Y-70794619D01*
X190698476Y-71699380D02*
X190508000Y-71699380D01*
X190412761Y-71651761D01*
X190365142Y-71604142D01*
X190269904Y-71461285D01*
X190222285Y-71270809D01*
X190222285Y-70889857D01*
X190269904Y-70794619D01*
X190317523Y-70747000D01*
X190412761Y-70699380D01*
X190603238Y-70699380D01*
X190698476Y-70747000D01*
X190746095Y-70794619D01*
X190793714Y-70889857D01*
X190793714Y-71127952D01*
X190746095Y-71223190D01*
X190698476Y-71270809D01*
X190603238Y-71318428D01*
X190412761Y-71318428D01*
X190317523Y-71270809D01*
X190269904Y-71223190D01*
X190222285Y-71127952D01*
X141663657Y-108154742D02*
X141711276Y-108202361D01*
X141854133Y-108249980D01*
X141949371Y-108249980D01*
X142092228Y-108202361D01*
X142187466Y-108107123D01*
X142235085Y-108011885D01*
X142282704Y-107821409D01*
X142282704Y-107678552D01*
X142235085Y-107488076D01*
X142187466Y-107392838D01*
X142092228Y-107297600D01*
X141949371Y-107249980D01*
X141854133Y-107249980D01*
X141711276Y-107297600D01*
X141663657Y-107345219D01*
X140711276Y-108249980D02*
X141282704Y-108249980D01*
X140996990Y-108249980D02*
X140996990Y-107249980D01*
X141092228Y-107392838D01*
X141187466Y-107488076D01*
X141282704Y-107535695D01*
X139758895Y-108249980D02*
X140330323Y-108249980D01*
X140044609Y-108249980D02*
X140044609Y-107249980D01*
X140139847Y-107392838D01*
X140235085Y-107488076D01*
X140330323Y-107535695D01*
X142019257Y-105995742D02*
X142066876Y-106043361D01*
X142209733Y-106090980D01*
X142304971Y-106090980D01*
X142447828Y-106043361D01*
X142543066Y-105948123D01*
X142590685Y-105852885D01*
X142638304Y-105662409D01*
X142638304Y-105519552D01*
X142590685Y-105329076D01*
X142543066Y-105233838D01*
X142447828Y-105138600D01*
X142304971Y-105090980D01*
X142209733Y-105090980D01*
X142066876Y-105138600D01*
X142019257Y-105186219D01*
X141066876Y-106090980D02*
X141638304Y-106090980D01*
X141352590Y-106090980D02*
X141352590Y-105090980D01*
X141447828Y-105233838D01*
X141543066Y-105329076D01*
X141638304Y-105376695D01*
X140685923Y-105186219D02*
X140638304Y-105138600D01*
X140543066Y-105090980D01*
X140304971Y-105090980D01*
X140209733Y-105138600D01*
X140162114Y-105186219D01*
X140114495Y-105281457D01*
X140114495Y-105376695D01*
X140162114Y-105519552D01*
X140733542Y-106090980D01*
X140114495Y-106090980D01*
X139166504Y-98105980D02*
X139166504Y-98915504D01*
X139118885Y-99010742D01*
X139071266Y-99058361D01*
X138976028Y-99105980D01*
X138785552Y-99105980D01*
X138690314Y-99058361D01*
X138642695Y-99010742D01*
X138595076Y-98915504D01*
X138595076Y-98105980D01*
X137690314Y-98439314D02*
X137690314Y-99105980D01*
X137928409Y-98058361D02*
X138166504Y-98772647D01*
X137547457Y-98772647D01*
X136143542Y-99073857D02*
X136179257Y-99109571D01*
X136286400Y-99145285D01*
X136357828Y-99145285D01*
X136464971Y-99109571D01*
X136536400Y-99038142D01*
X136572114Y-98966714D01*
X136607828Y-98823857D01*
X136607828Y-98716714D01*
X136572114Y-98573857D01*
X136536400Y-98502428D01*
X136464971Y-98431000D01*
X136357828Y-98395285D01*
X136286400Y-98395285D01*
X136179257Y-98431000D01*
X136143542Y-98466714D01*
X135429257Y-99145285D02*
X135857828Y-99145285D01*
X135643542Y-99145285D02*
X135643542Y-98395285D01*
X135714971Y-98502428D01*
X135786400Y-98573857D01*
X135857828Y-98609571D01*
X135179257Y-98395285D02*
X134679257Y-98395285D01*
X135000685Y-99145285D01*
X141866857Y-110669342D02*
X141914476Y-110716961D01*
X142057333Y-110764580D01*
X142152571Y-110764580D01*
X142295428Y-110716961D01*
X142390666Y-110621723D01*
X142438285Y-110526485D01*
X142485904Y-110336009D01*
X142485904Y-110193152D01*
X142438285Y-110002676D01*
X142390666Y-109907438D01*
X142295428Y-109812200D01*
X142152571Y-109764580D01*
X142057333Y-109764580D01*
X141914476Y-109812200D01*
X141866857Y-109859819D01*
X140914476Y-110764580D02*
X141485904Y-110764580D01*
X141200190Y-110764580D02*
X141200190Y-109764580D01*
X141295428Y-109907438D01*
X141390666Y-110002676D01*
X141485904Y-110050295D01*
X140343047Y-110193152D02*
X140438285Y-110145533D01*
X140485904Y-110097914D01*
X140533523Y-110002676D01*
X140533523Y-109955057D01*
X140485904Y-109859819D01*
X140438285Y-109812200D01*
X140343047Y-109764580D01*
X140152571Y-109764580D01*
X140057333Y-109812200D01*
X140009714Y-109859819D01*
X139962095Y-109955057D01*
X139962095Y-110002676D01*
X140009714Y-110097914D01*
X140057333Y-110145533D01*
X140152571Y-110193152D01*
X140343047Y-110193152D01*
X140438285Y-110240771D01*
X140485904Y-110288390D01*
X140533523Y-110383628D01*
X140533523Y-110574104D01*
X140485904Y-110669342D01*
X140438285Y-110716961D01*
X140343047Y-110764580D01*
X140152571Y-110764580D01*
X140057333Y-110716961D01*
X140009714Y-110669342D01*
X139962095Y-110574104D01*
X139962095Y-110383628D01*
X140009714Y-110288390D01*
X140057333Y-110240771D01*
X140152571Y-110193152D01*
X181363857Y-137030342D02*
X181411476Y-137077961D01*
X181554333Y-137125580D01*
X181649571Y-137125580D01*
X181792428Y-137077961D01*
X181887666Y-136982723D01*
X181935285Y-136887485D01*
X181982904Y-136697009D01*
X181982904Y-136554152D01*
X181935285Y-136363676D01*
X181887666Y-136268438D01*
X181792428Y-136173200D01*
X181649571Y-136125580D01*
X181554333Y-136125580D01*
X181411476Y-136173200D01*
X181363857Y-136220819D01*
X180411476Y-137125580D02*
X180982904Y-137125580D01*
X180697190Y-137125580D02*
X180697190Y-136125580D01*
X180792428Y-136268438D01*
X180887666Y-136363676D01*
X180982904Y-136411295D01*
X179935285Y-137125580D02*
X179744809Y-137125580D01*
X179649571Y-137077961D01*
X179601952Y-137030342D01*
X179506714Y-136887485D01*
X179459095Y-136697009D01*
X179459095Y-136316057D01*
X179506714Y-136220819D01*
X179554333Y-136173200D01*
X179649571Y-136125580D01*
X179840047Y-136125580D01*
X179935285Y-136173200D01*
X179982904Y-136220819D01*
X180030523Y-136316057D01*
X180030523Y-136554152D01*
X179982904Y-136649390D01*
X179935285Y-136697009D01*
X179840047Y-136744628D01*
X179649571Y-136744628D01*
X179554333Y-136697009D01*
X179506714Y-136649390D01*
X179459095Y-136554152D01*
X178341257Y-123371780D02*
X178674590Y-122895590D01*
X178912685Y-123371780D02*
X178912685Y-122371780D01*
X178531733Y-122371780D01*
X178436495Y-122419400D01*
X178388876Y-122467019D01*
X178341257Y-122562257D01*
X178341257Y-122705114D01*
X178388876Y-122800352D01*
X178436495Y-122847971D01*
X178531733Y-122895590D01*
X178912685Y-122895590D01*
X177388876Y-123371780D02*
X177960304Y-123371780D01*
X177674590Y-123371780D02*
X177674590Y-122371780D01*
X177769828Y-122514638D01*
X177865066Y-122609876D01*
X177960304Y-122657495D01*
X177007923Y-122467019D02*
X176960304Y-122419400D01*
X176865066Y-122371780D01*
X176626971Y-122371780D01*
X176531733Y-122419400D01*
X176484114Y-122467019D01*
X176436495Y-122562257D01*
X176436495Y-122657495D01*
X176484114Y-122800352D01*
X177055542Y-123371780D01*
X176436495Y-123371780D01*
X193536866Y-71680342D02*
X193584485Y-71727961D01*
X193727342Y-71775580D01*
X193822580Y-71775580D01*
X193965438Y-71727961D01*
X194060676Y-71632723D01*
X194108295Y-71537485D01*
X194155914Y-71347009D01*
X194155914Y-71204152D01*
X194108295Y-71013676D01*
X194060676Y-70918438D01*
X193965438Y-70823200D01*
X193822580Y-70775580D01*
X193727342Y-70775580D01*
X193584485Y-70823200D01*
X193536866Y-70870819D01*
X192584485Y-71775580D02*
X193155914Y-71775580D01*
X192870200Y-71775580D02*
X192870200Y-70775580D01*
X192965438Y-70918438D01*
X193060676Y-71013676D01*
X193155914Y-71061295D01*
X139246780Y-136002733D02*
X139246780Y-135526542D01*
X138246780Y-135526542D01*
X139246780Y-136859876D02*
X139246780Y-136288447D01*
X139246780Y-136574161D02*
X138246780Y-136574161D01*
X138389638Y-136478923D01*
X138484876Y-136383685D01*
X138532495Y-136288447D01*
X145638357Y-140205342D02*
X145685976Y-140252961D01*
X145828833Y-140300580D01*
X145924071Y-140300580D01*
X146066928Y-140252961D01*
X146162166Y-140157723D01*
X146209785Y-140062485D01*
X146257404Y-139872009D01*
X146257404Y-139729152D01*
X146209785Y-139538676D01*
X146162166Y-139443438D01*
X146066928Y-139348200D01*
X145924071Y-139300580D01*
X145828833Y-139300580D01*
X145685976Y-139348200D01*
X145638357Y-139395819D01*
X144685976Y-140300580D02*
X145257404Y-140300580D01*
X144971690Y-140300580D02*
X144971690Y-139300580D01*
X145066928Y-139443438D01*
X145162166Y-139538676D01*
X145257404Y-139586295D01*
X143828833Y-139633914D02*
X143828833Y-140300580D01*
X144066928Y-139252961D02*
X144305023Y-139967247D01*
X143685976Y-139967247D01*
X189618857Y-137491742D02*
X189666476Y-137539361D01*
X189809333Y-137586980D01*
X189904571Y-137586980D01*
X190047428Y-137539361D01*
X190142666Y-137444123D01*
X190190285Y-137348885D01*
X190237904Y-137158409D01*
X190237904Y-137015552D01*
X190190285Y-136825076D01*
X190142666Y-136729838D01*
X190047428Y-136634600D01*
X189904571Y-136586980D01*
X189809333Y-136586980D01*
X189666476Y-136634600D01*
X189618857Y-136682219D01*
X188666476Y-137586980D02*
X189237904Y-137586980D01*
X188952190Y-137586980D02*
X188952190Y-136586980D01*
X189047428Y-136729838D01*
X189142666Y-136825076D01*
X189237904Y-136872695D01*
X187761714Y-136586980D02*
X188237904Y-136586980D01*
X188285523Y-137063171D01*
X188237904Y-137015552D01*
X188142666Y-136967933D01*
X187904571Y-136967933D01*
X187809333Y-137015552D01*
X187761714Y-137063171D01*
X187714095Y-137158409D01*
X187714095Y-137396504D01*
X187761714Y-137491742D01*
X187809333Y-137539361D01*
X187904571Y-137586980D01*
X188142666Y-137586980D01*
X188237904Y-137539361D01*
X188285523Y-137491742D01*
X135669257Y-133503942D02*
X135716876Y-133551561D01*
X135859733Y-133599180D01*
X135954971Y-133599180D01*
X136097828Y-133551561D01*
X136193066Y-133456323D01*
X136240685Y-133361085D01*
X136288304Y-133170609D01*
X136288304Y-133027752D01*
X136240685Y-132837276D01*
X136193066Y-132742038D01*
X136097828Y-132646800D01*
X135954971Y-132599180D01*
X135859733Y-132599180D01*
X135716876Y-132646800D01*
X135669257Y-132694419D01*
X135288304Y-132694419D02*
X135240685Y-132646800D01*
X135145447Y-132599180D01*
X134907352Y-132599180D01*
X134812114Y-132646800D01*
X134764495Y-132694419D01*
X134716876Y-132789657D01*
X134716876Y-132884895D01*
X134764495Y-133027752D01*
X135335923Y-133599180D01*
X134716876Y-133599180D01*
X134097828Y-132599180D02*
X134002590Y-132599180D01*
X133907352Y-132646800D01*
X133859733Y-132694419D01*
X133812114Y-132789657D01*
X133764495Y-132980133D01*
X133764495Y-133218228D01*
X133812114Y-133408704D01*
X133859733Y-133503942D01*
X133907352Y-133551561D01*
X134002590Y-133599180D01*
X134097828Y-133599180D01*
X134193066Y-133551561D01*
X134240685Y-133503942D01*
X134288304Y-133408704D01*
X134335923Y-133218228D01*
X134335923Y-132980133D01*
X134288304Y-132789657D01*
X134240685Y-132694419D01*
X134193066Y-132646800D01*
X134097828Y-132599180D01*
X175536742Y-137050542D02*
X175584361Y-137002923D01*
X175631980Y-136860066D01*
X175631980Y-136764828D01*
X175584361Y-136621971D01*
X175489123Y-136526733D01*
X175393885Y-136479114D01*
X175203409Y-136431495D01*
X175060552Y-136431495D01*
X174870076Y-136479114D01*
X174774838Y-136526733D01*
X174679600Y-136621971D01*
X174631980Y-136764828D01*
X174631980Y-136860066D01*
X174679600Y-137002923D01*
X174727219Y-137050542D01*
X174727219Y-137431495D02*
X174679600Y-137479114D01*
X174631980Y-137574352D01*
X174631980Y-137812447D01*
X174679600Y-137907685D01*
X174727219Y-137955304D01*
X174822457Y-138002923D01*
X174917695Y-138002923D01*
X175060552Y-137955304D01*
X175631980Y-137383876D01*
X175631980Y-138002923D01*
X175631980Y-138955304D02*
X175631980Y-138383876D01*
X175631980Y-138669590D02*
X174631980Y-138669590D01*
X174774838Y-138574352D01*
X174870076Y-138479114D01*
X174917695Y-138383876D01*
%LPC*%
G36*
G01*
X183882400Y-71712800D02*
X182182400Y-71712800D01*
G75*
G02*
X181982400Y-71512800I0J200000D01*
G01*
X181982400Y-69812800D01*
G75*
G02*
X182182400Y-69612800I200000J0D01*
G01*
X183882400Y-69612800D01*
G75*
G02*
X184082400Y-69812800I0J-200000D01*
G01*
X184082400Y-71512800D01*
G75*
G02*
X183882400Y-71712800I-200000J0D01*
G01*
G37*
D14*
X185572400Y-70662800D03*
G36*
G01*
X201532200Y-116955200D02*
X201532200Y-118655200D01*
G75*
G02*
X201332200Y-118855200I-200000J0D01*
G01*
X199632200Y-118855200D01*
G75*
G02*
X199432200Y-118655200I0J200000D01*
G01*
X199432200Y-116955200D01*
G75*
G02*
X199632200Y-116755200I200000J0D01*
G01*
X201332200Y-116755200D01*
G75*
G02*
X201532200Y-116955200I0J-200000D01*
G01*
G37*
X200482200Y-115265200D03*
X200482200Y-112725200D03*
X200482200Y-110185200D03*
X200482200Y-107645200D03*
X200482200Y-105105200D03*
D15*
X168198800Y-100253800D03*
X151790400Y-100253800D03*
G36*
G01*
X128663400Y-59475321D02*
X128663400Y-60971479D01*
G75*
G02*
X128336479Y-61298400I-326921J0D01*
G01*
X127290321Y-61298400D01*
G75*
G02*
X126963400Y-60971479I0J326921D01*
G01*
X126963400Y-59475321D01*
G75*
G02*
X127290321Y-59148400I326921J0D01*
G01*
X128336479Y-59148400D01*
G75*
G02*
X128663400Y-59475321I0J-326921D01*
G01*
G37*
G36*
G01*
X125563400Y-59475321D02*
X125563400Y-60971479D01*
G75*
G02*
X125236479Y-61298400I-326921J0D01*
G01*
X124190321Y-61298400D01*
G75*
G02*
X123863400Y-60971479I0J326921D01*
G01*
X123863400Y-59475321D01*
G75*
G02*
X124190321Y-59148400I326921J0D01*
G01*
X125236479Y-59148400D01*
G75*
G02*
X125563400Y-59475321I0J-326921D01*
G01*
G37*
G36*
G01*
X118479521Y-61736200D02*
X119975679Y-61736200D01*
G75*
G02*
X120302600Y-62063121I0J-326921D01*
G01*
X120302600Y-63109279D01*
G75*
G02*
X119975679Y-63436200I-326921J0D01*
G01*
X118479521Y-63436200D01*
G75*
G02*
X118152600Y-63109279I0J326921D01*
G01*
X118152600Y-62063121D01*
G75*
G02*
X118479521Y-61736200I326921J0D01*
G01*
G37*
G36*
G01*
X118479521Y-58636200D02*
X119975679Y-58636200D01*
G75*
G02*
X120302600Y-58963121I0J-326921D01*
G01*
X120302600Y-60009279D01*
G75*
G02*
X119975679Y-60336200I-326921J0D01*
G01*
X118479521Y-60336200D01*
G75*
G02*
X118152600Y-60009279I0J326921D01*
G01*
X118152600Y-58963121D01*
G75*
G02*
X118479521Y-58636200I326921J0D01*
G01*
G37*
G36*
G01*
X121603721Y-58661000D02*
X123099879Y-58661000D01*
G75*
G02*
X123426800Y-58987921I0J-326921D01*
G01*
X123426800Y-60034079D01*
G75*
G02*
X123099879Y-60361000I-326921J0D01*
G01*
X121603721Y-60361000D01*
G75*
G02*
X121276800Y-60034079I0J326921D01*
G01*
X121276800Y-58987921D01*
G75*
G02*
X121603721Y-58661000I326921J0D01*
G01*
G37*
G36*
G01*
X121603721Y-61761000D02*
X123099879Y-61761000D01*
G75*
G02*
X123426800Y-62087921I0J-326921D01*
G01*
X123426800Y-63134079D01*
G75*
G02*
X123099879Y-63461000I-326921J0D01*
G01*
X121603721Y-63461000D01*
G75*
G02*
X121276800Y-63134079I0J326921D01*
G01*
X121276800Y-62087921D01*
G75*
G02*
X121603721Y-61761000I326921J0D01*
G01*
G37*
X160083500Y-64262000D03*
X160020000Y-139954000D03*
X160096200Y-56413400D03*
X160020000Y-147828000D03*
G36*
G01*
X129201922Y-63424414D02*
X129549218Y-65394030D01*
G75*
G02*
X129386986Y-65625722I-196962J-34730D01*
G01*
X127417370Y-65973018D01*
G75*
G02*
X127185678Y-65810786I-34730J196962D01*
G01*
X126838382Y-63841170D01*
G75*
G02*
X127000614Y-63609478I196962J34730D01*
G01*
X128970230Y-63262182D01*
G75*
G02*
X129201922Y-63424414I34730J-196962D01*
G01*
G37*
D16*
X120709261Y-65937326D03*
G36*
G01*
X125438575Y-61554370D02*
X127170625Y-62554370D01*
G75*
G02*
X127243830Y-62827575I-100000J-173205D01*
G01*
X126243830Y-64559625D01*
G75*
G02*
X125970625Y-64632830I-173205J100000D01*
G01*
X124238575Y-63632830D01*
G75*
G02*
X124165370Y-63359625I100000J173205D01*
G01*
X125165370Y-61627575D01*
G75*
G02*
X125438575Y-61554370I173205J-100000D01*
G01*
G37*
X123204600Y-67423727D03*
G36*
G01*
X193049400Y-61074400D02*
X193049400Y-62674400D01*
G75*
G02*
X192849400Y-62874400I-200000J0D01*
G01*
X191249400Y-62874400D01*
G75*
G02*
X191049400Y-62674400I0J200000D01*
G01*
X191049400Y-61074400D01*
G75*
G02*
X191249400Y-60874400I200000J0D01*
G01*
X192849400Y-60874400D01*
G75*
G02*
X193049400Y-61074400I0J-200000D01*
G01*
G37*
D17*
X189549400Y-61874400D03*
G36*
G01*
X136360600Y-63614131D02*
X136360600Y-62065069D01*
G75*
G02*
X136686069Y-61739600I325469J0D01*
G01*
X137760131Y-61739600D01*
G75*
G02*
X138085600Y-62065069I0J-325469D01*
G01*
X138085600Y-63614131D01*
G75*
G02*
X137760131Y-63939600I-325469J0D01*
G01*
X136686069Y-63939600D01*
G75*
G02*
X136360600Y-63614131I0J325469D01*
G01*
G37*
G36*
G01*
X139485600Y-63614131D02*
X139485600Y-62065069D01*
G75*
G02*
X139811069Y-61739600I325469J0D01*
G01*
X140885131Y-61739600D01*
G75*
G02*
X141210600Y-62065069I0J-325469D01*
G01*
X141210600Y-63614131D01*
G75*
G02*
X140885131Y-63939600I-325469J0D01*
G01*
X139811069Y-63939600D01*
G75*
G02*
X139485600Y-63614131I0J325469D01*
G01*
G37*
G36*
G01*
X154774731Y-66712400D02*
X153225669Y-66712400D01*
G75*
G02*
X152900200Y-66386931I0J325469D01*
G01*
X152900200Y-65312869D01*
G75*
G02*
X153225669Y-64987400I325469J0D01*
G01*
X154774731Y-64987400D01*
G75*
G02*
X155100200Y-65312869I0J-325469D01*
G01*
X155100200Y-66386931D01*
G75*
G02*
X154774731Y-66712400I-325469J0D01*
G01*
G37*
G36*
G01*
X154774731Y-63587400D02*
X153225669Y-63587400D01*
G75*
G02*
X152900200Y-63261931I0J325469D01*
G01*
X152900200Y-62187869D01*
G75*
G02*
X153225669Y-61862400I325469J0D01*
G01*
X154774731Y-61862400D01*
G75*
G02*
X155100200Y-62187869I0J-325469D01*
G01*
X155100200Y-63261931D01*
G75*
G02*
X154774731Y-63587400I-325469J0D01*
G01*
G37*
G36*
G01*
X121781800Y-113546000D02*
X121781800Y-114546000D01*
G75*
G02*
X121581800Y-114746000I-200000J0D01*
G01*
X120581800Y-114746000D01*
G75*
G02*
X120381800Y-114546000I0J200000D01*
G01*
X120381800Y-113546000D01*
G75*
G02*
X120581800Y-113346000I200000J0D01*
G01*
X121581800Y-113346000D01*
G75*
G02*
X121781800Y-113546000I0J-200000D01*
G01*
G37*
D18*
X119811800Y-114046000D03*
X121081800Y-112776000D03*
X119811800Y-112776000D03*
X121081800Y-111506000D03*
X119811800Y-111506000D03*
X121081800Y-110236000D03*
X119811800Y-110236000D03*
X121081800Y-108966000D03*
X119811800Y-108966000D03*
G36*
G01*
X126204000Y-107225200D02*
X126204000Y-105525200D01*
G75*
G02*
X126404000Y-105325200I200000J0D01*
G01*
X128104000Y-105325200D01*
G75*
G02*
X128304000Y-105525200I0J-200000D01*
G01*
X128304000Y-107225200D01*
G75*
G02*
X128104000Y-107425200I-200000J0D01*
G01*
X126404000Y-107425200D01*
G75*
G02*
X126204000Y-107225200I0J200000D01*
G01*
G37*
D14*
X127254000Y-108915200D03*
X127254000Y-111455200D03*
X127254000Y-113995200D03*
X127254000Y-116535200D03*
G36*
G01*
X124232200Y-112433800D02*
X124232200Y-110933800D01*
G75*
G02*
X124432200Y-110733800I200000J0D01*
G01*
X125432200Y-110733800D01*
G75*
G02*
X125632200Y-110933800I0J-200000D01*
G01*
X125632200Y-112433800D01*
G75*
G02*
X125432200Y-112633800I-200000J0D01*
G01*
X124432200Y-112633800D01*
G75*
G02*
X124232200Y-112433800I0J200000D01*
G01*
G37*
G36*
G01*
X122932200Y-112433800D02*
X122932200Y-110933800D01*
G75*
G02*
X123132200Y-110733800I200000J0D01*
G01*
X124132200Y-110733800D01*
G75*
G02*
X124332200Y-110933800I0J-200000D01*
G01*
X124332200Y-112433800D01*
G75*
G02*
X124132200Y-112633800I-200000J0D01*
G01*
X123132200Y-112633800D01*
G75*
G02*
X122932200Y-112433800I0J200000D01*
G01*
G37*
G36*
G01*
X123875000Y-108139800D02*
X123875000Y-109639800D01*
G75*
G02*
X123675000Y-109839800I-200000J0D01*
G01*
X122675000Y-109839800D01*
G75*
G02*
X122475000Y-109639800I0J200000D01*
G01*
X122475000Y-108139800D01*
G75*
G02*
X122675000Y-107939800I200000J0D01*
G01*
X123675000Y-107939800D01*
G75*
G02*
X123875000Y-108139800I0J-200000D01*
G01*
G37*
G36*
G01*
X125175000Y-108139800D02*
X125175000Y-109639800D01*
G75*
G02*
X124975000Y-109839800I-200000J0D01*
G01*
X123975000Y-109839800D01*
G75*
G02*
X123775000Y-109639800I0J200000D01*
G01*
X123775000Y-108139800D01*
G75*
G02*
X123975000Y-107939800I200000J0D01*
G01*
X124975000Y-107939800D01*
G75*
G02*
X125175000Y-108139800I0J-200000D01*
G01*
G37*
G36*
G01*
X125327400Y-114820000D02*
X125327400Y-116320000D01*
G75*
G02*
X125127400Y-116520000I-200000J0D01*
G01*
X124127400Y-116520000D01*
G75*
G02*
X123927400Y-116320000I0J200000D01*
G01*
X123927400Y-114820000D01*
G75*
G02*
X124127400Y-114620000I200000J0D01*
G01*
X125127400Y-114620000D01*
G75*
G02*
X125327400Y-114820000I0J-200000D01*
G01*
G37*
G36*
G01*
X124027400Y-114820000D02*
X124027400Y-116320000D01*
G75*
G02*
X123827400Y-116520000I-200000J0D01*
G01*
X122827400Y-116520000D01*
G75*
G02*
X122627400Y-116320000I0J200000D01*
G01*
X122627400Y-114820000D01*
G75*
G02*
X122827400Y-114620000I200000J0D01*
G01*
X123827400Y-114620000D01*
G75*
G02*
X124027400Y-114820000I0J-200000D01*
G01*
G37*
D19*
X190677800Y-123596400D03*
X189407800Y-122326400D03*
G36*
G01*
X192797800Y-121676400D02*
X192797800Y-122976400D01*
G75*
G02*
X192597800Y-123176400I-200000J0D01*
G01*
X191297800Y-123176400D01*
G75*
G02*
X191097800Y-122976400I0J200000D01*
G01*
X191097800Y-121676400D01*
G75*
G02*
X191297800Y-121476400I200000J0D01*
G01*
X192597800Y-121476400D01*
G75*
G02*
X192797800Y-121676400I0J-200000D01*
G01*
G37*
G36*
G01*
X167601000Y-133741400D02*
X167601000Y-135041400D01*
G75*
G02*
X167401000Y-135241400I-200000J0D01*
G01*
X166101000Y-135241400D01*
G75*
G02*
X165901000Y-135041400I0J200000D01*
G01*
X165901000Y-133741400D01*
G75*
G02*
X166101000Y-133541400I200000J0D01*
G01*
X167401000Y-133541400D01*
G75*
G02*
X167601000Y-133741400I0J-200000D01*
G01*
G37*
X164211000Y-134391400D03*
X165481000Y-135661400D03*
X129692400Y-123393200D03*
X128422400Y-122123200D03*
G36*
G01*
X131812400Y-121473200D02*
X131812400Y-122773200D01*
G75*
G02*
X131612400Y-122973200I-200000J0D01*
G01*
X130312400Y-122973200D01*
G75*
G02*
X130112400Y-122773200I0J200000D01*
G01*
X130112400Y-121473200D01*
G75*
G02*
X130312400Y-121273200I200000J0D01*
G01*
X131612400Y-121273200D01*
G75*
G02*
X131812400Y-121473200I0J-200000D01*
G01*
G37*
G36*
G01*
X156882200Y-133741400D02*
X156882200Y-135041400D01*
G75*
G02*
X156682200Y-135241400I-200000J0D01*
G01*
X155382200Y-135241400D01*
G75*
G02*
X155182200Y-135041400I0J200000D01*
G01*
X155182200Y-133741400D01*
G75*
G02*
X155382200Y-133541400I200000J0D01*
G01*
X156682200Y-133541400D01*
G75*
G02*
X156882200Y-133741400I0J-200000D01*
G01*
G37*
X153492200Y-134391400D03*
X154762200Y-135661400D03*
X132308600Y-62026800D03*
X133578600Y-60756800D03*
G36*
G01*
X134228600Y-64146800D02*
X132928600Y-64146800D01*
G75*
G02*
X132728600Y-63946800I0J200000D01*
G01*
X132728600Y-62646800D01*
G75*
G02*
X132928600Y-62446800I200000J0D01*
G01*
X134228600Y-62446800D01*
G75*
G02*
X134428600Y-62646800I0J-200000D01*
G01*
X134428600Y-63946800D01*
G75*
G02*
X134228600Y-64146800I-200000J0D01*
G01*
G37*
G36*
G01*
X191324000Y-119266921D02*
X191324000Y-120763079D01*
G75*
G02*
X190997079Y-121090000I-326921J0D01*
G01*
X189950921Y-121090000D01*
G75*
G02*
X189624000Y-120763079I0J326921D01*
G01*
X189624000Y-119266921D01*
G75*
G02*
X189950921Y-118940000I326921J0D01*
G01*
X190997079Y-118940000D01*
G75*
G02*
X191324000Y-119266921I0J-326921D01*
G01*
G37*
G36*
G01*
X194424000Y-119266921D02*
X194424000Y-120763079D01*
G75*
G02*
X194097079Y-121090000I-326921J0D01*
G01*
X193050921Y-121090000D01*
G75*
G02*
X192724000Y-120763079I0J326921D01*
G01*
X192724000Y-119266921D01*
G75*
G02*
X193050921Y-118940000I326921J0D01*
G01*
X194097079Y-118940000D01*
G75*
G02*
X194424000Y-119266921I0J-326921D01*
G01*
G37*
G36*
G01*
X166279879Y-138517400D02*
X164783721Y-138517400D01*
G75*
G02*
X164456800Y-138190479I0J326921D01*
G01*
X164456800Y-137144321D01*
G75*
G02*
X164783721Y-136817400I326921J0D01*
G01*
X166279879Y-136817400D01*
G75*
G02*
X166606800Y-137144321I0J-326921D01*
G01*
X166606800Y-138190479D01*
G75*
G02*
X166279879Y-138517400I-326921J0D01*
G01*
G37*
G36*
G01*
X166279879Y-141617400D02*
X164783721Y-141617400D01*
G75*
G02*
X164456800Y-141290479I0J326921D01*
G01*
X164456800Y-140244321D01*
G75*
G02*
X164783721Y-139917400I326921J0D01*
G01*
X166279879Y-139917400D01*
G75*
G02*
X166606800Y-140244321I0J-326921D01*
G01*
X166606800Y-141290479D01*
G75*
G02*
X166279879Y-141617400I-326921J0D01*
G01*
G37*
G36*
G01*
X128716000Y-120661479D02*
X128716000Y-119165321D01*
G75*
G02*
X129042921Y-118838400I326921J0D01*
G01*
X130089079Y-118838400D01*
G75*
G02*
X130416000Y-119165321I0J-326921D01*
G01*
X130416000Y-120661479D01*
G75*
G02*
X130089079Y-120988400I-326921J0D01*
G01*
X129042921Y-120988400D01*
G75*
G02*
X128716000Y-120661479I0J326921D01*
G01*
G37*
G36*
G01*
X125616000Y-120661479D02*
X125616000Y-119165321D01*
G75*
G02*
X125942921Y-118838400I326921J0D01*
G01*
X126989079Y-118838400D01*
G75*
G02*
X127316000Y-119165321I0J-326921D01*
G01*
X127316000Y-120661479D01*
G75*
G02*
X126989079Y-120988400I-326921J0D01*
G01*
X125942921Y-120988400D01*
G75*
G02*
X125616000Y-120661479I0J326921D01*
G01*
G37*
G36*
G01*
X155154679Y-141642800D02*
X153658521Y-141642800D01*
G75*
G02*
X153331600Y-141315879I0J326921D01*
G01*
X153331600Y-140269721D01*
G75*
G02*
X153658521Y-139942800I326921J0D01*
G01*
X155154679Y-139942800D01*
G75*
G02*
X155481600Y-140269721I0J-326921D01*
G01*
X155481600Y-141315879D01*
G75*
G02*
X155154679Y-141642800I-326921J0D01*
G01*
G37*
G36*
G01*
X155154679Y-138542800D02*
X153658521Y-138542800D01*
G75*
G02*
X153331600Y-138215879I0J326921D01*
G01*
X153331600Y-137169721D01*
G75*
G02*
X153658521Y-136842800I326921J0D01*
G01*
X155154679Y-136842800D01*
G75*
G02*
X155481600Y-137169721I0J-326921D01*
G01*
X155481600Y-138215879D01*
G75*
G02*
X155154679Y-138542800I-326921J0D01*
G01*
G37*
G36*
G01*
X131126279Y-104887800D02*
X129630121Y-104887800D01*
G75*
G02*
X129303200Y-104560879I0J326921D01*
G01*
X129303200Y-103514721D01*
G75*
G02*
X129630121Y-103187800I326921J0D01*
G01*
X131126279Y-103187800D01*
G75*
G02*
X131453200Y-103514721I0J-326921D01*
G01*
X131453200Y-104560879D01*
G75*
G02*
X131126279Y-104887800I-326921J0D01*
G01*
G37*
G36*
G01*
X131126279Y-107987800D02*
X129630121Y-107987800D01*
G75*
G02*
X129303200Y-107660879I0J326921D01*
G01*
X129303200Y-106614721D01*
G75*
G02*
X129630121Y-106287800I326921J0D01*
G01*
X131126279Y-106287800D01*
G75*
G02*
X131453200Y-106614721I0J-326921D01*
G01*
X131453200Y-107660879D01*
G75*
G02*
X131126279Y-107987800I-326921J0D01*
G01*
G37*
G36*
G01*
X133590079Y-107962400D02*
X132093921Y-107962400D01*
G75*
G02*
X131767000Y-107635479I0J326921D01*
G01*
X131767000Y-106589321D01*
G75*
G02*
X132093921Y-106262400I326921J0D01*
G01*
X133590079Y-106262400D01*
G75*
G02*
X133917000Y-106589321I0J-326921D01*
G01*
X133917000Y-107635479D01*
G75*
G02*
X133590079Y-107962400I-326921J0D01*
G01*
G37*
G36*
G01*
X133590079Y-104862400D02*
X132093921Y-104862400D01*
G75*
G02*
X131767000Y-104535479I0J326921D01*
G01*
X131767000Y-103489321D01*
G75*
G02*
X132093921Y-103162400I326921J0D01*
G01*
X133590079Y-103162400D01*
G75*
G02*
X133917000Y-103489321I0J-326921D01*
G01*
X133917000Y-104535479D01*
G75*
G02*
X133590079Y-104862400I-326921J0D01*
G01*
G37*
G36*
G01*
X131227879Y-57821600D02*
X129731721Y-57821600D01*
G75*
G02*
X129404800Y-57494679I0J326921D01*
G01*
X129404800Y-56448521D01*
G75*
G02*
X129731721Y-56121600I326921J0D01*
G01*
X131227879Y-56121600D01*
G75*
G02*
X131554800Y-56448521I0J-326921D01*
G01*
X131554800Y-57494679D01*
G75*
G02*
X131227879Y-57821600I-326921J0D01*
G01*
G37*
G36*
G01*
X131227879Y-60921600D02*
X129731721Y-60921600D01*
G75*
G02*
X129404800Y-60594679I0J326921D01*
G01*
X129404800Y-59548521D01*
G75*
G02*
X129731721Y-59221600I326921J0D01*
G01*
X131227879Y-59221600D01*
G75*
G02*
X131554800Y-59548521I0J-326921D01*
G01*
X131554800Y-60594679D01*
G75*
G02*
X131227879Y-60921600I-326921J0D01*
G01*
G37*
G36*
G01*
X188784279Y-128561800D02*
X187288121Y-128561800D01*
G75*
G02*
X186961200Y-128234879I0J326921D01*
G01*
X186961200Y-127188721D01*
G75*
G02*
X187288121Y-126861800I326921J0D01*
G01*
X188784279Y-126861800D01*
G75*
G02*
X189111200Y-127188721I0J-326921D01*
G01*
X189111200Y-128234879D01*
G75*
G02*
X188784279Y-128561800I-326921J0D01*
G01*
G37*
G36*
G01*
X188784279Y-125461800D02*
X187288121Y-125461800D01*
G75*
G02*
X186961200Y-125134879I0J326921D01*
G01*
X186961200Y-124088721D01*
G75*
G02*
X187288121Y-123761800I326921J0D01*
G01*
X188784279Y-123761800D01*
G75*
G02*
X189111200Y-124088721I0J-326921D01*
G01*
X189111200Y-125134879D01*
G75*
G02*
X188784279Y-125461800I-326921J0D01*
G01*
G37*
G36*
G01*
X169127121Y-132550200D02*
X170623279Y-132550200D01*
G75*
G02*
X170950200Y-132877121I0J-326921D01*
G01*
X170950200Y-133923279D01*
G75*
G02*
X170623279Y-134250200I-326921J0D01*
G01*
X169127121Y-134250200D01*
G75*
G02*
X168800200Y-133923279I0J326921D01*
G01*
X168800200Y-132877121D01*
G75*
G02*
X169127121Y-132550200I326921J0D01*
G01*
G37*
G36*
G01*
X169127121Y-135650200D02*
X170623279Y-135650200D01*
G75*
G02*
X170950200Y-135977121I0J-326921D01*
G01*
X170950200Y-137023279D01*
G75*
G02*
X170623279Y-137350200I-326921J0D01*
G01*
X169127121Y-137350200D01*
G75*
G02*
X168800200Y-137023279I0J326921D01*
G01*
X168800200Y-135977121D01*
G75*
G02*
X169127121Y-135650200I326921J0D01*
G01*
G37*
G36*
G01*
X132957521Y-120155000D02*
X134453679Y-120155000D01*
G75*
G02*
X134780600Y-120481921I0J-326921D01*
G01*
X134780600Y-121528079D01*
G75*
G02*
X134453679Y-121855000I-326921J0D01*
G01*
X132957521Y-121855000D01*
G75*
G02*
X132630600Y-121528079I0J326921D01*
G01*
X132630600Y-120481921D01*
G75*
G02*
X132957521Y-120155000I326921J0D01*
G01*
G37*
G36*
G01*
X132957521Y-123255000D02*
X134453679Y-123255000D01*
G75*
G02*
X134780600Y-123581921I0J-326921D01*
G01*
X134780600Y-124628079D01*
G75*
G02*
X134453679Y-124955000I-326921J0D01*
G01*
X132957521Y-124955000D01*
G75*
G02*
X132630600Y-124628079I0J326921D01*
G01*
X132630600Y-123581921D01*
G75*
G02*
X132957521Y-123255000I326921J0D01*
G01*
G37*
G36*
G01*
X158205121Y-132321600D02*
X159701279Y-132321600D01*
G75*
G02*
X160028200Y-132648521I0J-326921D01*
G01*
X160028200Y-133694679D01*
G75*
G02*
X159701279Y-134021600I-326921J0D01*
G01*
X158205121Y-134021600D01*
G75*
G02*
X157878200Y-133694679I0J326921D01*
G01*
X157878200Y-132648521D01*
G75*
G02*
X158205121Y-132321600I326921J0D01*
G01*
G37*
G36*
G01*
X158205121Y-135421600D02*
X159701279Y-135421600D01*
G75*
G02*
X160028200Y-135748521I0J-326921D01*
G01*
X160028200Y-136794679D01*
G75*
G02*
X159701279Y-137121600I-326921J0D01*
G01*
X158205121Y-137121600D01*
G75*
G02*
X157878200Y-136794679I0J326921D01*
G01*
X157878200Y-135748521D01*
G75*
G02*
X158205121Y-135421600I326921J0D01*
G01*
G37*
G36*
G01*
X145096000Y-130392121D02*
X145096000Y-131888279D01*
G75*
G02*
X144769079Y-132215200I-326921J0D01*
G01*
X143722921Y-132215200D01*
G75*
G02*
X143396000Y-131888279I0J326921D01*
G01*
X143396000Y-130392121D01*
G75*
G02*
X143722921Y-130065200I326921J0D01*
G01*
X144769079Y-130065200D01*
G75*
G02*
X145096000Y-130392121I0J-326921D01*
G01*
G37*
G36*
G01*
X148196000Y-130392121D02*
X148196000Y-131888279D01*
G75*
G02*
X147869079Y-132215200I-326921J0D01*
G01*
X146822921Y-132215200D01*
G75*
G02*
X146496000Y-131888279I0J326921D01*
G01*
X146496000Y-130392121D01*
G75*
G02*
X146822921Y-130065200I326921J0D01*
G01*
X147869079Y-130065200D01*
G75*
G02*
X148196000Y-130392121I0J-326921D01*
G01*
G37*
G36*
G01*
X128995300Y-67100144D02*
X128247221Y-68395855D01*
G75*
G02*
X127800638Y-68515517I-283122J163460D01*
G01*
X126894639Y-67992438D01*
G75*
G02*
X126774978Y-67545856I163461J283122D01*
G01*
X127523057Y-66250145D01*
G75*
G02*
X127969640Y-66130483I283122J-163460D01*
G01*
X128875639Y-66653562D01*
G75*
G02*
X128995300Y-67100144I-163461J-283122D01*
G01*
G37*
G36*
G01*
X126310622Y-65550144D02*
X125562543Y-66845855D01*
G75*
G02*
X125115960Y-66965517I-283122J163460D01*
G01*
X124209961Y-66442438D01*
G75*
G02*
X124090300Y-65995856I163461J283122D01*
G01*
X124838379Y-64700145D01*
G75*
G02*
X125284962Y-64580483I283122J-163460D01*
G01*
X126190961Y-65103562D01*
G75*
G02*
X126310622Y-65550144I-163461J-283122D01*
G01*
G37*
G36*
G01*
X156985921Y-121146800D02*
X158482079Y-121146800D01*
G75*
G02*
X158809000Y-121473721I0J-326921D01*
G01*
X158809000Y-122519879D01*
G75*
G02*
X158482079Y-122846800I-326921J0D01*
G01*
X156985921Y-122846800D01*
G75*
G02*
X156659000Y-122519879I0J326921D01*
G01*
X156659000Y-121473721D01*
G75*
G02*
X156985921Y-121146800I326921J0D01*
G01*
G37*
G36*
G01*
X156985921Y-118046800D02*
X158482079Y-118046800D01*
G75*
G02*
X158809000Y-118373721I0J-326921D01*
G01*
X158809000Y-119419879D01*
G75*
G02*
X158482079Y-119746800I-326921J0D01*
G01*
X156985921Y-119746800D01*
G75*
G02*
X156659000Y-119419879I0J326921D01*
G01*
X156659000Y-118373721D01*
G75*
G02*
X156985921Y-118046800I326921J0D01*
G01*
G37*
G36*
G01*
X155688079Y-122846800D02*
X154191921Y-122846800D01*
G75*
G02*
X153865000Y-122519879I0J326921D01*
G01*
X153865000Y-121473721D01*
G75*
G02*
X154191921Y-121146800I326921J0D01*
G01*
X155688079Y-121146800D01*
G75*
G02*
X156015000Y-121473721I0J-326921D01*
G01*
X156015000Y-122519879D01*
G75*
G02*
X155688079Y-122846800I-326921J0D01*
G01*
G37*
G36*
G01*
X155688079Y-119746800D02*
X154191921Y-119746800D01*
G75*
G02*
X153865000Y-119419879I0J326921D01*
G01*
X153865000Y-118373721D01*
G75*
G02*
X154191921Y-118046800I326921J0D01*
G01*
X155688079Y-118046800D01*
G75*
G02*
X156015000Y-118373721I0J-326921D01*
G01*
X156015000Y-119419879D01*
G75*
G02*
X155688079Y-119746800I-326921J0D01*
G01*
G37*
D20*
X198196200Y-63119000D03*
X198196200Y-67945000D03*
X198196200Y-58293000D03*
G36*
G01*
X191885200Y-55515800D02*
X193585200Y-55515800D01*
G75*
G02*
X193785200Y-55715800I0J-200000D01*
G01*
X193785200Y-57415800D01*
G75*
G02*
X193585200Y-57615800I-200000J0D01*
G01*
X191885200Y-57615800D01*
G75*
G02*
X191685200Y-57415800I0J200000D01*
G01*
X191685200Y-55715800D01*
G75*
G02*
X191885200Y-55515800I200000J0D01*
G01*
G37*
G36*
G01*
X137778200Y-137453000D02*
X137778200Y-139153000D01*
G75*
G02*
X137578200Y-139353000I-200000J0D01*
G01*
X135878200Y-139353000D01*
G75*
G02*
X135678200Y-139153000I0J200000D01*
G01*
X135678200Y-137453000D01*
G75*
G02*
X135878200Y-137253000I200000J0D01*
G01*
X137578200Y-137253000D01*
G75*
G02*
X137778200Y-137453000I0J-200000D01*
G01*
G37*
G36*
G01*
X138112400Y-69199000D02*
X136512400Y-69199000D01*
G75*
G02*
X136312400Y-68999000I0J200000D01*
G01*
X136312400Y-67399000D01*
G75*
G02*
X136512400Y-67199000I200000J0D01*
G01*
X138112400Y-67199000D01*
G75*
G02*
X138312400Y-67399000I0J-200000D01*
G01*
X138312400Y-68999000D01*
G75*
G02*
X138112400Y-69199000I-200000J0D01*
G01*
G37*
D21*
X155092400Y-60579000D03*
X139852400Y-68199000D03*
X152552400Y-60579000D03*
X142392400Y-68199000D03*
X150012400Y-60579000D03*
X144932400Y-68199000D03*
X147472400Y-60579000D03*
X147472400Y-68199000D03*
X144932400Y-60579000D03*
X150012400Y-68199000D03*
X142392400Y-60579000D03*
X152552400Y-68199000D03*
X139852400Y-60579000D03*
X155092400Y-68199000D03*
X137312400Y-60579000D03*
D22*
X132254000Y-78376000D03*
X132254000Y-96376000D03*
X187786000Y-78376000D03*
X187786000Y-96376000D03*
D20*
X161493200Y-73406000D03*
X166319200Y-73406000D03*
X156667200Y-73406000D03*
G36*
G01*
X194835600Y-122058000D02*
X194835600Y-120258000D01*
G75*
G02*
X195035600Y-120058000I200000J0D01*
G01*
X196835600Y-120058000D01*
G75*
G02*
X197035600Y-120258000I0J-200000D01*
G01*
X197035600Y-122058000D01*
G75*
G02*
X196835600Y-122258000I-200000J0D01*
G01*
X195035600Y-122258000D01*
G75*
G02*
X194835600Y-122058000I0J200000D01*
G01*
G37*
D23*
X198475600Y-121158000D03*
D16*
X197205600Y-124968000D03*
X165875971Y-145140247D03*
D23*
X163032942Y-142303667D03*
G36*
G01*
X162214223Y-145962806D02*
X160603341Y-145159650D01*
G75*
G02*
X160513594Y-144891423I89240J178987D01*
G01*
X161316750Y-143280541D01*
G75*
G02*
X161584977Y-143190794I178987J-89240D01*
G01*
X163195859Y-143993950D01*
G75*
G02*
X163285606Y-144262177I-89240J-178987D01*
G01*
X162482450Y-145873059D01*
G75*
G02*
X162214223Y-145962806I-178987J89240D01*
G01*
G37*
D16*
X122948700Y-124841000D03*
D23*
X124218700Y-121031000D03*
G36*
G01*
X120578700Y-121931000D02*
X120578700Y-120131000D01*
G75*
G02*
X120778700Y-119931000I200000J0D01*
G01*
X122578700Y-119931000D01*
G75*
G02*
X122778700Y-120131000I0J-200000D01*
G01*
X122778700Y-121931000D01*
G75*
G02*
X122578700Y-122131000I-200000J0D01*
G01*
X120778700Y-122131000D01*
G75*
G02*
X120578700Y-121931000I0J200000D01*
G01*
G37*
G36*
G01*
X155786999Y-141720817D02*
X157397881Y-140917661D01*
G75*
G02*
X157666108Y-141007408I89240J-178987D01*
G01*
X158469264Y-142618290D01*
G75*
G02*
X158379517Y-142886517I-178987J-89240D01*
G01*
X156768635Y-143689673D01*
G75*
G02*
X156500408Y-143599926I-89240J178987D01*
G01*
X155697252Y-141989044D01*
G75*
G02*
X155786999Y-141720817I178987J89240D01*
G01*
G37*
X158216600Y-144576800D03*
D16*
X154240229Y-145140247D03*
G36*
G01*
X189349200Y-127950800D02*
X189349200Y-126150800D01*
G75*
G02*
X189549200Y-125950800I200000J0D01*
G01*
X191349200Y-125950800D01*
G75*
G02*
X191549200Y-126150800I0J-200000D01*
G01*
X191549200Y-127950800D01*
G75*
G02*
X191349200Y-128150800I-200000J0D01*
G01*
X189549200Y-128150800D01*
G75*
G02*
X189349200Y-127950800I0J200000D01*
G01*
G37*
D23*
X192989200Y-127050800D03*
D16*
X191719200Y-130860800D03*
X173699171Y-142574847D03*
D23*
X170856142Y-139738267D03*
G36*
G01*
X170037423Y-143397406D02*
X168426541Y-142594250D01*
G75*
G02*
X168336794Y-142326023I89240J178987D01*
G01*
X169139950Y-140715141D01*
G75*
G02*
X169408177Y-140625394I178987J-89240D01*
G01*
X171019059Y-141428550D01*
G75*
G02*
X171108806Y-141696777I-89240J-178987D01*
G01*
X170305650Y-143307659D01*
G75*
G02*
X170037423Y-143397406I-178987J89240D01*
G01*
G37*
G36*
G01*
X126458800Y-127823800D02*
X126458800Y-126023800D01*
G75*
G02*
X126658800Y-125823800I200000J0D01*
G01*
X128458800Y-125823800D01*
G75*
G02*
X128658800Y-126023800I0J-200000D01*
G01*
X128658800Y-127823800D01*
G75*
G02*
X128458800Y-128023800I-200000J0D01*
G01*
X126658800Y-128023800D01*
G75*
G02*
X126458800Y-127823800I0J200000D01*
G01*
G37*
X130098800Y-126923800D03*
D16*
X128828800Y-130733800D03*
X146442429Y-142574847D03*
D23*
X150418800Y-142011400D03*
G36*
G01*
X147989199Y-139155417D02*
X149600081Y-138352261D01*
G75*
G02*
X149868308Y-138442008I89240J-178987D01*
G01*
X150671464Y-140052890D01*
G75*
G02*
X150581717Y-140321117I-178987J-89240D01*
G01*
X148970835Y-141124273D01*
G75*
G02*
X148702608Y-141034526I-89240J178987D01*
G01*
X147899452Y-139423644D01*
G75*
G02*
X147989199Y-139155417I178987J89240D01*
G01*
G37*
G36*
G01*
X190182669Y-65545400D02*
X191731731Y-65545400D01*
G75*
G02*
X192057200Y-65870869I0J-325469D01*
G01*
X192057200Y-66944931D01*
G75*
G02*
X191731731Y-67270400I-325469J0D01*
G01*
X190182669Y-67270400D01*
G75*
G02*
X189857200Y-66944931I0J325469D01*
G01*
X189857200Y-65870869D01*
G75*
G02*
X190182669Y-65545400I325469J0D01*
G01*
G37*
G36*
G01*
X190182669Y-68670400D02*
X191731731Y-68670400D01*
G75*
G02*
X192057200Y-68995869I0J-325469D01*
G01*
X192057200Y-70069931D01*
G75*
G02*
X191731731Y-70395400I-325469J0D01*
G01*
X190182669Y-70395400D01*
G75*
G02*
X189857200Y-70069931I0J325469D01*
G01*
X189857200Y-68995869D01*
G75*
G02*
X190182669Y-68670400I325469J0D01*
G01*
G37*
G36*
G01*
X134887400Y-108648331D02*
X134887400Y-107099269D01*
G75*
G02*
X135212869Y-106773800I325469J0D01*
G01*
X136286931Y-106773800D01*
G75*
G02*
X136612400Y-107099269I0J-325469D01*
G01*
X136612400Y-108648331D01*
G75*
G02*
X136286931Y-108973800I-325469J0D01*
G01*
X135212869Y-108973800D01*
G75*
G02*
X134887400Y-108648331I0J325469D01*
G01*
G37*
G36*
G01*
X138012400Y-108648331D02*
X138012400Y-107099269D01*
G75*
G02*
X138337869Y-106773800I325469J0D01*
G01*
X139411931Y-106773800D01*
G75*
G02*
X139737400Y-107099269I0J-325469D01*
G01*
X139737400Y-108648331D01*
G75*
G02*
X139411931Y-108973800I-325469J0D01*
G01*
X138337869Y-108973800D01*
G75*
G02*
X138012400Y-108648331I0J325469D01*
G01*
G37*
G36*
G01*
X138012400Y-106286131D02*
X138012400Y-104737069D01*
G75*
G02*
X138337869Y-104411600I325469J0D01*
G01*
X139411931Y-104411600D01*
G75*
G02*
X139737400Y-104737069I0J-325469D01*
G01*
X139737400Y-106286131D01*
G75*
G02*
X139411931Y-106611600I-325469J0D01*
G01*
X138337869Y-106611600D01*
G75*
G02*
X138012400Y-106286131I0J325469D01*
G01*
G37*
G36*
G01*
X134887400Y-106286131D02*
X134887400Y-104737069D01*
G75*
G02*
X135212869Y-104411600I325469J0D01*
G01*
X136286931Y-104411600D01*
G75*
G02*
X136612400Y-104737069I0J-325469D01*
G01*
X136612400Y-106286131D01*
G75*
G02*
X136286931Y-106611600I-325469J0D01*
G01*
X135212869Y-106611600D01*
G75*
G02*
X134887400Y-106286131I0J325469D01*
G01*
G37*
G36*
G01*
X137204600Y-99295200D02*
X137704600Y-99295200D01*
G75*
G02*
X137954600Y-99545200I0J-250000D01*
G01*
X137954600Y-100770200D01*
G75*
G02*
X137704600Y-101020200I-250000J0D01*
G01*
X137204600Y-101020200D01*
G75*
G02*
X136954600Y-100770200I0J250000D01*
G01*
X136954600Y-99545200D01*
G75*
G02*
X137204600Y-99295200I250000J0D01*
G01*
G37*
G36*
G01*
X138154600Y-99295200D02*
X138654600Y-99295200D01*
G75*
G02*
X138904600Y-99545200I0J-250000D01*
G01*
X138904600Y-100770200D01*
G75*
G02*
X138654600Y-101020200I-250000J0D01*
G01*
X138154600Y-101020200D01*
G75*
G02*
X137904600Y-100770200I0J250000D01*
G01*
X137904600Y-99545200D01*
G75*
G02*
X138154600Y-99295200I250000J0D01*
G01*
G37*
G36*
G01*
X139104600Y-99295200D02*
X139604600Y-99295200D01*
G75*
G02*
X139854600Y-99545200I0J-250000D01*
G01*
X139854600Y-100770200D01*
G75*
G02*
X139604600Y-101020200I-250000J0D01*
G01*
X139104600Y-101020200D01*
G75*
G02*
X138854600Y-100770200I0J250000D01*
G01*
X138854600Y-99545200D01*
G75*
G02*
X139104600Y-99295200I250000J0D01*
G01*
G37*
G36*
G01*
X139104600Y-101570200D02*
X139604600Y-101570200D01*
G75*
G02*
X139854600Y-101820200I0J-250000D01*
G01*
X139854600Y-103045200D01*
G75*
G02*
X139604600Y-103295200I-250000J0D01*
G01*
X139104600Y-103295200D01*
G75*
G02*
X138854600Y-103045200I0J250000D01*
G01*
X138854600Y-101820200D01*
G75*
G02*
X139104600Y-101570200I250000J0D01*
G01*
G37*
G36*
G01*
X137204600Y-101570200D02*
X137704600Y-101570200D01*
G75*
G02*
X137954600Y-101820200I0J-250000D01*
G01*
X137954600Y-103045200D01*
G75*
G02*
X137704600Y-103295200I-250000J0D01*
G01*
X137204600Y-103295200D01*
G75*
G02*
X136954600Y-103045200I0J250000D01*
G01*
X136954600Y-101820200D01*
G75*
G02*
X137204600Y-101570200I250000J0D01*
G01*
G37*
G36*
G01*
X166890600Y-60537600D02*
X165290600Y-60537600D01*
G75*
G02*
X165090600Y-60337600I0J200000D01*
G01*
X165090600Y-58737600D01*
G75*
G02*
X165290600Y-58537600I200000J0D01*
G01*
X166890600Y-58537600D01*
G75*
G02*
X167090600Y-58737600I0J-200000D01*
G01*
X167090600Y-60337600D01*
G75*
G02*
X166890600Y-60537600I-200000J0D01*
G01*
G37*
D17*
X166090600Y-57037600D03*
G36*
G01*
X134632869Y-99315100D02*
X136181931Y-99315100D01*
G75*
G02*
X136507400Y-99640569I0J-325469D01*
G01*
X136507400Y-100714631D01*
G75*
G02*
X136181931Y-101040100I-325469J0D01*
G01*
X134632869Y-101040100D01*
G75*
G02*
X134307400Y-100714631I0J325469D01*
G01*
X134307400Y-99640569D01*
G75*
G02*
X134632869Y-99315100I325469J0D01*
G01*
G37*
G36*
G01*
X134632869Y-102440100D02*
X136181931Y-102440100D01*
G75*
G02*
X136507400Y-102765569I0J-325469D01*
G01*
X136507400Y-103839631D01*
G75*
G02*
X136181931Y-104165100I-325469J0D01*
G01*
X134632869Y-104165100D01*
G75*
G02*
X134307400Y-103839631I0J325469D01*
G01*
X134307400Y-102765569D01*
G75*
G02*
X134632869Y-102440100I325469J0D01*
G01*
G37*
G36*
G01*
X137987000Y-111061331D02*
X137987000Y-109512269D01*
G75*
G02*
X138312469Y-109186800I325469J0D01*
G01*
X139386531Y-109186800D01*
G75*
G02*
X139712000Y-109512269I0J-325469D01*
G01*
X139712000Y-111061331D01*
G75*
G02*
X139386531Y-111386800I-325469J0D01*
G01*
X138312469Y-111386800D01*
G75*
G02*
X137987000Y-111061331I0J325469D01*
G01*
G37*
G36*
G01*
X134862000Y-111061331D02*
X134862000Y-109512269D01*
G75*
G02*
X135187469Y-109186800I325469J0D01*
G01*
X136261531Y-109186800D01*
G75*
G02*
X136587000Y-109512269I0J-325469D01*
G01*
X136587000Y-111061331D01*
G75*
G02*
X136261531Y-111386800I-325469J0D01*
G01*
X135187469Y-111386800D01*
G75*
G02*
X134862000Y-111061331I0J325469D01*
G01*
G37*
G36*
G01*
X178296000Y-135597731D02*
X178296000Y-134048669D01*
G75*
G02*
X178621469Y-133723200I325469J0D01*
G01*
X179695531Y-133723200D01*
G75*
G02*
X180021000Y-134048669I0J-325469D01*
G01*
X180021000Y-135597731D01*
G75*
G02*
X179695531Y-135923200I-325469J0D01*
G01*
X178621469Y-135923200D01*
G75*
G02*
X178296000Y-135597731I0J325469D01*
G01*
G37*
G36*
G01*
X181421000Y-135597731D02*
X181421000Y-134048669D01*
G75*
G02*
X181746469Y-133723200I325469J0D01*
G01*
X182820531Y-133723200D01*
G75*
G02*
X183146000Y-134048669I0J-325469D01*
G01*
X183146000Y-135597731D01*
G75*
G02*
X182820531Y-135923200I-325469J0D01*
G01*
X181746469Y-135923200D01*
G75*
G02*
X181421000Y-135597731I0J325469D01*
G01*
G37*
D14*
X151917400Y-77470000D03*
X149377400Y-77470000D03*
X146837400Y-77470000D03*
X144297400Y-77470000D03*
X141757400Y-77470000D03*
G36*
G01*
X140067400Y-78520000D02*
X138367400Y-78520000D01*
G75*
G02*
X138167400Y-78320000I0J200000D01*
G01*
X138167400Y-76620000D01*
G75*
G02*
X138367400Y-76420000I200000J0D01*
G01*
X140067400Y-76420000D01*
G75*
G02*
X140267400Y-76620000I0J-200000D01*
G01*
X140267400Y-78320000D01*
G75*
G02*
X140067400Y-78520000I-200000J0D01*
G01*
G37*
G36*
G01*
X168921800Y-78621600D02*
X167221800Y-78621600D01*
G75*
G02*
X167021800Y-78421600I0J200000D01*
G01*
X167021800Y-76721600D01*
G75*
G02*
X167221800Y-76521600I200000J0D01*
G01*
X168921800Y-76521600D01*
G75*
G02*
X169121800Y-76721600I0J-200000D01*
G01*
X169121800Y-78421600D01*
G75*
G02*
X168921800Y-78621600I-200000J0D01*
G01*
G37*
X170611800Y-77571600D03*
X173151800Y-77571600D03*
X175691800Y-77571600D03*
X178231800Y-77571600D03*
X180771800Y-77571600D03*
G36*
G01*
X180098400Y-123991321D02*
X180098400Y-125487479D01*
G75*
G02*
X179771479Y-125814400I-326921J0D01*
G01*
X178725321Y-125814400D01*
G75*
G02*
X178398400Y-125487479I0J326921D01*
G01*
X178398400Y-123991321D01*
G75*
G02*
X178725321Y-123664400I326921J0D01*
G01*
X179771479Y-123664400D01*
G75*
G02*
X180098400Y-123991321I0J-326921D01*
G01*
G37*
G36*
G01*
X176998400Y-123991321D02*
X176998400Y-125487479D01*
G75*
G02*
X176671479Y-125814400I-326921J0D01*
G01*
X175625321Y-125814400D01*
G75*
G02*
X175298400Y-125487479I0J326921D01*
G01*
X175298400Y-123991321D01*
G75*
G02*
X175625321Y-123664400I326921J0D01*
G01*
X176671479Y-123664400D01*
G75*
G02*
X176998400Y-123991321I0J-326921D01*
G01*
G37*
G36*
G01*
X151146800Y-58431800D02*
X151146800Y-56731800D01*
G75*
G02*
X151346800Y-56531800I200000J0D01*
G01*
X153046800Y-56531800D01*
G75*
G02*
X153246800Y-56731800I0J-200000D01*
G01*
X153246800Y-58431800D01*
G75*
G02*
X153046800Y-58631800I-200000J0D01*
G01*
X151346800Y-58631800D01*
G75*
G02*
X151146800Y-58431800I0J200000D01*
G01*
G37*
G36*
G01*
X121830200Y-105952000D02*
X120130200Y-105952000D01*
G75*
G02*
X119930200Y-105752000I0J200000D01*
G01*
X119930200Y-104052000D01*
G75*
G02*
X120130200Y-103852000I200000J0D01*
G01*
X121830200Y-103852000D01*
G75*
G02*
X122030200Y-104052000I0J-200000D01*
G01*
X122030200Y-105752000D01*
G75*
G02*
X121830200Y-105952000I-200000J0D01*
G01*
G37*
G36*
G01*
X194170131Y-70395400D02*
X192621069Y-70395400D01*
G75*
G02*
X192295600Y-70069931I0J325469D01*
G01*
X192295600Y-68995869D01*
G75*
G02*
X192621069Y-68670400I325469J0D01*
G01*
X194170131Y-68670400D01*
G75*
G02*
X194495600Y-68995869I0J-325469D01*
G01*
X194495600Y-70069931D01*
G75*
G02*
X194170131Y-70395400I-325469J0D01*
G01*
G37*
G36*
G01*
X194170131Y-67270400D02*
X192621069Y-67270400D01*
G75*
G02*
X192295600Y-66944931I0J325469D01*
G01*
X192295600Y-65870869D01*
G75*
G02*
X192621069Y-65545400I325469J0D01*
G01*
X194170131Y-65545400D01*
G75*
G02*
X194495600Y-65870869I0J-325469D01*
G01*
X194495600Y-66944931D01*
G75*
G02*
X194170131Y-67270400I-325469J0D01*
G01*
G37*
G36*
G01*
X139859575Y-133769400D02*
X141369225Y-133769400D01*
G75*
G02*
X141689400Y-134089575I0J-320175D01*
G01*
X141689400Y-135274225D01*
G75*
G02*
X141369225Y-135594400I-320175J0D01*
G01*
X139859575Y-135594400D01*
G75*
G02*
X139539400Y-135274225I0J320175D01*
G01*
X139539400Y-134089575D01*
G75*
G02*
X139859575Y-133769400I320175J0D01*
G01*
G37*
G36*
G01*
X139859575Y-136744400D02*
X141369225Y-136744400D01*
G75*
G02*
X141689400Y-137064575I0J-320175D01*
G01*
X141689400Y-138249225D01*
G75*
G02*
X141369225Y-138569400I-320175J0D01*
G01*
X139859575Y-138569400D01*
G75*
G02*
X139539400Y-138249225I0J320175D01*
G01*
X139539400Y-137064575D01*
G75*
G02*
X139859575Y-136744400I320175J0D01*
G01*
G37*
D24*
X146754600Y-135280400D03*
G36*
G01*
X145429600Y-136155400D02*
X144079600Y-136155400D01*
G75*
G02*
X143879600Y-135955400I0J200000D01*
G01*
X143879600Y-134605400D01*
G75*
G02*
X144079600Y-134405400I200000J0D01*
G01*
X145429600Y-134405400D01*
G75*
G02*
X145629600Y-134605400I0J-200000D01*
G01*
X145629600Y-135955400D01*
G75*
G02*
X145429600Y-136155400I-200000J0D01*
G01*
G37*
G36*
G01*
X135752200Y-136130000D02*
X134402200Y-136130000D01*
G75*
G02*
X134202200Y-135930000I0J200000D01*
G01*
X134202200Y-134580000D01*
G75*
G02*
X134402200Y-134380000I200000J0D01*
G01*
X135752200Y-134380000D01*
G75*
G02*
X135952200Y-134580000I0J-200000D01*
G01*
X135952200Y-135930000D01*
G75*
G02*
X135752200Y-136130000I-200000J0D01*
G01*
G37*
X137077200Y-135255000D03*
X178987200Y-138455400D03*
G36*
G01*
X177662200Y-139330400D02*
X176312200Y-139330400D01*
G75*
G02*
X176112200Y-139130400I0J200000D01*
G01*
X176112200Y-137780400D01*
G75*
G02*
X176312200Y-137580400I200000J0D01*
G01*
X177662200Y-137580400D01*
G75*
G02*
X177862200Y-137780400I0J-200000D01*
G01*
X177862200Y-139130400D01*
G75*
G02*
X177662200Y-139330400I-200000J0D01*
G01*
G37*
G36*
G01*
X183983000Y-137580400D02*
X185333000Y-137580400D01*
G75*
G02*
X185533000Y-137780400I0J-200000D01*
G01*
X185533000Y-139130400D01*
G75*
G02*
X185333000Y-139330400I-200000J0D01*
G01*
X183983000Y-139330400D01*
G75*
G02*
X183783000Y-139130400I0J200000D01*
G01*
X183783000Y-137780400D01*
G75*
G02*
X183983000Y-137580400I200000J0D01*
G01*
G37*
X182658000Y-138455400D03*
G36*
G01*
X142570500Y-138772731D02*
X142570500Y-137223669D01*
G75*
G02*
X142895969Y-136898200I325469J0D01*
G01*
X143970031Y-136898200D01*
G75*
G02*
X144295500Y-137223669I0J-325469D01*
G01*
X144295500Y-138772731D01*
G75*
G02*
X143970031Y-139098200I-325469J0D01*
G01*
X142895969Y-139098200D01*
G75*
G02*
X142570500Y-138772731I0J325469D01*
G01*
G37*
G36*
G01*
X145695500Y-138772731D02*
X145695500Y-137223669D01*
G75*
G02*
X146020969Y-136898200I325469J0D01*
G01*
X147095031Y-136898200D01*
G75*
G02*
X147420500Y-137223669I0J-325469D01*
G01*
X147420500Y-138772731D01*
G75*
G02*
X147095031Y-139098200I-325469J0D01*
G01*
X146020969Y-139098200D01*
G75*
G02*
X145695500Y-138772731I0J325469D01*
G01*
G37*
G36*
G01*
X187641000Y-134531269D02*
X187641000Y-136080331D01*
G75*
G02*
X187315531Y-136405800I-325469J0D01*
G01*
X186241469Y-136405800D01*
G75*
G02*
X185916000Y-136080331I0J325469D01*
G01*
X185916000Y-134531269D01*
G75*
G02*
X186241469Y-134205800I325469J0D01*
G01*
X187315531Y-134205800D01*
G75*
G02*
X187641000Y-134531269I0J-325469D01*
G01*
G37*
G36*
G01*
X190766000Y-134531269D02*
X190766000Y-136080331D01*
G75*
G02*
X190440531Y-136405800I-325469J0D01*
G01*
X189366469Y-136405800D01*
G75*
G02*
X189041000Y-136080331I0J325469D01*
G01*
X189041000Y-134531269D01*
G75*
G02*
X189366469Y-134205800I325469J0D01*
G01*
X190440531Y-134205800D01*
G75*
G02*
X190766000Y-134531269I0J-325469D01*
G01*
G37*
G36*
G01*
X133083131Y-136435400D02*
X131534069Y-136435400D01*
G75*
G02*
X131208600Y-136109931I0J325469D01*
G01*
X131208600Y-135035869D01*
G75*
G02*
X131534069Y-134710400I325469J0D01*
G01*
X133083131Y-134710400D01*
G75*
G02*
X133408600Y-135035869I0J-325469D01*
G01*
X133408600Y-136109931D01*
G75*
G02*
X133083131Y-136435400I-325469J0D01*
G01*
G37*
G36*
G01*
X133083131Y-133310400D02*
X131534069Y-133310400D01*
G75*
G02*
X131208600Y-132984931I0J325469D01*
G01*
X131208600Y-131910869D01*
G75*
G02*
X131534069Y-131585400I325469J0D01*
G01*
X133083131Y-131585400D01*
G75*
G02*
X133408600Y-131910869I0J-325469D01*
G01*
X133408600Y-132984931D01*
G75*
G02*
X133083131Y-133310400I-325469J0D01*
G01*
G37*
G36*
G01*
X174104131Y-136993400D02*
X172555069Y-136993400D01*
G75*
G02*
X172229600Y-136667931I0J325469D01*
G01*
X172229600Y-135593869D01*
G75*
G02*
X172555069Y-135268400I325469J0D01*
G01*
X174104131Y-135268400D01*
G75*
G02*
X174429600Y-135593869I0J-325469D01*
G01*
X174429600Y-136667931D01*
G75*
G02*
X174104131Y-136993400I-325469J0D01*
G01*
G37*
G36*
G01*
X174104131Y-140118400D02*
X172555069Y-140118400D01*
G75*
G02*
X172229600Y-139792931I0J325469D01*
G01*
X172229600Y-138718869D01*
G75*
G02*
X172555069Y-138393400I325469J0D01*
G01*
X174104131Y-138393400D01*
G75*
G02*
X174429600Y-138718869I0J-325469D01*
G01*
X174429600Y-139792931D01*
G75*
G02*
X174104131Y-140118400I-325469J0D01*
G01*
G37*
D25*
X176047400Y-58343800D03*
X176047400Y-60375800D03*
X178079400Y-60375800D03*
X178079400Y-58343800D03*
X174015400Y-58343800D03*
X171983400Y-58343800D03*
X174015400Y-60375800D03*
X171983400Y-60375800D03*
X171983400Y-62407800D03*
X174015400Y-62407800D03*
X176047400Y-62407800D03*
X178079400Y-62407800D03*
X171983400Y-64439800D03*
X174015400Y-64439800D03*
X176047400Y-64439800D03*
X178079400Y-64439800D03*
X178079400Y-66471800D03*
X176047400Y-66471800D03*
X174015400Y-66471800D03*
X171983400Y-66471800D03*
D26*
X139522200Y-116840000D03*
X139522200Y-119380000D03*
X139522200Y-121920000D03*
X139522200Y-124460000D03*
X183972200Y-128270000D03*
G36*
G01*
X183122200Y-111980000D02*
X184822200Y-111980000D01*
G75*
G02*
X185022200Y-112180000I0J-200000D01*
G01*
X185022200Y-113880000D01*
G75*
G02*
X184822200Y-114080000I-200000J0D01*
G01*
X183122200Y-114080000D01*
G75*
G02*
X182922200Y-113880000I0J200000D01*
G01*
X182922200Y-112180000D01*
G75*
G02*
X183122200Y-111980000I200000J0D01*
G01*
G37*
X181432200Y-128270000D03*
X181432200Y-113030000D03*
X178892200Y-128270000D03*
X178892200Y-113030000D03*
X176352200Y-128270000D03*
X176352200Y-113030000D03*
X173812200Y-128270000D03*
X173812200Y-113030000D03*
X171272200Y-128270000D03*
X171272200Y-113030000D03*
X168732200Y-128270000D03*
X168732200Y-113030000D03*
X166192200Y-128270000D03*
X166192200Y-113030000D03*
X163652200Y-128270000D03*
X163652200Y-113030000D03*
X161112200Y-128270000D03*
X161112200Y-113030000D03*
X158572200Y-128270000D03*
X158572200Y-113030000D03*
X156032200Y-128270000D03*
X156032200Y-113030000D03*
X153492200Y-128270000D03*
X153492200Y-113030000D03*
X150952200Y-128270000D03*
X150952200Y-113030000D03*
X148412200Y-128270000D03*
X148412200Y-113030000D03*
X145872200Y-128270000D03*
X145872200Y-113030000D03*
X143332200Y-128270000D03*
X143332200Y-113030000D03*
X140792200Y-128270000D03*
X140792200Y-113030000D03*
X138252200Y-128270000D03*
X138252200Y-113030000D03*
X135712200Y-128270000D03*
X135712200Y-113030000D03*
G36*
G01*
X197874600Y-116929800D02*
X197874600Y-118629800D01*
G75*
G02*
X197674600Y-118829800I-200000J0D01*
G01*
X195974600Y-118829800D01*
G75*
G02*
X195774600Y-118629800I0J200000D01*
G01*
X195774600Y-116929800D01*
G75*
G02*
X195974600Y-116729800I200000J0D01*
G01*
X197674600Y-116729800D01*
G75*
G02*
X197874600Y-116929800I0J-200000D01*
G01*
G37*
D14*
X196824600Y-115239800D03*
X196824600Y-112699800D03*
X196824600Y-110159800D03*
X196824600Y-107619800D03*
X196824600Y-105079800D03*
G36*
G01*
X143399800Y-57111000D02*
X143399800Y-55411000D01*
G75*
G02*
X143599800Y-55211000I200000J0D01*
G01*
X145299800Y-55211000D01*
G75*
G02*
X145499800Y-55411000I0J-200000D01*
G01*
X145499800Y-57111000D01*
G75*
G02*
X145299800Y-57311000I-200000J0D01*
G01*
X143599800Y-57311000D01*
G75*
G02*
X143399800Y-57111000I0J200000D01*
G01*
G37*
G36*
G01*
X139742200Y-57085600D02*
X139742200Y-55385600D01*
G75*
G02*
X139942200Y-55185600I200000J0D01*
G01*
X141642200Y-55185600D01*
G75*
G02*
X141842200Y-55385600I0J-200000D01*
G01*
X141842200Y-57085600D01*
G75*
G02*
X141642200Y-57285600I-200000J0D01*
G01*
X139942200Y-57285600D01*
G75*
G02*
X139742200Y-57085600I0J200000D01*
G01*
G37*
M02*
