M48
; DRILL file {KiCad (5.1.12-1-10_14)} date Thursday, February 02, 2023 at 04:14:40 PM
; FORMAT={-:-/ absolute / metric / decimal}
; #@! TF.CreationDate,2023-02-02T16:14:40-08:00
; #@! TF.GenerationSoftware,Kicad,Pcbnew,(5.1.12-1-10_14)
; #@! TF.FileFunction,Plated,1,2,PTH
FMAT,2
METRIC
T1C0.400
T2C0.650
T3C0.750
T4C0.762
T5C0.800
T6C0.900
T7C1.000
T8C1.850
T9C2.000
%
G90
G05
T1
X119.607Y-116.537
X120.396Y-119.05
X120.472Y-117.653
X120.599Y-55.973
X120.599Y-58.039
X121.361Y-119.075
X122.58Y-58.014
X122.631Y-55.973
X123.327Y-115.57
X123.632Y-111.684
X124.638Y-58.014
X124.663Y-55.973
X125.044Y-113.64
X127.406Y-128.93
X127.648Y-57.074
X128.626Y-83.896
X129.489Y-84.836
X129.566Y-119.913
X130.378Y-132.08
X131.826Y-70.561
X131.877Y-71.653
X131.902Y-80.366
X132.105Y-63.983
X132.385Y-56.998
X132.391Y-116.707
X132.664Y-129.998
X132.842Y-57.937
X132.893Y-56.083
X133.375Y-57.023
X133.718Y-118.961
X134.518Y-115.164
X136.195Y-57.023
X136.322Y-140.208
X136.881Y-123.317
X136.931Y-116.992
X137.185Y-111.633
X137.312Y-108.991
X137.312Y-140.284
X137.338Y-74.955
X137.363Y-107.848
X137.363Y-110.236
X137.566Y-116.307
X137.719Y-124.46
X138.328Y-140.183
X138.659Y-55.88
X138.659Y-57.048
X138.709Y-138.43
X138.735Y-137.236
X138.76Y-134.518
X138.76Y-135.788
X138.836Y-110.287
X138.913Y-107.848
X138.938Y-105.486
X139.167Y-139.446
X139.395Y-102.464
X140.386Y-111.277
X140.411Y-110.363
X142.037Y-114.351
X143.078Y-116.815
X143.561Y-123.088
X144.831Y-119.329
X147.244Y-95.25
X148.412Y-85.039
X149.377Y-86.106
X150.444Y-133.172
X150.444Y-136.272
X150.489Y-115.589
X150.647Y-122.707
X153.213Y-82.982
X153.746Y-138.938
X153.873Y-87.681
X154.0Y-62.738
X154.965Y-118.897
X155.092Y-139.243
X156.058Y-139.243
X156.083Y-82.321
X156.947Y-139.649
X157.658Y-134.925
X157.861Y-139.649
X158.953Y-134.823
X158.979Y-133.706
X159.055Y-141.834
X159.918Y-117.424
X160.325Y-134.823
X161.417Y-134.112
X162.077Y-65.43
X162.23Y-64.364
X163.728Y-139.548
X164.059Y-65.659
X164.109Y-67.335
X167.31Y-138.328
X167.437Y-137.389
X167.513Y-140.792
X167.513Y-141.732
X167.97Y-67.031
X168.377Y-137.668
X168.402Y-138.659
X168.529Y-65.38
X169.266Y-67.031
X169.291Y-138.125
X169.875Y-133.4
X170.028Y-83.439
X172.872Y-133.426
X176.148Y-124.739
X176.422Y-134.677
X180.365Y-136.754
X180.772Y-64.033
X180.924Y-65.888
X181.508Y-136.754
X182.397Y-134.772
X182.651Y-136.728
X184.099Y-64.465
X184.404Y-134.264
X184.404Y-135.28
X186.969Y-117.424
X187.604Y-61.62
X187.96Y-132.817
X188.036Y-124.612
X191.465Y-117.643
X193.116Y-117.958
X194.031Y-117.983
X194.843Y-117.475
X194.843Y-118.389
X198.399Y-119.177
X198.45Y-116.459
X198.45Y-117.754
T2
X119.812Y-108.966
X119.812Y-110.236
X119.812Y-111.506
X119.812Y-112.776
X119.812Y-114.046
X121.082Y-108.966
X121.082Y-110.236
X121.082Y-111.506
X121.082Y-112.776
X121.082Y-114.046
T3
X128.422Y-122.123
X129.692Y-123.393
X130.962Y-122.123
X132.309Y-62.027
X133.579Y-60.757
X133.579Y-63.297
X153.492Y-134.391
X154.762Y-135.661
X156.032Y-134.391
X164.211Y-134.391
X165.481Y-135.661
X166.751Y-134.391
X189.408Y-122.326
X190.678Y-123.596
X191.948Y-122.326
T4
X171.983Y-58.344
X171.983Y-60.376
X171.983Y-62.408
X171.983Y-64.44
X171.983Y-66.472
X174.015Y-58.344
X174.015Y-60.376
X174.015Y-62.408
X174.015Y-64.44
X174.015Y-66.472
X176.047Y-58.344
X176.047Y-60.376
X176.047Y-62.408
X176.047Y-64.44
X176.047Y-66.472
X178.079Y-58.344
X178.079Y-60.376
X178.079Y-62.408
X178.079Y-64.44
X178.079Y-66.472
T5
X124.155Y-126.898
X125.374Y-125.578
X125.654Y-123.546
X127.203Y-124.562
X131.496Y-92.1
X131.623Y-93.853
X131.648Y-101.879
X132.182Y-99.771
X133.375Y-101.778
X133.528Y-94.209
X134.264Y-98.069
X134.264Y-137.465
X134.747Y-95.606
X135.077Y-135.255
X135.788Y-97.13
X137.077Y-135.255
X137.312Y-60.579
X137.312Y-68.199
X139.852Y-60.579
X139.852Y-68.199
X142.392Y-60.579
X142.392Y-68.199
X143.104Y-62.586
X144.755Y-135.28
X144.932Y-60.579
X144.932Y-62.535
X144.932Y-68.199
X146.755Y-135.28
X146.888Y-62.433
X147.472Y-60.579
X147.472Y-68.199
X150.012Y-60.579
X150.012Y-68.199
X150.901Y-74.066
X151.206Y-120.396
X152.273Y-124.308
X152.552Y-60.579
X152.552Y-68.199
X152.857Y-120.421
X155.092Y-60.579
X155.092Y-68.199
X156.616Y-116.967
X157.124Y-138.252
X158.267Y-116.967
X160.249Y-85.115
X160.757Y-120.371
X161.214Y-137.744
X162.001Y-85.115
X162.077Y-117.399
X162.077Y-119.177
X162.433Y-138.811
X162.611Y-59.461
X162.636Y-57.836
X162.763Y-56.185
X163.728Y-85.115
X163.779Y-118.135
X164.033Y-58.725
X164.059Y-57.125
X164.084Y-62.572
X165.43Y-85.115
X166.065Y-117.577
X166.091Y-57.038
X166.091Y-59.538
X166.154Y-62.7
X166.154Y-64.325
X166.154Y-65.925
X166.154Y-67.703
X167.183Y-85.09
X167.869Y-117.602
X168.465Y-61.9
X168.554Y-56.134
X168.631Y-57.887
X168.631Y-59.487
X168.935Y-84.988
X169.647Y-117.602
X170.688Y-85.014
X171.399Y-117.729
X172.415Y-85.039
X173.177Y-117.729
X174.142Y-85.065
X174.93Y-117.653
X175.87Y-85.039
X176.708Y-117.602
X176.987Y-138.455
X177.571Y-85.014
X178.987Y-138.455
X179.273Y-84.988
X180.95Y-85.039
X181.585Y-125.298
X181.635Y-123.571
X181.991Y-56.642
X182.651Y-85.065
X182.658Y-138.455
X182.905Y-118.262
X182.956Y-79.096
X183.058Y-76.479
X183.413Y-123.596
X183.439Y-125.349
X183.82Y-56.617
X184.353Y-85.09
X184.429Y-117.323
X184.556Y-119.024
X184.658Y-138.455
X185.141Y-123.546
X185.166Y-125.349
X185.217Y-78.384
X185.623Y-56.617
X186.03Y-85.065
X187.376Y-56.617
X187.808Y-63.373
X187.935Y-65.126
X187.985Y-70.307
X189.128Y-56.617
X189.332Y-63.983
X189.549Y-61.874
X190.678Y-76.276
X190.703Y-77.978
X190.703Y-79.68
X190.779Y-81.432
X191.122Y-66.51
X192.049Y-61.874
X193.065Y-105.359
X193.065Y-107.137
X193.065Y-108.864
X193.434Y-66.51
X193.497Y-124.46
X194.386Y-129.54
X194.488Y-106.248
X194.488Y-108.001
X195.021Y-123.698
X195.326Y-126.797
X195.656Y-128.499
X196.875Y-127.279
X199.593Y-70.79
X199.873Y-60.655
X199.898Y-65.481
X201.041Y-69.418
X201.066Y-59.334
X201.092Y-64.211
X201.092Y-66.802
X201.193Y-61.671
T6
X121.679Y-121.031
X124.219Y-121.031
X127.559Y-126.924
X130.099Y-126.924
X149.285Y-139.738
X150.419Y-142.011
X157.083Y-142.304
X158.217Y-144.577
X161.9Y-144.577
X163.033Y-142.304
X169.723Y-142.011
X170.856Y-139.738
X190.449Y-127.051
X192.989Y-127.051
X195.936Y-121.158
X198.476Y-121.158
T7
X120.709Y-65.937
X120.98Y-104.902
X123.205Y-67.424
X125.705Y-63.094
X127.254Y-106.375
X127.254Y-108.915
X127.254Y-111.455
X127.254Y-113.995
X127.254Y-116.535
X128.194Y-64.618
X135.712Y-113.03
X135.712Y-128.27
X136.728Y-138.303
X138.252Y-113.03
X138.252Y-128.27
X139.217Y-77.47
X139.522Y-116.84
X139.522Y-119.38
X139.522Y-121.92
X139.522Y-124.46
X140.792Y-56.236
X140.792Y-113.03
X140.792Y-128.27
X141.757Y-77.47
X143.332Y-113.03
X143.332Y-128.27
X144.297Y-77.47
X144.45Y-56.261
X145.872Y-113.03
X145.872Y-128.27
X146.837Y-77.47
X148.412Y-113.03
X148.412Y-128.27
X149.377Y-77.47
X150.952Y-113.03
X150.952Y-128.27
X151.917Y-77.47
X152.197Y-57.582
X153.492Y-113.03
X153.492Y-128.27
X156.032Y-113.03
X156.032Y-128.27
X158.572Y-113.03
X158.572Y-128.27
X161.112Y-113.03
X161.112Y-128.27
X163.652Y-113.03
X163.652Y-128.27
X166.192Y-113.03
X166.192Y-128.27
X168.072Y-77.572
X168.732Y-113.03
X168.732Y-128.27
X170.612Y-77.572
X171.272Y-113.03
X171.272Y-128.27
X173.152Y-77.572
X173.812Y-113.03
X173.812Y-128.27
X175.692Y-77.572
X176.352Y-113.03
X176.352Y-128.27
X178.232Y-77.572
X178.892Y-113.03
X178.892Y-128.27
X180.772Y-77.572
X181.432Y-113.03
X181.432Y-128.27
X183.032Y-70.663
X183.972Y-113.03
X183.972Y-128.27
X185.572Y-70.663
X192.735Y-56.566
X196.825Y-105.08
X196.825Y-107.62
X196.825Y-110.16
X196.825Y-112.7
X196.825Y-115.24
X196.825Y-117.78
X200.482Y-105.105
X200.482Y-107.645
X200.482Y-110.185
X200.482Y-112.725
X200.482Y-115.265
X200.482Y-117.805
T8
X156.667Y-73.406
X161.493Y-73.406
X166.319Y-73.406
X198.196Y-58.293
X198.196Y-63.119
X198.196Y-67.945
T9
X122.949Y-124.841
X128.829Y-130.734
X146.442Y-142.575
X154.24Y-145.14
X165.876Y-145.14
X173.699Y-142.575
X191.719Y-130.861
X197.206Y-124.968
T0
M30
