G04 #@! TF.GenerationSoftware,KiCad,Pcbnew,(5.1.12-1-10_14)*
G04 #@! TF.CreationDate,2023-02-02T16:13:30-08:00*
G04 #@! TF.ProjectId,mouse_v2_PAIN,6d6f7573-655f-4763-925f-5041494e2e6b,rev?*
G04 #@! TF.SameCoordinates,Original*
G04 #@! TF.FileFunction,Paste,Top*
G04 #@! TF.FilePolarity,Positive*
%FSLAX46Y46*%
G04 Gerber Fmt 4.6, Leading zero omitted, Abs format (unit mm)*
G04 Created by KiCad (PCBNEW (5.1.12-1-10_14)) date 2023-02-02 16:13:30*
%MOMM*%
%LPD*%
G01*
G04 APERTURE LIST*
%ADD10R,2.500000X2.000000*%
%ADD11R,4.600000X1.100000*%
%ADD12R,4.550000X5.250000*%
%ADD13R,0.800000X0.900000*%
%ADD14R,0.900000X0.800000*%
G04 APERTURE END LIST*
G36*
G01*
X194490800Y-115840500D02*
X194490800Y-116315500D01*
G75*
G02*
X194253300Y-116553000I-237500J0D01*
G01*
X193653300Y-116553000D01*
G75*
G02*
X193415800Y-116315500I0J237500D01*
G01*
X193415800Y-115840500D01*
G75*
G02*
X193653300Y-115603000I237500J0D01*
G01*
X194253300Y-115603000D01*
G75*
G02*
X194490800Y-115840500I0J-237500D01*
G01*
G37*
G36*
G01*
X192765800Y-115840500D02*
X192765800Y-116315500D01*
G75*
G02*
X192528300Y-116553000I-237500J0D01*
G01*
X191928300Y-116553000D01*
G75*
G02*
X191690800Y-116315500I0J237500D01*
G01*
X191690800Y-115840500D01*
G75*
G02*
X191928300Y-115603000I237500J0D01*
G01*
X192528300Y-115603000D01*
G75*
G02*
X192765800Y-115840500I0J-237500D01*
G01*
G37*
G36*
G01*
X192740400Y-110862100D02*
X192740400Y-111337100D01*
G75*
G02*
X192502900Y-111574600I-237500J0D01*
G01*
X191902900Y-111574600D01*
G75*
G02*
X191665400Y-111337100I0J237500D01*
G01*
X191665400Y-110862100D01*
G75*
G02*
X191902900Y-110624600I237500J0D01*
G01*
X192502900Y-110624600D01*
G75*
G02*
X192740400Y-110862100I0J-237500D01*
G01*
G37*
G36*
G01*
X194465400Y-110862100D02*
X194465400Y-111337100D01*
G75*
G02*
X194227900Y-111574600I-237500J0D01*
G01*
X193627900Y-111574600D01*
G75*
G02*
X193390400Y-111337100I0J237500D01*
G01*
X193390400Y-110862100D01*
G75*
G02*
X193627900Y-110624600I237500J0D01*
G01*
X194227900Y-110624600D01*
G75*
G02*
X194465400Y-110862100I0J-237500D01*
G01*
G37*
G36*
G01*
X125113201Y-58597600D02*
X124213199Y-58597600D01*
G75*
G02*
X123963200Y-58347601I0J249999D01*
G01*
X123963200Y-57697599D01*
G75*
G02*
X124213199Y-57447600I249999J0D01*
G01*
X125113201Y-57447600D01*
G75*
G02*
X125363200Y-57697599I0J-249999D01*
G01*
X125363200Y-58347601D01*
G75*
G02*
X125113201Y-58597600I-249999J0D01*
G01*
G37*
G36*
G01*
X125113201Y-56547600D02*
X124213199Y-56547600D01*
G75*
G02*
X123963200Y-56297601I0J249999D01*
G01*
X123963200Y-55647599D01*
G75*
G02*
X124213199Y-55397600I249999J0D01*
G01*
X125113201Y-55397600D01*
G75*
G02*
X125363200Y-55647599I0J-249999D01*
G01*
X125363200Y-56297601D01*
G75*
G02*
X125113201Y-56547600I-249999J0D01*
G01*
G37*
G36*
G01*
X121049201Y-58597600D02*
X120149199Y-58597600D01*
G75*
G02*
X119899200Y-58347601I0J249999D01*
G01*
X119899200Y-57697599D01*
G75*
G02*
X120149199Y-57447600I249999J0D01*
G01*
X121049201Y-57447600D01*
G75*
G02*
X121299200Y-57697599I0J-249999D01*
G01*
X121299200Y-58347601D01*
G75*
G02*
X121049201Y-58597600I-249999J0D01*
G01*
G37*
G36*
G01*
X121049201Y-56547600D02*
X120149199Y-56547600D01*
G75*
G02*
X119899200Y-56297601I0J249999D01*
G01*
X119899200Y-55647599D01*
G75*
G02*
X120149199Y-55397600I249999J0D01*
G01*
X121049201Y-55397600D01*
G75*
G02*
X121299200Y-55647599I0J-249999D01*
G01*
X121299200Y-56297601D01*
G75*
G02*
X121049201Y-56547600I-249999J0D01*
G01*
G37*
G36*
G01*
X123081201Y-56547600D02*
X122181199Y-56547600D01*
G75*
G02*
X121931200Y-56297601I0J249999D01*
G01*
X121931200Y-55647599D01*
G75*
G02*
X122181199Y-55397600I249999J0D01*
G01*
X123081201Y-55397600D01*
G75*
G02*
X123331200Y-55647599I0J-249999D01*
G01*
X123331200Y-56297601D01*
G75*
G02*
X123081201Y-56547600I-249999J0D01*
G01*
G37*
G36*
G01*
X123081201Y-58597600D02*
X122181199Y-58597600D01*
G75*
G02*
X121931200Y-58347601I0J249999D01*
G01*
X121931200Y-57697599D01*
G75*
G02*
X122181199Y-57447600I249999J0D01*
G01*
X123081201Y-57447600D01*
G75*
G02*
X123331200Y-57697599I0J-249999D01*
G01*
X123331200Y-58347601D01*
G75*
G02*
X123081201Y-58597600I-249999J0D01*
G01*
G37*
G36*
G01*
X193490400Y-112937300D02*
X193490400Y-112462300D01*
G75*
G02*
X193727900Y-112224800I237500J0D01*
G01*
X194227900Y-112224800D01*
G75*
G02*
X194465400Y-112462300I0J-237500D01*
G01*
X194465400Y-112937300D01*
G75*
G02*
X194227900Y-113174800I-237500J0D01*
G01*
X193727900Y-113174800D01*
G75*
G02*
X193490400Y-112937300I0J237500D01*
G01*
G37*
G36*
G01*
X191665400Y-112937300D02*
X191665400Y-112462300D01*
G75*
G02*
X191902900Y-112224800I237500J0D01*
G01*
X192402900Y-112224800D01*
G75*
G02*
X192640400Y-112462300I0J-237500D01*
G01*
X192640400Y-112937300D01*
G75*
G02*
X192402900Y-113174800I-237500J0D01*
G01*
X191902900Y-113174800D01*
G75*
G02*
X191665400Y-112937300I0J237500D01*
G01*
G37*
G36*
G01*
X194490800Y-114265700D02*
X194490800Y-114740700D01*
G75*
G02*
X194253300Y-114978200I-237500J0D01*
G01*
X193753300Y-114978200D01*
G75*
G02*
X193515800Y-114740700I0J237500D01*
G01*
X193515800Y-114265700D01*
G75*
G02*
X193753300Y-114028200I237500J0D01*
G01*
X194253300Y-114028200D01*
G75*
G02*
X194490800Y-114265700I0J-237500D01*
G01*
G37*
G36*
G01*
X192665800Y-114265700D02*
X192665800Y-114740700D01*
G75*
G02*
X192428300Y-114978200I-237500J0D01*
G01*
X191928300Y-114978200D01*
G75*
G02*
X191690800Y-114740700I0J237500D01*
G01*
X191690800Y-114265700D01*
G75*
G02*
X191928300Y-114028200I237500J0D01*
G01*
X192428300Y-114028200D01*
G75*
G02*
X192665800Y-114265700I0J-237500D01*
G01*
G37*
G36*
G01*
X188585001Y-133467200D02*
X187334999Y-133467200D01*
G75*
G02*
X187085000Y-133217201I0J249999D01*
G01*
X187085000Y-132417199D01*
G75*
G02*
X187334999Y-132167200I249999J0D01*
G01*
X188585001Y-132167200D01*
G75*
G02*
X188835000Y-132417199I0J-249999D01*
G01*
X188835000Y-133217201D01*
G75*
G02*
X188585001Y-133467200I-249999J0D01*
G01*
G37*
G36*
G01*
X188585001Y-130367200D02*
X187334999Y-130367200D01*
G75*
G02*
X187085000Y-130117201I0J249999D01*
G01*
X187085000Y-129317199D01*
G75*
G02*
X187334999Y-129067200I249999J0D01*
G01*
X188585001Y-129067200D01*
G75*
G02*
X188835000Y-129317199I0J-249999D01*
G01*
X188835000Y-130117201D01*
G75*
G02*
X188585001Y-130367200I-249999J0D01*
G01*
G37*
G36*
G01*
X172247399Y-135875600D02*
X173497401Y-135875600D01*
G75*
G02*
X173747400Y-136125599I0J-249999D01*
G01*
X173747400Y-136925601D01*
G75*
G02*
X173497401Y-137175600I-249999J0D01*
G01*
X172247399Y-137175600D01*
G75*
G02*
X171997400Y-136925601I0J249999D01*
G01*
X171997400Y-136125599D01*
G75*
G02*
X172247399Y-135875600I249999J0D01*
G01*
G37*
G36*
G01*
X172247399Y-132775600D02*
X173497401Y-132775600D01*
G75*
G02*
X173747400Y-133025599I0J-249999D01*
G01*
X173747400Y-133825601D01*
G75*
G02*
X173497401Y-134075600I-249999J0D01*
G01*
X172247399Y-134075600D01*
G75*
G02*
X171997400Y-133825601I0J249999D01*
G01*
X171997400Y-133025599D01*
G75*
G02*
X172247399Y-132775600I249999J0D01*
G01*
G37*
G36*
G01*
X133289201Y-130647800D02*
X132039199Y-130647800D01*
G75*
G02*
X131789200Y-130397801I0J249999D01*
G01*
X131789200Y-129597799D01*
G75*
G02*
X132039199Y-129347800I249999J0D01*
G01*
X133289201Y-129347800D01*
G75*
G02*
X133539200Y-129597799I0J-249999D01*
G01*
X133539200Y-130397801D01*
G75*
G02*
X133289201Y-130647800I-249999J0D01*
G01*
G37*
G36*
G01*
X133289201Y-127547800D02*
X132039199Y-127547800D01*
G75*
G02*
X131789200Y-127297801I0J249999D01*
G01*
X131789200Y-126497799D01*
G75*
G02*
X132039199Y-126247800I249999J0D01*
G01*
X133289201Y-126247800D01*
G75*
G02*
X133539200Y-126497799I0J-249999D01*
G01*
X133539200Y-127297801D01*
G75*
G02*
X133289201Y-127547800I-249999J0D01*
G01*
G37*
G36*
G01*
X149819199Y-135621600D02*
X151069201Y-135621600D01*
G75*
G02*
X151319200Y-135871599I0J-249999D01*
G01*
X151319200Y-136671601D01*
G75*
G02*
X151069201Y-136921600I-249999J0D01*
G01*
X149819199Y-136921600D01*
G75*
G02*
X149569200Y-136671601I0J249999D01*
G01*
X149569200Y-135871599D01*
G75*
G02*
X149819199Y-135621600I249999J0D01*
G01*
G37*
G36*
G01*
X149819199Y-132521600D02*
X151069201Y-132521600D01*
G75*
G02*
X151319200Y-132771599I0J-249999D01*
G01*
X151319200Y-133571601D01*
G75*
G02*
X151069201Y-133821600I-249999J0D01*
G01*
X149819199Y-133821600D01*
G75*
G02*
X149569200Y-133571601I0J249999D01*
G01*
X149569200Y-132771599D01*
G75*
G02*
X149819199Y-132521600I249999J0D01*
G01*
G37*
G36*
G01*
X163433998Y-65035000D02*
X164734002Y-65035000D01*
G75*
G02*
X164984000Y-65284998I0J-249998D01*
G01*
X164984000Y-66110002D01*
G75*
G02*
X164734002Y-66360000I-249998J0D01*
G01*
X163433998Y-66360000D01*
G75*
G02*
X163184000Y-66110002I0J249998D01*
G01*
X163184000Y-65284998D01*
G75*
G02*
X163433998Y-65035000I249998J0D01*
G01*
G37*
G36*
G01*
X163433998Y-61910000D02*
X164734002Y-61910000D01*
G75*
G02*
X164984000Y-62159998I0J-249998D01*
G01*
X164984000Y-62985002D01*
G75*
G02*
X164734002Y-63235000I-249998J0D01*
G01*
X163433998Y-63235000D01*
G75*
G02*
X163184000Y-62985002I0J249998D01*
G01*
X163184000Y-62159998D01*
G75*
G02*
X163433998Y-61910000I249998J0D01*
G01*
G37*
G36*
G01*
X142011800Y-73574999D02*
X142011800Y-74875001D01*
G75*
G02*
X141761801Y-75125000I-249999J0D01*
G01*
X141061799Y-75125000D01*
G75*
G02*
X140811800Y-74875001I0J249999D01*
G01*
X140811800Y-73574999D01*
G75*
G02*
X141061799Y-73325000I249999J0D01*
G01*
X141761801Y-73325000D01*
G75*
G02*
X142011800Y-73574999I0J-249999D01*
G01*
G37*
G36*
G01*
X149611800Y-73574999D02*
X149611800Y-74875001D01*
G75*
G02*
X149361801Y-75125000I-249999J0D01*
G01*
X148661799Y-75125000D01*
G75*
G02*
X148411800Y-74875001I0J249999D01*
G01*
X148411800Y-73574999D01*
G75*
G02*
X148661799Y-73325000I249999J0D01*
G01*
X149361801Y-73325000D01*
G75*
G02*
X149611800Y-73574999I0J-249999D01*
G01*
G37*
G36*
G01*
X143011800Y-71075000D02*
X143011800Y-72325000D01*
G75*
G02*
X142861800Y-72475000I-150000J0D01*
G01*
X142561800Y-72475000D01*
G75*
G02*
X142411800Y-72325000I0J150000D01*
G01*
X142411800Y-71075000D01*
G75*
G02*
X142561800Y-70925000I150000J0D01*
G01*
X142861800Y-70925000D01*
G75*
G02*
X143011800Y-71075000I0J-150000D01*
G01*
G37*
G36*
G01*
X144011800Y-71075000D02*
X144011800Y-72325000D01*
G75*
G02*
X143861800Y-72475000I-150000J0D01*
G01*
X143561800Y-72475000D01*
G75*
G02*
X143411800Y-72325000I0J150000D01*
G01*
X143411800Y-71075000D01*
G75*
G02*
X143561800Y-70925000I150000J0D01*
G01*
X143861800Y-70925000D01*
G75*
G02*
X144011800Y-71075000I0J-150000D01*
G01*
G37*
G36*
G01*
X145011800Y-71075000D02*
X145011800Y-72325000D01*
G75*
G02*
X144861800Y-72475000I-150000J0D01*
G01*
X144561800Y-72475000D01*
G75*
G02*
X144411800Y-72325000I0J150000D01*
G01*
X144411800Y-71075000D01*
G75*
G02*
X144561800Y-70925000I150000J0D01*
G01*
X144861800Y-70925000D01*
G75*
G02*
X145011800Y-71075000I0J-150000D01*
G01*
G37*
G36*
G01*
X146011800Y-71075000D02*
X146011800Y-72325000D01*
G75*
G02*
X145861800Y-72475000I-150000J0D01*
G01*
X145561800Y-72475000D01*
G75*
G02*
X145411800Y-72325000I0J150000D01*
G01*
X145411800Y-71075000D01*
G75*
G02*
X145561800Y-70925000I150000J0D01*
G01*
X145861800Y-70925000D01*
G75*
G02*
X146011800Y-71075000I0J-150000D01*
G01*
G37*
G36*
G01*
X147011800Y-71075000D02*
X147011800Y-72325000D01*
G75*
G02*
X146861800Y-72475000I-150000J0D01*
G01*
X146561800Y-72475000D01*
G75*
G02*
X146411800Y-72325000I0J150000D01*
G01*
X146411800Y-71075000D01*
G75*
G02*
X146561800Y-70925000I150000J0D01*
G01*
X146861800Y-70925000D01*
G75*
G02*
X147011800Y-71075000I0J-150000D01*
G01*
G37*
G36*
G01*
X148011800Y-71075000D02*
X148011800Y-72325000D01*
G75*
G02*
X147861800Y-72475000I-150000J0D01*
G01*
X147561800Y-72475000D01*
G75*
G02*
X147411800Y-72325000I0J150000D01*
G01*
X147411800Y-71075000D01*
G75*
G02*
X147561800Y-70925000I150000J0D01*
G01*
X147861800Y-70925000D01*
G75*
G02*
X148011800Y-71075000I0J-150000D01*
G01*
G37*
G36*
G01*
X177958400Y-70744800D02*
X177958400Y-71994800D01*
G75*
G02*
X177808400Y-72144800I-150000J0D01*
G01*
X177508400Y-72144800D01*
G75*
G02*
X177358400Y-71994800I0J150000D01*
G01*
X177358400Y-70744800D01*
G75*
G02*
X177508400Y-70594800I150000J0D01*
G01*
X177808400Y-70594800D01*
G75*
G02*
X177958400Y-70744800I0J-150000D01*
G01*
G37*
G36*
G01*
X176958400Y-70744800D02*
X176958400Y-71994800D01*
G75*
G02*
X176808400Y-72144800I-150000J0D01*
G01*
X176508400Y-72144800D01*
G75*
G02*
X176358400Y-71994800I0J150000D01*
G01*
X176358400Y-70744800D01*
G75*
G02*
X176508400Y-70594800I150000J0D01*
G01*
X176808400Y-70594800D01*
G75*
G02*
X176958400Y-70744800I0J-150000D01*
G01*
G37*
G36*
G01*
X175958400Y-70744800D02*
X175958400Y-71994800D01*
G75*
G02*
X175808400Y-72144800I-150000J0D01*
G01*
X175508400Y-72144800D01*
G75*
G02*
X175358400Y-71994800I0J150000D01*
G01*
X175358400Y-70744800D01*
G75*
G02*
X175508400Y-70594800I150000J0D01*
G01*
X175808400Y-70594800D01*
G75*
G02*
X175958400Y-70744800I0J-150000D01*
G01*
G37*
G36*
G01*
X174958400Y-70744800D02*
X174958400Y-71994800D01*
G75*
G02*
X174808400Y-72144800I-150000J0D01*
G01*
X174508400Y-72144800D01*
G75*
G02*
X174358400Y-71994800I0J150000D01*
G01*
X174358400Y-70744800D01*
G75*
G02*
X174508400Y-70594800I150000J0D01*
G01*
X174808400Y-70594800D01*
G75*
G02*
X174958400Y-70744800I0J-150000D01*
G01*
G37*
G36*
G01*
X173958400Y-70744800D02*
X173958400Y-71994800D01*
G75*
G02*
X173808400Y-72144800I-150000J0D01*
G01*
X173508400Y-72144800D01*
G75*
G02*
X173358400Y-71994800I0J150000D01*
G01*
X173358400Y-70744800D01*
G75*
G02*
X173508400Y-70594800I150000J0D01*
G01*
X173808400Y-70594800D01*
G75*
G02*
X173958400Y-70744800I0J-150000D01*
G01*
G37*
G36*
G01*
X172958400Y-70744800D02*
X172958400Y-71994800D01*
G75*
G02*
X172808400Y-72144800I-150000J0D01*
G01*
X172508400Y-72144800D01*
G75*
G02*
X172358400Y-71994800I0J150000D01*
G01*
X172358400Y-70744800D01*
G75*
G02*
X172508400Y-70594800I150000J0D01*
G01*
X172808400Y-70594800D01*
G75*
G02*
X172958400Y-70744800I0J-150000D01*
G01*
G37*
G36*
G01*
X179558400Y-73244799D02*
X179558400Y-74544801D01*
G75*
G02*
X179308401Y-74794800I-249999J0D01*
G01*
X178608399Y-74794800D01*
G75*
G02*
X178358400Y-74544801I0J249999D01*
G01*
X178358400Y-73244799D01*
G75*
G02*
X178608399Y-72994800I249999J0D01*
G01*
X179308401Y-72994800D01*
G75*
G02*
X179558400Y-73244799I0J-249999D01*
G01*
G37*
G36*
G01*
X171958400Y-73244799D02*
X171958400Y-74544801D01*
G75*
G02*
X171708401Y-74794800I-249999J0D01*
G01*
X171008399Y-74794800D01*
G75*
G02*
X170758400Y-74544801I0J249999D01*
G01*
X170758400Y-73244799D01*
G75*
G02*
X171008399Y-72994800I249999J0D01*
G01*
X171708401Y-72994800D01*
G75*
G02*
X171958400Y-73244799I0J-249999D01*
G01*
G37*
G36*
G01*
X167878998Y-64704800D02*
X169179002Y-64704800D01*
G75*
G02*
X169429000Y-64954798I0J-249998D01*
G01*
X169429000Y-65779802D01*
G75*
G02*
X169179002Y-66029800I-249998J0D01*
G01*
X167878998Y-66029800D01*
G75*
G02*
X167629000Y-65779802I0J249998D01*
G01*
X167629000Y-64954798D01*
G75*
G02*
X167878998Y-64704800I249998J0D01*
G01*
G37*
G36*
G01*
X167878998Y-61579800D02*
X169179002Y-61579800D01*
G75*
G02*
X169429000Y-61829798I0J-249998D01*
G01*
X169429000Y-62654802D01*
G75*
G02*
X169179002Y-62904800I-249998J0D01*
G01*
X167878998Y-62904800D01*
G75*
G02*
X167629000Y-62654802I0J249998D01*
G01*
X167629000Y-61829798D01*
G75*
G02*
X167878998Y-61579800I249998J0D01*
G01*
G37*
D10*
X136207600Y-57073800D03*
X127647600Y-57073800D03*
X176491800Y-134747000D03*
X185051800Y-134747000D03*
D11*
X184108400Y-64439800D03*
X184108400Y-61899800D03*
X184108400Y-59359800D03*
D12*
X172533400Y-59124800D03*
X177383400Y-64674800D03*
X172533400Y-64674800D03*
X177383400Y-59124800D03*
D13*
X190515200Y-119643400D03*
X192415200Y-119643400D03*
X191465200Y-117643400D03*
D14*
X168697400Y-135483600D03*
X170697400Y-134533600D03*
X170697400Y-136433600D03*
D13*
X133289000Y-123224800D03*
X135189000Y-123224800D03*
X134239000Y-121224800D03*
X153517600Y-139861800D03*
X152567600Y-137861800D03*
X154467600Y-137861800D03*
G36*
G01*
X138648202Y-99862600D02*
X137348198Y-99862600D01*
G75*
G02*
X137098200Y-99612602I0J249998D01*
G01*
X137098200Y-98787598D01*
G75*
G02*
X137348198Y-98537600I249998J0D01*
G01*
X138648202Y-98537600D01*
G75*
G02*
X138898200Y-98787598I0J-249998D01*
G01*
X138898200Y-99612602D01*
G75*
G02*
X138648202Y-99862600I-249998J0D01*
G01*
G37*
G36*
G01*
X138648202Y-96737600D02*
X137348198Y-96737600D01*
G75*
G02*
X137098200Y-96487602I0J249998D01*
G01*
X137098200Y-95662598D01*
G75*
G02*
X137348198Y-95412600I249998J0D01*
G01*
X138648202Y-95412600D01*
G75*
G02*
X138898200Y-95662598I0J-249998D01*
G01*
X138898200Y-96487602D01*
G75*
G02*
X138648202Y-96737600I-249998J0D01*
G01*
G37*
M02*
