G04 #@! TF.GenerationSoftware,KiCad,Pcbnew,(5.1.12-1-10_14)*
G04 #@! TF.CreationDate,2022-11-01T19:03:59-07:00*
G04 #@! TF.ProjectId,mouse_v2_PAIN,6d6f7573-655f-4763-925f-5041494e2e6b,rev?*
G04 #@! TF.SameCoordinates,Original*
G04 #@! TF.FileFunction,Soldermask,Top*
G04 #@! TF.FilePolarity,Negative*
%FSLAX46Y46*%
G04 Gerber Fmt 4.6, Leading zero omitted, Abs format (unit mm)*
G04 Created by KiCad (PCBNEW (5.1.12-1-10_14)) date 2022-11-01 19:03:59*
%MOMM*%
%LPD*%
G01*
G04 APERTURE LIST*
G04 #@! TA.AperFunction,Profile*
%ADD10C,0.150000*%
G04 #@! TD*
%ADD11O,2.100000X2.100000*%
%ADD12C,2.600000*%
%ADD13C,2.400000*%
%ADD14C,2.000000*%
%ADD15O,1.400000X1.400000*%
%ADD16C,1.700000*%
%ADD17C,3.400000*%
%ADD18C,2.100000*%
%ADD19O,2.000000X2.000000*%
%ADD20C,2.584400*%
%ADD21C,2.200000*%
%ADD22O,1.750000X1.750000*%
%ADD23C,1.924000*%
%ADD24C,0.100000*%
G04 APERTURE END LIST*
D10*
X202570805Y-122880473D02*
X202562460Y-102412800D01*
X117662960Y-123477020D02*
X117652800Y-102158800D01*
X117667417Y-58036462D02*
G75*
G02*
X120972580Y-54653180I3371202J12703D01*
G01*
X199156316Y-54647889D02*
G75*
G02*
X202521820Y-57980580I-5075J-3370790D01*
G01*
X117678200Y-72212200D02*
X117668040Y-58036460D01*
X202514200Y-72212200D02*
X202521820Y-57980580D01*
X117678200Y-72212200D02*
X127711200Y-72212200D01*
X192227200Y-72212200D02*
X202514200Y-72212200D01*
X202562460Y-102412800D02*
X192227200Y-102412800D01*
X117652800Y-102158800D02*
X127711200Y-102158800D01*
X202570804Y-122880472D02*
G75*
G02*
X117662960Y-123477020I-42601604J20721672D01*
G01*
X192227200Y-72212200D02*
X192227200Y-102412800D01*
X120972580Y-54653180D02*
X199156320Y-54645560D01*
X127711200Y-102158800D02*
X127711200Y-72212200D01*
X202570805Y-122880473D02*
X202562460Y-102412800D01*
X117662960Y-123477020D02*
X117652800Y-102158800D01*
X117667417Y-58036462D02*
G75*
G02*
X120972580Y-54653180I3371202J12703D01*
G01*
X199156316Y-54647889D02*
G75*
G02*
X202521820Y-57980580I-5075J-3370790D01*
G01*
X117678200Y-72212200D02*
X117668040Y-58036460D01*
X202514200Y-72212200D02*
X202521820Y-57980580D01*
X117678200Y-72212200D02*
X127711200Y-72212200D01*
X192227200Y-72212200D02*
X202514200Y-72212200D01*
X202562460Y-102412800D02*
X192227200Y-102412800D01*
X117652800Y-102158800D02*
X127711200Y-102158800D01*
X202570804Y-122880472D02*
G75*
G02*
X117662960Y-123477020I-42601604J20721672D01*
G01*
X192227200Y-72212200D02*
X192227200Y-102412800D01*
X120972580Y-54653180D02*
X199156320Y-54645560D01*
X127711200Y-102158800D02*
X127711200Y-72212200D01*
G36*
G01*
X183882400Y-71712800D02*
X182182400Y-71712800D01*
G75*
G02*
X181982400Y-71512800I0J200000D01*
G01*
X181982400Y-69812800D01*
G75*
G02*
X182182400Y-69612800I200000J0D01*
G01*
X183882400Y-69612800D01*
G75*
G02*
X184082400Y-69812800I0J-200000D01*
G01*
X184082400Y-71512800D01*
G75*
G02*
X183882400Y-71712800I-200000J0D01*
G01*
G37*
D11*
X185572400Y-70662800D03*
G36*
G01*
X200922600Y-117107600D02*
X200922600Y-118807600D01*
G75*
G02*
X200722600Y-119007600I-200000J0D01*
G01*
X199022600Y-119007600D01*
G75*
G02*
X198822600Y-118807600I0J200000D01*
G01*
X198822600Y-117107600D01*
G75*
G02*
X199022600Y-116907600I200000J0D01*
G01*
X200722600Y-116907600D01*
G75*
G02*
X200922600Y-117107600I0J-200000D01*
G01*
G37*
X199872600Y-115417600D03*
X199872600Y-112877600D03*
X199872600Y-110337600D03*
X199872600Y-107797600D03*
X199872600Y-105257600D03*
D12*
X168198800Y-100253800D03*
X151790400Y-100253800D03*
X160083500Y-64262000D03*
X160020000Y-139954000D03*
X160096200Y-56413400D03*
X160020000Y-147828000D03*
G36*
G01*
X192777400Y-106310800D02*
X192777400Y-104610800D01*
G75*
G02*
X192977400Y-104410800I200000J0D01*
G01*
X194677400Y-104410800D01*
G75*
G02*
X194877400Y-104610800I0J-200000D01*
G01*
X194877400Y-106310800D01*
G75*
G02*
X194677400Y-106510800I-200000J0D01*
G01*
X192977400Y-106510800D01*
G75*
G02*
X192777400Y-106310800I0J200000D01*
G01*
G37*
D11*
X193827400Y-108000800D03*
G36*
G01*
X129201922Y-63424414D02*
X129549218Y-65394030D01*
G75*
G02*
X129386986Y-65625722I-196962J-34730D01*
G01*
X127417370Y-65973018D01*
G75*
G02*
X127185678Y-65810786I-34730J196962D01*
G01*
X126838382Y-63841170D01*
G75*
G02*
X127000614Y-63609478I196962J34730D01*
G01*
X128970230Y-63262182D01*
G75*
G02*
X129201922Y-63424414I34730J-196962D01*
G01*
G37*
D13*
X120709261Y-65937326D03*
G36*
G01*
X125438575Y-61554370D02*
X127170625Y-62554370D01*
G75*
G02*
X127243830Y-62827575I-100000J-173205D01*
G01*
X126243830Y-64559625D01*
G75*
G02*
X125970625Y-64632830I-173205J100000D01*
G01*
X124238575Y-63632830D01*
G75*
G02*
X124165370Y-63359625I100000J173205D01*
G01*
X125165370Y-61627575D01*
G75*
G02*
X125438575Y-61554370I173205J-100000D01*
G01*
G37*
X123204600Y-67423727D03*
G36*
G01*
X193049400Y-61074400D02*
X193049400Y-62674400D01*
G75*
G02*
X192849400Y-62874400I-200000J0D01*
G01*
X191249400Y-62874400D01*
G75*
G02*
X191049400Y-62674400I0J200000D01*
G01*
X191049400Y-61074400D01*
G75*
G02*
X191249400Y-60874400I200000J0D01*
G01*
X192849400Y-60874400D01*
G75*
G02*
X193049400Y-61074400I0J-200000D01*
G01*
G37*
D14*
X189549400Y-61874400D03*
G36*
G01*
X125226245Y-58797600D02*
X124100155Y-58797600D01*
G75*
G02*
X123763200Y-58460645I0J336955D01*
G01*
X123763200Y-57584555D01*
G75*
G02*
X124100155Y-57247600I336955J0D01*
G01*
X125226245Y-57247600D01*
G75*
G02*
X125563200Y-57584555I0J-336955D01*
G01*
X125563200Y-58460645D01*
G75*
G02*
X125226245Y-58797600I-336955J0D01*
G01*
G37*
G36*
G01*
X125226245Y-56747600D02*
X124100155Y-56747600D01*
G75*
G02*
X123763200Y-56410645I0J336955D01*
G01*
X123763200Y-55534555D01*
G75*
G02*
X124100155Y-55197600I336955J0D01*
G01*
X125226245Y-55197600D01*
G75*
G02*
X125563200Y-55534555I0J-336955D01*
G01*
X125563200Y-56410645D01*
G75*
G02*
X125226245Y-56747600I-336955J0D01*
G01*
G37*
G36*
G01*
X121162245Y-58797600D02*
X120036155Y-58797600D01*
G75*
G02*
X119699200Y-58460645I0J336955D01*
G01*
X119699200Y-57584555D01*
G75*
G02*
X120036155Y-57247600I336955J0D01*
G01*
X121162245Y-57247600D01*
G75*
G02*
X121499200Y-57584555I0J-336955D01*
G01*
X121499200Y-58460645D01*
G75*
G02*
X121162245Y-58797600I-336955J0D01*
G01*
G37*
G36*
G01*
X121162245Y-56747600D02*
X120036155Y-56747600D01*
G75*
G02*
X119699200Y-56410645I0J336955D01*
G01*
X119699200Y-55534555D01*
G75*
G02*
X120036155Y-55197600I336955J0D01*
G01*
X121162245Y-55197600D01*
G75*
G02*
X121499200Y-55534555I0J-336955D01*
G01*
X121499200Y-56410645D01*
G75*
G02*
X121162245Y-56747600I-336955J0D01*
G01*
G37*
G36*
G01*
X123194245Y-56747600D02*
X122068155Y-56747600D01*
G75*
G02*
X121731200Y-56410645I0J336955D01*
G01*
X121731200Y-55534555D01*
G75*
G02*
X122068155Y-55197600I336955J0D01*
G01*
X123194245Y-55197600D01*
G75*
G02*
X123531200Y-55534555I0J-336955D01*
G01*
X123531200Y-56410645D01*
G75*
G02*
X123194245Y-56747600I-336955J0D01*
G01*
G37*
G36*
G01*
X123194245Y-58797600D02*
X122068155Y-58797600D01*
G75*
G02*
X121731200Y-58460645I0J336955D01*
G01*
X121731200Y-57584555D01*
G75*
G02*
X122068155Y-57247600I336955J0D01*
G01*
X123194245Y-57247600D01*
G75*
G02*
X123531200Y-57584555I0J-336955D01*
G01*
X123531200Y-58460645D01*
G75*
G02*
X123194245Y-58797600I-336955J0D01*
G01*
G37*
G36*
G01*
X141286600Y-58047600D02*
X139586600Y-58047600D01*
G75*
G02*
X139386600Y-57847600I0J200000D01*
G01*
X139386600Y-56147600D01*
G75*
G02*
X139586600Y-55947600I200000J0D01*
G01*
X141286600Y-55947600D01*
G75*
G02*
X141486600Y-56147600I0J-200000D01*
G01*
X141486600Y-57847600D01*
G75*
G02*
X141286600Y-58047600I-200000J0D01*
G01*
G37*
D11*
X142976600Y-56997600D03*
X145516600Y-56997600D03*
X148056600Y-56997600D03*
X150596600Y-56997600D03*
X153136600Y-56997600D03*
G36*
G01*
X119645200Y-109643800D02*
X119645200Y-108643800D01*
G75*
G02*
X119845200Y-108443800I200000J0D01*
G01*
X120845200Y-108443800D01*
G75*
G02*
X121045200Y-108643800I0J-200000D01*
G01*
X121045200Y-109643800D01*
G75*
G02*
X120845200Y-109843800I-200000J0D01*
G01*
X119845200Y-109843800D01*
G75*
G02*
X119645200Y-109643800I0J200000D01*
G01*
G37*
D15*
X121615200Y-109143800D03*
X120345200Y-110413800D03*
X121615200Y-110413800D03*
X120345200Y-111683800D03*
X121615200Y-111683800D03*
X120345200Y-112953800D03*
X121615200Y-112953800D03*
X120345200Y-114223800D03*
X121615200Y-114223800D03*
G36*
G01*
X126204000Y-107225200D02*
X126204000Y-105525200D01*
G75*
G02*
X126404000Y-105325200I200000J0D01*
G01*
X128104000Y-105325200D01*
G75*
G02*
X128304000Y-105525200I0J-200000D01*
G01*
X128304000Y-107225200D01*
G75*
G02*
X128104000Y-107425200I-200000J0D01*
G01*
X126404000Y-107425200D01*
G75*
G02*
X126204000Y-107225200I0J200000D01*
G01*
G37*
D11*
X127254000Y-108915200D03*
X127254000Y-111455200D03*
X127254000Y-113995200D03*
X127254000Y-116535200D03*
D16*
X190677800Y-123596400D03*
X189407800Y-122326400D03*
G36*
G01*
X192797800Y-121676400D02*
X192797800Y-122976400D01*
G75*
G02*
X192597800Y-123176400I-200000J0D01*
G01*
X191297800Y-123176400D01*
G75*
G02*
X191097800Y-122976400I0J200000D01*
G01*
X191097800Y-121676400D01*
G75*
G02*
X191297800Y-121476400I200000J0D01*
G01*
X192597800Y-121476400D01*
G75*
G02*
X192797800Y-121676400I0J-200000D01*
G01*
G37*
G36*
G01*
X167601000Y-133741400D02*
X167601000Y-135041400D01*
G75*
G02*
X167401000Y-135241400I-200000J0D01*
G01*
X166101000Y-135241400D01*
G75*
G02*
X165901000Y-135041400I0J200000D01*
G01*
X165901000Y-133741400D01*
G75*
G02*
X166101000Y-133541400I200000J0D01*
G01*
X167401000Y-133541400D01*
G75*
G02*
X167601000Y-133741400I0J-200000D01*
G01*
G37*
X164211000Y-134391400D03*
X165481000Y-135661400D03*
X129692400Y-123393200D03*
X128422400Y-122123200D03*
G36*
G01*
X131812400Y-121473200D02*
X131812400Y-122773200D01*
G75*
G02*
X131612400Y-122973200I-200000J0D01*
G01*
X130312400Y-122973200D01*
G75*
G02*
X130112400Y-122773200I0J200000D01*
G01*
X130112400Y-121473200D01*
G75*
G02*
X130312400Y-121273200I200000J0D01*
G01*
X131612400Y-121273200D01*
G75*
G02*
X131812400Y-121473200I0J-200000D01*
G01*
G37*
G36*
G01*
X156882200Y-133741400D02*
X156882200Y-135041400D01*
G75*
G02*
X156682200Y-135241400I-200000J0D01*
G01*
X155382200Y-135241400D01*
G75*
G02*
X155182200Y-135041400I0J200000D01*
G01*
X155182200Y-133741400D01*
G75*
G02*
X155382200Y-133541400I200000J0D01*
G01*
X156682200Y-133541400D01*
G75*
G02*
X156882200Y-133741400I0J-200000D01*
G01*
G37*
X153492200Y-134391400D03*
X154762200Y-135661400D03*
X132308600Y-62026800D03*
X133578600Y-60756800D03*
G36*
G01*
X134228600Y-64146800D02*
X132928600Y-64146800D01*
G75*
G02*
X132728600Y-63946800I0J200000D01*
G01*
X132728600Y-62646800D01*
G75*
G02*
X132928600Y-62446800I200000J0D01*
G01*
X134228600Y-62446800D01*
G75*
G02*
X134428600Y-62646800I0J-200000D01*
G01*
X134428600Y-63946800D01*
G75*
G02*
X134228600Y-64146800I-200000J0D01*
G01*
G37*
G36*
G01*
X188708077Y-133667200D02*
X187211923Y-133667200D01*
G75*
G02*
X186885000Y-133340277I0J326923D01*
G01*
X186885000Y-132294123D01*
G75*
G02*
X187211923Y-131967200I326923J0D01*
G01*
X188708077Y-131967200D01*
G75*
G02*
X189035000Y-132294123I0J-326923D01*
G01*
X189035000Y-133340277D01*
G75*
G02*
X188708077Y-133667200I-326923J0D01*
G01*
G37*
G36*
G01*
X188708077Y-130567200D02*
X187211923Y-130567200D01*
G75*
G02*
X186885000Y-130240277I0J326923D01*
G01*
X186885000Y-129194123D01*
G75*
G02*
X187211923Y-128867200I326923J0D01*
G01*
X188708077Y-128867200D01*
G75*
G02*
X189035000Y-129194123I0J-326923D01*
G01*
X189035000Y-130240277D01*
G75*
G02*
X188708077Y-130567200I-326923J0D01*
G01*
G37*
G36*
G01*
X172124323Y-135675600D02*
X173620477Y-135675600D01*
G75*
G02*
X173947400Y-136002523I0J-326923D01*
G01*
X173947400Y-137048677D01*
G75*
G02*
X173620477Y-137375600I-326923J0D01*
G01*
X172124323Y-137375600D01*
G75*
G02*
X171797400Y-137048677I0J326923D01*
G01*
X171797400Y-136002523D01*
G75*
G02*
X172124323Y-135675600I326923J0D01*
G01*
G37*
G36*
G01*
X172124323Y-132575600D02*
X173620477Y-132575600D01*
G75*
G02*
X173947400Y-132902523I0J-326923D01*
G01*
X173947400Y-133948677D01*
G75*
G02*
X173620477Y-134275600I-326923J0D01*
G01*
X172124323Y-134275600D01*
G75*
G02*
X171797400Y-133948677I0J326923D01*
G01*
X171797400Y-132902523D01*
G75*
G02*
X172124323Y-132575600I326923J0D01*
G01*
G37*
G36*
G01*
X133412277Y-130847800D02*
X131916123Y-130847800D01*
G75*
G02*
X131589200Y-130520877I0J326923D01*
G01*
X131589200Y-129474723D01*
G75*
G02*
X131916123Y-129147800I326923J0D01*
G01*
X133412277Y-129147800D01*
G75*
G02*
X133739200Y-129474723I0J-326923D01*
G01*
X133739200Y-130520877D01*
G75*
G02*
X133412277Y-130847800I-326923J0D01*
G01*
G37*
G36*
G01*
X133412277Y-127747800D02*
X131916123Y-127747800D01*
G75*
G02*
X131589200Y-127420877I0J326923D01*
G01*
X131589200Y-126374723D01*
G75*
G02*
X131916123Y-126047800I326923J0D01*
G01*
X133412277Y-126047800D01*
G75*
G02*
X133739200Y-126374723I0J-326923D01*
G01*
X133739200Y-127420877D01*
G75*
G02*
X133412277Y-127747800I-326923J0D01*
G01*
G37*
G36*
G01*
X149696123Y-135421600D02*
X151192277Y-135421600D01*
G75*
G02*
X151519200Y-135748523I0J-326923D01*
G01*
X151519200Y-136794677D01*
G75*
G02*
X151192277Y-137121600I-326923J0D01*
G01*
X149696123Y-137121600D01*
G75*
G02*
X149369200Y-136794677I0J326923D01*
G01*
X149369200Y-135748523D01*
G75*
G02*
X149696123Y-135421600I326923J0D01*
G01*
G37*
G36*
G01*
X149696123Y-132321600D02*
X151192277Y-132321600D01*
G75*
G02*
X151519200Y-132648523I0J-326923D01*
G01*
X151519200Y-133694677D01*
G75*
G02*
X151192277Y-134021600I-326923J0D01*
G01*
X149696123Y-134021600D01*
G75*
G02*
X149369200Y-133694677I0J326923D01*
G01*
X149369200Y-132648523D01*
G75*
G02*
X149696123Y-132321600I326923J0D01*
G01*
G37*
D17*
X198196200Y-63119000D03*
X198196200Y-67945000D03*
X198196200Y-58293000D03*
G36*
G01*
X191885200Y-55515800D02*
X193585200Y-55515800D01*
G75*
G02*
X193785200Y-55715800I0J-200000D01*
G01*
X193785200Y-57415800D01*
G75*
G02*
X193585200Y-57615800I-200000J0D01*
G01*
X191885200Y-57615800D01*
G75*
G02*
X191685200Y-57415800I0J200000D01*
G01*
X191685200Y-55715800D01*
G75*
G02*
X191885200Y-55515800I200000J0D01*
G01*
G37*
G36*
G01*
X157844200Y-56122200D02*
X157844200Y-57822200D01*
G75*
G02*
X157644200Y-58022200I-200000J0D01*
G01*
X155944200Y-58022200D01*
G75*
G02*
X155744200Y-57822200I0J200000D01*
G01*
X155744200Y-56122200D01*
G75*
G02*
X155944200Y-55922200I200000J0D01*
G01*
X157644200Y-55922200D01*
G75*
G02*
X157844200Y-56122200I0J-200000D01*
G01*
G37*
D18*
X139522200Y-116840000D03*
X139522200Y-119380000D03*
X139522200Y-121920000D03*
X139522200Y-124460000D03*
X183972200Y-128270000D03*
G36*
G01*
X183122200Y-111980000D02*
X184822200Y-111980000D01*
G75*
G02*
X185022200Y-112180000I0J-200000D01*
G01*
X185022200Y-113880000D01*
G75*
G02*
X184822200Y-114080000I-200000J0D01*
G01*
X183122200Y-114080000D01*
G75*
G02*
X182922200Y-113880000I0J200000D01*
G01*
X182922200Y-112180000D01*
G75*
G02*
X183122200Y-111980000I200000J0D01*
G01*
G37*
X181432200Y-128270000D03*
X181432200Y-113030000D03*
X178892200Y-128270000D03*
X178892200Y-113030000D03*
X176352200Y-128270000D03*
X176352200Y-113030000D03*
X173812200Y-128270000D03*
X173812200Y-113030000D03*
X171272200Y-128270000D03*
X171272200Y-113030000D03*
X168732200Y-128270000D03*
X168732200Y-113030000D03*
X166192200Y-128270000D03*
X166192200Y-113030000D03*
X163652200Y-128270000D03*
X163652200Y-113030000D03*
X161112200Y-128270000D03*
X161112200Y-113030000D03*
X158572200Y-128270000D03*
X158572200Y-113030000D03*
X156032200Y-128270000D03*
X156032200Y-113030000D03*
X153492200Y-128270000D03*
X153492200Y-113030000D03*
X150952200Y-128270000D03*
X150952200Y-113030000D03*
X148412200Y-128270000D03*
X148412200Y-113030000D03*
X145872200Y-128270000D03*
X145872200Y-113030000D03*
X143332200Y-128270000D03*
X143332200Y-113030000D03*
X140792200Y-128270000D03*
X140792200Y-113030000D03*
X138252200Y-128270000D03*
X138252200Y-113030000D03*
X135712200Y-128270000D03*
X135712200Y-113030000D03*
G36*
G01*
X138112400Y-69199000D02*
X136512400Y-69199000D01*
G75*
G02*
X136312400Y-68999000I0J200000D01*
G01*
X136312400Y-67399000D01*
G75*
G02*
X136512400Y-67199000I200000J0D01*
G01*
X138112400Y-67199000D01*
G75*
G02*
X138312400Y-67399000I0J-200000D01*
G01*
X138312400Y-68999000D01*
G75*
G02*
X138112400Y-69199000I-200000J0D01*
G01*
G37*
D19*
X155092400Y-60579000D03*
X139852400Y-68199000D03*
X152552400Y-60579000D03*
X142392400Y-68199000D03*
X150012400Y-60579000D03*
X144932400Y-68199000D03*
X147472400Y-60579000D03*
X147472400Y-68199000D03*
X144932400Y-60579000D03*
X150012400Y-68199000D03*
X142392400Y-60579000D03*
X152552400Y-68199000D03*
X139852400Y-60579000D03*
X155092400Y-68199000D03*
X137312400Y-60579000D03*
D20*
X132254000Y-78376000D03*
X132254000Y-96376000D03*
X187786000Y-78376000D03*
X187786000Y-96376000D03*
D17*
X161493200Y-73406000D03*
X166319200Y-73406000D03*
X156667200Y-73406000D03*
G36*
G01*
X194835600Y-122058000D02*
X194835600Y-120258000D01*
G75*
G02*
X195035600Y-120058000I200000J0D01*
G01*
X196835600Y-120058000D01*
G75*
G02*
X197035600Y-120258000I0J-200000D01*
G01*
X197035600Y-122058000D01*
G75*
G02*
X196835600Y-122258000I-200000J0D01*
G01*
X195035600Y-122258000D01*
G75*
G02*
X194835600Y-122058000I0J200000D01*
G01*
G37*
D21*
X198475600Y-121158000D03*
D13*
X197205600Y-124968000D03*
X165875971Y-145140247D03*
D21*
X163032942Y-142303667D03*
G36*
G01*
X162214223Y-145962806D02*
X160603341Y-145159650D01*
G75*
G02*
X160513594Y-144891423I89240J178987D01*
G01*
X161316750Y-143280541D01*
G75*
G02*
X161584977Y-143190794I178987J-89240D01*
G01*
X163195859Y-143993950D01*
G75*
G02*
X163285606Y-144262177I-89240J-178987D01*
G01*
X162482450Y-145873059D01*
G75*
G02*
X162214223Y-145962806I-178987J89240D01*
G01*
G37*
D13*
X122948700Y-124841000D03*
D21*
X124218700Y-121031000D03*
G36*
G01*
X120578700Y-121931000D02*
X120578700Y-120131000D01*
G75*
G02*
X120778700Y-119931000I200000J0D01*
G01*
X122578700Y-119931000D01*
G75*
G02*
X122778700Y-120131000I0J-200000D01*
G01*
X122778700Y-121931000D01*
G75*
G02*
X122578700Y-122131000I-200000J0D01*
G01*
X120778700Y-122131000D01*
G75*
G02*
X120578700Y-121931000I0J200000D01*
G01*
G37*
G36*
G01*
X155786999Y-141720817D02*
X157397881Y-140917661D01*
G75*
G02*
X157666108Y-141007408I89240J-178987D01*
G01*
X158469264Y-142618290D01*
G75*
G02*
X158379517Y-142886517I-178987J-89240D01*
G01*
X156768635Y-143689673D01*
G75*
G02*
X156500408Y-143599926I-89240J178987D01*
G01*
X155697252Y-141989044D01*
G75*
G02*
X155786999Y-141720817I178987J89240D01*
G01*
G37*
X158216600Y-144576800D03*
D13*
X154240229Y-145140247D03*
G36*
G01*
X189349200Y-127950800D02*
X189349200Y-126150800D01*
G75*
G02*
X189549200Y-125950800I200000J0D01*
G01*
X191349200Y-125950800D01*
G75*
G02*
X191549200Y-126150800I0J-200000D01*
G01*
X191549200Y-127950800D01*
G75*
G02*
X191349200Y-128150800I-200000J0D01*
G01*
X189549200Y-128150800D01*
G75*
G02*
X189349200Y-127950800I0J200000D01*
G01*
G37*
D21*
X192989200Y-127050800D03*
D13*
X191719200Y-130860800D03*
X173699171Y-142574847D03*
D21*
X170856142Y-139738267D03*
G36*
G01*
X170037423Y-143397406D02*
X168426541Y-142594250D01*
G75*
G02*
X168336794Y-142326023I89240J178987D01*
G01*
X169139950Y-140715141D01*
G75*
G02*
X169408177Y-140625394I178987J-89240D01*
G01*
X171019059Y-141428550D01*
G75*
G02*
X171108806Y-141696777I-89240J-178987D01*
G01*
X170305650Y-143307659D01*
G75*
G02*
X170037423Y-143397406I-178987J89240D01*
G01*
G37*
G36*
G01*
X126458800Y-127823800D02*
X126458800Y-126023800D01*
G75*
G02*
X126658800Y-125823800I200000J0D01*
G01*
X128458800Y-125823800D01*
G75*
G02*
X128658800Y-126023800I0J-200000D01*
G01*
X128658800Y-127823800D01*
G75*
G02*
X128458800Y-128023800I-200000J0D01*
G01*
X126658800Y-128023800D01*
G75*
G02*
X126458800Y-127823800I0J200000D01*
G01*
G37*
X130098800Y-126923800D03*
D13*
X128828800Y-130733800D03*
X146442429Y-142574847D03*
D21*
X150418800Y-142011400D03*
G36*
G01*
X147989199Y-139155417D02*
X149600081Y-138352261D01*
G75*
G02*
X149868308Y-138442008I89240J-178987D01*
G01*
X150671464Y-140052890D01*
G75*
G02*
X150581717Y-140321117I-178987J-89240D01*
G01*
X148970835Y-141124273D01*
G75*
G02*
X148702608Y-141034526I-89240J178987D01*
G01*
X147899452Y-139423644D01*
G75*
G02*
X147989199Y-139155417I178987J89240D01*
G01*
G37*
G36*
G01*
X163309470Y-64835000D02*
X164858530Y-64835000D01*
G75*
G02*
X165184000Y-65160470I0J-325470D01*
G01*
X165184000Y-66234530D01*
G75*
G02*
X164858530Y-66560000I-325470J0D01*
G01*
X163309470Y-66560000D01*
G75*
G02*
X162984000Y-66234530I0J325470D01*
G01*
X162984000Y-65160470D01*
G75*
G02*
X163309470Y-64835000I325470J0D01*
G01*
G37*
G36*
G01*
X163309470Y-61710000D02*
X164858530Y-61710000D01*
G75*
G02*
X165184000Y-62035470I0J-325470D01*
G01*
X165184000Y-63109530D01*
G75*
G02*
X164858530Y-63435000I-325470J0D01*
G01*
X163309470Y-63435000D01*
G75*
G02*
X162984000Y-63109530I0J325470D01*
G01*
X162984000Y-62035470D01*
G75*
G02*
X163309470Y-61710000I325470J0D01*
G01*
G37*
G36*
G01*
X166890600Y-60537600D02*
X165290600Y-60537600D01*
G75*
G02*
X165090600Y-60337600I0J200000D01*
G01*
X165090600Y-58737600D01*
G75*
G02*
X165290600Y-58537600I200000J0D01*
G01*
X166890600Y-58537600D01*
G75*
G02*
X167090600Y-58737600I0J-200000D01*
G01*
X167090600Y-60337600D01*
G75*
G02*
X166890600Y-60537600I-200000J0D01*
G01*
G37*
D14*
X166090600Y-57037600D03*
G36*
G01*
X142211800Y-73458332D02*
X142211800Y-74991668D01*
G75*
G02*
X141878468Y-75325000I-333332J0D01*
G01*
X140945132Y-75325000D01*
G75*
G02*
X140611800Y-74991668I0J333332D01*
G01*
X140611800Y-73458332D01*
G75*
G02*
X140945132Y-73125000I333332J0D01*
G01*
X141878468Y-73125000D01*
G75*
G02*
X142211800Y-73458332I0J-333332D01*
G01*
G37*
G36*
G01*
X149811800Y-73458332D02*
X149811800Y-74991668D01*
G75*
G02*
X149478468Y-75325000I-333332J0D01*
G01*
X148545132Y-75325000D01*
G75*
G02*
X148211800Y-74991668I0J333332D01*
G01*
X148211800Y-73458332D01*
G75*
G02*
X148545132Y-73125000I333332J0D01*
G01*
X149478468Y-73125000D01*
G75*
G02*
X149811800Y-73458332I0J-333332D01*
G01*
G37*
G36*
G01*
X143211800Y-70975000D02*
X143211800Y-72425000D01*
G75*
G02*
X142961800Y-72675000I-250000J0D01*
G01*
X142461800Y-72675000D01*
G75*
G02*
X142211800Y-72425000I0J250000D01*
G01*
X142211800Y-70975000D01*
G75*
G02*
X142461800Y-70725000I250000J0D01*
G01*
X142961800Y-70725000D01*
G75*
G02*
X143211800Y-70975000I0J-250000D01*
G01*
G37*
G36*
G01*
X144211800Y-70975000D02*
X144211800Y-72425000D01*
G75*
G02*
X143961800Y-72675000I-250000J0D01*
G01*
X143461800Y-72675000D01*
G75*
G02*
X143211800Y-72425000I0J250000D01*
G01*
X143211800Y-70975000D01*
G75*
G02*
X143461800Y-70725000I250000J0D01*
G01*
X143961800Y-70725000D01*
G75*
G02*
X144211800Y-70975000I0J-250000D01*
G01*
G37*
G36*
G01*
X145211800Y-70975000D02*
X145211800Y-72425000D01*
G75*
G02*
X144961800Y-72675000I-250000J0D01*
G01*
X144461800Y-72675000D01*
G75*
G02*
X144211800Y-72425000I0J250000D01*
G01*
X144211800Y-70975000D01*
G75*
G02*
X144461800Y-70725000I250000J0D01*
G01*
X144961800Y-70725000D01*
G75*
G02*
X145211800Y-70975000I0J-250000D01*
G01*
G37*
G36*
G01*
X146211800Y-70975000D02*
X146211800Y-72425000D01*
G75*
G02*
X145961800Y-72675000I-250000J0D01*
G01*
X145461800Y-72675000D01*
G75*
G02*
X145211800Y-72425000I0J250000D01*
G01*
X145211800Y-70975000D01*
G75*
G02*
X145461800Y-70725000I250000J0D01*
G01*
X145961800Y-70725000D01*
G75*
G02*
X146211800Y-70975000I0J-250000D01*
G01*
G37*
G36*
G01*
X147211800Y-70975000D02*
X147211800Y-72425000D01*
G75*
G02*
X146961800Y-72675000I-250000J0D01*
G01*
X146461800Y-72675000D01*
G75*
G02*
X146211800Y-72425000I0J250000D01*
G01*
X146211800Y-70975000D01*
G75*
G02*
X146461800Y-70725000I250000J0D01*
G01*
X146961800Y-70725000D01*
G75*
G02*
X147211800Y-70975000I0J-250000D01*
G01*
G37*
G36*
G01*
X148211800Y-70975000D02*
X148211800Y-72425000D01*
G75*
G02*
X147961800Y-72675000I-250000J0D01*
G01*
X147461800Y-72675000D01*
G75*
G02*
X147211800Y-72425000I0J250000D01*
G01*
X147211800Y-70975000D01*
G75*
G02*
X147461800Y-70725000I250000J0D01*
G01*
X147961800Y-70725000D01*
G75*
G02*
X148211800Y-70975000I0J-250000D01*
G01*
G37*
G36*
G01*
X178158400Y-70644800D02*
X178158400Y-72094800D01*
G75*
G02*
X177908400Y-72344800I-250000J0D01*
G01*
X177408400Y-72344800D01*
G75*
G02*
X177158400Y-72094800I0J250000D01*
G01*
X177158400Y-70644800D01*
G75*
G02*
X177408400Y-70394800I250000J0D01*
G01*
X177908400Y-70394800D01*
G75*
G02*
X178158400Y-70644800I0J-250000D01*
G01*
G37*
G36*
G01*
X177158400Y-70644800D02*
X177158400Y-72094800D01*
G75*
G02*
X176908400Y-72344800I-250000J0D01*
G01*
X176408400Y-72344800D01*
G75*
G02*
X176158400Y-72094800I0J250000D01*
G01*
X176158400Y-70644800D01*
G75*
G02*
X176408400Y-70394800I250000J0D01*
G01*
X176908400Y-70394800D01*
G75*
G02*
X177158400Y-70644800I0J-250000D01*
G01*
G37*
G36*
G01*
X176158400Y-70644800D02*
X176158400Y-72094800D01*
G75*
G02*
X175908400Y-72344800I-250000J0D01*
G01*
X175408400Y-72344800D01*
G75*
G02*
X175158400Y-72094800I0J250000D01*
G01*
X175158400Y-70644800D01*
G75*
G02*
X175408400Y-70394800I250000J0D01*
G01*
X175908400Y-70394800D01*
G75*
G02*
X176158400Y-70644800I0J-250000D01*
G01*
G37*
G36*
G01*
X175158400Y-70644800D02*
X175158400Y-72094800D01*
G75*
G02*
X174908400Y-72344800I-250000J0D01*
G01*
X174408400Y-72344800D01*
G75*
G02*
X174158400Y-72094800I0J250000D01*
G01*
X174158400Y-70644800D01*
G75*
G02*
X174408400Y-70394800I250000J0D01*
G01*
X174908400Y-70394800D01*
G75*
G02*
X175158400Y-70644800I0J-250000D01*
G01*
G37*
G36*
G01*
X174158400Y-70644800D02*
X174158400Y-72094800D01*
G75*
G02*
X173908400Y-72344800I-250000J0D01*
G01*
X173408400Y-72344800D01*
G75*
G02*
X173158400Y-72094800I0J250000D01*
G01*
X173158400Y-70644800D01*
G75*
G02*
X173408400Y-70394800I250000J0D01*
G01*
X173908400Y-70394800D01*
G75*
G02*
X174158400Y-70644800I0J-250000D01*
G01*
G37*
G36*
G01*
X173158400Y-70644800D02*
X173158400Y-72094800D01*
G75*
G02*
X172908400Y-72344800I-250000J0D01*
G01*
X172408400Y-72344800D01*
G75*
G02*
X172158400Y-72094800I0J250000D01*
G01*
X172158400Y-70644800D01*
G75*
G02*
X172408400Y-70394800I250000J0D01*
G01*
X172908400Y-70394800D01*
G75*
G02*
X173158400Y-70644800I0J-250000D01*
G01*
G37*
G36*
G01*
X179758400Y-73128132D02*
X179758400Y-74661468D01*
G75*
G02*
X179425068Y-74994800I-333332J0D01*
G01*
X178491732Y-74994800D01*
G75*
G02*
X178158400Y-74661468I0J333332D01*
G01*
X178158400Y-73128132D01*
G75*
G02*
X178491732Y-72794800I333332J0D01*
G01*
X179425068Y-72794800D01*
G75*
G02*
X179758400Y-73128132I0J-333332D01*
G01*
G37*
G36*
G01*
X172158400Y-73128132D02*
X172158400Y-74661468D01*
G75*
G02*
X171825068Y-74994800I-333332J0D01*
G01*
X170891732Y-74994800D01*
G75*
G02*
X170558400Y-74661468I0J333332D01*
G01*
X170558400Y-73128132D01*
G75*
G02*
X170891732Y-72794800I333332J0D01*
G01*
X171825068Y-72794800D01*
G75*
G02*
X172158400Y-73128132I0J-333332D01*
G01*
G37*
G36*
G01*
X167754470Y-64504800D02*
X169303530Y-64504800D01*
G75*
G02*
X169629000Y-64830270I0J-325470D01*
G01*
X169629000Y-65904330D01*
G75*
G02*
X169303530Y-66229800I-325470J0D01*
G01*
X167754470Y-66229800D01*
G75*
G02*
X167429000Y-65904330I0J325470D01*
G01*
X167429000Y-64830270D01*
G75*
G02*
X167754470Y-64504800I325470J0D01*
G01*
G37*
G36*
G01*
X167754470Y-61379800D02*
X169303530Y-61379800D01*
G75*
G02*
X169629000Y-61705270I0J-325470D01*
G01*
X169629000Y-62779330D01*
G75*
G02*
X169303530Y-63104800I-325470J0D01*
G01*
X167754470Y-63104800D01*
G75*
G02*
X167429000Y-62779330I0J325470D01*
G01*
X167429000Y-61705270D01*
G75*
G02*
X167754470Y-61379800I325470J0D01*
G01*
G37*
D11*
X151917400Y-77470000D03*
X149377400Y-77470000D03*
X146837400Y-77470000D03*
X144297400Y-77470000D03*
X141757400Y-77470000D03*
G36*
G01*
X140067400Y-78520000D02*
X138367400Y-78520000D01*
G75*
G02*
X138167400Y-78320000I0J200000D01*
G01*
X138167400Y-76620000D01*
G75*
G02*
X138367400Y-76420000I200000J0D01*
G01*
X140067400Y-76420000D01*
G75*
G02*
X140267400Y-76620000I0J-200000D01*
G01*
X140267400Y-78320000D01*
G75*
G02*
X140067400Y-78520000I-200000J0D01*
G01*
G37*
G36*
G01*
X168921800Y-78621600D02*
X167221800Y-78621600D01*
G75*
G02*
X167021800Y-78421600I0J200000D01*
G01*
X167021800Y-76721600D01*
G75*
G02*
X167221800Y-76521600I200000J0D01*
G01*
X168921800Y-76521600D01*
G75*
G02*
X169121800Y-76721600I0J-200000D01*
G01*
X169121800Y-78421600D01*
G75*
G02*
X168921800Y-78621600I-200000J0D01*
G01*
G37*
X170611800Y-77571600D03*
X173151800Y-77571600D03*
X175691800Y-77571600D03*
X178231800Y-77571600D03*
X180771800Y-77571600D03*
G36*
G01*
X159046200Y-61149600D02*
X159046200Y-59449600D01*
G75*
G02*
X159246200Y-59249600I200000J0D01*
G01*
X160946200Y-59249600D01*
G75*
G02*
X161146200Y-59449600I0J-200000D01*
G01*
X161146200Y-61149600D01*
G75*
G02*
X160946200Y-61349600I-200000J0D01*
G01*
X159246200Y-61349600D01*
G75*
G02*
X159046200Y-61149600I0J200000D01*
G01*
G37*
G36*
G01*
X121830200Y-105952000D02*
X120130200Y-105952000D01*
G75*
G02*
X119930200Y-105752000I0J200000D01*
G01*
X119930200Y-104052000D01*
G75*
G02*
X120130200Y-103852000I200000J0D01*
G01*
X121830200Y-103852000D01*
G75*
G02*
X122030200Y-104052000I0J-200000D01*
G01*
X122030200Y-105752000D01*
G75*
G02*
X121830200Y-105952000I-200000J0D01*
G01*
G37*
G36*
G01*
X159677800Y-134344400D02*
X158177800Y-134344400D01*
G75*
G02*
X157977800Y-134144400I0J200000D01*
G01*
X157977800Y-133144400D01*
G75*
G02*
X158177800Y-132944400I200000J0D01*
G01*
X159677800Y-132944400D01*
G75*
G02*
X159877800Y-133144400I0J-200000D01*
G01*
X159877800Y-134144400D01*
G75*
G02*
X159677800Y-134344400I-200000J0D01*
G01*
G37*
G36*
G01*
X159677800Y-133044400D02*
X158177800Y-133044400D01*
G75*
G02*
X157977800Y-132844400I0J200000D01*
G01*
X157977800Y-131844400D01*
G75*
G02*
X158177800Y-131644400I200000J0D01*
G01*
X159677800Y-131644400D01*
G75*
G02*
X159877800Y-131844400I0J-200000D01*
G01*
X159877800Y-132844400D01*
G75*
G02*
X159677800Y-133044400I-200000J0D01*
G01*
G37*
G36*
G01*
X134757600Y-58073800D02*
X134757600Y-56073800D01*
G75*
G02*
X134957600Y-55873800I200000J0D01*
G01*
X137457600Y-55873800D01*
G75*
G02*
X137657600Y-56073800I0J-200000D01*
G01*
X137657600Y-58073800D01*
G75*
G02*
X137457600Y-58273800I-200000J0D01*
G01*
X134957600Y-58273800D01*
G75*
G02*
X134757600Y-58073800I0J200000D01*
G01*
G37*
G36*
G01*
X126197600Y-58073800D02*
X126197600Y-56073800D01*
G75*
G02*
X126397600Y-55873800I200000J0D01*
G01*
X128897600Y-55873800D01*
G75*
G02*
X129097600Y-56073800I0J-200000D01*
G01*
X129097600Y-58073800D01*
G75*
G02*
X128897600Y-58273800I-200000J0D01*
G01*
X126397600Y-58273800D01*
G75*
G02*
X126197600Y-58073800I0J200000D01*
G01*
G37*
G36*
G01*
X175041800Y-135747000D02*
X175041800Y-133747000D01*
G75*
G02*
X175241800Y-133547000I200000J0D01*
G01*
X177741800Y-133547000D01*
G75*
G02*
X177941800Y-133747000I0J-200000D01*
G01*
X177941800Y-135747000D01*
G75*
G02*
X177741800Y-135947000I-200000J0D01*
G01*
X175241800Y-135947000D01*
G75*
G02*
X175041800Y-135747000I0J200000D01*
G01*
G37*
G36*
G01*
X183601800Y-135747000D02*
X183601800Y-133747000D01*
G75*
G02*
X183801800Y-133547000I200000J0D01*
G01*
X186301800Y-133547000D01*
G75*
G02*
X186501800Y-133747000I0J-200000D01*
G01*
X186501800Y-135747000D01*
G75*
G02*
X186301800Y-135947000I-200000J0D01*
G01*
X183801800Y-135947000D01*
G75*
G02*
X183601800Y-135747000I0J200000D01*
G01*
G37*
D22*
X146754600Y-135280400D03*
G36*
G01*
X145429600Y-136155400D02*
X144079600Y-136155400D01*
G75*
G02*
X143879600Y-135955400I0J200000D01*
G01*
X143879600Y-134605400D01*
G75*
G02*
X144079600Y-134405400I200000J0D01*
G01*
X145429600Y-134405400D01*
G75*
G02*
X145629600Y-134605400I0J-200000D01*
G01*
X145629600Y-135955400D01*
G75*
G02*
X145429600Y-136155400I-200000J0D01*
G01*
G37*
G36*
G01*
X135752200Y-136130000D02*
X134402200Y-136130000D01*
G75*
G02*
X134202200Y-135930000I0J200000D01*
G01*
X134202200Y-134580000D01*
G75*
G02*
X134402200Y-134380000I200000J0D01*
G01*
X135752200Y-134380000D01*
G75*
G02*
X135952200Y-134580000I0J-200000D01*
G01*
X135952200Y-135930000D01*
G75*
G02*
X135752200Y-136130000I-200000J0D01*
G01*
G37*
X137077200Y-135255000D03*
X178987200Y-138455400D03*
G36*
G01*
X177662200Y-139330400D02*
X176312200Y-139330400D01*
G75*
G02*
X176112200Y-139130400I0J200000D01*
G01*
X176112200Y-137780400D01*
G75*
G02*
X176312200Y-137580400I200000J0D01*
G01*
X177662200Y-137580400D01*
G75*
G02*
X177862200Y-137780400I0J-200000D01*
G01*
X177862200Y-139130400D01*
G75*
G02*
X177662200Y-139330400I-200000J0D01*
G01*
G37*
G36*
G01*
X183983000Y-137580400D02*
X185333000Y-137580400D01*
G75*
G02*
X185533000Y-137780400I0J-200000D01*
G01*
X185533000Y-139130400D01*
G75*
G02*
X185333000Y-139330400I-200000J0D01*
G01*
X183983000Y-139330400D01*
G75*
G02*
X183783000Y-139130400I0J200000D01*
G01*
X183783000Y-137780400D01*
G75*
G02*
X183983000Y-137580400I200000J0D01*
G01*
G37*
X182658000Y-138455400D03*
G36*
G01*
X186608400Y-63889800D02*
X186608400Y-64989800D01*
G75*
G02*
X186408400Y-65189800I-200000J0D01*
G01*
X181808400Y-65189800D01*
G75*
G02*
X181608400Y-64989800I0J200000D01*
G01*
X181608400Y-63889800D01*
G75*
G02*
X181808400Y-63689800I200000J0D01*
G01*
X186408400Y-63689800D01*
G75*
G02*
X186608400Y-63889800I0J-200000D01*
G01*
G37*
G36*
G01*
X186608400Y-61349800D02*
X186608400Y-62449800D01*
G75*
G02*
X186408400Y-62649800I-200000J0D01*
G01*
X181808400Y-62649800D01*
G75*
G02*
X181608400Y-62449800I0J200000D01*
G01*
X181608400Y-61349800D01*
G75*
G02*
X181808400Y-61149800I200000J0D01*
G01*
X186408400Y-61149800D01*
G75*
G02*
X186608400Y-61349800I0J-200000D01*
G01*
G37*
G36*
G01*
X186608400Y-58809800D02*
X186608400Y-59909800D01*
G75*
G02*
X186408400Y-60109800I-200000J0D01*
G01*
X181808400Y-60109800D01*
G75*
G02*
X181608400Y-59909800I0J200000D01*
G01*
X181608400Y-58809800D01*
G75*
G02*
X181808400Y-58609800I200000J0D01*
G01*
X186408400Y-58609800D01*
G75*
G02*
X186608400Y-58809800I0J-200000D01*
G01*
G37*
G36*
G01*
X179858400Y-56499799D02*
X179858400Y-67299801D01*
G75*
G02*
X179658401Y-67499800I-199999J0D01*
G01*
X170258399Y-67499800D01*
G75*
G02*
X170058400Y-67299801I0J199999D01*
G01*
X170058400Y-56499799D01*
G75*
G02*
X170258399Y-56299800I199999J0D01*
G01*
X179658401Y-56299800D01*
G75*
G02*
X179858400Y-56499799I0J-199999D01*
G01*
G37*
D23*
X176047400Y-58343800D03*
X176047400Y-60375800D03*
X178079400Y-60375800D03*
X178079400Y-58343800D03*
X174015400Y-58343800D03*
X171983400Y-58343800D03*
X174015400Y-60375800D03*
X171983400Y-60375800D03*
X171983400Y-62407800D03*
X174015400Y-62407800D03*
X176047400Y-62407800D03*
X178079400Y-62407800D03*
X171983400Y-64439800D03*
X174015400Y-64439800D03*
X176047400Y-64439800D03*
X178079400Y-64439800D03*
X178079400Y-66471800D03*
X176047400Y-66471800D03*
X174015400Y-66471800D03*
X171983400Y-66471800D03*
G36*
G01*
X190915200Y-120293400D02*
X190115200Y-120293400D01*
G75*
G02*
X189915200Y-120093400I0J200000D01*
G01*
X189915200Y-119193400D01*
G75*
G02*
X190115200Y-118993400I200000J0D01*
G01*
X190915200Y-118993400D01*
G75*
G02*
X191115200Y-119193400I0J-200000D01*
G01*
X191115200Y-120093400D01*
G75*
G02*
X190915200Y-120293400I-200000J0D01*
G01*
G37*
G36*
G01*
X192815200Y-120293400D02*
X192015200Y-120293400D01*
G75*
G02*
X191815200Y-120093400I0J200000D01*
G01*
X191815200Y-119193400D01*
G75*
G02*
X192015200Y-118993400I200000J0D01*
G01*
X192815200Y-118993400D01*
G75*
G02*
X193015200Y-119193400I0J-200000D01*
G01*
X193015200Y-120093400D01*
G75*
G02*
X192815200Y-120293400I-200000J0D01*
G01*
G37*
G36*
G01*
X191865200Y-118293400D02*
X191065200Y-118293400D01*
G75*
G02*
X190865200Y-118093400I0J200000D01*
G01*
X190865200Y-117193400D01*
G75*
G02*
X191065200Y-116993400I200000J0D01*
G01*
X191865200Y-116993400D01*
G75*
G02*
X192065200Y-117193400I0J-200000D01*
G01*
X192065200Y-118093400D01*
G75*
G02*
X191865200Y-118293400I-200000J0D01*
G01*
G37*
G36*
G01*
X169347400Y-135083600D02*
X169347400Y-135883600D01*
G75*
G02*
X169147400Y-136083600I-200000J0D01*
G01*
X168247400Y-136083600D01*
G75*
G02*
X168047400Y-135883600I0J200000D01*
G01*
X168047400Y-135083600D01*
G75*
G02*
X168247400Y-134883600I200000J0D01*
G01*
X169147400Y-134883600D01*
G75*
G02*
X169347400Y-135083600I0J-200000D01*
G01*
G37*
G36*
G01*
X171347400Y-134133600D02*
X171347400Y-134933600D01*
G75*
G02*
X171147400Y-135133600I-200000J0D01*
G01*
X170247400Y-135133600D01*
G75*
G02*
X170047400Y-134933600I0J200000D01*
G01*
X170047400Y-134133600D01*
G75*
G02*
X170247400Y-133933600I200000J0D01*
G01*
X171147400Y-133933600D01*
G75*
G02*
X171347400Y-134133600I0J-200000D01*
G01*
G37*
G36*
G01*
X171347400Y-136033600D02*
X171347400Y-136833600D01*
G75*
G02*
X171147400Y-137033600I-200000J0D01*
G01*
X170247400Y-137033600D01*
G75*
G02*
X170047400Y-136833600I0J200000D01*
G01*
X170047400Y-136033600D01*
G75*
G02*
X170247400Y-135833600I200000J0D01*
G01*
X171147400Y-135833600D01*
G75*
G02*
X171347400Y-136033600I0J-200000D01*
G01*
G37*
G36*
G01*
X133689000Y-123874800D02*
X132889000Y-123874800D01*
G75*
G02*
X132689000Y-123674800I0J200000D01*
G01*
X132689000Y-122774800D01*
G75*
G02*
X132889000Y-122574800I200000J0D01*
G01*
X133689000Y-122574800D01*
G75*
G02*
X133889000Y-122774800I0J-200000D01*
G01*
X133889000Y-123674800D01*
G75*
G02*
X133689000Y-123874800I-200000J0D01*
G01*
G37*
G36*
G01*
X135589000Y-123874800D02*
X134789000Y-123874800D01*
G75*
G02*
X134589000Y-123674800I0J200000D01*
G01*
X134589000Y-122774800D01*
G75*
G02*
X134789000Y-122574800I200000J0D01*
G01*
X135589000Y-122574800D01*
G75*
G02*
X135789000Y-122774800I0J-200000D01*
G01*
X135789000Y-123674800D01*
G75*
G02*
X135589000Y-123874800I-200000J0D01*
G01*
G37*
G36*
G01*
X134639000Y-121874800D02*
X133839000Y-121874800D01*
G75*
G02*
X133639000Y-121674800I0J200000D01*
G01*
X133639000Y-120774800D01*
G75*
G02*
X133839000Y-120574800I200000J0D01*
G01*
X134639000Y-120574800D01*
G75*
G02*
X134839000Y-120774800I0J-200000D01*
G01*
X134839000Y-121674800D01*
G75*
G02*
X134639000Y-121874800I-200000J0D01*
G01*
G37*
G36*
G01*
X153117600Y-139211800D02*
X153917600Y-139211800D01*
G75*
G02*
X154117600Y-139411800I0J-200000D01*
G01*
X154117600Y-140311800D01*
G75*
G02*
X153917600Y-140511800I-200000J0D01*
G01*
X153117600Y-140511800D01*
G75*
G02*
X152917600Y-140311800I0J200000D01*
G01*
X152917600Y-139411800D01*
G75*
G02*
X153117600Y-139211800I200000J0D01*
G01*
G37*
G36*
G01*
X152167600Y-137211800D02*
X152967600Y-137211800D01*
G75*
G02*
X153167600Y-137411800I0J-200000D01*
G01*
X153167600Y-138311800D01*
G75*
G02*
X152967600Y-138511800I-200000J0D01*
G01*
X152167600Y-138511800D01*
G75*
G02*
X151967600Y-138311800I0J200000D01*
G01*
X151967600Y-137411800D01*
G75*
G02*
X152167600Y-137211800I200000J0D01*
G01*
G37*
G36*
G01*
X154067600Y-137211800D02*
X154867600Y-137211800D01*
G75*
G02*
X155067600Y-137411800I0J-200000D01*
G01*
X155067600Y-138311800D01*
G75*
G02*
X154867600Y-138511800I-200000J0D01*
G01*
X154067600Y-138511800D01*
G75*
G02*
X153867600Y-138311800I0J200000D01*
G01*
X153867600Y-137411800D01*
G75*
G02*
X154067600Y-137211800I200000J0D01*
G01*
G37*
G36*
G01*
X138772730Y-100062600D02*
X137223670Y-100062600D01*
G75*
G02*
X136898200Y-99737130I0J325470D01*
G01*
X136898200Y-98663070D01*
G75*
G02*
X137223670Y-98337600I325470J0D01*
G01*
X138772730Y-98337600D01*
G75*
G02*
X139098200Y-98663070I0J-325470D01*
G01*
X139098200Y-99737130D01*
G75*
G02*
X138772730Y-100062600I-325470J0D01*
G01*
G37*
G36*
G01*
X138772730Y-96937600D02*
X137223670Y-96937600D01*
G75*
G02*
X136898200Y-96612130I0J325470D01*
G01*
X136898200Y-95538070D01*
G75*
G02*
X137223670Y-95212600I325470J0D01*
G01*
X138772730Y-95212600D01*
G75*
G02*
X139098200Y-95538070I0J-325470D01*
G01*
X139098200Y-96612130D01*
G75*
G02*
X138772730Y-96937600I-325470J0D01*
G01*
G37*
D24*
G36*
X163375738Y-144081400D02*
G01*
X163376842Y-144083068D01*
X163376636Y-144084082D01*
X162395000Y-146052938D01*
X162393332Y-146054042D01*
X162392318Y-146053836D01*
X160423462Y-145072200D01*
X160422358Y-145070532D01*
X160422564Y-145069518D01*
X160422566Y-145069513D01*
X160427037Y-145069513D01*
X162392313Y-146049363D01*
X163372163Y-144084087D01*
X161406887Y-143104237D01*
X161215781Y-143487537D01*
X161070062Y-143779804D01*
X160427037Y-145069513D01*
X160422566Y-145069513D01*
X161066482Y-143778020D01*
X161212201Y-143485753D01*
X161404200Y-143100662D01*
X161406882Y-143099764D01*
X163375738Y-144081400D01*
G37*
G36*
X157577972Y-140826753D02*
G01*
X157578658Y-140827529D01*
X157770657Y-141212620D01*
X158560294Y-142796385D01*
X158559396Y-142799067D01*
X156590540Y-143780703D01*
X156588544Y-143780581D01*
X156587858Y-143779805D01*
X156250140Y-143102447D01*
X155606225Y-141810954D01*
X155610695Y-141810954D01*
X156253720Y-143100663D01*
X156590545Y-143776230D01*
X158555821Y-142796380D01*
X157767077Y-141214404D01*
X157575971Y-140831104D01*
X155610695Y-141810954D01*
X155606225Y-141810954D01*
X155606222Y-141810949D01*
X155607120Y-141808267D01*
X157575976Y-140826631D01*
X157577972Y-140826753D01*
G37*
G36*
X171198938Y-141516000D02*
G01*
X171200042Y-141517668D01*
X171199836Y-141518682D01*
X170410199Y-143102447D01*
X170218200Y-143487538D01*
X170215518Y-143488436D01*
X168246662Y-142506800D01*
X168245558Y-142505132D01*
X168245764Y-142504118D01*
X168245766Y-142504113D01*
X168250237Y-142504113D01*
X170215513Y-143483963D01*
X170406619Y-143100663D01*
X171195363Y-141518687D01*
X169230087Y-140538837D01*
X168893262Y-141214404D01*
X168250237Y-142504113D01*
X168245766Y-142504113D01*
X168889682Y-141212620D01*
X169227400Y-140535262D01*
X169230082Y-140534364D01*
X171198938Y-141516000D01*
G37*
G36*
X149780172Y-138261353D02*
G01*
X149780858Y-138262129D01*
X150762494Y-140230985D01*
X150762372Y-140232981D01*
X150761596Y-140233667D01*
X148792740Y-141215303D01*
X148790744Y-141215181D01*
X148790058Y-141214405D01*
X148598059Y-140829314D01*
X148452340Y-140537047D01*
X147808425Y-139245554D01*
X147812895Y-139245554D01*
X148455920Y-140535263D01*
X148601639Y-140827530D01*
X148792745Y-141210830D01*
X150758021Y-140230980D01*
X149778171Y-138265704D01*
X147812895Y-139245554D01*
X147808425Y-139245554D01*
X147808422Y-139245549D01*
X147809320Y-139242867D01*
X149778176Y-138261231D01*
X149780172Y-138261353D01*
G37*
G36*
X173948565Y-137047051D02*
G01*
X173949400Y-137048677D01*
X173949400Y-137119459D01*
X173949390Y-137119655D01*
X173943993Y-137174451D01*
X173943917Y-137174836D01*
X173929725Y-137221620D01*
X173929575Y-137221982D01*
X173906528Y-137265100D01*
X173906310Y-137265426D01*
X173875295Y-137303218D01*
X173875018Y-137303495D01*
X173837226Y-137334510D01*
X173836900Y-137334728D01*
X173793782Y-137357775D01*
X173793420Y-137357925D01*
X173746636Y-137372117D01*
X173746251Y-137372193D01*
X173691455Y-137377590D01*
X173691259Y-137377600D01*
X173620477Y-137377600D01*
X173618745Y-137376600D01*
X173618745Y-137374600D01*
X173620281Y-137373610D01*
X173683862Y-137367348D01*
X173744816Y-137348857D01*
X173800990Y-137318833D01*
X173850225Y-137278425D01*
X173890633Y-137229190D01*
X173920657Y-137173016D01*
X173939148Y-137112062D01*
X173945410Y-137048481D01*
X173946575Y-137046855D01*
X173948565Y-137047051D01*
G37*
G36*
X171799390Y-137048481D02*
G01*
X171805652Y-137112062D01*
X171824143Y-137173016D01*
X171854167Y-137229190D01*
X171894575Y-137278425D01*
X171943810Y-137318833D01*
X171999984Y-137348857D01*
X172060938Y-137367348D01*
X172124519Y-137373610D01*
X172126145Y-137374775D01*
X172125949Y-137376765D01*
X172124323Y-137377600D01*
X172053541Y-137377600D01*
X172053345Y-137377590D01*
X171998549Y-137372193D01*
X171998164Y-137372117D01*
X171951380Y-137357925D01*
X171951018Y-137357775D01*
X171907900Y-137334728D01*
X171907574Y-137334510D01*
X171869782Y-137303495D01*
X171869505Y-137303218D01*
X171838490Y-137265426D01*
X171838272Y-137265100D01*
X171815225Y-137221982D01*
X171815075Y-137221620D01*
X171800883Y-137174836D01*
X171800807Y-137174451D01*
X171795410Y-137119655D01*
X171795400Y-137119459D01*
X171795400Y-137048677D01*
X171796400Y-137046945D01*
X171798400Y-137046945D01*
X171799390Y-137048481D01*
G37*
G36*
X151520365Y-136793051D02*
G01*
X151521200Y-136794677D01*
X151521200Y-136865459D01*
X151521190Y-136865655D01*
X151515793Y-136920451D01*
X151515717Y-136920836D01*
X151501525Y-136967620D01*
X151501375Y-136967982D01*
X151478328Y-137011100D01*
X151478110Y-137011426D01*
X151447095Y-137049218D01*
X151446818Y-137049495D01*
X151409026Y-137080510D01*
X151408700Y-137080728D01*
X151365582Y-137103775D01*
X151365220Y-137103925D01*
X151318436Y-137118117D01*
X151318051Y-137118193D01*
X151263255Y-137123590D01*
X151263059Y-137123600D01*
X151192277Y-137123600D01*
X151190545Y-137122600D01*
X151190545Y-137120600D01*
X151192081Y-137119610D01*
X151255662Y-137113348D01*
X151316616Y-137094857D01*
X151372790Y-137064833D01*
X151422025Y-137024425D01*
X151462433Y-136975190D01*
X151492457Y-136919016D01*
X151510948Y-136858062D01*
X151517210Y-136794481D01*
X151518375Y-136792855D01*
X151520365Y-136793051D01*
G37*
G36*
X149371190Y-136794481D02*
G01*
X149377452Y-136858062D01*
X149395943Y-136919016D01*
X149425967Y-136975190D01*
X149466375Y-137024425D01*
X149515610Y-137064833D01*
X149571784Y-137094857D01*
X149632738Y-137113348D01*
X149696319Y-137119610D01*
X149697945Y-137120775D01*
X149697749Y-137122765D01*
X149696123Y-137123600D01*
X149625341Y-137123600D01*
X149625145Y-137123590D01*
X149570349Y-137118193D01*
X149569964Y-137118117D01*
X149523180Y-137103925D01*
X149522818Y-137103775D01*
X149479700Y-137080728D01*
X149479374Y-137080510D01*
X149441582Y-137049495D01*
X149441305Y-137049218D01*
X149410290Y-137011426D01*
X149410072Y-137011100D01*
X149387025Y-136967982D01*
X149386875Y-136967620D01*
X149372683Y-136920836D01*
X149372607Y-136920451D01*
X149367210Y-136865655D01*
X149367200Y-136865459D01*
X149367200Y-136794677D01*
X149368200Y-136792945D01*
X149370200Y-136792945D01*
X149371190Y-136794481D01*
G37*
G36*
X172126055Y-135674600D02*
G01*
X172126055Y-135676600D01*
X172124519Y-135677590D01*
X172060938Y-135683852D01*
X171999984Y-135702343D01*
X171943810Y-135732367D01*
X171894575Y-135772775D01*
X171854167Y-135822010D01*
X171824143Y-135878184D01*
X171805652Y-135939138D01*
X171799390Y-136002719D01*
X171798225Y-136004345D01*
X171796235Y-136004149D01*
X171795400Y-136002523D01*
X171795400Y-135931741D01*
X171795410Y-135931545D01*
X171800807Y-135876749D01*
X171800883Y-135876364D01*
X171815075Y-135829580D01*
X171815225Y-135829218D01*
X171838272Y-135786100D01*
X171838490Y-135785774D01*
X171869505Y-135747982D01*
X171869782Y-135747705D01*
X171907574Y-135716690D01*
X171907900Y-135716472D01*
X171951018Y-135693425D01*
X171951380Y-135693275D01*
X171998164Y-135679083D01*
X171998549Y-135679007D01*
X172053345Y-135673610D01*
X172053541Y-135673600D01*
X172124323Y-135673600D01*
X172126055Y-135674600D01*
G37*
G36*
X173691455Y-135673610D02*
G01*
X173746251Y-135679007D01*
X173746636Y-135679083D01*
X173793420Y-135693275D01*
X173793782Y-135693425D01*
X173836900Y-135716472D01*
X173837226Y-135716690D01*
X173875018Y-135747705D01*
X173875295Y-135747982D01*
X173906310Y-135785774D01*
X173906528Y-135786100D01*
X173929575Y-135829218D01*
X173929725Y-135829580D01*
X173943917Y-135876364D01*
X173943993Y-135876749D01*
X173949390Y-135931545D01*
X173949400Y-135931741D01*
X173949400Y-136002523D01*
X173948400Y-136004255D01*
X173946400Y-136004255D01*
X173945410Y-136002719D01*
X173939148Y-135939138D01*
X173920657Y-135878184D01*
X173890633Y-135822010D01*
X173850225Y-135772775D01*
X173800990Y-135732367D01*
X173744816Y-135702343D01*
X173683862Y-135683852D01*
X173620281Y-135677590D01*
X173618655Y-135676425D01*
X173618851Y-135674435D01*
X173620477Y-135673600D01*
X173691259Y-135673600D01*
X173691455Y-135673610D01*
G37*
G36*
X149697855Y-135420600D02*
G01*
X149697855Y-135422600D01*
X149696319Y-135423590D01*
X149632738Y-135429852D01*
X149571784Y-135448343D01*
X149515610Y-135478367D01*
X149466375Y-135518775D01*
X149425967Y-135568010D01*
X149395943Y-135624184D01*
X149377452Y-135685138D01*
X149371190Y-135748719D01*
X149370025Y-135750345D01*
X149368035Y-135750149D01*
X149367200Y-135748523D01*
X149367200Y-135677741D01*
X149367210Y-135677545D01*
X149372607Y-135622749D01*
X149372683Y-135622364D01*
X149386875Y-135575580D01*
X149387025Y-135575218D01*
X149410072Y-135532100D01*
X149410290Y-135531774D01*
X149441305Y-135493982D01*
X149441582Y-135493705D01*
X149479374Y-135462690D01*
X149479700Y-135462472D01*
X149522818Y-135439425D01*
X149523180Y-135439275D01*
X149569964Y-135425083D01*
X149570349Y-135425007D01*
X149625145Y-135419610D01*
X149625341Y-135419600D01*
X149696123Y-135419600D01*
X149697855Y-135420600D01*
G37*
G36*
X151263255Y-135419610D02*
G01*
X151318051Y-135425007D01*
X151318436Y-135425083D01*
X151365220Y-135439275D01*
X151365582Y-135439425D01*
X151408700Y-135462472D01*
X151409026Y-135462690D01*
X151446818Y-135493705D01*
X151447095Y-135493982D01*
X151478110Y-135531774D01*
X151478328Y-135532100D01*
X151501375Y-135575218D01*
X151501525Y-135575580D01*
X151515717Y-135622364D01*
X151515793Y-135622749D01*
X151521190Y-135677545D01*
X151521200Y-135677741D01*
X151521200Y-135748523D01*
X151520200Y-135750255D01*
X151518200Y-135750255D01*
X151517210Y-135748719D01*
X151510948Y-135685138D01*
X151492457Y-135624184D01*
X151462433Y-135568010D01*
X151422025Y-135518775D01*
X151372790Y-135478367D01*
X151316616Y-135448343D01*
X151255662Y-135429852D01*
X151192081Y-135423590D01*
X151190455Y-135422425D01*
X151190651Y-135420435D01*
X151192277Y-135419600D01*
X151263059Y-135419600D01*
X151263255Y-135419610D01*
G37*
G36*
X154271382Y-134723363D02*
G01*
X154271709Y-134725162D01*
X154266435Y-134742546D01*
X154264072Y-134766538D01*
X154266435Y-134790529D01*
X154273435Y-134813604D01*
X154284800Y-134834867D01*
X154300095Y-134853504D01*
X154318732Y-134868800D01*
X154339996Y-134880165D01*
X154363070Y-134887165D01*
X154387062Y-134889528D01*
X154411053Y-134887165D01*
X154428439Y-134881891D01*
X154430387Y-134882345D01*
X154430968Y-134884259D01*
X154429785Y-134885653D01*
X154362460Y-134913540D01*
X154224240Y-135005895D01*
X154106695Y-135123440D01*
X154014340Y-135261660D01*
X153986453Y-135328984D01*
X153984866Y-135330202D01*
X153983018Y-135329437D01*
X153982691Y-135327638D01*
X153987965Y-135310254D01*
X153990328Y-135286262D01*
X153987965Y-135262271D01*
X153980965Y-135239196D01*
X153969600Y-135217933D01*
X153954305Y-135199296D01*
X153935668Y-135184000D01*
X153914404Y-135172635D01*
X153891330Y-135165635D01*
X153867338Y-135163272D01*
X153843347Y-135165635D01*
X153825961Y-135170909D01*
X153824013Y-135170455D01*
X153823432Y-135168541D01*
X153824615Y-135167147D01*
X153891940Y-135139260D01*
X154030160Y-135046905D01*
X154147705Y-134929360D01*
X154240060Y-134791140D01*
X154267947Y-134723816D01*
X154269534Y-134722598D01*
X154271382Y-134723363D01*
G37*
G36*
X164990182Y-134723363D02*
G01*
X164990509Y-134725162D01*
X164985235Y-134742546D01*
X164982872Y-134766538D01*
X164985235Y-134790529D01*
X164992235Y-134813604D01*
X165003600Y-134834867D01*
X165018895Y-134853504D01*
X165037532Y-134868800D01*
X165058796Y-134880165D01*
X165081870Y-134887165D01*
X165105862Y-134889528D01*
X165129853Y-134887165D01*
X165147239Y-134881891D01*
X165149187Y-134882345D01*
X165149768Y-134884259D01*
X165148585Y-134885653D01*
X165081260Y-134913540D01*
X164943040Y-135005895D01*
X164825495Y-135123440D01*
X164733140Y-135261660D01*
X164705253Y-135328984D01*
X164703666Y-135330202D01*
X164701818Y-135329437D01*
X164701491Y-135327638D01*
X164706765Y-135310254D01*
X164709128Y-135286262D01*
X164706765Y-135262271D01*
X164699765Y-135239196D01*
X164688400Y-135217933D01*
X164673105Y-135199296D01*
X164654468Y-135184000D01*
X164633204Y-135172635D01*
X164610130Y-135165635D01*
X164586138Y-135163272D01*
X164562147Y-135165635D01*
X164544761Y-135170909D01*
X164542813Y-135170455D01*
X164542232Y-135168541D01*
X164543415Y-135167147D01*
X164610740Y-135139260D01*
X164748960Y-135046905D01*
X164866505Y-134929360D01*
X164958860Y-134791140D01*
X164986747Y-134723816D01*
X164988334Y-134722598D01*
X164990182Y-134723363D01*
G37*
G36*
X173948565Y-133947051D02*
G01*
X173949400Y-133948677D01*
X173949400Y-134019459D01*
X173949390Y-134019655D01*
X173943993Y-134074451D01*
X173943917Y-134074836D01*
X173929725Y-134121620D01*
X173929575Y-134121982D01*
X173906528Y-134165100D01*
X173906310Y-134165426D01*
X173875295Y-134203218D01*
X173875018Y-134203495D01*
X173837226Y-134234510D01*
X173836900Y-134234728D01*
X173793782Y-134257775D01*
X173793420Y-134257925D01*
X173746636Y-134272117D01*
X173746251Y-134272193D01*
X173691455Y-134277590D01*
X173691259Y-134277600D01*
X173620477Y-134277600D01*
X173618745Y-134276600D01*
X173618745Y-134274600D01*
X173620281Y-134273610D01*
X173683862Y-134267348D01*
X173744816Y-134248857D01*
X173800990Y-134218833D01*
X173850225Y-134178425D01*
X173890633Y-134129190D01*
X173920657Y-134073016D01*
X173939148Y-134012062D01*
X173945410Y-133948481D01*
X173946575Y-133946855D01*
X173948565Y-133947051D01*
G37*
G36*
X171799390Y-133948481D02*
G01*
X171805652Y-134012062D01*
X171824143Y-134073016D01*
X171854167Y-134129190D01*
X171894575Y-134178425D01*
X171943810Y-134218833D01*
X171999984Y-134248857D01*
X172060938Y-134267348D01*
X172124519Y-134273610D01*
X172126145Y-134274775D01*
X172125949Y-134276765D01*
X172124323Y-134277600D01*
X172053541Y-134277600D01*
X172053345Y-134277590D01*
X171998549Y-134272193D01*
X171998164Y-134272117D01*
X171951380Y-134257925D01*
X171951018Y-134257775D01*
X171907900Y-134234728D01*
X171907574Y-134234510D01*
X171869782Y-134203495D01*
X171869505Y-134203218D01*
X171838490Y-134165426D01*
X171838272Y-134165100D01*
X171815225Y-134121982D01*
X171815075Y-134121620D01*
X171800883Y-134074836D01*
X171800807Y-134074451D01*
X171795410Y-134019655D01*
X171795400Y-134019459D01*
X171795400Y-133948677D01*
X171796400Y-133946945D01*
X171798400Y-133946945D01*
X171799390Y-133948481D01*
G37*
G36*
X149371190Y-133694481D02*
G01*
X149377452Y-133758062D01*
X149395943Y-133819016D01*
X149425967Y-133875190D01*
X149466375Y-133924425D01*
X149515610Y-133964833D01*
X149571784Y-133994857D01*
X149632738Y-134013348D01*
X149696319Y-134019610D01*
X149697945Y-134020775D01*
X149697749Y-134022765D01*
X149696123Y-134023600D01*
X149625341Y-134023600D01*
X149625145Y-134023590D01*
X149570349Y-134018193D01*
X149569964Y-134018117D01*
X149523180Y-134003925D01*
X149522818Y-134003775D01*
X149479700Y-133980728D01*
X149479374Y-133980510D01*
X149441582Y-133949495D01*
X149441305Y-133949218D01*
X149410290Y-133911426D01*
X149410072Y-133911100D01*
X149387025Y-133867982D01*
X149386875Y-133867620D01*
X149372683Y-133820836D01*
X149372607Y-133820451D01*
X149367210Y-133765655D01*
X149367200Y-133765459D01*
X149367200Y-133694677D01*
X149368200Y-133692945D01*
X149370200Y-133692945D01*
X149371190Y-133694481D01*
G37*
G36*
X151520365Y-133693051D02*
G01*
X151521200Y-133694677D01*
X151521200Y-133765459D01*
X151521190Y-133765655D01*
X151515793Y-133820451D01*
X151515717Y-133820836D01*
X151501525Y-133867620D01*
X151501375Y-133867982D01*
X151478328Y-133911100D01*
X151478110Y-133911426D01*
X151447095Y-133949218D01*
X151446818Y-133949495D01*
X151409026Y-133980510D01*
X151408700Y-133980728D01*
X151365582Y-134003775D01*
X151365220Y-134003925D01*
X151318436Y-134018117D01*
X151318051Y-134018193D01*
X151263255Y-134023590D01*
X151263059Y-134023600D01*
X151192277Y-134023600D01*
X151190545Y-134022600D01*
X151190545Y-134020600D01*
X151192081Y-134019610D01*
X151255662Y-134013348D01*
X151316616Y-133994857D01*
X151372790Y-133964833D01*
X151422025Y-133924425D01*
X151462433Y-133875190D01*
X151492457Y-133819016D01*
X151510948Y-133758062D01*
X151517210Y-133694481D01*
X151518375Y-133692855D01*
X151520365Y-133693051D01*
G37*
G36*
X186886990Y-133340081D02*
G01*
X186893252Y-133403662D01*
X186911743Y-133464616D01*
X186941767Y-133520790D01*
X186982175Y-133570025D01*
X187031410Y-133610433D01*
X187087584Y-133640457D01*
X187148538Y-133658948D01*
X187212119Y-133665210D01*
X187213745Y-133666375D01*
X187213549Y-133668365D01*
X187211923Y-133669200D01*
X187141141Y-133669200D01*
X187140945Y-133669190D01*
X187086149Y-133663793D01*
X187085764Y-133663717D01*
X187038980Y-133649525D01*
X187038618Y-133649375D01*
X186995500Y-133626328D01*
X186995174Y-133626110D01*
X186957382Y-133595095D01*
X186957105Y-133594818D01*
X186926090Y-133557026D01*
X186925872Y-133556700D01*
X186902825Y-133513582D01*
X186902675Y-133513220D01*
X186888483Y-133466436D01*
X186888407Y-133466051D01*
X186883010Y-133411255D01*
X186883000Y-133411059D01*
X186883000Y-133340277D01*
X186884000Y-133338545D01*
X186886000Y-133338545D01*
X186886990Y-133340081D01*
G37*
G36*
X189036165Y-133338651D02*
G01*
X189037000Y-133340277D01*
X189037000Y-133411059D01*
X189036990Y-133411255D01*
X189031593Y-133466051D01*
X189031517Y-133466436D01*
X189017325Y-133513220D01*
X189017175Y-133513582D01*
X188994128Y-133556700D01*
X188993910Y-133557026D01*
X188962895Y-133594818D01*
X188962618Y-133595095D01*
X188924826Y-133626110D01*
X188924500Y-133626328D01*
X188881382Y-133649375D01*
X188881020Y-133649525D01*
X188834236Y-133663717D01*
X188833851Y-133663793D01*
X188779055Y-133669190D01*
X188778859Y-133669200D01*
X188708077Y-133669200D01*
X188706345Y-133668200D01*
X188706345Y-133666200D01*
X188707881Y-133665210D01*
X188771462Y-133658948D01*
X188832416Y-133640457D01*
X188888590Y-133610433D01*
X188937825Y-133570025D01*
X188978233Y-133520790D01*
X189008257Y-133464616D01*
X189026748Y-133403662D01*
X189033010Y-133340081D01*
X189034175Y-133338455D01*
X189036165Y-133338651D01*
G37*
G36*
X172126055Y-132574600D02*
G01*
X172126055Y-132576600D01*
X172124519Y-132577590D01*
X172060938Y-132583852D01*
X171999984Y-132602343D01*
X171943810Y-132632367D01*
X171894575Y-132672775D01*
X171854167Y-132722010D01*
X171824143Y-132778184D01*
X171805652Y-132839138D01*
X171799390Y-132902719D01*
X171798225Y-132904345D01*
X171796235Y-132904149D01*
X171795400Y-132902523D01*
X171795400Y-132831741D01*
X171795410Y-132831545D01*
X171800807Y-132776749D01*
X171800883Y-132776364D01*
X171815075Y-132729580D01*
X171815225Y-132729218D01*
X171838272Y-132686100D01*
X171838490Y-132685774D01*
X171869505Y-132647982D01*
X171869782Y-132647705D01*
X171907574Y-132616690D01*
X171907900Y-132616472D01*
X171951018Y-132593425D01*
X171951380Y-132593275D01*
X171998164Y-132579083D01*
X171998549Y-132579007D01*
X172053345Y-132573610D01*
X172053541Y-132573600D01*
X172124323Y-132573600D01*
X172126055Y-132574600D01*
G37*
G36*
X173691455Y-132573610D02*
G01*
X173746251Y-132579007D01*
X173746636Y-132579083D01*
X173793420Y-132593275D01*
X173793782Y-132593425D01*
X173836900Y-132616472D01*
X173837226Y-132616690D01*
X173875018Y-132647705D01*
X173875295Y-132647982D01*
X173906310Y-132685774D01*
X173906528Y-132686100D01*
X173929575Y-132729218D01*
X173929725Y-132729580D01*
X173943917Y-132776364D01*
X173943993Y-132776749D01*
X173949390Y-132831545D01*
X173949400Y-132831741D01*
X173949400Y-132902523D01*
X173948400Y-132904255D01*
X173946400Y-132904255D01*
X173945410Y-132902719D01*
X173939148Y-132839138D01*
X173920657Y-132778184D01*
X173890633Y-132722010D01*
X173850225Y-132672775D01*
X173800990Y-132632367D01*
X173744816Y-132602343D01*
X173683862Y-132583852D01*
X173620281Y-132577590D01*
X173618655Y-132576425D01*
X173618851Y-132574435D01*
X173620477Y-132573600D01*
X173691259Y-132573600D01*
X173691455Y-132573610D01*
G37*
G36*
X149697855Y-132320600D02*
G01*
X149697855Y-132322600D01*
X149696319Y-132323590D01*
X149632738Y-132329852D01*
X149571784Y-132348343D01*
X149515610Y-132378367D01*
X149466375Y-132418775D01*
X149425967Y-132468010D01*
X149395943Y-132524184D01*
X149377452Y-132585138D01*
X149371190Y-132648719D01*
X149370025Y-132650345D01*
X149368035Y-132650149D01*
X149367200Y-132648523D01*
X149367200Y-132577741D01*
X149367210Y-132577545D01*
X149372607Y-132522749D01*
X149372683Y-132522364D01*
X149386875Y-132475580D01*
X149387025Y-132475218D01*
X149410072Y-132432100D01*
X149410290Y-132431774D01*
X149441305Y-132393982D01*
X149441582Y-132393705D01*
X149479374Y-132362690D01*
X149479700Y-132362472D01*
X149522818Y-132339425D01*
X149523180Y-132339275D01*
X149569964Y-132325083D01*
X149570349Y-132325007D01*
X149625145Y-132319610D01*
X149625341Y-132319600D01*
X149696123Y-132319600D01*
X149697855Y-132320600D01*
G37*
G36*
X151263255Y-132319610D02*
G01*
X151318051Y-132325007D01*
X151318436Y-132325083D01*
X151365220Y-132339275D01*
X151365582Y-132339425D01*
X151408700Y-132362472D01*
X151409026Y-132362690D01*
X151446818Y-132393705D01*
X151447095Y-132393982D01*
X151478110Y-132431774D01*
X151478328Y-132432100D01*
X151501375Y-132475218D01*
X151501525Y-132475580D01*
X151515717Y-132522364D01*
X151515793Y-132522749D01*
X151521190Y-132577545D01*
X151521200Y-132577741D01*
X151521200Y-132648523D01*
X151520200Y-132650255D01*
X151518200Y-132650255D01*
X151517210Y-132648719D01*
X151510948Y-132585138D01*
X151492457Y-132524184D01*
X151462433Y-132468010D01*
X151422025Y-132418775D01*
X151372790Y-132378367D01*
X151316616Y-132348343D01*
X151255662Y-132329852D01*
X151192081Y-132323590D01*
X151190455Y-132322425D01*
X151190651Y-132320435D01*
X151192277Y-132319600D01*
X151263059Y-132319600D01*
X151263255Y-132319610D01*
G37*
G36*
X187213655Y-131966200D02*
G01*
X187213655Y-131968200D01*
X187212119Y-131969190D01*
X187148538Y-131975452D01*
X187087584Y-131993943D01*
X187031410Y-132023967D01*
X186982175Y-132064375D01*
X186941767Y-132113610D01*
X186911743Y-132169784D01*
X186893252Y-132230738D01*
X186886990Y-132294319D01*
X186885825Y-132295945D01*
X186883835Y-132295749D01*
X186883000Y-132294123D01*
X186883000Y-132223341D01*
X186883010Y-132223145D01*
X186888407Y-132168349D01*
X186888483Y-132167964D01*
X186902675Y-132121180D01*
X186902825Y-132120818D01*
X186925872Y-132077700D01*
X186926090Y-132077374D01*
X186957105Y-132039582D01*
X186957382Y-132039305D01*
X186995174Y-132008290D01*
X186995500Y-132008072D01*
X187038618Y-131985025D01*
X187038980Y-131984875D01*
X187085764Y-131970683D01*
X187086149Y-131970607D01*
X187140945Y-131965210D01*
X187141141Y-131965200D01*
X187211923Y-131965200D01*
X187213655Y-131966200D01*
G37*
G36*
X188779055Y-131965210D02*
G01*
X188833851Y-131970607D01*
X188834236Y-131970683D01*
X188881020Y-131984875D01*
X188881382Y-131985025D01*
X188924500Y-132008072D01*
X188924826Y-132008290D01*
X188962618Y-132039305D01*
X188962895Y-132039582D01*
X188993910Y-132077374D01*
X188994128Y-132077700D01*
X189017175Y-132120818D01*
X189017325Y-132121180D01*
X189031517Y-132167964D01*
X189031593Y-132168349D01*
X189036990Y-132223145D01*
X189037000Y-132223341D01*
X189037000Y-132294123D01*
X189036000Y-132295855D01*
X189034000Y-132295855D01*
X189033010Y-132294319D01*
X189026748Y-132230738D01*
X189008257Y-132169784D01*
X188978233Y-132113610D01*
X188937825Y-132064375D01*
X188888590Y-132023967D01*
X188832416Y-131993943D01*
X188771462Y-131975452D01*
X188707881Y-131969190D01*
X188706255Y-131968025D01*
X188706451Y-131966035D01*
X188708077Y-131965200D01*
X188778859Y-131965200D01*
X188779055Y-131965210D01*
G37*
G36*
X133740365Y-130519251D02*
G01*
X133741200Y-130520877D01*
X133741200Y-130591659D01*
X133741190Y-130591855D01*
X133735793Y-130646651D01*
X133735717Y-130647036D01*
X133721525Y-130693820D01*
X133721375Y-130694182D01*
X133698328Y-130737300D01*
X133698110Y-130737626D01*
X133667095Y-130775418D01*
X133666818Y-130775695D01*
X133629026Y-130806710D01*
X133628700Y-130806928D01*
X133585582Y-130829975D01*
X133585220Y-130830125D01*
X133538436Y-130844317D01*
X133538051Y-130844393D01*
X133483255Y-130849790D01*
X133483059Y-130849800D01*
X133412277Y-130849800D01*
X133410545Y-130848800D01*
X133410545Y-130846800D01*
X133412081Y-130845810D01*
X133475662Y-130839548D01*
X133536616Y-130821057D01*
X133592790Y-130791033D01*
X133642025Y-130750625D01*
X133682433Y-130701390D01*
X133712457Y-130645216D01*
X133730948Y-130584262D01*
X133737210Y-130520681D01*
X133738375Y-130519055D01*
X133740365Y-130519251D01*
G37*
G36*
X131591190Y-130520681D02*
G01*
X131597452Y-130584262D01*
X131615943Y-130645216D01*
X131645967Y-130701390D01*
X131686375Y-130750625D01*
X131735610Y-130791033D01*
X131791784Y-130821057D01*
X131852738Y-130839548D01*
X131916319Y-130845810D01*
X131917945Y-130846975D01*
X131917749Y-130848965D01*
X131916123Y-130849800D01*
X131845341Y-130849800D01*
X131845145Y-130849790D01*
X131790349Y-130844393D01*
X131789964Y-130844317D01*
X131743180Y-130830125D01*
X131742818Y-130829975D01*
X131699700Y-130806928D01*
X131699374Y-130806710D01*
X131661582Y-130775695D01*
X131661305Y-130775418D01*
X131630290Y-130737626D01*
X131630072Y-130737300D01*
X131607025Y-130694182D01*
X131606875Y-130693820D01*
X131592683Y-130647036D01*
X131592607Y-130646651D01*
X131587210Y-130591855D01*
X131587200Y-130591659D01*
X131587200Y-130520877D01*
X131588200Y-130519145D01*
X131590200Y-130519145D01*
X131591190Y-130520681D01*
G37*
G36*
X186886990Y-130240081D02*
G01*
X186893252Y-130303662D01*
X186911743Y-130364616D01*
X186941767Y-130420790D01*
X186982175Y-130470025D01*
X187031410Y-130510433D01*
X187087584Y-130540457D01*
X187148538Y-130558948D01*
X187212119Y-130565210D01*
X187213745Y-130566375D01*
X187213549Y-130568365D01*
X187211923Y-130569200D01*
X187141141Y-130569200D01*
X187140945Y-130569190D01*
X187086149Y-130563793D01*
X187085764Y-130563717D01*
X187038980Y-130549525D01*
X187038618Y-130549375D01*
X186995500Y-130526328D01*
X186995174Y-130526110D01*
X186957382Y-130495095D01*
X186957105Y-130494818D01*
X186926090Y-130457026D01*
X186925872Y-130456700D01*
X186902825Y-130413582D01*
X186902675Y-130413220D01*
X186888483Y-130366436D01*
X186888407Y-130366051D01*
X186883010Y-130311255D01*
X186883000Y-130311059D01*
X186883000Y-130240277D01*
X186884000Y-130238545D01*
X186886000Y-130238545D01*
X186886990Y-130240081D01*
G37*
G36*
X189036165Y-130238651D02*
G01*
X189037000Y-130240277D01*
X189037000Y-130311059D01*
X189036990Y-130311255D01*
X189031593Y-130366051D01*
X189031517Y-130366436D01*
X189017325Y-130413220D01*
X189017175Y-130413582D01*
X188994128Y-130456700D01*
X188993910Y-130457026D01*
X188962895Y-130494818D01*
X188962618Y-130495095D01*
X188924826Y-130526110D01*
X188924500Y-130526328D01*
X188881382Y-130549375D01*
X188881020Y-130549525D01*
X188834236Y-130563717D01*
X188833851Y-130563793D01*
X188779055Y-130569190D01*
X188778859Y-130569200D01*
X188708077Y-130569200D01*
X188706345Y-130568200D01*
X188706345Y-130566200D01*
X188707881Y-130565210D01*
X188771462Y-130558948D01*
X188832416Y-130540457D01*
X188888590Y-130510433D01*
X188937825Y-130470025D01*
X188978233Y-130420790D01*
X189008257Y-130364616D01*
X189026748Y-130303662D01*
X189033010Y-130240081D01*
X189034175Y-130238455D01*
X189036165Y-130238651D01*
G37*
G36*
X131917855Y-129146800D02*
G01*
X131917855Y-129148800D01*
X131916319Y-129149790D01*
X131852738Y-129156052D01*
X131791784Y-129174543D01*
X131735610Y-129204567D01*
X131686375Y-129244975D01*
X131645967Y-129294210D01*
X131615943Y-129350384D01*
X131597452Y-129411338D01*
X131591190Y-129474919D01*
X131590025Y-129476545D01*
X131588035Y-129476349D01*
X131587200Y-129474723D01*
X131587200Y-129403941D01*
X131587210Y-129403745D01*
X131592607Y-129348949D01*
X131592683Y-129348564D01*
X131606875Y-129301780D01*
X131607025Y-129301418D01*
X131630072Y-129258300D01*
X131630290Y-129257974D01*
X131661305Y-129220182D01*
X131661582Y-129219905D01*
X131699374Y-129188890D01*
X131699700Y-129188672D01*
X131742818Y-129165625D01*
X131743180Y-129165475D01*
X131789964Y-129151283D01*
X131790349Y-129151207D01*
X131845145Y-129145810D01*
X131845341Y-129145800D01*
X131916123Y-129145800D01*
X131917855Y-129146800D01*
G37*
G36*
X133483255Y-129145810D02*
G01*
X133538051Y-129151207D01*
X133538436Y-129151283D01*
X133585220Y-129165475D01*
X133585582Y-129165625D01*
X133628700Y-129188672D01*
X133629026Y-129188890D01*
X133666818Y-129219905D01*
X133667095Y-129220182D01*
X133698110Y-129257974D01*
X133698328Y-129258300D01*
X133721375Y-129301418D01*
X133721525Y-129301780D01*
X133735717Y-129348564D01*
X133735793Y-129348949D01*
X133741190Y-129403745D01*
X133741200Y-129403941D01*
X133741200Y-129474723D01*
X133740200Y-129476455D01*
X133738200Y-129476455D01*
X133737210Y-129474919D01*
X133730948Y-129411338D01*
X133712457Y-129350384D01*
X133682433Y-129294210D01*
X133642025Y-129244975D01*
X133592790Y-129204567D01*
X133536616Y-129174543D01*
X133475662Y-129156052D01*
X133412081Y-129149790D01*
X133410455Y-129148625D01*
X133410651Y-129146635D01*
X133412277Y-129145800D01*
X133483059Y-129145800D01*
X133483255Y-129145810D01*
G37*
G36*
X187213655Y-128866200D02*
G01*
X187213655Y-128868200D01*
X187212119Y-128869190D01*
X187148538Y-128875452D01*
X187087584Y-128893943D01*
X187031410Y-128923967D01*
X186982175Y-128964375D01*
X186941767Y-129013610D01*
X186911743Y-129069784D01*
X186893252Y-129130738D01*
X186886990Y-129194319D01*
X186885825Y-129195945D01*
X186883835Y-129195749D01*
X186883000Y-129194123D01*
X186883000Y-129123341D01*
X186883010Y-129123145D01*
X186888407Y-129068349D01*
X186888483Y-129067964D01*
X186902675Y-129021180D01*
X186902825Y-129020818D01*
X186925872Y-128977700D01*
X186926090Y-128977374D01*
X186957105Y-128939582D01*
X186957382Y-128939305D01*
X186995174Y-128908290D01*
X186995500Y-128908072D01*
X187038618Y-128885025D01*
X187038980Y-128884875D01*
X187085764Y-128870683D01*
X187086149Y-128870607D01*
X187140945Y-128865210D01*
X187141141Y-128865200D01*
X187211923Y-128865200D01*
X187213655Y-128866200D01*
G37*
G36*
X188779055Y-128865210D02*
G01*
X188833851Y-128870607D01*
X188834236Y-128870683D01*
X188881020Y-128884875D01*
X188881382Y-128885025D01*
X188924500Y-128908072D01*
X188924826Y-128908290D01*
X188962618Y-128939305D01*
X188962895Y-128939582D01*
X188993910Y-128977374D01*
X188994128Y-128977700D01*
X189017175Y-129020818D01*
X189017325Y-129021180D01*
X189031517Y-129067964D01*
X189031593Y-129068349D01*
X189036990Y-129123145D01*
X189037000Y-129123341D01*
X189037000Y-129194123D01*
X189036000Y-129195855D01*
X189034000Y-129195855D01*
X189033010Y-129194319D01*
X189026748Y-129130738D01*
X189008257Y-129069784D01*
X188978233Y-129013610D01*
X188937825Y-128964375D01*
X188888590Y-128923967D01*
X188832416Y-128893943D01*
X188771462Y-128875452D01*
X188707881Y-128869190D01*
X188706255Y-128868025D01*
X188706451Y-128866035D01*
X188708077Y-128865200D01*
X188778859Y-128865200D01*
X188779055Y-128865210D01*
G37*
G36*
X133740365Y-127419251D02*
G01*
X133741200Y-127420877D01*
X133741200Y-127491659D01*
X133741190Y-127491855D01*
X133735793Y-127546651D01*
X133735717Y-127547036D01*
X133721525Y-127593820D01*
X133721375Y-127594182D01*
X133698328Y-127637300D01*
X133698110Y-127637626D01*
X133667095Y-127675418D01*
X133666818Y-127675695D01*
X133629026Y-127706710D01*
X133628700Y-127706928D01*
X133585582Y-127729975D01*
X133585220Y-127730125D01*
X133538436Y-127744317D01*
X133538051Y-127744393D01*
X133483255Y-127749790D01*
X133483059Y-127749800D01*
X133412277Y-127749800D01*
X133410545Y-127748800D01*
X133410545Y-127746800D01*
X133412081Y-127745810D01*
X133475662Y-127739548D01*
X133536616Y-127721057D01*
X133592790Y-127691033D01*
X133642025Y-127650625D01*
X133682433Y-127601390D01*
X133712457Y-127545216D01*
X133730948Y-127484262D01*
X133737210Y-127420681D01*
X133738375Y-127419055D01*
X133740365Y-127419251D01*
G37*
G36*
X131591190Y-127420681D02*
G01*
X131597452Y-127484262D01*
X131615943Y-127545216D01*
X131645967Y-127601390D01*
X131686375Y-127650625D01*
X131735610Y-127691033D01*
X131791784Y-127721057D01*
X131852738Y-127739548D01*
X131916319Y-127745810D01*
X131917945Y-127746975D01*
X131917749Y-127748965D01*
X131916123Y-127749800D01*
X131845341Y-127749800D01*
X131845145Y-127749790D01*
X131790349Y-127744393D01*
X131789964Y-127744317D01*
X131743180Y-127730125D01*
X131742818Y-127729975D01*
X131699700Y-127706928D01*
X131699374Y-127706710D01*
X131661582Y-127675695D01*
X131661305Y-127675418D01*
X131630290Y-127637626D01*
X131630072Y-127637300D01*
X131607025Y-127594182D01*
X131606875Y-127593820D01*
X131592683Y-127547036D01*
X131592607Y-127546651D01*
X131587210Y-127491855D01*
X131587200Y-127491659D01*
X131587200Y-127420877D01*
X131588200Y-127419145D01*
X131590200Y-127419145D01*
X131591190Y-127420681D01*
G37*
G36*
X131917855Y-126046800D02*
G01*
X131917855Y-126048800D01*
X131916319Y-126049790D01*
X131852738Y-126056052D01*
X131791784Y-126074543D01*
X131735610Y-126104567D01*
X131686375Y-126144975D01*
X131645967Y-126194210D01*
X131615943Y-126250384D01*
X131597452Y-126311338D01*
X131591190Y-126374919D01*
X131590025Y-126376545D01*
X131588035Y-126376349D01*
X131587200Y-126374723D01*
X131587200Y-126303941D01*
X131587210Y-126303745D01*
X131592607Y-126248949D01*
X131592683Y-126248564D01*
X131606875Y-126201780D01*
X131607025Y-126201418D01*
X131630072Y-126158300D01*
X131630290Y-126157974D01*
X131661305Y-126120182D01*
X131661582Y-126119905D01*
X131699374Y-126088890D01*
X131699700Y-126088672D01*
X131742818Y-126065625D01*
X131743180Y-126065475D01*
X131789964Y-126051283D01*
X131790349Y-126051207D01*
X131845145Y-126045810D01*
X131845341Y-126045800D01*
X131916123Y-126045800D01*
X131917855Y-126046800D01*
G37*
G36*
X133483255Y-126045810D02*
G01*
X133538051Y-126051207D01*
X133538436Y-126051283D01*
X133585220Y-126065475D01*
X133585582Y-126065625D01*
X133628700Y-126088672D01*
X133629026Y-126088890D01*
X133666818Y-126119905D01*
X133667095Y-126120182D01*
X133698110Y-126157974D01*
X133698328Y-126158300D01*
X133721375Y-126201418D01*
X133721525Y-126201780D01*
X133735717Y-126248564D01*
X133735793Y-126248949D01*
X133741190Y-126303745D01*
X133741200Y-126303941D01*
X133741200Y-126374723D01*
X133740200Y-126376455D01*
X133738200Y-126376455D01*
X133737210Y-126374919D01*
X133730948Y-126311338D01*
X133712457Y-126250384D01*
X133682433Y-126194210D01*
X133642025Y-126144975D01*
X133592790Y-126104567D01*
X133536616Y-126074543D01*
X133475662Y-126056052D01*
X133412081Y-126049790D01*
X133410455Y-126048625D01*
X133410651Y-126046635D01*
X133412277Y-126045800D01*
X133483059Y-126045800D01*
X133483255Y-126045810D01*
G37*
G36*
X190186982Y-122658363D02*
G01*
X190187309Y-122660162D01*
X190182035Y-122677546D01*
X190179672Y-122701538D01*
X190182035Y-122725529D01*
X190189035Y-122748604D01*
X190200400Y-122769867D01*
X190215695Y-122788504D01*
X190234332Y-122803800D01*
X190255596Y-122815165D01*
X190278670Y-122822165D01*
X190302662Y-122824528D01*
X190326653Y-122822165D01*
X190344039Y-122816891D01*
X190345987Y-122817345D01*
X190346568Y-122819259D01*
X190345385Y-122820653D01*
X190278060Y-122848540D01*
X190139840Y-122940895D01*
X190022295Y-123058440D01*
X189929940Y-123196660D01*
X189902053Y-123263984D01*
X189900466Y-123265202D01*
X189898618Y-123264437D01*
X189898291Y-123262638D01*
X189903565Y-123245254D01*
X189905928Y-123221262D01*
X189903565Y-123197271D01*
X189896565Y-123174196D01*
X189885200Y-123152933D01*
X189869905Y-123134296D01*
X189851268Y-123119000D01*
X189830004Y-123107635D01*
X189806930Y-123100635D01*
X189782938Y-123098272D01*
X189758947Y-123100635D01*
X189741561Y-123105909D01*
X189739613Y-123105455D01*
X189739032Y-123103541D01*
X189740215Y-123102147D01*
X189807540Y-123074260D01*
X189945760Y-122981905D01*
X190063305Y-122864360D01*
X190155660Y-122726140D01*
X190183547Y-122658816D01*
X190185134Y-122657598D01*
X190186982Y-122658363D01*
G37*
G36*
X129201582Y-122455163D02*
G01*
X129201909Y-122456962D01*
X129196635Y-122474346D01*
X129194272Y-122498338D01*
X129196635Y-122522329D01*
X129203635Y-122545404D01*
X129215000Y-122566667D01*
X129230295Y-122585304D01*
X129248932Y-122600600D01*
X129270196Y-122611965D01*
X129293270Y-122618965D01*
X129317262Y-122621328D01*
X129341253Y-122618965D01*
X129358639Y-122613691D01*
X129360587Y-122614145D01*
X129361168Y-122616059D01*
X129359985Y-122617453D01*
X129292660Y-122645340D01*
X129154440Y-122737695D01*
X129036895Y-122855240D01*
X128944540Y-122993460D01*
X128916653Y-123060784D01*
X128915066Y-123062002D01*
X128913218Y-123061237D01*
X128912891Y-123059438D01*
X128918165Y-123042054D01*
X128920528Y-123018062D01*
X128918165Y-122994071D01*
X128911165Y-122970996D01*
X128899800Y-122949733D01*
X128884505Y-122931096D01*
X128865868Y-122915800D01*
X128844604Y-122904435D01*
X128821530Y-122897435D01*
X128797538Y-122895072D01*
X128773547Y-122897435D01*
X128756161Y-122902709D01*
X128754213Y-122902255D01*
X128753632Y-122900341D01*
X128754815Y-122898947D01*
X128822140Y-122871060D01*
X128960360Y-122778705D01*
X129077905Y-122661160D01*
X129170260Y-122522940D01*
X129198147Y-122455616D01*
X129199734Y-122454398D01*
X129201582Y-122455163D01*
G37*
G36*
X121046863Y-109543523D02*
G01*
X121075647Y-109586601D01*
X121172399Y-109683353D01*
X121286169Y-109759372D01*
X121328610Y-109776952D01*
X121329828Y-109778539D01*
X121328610Y-109780648D01*
X121286169Y-109798228D01*
X121172399Y-109874247D01*
X121075647Y-109970999D01*
X120999628Y-110084769D01*
X120982048Y-110127210D01*
X120980461Y-110128428D01*
X120978352Y-110127210D01*
X120960772Y-110084769D01*
X120884753Y-109970999D01*
X120788001Y-109874247D01*
X120744923Y-109845463D01*
X120744038Y-109843669D01*
X120746034Y-109841800D01*
X121043200Y-109841800D01*
X121043200Y-109544634D01*
X121044200Y-109542902D01*
X121046863Y-109543523D01*
G37*
G36*
X119946098Y-109842800D02*
G01*
X119945477Y-109845463D01*
X119902399Y-109874247D01*
X119805647Y-109970999D01*
X119763591Y-110033940D01*
X119761797Y-110034825D01*
X119760134Y-110033714D01*
X119760164Y-110031886D01*
X119768727Y-110015865D01*
X119775727Y-109992790D01*
X119778090Y-109968799D01*
X119775727Y-109944808D01*
X119768727Y-109921733D01*
X119757362Y-109900469D01*
X119742066Y-109881832D01*
X119723430Y-109866537D01*
X119702166Y-109855172D01*
X119679091Y-109848172D01*
X119654904Y-109845790D01*
X119653278Y-109844625D01*
X119653474Y-109842635D01*
X119655100Y-109841800D01*
X119944366Y-109841800D01*
X119946098Y-109842800D01*
G37*
G36*
X121047190Y-108453504D02*
G01*
X121049572Y-108477691D01*
X121056572Y-108500766D01*
X121067937Y-108522030D01*
X121083232Y-108540667D01*
X121101869Y-108555962D01*
X121123133Y-108567327D01*
X121146208Y-108574327D01*
X121170199Y-108576690D01*
X121194190Y-108574327D01*
X121217265Y-108567327D01*
X121233286Y-108558764D01*
X121235285Y-108558830D01*
X121236228Y-108560593D01*
X121235340Y-108562191D01*
X121172399Y-108604247D01*
X121075647Y-108700999D01*
X121046863Y-108744077D01*
X121045069Y-108744962D01*
X121043200Y-108742966D01*
X121043200Y-108453700D01*
X121044200Y-108451968D01*
X121046200Y-108451968D01*
X121047190Y-108453504D01*
G37*
G36*
X139099365Y-99735504D02*
G01*
X139100200Y-99737130D01*
X139100200Y-99808820D01*
X139100190Y-99809016D01*
X139094839Y-99863348D01*
X139094763Y-99863733D01*
X139080705Y-99910078D01*
X139080555Y-99910440D01*
X139057726Y-99953149D01*
X139057508Y-99953475D01*
X139026787Y-99990910D01*
X139026510Y-99991187D01*
X138989075Y-100021908D01*
X138988749Y-100022126D01*
X138946040Y-100044955D01*
X138945678Y-100045105D01*
X138899333Y-100059163D01*
X138898948Y-100059239D01*
X138844616Y-100064590D01*
X138844420Y-100064600D01*
X138772730Y-100064600D01*
X138770998Y-100063600D01*
X138770998Y-100061600D01*
X138772534Y-100060610D01*
X138835831Y-100054376D01*
X138896513Y-100035968D01*
X138952435Y-100006077D01*
X139001451Y-99965851D01*
X139041677Y-99916835D01*
X139071568Y-99860913D01*
X139089976Y-99800231D01*
X139096210Y-99736934D01*
X139097375Y-99735308D01*
X139099365Y-99735504D01*
G37*
G36*
X136900190Y-99736934D02*
G01*
X136906424Y-99800231D01*
X136924832Y-99860913D01*
X136954723Y-99916835D01*
X136994949Y-99965851D01*
X137043965Y-100006077D01*
X137099887Y-100035968D01*
X137160569Y-100054376D01*
X137223866Y-100060610D01*
X137225492Y-100061775D01*
X137225296Y-100063765D01*
X137223670Y-100064600D01*
X137151980Y-100064600D01*
X137151784Y-100064590D01*
X137097452Y-100059239D01*
X137097067Y-100059163D01*
X137050722Y-100045105D01*
X137050360Y-100044955D01*
X137007651Y-100022126D01*
X137007325Y-100021908D01*
X136969890Y-99991187D01*
X136969613Y-99990910D01*
X136938892Y-99953475D01*
X136938674Y-99953149D01*
X136915845Y-99910440D01*
X136915695Y-99910078D01*
X136901637Y-99863733D01*
X136901561Y-99863348D01*
X136896210Y-99809016D01*
X136896200Y-99808820D01*
X136896200Y-99737130D01*
X136897200Y-99735398D01*
X136899200Y-99735398D01*
X136900190Y-99736934D01*
G37*
G36*
X137225402Y-98336600D02*
G01*
X137225402Y-98338600D01*
X137223866Y-98339590D01*
X137160569Y-98345824D01*
X137099887Y-98364232D01*
X137043965Y-98394123D01*
X136994949Y-98434349D01*
X136954723Y-98483365D01*
X136924832Y-98539287D01*
X136906424Y-98599969D01*
X136900190Y-98663266D01*
X136899025Y-98664892D01*
X136897035Y-98664696D01*
X136896200Y-98663070D01*
X136896200Y-98591380D01*
X136896210Y-98591184D01*
X136901561Y-98536852D01*
X136901637Y-98536467D01*
X136915695Y-98490122D01*
X136915845Y-98489760D01*
X136938674Y-98447051D01*
X136938892Y-98446725D01*
X136969613Y-98409290D01*
X136969890Y-98409013D01*
X137007325Y-98378292D01*
X137007651Y-98378074D01*
X137050360Y-98355245D01*
X137050722Y-98355095D01*
X137097067Y-98341037D01*
X137097452Y-98340961D01*
X137151784Y-98335610D01*
X137151980Y-98335600D01*
X137223670Y-98335600D01*
X137225402Y-98336600D01*
G37*
G36*
X138844616Y-98335610D02*
G01*
X138898948Y-98340961D01*
X138899333Y-98341037D01*
X138945678Y-98355095D01*
X138946040Y-98355245D01*
X138988749Y-98378074D01*
X138989075Y-98378292D01*
X139026510Y-98409013D01*
X139026787Y-98409290D01*
X139057508Y-98446725D01*
X139057726Y-98447051D01*
X139080555Y-98489760D01*
X139080705Y-98490122D01*
X139094763Y-98536467D01*
X139094839Y-98536852D01*
X139100190Y-98591184D01*
X139100200Y-98591380D01*
X139100200Y-98663070D01*
X139099200Y-98664802D01*
X139097200Y-98664802D01*
X139096210Y-98663266D01*
X139089976Y-98599969D01*
X139071568Y-98539287D01*
X139041677Y-98483365D01*
X139001451Y-98434349D01*
X138952435Y-98394123D01*
X138896513Y-98364232D01*
X138835831Y-98345824D01*
X138772534Y-98339590D01*
X138770908Y-98338425D01*
X138771104Y-98336435D01*
X138772730Y-98335600D01*
X138844420Y-98335600D01*
X138844616Y-98335610D01*
G37*
G36*
X139099365Y-96610504D02*
G01*
X139100200Y-96612130D01*
X139100200Y-96683820D01*
X139100190Y-96684016D01*
X139094839Y-96738348D01*
X139094763Y-96738733D01*
X139080705Y-96785078D01*
X139080555Y-96785440D01*
X139057726Y-96828149D01*
X139057508Y-96828475D01*
X139026787Y-96865910D01*
X139026510Y-96866187D01*
X138989075Y-96896908D01*
X138988749Y-96897126D01*
X138946040Y-96919955D01*
X138945678Y-96920105D01*
X138899333Y-96934163D01*
X138898948Y-96934239D01*
X138844616Y-96939590D01*
X138844420Y-96939600D01*
X138772730Y-96939600D01*
X138770998Y-96938600D01*
X138770998Y-96936600D01*
X138772534Y-96935610D01*
X138835831Y-96929376D01*
X138896513Y-96910968D01*
X138952435Y-96881077D01*
X139001451Y-96840851D01*
X139041677Y-96791835D01*
X139071568Y-96735913D01*
X139089976Y-96675231D01*
X139096210Y-96611934D01*
X139097375Y-96610308D01*
X139099365Y-96610504D01*
G37*
G36*
X136900190Y-96611934D02*
G01*
X136906424Y-96675231D01*
X136924832Y-96735913D01*
X136954723Y-96791835D01*
X136994949Y-96840851D01*
X137043965Y-96881077D01*
X137099887Y-96910968D01*
X137160569Y-96929376D01*
X137223866Y-96935610D01*
X137225492Y-96936775D01*
X137225296Y-96938765D01*
X137223670Y-96939600D01*
X137151980Y-96939600D01*
X137151784Y-96939590D01*
X137097452Y-96934239D01*
X137097067Y-96934163D01*
X137050722Y-96920105D01*
X137050360Y-96919955D01*
X137007651Y-96897126D01*
X137007325Y-96896908D01*
X136969890Y-96866187D01*
X136969613Y-96865910D01*
X136938892Y-96828475D01*
X136938674Y-96828149D01*
X136915845Y-96785440D01*
X136915695Y-96785078D01*
X136901637Y-96738733D01*
X136901561Y-96738348D01*
X136896210Y-96684016D01*
X136896200Y-96683820D01*
X136896200Y-96612130D01*
X136897200Y-96610398D01*
X136899200Y-96610398D01*
X136900190Y-96611934D01*
G37*
G36*
X137225402Y-95211600D02*
G01*
X137225402Y-95213600D01*
X137223866Y-95214590D01*
X137160569Y-95220824D01*
X137099887Y-95239232D01*
X137043965Y-95269123D01*
X136994949Y-95309349D01*
X136954723Y-95358365D01*
X136924832Y-95414287D01*
X136906424Y-95474969D01*
X136900190Y-95538266D01*
X136899025Y-95539892D01*
X136897035Y-95539696D01*
X136896200Y-95538070D01*
X136896200Y-95466380D01*
X136896210Y-95466184D01*
X136901561Y-95411852D01*
X136901637Y-95411467D01*
X136915695Y-95365122D01*
X136915845Y-95364760D01*
X136938674Y-95322051D01*
X136938892Y-95321725D01*
X136969613Y-95284290D01*
X136969890Y-95284013D01*
X137007325Y-95253292D01*
X137007651Y-95253074D01*
X137050360Y-95230245D01*
X137050722Y-95230095D01*
X137097067Y-95216037D01*
X137097452Y-95215961D01*
X137151784Y-95210610D01*
X137151980Y-95210600D01*
X137223670Y-95210600D01*
X137225402Y-95211600D01*
G37*
G36*
X138844616Y-95210610D02*
G01*
X138898948Y-95215961D01*
X138899333Y-95216037D01*
X138945678Y-95230095D01*
X138946040Y-95230245D01*
X138988749Y-95253074D01*
X138989075Y-95253292D01*
X139026510Y-95284013D01*
X139026787Y-95284290D01*
X139057508Y-95321725D01*
X139057726Y-95322051D01*
X139080555Y-95364760D01*
X139080705Y-95365122D01*
X139094763Y-95411467D01*
X139094839Y-95411852D01*
X139100190Y-95466184D01*
X139100200Y-95466380D01*
X139100200Y-95538070D01*
X139099200Y-95539802D01*
X139097200Y-95539802D01*
X139096210Y-95538266D01*
X139089976Y-95474969D01*
X139071568Y-95414287D01*
X139041677Y-95358365D01*
X139001451Y-95309349D01*
X138952435Y-95269123D01*
X138896513Y-95239232D01*
X138835831Y-95220824D01*
X138772534Y-95214590D01*
X138770908Y-95213425D01*
X138771104Y-95211435D01*
X138772730Y-95210600D01*
X138844420Y-95210600D01*
X138844616Y-95210610D01*
G37*
G36*
X149812965Y-74990042D02*
G01*
X149813800Y-74991668D01*
X149813800Y-75058444D01*
X149813790Y-75058640D01*
X149808193Y-75115466D01*
X149808117Y-75115851D01*
X149793331Y-75164595D01*
X149793181Y-75164957D01*
X149769174Y-75209871D01*
X149768956Y-75210197D01*
X149736645Y-75249568D01*
X149736368Y-75249845D01*
X149696997Y-75282156D01*
X149696671Y-75282374D01*
X149651757Y-75306381D01*
X149651395Y-75306531D01*
X149602651Y-75321317D01*
X149602266Y-75321393D01*
X149545440Y-75326990D01*
X149545244Y-75327000D01*
X149478468Y-75327000D01*
X149476736Y-75326000D01*
X149476736Y-75324000D01*
X149478272Y-75323010D01*
X149543103Y-75316625D01*
X149605260Y-75297770D01*
X149662541Y-75267152D01*
X149712748Y-75225948D01*
X149753952Y-75175741D01*
X149784570Y-75118460D01*
X149803425Y-75056303D01*
X149809810Y-74991472D01*
X149810975Y-74989846D01*
X149812965Y-74990042D01*
G37*
G36*
X142212965Y-74990042D02*
G01*
X142213800Y-74991668D01*
X142213800Y-75058444D01*
X142213790Y-75058640D01*
X142208193Y-75115466D01*
X142208117Y-75115851D01*
X142193331Y-75164595D01*
X142193181Y-75164957D01*
X142169174Y-75209871D01*
X142168956Y-75210197D01*
X142136645Y-75249568D01*
X142136368Y-75249845D01*
X142096997Y-75282156D01*
X142096671Y-75282374D01*
X142051757Y-75306381D01*
X142051395Y-75306531D01*
X142002651Y-75321317D01*
X142002266Y-75321393D01*
X141945440Y-75326990D01*
X141945244Y-75327000D01*
X141878468Y-75327000D01*
X141876736Y-75326000D01*
X141876736Y-75324000D01*
X141878272Y-75323010D01*
X141943103Y-75316625D01*
X142005260Y-75297770D01*
X142062541Y-75267152D01*
X142112748Y-75225948D01*
X142153952Y-75175741D01*
X142184570Y-75118460D01*
X142203425Y-75056303D01*
X142209810Y-74991472D01*
X142210975Y-74989846D01*
X142212965Y-74990042D01*
G37*
G36*
X148213790Y-74991472D02*
G01*
X148220175Y-75056303D01*
X148239030Y-75118460D01*
X148269648Y-75175741D01*
X148310852Y-75225948D01*
X148361059Y-75267152D01*
X148418340Y-75297770D01*
X148480497Y-75316625D01*
X148545328Y-75323010D01*
X148546954Y-75324175D01*
X148546758Y-75326165D01*
X148545132Y-75327000D01*
X148478356Y-75327000D01*
X148478160Y-75326990D01*
X148421334Y-75321393D01*
X148420949Y-75321317D01*
X148372205Y-75306531D01*
X148371843Y-75306381D01*
X148326929Y-75282374D01*
X148326603Y-75282156D01*
X148287232Y-75249845D01*
X148286955Y-75249568D01*
X148254644Y-75210197D01*
X148254426Y-75209871D01*
X148230419Y-75164957D01*
X148230269Y-75164595D01*
X148215483Y-75115851D01*
X148215407Y-75115466D01*
X148209810Y-75058640D01*
X148209800Y-75058444D01*
X148209800Y-74991668D01*
X148210800Y-74989936D01*
X148212800Y-74989936D01*
X148213790Y-74991472D01*
G37*
G36*
X140613790Y-74991472D02*
G01*
X140620175Y-75056303D01*
X140639030Y-75118460D01*
X140669648Y-75175741D01*
X140710852Y-75225948D01*
X140761059Y-75267152D01*
X140818340Y-75297770D01*
X140880497Y-75316625D01*
X140945328Y-75323010D01*
X140946954Y-75324175D01*
X140946758Y-75326165D01*
X140945132Y-75327000D01*
X140878356Y-75327000D01*
X140878160Y-75326990D01*
X140821334Y-75321393D01*
X140820949Y-75321317D01*
X140772205Y-75306531D01*
X140771843Y-75306381D01*
X140726929Y-75282374D01*
X140726603Y-75282156D01*
X140687232Y-75249845D01*
X140686955Y-75249568D01*
X140654644Y-75210197D01*
X140654426Y-75209871D01*
X140630419Y-75164957D01*
X140630269Y-75164595D01*
X140615483Y-75115851D01*
X140615407Y-75115466D01*
X140609810Y-75058640D01*
X140609800Y-75058444D01*
X140609800Y-74991668D01*
X140610800Y-74989936D01*
X140612800Y-74989936D01*
X140613790Y-74991472D01*
G37*
G36*
X179759565Y-74659842D02*
G01*
X179760400Y-74661468D01*
X179760400Y-74728244D01*
X179760390Y-74728440D01*
X179754793Y-74785266D01*
X179754717Y-74785651D01*
X179739931Y-74834395D01*
X179739781Y-74834757D01*
X179715774Y-74879671D01*
X179715556Y-74879997D01*
X179683245Y-74919368D01*
X179682968Y-74919645D01*
X179643597Y-74951956D01*
X179643271Y-74952174D01*
X179598357Y-74976181D01*
X179597995Y-74976331D01*
X179549251Y-74991117D01*
X179548866Y-74991193D01*
X179492040Y-74996790D01*
X179491844Y-74996800D01*
X179425068Y-74996800D01*
X179423336Y-74995800D01*
X179423336Y-74993800D01*
X179424872Y-74992810D01*
X179489703Y-74986425D01*
X179551860Y-74967570D01*
X179609141Y-74936952D01*
X179659348Y-74895748D01*
X179700552Y-74845541D01*
X179731170Y-74788260D01*
X179750025Y-74726103D01*
X179756410Y-74661272D01*
X179757575Y-74659646D01*
X179759565Y-74659842D01*
G37*
G36*
X172159565Y-74659842D02*
G01*
X172160400Y-74661468D01*
X172160400Y-74728244D01*
X172160390Y-74728440D01*
X172154793Y-74785266D01*
X172154717Y-74785651D01*
X172139931Y-74834395D01*
X172139781Y-74834757D01*
X172115774Y-74879671D01*
X172115556Y-74879997D01*
X172083245Y-74919368D01*
X172082968Y-74919645D01*
X172043597Y-74951956D01*
X172043271Y-74952174D01*
X171998357Y-74976181D01*
X171997995Y-74976331D01*
X171949251Y-74991117D01*
X171948866Y-74991193D01*
X171892040Y-74996790D01*
X171891844Y-74996800D01*
X171825068Y-74996800D01*
X171823336Y-74995800D01*
X171823336Y-74993800D01*
X171824872Y-74992810D01*
X171889703Y-74986425D01*
X171951860Y-74967570D01*
X172009141Y-74936952D01*
X172059348Y-74895748D01*
X172100552Y-74845541D01*
X172131170Y-74788260D01*
X172150025Y-74726103D01*
X172156410Y-74661272D01*
X172157575Y-74659646D01*
X172159565Y-74659842D01*
G37*
G36*
X170560390Y-74661272D02*
G01*
X170566775Y-74726103D01*
X170585630Y-74788260D01*
X170616248Y-74845541D01*
X170657452Y-74895748D01*
X170707659Y-74936952D01*
X170764940Y-74967570D01*
X170827097Y-74986425D01*
X170891928Y-74992810D01*
X170893554Y-74993975D01*
X170893358Y-74995965D01*
X170891732Y-74996800D01*
X170824956Y-74996800D01*
X170824760Y-74996790D01*
X170767934Y-74991193D01*
X170767549Y-74991117D01*
X170718805Y-74976331D01*
X170718443Y-74976181D01*
X170673529Y-74952174D01*
X170673203Y-74951956D01*
X170633832Y-74919645D01*
X170633555Y-74919368D01*
X170601244Y-74879997D01*
X170601026Y-74879671D01*
X170577019Y-74834757D01*
X170576869Y-74834395D01*
X170562083Y-74785651D01*
X170562007Y-74785266D01*
X170556410Y-74728440D01*
X170556400Y-74728244D01*
X170556400Y-74661468D01*
X170557400Y-74659736D01*
X170559400Y-74659736D01*
X170560390Y-74661272D01*
G37*
G36*
X178160390Y-74661272D02*
G01*
X178166775Y-74726103D01*
X178185630Y-74788260D01*
X178216248Y-74845541D01*
X178257452Y-74895748D01*
X178307659Y-74936952D01*
X178364940Y-74967570D01*
X178427097Y-74986425D01*
X178491928Y-74992810D01*
X178493554Y-74993975D01*
X178493358Y-74995965D01*
X178491732Y-74996800D01*
X178424956Y-74996800D01*
X178424760Y-74996790D01*
X178367934Y-74991193D01*
X178367549Y-74991117D01*
X178318805Y-74976331D01*
X178318443Y-74976181D01*
X178273529Y-74952174D01*
X178273203Y-74951956D01*
X178233832Y-74919645D01*
X178233555Y-74919368D01*
X178201244Y-74879997D01*
X178201026Y-74879671D01*
X178177019Y-74834757D01*
X178176869Y-74834395D01*
X178162083Y-74785651D01*
X178162007Y-74785266D01*
X178156410Y-74728440D01*
X178156400Y-74728244D01*
X178156400Y-74661468D01*
X178157400Y-74659736D01*
X178159400Y-74659736D01*
X178160390Y-74661272D01*
G37*
G36*
X140946864Y-73124000D02*
G01*
X140946864Y-73126000D01*
X140945328Y-73126990D01*
X140880497Y-73133375D01*
X140818340Y-73152230D01*
X140761059Y-73182848D01*
X140710852Y-73224052D01*
X140669648Y-73274259D01*
X140639030Y-73331540D01*
X140620175Y-73393697D01*
X140613790Y-73458528D01*
X140612625Y-73460154D01*
X140610635Y-73459958D01*
X140609800Y-73458332D01*
X140609800Y-73391556D01*
X140609810Y-73391360D01*
X140615407Y-73334534D01*
X140615483Y-73334149D01*
X140630269Y-73285405D01*
X140630419Y-73285043D01*
X140654426Y-73240129D01*
X140654644Y-73239803D01*
X140686955Y-73200432D01*
X140687232Y-73200155D01*
X140726603Y-73167844D01*
X140726929Y-73167626D01*
X140771843Y-73143619D01*
X140772205Y-73143469D01*
X140820949Y-73128683D01*
X140821334Y-73128607D01*
X140878160Y-73123010D01*
X140878356Y-73123000D01*
X140945132Y-73123000D01*
X140946864Y-73124000D01*
G37*
G36*
X148546864Y-73124000D02*
G01*
X148546864Y-73126000D01*
X148545328Y-73126990D01*
X148480497Y-73133375D01*
X148418340Y-73152230D01*
X148361059Y-73182848D01*
X148310852Y-73224052D01*
X148269648Y-73274259D01*
X148239030Y-73331540D01*
X148220175Y-73393697D01*
X148213790Y-73458528D01*
X148212625Y-73460154D01*
X148210635Y-73459958D01*
X148209800Y-73458332D01*
X148209800Y-73391556D01*
X148209810Y-73391360D01*
X148215407Y-73334534D01*
X148215483Y-73334149D01*
X148230269Y-73285405D01*
X148230419Y-73285043D01*
X148254426Y-73240129D01*
X148254644Y-73239803D01*
X148286955Y-73200432D01*
X148287232Y-73200155D01*
X148326603Y-73167844D01*
X148326929Y-73167626D01*
X148371843Y-73143619D01*
X148372205Y-73143469D01*
X148420949Y-73128683D01*
X148421334Y-73128607D01*
X148478160Y-73123010D01*
X148478356Y-73123000D01*
X148545132Y-73123000D01*
X148546864Y-73124000D01*
G37*
G36*
X141945440Y-73123010D02*
G01*
X142002266Y-73128607D01*
X142002651Y-73128683D01*
X142051395Y-73143469D01*
X142051757Y-73143619D01*
X142096671Y-73167626D01*
X142096997Y-73167844D01*
X142136368Y-73200155D01*
X142136645Y-73200432D01*
X142168956Y-73239803D01*
X142169174Y-73240129D01*
X142193181Y-73285043D01*
X142193331Y-73285405D01*
X142208117Y-73334149D01*
X142208193Y-73334534D01*
X142213790Y-73391360D01*
X142213800Y-73391556D01*
X142213800Y-73458332D01*
X142212800Y-73460064D01*
X142210800Y-73460064D01*
X142209810Y-73458528D01*
X142203425Y-73393697D01*
X142184570Y-73331540D01*
X142153952Y-73274259D01*
X142112748Y-73224052D01*
X142062541Y-73182848D01*
X142005260Y-73152230D01*
X141943103Y-73133375D01*
X141878272Y-73126990D01*
X141876646Y-73125825D01*
X141876842Y-73123835D01*
X141878468Y-73123000D01*
X141945244Y-73123000D01*
X141945440Y-73123010D01*
G37*
G36*
X149545440Y-73123010D02*
G01*
X149602266Y-73128607D01*
X149602651Y-73128683D01*
X149651395Y-73143469D01*
X149651757Y-73143619D01*
X149696671Y-73167626D01*
X149696997Y-73167844D01*
X149736368Y-73200155D01*
X149736645Y-73200432D01*
X149768956Y-73239803D01*
X149769174Y-73240129D01*
X149793181Y-73285043D01*
X149793331Y-73285405D01*
X149808117Y-73334149D01*
X149808193Y-73334534D01*
X149813790Y-73391360D01*
X149813800Y-73391556D01*
X149813800Y-73458332D01*
X149812800Y-73460064D01*
X149810800Y-73460064D01*
X149809810Y-73458528D01*
X149803425Y-73393697D01*
X149784570Y-73331540D01*
X149753952Y-73274259D01*
X149712748Y-73224052D01*
X149662541Y-73182848D01*
X149605260Y-73152230D01*
X149543103Y-73133375D01*
X149478272Y-73126990D01*
X149476646Y-73125825D01*
X149476842Y-73123835D01*
X149478468Y-73123000D01*
X149545244Y-73123000D01*
X149545440Y-73123010D01*
G37*
G36*
X170893464Y-72793800D02*
G01*
X170893464Y-72795800D01*
X170891928Y-72796790D01*
X170827097Y-72803175D01*
X170764940Y-72822030D01*
X170707659Y-72852648D01*
X170657452Y-72893852D01*
X170616248Y-72944059D01*
X170585630Y-73001340D01*
X170566775Y-73063497D01*
X170560390Y-73128328D01*
X170559225Y-73129954D01*
X170557235Y-73129758D01*
X170556400Y-73128132D01*
X170556400Y-73061356D01*
X170556410Y-73061160D01*
X170562007Y-73004334D01*
X170562083Y-73003949D01*
X170576869Y-72955205D01*
X170577019Y-72954843D01*
X170601026Y-72909929D01*
X170601244Y-72909603D01*
X170633555Y-72870232D01*
X170633832Y-72869955D01*
X170673203Y-72837644D01*
X170673529Y-72837426D01*
X170718443Y-72813419D01*
X170718805Y-72813269D01*
X170767549Y-72798483D01*
X170767934Y-72798407D01*
X170824760Y-72792810D01*
X170824956Y-72792800D01*
X170891732Y-72792800D01*
X170893464Y-72793800D01*
G37*
G36*
X178493464Y-72793800D02*
G01*
X178493464Y-72795800D01*
X178491928Y-72796790D01*
X178427097Y-72803175D01*
X178364940Y-72822030D01*
X178307659Y-72852648D01*
X178257452Y-72893852D01*
X178216248Y-72944059D01*
X178185630Y-73001340D01*
X178166775Y-73063497D01*
X178160390Y-73128328D01*
X178159225Y-73129954D01*
X178157235Y-73129758D01*
X178156400Y-73128132D01*
X178156400Y-73061356D01*
X178156410Y-73061160D01*
X178162007Y-73004334D01*
X178162083Y-73003949D01*
X178176869Y-72955205D01*
X178177019Y-72954843D01*
X178201026Y-72909929D01*
X178201244Y-72909603D01*
X178233555Y-72870232D01*
X178233832Y-72869955D01*
X178273203Y-72837644D01*
X178273529Y-72837426D01*
X178318443Y-72813419D01*
X178318805Y-72813269D01*
X178367549Y-72798483D01*
X178367934Y-72798407D01*
X178424760Y-72792810D01*
X178424956Y-72792800D01*
X178491732Y-72792800D01*
X178493464Y-72793800D01*
G37*
G36*
X171892040Y-72792810D02*
G01*
X171948866Y-72798407D01*
X171949251Y-72798483D01*
X171997995Y-72813269D01*
X171998357Y-72813419D01*
X172043271Y-72837426D01*
X172043597Y-72837644D01*
X172082968Y-72869955D01*
X172083245Y-72870232D01*
X172115556Y-72909603D01*
X172115774Y-72909929D01*
X172139781Y-72954843D01*
X172139931Y-72955205D01*
X172154717Y-73003949D01*
X172154793Y-73004334D01*
X172160390Y-73061160D01*
X172160400Y-73061356D01*
X172160400Y-73128132D01*
X172159400Y-73129864D01*
X172157400Y-73129864D01*
X172156410Y-73128328D01*
X172150025Y-73063497D01*
X172131170Y-73001340D01*
X172100552Y-72944059D01*
X172059348Y-72893852D01*
X172009141Y-72852648D01*
X171951860Y-72822030D01*
X171889703Y-72803175D01*
X171824872Y-72796790D01*
X171823246Y-72795625D01*
X171823442Y-72793635D01*
X171825068Y-72792800D01*
X171891844Y-72792800D01*
X171892040Y-72792810D01*
G37*
G36*
X179492040Y-72792810D02*
G01*
X179548866Y-72798407D01*
X179549251Y-72798483D01*
X179597995Y-72813269D01*
X179598357Y-72813419D01*
X179643271Y-72837426D01*
X179643597Y-72837644D01*
X179682968Y-72869955D01*
X179683245Y-72870232D01*
X179715556Y-72909603D01*
X179715774Y-72909929D01*
X179739781Y-72954843D01*
X179739931Y-72955205D01*
X179754717Y-73003949D01*
X179754793Y-73004334D01*
X179760390Y-73061160D01*
X179760400Y-73061356D01*
X179760400Y-73128132D01*
X179759400Y-73129864D01*
X179757400Y-73129864D01*
X179756410Y-73128328D01*
X179750025Y-73063497D01*
X179731170Y-73001340D01*
X179700552Y-72944059D01*
X179659348Y-72893852D01*
X179609141Y-72852648D01*
X179551860Y-72822030D01*
X179489703Y-72803175D01*
X179424872Y-72796790D01*
X179423246Y-72795625D01*
X179423442Y-72793635D01*
X179425068Y-72792800D01*
X179491844Y-72792800D01*
X179492040Y-72792810D01*
G37*
G36*
X145212965Y-72423374D02*
G01*
X145213790Y-72424804D01*
X145218574Y-72473378D01*
X145232687Y-72519902D01*
X145255604Y-72562777D01*
X145286444Y-72600356D01*
X145324023Y-72631196D01*
X145366898Y-72654113D01*
X145413422Y-72668226D01*
X145461996Y-72673010D01*
X145463622Y-72674175D01*
X145463426Y-72676165D01*
X145461800Y-72677000D01*
X145405441Y-72677000D01*
X145405245Y-72676990D01*
X145362641Y-72672794D01*
X145362256Y-72672718D01*
X145327198Y-72662083D01*
X145326836Y-72661933D01*
X145294525Y-72644662D01*
X145294199Y-72644444D01*
X145289904Y-72640920D01*
X145269777Y-72627471D01*
X145247503Y-72618245D01*
X145223852Y-72613541D01*
X145199746Y-72613541D01*
X145176096Y-72618246D01*
X145153822Y-72627472D01*
X145133696Y-72640920D01*
X145129401Y-72644444D01*
X145129075Y-72644662D01*
X145096764Y-72661933D01*
X145096402Y-72662083D01*
X145061344Y-72672718D01*
X145060959Y-72672794D01*
X145018355Y-72676990D01*
X145018159Y-72677000D01*
X144961800Y-72677000D01*
X144960068Y-72676000D01*
X144960068Y-72674000D01*
X144961604Y-72673010D01*
X145010178Y-72668226D01*
X145056702Y-72654113D01*
X145099577Y-72631196D01*
X145137156Y-72600356D01*
X145167996Y-72562777D01*
X145190913Y-72519902D01*
X145205026Y-72473378D01*
X145209810Y-72424804D01*
X145210975Y-72423178D01*
X145212965Y-72423374D01*
G37*
G36*
X144212965Y-72423374D02*
G01*
X144213790Y-72424804D01*
X144218574Y-72473378D01*
X144232687Y-72519902D01*
X144255604Y-72562777D01*
X144286444Y-72600356D01*
X144324023Y-72631196D01*
X144366898Y-72654113D01*
X144413422Y-72668226D01*
X144461996Y-72673010D01*
X144463622Y-72674175D01*
X144463426Y-72676165D01*
X144461800Y-72677000D01*
X144405441Y-72677000D01*
X144405245Y-72676990D01*
X144362641Y-72672794D01*
X144362256Y-72672718D01*
X144327198Y-72662083D01*
X144326836Y-72661933D01*
X144294525Y-72644662D01*
X144294199Y-72644444D01*
X144289904Y-72640920D01*
X144269777Y-72627471D01*
X144247503Y-72618245D01*
X144223852Y-72613541D01*
X144199746Y-72613541D01*
X144176096Y-72618246D01*
X144153822Y-72627472D01*
X144133696Y-72640920D01*
X144129401Y-72644444D01*
X144129075Y-72644662D01*
X144096764Y-72661933D01*
X144096402Y-72662083D01*
X144061344Y-72672718D01*
X144060959Y-72672794D01*
X144018355Y-72676990D01*
X144018159Y-72677000D01*
X143961800Y-72677000D01*
X143960068Y-72676000D01*
X143960068Y-72674000D01*
X143961604Y-72673010D01*
X144010178Y-72668226D01*
X144056702Y-72654113D01*
X144099577Y-72631196D01*
X144137156Y-72600356D01*
X144167996Y-72562777D01*
X144190913Y-72519902D01*
X144205026Y-72473378D01*
X144209810Y-72424804D01*
X144210975Y-72423178D01*
X144212965Y-72423374D01*
G37*
G36*
X143212965Y-72423374D02*
G01*
X143213790Y-72424804D01*
X143218574Y-72473378D01*
X143232687Y-72519902D01*
X143255604Y-72562777D01*
X143286444Y-72600356D01*
X143324023Y-72631196D01*
X143366898Y-72654113D01*
X143413422Y-72668226D01*
X143461996Y-72673010D01*
X143463622Y-72674175D01*
X143463426Y-72676165D01*
X143461800Y-72677000D01*
X143405441Y-72677000D01*
X143405245Y-72676990D01*
X143362641Y-72672794D01*
X143362256Y-72672718D01*
X143327198Y-72662083D01*
X143326836Y-72661933D01*
X143294525Y-72644662D01*
X143294199Y-72644444D01*
X143289904Y-72640920D01*
X143269777Y-72627471D01*
X143247503Y-72618245D01*
X143223852Y-72613541D01*
X143199746Y-72613541D01*
X143176096Y-72618246D01*
X143153822Y-72627472D01*
X143133696Y-72640920D01*
X143129401Y-72644444D01*
X143129075Y-72644662D01*
X143096764Y-72661933D01*
X143096402Y-72662083D01*
X143061344Y-72672718D01*
X143060959Y-72672794D01*
X143018355Y-72676990D01*
X143018159Y-72677000D01*
X142961800Y-72677000D01*
X142960068Y-72676000D01*
X142960068Y-72674000D01*
X142961604Y-72673010D01*
X143010178Y-72668226D01*
X143056702Y-72654113D01*
X143099577Y-72631196D01*
X143137156Y-72600356D01*
X143167996Y-72562777D01*
X143190913Y-72519902D01*
X143205026Y-72473378D01*
X143209810Y-72424804D01*
X143210975Y-72423178D01*
X143212965Y-72423374D01*
G37*
G36*
X146212965Y-72423374D02*
G01*
X146213790Y-72424804D01*
X146218574Y-72473378D01*
X146232687Y-72519902D01*
X146255604Y-72562777D01*
X146286444Y-72600356D01*
X146324023Y-72631196D01*
X146366898Y-72654113D01*
X146413422Y-72668226D01*
X146461996Y-72673010D01*
X146463622Y-72674175D01*
X146463426Y-72676165D01*
X146461800Y-72677000D01*
X146405441Y-72677000D01*
X146405245Y-72676990D01*
X146362641Y-72672794D01*
X146362256Y-72672718D01*
X146327198Y-72662083D01*
X146326836Y-72661933D01*
X146294525Y-72644662D01*
X146294199Y-72644444D01*
X146289904Y-72640920D01*
X146269777Y-72627471D01*
X146247503Y-72618245D01*
X146223852Y-72613541D01*
X146199746Y-72613541D01*
X146176096Y-72618246D01*
X146153822Y-72627472D01*
X146133696Y-72640920D01*
X146129401Y-72644444D01*
X146129075Y-72644662D01*
X146096764Y-72661933D01*
X146096402Y-72662083D01*
X146061344Y-72672718D01*
X146060959Y-72672794D01*
X146018355Y-72676990D01*
X146018159Y-72677000D01*
X145961800Y-72677000D01*
X145960068Y-72676000D01*
X145960068Y-72674000D01*
X145961604Y-72673010D01*
X146010178Y-72668226D01*
X146056702Y-72654113D01*
X146099577Y-72631196D01*
X146137156Y-72600356D01*
X146167996Y-72562777D01*
X146190913Y-72519902D01*
X146205026Y-72473378D01*
X146209810Y-72424804D01*
X146210975Y-72423178D01*
X146212965Y-72423374D01*
G37*
G36*
X147212965Y-72423374D02*
G01*
X147213790Y-72424804D01*
X147218574Y-72473378D01*
X147232687Y-72519902D01*
X147255604Y-72562777D01*
X147286444Y-72600356D01*
X147324023Y-72631196D01*
X147366898Y-72654113D01*
X147413422Y-72668226D01*
X147461996Y-72673010D01*
X147463622Y-72674175D01*
X147463426Y-72676165D01*
X147461800Y-72677000D01*
X147405441Y-72677000D01*
X147405245Y-72676990D01*
X147362641Y-72672794D01*
X147362256Y-72672718D01*
X147327198Y-72662083D01*
X147326836Y-72661933D01*
X147294525Y-72644662D01*
X147294199Y-72644444D01*
X147289904Y-72640920D01*
X147269777Y-72627471D01*
X147247503Y-72618245D01*
X147223852Y-72613541D01*
X147199746Y-72613541D01*
X147176096Y-72618246D01*
X147153822Y-72627472D01*
X147133696Y-72640920D01*
X147129401Y-72644444D01*
X147129075Y-72644662D01*
X147096764Y-72661933D01*
X147096402Y-72662083D01*
X147061344Y-72672718D01*
X147060959Y-72672794D01*
X147018355Y-72676990D01*
X147018159Y-72677000D01*
X146961800Y-72677000D01*
X146960068Y-72676000D01*
X146960068Y-72674000D01*
X146961604Y-72673010D01*
X147010178Y-72668226D01*
X147056702Y-72654113D01*
X147099577Y-72631196D01*
X147137156Y-72600356D01*
X147167996Y-72562777D01*
X147190913Y-72519902D01*
X147205026Y-72473378D01*
X147209810Y-72424804D01*
X147210975Y-72423178D01*
X147212965Y-72423374D01*
G37*
G36*
X173159565Y-72093174D02*
G01*
X173160390Y-72094604D01*
X173165174Y-72143178D01*
X173179287Y-72189702D01*
X173202204Y-72232577D01*
X173233044Y-72270156D01*
X173270623Y-72300996D01*
X173313498Y-72323913D01*
X173360022Y-72338026D01*
X173408596Y-72342810D01*
X173410222Y-72343975D01*
X173410026Y-72345965D01*
X173408400Y-72346800D01*
X173352041Y-72346800D01*
X173351845Y-72346790D01*
X173309241Y-72342594D01*
X173308856Y-72342518D01*
X173273798Y-72331883D01*
X173273436Y-72331733D01*
X173241125Y-72314462D01*
X173240799Y-72314244D01*
X173236504Y-72310720D01*
X173216377Y-72297271D01*
X173194103Y-72288045D01*
X173170452Y-72283341D01*
X173146346Y-72283341D01*
X173122696Y-72288046D01*
X173100422Y-72297272D01*
X173080296Y-72310720D01*
X173076001Y-72314244D01*
X173075675Y-72314462D01*
X173043364Y-72331733D01*
X173043002Y-72331883D01*
X173007944Y-72342518D01*
X173007559Y-72342594D01*
X172964955Y-72346790D01*
X172964759Y-72346800D01*
X172908400Y-72346800D01*
X172906668Y-72345800D01*
X172906668Y-72343800D01*
X172908204Y-72342810D01*
X172956778Y-72338026D01*
X173003302Y-72323913D01*
X173046177Y-72300996D01*
X173083756Y-72270156D01*
X173114596Y-72232577D01*
X173137513Y-72189702D01*
X173151626Y-72143178D01*
X173156410Y-72094604D01*
X173157575Y-72092978D01*
X173159565Y-72093174D01*
G37*
G36*
X176159565Y-72093174D02*
G01*
X176160390Y-72094604D01*
X176165174Y-72143178D01*
X176179287Y-72189702D01*
X176202204Y-72232577D01*
X176233044Y-72270156D01*
X176270623Y-72300996D01*
X176313498Y-72323913D01*
X176360022Y-72338026D01*
X176408596Y-72342810D01*
X176410222Y-72343975D01*
X176410026Y-72345965D01*
X176408400Y-72346800D01*
X176352041Y-72346800D01*
X176351845Y-72346790D01*
X176309241Y-72342594D01*
X176308856Y-72342518D01*
X176273798Y-72331883D01*
X176273436Y-72331733D01*
X176241125Y-72314462D01*
X176240799Y-72314244D01*
X176236504Y-72310720D01*
X176216377Y-72297271D01*
X176194103Y-72288045D01*
X176170452Y-72283341D01*
X176146346Y-72283341D01*
X176122696Y-72288046D01*
X176100422Y-72297272D01*
X176080296Y-72310720D01*
X176076001Y-72314244D01*
X176075675Y-72314462D01*
X176043364Y-72331733D01*
X176043002Y-72331883D01*
X176007944Y-72342518D01*
X176007559Y-72342594D01*
X175964955Y-72346790D01*
X175964759Y-72346800D01*
X175908400Y-72346800D01*
X175906668Y-72345800D01*
X175906668Y-72343800D01*
X175908204Y-72342810D01*
X175956778Y-72338026D01*
X176003302Y-72323913D01*
X176046177Y-72300996D01*
X176083756Y-72270156D01*
X176114596Y-72232577D01*
X176137513Y-72189702D01*
X176151626Y-72143178D01*
X176156410Y-72094604D01*
X176157575Y-72092978D01*
X176159565Y-72093174D01*
G37*
G36*
X174159565Y-72093174D02*
G01*
X174160390Y-72094604D01*
X174165174Y-72143178D01*
X174179287Y-72189702D01*
X174202204Y-72232577D01*
X174233044Y-72270156D01*
X174270623Y-72300996D01*
X174313498Y-72323913D01*
X174360022Y-72338026D01*
X174408596Y-72342810D01*
X174410222Y-72343975D01*
X174410026Y-72345965D01*
X174408400Y-72346800D01*
X174352041Y-72346800D01*
X174351845Y-72346790D01*
X174309241Y-72342594D01*
X174308856Y-72342518D01*
X174273798Y-72331883D01*
X174273436Y-72331733D01*
X174241125Y-72314462D01*
X174240799Y-72314244D01*
X174236504Y-72310720D01*
X174216377Y-72297271D01*
X174194103Y-72288045D01*
X174170452Y-72283341D01*
X174146346Y-72283341D01*
X174122696Y-72288046D01*
X174100422Y-72297272D01*
X174080296Y-72310720D01*
X174076001Y-72314244D01*
X174075675Y-72314462D01*
X174043364Y-72331733D01*
X174043002Y-72331883D01*
X174007944Y-72342518D01*
X174007559Y-72342594D01*
X173964955Y-72346790D01*
X173964759Y-72346800D01*
X173908400Y-72346800D01*
X173906668Y-72345800D01*
X173906668Y-72343800D01*
X173908204Y-72342810D01*
X173956778Y-72338026D01*
X174003302Y-72323913D01*
X174046177Y-72300996D01*
X174083756Y-72270156D01*
X174114596Y-72232577D01*
X174137513Y-72189702D01*
X174151626Y-72143178D01*
X174156410Y-72094604D01*
X174157575Y-72092978D01*
X174159565Y-72093174D01*
G37*
G36*
X177159565Y-72093174D02*
G01*
X177160390Y-72094604D01*
X177165174Y-72143178D01*
X177179287Y-72189702D01*
X177202204Y-72232577D01*
X177233044Y-72270156D01*
X177270623Y-72300996D01*
X177313498Y-72323913D01*
X177360022Y-72338026D01*
X177408596Y-72342810D01*
X177410222Y-72343975D01*
X177410026Y-72345965D01*
X177408400Y-72346800D01*
X177352041Y-72346800D01*
X177351845Y-72346790D01*
X177309241Y-72342594D01*
X177308856Y-72342518D01*
X177273798Y-72331883D01*
X177273436Y-72331733D01*
X177241125Y-72314462D01*
X177240799Y-72314244D01*
X177236504Y-72310720D01*
X177216377Y-72297271D01*
X177194103Y-72288045D01*
X177170452Y-72283341D01*
X177146346Y-72283341D01*
X177122696Y-72288046D01*
X177100422Y-72297272D01*
X177080296Y-72310720D01*
X177076001Y-72314244D01*
X177075675Y-72314462D01*
X177043364Y-72331733D01*
X177043002Y-72331883D01*
X177007944Y-72342518D01*
X177007559Y-72342594D01*
X176964955Y-72346790D01*
X176964759Y-72346800D01*
X176908400Y-72346800D01*
X176906668Y-72345800D01*
X176906668Y-72343800D01*
X176908204Y-72342810D01*
X176956778Y-72338026D01*
X177003302Y-72323913D01*
X177046177Y-72300996D01*
X177083756Y-72270156D01*
X177114596Y-72232577D01*
X177137513Y-72189702D01*
X177151626Y-72143178D01*
X177156410Y-72094604D01*
X177157575Y-72092978D01*
X177159565Y-72093174D01*
G37*
G36*
X175159565Y-72093174D02*
G01*
X175160390Y-72094604D01*
X175165174Y-72143178D01*
X175179287Y-72189702D01*
X175202204Y-72232577D01*
X175233044Y-72270156D01*
X175270623Y-72300996D01*
X175313498Y-72323913D01*
X175360022Y-72338026D01*
X175408596Y-72342810D01*
X175410222Y-72343975D01*
X175410026Y-72345965D01*
X175408400Y-72346800D01*
X175352041Y-72346800D01*
X175351845Y-72346790D01*
X175309241Y-72342594D01*
X175308856Y-72342518D01*
X175273798Y-72331883D01*
X175273436Y-72331733D01*
X175241125Y-72314462D01*
X175240799Y-72314244D01*
X175236504Y-72310720D01*
X175216377Y-72297271D01*
X175194103Y-72288045D01*
X175170452Y-72283341D01*
X175146346Y-72283341D01*
X175122696Y-72288046D01*
X175100422Y-72297272D01*
X175080296Y-72310720D01*
X175076001Y-72314244D01*
X175075675Y-72314462D01*
X175043364Y-72331733D01*
X175043002Y-72331883D01*
X175007944Y-72342518D01*
X175007559Y-72342594D01*
X174964955Y-72346790D01*
X174964759Y-72346800D01*
X174908400Y-72346800D01*
X174906668Y-72345800D01*
X174906668Y-72343800D01*
X174908204Y-72342810D01*
X174956778Y-72338026D01*
X175003302Y-72323913D01*
X175046177Y-72300996D01*
X175083756Y-72270156D01*
X175114596Y-72232577D01*
X175137513Y-72189702D01*
X175151626Y-72143178D01*
X175156410Y-72094604D01*
X175157575Y-72092978D01*
X175159565Y-72093174D01*
G37*
G36*
X145018355Y-70723010D02*
G01*
X145060959Y-70727206D01*
X145061344Y-70727282D01*
X145096402Y-70737917D01*
X145096764Y-70738067D01*
X145129075Y-70755338D01*
X145129401Y-70755556D01*
X145133696Y-70759080D01*
X145153823Y-70772529D01*
X145176097Y-70781755D01*
X145199748Y-70786459D01*
X145223854Y-70786459D01*
X145247504Y-70781754D01*
X145269778Y-70772528D01*
X145289904Y-70759080D01*
X145294199Y-70755556D01*
X145294525Y-70755338D01*
X145326836Y-70738067D01*
X145327198Y-70737917D01*
X145362256Y-70727282D01*
X145362641Y-70727206D01*
X145405245Y-70723010D01*
X145405441Y-70723000D01*
X145461800Y-70723000D01*
X145463532Y-70724000D01*
X145463532Y-70726000D01*
X145461996Y-70726990D01*
X145413422Y-70731774D01*
X145366898Y-70745887D01*
X145324023Y-70768804D01*
X145286444Y-70799644D01*
X145255604Y-70837223D01*
X145232687Y-70880098D01*
X145218574Y-70926622D01*
X145213790Y-70975196D01*
X145212625Y-70976822D01*
X145210635Y-70976626D01*
X145209810Y-70975196D01*
X145205026Y-70926622D01*
X145190913Y-70880098D01*
X145167996Y-70837223D01*
X145137156Y-70799644D01*
X145099577Y-70768804D01*
X145056702Y-70745887D01*
X145010178Y-70731774D01*
X144961604Y-70726990D01*
X144959978Y-70725825D01*
X144960174Y-70723835D01*
X144961800Y-70723000D01*
X145018159Y-70723000D01*
X145018355Y-70723010D01*
G37*
G36*
X143018355Y-70723010D02*
G01*
X143060959Y-70727206D01*
X143061344Y-70727282D01*
X143096402Y-70737917D01*
X143096764Y-70738067D01*
X143129075Y-70755338D01*
X143129401Y-70755556D01*
X143133696Y-70759080D01*
X143153823Y-70772529D01*
X143176097Y-70781755D01*
X143199748Y-70786459D01*
X143223854Y-70786459D01*
X143247504Y-70781754D01*
X143269778Y-70772528D01*
X143289904Y-70759080D01*
X143294199Y-70755556D01*
X143294525Y-70755338D01*
X143326836Y-70738067D01*
X143327198Y-70737917D01*
X143362256Y-70727282D01*
X143362641Y-70727206D01*
X143405245Y-70723010D01*
X143405441Y-70723000D01*
X143461800Y-70723000D01*
X143463532Y-70724000D01*
X143463532Y-70726000D01*
X143461996Y-70726990D01*
X143413422Y-70731774D01*
X143366898Y-70745887D01*
X143324023Y-70768804D01*
X143286444Y-70799644D01*
X143255604Y-70837223D01*
X143232687Y-70880098D01*
X143218574Y-70926622D01*
X143213790Y-70975196D01*
X143212625Y-70976822D01*
X143210635Y-70976626D01*
X143209810Y-70975196D01*
X143205026Y-70926622D01*
X143190913Y-70880098D01*
X143167996Y-70837223D01*
X143137156Y-70799644D01*
X143099577Y-70768804D01*
X143056702Y-70745887D01*
X143010178Y-70731774D01*
X142961604Y-70726990D01*
X142959978Y-70725825D01*
X142960174Y-70723835D01*
X142961800Y-70723000D01*
X143018159Y-70723000D01*
X143018355Y-70723010D01*
G37*
G36*
X146018355Y-70723010D02*
G01*
X146060959Y-70727206D01*
X146061344Y-70727282D01*
X146096402Y-70737917D01*
X146096764Y-70738067D01*
X146129075Y-70755338D01*
X146129401Y-70755556D01*
X146133696Y-70759080D01*
X146153823Y-70772529D01*
X146176097Y-70781755D01*
X146199748Y-70786459D01*
X146223854Y-70786459D01*
X146247504Y-70781754D01*
X146269778Y-70772528D01*
X146289904Y-70759080D01*
X146294199Y-70755556D01*
X146294525Y-70755338D01*
X146326836Y-70738067D01*
X146327198Y-70737917D01*
X146362256Y-70727282D01*
X146362641Y-70727206D01*
X146405245Y-70723010D01*
X146405441Y-70723000D01*
X146461800Y-70723000D01*
X146463532Y-70724000D01*
X146463532Y-70726000D01*
X146461996Y-70726990D01*
X146413422Y-70731774D01*
X146366898Y-70745887D01*
X146324023Y-70768804D01*
X146286444Y-70799644D01*
X146255604Y-70837223D01*
X146232687Y-70880098D01*
X146218574Y-70926622D01*
X146213790Y-70975196D01*
X146212625Y-70976822D01*
X146210635Y-70976626D01*
X146209810Y-70975196D01*
X146205026Y-70926622D01*
X146190913Y-70880098D01*
X146167996Y-70837223D01*
X146137156Y-70799644D01*
X146099577Y-70768804D01*
X146056702Y-70745887D01*
X146010178Y-70731774D01*
X145961604Y-70726990D01*
X145959978Y-70725825D01*
X145960174Y-70723835D01*
X145961800Y-70723000D01*
X146018159Y-70723000D01*
X146018355Y-70723010D01*
G37*
G36*
X147018355Y-70723010D02*
G01*
X147060959Y-70727206D01*
X147061344Y-70727282D01*
X147096402Y-70737917D01*
X147096764Y-70738067D01*
X147129075Y-70755338D01*
X147129401Y-70755556D01*
X147133696Y-70759080D01*
X147153823Y-70772529D01*
X147176097Y-70781755D01*
X147199748Y-70786459D01*
X147223854Y-70786459D01*
X147247504Y-70781754D01*
X147269778Y-70772528D01*
X147289904Y-70759080D01*
X147294199Y-70755556D01*
X147294525Y-70755338D01*
X147326836Y-70738067D01*
X147327198Y-70737917D01*
X147362256Y-70727282D01*
X147362641Y-70727206D01*
X147405245Y-70723010D01*
X147405441Y-70723000D01*
X147461800Y-70723000D01*
X147463532Y-70724000D01*
X147463532Y-70726000D01*
X147461996Y-70726990D01*
X147413422Y-70731774D01*
X147366898Y-70745887D01*
X147324023Y-70768804D01*
X147286444Y-70799644D01*
X147255604Y-70837223D01*
X147232687Y-70880098D01*
X147218574Y-70926622D01*
X147213790Y-70975196D01*
X147212625Y-70976822D01*
X147210635Y-70976626D01*
X147209810Y-70975196D01*
X147205026Y-70926622D01*
X147190913Y-70880098D01*
X147167996Y-70837223D01*
X147137156Y-70799644D01*
X147099577Y-70768804D01*
X147056702Y-70745887D01*
X147010178Y-70731774D01*
X146961604Y-70726990D01*
X146959978Y-70725825D01*
X146960174Y-70723835D01*
X146961800Y-70723000D01*
X147018159Y-70723000D01*
X147018355Y-70723010D01*
G37*
G36*
X144018355Y-70723010D02*
G01*
X144060959Y-70727206D01*
X144061344Y-70727282D01*
X144096402Y-70737917D01*
X144096764Y-70738067D01*
X144129075Y-70755338D01*
X144129401Y-70755556D01*
X144133696Y-70759080D01*
X144153823Y-70772529D01*
X144176097Y-70781755D01*
X144199748Y-70786459D01*
X144223854Y-70786459D01*
X144247504Y-70781754D01*
X144269778Y-70772528D01*
X144289904Y-70759080D01*
X144294199Y-70755556D01*
X144294525Y-70755338D01*
X144326836Y-70738067D01*
X144327198Y-70737917D01*
X144362256Y-70727282D01*
X144362641Y-70727206D01*
X144405245Y-70723010D01*
X144405441Y-70723000D01*
X144461800Y-70723000D01*
X144463532Y-70724000D01*
X144463532Y-70726000D01*
X144461996Y-70726990D01*
X144413422Y-70731774D01*
X144366898Y-70745887D01*
X144324023Y-70768804D01*
X144286444Y-70799644D01*
X144255604Y-70837223D01*
X144232687Y-70880098D01*
X144218574Y-70926622D01*
X144213790Y-70975196D01*
X144212625Y-70976822D01*
X144210635Y-70976626D01*
X144209810Y-70975196D01*
X144205026Y-70926622D01*
X144190913Y-70880098D01*
X144167996Y-70837223D01*
X144137156Y-70799644D01*
X144099577Y-70768804D01*
X144056702Y-70745887D01*
X144010178Y-70731774D01*
X143961604Y-70726990D01*
X143959978Y-70725825D01*
X143960174Y-70723835D01*
X143961800Y-70723000D01*
X144018159Y-70723000D01*
X144018355Y-70723010D01*
G37*
G36*
X174964955Y-70392810D02*
G01*
X175007559Y-70397006D01*
X175007944Y-70397082D01*
X175043002Y-70407717D01*
X175043364Y-70407867D01*
X175075675Y-70425138D01*
X175076001Y-70425356D01*
X175080296Y-70428880D01*
X175100423Y-70442329D01*
X175122697Y-70451555D01*
X175146348Y-70456259D01*
X175170454Y-70456259D01*
X175194104Y-70451554D01*
X175216378Y-70442328D01*
X175236504Y-70428880D01*
X175240799Y-70425356D01*
X175241125Y-70425138D01*
X175273436Y-70407867D01*
X175273798Y-70407717D01*
X175308856Y-70397082D01*
X175309241Y-70397006D01*
X175351845Y-70392810D01*
X175352041Y-70392800D01*
X175408400Y-70392800D01*
X175410132Y-70393800D01*
X175410132Y-70395800D01*
X175408596Y-70396790D01*
X175360022Y-70401574D01*
X175313498Y-70415687D01*
X175270623Y-70438604D01*
X175233044Y-70469444D01*
X175202204Y-70507023D01*
X175179287Y-70549898D01*
X175165174Y-70596422D01*
X175160390Y-70644996D01*
X175159225Y-70646622D01*
X175157235Y-70646426D01*
X175156410Y-70644996D01*
X175151626Y-70596422D01*
X175137513Y-70549898D01*
X175114596Y-70507023D01*
X175083756Y-70469444D01*
X175046177Y-70438604D01*
X175003302Y-70415687D01*
X174956778Y-70401574D01*
X174908204Y-70396790D01*
X174906578Y-70395625D01*
X174906774Y-70393635D01*
X174908400Y-70392800D01*
X174964759Y-70392800D01*
X174964955Y-70392810D01*
G37*
G36*
X175964955Y-70392810D02*
G01*
X176007559Y-70397006D01*
X176007944Y-70397082D01*
X176043002Y-70407717D01*
X176043364Y-70407867D01*
X176075675Y-70425138D01*
X176076001Y-70425356D01*
X176080296Y-70428880D01*
X176100423Y-70442329D01*
X176122697Y-70451555D01*
X176146348Y-70456259D01*
X176170454Y-70456259D01*
X176194104Y-70451554D01*
X176216378Y-70442328D01*
X176236504Y-70428880D01*
X176240799Y-70425356D01*
X176241125Y-70425138D01*
X176273436Y-70407867D01*
X176273798Y-70407717D01*
X176308856Y-70397082D01*
X176309241Y-70397006D01*
X176351845Y-70392810D01*
X176352041Y-70392800D01*
X176408400Y-70392800D01*
X176410132Y-70393800D01*
X176410132Y-70395800D01*
X176408596Y-70396790D01*
X176360022Y-70401574D01*
X176313498Y-70415687D01*
X176270623Y-70438604D01*
X176233044Y-70469444D01*
X176202204Y-70507023D01*
X176179287Y-70549898D01*
X176165174Y-70596422D01*
X176160390Y-70644996D01*
X176159225Y-70646622D01*
X176157235Y-70646426D01*
X176156410Y-70644996D01*
X176151626Y-70596422D01*
X176137513Y-70549898D01*
X176114596Y-70507023D01*
X176083756Y-70469444D01*
X176046177Y-70438604D01*
X176003302Y-70415687D01*
X175956778Y-70401574D01*
X175908204Y-70396790D01*
X175906578Y-70395625D01*
X175906774Y-70393635D01*
X175908400Y-70392800D01*
X175964759Y-70392800D01*
X175964955Y-70392810D01*
G37*
G36*
X173964955Y-70392810D02*
G01*
X174007559Y-70397006D01*
X174007944Y-70397082D01*
X174043002Y-70407717D01*
X174043364Y-70407867D01*
X174075675Y-70425138D01*
X174076001Y-70425356D01*
X174080296Y-70428880D01*
X174100423Y-70442329D01*
X174122697Y-70451555D01*
X174146348Y-70456259D01*
X174170454Y-70456259D01*
X174194104Y-70451554D01*
X174216378Y-70442328D01*
X174236504Y-70428880D01*
X174240799Y-70425356D01*
X174241125Y-70425138D01*
X174273436Y-70407867D01*
X174273798Y-70407717D01*
X174308856Y-70397082D01*
X174309241Y-70397006D01*
X174351845Y-70392810D01*
X174352041Y-70392800D01*
X174408400Y-70392800D01*
X174410132Y-70393800D01*
X174410132Y-70395800D01*
X174408596Y-70396790D01*
X174360022Y-70401574D01*
X174313498Y-70415687D01*
X174270623Y-70438604D01*
X174233044Y-70469444D01*
X174202204Y-70507023D01*
X174179287Y-70549898D01*
X174165174Y-70596422D01*
X174160390Y-70644996D01*
X174159225Y-70646622D01*
X174157235Y-70646426D01*
X174156410Y-70644996D01*
X174151626Y-70596422D01*
X174137513Y-70549898D01*
X174114596Y-70507023D01*
X174083756Y-70469444D01*
X174046177Y-70438604D01*
X174003302Y-70415687D01*
X173956778Y-70401574D01*
X173908204Y-70396790D01*
X173906578Y-70395625D01*
X173906774Y-70393635D01*
X173908400Y-70392800D01*
X173964759Y-70392800D01*
X173964955Y-70392810D01*
G37*
G36*
X176964955Y-70392810D02*
G01*
X177007559Y-70397006D01*
X177007944Y-70397082D01*
X177043002Y-70407717D01*
X177043364Y-70407867D01*
X177075675Y-70425138D01*
X177076001Y-70425356D01*
X177080296Y-70428880D01*
X177100423Y-70442329D01*
X177122697Y-70451555D01*
X177146348Y-70456259D01*
X177170454Y-70456259D01*
X177194104Y-70451554D01*
X177216378Y-70442328D01*
X177236504Y-70428880D01*
X177240799Y-70425356D01*
X177241125Y-70425138D01*
X177273436Y-70407867D01*
X177273798Y-70407717D01*
X177308856Y-70397082D01*
X177309241Y-70397006D01*
X177351845Y-70392810D01*
X177352041Y-70392800D01*
X177408400Y-70392800D01*
X177410132Y-70393800D01*
X177410132Y-70395800D01*
X177408596Y-70396790D01*
X177360022Y-70401574D01*
X177313498Y-70415687D01*
X177270623Y-70438604D01*
X177233044Y-70469444D01*
X177202204Y-70507023D01*
X177179287Y-70549898D01*
X177165174Y-70596422D01*
X177160390Y-70644996D01*
X177159225Y-70646622D01*
X177157235Y-70646426D01*
X177156410Y-70644996D01*
X177151626Y-70596422D01*
X177137513Y-70549898D01*
X177114596Y-70507023D01*
X177083756Y-70469444D01*
X177046177Y-70438604D01*
X177003302Y-70415687D01*
X176956778Y-70401574D01*
X176908204Y-70396790D01*
X176906578Y-70395625D01*
X176906774Y-70393635D01*
X176908400Y-70392800D01*
X176964759Y-70392800D01*
X176964955Y-70392810D01*
G37*
G36*
X172964955Y-70392810D02*
G01*
X173007559Y-70397006D01*
X173007944Y-70397082D01*
X173043002Y-70407717D01*
X173043364Y-70407867D01*
X173075675Y-70425138D01*
X173076001Y-70425356D01*
X173080296Y-70428880D01*
X173100423Y-70442329D01*
X173122697Y-70451555D01*
X173146348Y-70456259D01*
X173170454Y-70456259D01*
X173194104Y-70451554D01*
X173216378Y-70442328D01*
X173236504Y-70428880D01*
X173240799Y-70425356D01*
X173241125Y-70425138D01*
X173273436Y-70407867D01*
X173273798Y-70407717D01*
X173308856Y-70397082D01*
X173309241Y-70397006D01*
X173351845Y-70392810D01*
X173352041Y-70392800D01*
X173408400Y-70392800D01*
X173410132Y-70393800D01*
X173410132Y-70395800D01*
X173408596Y-70396790D01*
X173360022Y-70401574D01*
X173313498Y-70415687D01*
X173270623Y-70438604D01*
X173233044Y-70469444D01*
X173202204Y-70507023D01*
X173179287Y-70549898D01*
X173165174Y-70596422D01*
X173160390Y-70644996D01*
X173159225Y-70646622D01*
X173157235Y-70646426D01*
X173156410Y-70644996D01*
X173151626Y-70596422D01*
X173137513Y-70549898D01*
X173114596Y-70507023D01*
X173083756Y-70469444D01*
X173046177Y-70438604D01*
X173003302Y-70415687D01*
X172956778Y-70401574D01*
X172908204Y-70396790D01*
X172906578Y-70395625D01*
X172906774Y-70393635D01*
X172908400Y-70392800D01*
X172964759Y-70392800D01*
X172964955Y-70392810D01*
G37*
G36*
X165185165Y-66232904D02*
G01*
X165186000Y-66234530D01*
X165186000Y-66306220D01*
X165185990Y-66306416D01*
X165180639Y-66360748D01*
X165180563Y-66361133D01*
X165166505Y-66407478D01*
X165166355Y-66407840D01*
X165143526Y-66450549D01*
X165143308Y-66450875D01*
X165112587Y-66488310D01*
X165112310Y-66488587D01*
X165074875Y-66519308D01*
X165074549Y-66519526D01*
X165031840Y-66542355D01*
X165031478Y-66542505D01*
X164985133Y-66556563D01*
X164984748Y-66556639D01*
X164930416Y-66561990D01*
X164930220Y-66562000D01*
X164858530Y-66562000D01*
X164856798Y-66561000D01*
X164856798Y-66559000D01*
X164858334Y-66558010D01*
X164921631Y-66551776D01*
X164982313Y-66533368D01*
X165038235Y-66503477D01*
X165087251Y-66463251D01*
X165127477Y-66414235D01*
X165157368Y-66358313D01*
X165175776Y-66297631D01*
X165182010Y-66234334D01*
X165183175Y-66232708D01*
X165185165Y-66232904D01*
G37*
G36*
X162985990Y-66234334D02*
G01*
X162992224Y-66297631D01*
X163010632Y-66358313D01*
X163040523Y-66414235D01*
X163080749Y-66463251D01*
X163129765Y-66503477D01*
X163185687Y-66533368D01*
X163246369Y-66551776D01*
X163309666Y-66558010D01*
X163311292Y-66559175D01*
X163311096Y-66561165D01*
X163309470Y-66562000D01*
X163237780Y-66562000D01*
X163237584Y-66561990D01*
X163183252Y-66556639D01*
X163182867Y-66556563D01*
X163136522Y-66542505D01*
X163136160Y-66542355D01*
X163093451Y-66519526D01*
X163093125Y-66519308D01*
X163055690Y-66488587D01*
X163055413Y-66488310D01*
X163024692Y-66450875D01*
X163024474Y-66450549D01*
X163001645Y-66407840D01*
X163001495Y-66407478D01*
X162987437Y-66361133D01*
X162987361Y-66360748D01*
X162982010Y-66306416D01*
X162982000Y-66306220D01*
X162982000Y-66234530D01*
X162983000Y-66232798D01*
X162985000Y-66232798D01*
X162985990Y-66234334D01*
G37*
G36*
X167430990Y-65904134D02*
G01*
X167437224Y-65967431D01*
X167455632Y-66028113D01*
X167485523Y-66084035D01*
X167525749Y-66133051D01*
X167574765Y-66173277D01*
X167630687Y-66203168D01*
X167691369Y-66221576D01*
X167754666Y-66227810D01*
X167756292Y-66228975D01*
X167756096Y-66230965D01*
X167754470Y-66231800D01*
X167682780Y-66231800D01*
X167682584Y-66231790D01*
X167628252Y-66226439D01*
X167627867Y-66226363D01*
X167581522Y-66212305D01*
X167581160Y-66212155D01*
X167538451Y-66189326D01*
X167538125Y-66189108D01*
X167500690Y-66158387D01*
X167500413Y-66158110D01*
X167469692Y-66120675D01*
X167469474Y-66120349D01*
X167446645Y-66077640D01*
X167446495Y-66077278D01*
X167432437Y-66030933D01*
X167432361Y-66030548D01*
X167427010Y-65976216D01*
X167427000Y-65976020D01*
X167427000Y-65904330D01*
X167428000Y-65902598D01*
X167430000Y-65902598D01*
X167430990Y-65904134D01*
G37*
G36*
X169630165Y-65902704D02*
G01*
X169631000Y-65904330D01*
X169631000Y-65976020D01*
X169630990Y-65976216D01*
X169625639Y-66030548D01*
X169625563Y-66030933D01*
X169611505Y-66077278D01*
X169611355Y-66077640D01*
X169588526Y-66120349D01*
X169588308Y-66120675D01*
X169557587Y-66158110D01*
X169557310Y-66158387D01*
X169519875Y-66189108D01*
X169519549Y-66189326D01*
X169476840Y-66212155D01*
X169476478Y-66212305D01*
X169430133Y-66226363D01*
X169429748Y-66226439D01*
X169375416Y-66231790D01*
X169375220Y-66231800D01*
X169303530Y-66231800D01*
X169301798Y-66230800D01*
X169301798Y-66228800D01*
X169303334Y-66227810D01*
X169366631Y-66221576D01*
X169427313Y-66203168D01*
X169483235Y-66173277D01*
X169532251Y-66133051D01*
X169572477Y-66084035D01*
X169602368Y-66028113D01*
X169620776Y-65967431D01*
X169627010Y-65904134D01*
X169628175Y-65902508D01*
X169630165Y-65902704D01*
G37*
G36*
X163311202Y-64834000D02*
G01*
X163311202Y-64836000D01*
X163309666Y-64836990D01*
X163246369Y-64843224D01*
X163185687Y-64861632D01*
X163129765Y-64891523D01*
X163080749Y-64931749D01*
X163040523Y-64980765D01*
X163010632Y-65036687D01*
X162992224Y-65097369D01*
X162985990Y-65160666D01*
X162984825Y-65162292D01*
X162982835Y-65162096D01*
X162982000Y-65160470D01*
X162982000Y-65088780D01*
X162982010Y-65088584D01*
X162987361Y-65034252D01*
X162987437Y-65033867D01*
X163001495Y-64987522D01*
X163001645Y-64987160D01*
X163024474Y-64944451D01*
X163024692Y-64944125D01*
X163055413Y-64906690D01*
X163055690Y-64906413D01*
X163093125Y-64875692D01*
X163093451Y-64875474D01*
X163136160Y-64852645D01*
X163136522Y-64852495D01*
X163182867Y-64838437D01*
X163183252Y-64838361D01*
X163237584Y-64833010D01*
X163237780Y-64833000D01*
X163309470Y-64833000D01*
X163311202Y-64834000D01*
G37*
G36*
X164930416Y-64833010D02*
G01*
X164984748Y-64838361D01*
X164985133Y-64838437D01*
X165031478Y-64852495D01*
X165031840Y-64852645D01*
X165074549Y-64875474D01*
X165074875Y-64875692D01*
X165112310Y-64906413D01*
X165112587Y-64906690D01*
X165143308Y-64944125D01*
X165143526Y-64944451D01*
X165166355Y-64987160D01*
X165166505Y-64987522D01*
X165180563Y-65033867D01*
X165180639Y-65034252D01*
X165185990Y-65088584D01*
X165186000Y-65088780D01*
X165186000Y-65160470D01*
X165185000Y-65162202D01*
X165183000Y-65162202D01*
X165182010Y-65160666D01*
X165175776Y-65097369D01*
X165157368Y-65036687D01*
X165127477Y-64980765D01*
X165087251Y-64931749D01*
X165038235Y-64891523D01*
X164982313Y-64861632D01*
X164921631Y-64843224D01*
X164858334Y-64836990D01*
X164856708Y-64835825D01*
X164856904Y-64833835D01*
X164858530Y-64833000D01*
X164930220Y-64833000D01*
X164930416Y-64833010D01*
G37*
G36*
X167756202Y-64503800D02*
G01*
X167756202Y-64505800D01*
X167754666Y-64506790D01*
X167691369Y-64513024D01*
X167630687Y-64531432D01*
X167574765Y-64561323D01*
X167525749Y-64601549D01*
X167485523Y-64650565D01*
X167455632Y-64706487D01*
X167437224Y-64767169D01*
X167430990Y-64830466D01*
X167429825Y-64832092D01*
X167427835Y-64831896D01*
X167427000Y-64830270D01*
X167427000Y-64758580D01*
X167427010Y-64758384D01*
X167432361Y-64704052D01*
X167432437Y-64703667D01*
X167446495Y-64657322D01*
X167446645Y-64656960D01*
X167469474Y-64614251D01*
X167469692Y-64613925D01*
X167500413Y-64576490D01*
X167500690Y-64576213D01*
X167538125Y-64545492D01*
X167538451Y-64545274D01*
X167581160Y-64522445D01*
X167581522Y-64522295D01*
X167627867Y-64508237D01*
X167628252Y-64508161D01*
X167682584Y-64502810D01*
X167682780Y-64502800D01*
X167754470Y-64502800D01*
X167756202Y-64503800D01*
G37*
G36*
X169375416Y-64502810D02*
G01*
X169429748Y-64508161D01*
X169430133Y-64508237D01*
X169476478Y-64522295D01*
X169476840Y-64522445D01*
X169519549Y-64545274D01*
X169519875Y-64545492D01*
X169557310Y-64576213D01*
X169557587Y-64576490D01*
X169588308Y-64613925D01*
X169588526Y-64614251D01*
X169611355Y-64656960D01*
X169611505Y-64657322D01*
X169625563Y-64703667D01*
X169625639Y-64704052D01*
X169630990Y-64758384D01*
X169631000Y-64758580D01*
X169631000Y-64830270D01*
X169630000Y-64832002D01*
X169628000Y-64832002D01*
X169627010Y-64830466D01*
X169620776Y-64767169D01*
X169602368Y-64706487D01*
X169572477Y-64650565D01*
X169532251Y-64601549D01*
X169483235Y-64561323D01*
X169427313Y-64531432D01*
X169366631Y-64513024D01*
X169303334Y-64506790D01*
X169301708Y-64505625D01*
X169301904Y-64503635D01*
X169303530Y-64502800D01*
X169375220Y-64502800D01*
X169375416Y-64502810D01*
G37*
G36*
X128231210Y-63391476D02*
G01*
X128231557Y-63393446D01*
X128230025Y-63394732D01*
X126805970Y-63645832D01*
X126857935Y-63940537D01*
X126857251Y-63942416D01*
X126855281Y-63942763D01*
X126854039Y-63941423D01*
X126847492Y-63918014D01*
X126836593Y-63896507D01*
X126821708Y-63877542D01*
X126803410Y-63861844D01*
X126782399Y-63850017D01*
X126759486Y-63842516D01*
X126735546Y-63839630D01*
X126711509Y-63841469D01*
X126688289Y-63847963D01*
X126666782Y-63858862D01*
X126647851Y-63873719D01*
X126626186Y-63901325D01*
X126624330Y-63902070D01*
X126622757Y-63900835D01*
X126622881Y-63899090D01*
X126901097Y-63417206D01*
X126902829Y-63416206D01*
X126904561Y-63417206D01*
X126904651Y-63419031D01*
X126894619Y-63441171D01*
X126889144Y-63464653D01*
X126888355Y-63488751D01*
X126892281Y-63512535D01*
X126900777Y-63535107D01*
X126913506Y-63555576D01*
X126929987Y-63573173D01*
X126949587Y-63587218D01*
X126971546Y-63597168D01*
X126995028Y-63602643D01*
X127019167Y-63603433D01*
X127032493Y-63601827D01*
X128229331Y-63390792D01*
X128231210Y-63391476D01*
G37*
G36*
X162985990Y-63109334D02*
G01*
X162992224Y-63172631D01*
X163010632Y-63233313D01*
X163040523Y-63289235D01*
X163080749Y-63338251D01*
X163129765Y-63378477D01*
X163185687Y-63408368D01*
X163246369Y-63426776D01*
X163309666Y-63433010D01*
X163311292Y-63434175D01*
X163311096Y-63436165D01*
X163309470Y-63437000D01*
X163237780Y-63437000D01*
X163237584Y-63436990D01*
X163183252Y-63431639D01*
X163182867Y-63431563D01*
X163136522Y-63417505D01*
X163136160Y-63417355D01*
X163093451Y-63394526D01*
X163093125Y-63394308D01*
X163055690Y-63363587D01*
X163055413Y-63363310D01*
X163024692Y-63325875D01*
X163024474Y-63325549D01*
X163001645Y-63282840D01*
X163001495Y-63282478D01*
X162987437Y-63236133D01*
X162987361Y-63235748D01*
X162982010Y-63181416D01*
X162982000Y-63181220D01*
X162982000Y-63109530D01*
X162983000Y-63107798D01*
X162985000Y-63107798D01*
X162985990Y-63109334D01*
G37*
G36*
X165185165Y-63107904D02*
G01*
X165186000Y-63109530D01*
X165186000Y-63181220D01*
X165185990Y-63181416D01*
X165180639Y-63235748D01*
X165180563Y-63236133D01*
X165166505Y-63282478D01*
X165166355Y-63282840D01*
X165143526Y-63325549D01*
X165143308Y-63325875D01*
X165112587Y-63363310D01*
X165112310Y-63363587D01*
X165074875Y-63394308D01*
X165074549Y-63394526D01*
X165031840Y-63417355D01*
X165031478Y-63417505D01*
X164985133Y-63431563D01*
X164984748Y-63431639D01*
X164930416Y-63436990D01*
X164930220Y-63437000D01*
X164858530Y-63437000D01*
X164856798Y-63436000D01*
X164856798Y-63434000D01*
X164858334Y-63433010D01*
X164921631Y-63426776D01*
X164982313Y-63408368D01*
X165038235Y-63378477D01*
X165087251Y-63338251D01*
X165127477Y-63289235D01*
X165157368Y-63233313D01*
X165175776Y-63172631D01*
X165182010Y-63109334D01*
X165183175Y-63107708D01*
X165185165Y-63107904D01*
G37*
G36*
X167430990Y-62779134D02*
G01*
X167437224Y-62842431D01*
X167455632Y-62903113D01*
X167485523Y-62959035D01*
X167525749Y-63008051D01*
X167574765Y-63048277D01*
X167630687Y-63078168D01*
X167691369Y-63096576D01*
X167754666Y-63102810D01*
X167756292Y-63103975D01*
X167756096Y-63105965D01*
X167754470Y-63106800D01*
X167682780Y-63106800D01*
X167682584Y-63106790D01*
X167628252Y-63101439D01*
X167627867Y-63101363D01*
X167581522Y-63087305D01*
X167581160Y-63087155D01*
X167538451Y-63064326D01*
X167538125Y-63064108D01*
X167500690Y-63033387D01*
X167500413Y-63033110D01*
X167469692Y-62995675D01*
X167469474Y-62995349D01*
X167446645Y-62952640D01*
X167446495Y-62952278D01*
X167432437Y-62905933D01*
X167432361Y-62905548D01*
X167427010Y-62851216D01*
X167427000Y-62851020D01*
X167427000Y-62779330D01*
X167428000Y-62777598D01*
X167430000Y-62777598D01*
X167430990Y-62779134D01*
G37*
G36*
X169630165Y-62777704D02*
G01*
X169631000Y-62779330D01*
X169631000Y-62851020D01*
X169630990Y-62851216D01*
X169625639Y-62905548D01*
X169625563Y-62905933D01*
X169611505Y-62952278D01*
X169611355Y-62952640D01*
X169588526Y-62995349D01*
X169588308Y-62995675D01*
X169557587Y-63033110D01*
X169557310Y-63033387D01*
X169519875Y-63064108D01*
X169519549Y-63064326D01*
X169476840Y-63087155D01*
X169476478Y-63087305D01*
X169430133Y-63101363D01*
X169429748Y-63101439D01*
X169375416Y-63106790D01*
X169375220Y-63106800D01*
X169303530Y-63106800D01*
X169301798Y-63105800D01*
X169301798Y-63103800D01*
X169303334Y-63102810D01*
X169366631Y-63096576D01*
X169427313Y-63078168D01*
X169483235Y-63048277D01*
X169532251Y-63008051D01*
X169572477Y-62959035D01*
X169602368Y-62903113D01*
X169620776Y-62842431D01*
X169627010Y-62779134D01*
X169628175Y-62777508D01*
X169630165Y-62777704D01*
G37*
G36*
X163311202Y-61709000D02*
G01*
X163311202Y-61711000D01*
X163309666Y-61711990D01*
X163246369Y-61718224D01*
X163185687Y-61736632D01*
X163129765Y-61766523D01*
X163080749Y-61806749D01*
X163040523Y-61855765D01*
X163010632Y-61911687D01*
X162992224Y-61972369D01*
X162985990Y-62035666D01*
X162984825Y-62037292D01*
X162982835Y-62037096D01*
X162982000Y-62035470D01*
X162982000Y-61963780D01*
X162982010Y-61963584D01*
X162987361Y-61909252D01*
X162987437Y-61908867D01*
X163001495Y-61862522D01*
X163001645Y-61862160D01*
X163024474Y-61819451D01*
X163024692Y-61819125D01*
X163055413Y-61781690D01*
X163055690Y-61781413D01*
X163093125Y-61750692D01*
X163093451Y-61750474D01*
X163136160Y-61727645D01*
X163136522Y-61727495D01*
X163182867Y-61713437D01*
X163183252Y-61713361D01*
X163237584Y-61708010D01*
X163237780Y-61708000D01*
X163309470Y-61708000D01*
X163311202Y-61709000D01*
G37*
G36*
X164930416Y-61708010D02*
G01*
X164984748Y-61713361D01*
X164985133Y-61713437D01*
X165031478Y-61727495D01*
X165031840Y-61727645D01*
X165074549Y-61750474D01*
X165074875Y-61750692D01*
X165112310Y-61781413D01*
X165112587Y-61781690D01*
X165143308Y-61819125D01*
X165143526Y-61819451D01*
X165166355Y-61862160D01*
X165166505Y-61862522D01*
X165180563Y-61908867D01*
X165180639Y-61909252D01*
X165185990Y-61963584D01*
X165186000Y-61963780D01*
X165186000Y-62035470D01*
X165185000Y-62037202D01*
X165183000Y-62037202D01*
X165182010Y-62035666D01*
X165175776Y-61972369D01*
X165157368Y-61911687D01*
X165127477Y-61855765D01*
X165087251Y-61806749D01*
X165038235Y-61766523D01*
X164982313Y-61736632D01*
X164921631Y-61718224D01*
X164858334Y-61711990D01*
X164856708Y-61710825D01*
X164856904Y-61708835D01*
X164858530Y-61708000D01*
X164930220Y-61708000D01*
X164930416Y-61708010D01*
G37*
G36*
X167756202Y-61378800D02*
G01*
X167756202Y-61380800D01*
X167754666Y-61381790D01*
X167691369Y-61388024D01*
X167630687Y-61406432D01*
X167574765Y-61436323D01*
X167525749Y-61476549D01*
X167485523Y-61525565D01*
X167455632Y-61581487D01*
X167437224Y-61642169D01*
X167430990Y-61705466D01*
X167429825Y-61707092D01*
X167427835Y-61706896D01*
X167427000Y-61705270D01*
X167427000Y-61633580D01*
X167427010Y-61633384D01*
X167432361Y-61579052D01*
X167432437Y-61578667D01*
X167446495Y-61532322D01*
X167446645Y-61531960D01*
X167469474Y-61489251D01*
X167469692Y-61488925D01*
X167500413Y-61451490D01*
X167500690Y-61451213D01*
X167538125Y-61420492D01*
X167538451Y-61420274D01*
X167581160Y-61397445D01*
X167581522Y-61397295D01*
X167627867Y-61383237D01*
X167628252Y-61383161D01*
X167682584Y-61377810D01*
X167682780Y-61377800D01*
X167754470Y-61377800D01*
X167756202Y-61378800D01*
G37*
G36*
X169375416Y-61377810D02*
G01*
X169429748Y-61383161D01*
X169430133Y-61383237D01*
X169476478Y-61397295D01*
X169476840Y-61397445D01*
X169519549Y-61420274D01*
X169519875Y-61420492D01*
X169557310Y-61451213D01*
X169557587Y-61451490D01*
X169588308Y-61488925D01*
X169588526Y-61489251D01*
X169611355Y-61531960D01*
X169611505Y-61532322D01*
X169625563Y-61578667D01*
X169625639Y-61579052D01*
X169630990Y-61633384D01*
X169631000Y-61633580D01*
X169631000Y-61705270D01*
X169630000Y-61707002D01*
X169628000Y-61707002D01*
X169627010Y-61705466D01*
X169620776Y-61642169D01*
X169602368Y-61581487D01*
X169572477Y-61525565D01*
X169532251Y-61476549D01*
X169483235Y-61436323D01*
X169427313Y-61406432D01*
X169366631Y-61388024D01*
X169303334Y-61381790D01*
X169301708Y-61380625D01*
X169301904Y-61378635D01*
X169303530Y-61377800D01*
X169375220Y-61377800D01*
X169375416Y-61377810D01*
G37*
G36*
X132802853Y-61089215D02*
G01*
X132830740Y-61156540D01*
X132923095Y-61294760D01*
X133040640Y-61412305D01*
X133178860Y-61504660D01*
X133246184Y-61532547D01*
X133247402Y-61534134D01*
X133246637Y-61535982D01*
X133244838Y-61536309D01*
X133227454Y-61531035D01*
X133203462Y-61528672D01*
X133179471Y-61531035D01*
X133156396Y-61538035D01*
X133135133Y-61549400D01*
X133116496Y-61564695D01*
X133101200Y-61583332D01*
X133089835Y-61604596D01*
X133082835Y-61627670D01*
X133080472Y-61651662D01*
X133082835Y-61675653D01*
X133088109Y-61693039D01*
X133087655Y-61694987D01*
X133085741Y-61695568D01*
X133084347Y-61694385D01*
X133056460Y-61627060D01*
X132964105Y-61488840D01*
X132846560Y-61371295D01*
X132708340Y-61278940D01*
X132641016Y-61251053D01*
X132639798Y-61249466D01*
X132640563Y-61247618D01*
X132642362Y-61247291D01*
X132659746Y-61252565D01*
X132683738Y-61254928D01*
X132707729Y-61252565D01*
X132730804Y-61245565D01*
X132752067Y-61234200D01*
X132770704Y-61218905D01*
X132786000Y-61200268D01*
X132797365Y-61179004D01*
X132804365Y-61155930D01*
X132806728Y-61131938D01*
X132804365Y-61107947D01*
X132799091Y-61090561D01*
X132799545Y-61088613D01*
X132801459Y-61088032D01*
X132802853Y-61089215D01*
G37*
G36*
X123258953Y-57245610D02*
G01*
X123316926Y-57251320D01*
X123317311Y-57251396D01*
X123367160Y-57266517D01*
X123367522Y-57266667D01*
X123413450Y-57291216D01*
X123413776Y-57291434D01*
X123454042Y-57324481D01*
X123454319Y-57324758D01*
X123487366Y-57365024D01*
X123487584Y-57365350D01*
X123512133Y-57411278D01*
X123512283Y-57411640D01*
X123529469Y-57468297D01*
X123538733Y-57490661D01*
X123552128Y-57510709D01*
X123569175Y-57527756D01*
X123589222Y-57541151D01*
X123611496Y-57550377D01*
X123635146Y-57555082D01*
X123659252Y-57555082D01*
X123682903Y-57550378D01*
X123705176Y-57541152D01*
X123725224Y-57527757D01*
X123742271Y-57510710D01*
X123755666Y-57490663D01*
X123764931Y-57468297D01*
X123782117Y-57411640D01*
X123782267Y-57411278D01*
X123806816Y-57365350D01*
X123807034Y-57365024D01*
X123840081Y-57324758D01*
X123840358Y-57324481D01*
X123880624Y-57291434D01*
X123880950Y-57291216D01*
X123926878Y-57266667D01*
X123927240Y-57266517D01*
X123977089Y-57251396D01*
X123977474Y-57251320D01*
X124035447Y-57245610D01*
X124035643Y-57245600D01*
X124100155Y-57245600D01*
X124101887Y-57246600D01*
X124101887Y-57248600D01*
X124100351Y-57249590D01*
X124034813Y-57256044D01*
X123971977Y-57275106D01*
X123914069Y-57306058D01*
X123863313Y-57347713D01*
X123821658Y-57398469D01*
X123790706Y-57456377D01*
X123771644Y-57519213D01*
X123765200Y-57584649D01*
X123765200Y-58460551D01*
X123771644Y-58525987D01*
X123790706Y-58588823D01*
X123821658Y-58646731D01*
X123863313Y-58697487D01*
X123914069Y-58739142D01*
X123971977Y-58770094D01*
X124034813Y-58789156D01*
X124100351Y-58795610D01*
X124101977Y-58796775D01*
X124101781Y-58798765D01*
X124100155Y-58799600D01*
X124035643Y-58799600D01*
X124035447Y-58799590D01*
X123977474Y-58793880D01*
X123977089Y-58793804D01*
X123927240Y-58778683D01*
X123926878Y-58778533D01*
X123880950Y-58753984D01*
X123880624Y-58753766D01*
X123840358Y-58720719D01*
X123840081Y-58720442D01*
X123807034Y-58680176D01*
X123806816Y-58679850D01*
X123782267Y-58633922D01*
X123782117Y-58633560D01*
X123764931Y-58576903D01*
X123755667Y-58554539D01*
X123742272Y-58534491D01*
X123725225Y-58517444D01*
X123705178Y-58504049D01*
X123682904Y-58494823D01*
X123659254Y-58490118D01*
X123635148Y-58490118D01*
X123611497Y-58494822D01*
X123589224Y-58504048D01*
X123569176Y-58517443D01*
X123552129Y-58534490D01*
X123538734Y-58554537D01*
X123529469Y-58576903D01*
X123512283Y-58633560D01*
X123512133Y-58633922D01*
X123487584Y-58679850D01*
X123487366Y-58680176D01*
X123454319Y-58720442D01*
X123454042Y-58720719D01*
X123413776Y-58753766D01*
X123413450Y-58753984D01*
X123367522Y-58778533D01*
X123367160Y-58778683D01*
X123317311Y-58793804D01*
X123316926Y-58793880D01*
X123258953Y-58799590D01*
X123258757Y-58799600D01*
X123194245Y-58799600D01*
X123192513Y-58798600D01*
X123192513Y-58796600D01*
X123194049Y-58795610D01*
X123259587Y-58789156D01*
X123322423Y-58770094D01*
X123380331Y-58739142D01*
X123431087Y-58697487D01*
X123472742Y-58646731D01*
X123503694Y-58588823D01*
X123522756Y-58525987D01*
X123529200Y-58460551D01*
X123529200Y-57584649D01*
X123522756Y-57519213D01*
X123503694Y-57456377D01*
X123472742Y-57398469D01*
X123431087Y-57347713D01*
X123380331Y-57306058D01*
X123322423Y-57275106D01*
X123259587Y-57256044D01*
X123194049Y-57249590D01*
X123192423Y-57248425D01*
X123192619Y-57246435D01*
X123194245Y-57245600D01*
X123258757Y-57245600D01*
X123258953Y-57245610D01*
G37*
G36*
X119701190Y-58460449D02*
G01*
X119707644Y-58525987D01*
X119726706Y-58588823D01*
X119757658Y-58646731D01*
X119799313Y-58697487D01*
X119850069Y-58739142D01*
X119907977Y-58770094D01*
X119970813Y-58789156D01*
X120036351Y-58795610D01*
X120037977Y-58796775D01*
X120037781Y-58798765D01*
X120036155Y-58799600D01*
X119971643Y-58799600D01*
X119971447Y-58799590D01*
X119913474Y-58793880D01*
X119913089Y-58793804D01*
X119863240Y-58778683D01*
X119862878Y-58778533D01*
X119816950Y-58753984D01*
X119816624Y-58753766D01*
X119776358Y-58720719D01*
X119776081Y-58720442D01*
X119743034Y-58680176D01*
X119742816Y-58679850D01*
X119718267Y-58633922D01*
X119718117Y-58633560D01*
X119702996Y-58583711D01*
X119702920Y-58583326D01*
X119697210Y-58525353D01*
X119697200Y-58525157D01*
X119697200Y-58460645D01*
X119698200Y-58458913D01*
X119700200Y-58458913D01*
X119701190Y-58460449D01*
G37*
G36*
X125564365Y-58459019D02*
G01*
X125565200Y-58460645D01*
X125565200Y-58525157D01*
X125565190Y-58525353D01*
X125559480Y-58583326D01*
X125559404Y-58583711D01*
X125544283Y-58633560D01*
X125544133Y-58633922D01*
X125519584Y-58679850D01*
X125519366Y-58680176D01*
X125486319Y-58720442D01*
X125486042Y-58720719D01*
X125445776Y-58753766D01*
X125445450Y-58753984D01*
X125399522Y-58778533D01*
X125399160Y-58778683D01*
X125349311Y-58793804D01*
X125348926Y-58793880D01*
X125290953Y-58799590D01*
X125290757Y-58799600D01*
X125226245Y-58799600D01*
X125224513Y-58798600D01*
X125224513Y-58796600D01*
X125226049Y-58795610D01*
X125291587Y-58789156D01*
X125354423Y-58770094D01*
X125412331Y-58739142D01*
X125463087Y-58697487D01*
X125504742Y-58646731D01*
X125535694Y-58588823D01*
X125554756Y-58525987D01*
X125561210Y-58460449D01*
X125562375Y-58458823D01*
X125564365Y-58459019D01*
G37*
G36*
X121226953Y-57245610D02*
G01*
X121284926Y-57251320D01*
X121285311Y-57251396D01*
X121335160Y-57266517D01*
X121335522Y-57266667D01*
X121381450Y-57291216D01*
X121381776Y-57291434D01*
X121422042Y-57324481D01*
X121422319Y-57324758D01*
X121455366Y-57365024D01*
X121455584Y-57365350D01*
X121480133Y-57411278D01*
X121480283Y-57411640D01*
X121497469Y-57468297D01*
X121506733Y-57490661D01*
X121520128Y-57510709D01*
X121537175Y-57527756D01*
X121557222Y-57541151D01*
X121579496Y-57550377D01*
X121603146Y-57555082D01*
X121627252Y-57555082D01*
X121650903Y-57550378D01*
X121673176Y-57541152D01*
X121693224Y-57527757D01*
X121710271Y-57510710D01*
X121723666Y-57490663D01*
X121732931Y-57468297D01*
X121750117Y-57411640D01*
X121750267Y-57411278D01*
X121774816Y-57365350D01*
X121775034Y-57365024D01*
X121808081Y-57324758D01*
X121808358Y-57324481D01*
X121848624Y-57291434D01*
X121848950Y-57291216D01*
X121894878Y-57266667D01*
X121895240Y-57266517D01*
X121945089Y-57251396D01*
X121945474Y-57251320D01*
X122003447Y-57245610D01*
X122003643Y-57245600D01*
X122068155Y-57245600D01*
X122069887Y-57246600D01*
X122069887Y-57248600D01*
X122068351Y-57249590D01*
X122002813Y-57256044D01*
X121939977Y-57275106D01*
X121882069Y-57306058D01*
X121831313Y-57347713D01*
X121789658Y-57398469D01*
X121758706Y-57456377D01*
X121739644Y-57519213D01*
X121733200Y-57584649D01*
X121733200Y-58460551D01*
X121739644Y-58525987D01*
X121758706Y-58588823D01*
X121789658Y-58646731D01*
X121831313Y-58697487D01*
X121882069Y-58739142D01*
X121939977Y-58770094D01*
X122002813Y-58789156D01*
X122068351Y-58795610D01*
X122069977Y-58796775D01*
X122069781Y-58798765D01*
X122068155Y-58799600D01*
X122003643Y-58799600D01*
X122003447Y-58799590D01*
X121945474Y-58793880D01*
X121945089Y-58793804D01*
X121895240Y-58778683D01*
X121894878Y-58778533D01*
X121848950Y-58753984D01*
X121848624Y-58753766D01*
X121808358Y-58720719D01*
X121808081Y-58720442D01*
X121775034Y-58680176D01*
X121774816Y-58679850D01*
X121750267Y-58633922D01*
X121750117Y-58633560D01*
X121732931Y-58576903D01*
X121723667Y-58554539D01*
X121710272Y-58534491D01*
X121693225Y-58517444D01*
X121673178Y-58504049D01*
X121650904Y-58494823D01*
X121627254Y-58490118D01*
X121603148Y-58490118D01*
X121579497Y-58494822D01*
X121557224Y-58504048D01*
X121537176Y-58517443D01*
X121520129Y-58534490D01*
X121506734Y-58554537D01*
X121497469Y-58576903D01*
X121480283Y-58633560D01*
X121480133Y-58633922D01*
X121455584Y-58679850D01*
X121455366Y-58680176D01*
X121422319Y-58720442D01*
X121422042Y-58720719D01*
X121381776Y-58753766D01*
X121381450Y-58753984D01*
X121335522Y-58778533D01*
X121335160Y-58778683D01*
X121285311Y-58793804D01*
X121284926Y-58793880D01*
X121226953Y-58799590D01*
X121226757Y-58799600D01*
X121162245Y-58799600D01*
X121160513Y-58798600D01*
X121160513Y-58796600D01*
X121162049Y-58795610D01*
X121227587Y-58789156D01*
X121290423Y-58770094D01*
X121348331Y-58739142D01*
X121399087Y-58697487D01*
X121440742Y-58646731D01*
X121471694Y-58588823D01*
X121490756Y-58525987D01*
X121497200Y-58460551D01*
X121497200Y-57584649D01*
X121490756Y-57519213D01*
X121471694Y-57456377D01*
X121440742Y-57398469D01*
X121399087Y-57347713D01*
X121348331Y-57306058D01*
X121290423Y-57275106D01*
X121227587Y-57256044D01*
X121162049Y-57249590D01*
X121160423Y-57248425D01*
X121160619Y-57246435D01*
X121162245Y-57245600D01*
X121226757Y-57245600D01*
X121226953Y-57245610D01*
G37*
G36*
X120037887Y-57246600D02*
G01*
X120037887Y-57248600D01*
X120036351Y-57249590D01*
X119970813Y-57256044D01*
X119907977Y-57275106D01*
X119850069Y-57306058D01*
X119799313Y-57347713D01*
X119757658Y-57398469D01*
X119726706Y-57456377D01*
X119707644Y-57519213D01*
X119701190Y-57584751D01*
X119700025Y-57586377D01*
X119698035Y-57586181D01*
X119697200Y-57584555D01*
X119697200Y-57520043D01*
X119697210Y-57519847D01*
X119702920Y-57461874D01*
X119702996Y-57461489D01*
X119718117Y-57411640D01*
X119718267Y-57411278D01*
X119742816Y-57365350D01*
X119743034Y-57365024D01*
X119776081Y-57324758D01*
X119776358Y-57324481D01*
X119816624Y-57291434D01*
X119816950Y-57291216D01*
X119862878Y-57266667D01*
X119863240Y-57266517D01*
X119913089Y-57251396D01*
X119913474Y-57251320D01*
X119971447Y-57245610D01*
X119971643Y-57245600D01*
X120036155Y-57245600D01*
X120037887Y-57246600D01*
G37*
G36*
X125290953Y-57245610D02*
G01*
X125348926Y-57251320D01*
X125349311Y-57251396D01*
X125399160Y-57266517D01*
X125399522Y-57266667D01*
X125445450Y-57291216D01*
X125445776Y-57291434D01*
X125486042Y-57324481D01*
X125486319Y-57324758D01*
X125519366Y-57365024D01*
X125519584Y-57365350D01*
X125544133Y-57411278D01*
X125544283Y-57411640D01*
X125559404Y-57461489D01*
X125559480Y-57461874D01*
X125565190Y-57519847D01*
X125565200Y-57520043D01*
X125565200Y-57584555D01*
X125564200Y-57586287D01*
X125562200Y-57586287D01*
X125561210Y-57584751D01*
X125554756Y-57519213D01*
X125535694Y-57456377D01*
X125504742Y-57398469D01*
X125463087Y-57347713D01*
X125412331Y-57306058D01*
X125354423Y-57275106D01*
X125291587Y-57256044D01*
X125226049Y-57249590D01*
X125224423Y-57248425D01*
X125224619Y-57246435D01*
X125226245Y-57245600D01*
X125290757Y-57245600D01*
X125290953Y-57245610D01*
G37*
G36*
X121226953Y-55195610D02*
G01*
X121284926Y-55201320D01*
X121285311Y-55201396D01*
X121335160Y-55216517D01*
X121335522Y-55216667D01*
X121381450Y-55241216D01*
X121381776Y-55241434D01*
X121422042Y-55274481D01*
X121422319Y-55274758D01*
X121455366Y-55315024D01*
X121455584Y-55315350D01*
X121480133Y-55361278D01*
X121480283Y-55361640D01*
X121497469Y-55418297D01*
X121506733Y-55440661D01*
X121520128Y-55460709D01*
X121537175Y-55477756D01*
X121557222Y-55491151D01*
X121579496Y-55500377D01*
X121603146Y-55505082D01*
X121627252Y-55505082D01*
X121650903Y-55500378D01*
X121673176Y-55491152D01*
X121693224Y-55477757D01*
X121710271Y-55460710D01*
X121723666Y-55440663D01*
X121732931Y-55418297D01*
X121750117Y-55361640D01*
X121750267Y-55361278D01*
X121774816Y-55315350D01*
X121775034Y-55315024D01*
X121808081Y-55274758D01*
X121808358Y-55274481D01*
X121848624Y-55241434D01*
X121848950Y-55241216D01*
X121894878Y-55216667D01*
X121895240Y-55216517D01*
X121945089Y-55201396D01*
X121945474Y-55201320D01*
X122003447Y-55195610D01*
X122003643Y-55195600D01*
X122068155Y-55195600D01*
X122069887Y-55196600D01*
X122069887Y-55198600D01*
X122068351Y-55199590D01*
X122002813Y-55206044D01*
X121939977Y-55225106D01*
X121882069Y-55256058D01*
X121831313Y-55297713D01*
X121789658Y-55348469D01*
X121758706Y-55406377D01*
X121739644Y-55469213D01*
X121733200Y-55534649D01*
X121733200Y-56410551D01*
X121739644Y-56475987D01*
X121758706Y-56538823D01*
X121789658Y-56596731D01*
X121831313Y-56647487D01*
X121882069Y-56689142D01*
X121939977Y-56720094D01*
X122002813Y-56739156D01*
X122068351Y-56745610D01*
X122069977Y-56746775D01*
X122069781Y-56748765D01*
X122068155Y-56749600D01*
X122003643Y-56749600D01*
X122003447Y-56749590D01*
X121945474Y-56743880D01*
X121945089Y-56743804D01*
X121895240Y-56728683D01*
X121894878Y-56728533D01*
X121848950Y-56703984D01*
X121848624Y-56703766D01*
X121808358Y-56670719D01*
X121808081Y-56670442D01*
X121775034Y-56630176D01*
X121774816Y-56629850D01*
X121750267Y-56583922D01*
X121750117Y-56583560D01*
X121732931Y-56526903D01*
X121723667Y-56504539D01*
X121710272Y-56484491D01*
X121693225Y-56467444D01*
X121673178Y-56454049D01*
X121650904Y-56444823D01*
X121627254Y-56440118D01*
X121603148Y-56440118D01*
X121579497Y-56444822D01*
X121557224Y-56454048D01*
X121537176Y-56467443D01*
X121520129Y-56484490D01*
X121506734Y-56504537D01*
X121497469Y-56526903D01*
X121480283Y-56583560D01*
X121480133Y-56583922D01*
X121455584Y-56629850D01*
X121455366Y-56630176D01*
X121422319Y-56670442D01*
X121422042Y-56670719D01*
X121381776Y-56703766D01*
X121381450Y-56703984D01*
X121335522Y-56728533D01*
X121335160Y-56728683D01*
X121285311Y-56743804D01*
X121284926Y-56743880D01*
X121226953Y-56749590D01*
X121226757Y-56749600D01*
X121162245Y-56749600D01*
X121160513Y-56748600D01*
X121160513Y-56746600D01*
X121162049Y-56745610D01*
X121227587Y-56739156D01*
X121290423Y-56720094D01*
X121348331Y-56689142D01*
X121399087Y-56647487D01*
X121440742Y-56596731D01*
X121471694Y-56538823D01*
X121490756Y-56475987D01*
X121497200Y-56410551D01*
X121497200Y-55534649D01*
X121490756Y-55469213D01*
X121471694Y-55406377D01*
X121440742Y-55348469D01*
X121399087Y-55297713D01*
X121348331Y-55256058D01*
X121290423Y-55225106D01*
X121227587Y-55206044D01*
X121162049Y-55199590D01*
X121160423Y-55198425D01*
X121160619Y-55196435D01*
X121162245Y-55195600D01*
X121226757Y-55195600D01*
X121226953Y-55195610D01*
G37*
G36*
X123258953Y-55195610D02*
G01*
X123316926Y-55201320D01*
X123317311Y-55201396D01*
X123367160Y-55216517D01*
X123367522Y-55216667D01*
X123413450Y-55241216D01*
X123413776Y-55241434D01*
X123454042Y-55274481D01*
X123454319Y-55274758D01*
X123487366Y-55315024D01*
X123487584Y-55315350D01*
X123512133Y-55361278D01*
X123512283Y-55361640D01*
X123529469Y-55418297D01*
X123538733Y-55440661D01*
X123552128Y-55460709D01*
X123569175Y-55477756D01*
X123589222Y-55491151D01*
X123611496Y-55500377D01*
X123635146Y-55505082D01*
X123659252Y-55505082D01*
X123682903Y-55500378D01*
X123705176Y-55491152D01*
X123725224Y-55477757D01*
X123742271Y-55460710D01*
X123755666Y-55440663D01*
X123764931Y-55418297D01*
X123782117Y-55361640D01*
X123782267Y-55361278D01*
X123806816Y-55315350D01*
X123807034Y-55315024D01*
X123840081Y-55274758D01*
X123840358Y-55274481D01*
X123880624Y-55241434D01*
X123880950Y-55241216D01*
X123926878Y-55216667D01*
X123927240Y-55216517D01*
X123977089Y-55201396D01*
X123977474Y-55201320D01*
X124035447Y-55195610D01*
X124035643Y-55195600D01*
X124100155Y-55195600D01*
X124101887Y-55196600D01*
X124101887Y-55198600D01*
X124100351Y-55199590D01*
X124034813Y-55206044D01*
X123971977Y-55225106D01*
X123914069Y-55256058D01*
X123863313Y-55297713D01*
X123821658Y-55348469D01*
X123790706Y-55406377D01*
X123771644Y-55469213D01*
X123765200Y-55534649D01*
X123765200Y-56410551D01*
X123771644Y-56475987D01*
X123790706Y-56538823D01*
X123821658Y-56596731D01*
X123863313Y-56647487D01*
X123914069Y-56689142D01*
X123971977Y-56720094D01*
X124034813Y-56739156D01*
X124100351Y-56745610D01*
X124101977Y-56746775D01*
X124101781Y-56748765D01*
X124100155Y-56749600D01*
X124035643Y-56749600D01*
X124035447Y-56749590D01*
X123977474Y-56743880D01*
X123977089Y-56743804D01*
X123927240Y-56728683D01*
X123926878Y-56728533D01*
X123880950Y-56703984D01*
X123880624Y-56703766D01*
X123840358Y-56670719D01*
X123840081Y-56670442D01*
X123807034Y-56630176D01*
X123806816Y-56629850D01*
X123782267Y-56583922D01*
X123782117Y-56583560D01*
X123764931Y-56526903D01*
X123755667Y-56504539D01*
X123742272Y-56484491D01*
X123725225Y-56467444D01*
X123705178Y-56454049D01*
X123682904Y-56444823D01*
X123659254Y-56440118D01*
X123635148Y-56440118D01*
X123611497Y-56444822D01*
X123589224Y-56454048D01*
X123569176Y-56467443D01*
X123552129Y-56484490D01*
X123538734Y-56504537D01*
X123529469Y-56526903D01*
X123512283Y-56583560D01*
X123512133Y-56583922D01*
X123487584Y-56629850D01*
X123487366Y-56630176D01*
X123454319Y-56670442D01*
X123454042Y-56670719D01*
X123413776Y-56703766D01*
X123413450Y-56703984D01*
X123367522Y-56728533D01*
X123367160Y-56728683D01*
X123317311Y-56743804D01*
X123316926Y-56743880D01*
X123258953Y-56749590D01*
X123258757Y-56749600D01*
X123194245Y-56749600D01*
X123192513Y-56748600D01*
X123192513Y-56746600D01*
X123194049Y-56745610D01*
X123259587Y-56739156D01*
X123322423Y-56720094D01*
X123380331Y-56689142D01*
X123431087Y-56647487D01*
X123472742Y-56596731D01*
X123503694Y-56538823D01*
X123522756Y-56475987D01*
X123529200Y-56410551D01*
X123529200Y-55534649D01*
X123522756Y-55469213D01*
X123503694Y-55406377D01*
X123472742Y-55348469D01*
X123431087Y-55297713D01*
X123380331Y-55256058D01*
X123322423Y-55225106D01*
X123259587Y-55206044D01*
X123194049Y-55199590D01*
X123192423Y-55198425D01*
X123192619Y-55196435D01*
X123194245Y-55195600D01*
X123258757Y-55195600D01*
X123258953Y-55195610D01*
G37*
G36*
X125564365Y-56409019D02*
G01*
X125565200Y-56410645D01*
X125565200Y-56475157D01*
X125565190Y-56475353D01*
X125559480Y-56533326D01*
X125559404Y-56533711D01*
X125544283Y-56583560D01*
X125544133Y-56583922D01*
X125519584Y-56629850D01*
X125519366Y-56630176D01*
X125486319Y-56670442D01*
X125486042Y-56670719D01*
X125445776Y-56703766D01*
X125445450Y-56703984D01*
X125399522Y-56728533D01*
X125399160Y-56728683D01*
X125349311Y-56743804D01*
X125348926Y-56743880D01*
X125290953Y-56749590D01*
X125290757Y-56749600D01*
X125226245Y-56749600D01*
X125224513Y-56748600D01*
X125224513Y-56746600D01*
X125226049Y-56745610D01*
X125291587Y-56739156D01*
X125354423Y-56720094D01*
X125412331Y-56689142D01*
X125463087Y-56647487D01*
X125504742Y-56596731D01*
X125535694Y-56538823D01*
X125554756Y-56475987D01*
X125561210Y-56410449D01*
X125562375Y-56408823D01*
X125564365Y-56409019D01*
G37*
G36*
X119701190Y-56410449D02*
G01*
X119707644Y-56475987D01*
X119726706Y-56538823D01*
X119757658Y-56596731D01*
X119799313Y-56647487D01*
X119850069Y-56689142D01*
X119907977Y-56720094D01*
X119970813Y-56739156D01*
X120036351Y-56745610D01*
X120037977Y-56746775D01*
X120037781Y-56748765D01*
X120036155Y-56749600D01*
X119971643Y-56749600D01*
X119971447Y-56749590D01*
X119913474Y-56743880D01*
X119913089Y-56743804D01*
X119863240Y-56728683D01*
X119862878Y-56728533D01*
X119816950Y-56703984D01*
X119816624Y-56703766D01*
X119776358Y-56670719D01*
X119776081Y-56670442D01*
X119743034Y-56630176D01*
X119742816Y-56629850D01*
X119718267Y-56583922D01*
X119718117Y-56583560D01*
X119702996Y-56533711D01*
X119702920Y-56533326D01*
X119697210Y-56475353D01*
X119697200Y-56475157D01*
X119697200Y-56410645D01*
X119698200Y-56408913D01*
X119700200Y-56408913D01*
X119701190Y-56410449D01*
G37*
G36*
X120037887Y-55196600D02*
G01*
X120037887Y-55198600D01*
X120036351Y-55199590D01*
X119970813Y-55206044D01*
X119907977Y-55225106D01*
X119850069Y-55256058D01*
X119799313Y-55297713D01*
X119757658Y-55348469D01*
X119726706Y-55406377D01*
X119707644Y-55469213D01*
X119701190Y-55534751D01*
X119700025Y-55536377D01*
X119698035Y-55536181D01*
X119697200Y-55534555D01*
X119697200Y-55470043D01*
X119697210Y-55469847D01*
X119702920Y-55411874D01*
X119702996Y-55411489D01*
X119718117Y-55361640D01*
X119718267Y-55361278D01*
X119742816Y-55315350D01*
X119743034Y-55315024D01*
X119776081Y-55274758D01*
X119776358Y-55274481D01*
X119816624Y-55241434D01*
X119816950Y-55241216D01*
X119862878Y-55216667D01*
X119863240Y-55216517D01*
X119913089Y-55201396D01*
X119913474Y-55201320D01*
X119971447Y-55195610D01*
X119971643Y-55195600D01*
X120036155Y-55195600D01*
X120037887Y-55196600D01*
G37*
G36*
X125290953Y-55195610D02*
G01*
X125348926Y-55201320D01*
X125349311Y-55201396D01*
X125399160Y-55216517D01*
X125399522Y-55216667D01*
X125445450Y-55241216D01*
X125445776Y-55241434D01*
X125486042Y-55274481D01*
X125486319Y-55274758D01*
X125519366Y-55315024D01*
X125519584Y-55315350D01*
X125544133Y-55361278D01*
X125544283Y-55361640D01*
X125559404Y-55411489D01*
X125559480Y-55411874D01*
X125565190Y-55469847D01*
X125565200Y-55470043D01*
X125565200Y-55534555D01*
X125564200Y-55536287D01*
X125562200Y-55536287D01*
X125561210Y-55534751D01*
X125554756Y-55469213D01*
X125535694Y-55406377D01*
X125504742Y-55348469D01*
X125463087Y-55297713D01*
X125412331Y-55256058D01*
X125354423Y-55225106D01*
X125291587Y-55206044D01*
X125226049Y-55199590D01*
X125224423Y-55198425D01*
X125224619Y-55196435D01*
X125226245Y-55195600D01*
X125290757Y-55195600D01*
X125290953Y-55195610D01*
G37*
M02*
