G04 #@! TF.GenerationSoftware,KiCad,Pcbnew,(5.1.12-1-10_14)*
G04 #@! TF.CreationDate,2023-02-02T16:13:30-08:00*
G04 #@! TF.ProjectId,mouse_v2_PAIN,6d6f7573-655f-4763-925f-5041494e2e6b,rev?*
G04 #@! TF.SameCoordinates,Original*
G04 #@! TF.FileFunction,Legend,Top*
G04 #@! TF.FilePolarity,Positive*
%FSLAX46Y46*%
G04 Gerber Fmt 4.6, Leading zero omitted, Abs format (unit mm)*
G04 Created by KiCad (PCBNEW (5.1.12-1-10_14)) date 2023-02-02 16:13:30*
%MOMM*%
%LPD*%
G01*
G04 APERTURE LIST*
%ADD10C,0.100000*%
%ADD11C,0.150000*%
%ADD12C,0.120000*%
%ADD13O,2.100000X2.100000*%
%ADD14C,2.600000*%
%ADD15C,2.400000*%
%ADD16C,2.000000*%
%ADD17O,1.400000X1.400000*%
%ADD18C,1.700000*%
%ADD19C,3.400000*%
%ADD20O,2.000000X2.000000*%
%ADD21C,2.584400*%
%ADD22C,2.200000*%
%ADD23O,1.750000X1.750000*%
%ADD24C,1.924000*%
%ADD25C,2.100000*%
G04 APERTURE END LIST*
D10*
X201882400Y-105384561D02*
X201863352Y-105422657D01*
X201863352Y-105479800D01*
X201882400Y-105536942D01*
X201920495Y-105575038D01*
X201958590Y-105594085D01*
X202034780Y-105613133D01*
X202091923Y-105613133D01*
X202168114Y-105594085D01*
X202206209Y-105575038D01*
X202244304Y-105536942D01*
X202263352Y-105479800D01*
X202263352Y-105441704D01*
X202244304Y-105384561D01*
X202225257Y-105365514D01*
X202091923Y-105365514D01*
X202091923Y-105441704D01*
X202263352Y-105194085D02*
X201863352Y-105194085D01*
X202263352Y-104965514D01*
X201863352Y-104965514D01*
X202263352Y-104775038D02*
X201863352Y-104775038D01*
X201863352Y-104679800D01*
X201882400Y-104622657D01*
X201920495Y-104584561D01*
X201958590Y-104565514D01*
X202034780Y-104546466D01*
X202091923Y-104546466D01*
X202168114Y-104565514D01*
X202206209Y-104584561D01*
X202244304Y-104622657D01*
X202263352Y-104679800D01*
X202263352Y-104775038D01*
X201863352Y-115544561D02*
X201863352Y-115315990D01*
X202263352Y-115430276D02*
X201863352Y-115430276D01*
X201863352Y-115220752D02*
X202263352Y-114954085D01*
X201863352Y-114954085D02*
X202263352Y-115220752D01*
X202212552Y-112741066D02*
X202022076Y-112874400D01*
X202212552Y-112969638D02*
X201812552Y-112969638D01*
X201812552Y-112817257D01*
X201831600Y-112779161D01*
X201850647Y-112760114D01*
X201888742Y-112741066D01*
X201945885Y-112741066D01*
X201983980Y-112760114D01*
X202003028Y-112779161D01*
X202022076Y-112817257D01*
X202022076Y-112969638D01*
X201812552Y-112607733D02*
X202212552Y-112341066D01*
X201812552Y-112341066D02*
X202212552Y-112607733D01*
X198548857Y-103057304D02*
X198606000Y-103076352D01*
X198701238Y-103076352D01*
X198739333Y-103057304D01*
X198758380Y-103038257D01*
X198777428Y-103000161D01*
X198777428Y-102962066D01*
X198758380Y-102923971D01*
X198739333Y-102904923D01*
X198701238Y-102885876D01*
X198625047Y-102866828D01*
X198586952Y-102847780D01*
X198567904Y-102828733D01*
X198548857Y-102790638D01*
X198548857Y-102752542D01*
X198567904Y-102714447D01*
X198586952Y-102695400D01*
X198625047Y-102676352D01*
X198720285Y-102676352D01*
X198777428Y-102695400D01*
X199101238Y-103057304D02*
X199063142Y-103076352D01*
X198986952Y-103076352D01*
X198948857Y-103057304D01*
X198929809Y-103019209D01*
X198929809Y-102866828D01*
X198948857Y-102828733D01*
X198986952Y-102809685D01*
X199063142Y-102809685D01*
X199101238Y-102828733D01*
X199120285Y-102866828D01*
X199120285Y-102904923D01*
X198929809Y-102943019D01*
X199291714Y-103076352D02*
X199291714Y-102809685D01*
X199291714Y-102885876D02*
X199310761Y-102847780D01*
X199329809Y-102828733D01*
X199367904Y-102809685D01*
X199406000Y-102809685D01*
X199539333Y-103076352D02*
X199539333Y-102809685D01*
X199539333Y-102676352D02*
X199520285Y-102695400D01*
X199539333Y-102714447D01*
X199558380Y-102695400D01*
X199539333Y-102676352D01*
X199539333Y-102714447D01*
X199901238Y-103076352D02*
X199901238Y-102866828D01*
X199882190Y-102828733D01*
X199844095Y-102809685D01*
X199767904Y-102809685D01*
X199729809Y-102828733D01*
X199901238Y-103057304D02*
X199863142Y-103076352D01*
X199767904Y-103076352D01*
X199729809Y-103057304D01*
X199710761Y-103019209D01*
X199710761Y-102981114D01*
X199729809Y-102943019D01*
X199767904Y-102923971D01*
X199863142Y-102923971D01*
X199901238Y-102904923D01*
X200148857Y-103076352D02*
X200110761Y-103057304D01*
X200091714Y-103019209D01*
X200091714Y-102676352D01*
X200606000Y-103076352D02*
X200606000Y-102676352D01*
X200701238Y-102676352D01*
X200758380Y-102695400D01*
X200796476Y-102733495D01*
X200815523Y-102771590D01*
X200834571Y-102847780D01*
X200834571Y-102904923D01*
X200815523Y-102981114D01*
X200796476Y-103019209D01*
X200758380Y-103057304D01*
X200701238Y-103076352D01*
X200606000Y-103076352D01*
X201158380Y-103057304D02*
X201120285Y-103076352D01*
X201044095Y-103076352D01*
X201006000Y-103057304D01*
X200986952Y-103019209D01*
X200986952Y-102866828D01*
X201006000Y-102828733D01*
X201044095Y-102809685D01*
X201120285Y-102809685D01*
X201158380Y-102828733D01*
X201177428Y-102866828D01*
X201177428Y-102904923D01*
X200986952Y-102943019D01*
X201348857Y-103076352D02*
X201348857Y-102676352D01*
X201348857Y-102828733D02*
X201386952Y-102809685D01*
X201463142Y-102809685D01*
X201501238Y-102828733D01*
X201520285Y-102847780D01*
X201539333Y-102885876D01*
X201539333Y-103000161D01*
X201520285Y-103038257D01*
X201501238Y-103057304D01*
X201463142Y-103076352D01*
X201386952Y-103076352D01*
X201348857Y-103057304D01*
X201882190Y-102809685D02*
X201882190Y-103076352D01*
X201710761Y-102809685D02*
X201710761Y-103019209D01*
X201729809Y-103057304D01*
X201767904Y-103076352D01*
X201825047Y-103076352D01*
X201863142Y-103057304D01*
X201882190Y-103038257D01*
X202244095Y-102809685D02*
X202244095Y-103133495D01*
X202225047Y-103171590D01*
X202206000Y-103190638D01*
X202167904Y-103209685D01*
X202110761Y-103209685D01*
X202072666Y-103190638D01*
X202244095Y-103057304D02*
X202206000Y-103076352D01*
X202129809Y-103076352D01*
X202091714Y-103057304D01*
X202072666Y-103038257D01*
X202053619Y-103000161D01*
X202053619Y-102885876D01*
X202072666Y-102847780D01*
X202091714Y-102828733D01*
X202129809Y-102809685D01*
X202206000Y-102809685D01*
X202244095Y-102828733D01*
X196002361Y-103076352D02*
X196002361Y-102676352D01*
X196002361Y-102866828D02*
X196230933Y-102866828D01*
X196230933Y-103076352D02*
X196230933Y-102676352D01*
X196649980Y-103038257D02*
X196630933Y-103057304D01*
X196573790Y-103076352D01*
X196535695Y-103076352D01*
X196478552Y-103057304D01*
X196440457Y-103019209D01*
X196421409Y-102981114D01*
X196402361Y-102904923D01*
X196402361Y-102847780D01*
X196421409Y-102771590D01*
X196440457Y-102733495D01*
X196478552Y-102695400D01*
X196535695Y-102676352D01*
X196573790Y-102676352D01*
X196630933Y-102695400D01*
X196649980Y-102714447D01*
X196897600Y-102676352D02*
X196935695Y-102676352D01*
X196973790Y-102695400D01*
X196992838Y-102714447D01*
X197011885Y-102752542D01*
X197030933Y-102828733D01*
X197030933Y-102923971D01*
X197011885Y-103000161D01*
X196992838Y-103038257D01*
X196973790Y-103057304D01*
X196935695Y-103076352D01*
X196897600Y-103076352D01*
X196859504Y-103057304D01*
X196840457Y-103038257D01*
X196821409Y-103000161D01*
X196802361Y-102923971D01*
X196802361Y-102828733D01*
X196821409Y-102752542D01*
X196840457Y-102714447D01*
X196859504Y-102695400D01*
X196897600Y-102676352D01*
X197392838Y-102676352D02*
X197202361Y-102676352D01*
X197183314Y-102866828D01*
X197202361Y-102847780D01*
X197240457Y-102828733D01*
X197335695Y-102828733D01*
X197373790Y-102847780D01*
X197392838Y-102866828D01*
X197411885Y-102904923D01*
X197411885Y-103000161D01*
X197392838Y-103038257D01*
X197373790Y-103057304D01*
X197335695Y-103076352D01*
X197240457Y-103076352D01*
X197202361Y-103057304D01*
X197183314Y-103038257D01*
X194878352Y-114884161D02*
X194878352Y-114655590D01*
X195278352Y-114769876D02*
X194878352Y-114769876D01*
X194878352Y-114560352D02*
X195278352Y-114293685D01*
X194878352Y-114293685D02*
X195278352Y-114560352D01*
X195303752Y-112766466D02*
X195113276Y-112899800D01*
X195303752Y-112995038D02*
X194903752Y-112995038D01*
X194903752Y-112842657D01*
X194922800Y-112804561D01*
X194941847Y-112785514D01*
X194979942Y-112766466D01*
X195037085Y-112766466D01*
X195075180Y-112785514D01*
X195094228Y-112804561D01*
X195113276Y-112842657D01*
X195113276Y-112995038D01*
X194903752Y-112633133D02*
X195303752Y-112366466D01*
X194903752Y-112366466D02*
X195303752Y-112633133D01*
X194948200Y-110464561D02*
X194929152Y-110502657D01*
X194929152Y-110559800D01*
X194948200Y-110616942D01*
X194986295Y-110655038D01*
X195024390Y-110674085D01*
X195100580Y-110693133D01*
X195157723Y-110693133D01*
X195233914Y-110674085D01*
X195272009Y-110655038D01*
X195310104Y-110616942D01*
X195329152Y-110559800D01*
X195329152Y-110521704D01*
X195310104Y-110464561D01*
X195291057Y-110445514D01*
X195157723Y-110445514D01*
X195157723Y-110521704D01*
X195329152Y-110274085D02*
X194929152Y-110274085D01*
X195329152Y-110045514D01*
X194929152Y-110045514D01*
X195329152Y-109855038D02*
X194929152Y-109855038D01*
X194929152Y-109759800D01*
X194948200Y-109702657D01*
X194986295Y-109664561D01*
X195024390Y-109645514D01*
X195100580Y-109626466D01*
X195157723Y-109626466D01*
X195233914Y-109645514D01*
X195272009Y-109664561D01*
X195310104Y-109702657D01*
X195329152Y-109759800D01*
X195329152Y-109855038D01*
X195005352Y-107568990D02*
X195005352Y-107759466D01*
X195195828Y-107778514D01*
X195176780Y-107759466D01*
X195157733Y-107721371D01*
X195157733Y-107626133D01*
X195176780Y-107588038D01*
X195195828Y-107568990D01*
X195233923Y-107549942D01*
X195329161Y-107549942D01*
X195367257Y-107568990D01*
X195386304Y-107588038D01*
X195405352Y-107626133D01*
X195405352Y-107721371D01*
X195386304Y-107759466D01*
X195367257Y-107778514D01*
X195005352Y-107435657D02*
X195405352Y-107302323D01*
X195005352Y-107168990D01*
D11*
X118719647Y-56078428D02*
X119481552Y-56078428D01*
X119100600Y-56459380D02*
X119100600Y-55697476D01*
X162026647Y-62580828D02*
X162788552Y-62580828D01*
X162407600Y-62961780D02*
X162407600Y-62199876D01*
D10*
X129484885Y-116874485D02*
X129234885Y-116517342D01*
X129056314Y-116874485D02*
X129056314Y-116124485D01*
X129342028Y-116124485D01*
X129413457Y-116160200D01*
X129449171Y-116195914D01*
X129484885Y-116267342D01*
X129484885Y-116374485D01*
X129449171Y-116445914D01*
X129413457Y-116481628D01*
X129342028Y-116517342D01*
X129056314Y-116517342D01*
X129770600Y-116838771D02*
X129877742Y-116874485D01*
X130056314Y-116874485D01*
X130127742Y-116838771D01*
X130163457Y-116803057D01*
X130199171Y-116731628D01*
X130199171Y-116660200D01*
X130163457Y-116588771D01*
X130127742Y-116553057D01*
X130056314Y-116517342D01*
X129913457Y-116481628D01*
X129842028Y-116445914D01*
X129806314Y-116410200D01*
X129770600Y-116338771D01*
X129770600Y-116267342D01*
X129806314Y-116195914D01*
X129842028Y-116160200D01*
X129913457Y-116124485D01*
X130092028Y-116124485D01*
X130199171Y-116160200D01*
X130413457Y-116124485D02*
X130842028Y-116124485D01*
X130627742Y-116874485D02*
X130627742Y-116124485D01*
X128967171Y-111885771D02*
X129074314Y-111921485D01*
X129252885Y-111921485D01*
X129324314Y-111885771D01*
X129360028Y-111850057D01*
X129395742Y-111778628D01*
X129395742Y-111707200D01*
X129360028Y-111635771D01*
X129324314Y-111600057D01*
X129252885Y-111564342D01*
X129110028Y-111528628D01*
X129038600Y-111492914D01*
X129002885Y-111457200D01*
X128967171Y-111385771D01*
X128967171Y-111314342D01*
X129002885Y-111242914D01*
X129038600Y-111207200D01*
X129110028Y-111171485D01*
X129288600Y-111171485D01*
X129395742Y-111207200D01*
X129645742Y-111171485D02*
X129824314Y-111921485D01*
X129967171Y-111385771D01*
X130110028Y-111921485D01*
X130288600Y-111171485D01*
X130574314Y-111921485D02*
X130574314Y-111171485D01*
X130752885Y-111171485D01*
X130860028Y-111207200D01*
X130931457Y-111278628D01*
X130967171Y-111350057D01*
X131002885Y-111492914D01*
X131002885Y-111600057D01*
X130967171Y-111742914D01*
X130931457Y-111814342D01*
X130860028Y-111885771D01*
X130752885Y-111921485D01*
X130574314Y-111921485D01*
X131752885Y-111850057D02*
X131717171Y-111885771D01*
X131610028Y-111921485D01*
X131538600Y-111921485D01*
X131431457Y-111885771D01*
X131360028Y-111814342D01*
X131324314Y-111742914D01*
X131288600Y-111600057D01*
X131288600Y-111492914D01*
X131324314Y-111350057D01*
X131360028Y-111278628D01*
X131431457Y-111207200D01*
X131538600Y-111171485D01*
X131610028Y-111171485D01*
X131717171Y-111207200D01*
X131752885Y-111242914D01*
X132431457Y-111921485D02*
X132074314Y-111921485D01*
X132074314Y-111171485D01*
X132681457Y-111921485D02*
X132681457Y-111171485D01*
X133110028Y-111921485D02*
X132788600Y-111492914D01*
X133110028Y-111171485D02*
X132681457Y-111600057D01*
X129501971Y-113721800D02*
X129430542Y-113686085D01*
X129323400Y-113686085D01*
X129216257Y-113721800D01*
X129144828Y-113793228D01*
X129109114Y-113864657D01*
X129073400Y-114007514D01*
X129073400Y-114114657D01*
X129109114Y-114257514D01*
X129144828Y-114328942D01*
X129216257Y-114400371D01*
X129323400Y-114436085D01*
X129394828Y-114436085D01*
X129501971Y-114400371D01*
X129537685Y-114364657D01*
X129537685Y-114114657D01*
X129394828Y-114114657D01*
X129859114Y-114436085D02*
X129859114Y-113686085D01*
X130287685Y-114436085D01*
X130287685Y-113686085D01*
X130644828Y-114436085D02*
X130644828Y-113686085D01*
X130823400Y-113686085D01*
X130930542Y-113721800D01*
X131001971Y-113793228D01*
X131037685Y-113864657D01*
X131073400Y-114007514D01*
X131073400Y-114114657D01*
X131037685Y-114257514D01*
X131001971Y-114328942D01*
X130930542Y-114400371D01*
X130823400Y-114436085D01*
X130644828Y-114436085D01*
X129017514Y-109269571D02*
X129124657Y-109305285D01*
X129303228Y-109305285D01*
X129374657Y-109269571D01*
X129410371Y-109233857D01*
X129446085Y-109162428D01*
X129446085Y-109091000D01*
X129410371Y-109019571D01*
X129374657Y-108983857D01*
X129303228Y-108948142D01*
X129160371Y-108912428D01*
X129088942Y-108876714D01*
X129053228Y-108841000D01*
X129017514Y-108769571D01*
X129017514Y-108698142D01*
X129053228Y-108626714D01*
X129088942Y-108591000D01*
X129160371Y-108555285D01*
X129338942Y-108555285D01*
X129446085Y-108591000D01*
X129696085Y-108555285D02*
X129874657Y-109305285D01*
X130017514Y-108769571D01*
X130160371Y-109305285D01*
X130338942Y-108555285D01*
X130624657Y-109305285D02*
X130624657Y-108555285D01*
X130803228Y-108555285D01*
X130910371Y-108591000D01*
X130981800Y-108662428D01*
X131017514Y-108733857D01*
X131053228Y-108876714D01*
X131053228Y-108983857D01*
X131017514Y-109126714D01*
X130981800Y-109198142D01*
X130910371Y-109269571D01*
X130803228Y-109305285D01*
X130624657Y-109305285D01*
X131374657Y-109305285D02*
X131374657Y-108555285D01*
X131874657Y-108555285D02*
X132017514Y-108555285D01*
X132088942Y-108591000D01*
X132160371Y-108662428D01*
X132196085Y-108805285D01*
X132196085Y-109055285D01*
X132160371Y-109198142D01*
X132088942Y-109269571D01*
X132017514Y-109305285D01*
X131874657Y-109305285D01*
X131803228Y-109269571D01*
X131731800Y-109198142D01*
X131696085Y-109055285D01*
X131696085Y-108805285D01*
X131731800Y-108662428D01*
X131803228Y-108591000D01*
X131874657Y-108555285D01*
X129195628Y-106040685D02*
X129659914Y-106040685D01*
X129409914Y-106326400D01*
X129517057Y-106326400D01*
X129588485Y-106362114D01*
X129624200Y-106397828D01*
X129659914Y-106469257D01*
X129659914Y-106647828D01*
X129624200Y-106719257D01*
X129588485Y-106754971D01*
X129517057Y-106790685D01*
X129302771Y-106790685D01*
X129231342Y-106754971D01*
X129195628Y-106719257D01*
X129874200Y-106040685D02*
X130124200Y-106790685D01*
X130374200Y-106040685D01*
X130552771Y-106040685D02*
X131017057Y-106040685D01*
X130767057Y-106326400D01*
X130874200Y-106326400D01*
X130945628Y-106362114D01*
X130981342Y-106397828D01*
X131017057Y-106469257D01*
X131017057Y-106647828D01*
X130981342Y-106719257D01*
X130945628Y-106754971D01*
X130874200Y-106790685D01*
X130659914Y-106790685D01*
X130588485Y-106754971D01*
X130552771Y-106719257D01*
X135364914Y-121243285D02*
X135364914Y-120493285D01*
X135364914Y-121207571D02*
X135293485Y-121243285D01*
X135150628Y-121243285D01*
X135079200Y-121207571D01*
X135043485Y-121171857D01*
X135007771Y-121100428D01*
X135007771Y-120886142D01*
X135043485Y-120814714D01*
X135079200Y-120779000D01*
X135150628Y-120743285D01*
X135293485Y-120743285D01*
X135364914Y-120779000D01*
X133383714Y-124019885D02*
X133383714Y-124627028D01*
X133348000Y-124698457D01*
X133312285Y-124734171D01*
X133240857Y-124769885D01*
X133133714Y-124769885D01*
X133062285Y-124734171D01*
X133383714Y-124484171D02*
X133312285Y-124519885D01*
X133169428Y-124519885D01*
X133098000Y-124484171D01*
X133062285Y-124448457D01*
X133026571Y-124377028D01*
X133026571Y-124162742D01*
X133062285Y-124091314D01*
X133098000Y-124055600D01*
X133169428Y-124019885D01*
X133312285Y-124019885D01*
X133383714Y-124055600D01*
X135068885Y-124458771D02*
X135140314Y-124494485D01*
X135283171Y-124494485D01*
X135354600Y-124458771D01*
X135390314Y-124387342D01*
X135390314Y-124351628D01*
X135354600Y-124280200D01*
X135283171Y-124244485D01*
X135176028Y-124244485D01*
X135104600Y-124208771D01*
X135068885Y-124137342D01*
X135068885Y-124101628D01*
X135104600Y-124030200D01*
X135176028Y-123994485D01*
X135283171Y-123994485D01*
X135354600Y-124030200D01*
X128608514Y-121243285D02*
X128608514Y-120493285D01*
X128608514Y-121207571D02*
X128537085Y-121243285D01*
X128394228Y-121243285D01*
X128322800Y-121207571D01*
X128287085Y-121171857D01*
X128251371Y-121100428D01*
X128251371Y-120886142D01*
X128287085Y-120814714D01*
X128322800Y-120779000D01*
X128394228Y-120743285D01*
X128537085Y-120743285D01*
X128608514Y-120779000D01*
X130776285Y-121080571D02*
X130847714Y-121116285D01*
X130990571Y-121116285D01*
X131062000Y-121080571D01*
X131097714Y-121009142D01*
X131097714Y-120973428D01*
X131062000Y-120902000D01*
X130990571Y-120866285D01*
X130883428Y-120866285D01*
X130812000Y-120830571D01*
X130776285Y-120759142D01*
X130776285Y-120723428D01*
X130812000Y-120652000D01*
X130883428Y-120616285D01*
X130990571Y-120616285D01*
X131062000Y-120652000D01*
X128760914Y-123486485D02*
X128760914Y-124093628D01*
X128725200Y-124165057D01*
X128689485Y-124200771D01*
X128618057Y-124236485D01*
X128510914Y-124236485D01*
X128439485Y-124200771D01*
X128760914Y-123950771D02*
X128689485Y-123986485D01*
X128546628Y-123986485D01*
X128475200Y-123950771D01*
X128439485Y-123915057D01*
X128403771Y-123843628D01*
X128403771Y-123629342D01*
X128439485Y-123557914D01*
X128475200Y-123522200D01*
X128546628Y-123486485D01*
X128689485Y-123486485D01*
X128760914Y-123522200D01*
X193294047Y-130055928D02*
X194055952Y-130055928D01*
X125984047Y-129992428D02*
X126745952Y-129992428D01*
X126365000Y-130373380D02*
X126365000Y-129611476D01*
X130111547Y-129992428D02*
X130873452Y-129992428D01*
X189357047Y-129992428D02*
X190118952Y-129992428D01*
X189738000Y-130373380D02*
X189738000Y-129611476D01*
X194754547Y-124213928D02*
X195516452Y-124213928D01*
X198755047Y-124213928D02*
X199516952Y-124213928D01*
X199136000Y-124594880D02*
X199136000Y-123832976D01*
X155849095Y-146121943D02*
X156189056Y-146803798D01*
X155678148Y-146632851D02*
X156360003Y-146292891D01*
X153880595Y-142692943D02*
X154220556Y-143374798D01*
X171724943Y-144263798D02*
X172064904Y-143581943D01*
X172235851Y-144092851D02*
X171553996Y-143752891D01*
X163914443Y-146740298D02*
X164254404Y-146058443D01*
X173439443Y-140771298D02*
X173779404Y-140089443D01*
X165501943Y-143311298D02*
X165841904Y-142629443D01*
X166012851Y-143140351D02*
X165330996Y-142800391D01*
X148102095Y-143518443D02*
X148442056Y-144200298D01*
X146451095Y-140025943D02*
X146791056Y-140707798D01*
X146280148Y-140536851D02*
X146962003Y-140196891D01*
X120586547Y-124213928D02*
X121348452Y-124213928D01*
X124650547Y-124213928D02*
X125412452Y-124213928D01*
X125031500Y-124594880D02*
X125031500Y-123832976D01*
D12*
X184302400Y-71992800D02*
X184302400Y-69332800D01*
X184302400Y-71992800D02*
X186902400Y-71992800D01*
X186902400Y-71992800D02*
X186902400Y-69332800D01*
X184302400Y-69332800D02*
X186902400Y-69332800D01*
X181702400Y-69332800D02*
X183032400Y-69332800D01*
X181702400Y-70662800D02*
X181702400Y-69332800D01*
X201812200Y-119135200D02*
X200482200Y-119135200D01*
X201812200Y-117805200D02*
X201812200Y-119135200D01*
X201812200Y-116535200D02*
X199152200Y-116535200D01*
X199152200Y-116535200D02*
X199152200Y-103775200D01*
X201812200Y-116535200D02*
X201812200Y-103775200D01*
X201812200Y-103775200D02*
X199152200Y-103775200D01*
X130551532Y-65277463D02*
G75*
G03*
X130551532Y-65277463I-6100001J0D01*
G01*
X130684600Y-65258664D02*
G75*
G03*
X130684600Y-65258664I-6230000J0D01*
G01*
X126355562Y-58966101D02*
G75*
G02*
X128953638Y-60466101I-1900962J-6292563D01*
G01*
X193984641Y-64028400D02*
X193984641Y-63398400D01*
X194299641Y-63713400D02*
X193669641Y-63713400D01*
X187558400Y-62276400D02*
X187558400Y-61472400D01*
X187598400Y-62507400D02*
X187598400Y-61241400D01*
X187638400Y-62676400D02*
X187638400Y-61072400D01*
X187678400Y-62814400D02*
X187678400Y-60934400D01*
X187718400Y-62933400D02*
X187718400Y-60815400D01*
X187758400Y-63039400D02*
X187758400Y-60709400D01*
X187798400Y-63136400D02*
X187798400Y-60612400D01*
X187838400Y-63224400D02*
X187838400Y-60524400D01*
X187878400Y-63306400D02*
X187878400Y-60442400D01*
X187918400Y-63383400D02*
X187918400Y-60365400D01*
X187958400Y-63455400D02*
X187958400Y-60293400D01*
X187998400Y-63524400D02*
X187998400Y-60224400D01*
X188038400Y-63588400D02*
X188038400Y-60160400D01*
X188078400Y-63650400D02*
X188078400Y-60098400D01*
X188118400Y-63708400D02*
X188118400Y-60040400D01*
X188158400Y-63764400D02*
X188158400Y-59984400D01*
X188198400Y-63818400D02*
X188198400Y-59930400D01*
X188238400Y-63869400D02*
X188238400Y-59879400D01*
X188278400Y-63918400D02*
X188278400Y-59830400D01*
X188318400Y-63966400D02*
X188318400Y-59782400D01*
X188358400Y-64011400D02*
X188358400Y-59737400D01*
X188398400Y-64056400D02*
X188398400Y-59692400D01*
X188438400Y-64098400D02*
X188438400Y-59650400D01*
X188478400Y-64139400D02*
X188478400Y-59609400D01*
X188518400Y-60834400D02*
X188518400Y-59569400D01*
X188518400Y-64179400D02*
X188518400Y-62914400D01*
X188558400Y-60834400D02*
X188558400Y-59531400D01*
X188558400Y-64217400D02*
X188558400Y-62914400D01*
X188598400Y-60834400D02*
X188598400Y-59494400D01*
X188598400Y-64254400D02*
X188598400Y-62914400D01*
X188638400Y-60834400D02*
X188638400Y-59458400D01*
X188638400Y-64290400D02*
X188638400Y-62914400D01*
X188678400Y-60834400D02*
X188678400Y-59424400D01*
X188678400Y-64324400D02*
X188678400Y-62914400D01*
X188718400Y-60834400D02*
X188718400Y-59390400D01*
X188718400Y-64358400D02*
X188718400Y-62914400D01*
X188758400Y-60834400D02*
X188758400Y-59358400D01*
X188758400Y-64390400D02*
X188758400Y-62914400D01*
X188798400Y-60834400D02*
X188798400Y-59326400D01*
X188798400Y-64422400D02*
X188798400Y-62914400D01*
X188838400Y-60834400D02*
X188838400Y-59296400D01*
X188838400Y-64452400D02*
X188838400Y-62914400D01*
X188878400Y-60834400D02*
X188878400Y-59267400D01*
X188878400Y-64481400D02*
X188878400Y-62914400D01*
X188918400Y-60834400D02*
X188918400Y-59238400D01*
X188918400Y-64510400D02*
X188918400Y-62914400D01*
X188958400Y-60834400D02*
X188958400Y-59210400D01*
X188958400Y-64538400D02*
X188958400Y-62914400D01*
X188998400Y-60834400D02*
X188998400Y-59184400D01*
X188998400Y-64564400D02*
X188998400Y-62914400D01*
X189038400Y-60834400D02*
X189038400Y-59158400D01*
X189038400Y-64590400D02*
X189038400Y-62914400D01*
X189078400Y-60834400D02*
X189078400Y-59132400D01*
X189078400Y-64616400D02*
X189078400Y-62914400D01*
X189118400Y-60834400D02*
X189118400Y-59108400D01*
X189118400Y-64640400D02*
X189118400Y-62914400D01*
X189158400Y-60834400D02*
X189158400Y-59084400D01*
X189158400Y-64664400D02*
X189158400Y-62914400D01*
X189198400Y-60834400D02*
X189198400Y-59062400D01*
X189198400Y-64686400D02*
X189198400Y-62914400D01*
X189238400Y-60834400D02*
X189238400Y-59040400D01*
X189238400Y-64708400D02*
X189238400Y-62914400D01*
X189278400Y-60834400D02*
X189278400Y-59018400D01*
X189278400Y-64730400D02*
X189278400Y-62914400D01*
X189318400Y-60834400D02*
X189318400Y-58998400D01*
X189318400Y-64750400D02*
X189318400Y-62914400D01*
X189358400Y-60834400D02*
X189358400Y-58978400D01*
X189358400Y-64770400D02*
X189358400Y-62914400D01*
X189398400Y-60834400D02*
X189398400Y-58958400D01*
X189398400Y-64790400D02*
X189398400Y-62914400D01*
X189438400Y-60834400D02*
X189438400Y-58940400D01*
X189438400Y-64808400D02*
X189438400Y-62914400D01*
X189478400Y-60834400D02*
X189478400Y-58922400D01*
X189478400Y-64826400D02*
X189478400Y-62914400D01*
X189518400Y-60834400D02*
X189518400Y-58904400D01*
X189518400Y-64844400D02*
X189518400Y-62914400D01*
X189558400Y-60834400D02*
X189558400Y-58888400D01*
X189558400Y-64860400D02*
X189558400Y-62914400D01*
X189598400Y-60834400D02*
X189598400Y-58872400D01*
X189598400Y-64876400D02*
X189598400Y-62914400D01*
X189638400Y-60834400D02*
X189638400Y-58856400D01*
X189638400Y-64892400D02*
X189638400Y-62914400D01*
X189678400Y-60834400D02*
X189678400Y-58841400D01*
X189678400Y-64907400D02*
X189678400Y-62914400D01*
X189718400Y-60834400D02*
X189718400Y-58827400D01*
X189718400Y-64921400D02*
X189718400Y-62914400D01*
X189758400Y-60834400D02*
X189758400Y-58813400D01*
X189758400Y-64935400D02*
X189758400Y-62914400D01*
X189798400Y-60834400D02*
X189798400Y-58800400D01*
X189798400Y-64948400D02*
X189798400Y-62914400D01*
X189838400Y-60834400D02*
X189838400Y-58788400D01*
X189838400Y-64960400D02*
X189838400Y-62914400D01*
X189878400Y-60834400D02*
X189878400Y-58776400D01*
X189878400Y-64972400D02*
X189878400Y-62914400D01*
X189918400Y-60834400D02*
X189918400Y-58764400D01*
X189918400Y-64984400D02*
X189918400Y-62914400D01*
X189958400Y-60834400D02*
X189958400Y-58753400D01*
X189958400Y-64995400D02*
X189958400Y-62914400D01*
X189998400Y-60834400D02*
X189998400Y-58743400D01*
X189998400Y-65005400D02*
X189998400Y-62914400D01*
X190038400Y-60834400D02*
X190038400Y-58733400D01*
X190038400Y-65015400D02*
X190038400Y-62914400D01*
X190078400Y-60834400D02*
X190078400Y-58724400D01*
X190078400Y-65024400D02*
X190078400Y-62914400D01*
X190119400Y-60834400D02*
X190119400Y-58715400D01*
X190119400Y-65033400D02*
X190119400Y-62914400D01*
X190159400Y-60834400D02*
X190159400Y-58707400D01*
X190159400Y-65041400D02*
X190159400Y-62914400D01*
X190199400Y-60834400D02*
X190199400Y-58699400D01*
X190199400Y-65049400D02*
X190199400Y-62914400D01*
X190239400Y-60834400D02*
X190239400Y-58692400D01*
X190239400Y-65056400D02*
X190239400Y-62914400D01*
X190279400Y-60834400D02*
X190279400Y-58685400D01*
X190279400Y-65063400D02*
X190279400Y-62914400D01*
X190319400Y-60834400D02*
X190319400Y-58679400D01*
X190319400Y-65069400D02*
X190319400Y-62914400D01*
X190359400Y-60834400D02*
X190359400Y-58673400D01*
X190359400Y-65075400D02*
X190359400Y-62914400D01*
X190399400Y-60834400D02*
X190399400Y-58668400D01*
X190399400Y-65080400D02*
X190399400Y-62914400D01*
X190439400Y-60834400D02*
X190439400Y-58663400D01*
X190439400Y-65085400D02*
X190439400Y-62914400D01*
X190479400Y-60834400D02*
X190479400Y-58659400D01*
X190479400Y-65089400D02*
X190479400Y-62914400D01*
X190519400Y-60834400D02*
X190519400Y-58656400D01*
X190519400Y-65092400D02*
X190519400Y-62914400D01*
X190559400Y-60834400D02*
X190559400Y-58652400D01*
X190559400Y-65096400D02*
X190559400Y-62914400D01*
X190599400Y-65098400D02*
X190599400Y-58650400D01*
X190639400Y-65101400D02*
X190639400Y-58647400D01*
X190679400Y-65102400D02*
X190679400Y-58646400D01*
X190719400Y-65104400D02*
X190719400Y-58644400D01*
X190759400Y-65104400D02*
X190759400Y-58644400D01*
X190799400Y-65104400D02*
X190799400Y-58644400D01*
X194069400Y-61874400D02*
G75*
G03*
X194069400Y-61874400I-3270000J0D01*
G01*
X193237067Y-115568000D02*
X192944533Y-115568000D01*
X193237067Y-116588000D02*
X192944533Y-116588000D01*
X193211667Y-111609600D02*
X192919133Y-111609600D01*
X193211667Y-110589600D02*
X192919133Y-110589600D01*
X125623200Y-58857600D02*
X125623200Y-55997600D01*
X123703200Y-58857600D02*
X125623200Y-58857600D01*
X123703200Y-55997600D02*
X123703200Y-58857600D01*
X121559200Y-58857600D02*
X121559200Y-55997600D01*
X119639200Y-58857600D02*
X121559200Y-58857600D01*
X119639200Y-55997600D02*
X119639200Y-58857600D01*
X121671200Y-55997600D02*
X121671200Y-58857600D01*
X121671200Y-58857600D02*
X123591200Y-58857600D01*
X123591200Y-58857600D02*
X123591200Y-55997600D01*
X192810676Y-112177300D02*
X193320124Y-112177300D01*
X192810676Y-113222300D02*
X193320124Y-113222300D01*
X193345524Y-113980700D02*
X192836076Y-113980700D01*
X193345524Y-115025700D02*
X192836076Y-115025700D01*
X122211800Y-114806000D02*
X121081800Y-114806000D01*
X122211800Y-114046000D02*
X122211800Y-114806000D01*
X119504270Y-114741000D02*
X118681800Y-114741000D01*
X120321800Y-114741000D02*
X120119330Y-114741000D01*
X120321800Y-114609471D02*
X120321800Y-114741000D01*
X120321800Y-113339471D02*
X120321800Y-113482529D01*
X120518329Y-113286000D02*
X120375271Y-113286000D01*
X122211800Y-113286000D02*
X121645271Y-113286000D01*
X118681800Y-114741000D02*
X118681800Y-108271000D01*
X122211800Y-113286000D02*
X122211800Y-108271000D01*
X120774270Y-108271000D02*
X120119330Y-108271000D01*
X119504270Y-108271000D02*
X118681800Y-108271000D01*
X122211800Y-108271000D02*
X121389330Y-108271000D01*
X125924000Y-105045200D02*
X127254000Y-105045200D01*
X125924000Y-106375200D02*
X125924000Y-105045200D01*
X125924000Y-107645200D02*
X128584000Y-107645200D01*
X128584000Y-107645200D02*
X128584000Y-117865200D01*
X125924000Y-107645200D02*
X125924000Y-117865200D01*
X125924000Y-117865200D02*
X128584000Y-117865200D01*
X192477800Y-120476400D02*
X188877800Y-120476400D01*
X192516278Y-120487922D02*
G75*
G02*
X190677800Y-124926400I-1838478J-1838478D01*
G01*
X188839322Y-120487922D02*
G75*
G03*
X190677800Y-124926400I1838478J-1838478D01*
G01*
X167281000Y-132541400D02*
X163681000Y-132541400D01*
X163642522Y-132552922D02*
G75*
G03*
X165481000Y-136991400I1838478J-1838478D01*
G01*
X167319478Y-132552922D02*
G75*
G02*
X165481000Y-136991400I-1838478J-1838478D01*
G01*
X131492400Y-120273200D02*
X127892400Y-120273200D01*
X131530878Y-120284722D02*
G75*
G02*
X129692400Y-124723200I-1838478J-1838478D01*
G01*
X127853922Y-120284722D02*
G75*
G03*
X129692400Y-124723200I1838478J-1838478D01*
G01*
X156562200Y-132541400D02*
X152962200Y-132541400D01*
X152923722Y-132552922D02*
G75*
G03*
X154762200Y-136991400I1838478J-1838478D01*
G01*
X156600678Y-132552922D02*
G75*
G02*
X154762200Y-136991400I-1838478J-1838478D01*
G01*
X135428600Y-63826800D02*
X135428600Y-60226800D01*
X135417078Y-63865278D02*
G75*
G02*
X130978600Y-62026800I-1838478J1838478D01*
G01*
X135417078Y-60188322D02*
G75*
G03*
X130978600Y-62026800I-1838478J-1838478D01*
G01*
X188870000Y-131994264D02*
X188870000Y-130540136D01*
X187050000Y-131994264D02*
X187050000Y-130540136D01*
X173782400Y-134248536D02*
X173782400Y-135702664D01*
X171962400Y-134248536D02*
X171962400Y-135702664D01*
X133574200Y-129174864D02*
X133574200Y-127720736D01*
X131754200Y-129174864D02*
X131754200Y-127720736D01*
X151354200Y-133994536D02*
X151354200Y-135448664D01*
X149534200Y-133994536D02*
X149534200Y-135448664D01*
X201498200Y-69723000D02*
X201498200Y-63119000D01*
X198196200Y-69723000D02*
X201498200Y-69723000D01*
X194894200Y-69723000D02*
X198196200Y-69723000D01*
X194894200Y-56515000D02*
X194894200Y-69723000D01*
X201498200Y-56515000D02*
X194894200Y-56515000D01*
X201498200Y-63119000D02*
X201498200Y-56515000D01*
X191405200Y-55235800D02*
X191405200Y-57895800D01*
X191465200Y-55235800D02*
X191405200Y-55235800D01*
X191465200Y-57895800D02*
X191405200Y-57895800D01*
X191465200Y-55235800D02*
X191465200Y-57895800D01*
X192735200Y-55235800D02*
X194065200Y-55235800D01*
X194065200Y-55235800D02*
X194065200Y-56565800D01*
X138058200Y-139633000D02*
X136728200Y-139633000D01*
X138058200Y-138303000D02*
X138058200Y-139633000D01*
X138058200Y-137033000D02*
X135398200Y-137033000D01*
X135398200Y-137033000D02*
X135398200Y-136973000D01*
X138058200Y-137033000D02*
X138058200Y-136973000D01*
X138058200Y-136973000D02*
X135398200Y-136973000D01*
X135982400Y-61739000D02*
X135982400Y-63389000D01*
X156422400Y-61739000D02*
X135982400Y-61739000D01*
X156422400Y-67039000D02*
X156422400Y-61739000D01*
X135982400Y-67039000D02*
X156422400Y-67039000D01*
X135982400Y-65389000D02*
X135982400Y-67039000D01*
X135982400Y-63389000D02*
G75*
G02*
X135982400Y-65389000I0J-1000000D01*
G01*
D11*
X128004000Y-94876000D02*
X139504000Y-94876000D01*
X128004000Y-79876000D02*
X139504000Y-79876000D01*
X139504000Y-87376000D02*
X139504000Y-79876000D01*
X139504000Y-87376000D02*
X139504000Y-94876000D01*
X128004000Y-100676000D02*
X136504000Y-100676000D01*
X128004000Y-74076000D02*
X136504000Y-74076000D01*
X128004000Y-87376000D02*
X128004000Y-74076000D01*
X128004000Y-87376000D02*
X128004000Y-100676000D01*
X136504000Y-81376000D02*
X136504000Y-74076000D01*
X136504000Y-93376000D02*
X136504000Y-100676000D01*
X113004000Y-73376000D02*
X113004000Y-101376000D01*
X126804000Y-101376000D02*
X113004000Y-101376000D01*
X126804000Y-73376000D02*
X113004000Y-73376000D01*
X126804000Y-87376000D02*
X126804000Y-101376000D01*
X126804000Y-87376000D02*
X126804000Y-73376000D01*
X118004000Y-85876000D02*
X118004000Y-88876000D01*
X128004000Y-88876000D02*
X118004000Y-88876000D01*
X128004000Y-85876000D02*
X118004000Y-85876000D01*
X128004000Y-93376000D02*
X128004000Y-88876000D01*
X128004000Y-81376000D02*
X128004000Y-85876000D01*
X159004000Y-93376000D02*
X128004000Y-93376000D01*
X159004000Y-81376000D02*
X128004000Y-81376000D01*
X159004000Y-87376000D02*
X159004000Y-81376000D01*
X159004000Y-87376000D02*
X159004000Y-93376000D01*
X161036000Y-87376000D02*
X161036000Y-81376000D01*
X161036000Y-87376000D02*
X161036000Y-93376000D01*
X161036000Y-93376000D02*
X192036000Y-93376000D01*
X161036000Y-81376000D02*
X192036000Y-81376000D01*
X192036000Y-93376000D02*
X192036000Y-88876000D01*
X192036000Y-81376000D02*
X192036000Y-85876000D01*
X192036000Y-88876000D02*
X202036000Y-88876000D01*
X192036000Y-85876000D02*
X202036000Y-85876000D01*
X202036000Y-88876000D02*
X202036000Y-85876000D01*
X193236000Y-87376000D02*
X193236000Y-101376000D01*
X193236000Y-87376000D02*
X193236000Y-73376000D01*
X193236000Y-101376000D02*
X207036000Y-101376000D01*
X193236000Y-73376000D02*
X207036000Y-73376000D01*
X207036000Y-101376000D02*
X207036000Y-73376000D01*
X183536000Y-81376000D02*
X183536000Y-74076000D01*
X183536000Y-93376000D02*
X183536000Y-100676000D01*
X192036000Y-87376000D02*
X192036000Y-74076000D01*
X192036000Y-87376000D02*
X192036000Y-100676000D01*
X192036000Y-100676000D02*
X183536000Y-100676000D01*
X192036000Y-74076000D02*
X183536000Y-74076000D01*
X180536000Y-87376000D02*
X180536000Y-79876000D01*
X180536000Y-87376000D02*
X180536000Y-94876000D01*
X192036000Y-94876000D02*
X180536000Y-94876000D01*
X192036000Y-79876000D02*
X180536000Y-79876000D01*
D12*
X168097200Y-70104000D02*
X161493200Y-70104000D01*
X168097200Y-73406000D02*
X168097200Y-70104000D01*
X168097200Y-76708000D02*
X168097200Y-73406000D01*
X154889200Y-76708000D02*
X168097200Y-76708000D01*
X154889200Y-70104000D02*
X154889200Y-76708000D01*
X161493200Y-70104000D02*
X154889200Y-70104000D01*
X198475600Y-122238000D02*
X198475600Y-122238000D01*
X198475600Y-124908000D02*
X198475600Y-122238000D01*
X198475600Y-124908000D02*
X198475600Y-124908000D01*
X198475600Y-122238000D02*
X198475600Y-124908000D01*
X195935600Y-122238000D02*
X195935600Y-122238000D01*
X195935600Y-124908000D02*
X195935600Y-122238000D01*
X195935600Y-124908000D02*
X195935600Y-124908000D01*
X195935600Y-122238000D02*
X195935600Y-124908000D01*
X198765600Y-124908000D02*
X199165600Y-124908000D01*
X198765600Y-126028000D02*
X198765600Y-124908000D01*
X199165600Y-126028000D02*
X198765600Y-126028000D01*
X199165600Y-124908000D02*
X199165600Y-126028000D01*
X195645600Y-124908000D02*
X198765600Y-124908000D01*
X198765600Y-124908000D02*
X198765600Y-128768000D01*
X195645600Y-124908000D02*
X195645600Y-128768000D01*
X198765600Y-128768000D02*
G75*
G02*
X195645600Y-128768000I-1560000J0D01*
G01*
X165126206Y-146509573D02*
X168580653Y-148231896D01*
X166518344Y-143717378D02*
X169972790Y-145439701D01*
X165126206Y-146509573D02*
X166518344Y-143717378D01*
X166696823Y-143359404D02*
X167699149Y-143859145D01*
X167699149Y-143859145D02*
X167520670Y-144217119D01*
X167520670Y-144217119D02*
X166518344Y-143717378D01*
X166518344Y-143717378D02*
X166696823Y-143359404D01*
X162866129Y-145058694D02*
X165255604Y-146250042D01*
X165255604Y-146250042D02*
X165255604Y-146250042D01*
X165255604Y-146250042D02*
X162866129Y-145058694D01*
X162866129Y-145058694D02*
X162866129Y-145058694D01*
X163999472Y-142785560D02*
X166388946Y-143976909D01*
X166388946Y-143976909D02*
X166388946Y-143976909D01*
X166388946Y-143976909D02*
X163999472Y-142785560D01*
X163999472Y-142785560D02*
X163999472Y-142785560D01*
X169972791Y-145439702D02*
G75*
G02*
X168580653Y-148231896I-696069J-1396097D01*
G01*
X121388700Y-124781000D02*
X121388700Y-128641000D01*
X124508700Y-124781000D02*
X124508700Y-128641000D01*
X121388700Y-124781000D02*
X124508700Y-124781000D01*
X124908700Y-124781000D02*
X124908700Y-125901000D01*
X124908700Y-125901000D02*
X124508700Y-125901000D01*
X124508700Y-125901000D02*
X124508700Y-124781000D01*
X124508700Y-124781000D02*
X124908700Y-124781000D01*
X121678700Y-122111000D02*
X121678700Y-124781000D01*
X121678700Y-124781000D02*
X121678700Y-124781000D01*
X121678700Y-124781000D02*
X121678700Y-122111000D01*
X121678700Y-122111000D02*
X121678700Y-122111000D01*
X124218700Y-122111000D02*
X124218700Y-124781000D01*
X124218700Y-124781000D02*
X124218700Y-124781000D01*
X124218700Y-124781000D02*
X124218700Y-122111000D01*
X124218700Y-122111000D02*
X124218700Y-122111000D01*
X124508700Y-128641000D02*
G75*
G02*
X121388700Y-128641000I-1560000J0D01*
G01*
X157250071Y-145058694D02*
X157250071Y-145058694D01*
X154860597Y-146250042D02*
X157250071Y-145058694D01*
X154860597Y-146250042D02*
X154860597Y-146250042D01*
X157250071Y-145058694D02*
X154860597Y-146250042D01*
X156116729Y-142785561D02*
X156116729Y-142785561D01*
X153727254Y-143976909D02*
X156116729Y-142785561D01*
X153727254Y-143976909D02*
X153727254Y-143976909D01*
X156116729Y-142785561D02*
X153727254Y-143976909D01*
X154989994Y-146509573D02*
X155168473Y-146867547D01*
X153987667Y-147009315D02*
X154989994Y-146509573D01*
X154166147Y-147367288D02*
X153987667Y-147009315D01*
X155168473Y-146867547D02*
X154166147Y-147367288D01*
X153597857Y-143717378D02*
X154989994Y-146509573D01*
X154989994Y-146509573D02*
X151535547Y-148231897D01*
X153597857Y-143717378D02*
X150143410Y-145439701D01*
X151535548Y-148231897D02*
G75*
G02*
X150143410Y-145439701I-696069J1396098D01*
G01*
X192989200Y-128130800D02*
X192989200Y-128130800D01*
X192989200Y-130800800D02*
X192989200Y-128130800D01*
X192989200Y-130800800D02*
X192989200Y-130800800D01*
X192989200Y-128130800D02*
X192989200Y-130800800D01*
X190449200Y-128130800D02*
X190449200Y-128130800D01*
X190449200Y-130800800D02*
X190449200Y-128130800D01*
X190449200Y-130800800D02*
X190449200Y-130800800D01*
X190449200Y-128130800D02*
X190449200Y-130800800D01*
X193279200Y-130800800D02*
X193679200Y-130800800D01*
X193279200Y-131920800D02*
X193279200Y-130800800D01*
X193679200Y-131920800D02*
X193279200Y-131920800D01*
X193679200Y-130800800D02*
X193679200Y-131920800D01*
X190159200Y-130800800D02*
X193279200Y-130800800D01*
X193279200Y-130800800D02*
X193279200Y-134660800D01*
X190159200Y-130800800D02*
X190159200Y-134660800D01*
X193279200Y-134660800D02*
G75*
G02*
X190159200Y-134660800I-1560000J0D01*
G01*
X172949406Y-143944173D02*
X176403853Y-145666496D01*
X174341544Y-141151978D02*
X177795990Y-142874301D01*
X172949406Y-143944173D02*
X174341544Y-141151978D01*
X174520023Y-140794004D02*
X175522349Y-141293745D01*
X175522349Y-141293745D02*
X175343870Y-141651719D01*
X175343870Y-141651719D02*
X174341544Y-141151978D01*
X174341544Y-141151978D02*
X174520023Y-140794004D01*
X170689329Y-142493294D02*
X173078804Y-143684642D01*
X173078804Y-143684642D02*
X173078804Y-143684642D01*
X173078804Y-143684642D02*
X170689329Y-142493294D01*
X170689329Y-142493294D02*
X170689329Y-142493294D01*
X171822672Y-140220160D02*
X174212146Y-141411509D01*
X174212146Y-141411509D02*
X174212146Y-141411509D01*
X174212146Y-141411509D02*
X171822672Y-140220160D01*
X171822672Y-140220160D02*
X171822672Y-140220160D01*
X177795991Y-142874302D02*
G75*
G02*
X176403853Y-145666496I-696069J-1396097D01*
G01*
X130098800Y-128003800D02*
X130098800Y-128003800D01*
X130098800Y-130673800D02*
X130098800Y-128003800D01*
X130098800Y-130673800D02*
X130098800Y-130673800D01*
X130098800Y-128003800D02*
X130098800Y-130673800D01*
X127558800Y-128003800D02*
X127558800Y-128003800D01*
X127558800Y-130673800D02*
X127558800Y-128003800D01*
X127558800Y-130673800D02*
X127558800Y-130673800D01*
X127558800Y-128003800D02*
X127558800Y-130673800D01*
X130388800Y-130673800D02*
X130788800Y-130673800D01*
X130388800Y-131793800D02*
X130388800Y-130673800D01*
X130788800Y-131793800D02*
X130388800Y-131793800D01*
X130788800Y-130673800D02*
X130788800Y-131793800D01*
X127268800Y-130673800D02*
X130388800Y-130673800D01*
X130388800Y-130673800D02*
X130388800Y-134533800D01*
X127268800Y-130673800D02*
X127268800Y-134533800D01*
X130388800Y-134533800D02*
G75*
G02*
X127268800Y-134533800I-1560000J0D01*
G01*
X145800057Y-141151978D02*
X142345610Y-142874301D01*
X147192194Y-143944173D02*
X143737747Y-145666497D01*
X145800057Y-141151978D02*
X147192194Y-143944173D01*
X147370673Y-144302147D02*
X146368347Y-144801888D01*
X146368347Y-144801888D02*
X146189867Y-144443915D01*
X146189867Y-144443915D02*
X147192194Y-143944173D01*
X147192194Y-143944173D02*
X147370673Y-144302147D01*
X148318929Y-140220161D02*
X145929454Y-141411509D01*
X145929454Y-141411509D02*
X145929454Y-141411509D01*
X145929454Y-141411509D02*
X148318929Y-140220161D01*
X148318929Y-140220161D02*
X148318929Y-140220161D01*
X149452271Y-142493294D02*
X147062797Y-143684642D01*
X147062797Y-143684642D02*
X147062797Y-143684642D01*
X147062797Y-143684642D02*
X149452271Y-142493294D01*
X149452271Y-142493294D02*
X149452271Y-142493294D01*
X143737748Y-145666497D02*
G75*
G02*
X142345610Y-142874301I-696069J1396098D01*
G01*
X164994000Y-63423748D02*
X164994000Y-64846252D01*
X163174000Y-63423748D02*
X163174000Y-64846252D01*
X169360600Y-58287600D02*
G75*
G03*
X169360600Y-58287600I-3270000J0D01*
G01*
X162860600Y-58287600D02*
X169320600Y-58287600D01*
X162860600Y-58247600D02*
X169320600Y-58247600D01*
X162860600Y-58207600D02*
X169320600Y-58207600D01*
X162862600Y-58167600D02*
X169318600Y-58167600D01*
X162863600Y-58127600D02*
X169317600Y-58127600D01*
X162866600Y-58087600D02*
X169314600Y-58087600D01*
X162868600Y-58047600D02*
X165050600Y-58047600D01*
X167130600Y-58047600D02*
X169312600Y-58047600D01*
X162872600Y-58007600D02*
X165050600Y-58007600D01*
X167130600Y-58007600D02*
X169308600Y-58007600D01*
X162875600Y-57967600D02*
X165050600Y-57967600D01*
X167130600Y-57967600D02*
X169305600Y-57967600D01*
X162879600Y-57927600D02*
X165050600Y-57927600D01*
X167130600Y-57927600D02*
X169301600Y-57927600D01*
X162884600Y-57887600D02*
X165050600Y-57887600D01*
X167130600Y-57887600D02*
X169296600Y-57887600D01*
X162889600Y-57847600D02*
X165050600Y-57847600D01*
X167130600Y-57847600D02*
X169291600Y-57847600D01*
X162895600Y-57807600D02*
X165050600Y-57807600D01*
X167130600Y-57807600D02*
X169285600Y-57807600D01*
X162901600Y-57767600D02*
X165050600Y-57767600D01*
X167130600Y-57767600D02*
X169279600Y-57767600D01*
X162908600Y-57727600D02*
X165050600Y-57727600D01*
X167130600Y-57727600D02*
X169272600Y-57727600D01*
X162915600Y-57687600D02*
X165050600Y-57687600D01*
X167130600Y-57687600D02*
X169265600Y-57687600D01*
X162923600Y-57647600D02*
X165050600Y-57647600D01*
X167130600Y-57647600D02*
X169257600Y-57647600D01*
X162931600Y-57607600D02*
X165050600Y-57607600D01*
X167130600Y-57607600D02*
X169249600Y-57607600D01*
X162940600Y-57566600D02*
X165050600Y-57566600D01*
X167130600Y-57566600D02*
X169240600Y-57566600D01*
X162949600Y-57526600D02*
X165050600Y-57526600D01*
X167130600Y-57526600D02*
X169231600Y-57526600D01*
X162959600Y-57486600D02*
X165050600Y-57486600D01*
X167130600Y-57486600D02*
X169221600Y-57486600D01*
X162969600Y-57446600D02*
X165050600Y-57446600D01*
X167130600Y-57446600D02*
X169211600Y-57446600D01*
X162980600Y-57406600D02*
X165050600Y-57406600D01*
X167130600Y-57406600D02*
X169200600Y-57406600D01*
X162992600Y-57366600D02*
X165050600Y-57366600D01*
X167130600Y-57366600D02*
X169188600Y-57366600D01*
X163004600Y-57326600D02*
X165050600Y-57326600D01*
X167130600Y-57326600D02*
X169176600Y-57326600D01*
X163016600Y-57286600D02*
X165050600Y-57286600D01*
X167130600Y-57286600D02*
X169164600Y-57286600D01*
X163029600Y-57246600D02*
X165050600Y-57246600D01*
X167130600Y-57246600D02*
X169151600Y-57246600D01*
X163043600Y-57206600D02*
X165050600Y-57206600D01*
X167130600Y-57206600D02*
X169137600Y-57206600D01*
X163057600Y-57166600D02*
X165050600Y-57166600D01*
X167130600Y-57166600D02*
X169123600Y-57166600D01*
X163072600Y-57126600D02*
X165050600Y-57126600D01*
X167130600Y-57126600D02*
X169108600Y-57126600D01*
X163088600Y-57086600D02*
X165050600Y-57086600D01*
X167130600Y-57086600D02*
X169092600Y-57086600D01*
X163104600Y-57046600D02*
X165050600Y-57046600D01*
X167130600Y-57046600D02*
X169076600Y-57046600D01*
X163120600Y-57006600D02*
X165050600Y-57006600D01*
X167130600Y-57006600D02*
X169060600Y-57006600D01*
X163138600Y-56966600D02*
X165050600Y-56966600D01*
X167130600Y-56966600D02*
X169042600Y-56966600D01*
X163156600Y-56926600D02*
X165050600Y-56926600D01*
X167130600Y-56926600D02*
X169024600Y-56926600D01*
X163174600Y-56886600D02*
X165050600Y-56886600D01*
X167130600Y-56886600D02*
X169006600Y-56886600D01*
X163194600Y-56846600D02*
X165050600Y-56846600D01*
X167130600Y-56846600D02*
X168986600Y-56846600D01*
X163214600Y-56806600D02*
X165050600Y-56806600D01*
X167130600Y-56806600D02*
X168966600Y-56806600D01*
X163234600Y-56766600D02*
X165050600Y-56766600D01*
X167130600Y-56766600D02*
X168946600Y-56766600D01*
X163256600Y-56726600D02*
X165050600Y-56726600D01*
X167130600Y-56726600D02*
X168924600Y-56726600D01*
X163278600Y-56686600D02*
X165050600Y-56686600D01*
X167130600Y-56686600D02*
X168902600Y-56686600D01*
X163300600Y-56646600D02*
X165050600Y-56646600D01*
X167130600Y-56646600D02*
X168880600Y-56646600D01*
X163324600Y-56606600D02*
X165050600Y-56606600D01*
X167130600Y-56606600D02*
X168856600Y-56606600D01*
X163348600Y-56566600D02*
X165050600Y-56566600D01*
X167130600Y-56566600D02*
X168832600Y-56566600D01*
X163374600Y-56526600D02*
X165050600Y-56526600D01*
X167130600Y-56526600D02*
X168806600Y-56526600D01*
X163400600Y-56486600D02*
X165050600Y-56486600D01*
X167130600Y-56486600D02*
X168780600Y-56486600D01*
X163426600Y-56446600D02*
X165050600Y-56446600D01*
X167130600Y-56446600D02*
X168754600Y-56446600D01*
X163454600Y-56406600D02*
X165050600Y-56406600D01*
X167130600Y-56406600D02*
X168726600Y-56406600D01*
X163483600Y-56366600D02*
X165050600Y-56366600D01*
X167130600Y-56366600D02*
X168697600Y-56366600D01*
X163512600Y-56326600D02*
X165050600Y-56326600D01*
X167130600Y-56326600D02*
X168668600Y-56326600D01*
X163542600Y-56286600D02*
X165050600Y-56286600D01*
X167130600Y-56286600D02*
X168638600Y-56286600D01*
X163574600Y-56246600D02*
X165050600Y-56246600D01*
X167130600Y-56246600D02*
X168606600Y-56246600D01*
X163606600Y-56206600D02*
X165050600Y-56206600D01*
X167130600Y-56206600D02*
X168574600Y-56206600D01*
X163640600Y-56166600D02*
X165050600Y-56166600D01*
X167130600Y-56166600D02*
X168540600Y-56166600D01*
X163674600Y-56126600D02*
X165050600Y-56126600D01*
X167130600Y-56126600D02*
X168506600Y-56126600D01*
X163710600Y-56086600D02*
X165050600Y-56086600D01*
X167130600Y-56086600D02*
X168470600Y-56086600D01*
X163747600Y-56046600D02*
X165050600Y-56046600D01*
X167130600Y-56046600D02*
X168433600Y-56046600D01*
X163785600Y-56006600D02*
X165050600Y-56006600D01*
X167130600Y-56006600D02*
X168395600Y-56006600D01*
X163825600Y-55966600D02*
X168355600Y-55966600D01*
X163866600Y-55926600D02*
X168314600Y-55926600D01*
X163908600Y-55886600D02*
X168272600Y-55886600D01*
X163953600Y-55846600D02*
X168227600Y-55846600D01*
X163998600Y-55806600D02*
X168182600Y-55806600D01*
X164046600Y-55766600D02*
X168134600Y-55766600D01*
X164095600Y-55726600D02*
X168085600Y-55726600D01*
X164146600Y-55686600D02*
X168034600Y-55686600D01*
X164200600Y-55646600D02*
X167980600Y-55646600D01*
X164256600Y-55606600D02*
X167924600Y-55606600D01*
X164314600Y-55566600D02*
X167866600Y-55566600D01*
X164376600Y-55526600D02*
X167804600Y-55526600D01*
X164440600Y-55486600D02*
X167740600Y-55486600D01*
X164509600Y-55446600D02*
X167671600Y-55446600D01*
X164581600Y-55406600D02*
X167599600Y-55406600D01*
X164658600Y-55366600D02*
X167522600Y-55366600D01*
X164740600Y-55326600D02*
X167440600Y-55326600D01*
X164828600Y-55286600D02*
X167352600Y-55286600D01*
X164925600Y-55246600D02*
X167255600Y-55246600D01*
X165031600Y-55206600D02*
X167149600Y-55206600D01*
X165150600Y-55166600D02*
X167030600Y-55166600D01*
X165288600Y-55126600D02*
X166892600Y-55126600D01*
X165457600Y-55086600D02*
X166723600Y-55086600D01*
X165688600Y-55046600D02*
X166492600Y-55046600D01*
X164251600Y-61787841D02*
X164251600Y-61157841D01*
X163936600Y-61472841D02*
X164566600Y-61472841D01*
X148151800Y-75035000D02*
X142271800Y-75035000D01*
X141101800Y-71915000D02*
X142151800Y-71915000D01*
X141101800Y-73065000D02*
X141101800Y-71915000D01*
X148271800Y-71915000D02*
X148271800Y-70925000D01*
X149321800Y-71915000D02*
X148271800Y-71915000D01*
X149321800Y-73065000D02*
X149321800Y-71915000D01*
X179268400Y-72734800D02*
X179268400Y-71584800D01*
X179268400Y-71584800D02*
X178218400Y-71584800D01*
X178218400Y-71584800D02*
X178218400Y-70594800D01*
X171048400Y-72734800D02*
X171048400Y-71584800D01*
X171048400Y-71584800D02*
X172098400Y-71584800D01*
X178098400Y-74704800D02*
X172218400Y-74704800D01*
X167619000Y-63093548D02*
X167619000Y-64516052D01*
X169439000Y-63093548D02*
X169439000Y-64516052D01*
X137887400Y-78800000D02*
X137887400Y-77470000D01*
X139217400Y-78800000D02*
X137887400Y-78800000D01*
X140487400Y-78800000D02*
X140487400Y-76140000D01*
X140487400Y-76140000D02*
X153247400Y-76140000D01*
X140487400Y-78800000D02*
X153247400Y-78800000D01*
X153247400Y-78800000D02*
X153247400Y-76140000D01*
X182101800Y-78901600D02*
X182101800Y-76241600D01*
X169341800Y-78901600D02*
X182101800Y-78901600D01*
X169341800Y-76241600D02*
X182101800Y-76241600D01*
X169341800Y-78901600D02*
X169341800Y-76241600D01*
X168071800Y-78901600D02*
X166741800Y-78901600D01*
X166741800Y-78901600D02*
X166741800Y-77571600D01*
X150866800Y-56251800D02*
X152196800Y-56251800D01*
X150866800Y-57581800D02*
X150866800Y-56251800D01*
X150866800Y-58851800D02*
X153526800Y-58851800D01*
X153526800Y-58851800D02*
X153526800Y-58911800D01*
X150866800Y-58851800D02*
X150866800Y-58911800D01*
X150866800Y-58911800D02*
X153526800Y-58911800D01*
X119650200Y-106232000D02*
X119650200Y-104902000D01*
X120980200Y-106232000D02*
X119650200Y-106232000D01*
X122250200Y-106232000D02*
X122250200Y-103572000D01*
X122250200Y-103572000D02*
X122310200Y-103572000D01*
X122250200Y-106232000D02*
X122310200Y-106232000D01*
X122310200Y-106232000D02*
X122310200Y-103572000D01*
X159927800Y-134394400D02*
X157927800Y-134394400D01*
X159927800Y-131594400D02*
X159927800Y-134394400D01*
X157927800Y-131594400D02*
X159927800Y-131594400D01*
X157927800Y-134394400D02*
X157927800Y-131594400D01*
X128677600Y-55773800D02*
X135177600Y-55773800D01*
X135177600Y-58373800D02*
X128677600Y-58373800D01*
X184021800Y-136047000D02*
X177521800Y-136047000D01*
X177521800Y-133447000D02*
X184021800Y-133447000D01*
X145754600Y-136340400D02*
X145754600Y-134220400D01*
X145754600Y-136340400D02*
X147814600Y-136340400D01*
X147814600Y-136340400D02*
X147814600Y-134220400D01*
X145754600Y-134220400D02*
X147814600Y-134220400D01*
X143694600Y-134220400D02*
X144754600Y-134220400D01*
X143694600Y-135280400D02*
X143694600Y-134220400D01*
X134017200Y-135255000D02*
X134017200Y-134195000D01*
X134017200Y-134195000D02*
X135077200Y-134195000D01*
X136077200Y-134195000D02*
X138137200Y-134195000D01*
X138137200Y-136315000D02*
X138137200Y-134195000D01*
X136077200Y-136315000D02*
X138137200Y-136315000D01*
X136077200Y-136315000D02*
X136077200Y-134195000D01*
X177987200Y-139515400D02*
X177987200Y-137395400D01*
X177987200Y-139515400D02*
X180047200Y-139515400D01*
X180047200Y-139515400D02*
X180047200Y-137395400D01*
X177987200Y-137395400D02*
X180047200Y-137395400D01*
X175927200Y-137395400D02*
X176987200Y-137395400D01*
X175927200Y-138455400D02*
X175927200Y-137395400D01*
X185718000Y-138455400D02*
X185718000Y-139515400D01*
X185718000Y-139515400D02*
X184658000Y-139515400D01*
X183658000Y-139515400D02*
X181598000Y-139515400D01*
X181598000Y-137395400D02*
X181598000Y-139515400D01*
X183658000Y-137395400D02*
X181598000Y-137395400D01*
X183658000Y-137395400D02*
X183658000Y-139515400D01*
X179783400Y-67099800D02*
X181283400Y-67099800D01*
X181283400Y-67099800D02*
X181283400Y-65289800D01*
X181283400Y-65289800D02*
X186408400Y-65289800D01*
X179783400Y-56699800D02*
X181283400Y-56699800D01*
X181283400Y-56699800D02*
X181283400Y-58509800D01*
X181283400Y-58509800D02*
X182383400Y-58509800D01*
X193045200Y-117883400D02*
X193045200Y-119343400D01*
X189885200Y-117883400D02*
X189885200Y-120043400D01*
X189885200Y-117883400D02*
X190815200Y-117883400D01*
X193045200Y-117883400D02*
X192115200Y-117883400D01*
X168937400Y-133903600D02*
X168937400Y-134833600D01*
X168937400Y-137063600D02*
X168937400Y-136133600D01*
X168937400Y-137063600D02*
X171097400Y-137063600D01*
X168937400Y-133903600D02*
X170397400Y-133903600D01*
X135819000Y-121464800D02*
X135819000Y-122924800D01*
X132659000Y-121464800D02*
X132659000Y-123624800D01*
X132659000Y-121464800D02*
X133589000Y-121464800D01*
X135819000Y-121464800D02*
X134889000Y-121464800D01*
X151937600Y-139621800D02*
X152867600Y-139621800D01*
X155097600Y-139621800D02*
X154167600Y-139621800D01*
X155097600Y-139621800D02*
X155097600Y-137461800D01*
X151937600Y-139621800D02*
X151937600Y-138161800D01*
X137088200Y-98348852D02*
X137088200Y-96926348D01*
X138908200Y-98348852D02*
X138908200Y-96926348D01*
X185302200Y-111700000D02*
X185302200Y-113030000D01*
X183972200Y-111700000D02*
X185302200Y-111700000D01*
X134442200Y-127000000D02*
X185242200Y-127000000D01*
X134442200Y-129540000D02*
X134442200Y-127000000D01*
X185242200Y-129540000D02*
X134442200Y-129540000D01*
X185242200Y-127000000D02*
X185242200Y-129540000D01*
X134382200Y-111700000D02*
X182702200Y-111700000D01*
X134382200Y-114360000D02*
X134382200Y-111700000D01*
X182702200Y-114360000D02*
X134382200Y-114360000D01*
X182702200Y-111700000D02*
X182702200Y-114360000D01*
X140852200Y-125790000D02*
X140852200Y-115510000D01*
X138192200Y-125790000D02*
X140852200Y-125790000D01*
X138192200Y-115510000D02*
X138192200Y-125790000D01*
X140852200Y-115510000D02*
X138192200Y-115510000D01*
X133267200Y-109275000D02*
X186417200Y-109275000D01*
X133267200Y-132025000D02*
X133267200Y-109275000D01*
X186417200Y-132025000D02*
X133267200Y-132025000D01*
X186417200Y-109275000D02*
X186417200Y-132025000D01*
X196824600Y-119109800D02*
X195494600Y-119109800D01*
X195494600Y-119109800D02*
X195494600Y-117779800D01*
X195494600Y-116509800D02*
X195494600Y-103749800D01*
X198154600Y-103749800D02*
X195494600Y-103749800D01*
X198154600Y-116509800D02*
X198154600Y-103749800D01*
X198154600Y-116509800D02*
X195494600Y-116509800D01*
X143119800Y-57591000D02*
X145779800Y-57591000D01*
X143119800Y-57531000D02*
X143119800Y-57591000D01*
X145779800Y-57531000D02*
X145779800Y-57591000D01*
X143119800Y-57531000D02*
X145779800Y-57531000D01*
X143119800Y-56261000D02*
X143119800Y-54931000D01*
X143119800Y-54931000D02*
X144449800Y-54931000D01*
X139462200Y-54905600D02*
X140792200Y-54905600D01*
X139462200Y-56235600D02*
X139462200Y-54905600D01*
X139462200Y-57505600D02*
X142122200Y-57505600D01*
X142122200Y-57505600D02*
X142122200Y-57565600D01*
X139462200Y-57505600D02*
X139462200Y-57565600D01*
X139462200Y-57565600D02*
X142122200Y-57565600D01*
D11*
X187936831Y-71489154D02*
X187984450Y-71346297D01*
X188032069Y-71298678D01*
X188127307Y-71251059D01*
X188270164Y-71251059D01*
X188365402Y-71298678D01*
X188413021Y-71346297D01*
X188460640Y-71441535D01*
X188460640Y-71822487D01*
X187460640Y-71822487D01*
X187460640Y-71489154D01*
X187508260Y-71393916D01*
X187555879Y-71346297D01*
X187651117Y-71298678D01*
X187746355Y-71298678D01*
X187841593Y-71346297D01*
X187889212Y-71393916D01*
X187936831Y-71489154D01*
X187936831Y-71822487D01*
X187460640Y-70965344D02*
X187460640Y-70393916D01*
X188460640Y-70679630D02*
X187460640Y-70679630D01*
X188460640Y-69536773D02*
X188460640Y-70108201D01*
X188460640Y-69822487D02*
X187460640Y-69822487D01*
X187603498Y-69917725D01*
X187698736Y-70012963D01*
X187746355Y-70108201D01*
X200148866Y-119695980D02*
X200148866Y-120410266D01*
X200101247Y-120553123D01*
X200006009Y-120648361D01*
X199863152Y-120695980D01*
X199767914Y-120695980D01*
X201148866Y-120695980D02*
X200577438Y-120695980D01*
X200863152Y-120695980D02*
X200863152Y-119695980D01*
X200767914Y-119838838D01*
X200672676Y-119934076D01*
X200577438Y-119981695D01*
X118550827Y-71304232D02*
X118699783Y-71326321D01*
X118754948Y-71364947D01*
X118818381Y-71450469D01*
X118843188Y-71591156D01*
X118812830Y-71693216D01*
X118774204Y-71748381D01*
X118688682Y-71811815D01*
X118313517Y-71877966D01*
X118139868Y-70893159D01*
X118468138Y-70835276D01*
X118570198Y-70865633D01*
X118625362Y-70904260D01*
X118688796Y-70989782D01*
X118705334Y-71083574D01*
X118674976Y-71185634D01*
X118636350Y-71240798D01*
X118550827Y-71304232D01*
X118222558Y-71362115D01*
X119030885Y-70736048D02*
X119687424Y-70620283D01*
X119204533Y-71720856D01*
X119861072Y-71605091D01*
X120752088Y-71447980D02*
X120189341Y-71547208D01*
X120470715Y-71497594D02*
X120297066Y-70512786D01*
X120228082Y-70670011D01*
X120150829Y-70780340D01*
X120065307Y-70843774D01*
X128281952Y-67253770D02*
X129032282Y-67121466D01*
X128723269Y-67562783D02*
X128590965Y-66812453D01*
X128707464Y-71720212D02*
X128820132Y-71620304D01*
X128885181Y-71602874D01*
X128991469Y-71609254D01*
X129115187Y-71680682D01*
X129173856Y-71769541D01*
X129191286Y-71834590D01*
X129184906Y-71940878D01*
X128994430Y-72270792D01*
X128128405Y-71770792D01*
X128295071Y-71482117D01*
X128383930Y-71423448D01*
X128448978Y-71406018D01*
X128555267Y-71412398D01*
X128637745Y-71460017D01*
X128696414Y-71548875D01*
X128713844Y-71613924D01*
X128707464Y-71720212D01*
X128540798Y-72008887D01*
X128580786Y-70987245D02*
X128914119Y-70409895D01*
X129446811Y-71487245D01*
X129780144Y-70909895D01*
X129163264Y-70168839D02*
X129145834Y-70103790D01*
X129152214Y-69997502D01*
X129271262Y-69791306D01*
X129360120Y-69732637D01*
X129425169Y-69715207D01*
X129531457Y-69721586D01*
X129613936Y-69769206D01*
X129713844Y-69881873D01*
X129923001Y-70662459D01*
X130232525Y-70126348D01*
X193762333Y-59285142D02*
X193714714Y-59332761D01*
X193571857Y-59380380D01*
X193476619Y-59380380D01*
X193333761Y-59332761D01*
X193238523Y-59237523D01*
X193190904Y-59142285D01*
X193143285Y-58951809D01*
X193143285Y-58808952D01*
X193190904Y-58618476D01*
X193238523Y-58523238D01*
X193333761Y-58428000D01*
X193476619Y-58380380D01*
X193571857Y-58380380D01*
X193714714Y-58428000D01*
X193762333Y-58475619D01*
X194143285Y-58475619D02*
X194190904Y-58428000D01*
X194286142Y-58380380D01*
X194524238Y-58380380D01*
X194619476Y-58428000D01*
X194667095Y-58475619D01*
X194714714Y-58570857D01*
X194714714Y-58666095D01*
X194667095Y-58808952D01*
X194095666Y-59380380D01*
X194714714Y-59380380D01*
X190282533Y-116435142D02*
X190234914Y-116482761D01*
X190092057Y-116530380D01*
X189996819Y-116530380D01*
X189853961Y-116482761D01*
X189758723Y-116387523D01*
X189711104Y-116292285D01*
X189663485Y-116101809D01*
X189663485Y-115958952D01*
X189711104Y-115768476D01*
X189758723Y-115673238D01*
X189853961Y-115578000D01*
X189996819Y-115530380D01*
X190092057Y-115530380D01*
X190234914Y-115578000D01*
X190282533Y-115625619D01*
X191139676Y-115530380D02*
X190949200Y-115530380D01*
X190853961Y-115578000D01*
X190806342Y-115625619D01*
X190711104Y-115768476D01*
X190663485Y-115958952D01*
X190663485Y-116339904D01*
X190711104Y-116435142D01*
X190758723Y-116482761D01*
X190853961Y-116530380D01*
X191044438Y-116530380D01*
X191139676Y-116482761D01*
X191187295Y-116435142D01*
X191234914Y-116339904D01*
X191234914Y-116101809D01*
X191187295Y-116006571D01*
X191139676Y-115958952D01*
X191044438Y-115911333D01*
X190853961Y-115911333D01*
X190758723Y-115958952D01*
X190711104Y-116006571D01*
X190663485Y-116101809D01*
X192873333Y-110135942D02*
X192825714Y-110183561D01*
X192682857Y-110231180D01*
X192587619Y-110231180D01*
X192444761Y-110183561D01*
X192349523Y-110088323D01*
X192301904Y-109993085D01*
X192254285Y-109802609D01*
X192254285Y-109659752D01*
X192301904Y-109469276D01*
X192349523Y-109374038D01*
X192444761Y-109278800D01*
X192587619Y-109231180D01*
X192682857Y-109231180D01*
X192825714Y-109278800D01*
X192873333Y-109326419D01*
X193444761Y-109659752D02*
X193349523Y-109612133D01*
X193301904Y-109564514D01*
X193254285Y-109469276D01*
X193254285Y-109421657D01*
X193301904Y-109326419D01*
X193349523Y-109278800D01*
X193444761Y-109231180D01*
X193635238Y-109231180D01*
X193730476Y-109278800D01*
X193778095Y-109326419D01*
X193825714Y-109421657D01*
X193825714Y-109469276D01*
X193778095Y-109564514D01*
X193730476Y-109612133D01*
X193635238Y-109659752D01*
X193444761Y-109659752D01*
X193349523Y-109707371D01*
X193301904Y-109754990D01*
X193254285Y-109850228D01*
X193254285Y-110040704D01*
X193301904Y-110135942D01*
X193349523Y-110183561D01*
X193444761Y-110231180D01*
X193635238Y-110231180D01*
X193730476Y-110183561D01*
X193778095Y-110135942D01*
X193825714Y-110040704D01*
X193825714Y-109850228D01*
X193778095Y-109754990D01*
X193730476Y-109707371D01*
X193635238Y-109659752D01*
X123925104Y-60472580D02*
X123925104Y-59472580D01*
X124163200Y-59472580D01*
X124306057Y-59520200D01*
X124401295Y-59615438D01*
X124448914Y-59710676D01*
X124496533Y-59901152D01*
X124496533Y-60044009D01*
X124448914Y-60234485D01*
X124401295Y-60329723D01*
X124306057Y-60424961D01*
X124163200Y-60472580D01*
X123925104Y-60472580D01*
X125353676Y-59805914D02*
X125353676Y-60472580D01*
X125115580Y-59424961D02*
X124877485Y-60139247D01*
X125496533Y-60139247D01*
X119251504Y-60040780D02*
X119251504Y-59040780D01*
X119489600Y-59040780D01*
X119632457Y-59088400D01*
X119727695Y-59183638D01*
X119775314Y-59278876D01*
X119822933Y-59469352D01*
X119822933Y-59612209D01*
X119775314Y-59802685D01*
X119727695Y-59897923D01*
X119632457Y-59993161D01*
X119489600Y-60040780D01*
X119251504Y-60040780D01*
X120727695Y-59040780D02*
X120251504Y-59040780D01*
X120203885Y-59516971D01*
X120251504Y-59469352D01*
X120346742Y-59421733D01*
X120584838Y-59421733D01*
X120680076Y-59469352D01*
X120727695Y-59516971D01*
X120775314Y-59612209D01*
X120775314Y-59850304D01*
X120727695Y-59945542D01*
X120680076Y-59993161D01*
X120584838Y-60040780D01*
X120346742Y-60040780D01*
X120251504Y-59993161D01*
X120203885Y-59945542D01*
X121893104Y-60955180D02*
X121893104Y-59955180D01*
X122131200Y-59955180D01*
X122274057Y-60002800D01*
X122369295Y-60098038D01*
X122416914Y-60193276D01*
X122464533Y-60383752D01*
X122464533Y-60526609D01*
X122416914Y-60717085D01*
X122369295Y-60812323D01*
X122274057Y-60907561D01*
X122131200Y-60955180D01*
X121893104Y-60955180D01*
X123321676Y-59955180D02*
X123131200Y-59955180D01*
X123035961Y-60002800D01*
X122988342Y-60050419D01*
X122893104Y-60193276D01*
X122845485Y-60383752D01*
X122845485Y-60764704D01*
X122893104Y-60859942D01*
X122940723Y-60907561D01*
X123035961Y-60955180D01*
X123226438Y-60955180D01*
X123321676Y-60907561D01*
X123369295Y-60859942D01*
X123416914Y-60764704D01*
X123416914Y-60526609D01*
X123369295Y-60431371D01*
X123321676Y-60383752D01*
X123226438Y-60336133D01*
X123035961Y-60336133D01*
X122940723Y-60383752D01*
X122893104Y-60431371D01*
X122845485Y-60526609D01*
X189158666Y-112653771D02*
X188825333Y-112653771D01*
X188825333Y-113177580D02*
X188825333Y-112177580D01*
X189301523Y-112177580D01*
X190015809Y-112653771D02*
X190158666Y-112701390D01*
X190206285Y-112749009D01*
X190253904Y-112844247D01*
X190253904Y-112987104D01*
X190206285Y-113082342D01*
X190158666Y-113129961D01*
X190063428Y-113177580D01*
X189682476Y-113177580D01*
X189682476Y-112177580D01*
X190015809Y-112177580D01*
X190111047Y-112225200D01*
X190158666Y-112272819D01*
X190206285Y-112368057D01*
X190206285Y-112463295D01*
X190158666Y-112558533D01*
X190111047Y-112606152D01*
X190015809Y-112653771D01*
X189682476Y-112653771D01*
X190587238Y-112177580D02*
X191206285Y-112177580D01*
X190872952Y-112558533D01*
X191015809Y-112558533D01*
X191111047Y-112606152D01*
X191158666Y-112653771D01*
X191206285Y-112749009D01*
X191206285Y-112987104D01*
X191158666Y-113082342D01*
X191111047Y-113129961D01*
X191015809Y-113177580D01*
X190730095Y-113177580D01*
X190634857Y-113129961D01*
X190587238Y-113082342D01*
X189209466Y-114406371D02*
X188876133Y-114406371D01*
X188876133Y-114930180D02*
X188876133Y-113930180D01*
X189352323Y-113930180D01*
X190066609Y-114406371D02*
X190209466Y-114453990D01*
X190257085Y-114501609D01*
X190304704Y-114596847D01*
X190304704Y-114739704D01*
X190257085Y-114834942D01*
X190209466Y-114882561D01*
X190114228Y-114930180D01*
X189733276Y-114930180D01*
X189733276Y-113930180D01*
X190066609Y-113930180D01*
X190161847Y-113977800D01*
X190209466Y-114025419D01*
X190257085Y-114120657D01*
X190257085Y-114215895D01*
X190209466Y-114311133D01*
X190161847Y-114358752D01*
X190066609Y-114406371D01*
X189733276Y-114406371D01*
X191161847Y-114263514D02*
X191161847Y-114930180D01*
X190923752Y-113882561D02*
X190685657Y-114596847D01*
X191304704Y-114596847D01*
X119453066Y-115193380D02*
X119453066Y-115907666D01*
X119405447Y-116050523D01*
X119310209Y-116145761D01*
X119167352Y-116193380D01*
X119072114Y-116193380D01*
X120357828Y-115526714D02*
X120357828Y-116193380D01*
X120119733Y-115145761D02*
X119881638Y-115860047D01*
X120500685Y-115860047D01*
X126920666Y-103497580D02*
X126920666Y-104211866D01*
X126873047Y-104354723D01*
X126777809Y-104449961D01*
X126634952Y-104497580D01*
X126539714Y-104497580D01*
X127873047Y-103497580D02*
X127396857Y-103497580D01*
X127349238Y-103973771D01*
X127396857Y-103926152D01*
X127492095Y-103878533D01*
X127730190Y-103878533D01*
X127825428Y-103926152D01*
X127873047Y-103973771D01*
X127920666Y-104069009D01*
X127920666Y-104307104D01*
X127873047Y-104402342D01*
X127825428Y-104449961D01*
X127730190Y-104497580D01*
X127492095Y-104497580D01*
X127396857Y-104449961D01*
X127349238Y-104402342D01*
X187872619Y-122701038D02*
X187825000Y-122796276D01*
X187729761Y-122891514D01*
X187586904Y-123034371D01*
X187539285Y-123129609D01*
X187539285Y-123224847D01*
X187777380Y-123177228D02*
X187729761Y-123272466D01*
X187634523Y-123367704D01*
X187444047Y-123415323D01*
X187110714Y-123415323D01*
X186920238Y-123367704D01*
X186825000Y-123272466D01*
X186777380Y-123177228D01*
X186777380Y-122986752D01*
X186825000Y-122891514D01*
X186920238Y-122796276D01*
X187110714Y-122748657D01*
X187444047Y-122748657D01*
X187634523Y-122796276D01*
X187729761Y-122891514D01*
X187777380Y-122986752D01*
X187777380Y-123177228D01*
X187110714Y-121891514D02*
X187777380Y-121891514D01*
X186729761Y-122129609D02*
X187444047Y-122367704D01*
X187444047Y-121748657D01*
X165385761Y-138499019D02*
X165290523Y-138451400D01*
X165195285Y-138356161D01*
X165052428Y-138213304D01*
X164957190Y-138165685D01*
X164861952Y-138165685D01*
X164909571Y-138403780D02*
X164814333Y-138356161D01*
X164719095Y-138260923D01*
X164671476Y-138070447D01*
X164671476Y-137737114D01*
X164719095Y-137546638D01*
X164814333Y-137451400D01*
X164909571Y-137403780D01*
X165100047Y-137403780D01*
X165195285Y-137451400D01*
X165290523Y-137546638D01*
X165338142Y-137737114D01*
X165338142Y-138070447D01*
X165290523Y-138260923D01*
X165195285Y-138356161D01*
X165100047Y-138403780D01*
X164909571Y-138403780D01*
X166242904Y-137403780D02*
X165766714Y-137403780D01*
X165719095Y-137879971D01*
X165766714Y-137832352D01*
X165861952Y-137784733D01*
X166100047Y-137784733D01*
X166195285Y-137832352D01*
X166242904Y-137879971D01*
X166290523Y-137975209D01*
X166290523Y-138213304D01*
X166242904Y-138308542D01*
X166195285Y-138356161D01*
X166100047Y-138403780D01*
X165861952Y-138403780D01*
X165766714Y-138356161D01*
X165719095Y-138308542D01*
X129622561Y-120003819D02*
X129527323Y-119956200D01*
X129432085Y-119860961D01*
X129289228Y-119718104D01*
X129193990Y-119670485D01*
X129098752Y-119670485D01*
X129146371Y-119908580D02*
X129051133Y-119860961D01*
X128955895Y-119765723D01*
X128908276Y-119575247D01*
X128908276Y-119241914D01*
X128955895Y-119051438D01*
X129051133Y-118956200D01*
X129146371Y-118908580D01*
X129336847Y-118908580D01*
X129432085Y-118956200D01*
X129527323Y-119051438D01*
X129574942Y-119241914D01*
X129574942Y-119575247D01*
X129527323Y-119765723D01*
X129432085Y-119860961D01*
X129336847Y-119908580D01*
X129146371Y-119908580D01*
X130432085Y-118908580D02*
X130241609Y-118908580D01*
X130146371Y-118956200D01*
X130098752Y-119003819D01*
X130003514Y-119146676D01*
X129955895Y-119337152D01*
X129955895Y-119718104D01*
X130003514Y-119813342D01*
X130051133Y-119860961D01*
X130146371Y-119908580D01*
X130336847Y-119908580D01*
X130432085Y-119860961D01*
X130479704Y-119813342D01*
X130527323Y-119718104D01*
X130527323Y-119480009D01*
X130479704Y-119384771D01*
X130432085Y-119337152D01*
X130336847Y-119289533D01*
X130146371Y-119289533D01*
X130051133Y-119337152D01*
X130003514Y-119384771D01*
X129955895Y-119480009D01*
X152863561Y-136945619D02*
X152768323Y-136898000D01*
X152673085Y-136802761D01*
X152530228Y-136659904D01*
X152434990Y-136612285D01*
X152339752Y-136612285D01*
X152387371Y-136850380D02*
X152292133Y-136802761D01*
X152196895Y-136707523D01*
X152149276Y-136517047D01*
X152149276Y-136183714D01*
X152196895Y-135993238D01*
X152292133Y-135898000D01*
X152387371Y-135850380D01*
X152577847Y-135850380D01*
X152673085Y-135898000D01*
X152768323Y-135993238D01*
X152815942Y-136183714D01*
X152815942Y-136517047D01*
X152768323Y-136707523D01*
X152673085Y-136802761D01*
X152577847Y-136850380D01*
X152387371Y-136850380D01*
X153149276Y-135850380D02*
X153815942Y-135850380D01*
X153387371Y-136850380D01*
X133483361Y-66054219D02*
X133388123Y-66006600D01*
X133292885Y-65911361D01*
X133150028Y-65768504D01*
X133054790Y-65720885D01*
X132959552Y-65720885D01*
X133007171Y-65958980D02*
X132911933Y-65911361D01*
X132816695Y-65816123D01*
X132769076Y-65625647D01*
X132769076Y-65292314D01*
X132816695Y-65101838D01*
X132911933Y-65006600D01*
X133007171Y-64958980D01*
X133197647Y-64958980D01*
X133292885Y-65006600D01*
X133388123Y-65101838D01*
X133435742Y-65292314D01*
X133435742Y-65625647D01*
X133388123Y-65816123D01*
X133292885Y-65911361D01*
X133197647Y-65958980D01*
X133007171Y-65958980D01*
X134007171Y-65387552D02*
X133911933Y-65339933D01*
X133864314Y-65292314D01*
X133816695Y-65197076D01*
X133816695Y-65149457D01*
X133864314Y-65054219D01*
X133911933Y-65006600D01*
X134007171Y-64958980D01*
X134197647Y-64958980D01*
X134292885Y-65006600D01*
X134340504Y-65054219D01*
X134388123Y-65149457D01*
X134388123Y-65197076D01*
X134340504Y-65292314D01*
X134292885Y-65339933D01*
X134197647Y-65387552D01*
X134007171Y-65387552D01*
X133911933Y-65435171D01*
X133864314Y-65482790D01*
X133816695Y-65578028D01*
X133816695Y-65768504D01*
X133864314Y-65863742D01*
X133911933Y-65911361D01*
X134007171Y-65958980D01*
X134197647Y-65958980D01*
X134292885Y-65911361D01*
X134340504Y-65863742D01*
X134388123Y-65768504D01*
X134388123Y-65578028D01*
X134340504Y-65482790D01*
X134292885Y-65435171D01*
X134197647Y-65387552D01*
X187793333Y-134919980D02*
X187460000Y-134443790D01*
X187221904Y-134919980D02*
X187221904Y-133919980D01*
X187602857Y-133919980D01*
X187698095Y-133967600D01*
X187745714Y-134015219D01*
X187793333Y-134110457D01*
X187793333Y-134253314D01*
X187745714Y-134348552D01*
X187698095Y-134396171D01*
X187602857Y-134443790D01*
X187221904Y-134443790D01*
X188745714Y-134919980D02*
X188174285Y-134919980D01*
X188460000Y-134919980D02*
X188460000Y-133919980D01*
X188364761Y-134062838D01*
X188269523Y-134158076D01*
X188174285Y-134205695D01*
X172705733Y-138577580D02*
X172372400Y-138101390D01*
X172134304Y-138577580D02*
X172134304Y-137577580D01*
X172515257Y-137577580D01*
X172610495Y-137625200D01*
X172658114Y-137672819D01*
X172705733Y-137768057D01*
X172705733Y-137910914D01*
X172658114Y-138006152D01*
X172610495Y-138053771D01*
X172515257Y-138101390D01*
X172134304Y-138101390D01*
X173086685Y-137672819D02*
X173134304Y-137625200D01*
X173229542Y-137577580D01*
X173467638Y-137577580D01*
X173562876Y-137625200D01*
X173610495Y-137672819D01*
X173658114Y-137768057D01*
X173658114Y-137863295D01*
X173610495Y-138006152D01*
X173039066Y-138577580D01*
X173658114Y-138577580D01*
X132599133Y-132075180D02*
X132265800Y-131598990D01*
X132027704Y-132075180D02*
X132027704Y-131075180D01*
X132408657Y-131075180D01*
X132503895Y-131122800D01*
X132551514Y-131170419D01*
X132599133Y-131265657D01*
X132599133Y-131408514D01*
X132551514Y-131503752D01*
X132503895Y-131551371D01*
X132408657Y-131598990D01*
X132027704Y-131598990D01*
X132932466Y-131075180D02*
X133551514Y-131075180D01*
X133218180Y-131456133D01*
X133361038Y-131456133D01*
X133456276Y-131503752D01*
X133503895Y-131551371D01*
X133551514Y-131646609D01*
X133551514Y-131884704D01*
X133503895Y-131979942D01*
X133456276Y-132027561D01*
X133361038Y-132075180D01*
X133075323Y-132075180D01*
X132980085Y-132027561D01*
X132932466Y-131979942D01*
X149270980Y-134761266D02*
X148794790Y-135094600D01*
X149270980Y-135332695D02*
X148270980Y-135332695D01*
X148270980Y-134951742D01*
X148318600Y-134856504D01*
X148366219Y-134808885D01*
X148461457Y-134761266D01*
X148604314Y-134761266D01*
X148699552Y-134808885D01*
X148747171Y-134856504D01*
X148794790Y-134951742D01*
X148794790Y-135332695D01*
X148604314Y-133904123D02*
X149270980Y-133904123D01*
X148223361Y-134142219D02*
X148937647Y-134380314D01*
X148937647Y-133761266D01*
X197027895Y-70889761D02*
X197170752Y-70937380D01*
X197408847Y-70937380D01*
X197504085Y-70889761D01*
X197551704Y-70842142D01*
X197599323Y-70746904D01*
X197599323Y-70651666D01*
X197551704Y-70556428D01*
X197504085Y-70508809D01*
X197408847Y-70461190D01*
X197218371Y-70413571D01*
X197123133Y-70365952D01*
X197075514Y-70318333D01*
X197027895Y-70223095D01*
X197027895Y-70127857D01*
X197075514Y-70032619D01*
X197123133Y-69985000D01*
X197218371Y-69937380D01*
X197456466Y-69937380D01*
X197599323Y-69985000D01*
X198551704Y-70937380D02*
X197980276Y-70937380D01*
X198265990Y-70937380D02*
X198265990Y-69937380D01*
X198170752Y-70080238D01*
X198075514Y-70175476D01*
X197980276Y-70223095D01*
X194775295Y-54900580D02*
X195346723Y-54900580D01*
X195061009Y-55900580D02*
X195061009Y-54900580D01*
X195680057Y-55900580D02*
X195680057Y-54900580D01*
X196061009Y-54900580D01*
X196156247Y-54948200D01*
X196203866Y-54995819D01*
X196251485Y-55091057D01*
X196251485Y-55233914D01*
X196203866Y-55329152D01*
X196156247Y-55376771D01*
X196061009Y-55424390D01*
X195680057Y-55424390D01*
X197203866Y-55900580D02*
X196632438Y-55900580D01*
X196918152Y-55900580D02*
X196918152Y-54900580D01*
X196822914Y-55043438D01*
X196727676Y-55138676D01*
X196632438Y-55186295D01*
X132240495Y-138491980D02*
X132811923Y-138491980D01*
X132526209Y-139491980D02*
X132526209Y-138491980D01*
X133145257Y-139491980D02*
X133145257Y-138491980D01*
X133526209Y-138491980D01*
X133621447Y-138539600D01*
X133669066Y-138587219D01*
X133716685Y-138682457D01*
X133716685Y-138825314D01*
X133669066Y-138920552D01*
X133621447Y-138968171D01*
X133526209Y-139015790D01*
X133145257Y-139015790D01*
X134097638Y-138587219D02*
X134145257Y-138539600D01*
X134240495Y-138491980D01*
X134478590Y-138491980D01*
X134573828Y-138539600D01*
X134621447Y-138587219D01*
X134669066Y-138682457D01*
X134669066Y-138777695D01*
X134621447Y-138920552D01*
X134050019Y-139491980D01*
X134669066Y-139491980D01*
X134554980Y-68224304D02*
X135364504Y-68224304D01*
X135459742Y-68176685D01*
X135507361Y-68129066D01*
X135554980Y-68033828D01*
X135554980Y-67843352D01*
X135507361Y-67748114D01*
X135459742Y-67700495D01*
X135364504Y-67652876D01*
X134554980Y-67652876D01*
X134650219Y-67224304D02*
X134602600Y-67176685D01*
X134554980Y-67081447D01*
X134554980Y-66843352D01*
X134602600Y-66748114D01*
X134650219Y-66700495D01*
X134745457Y-66652876D01*
X134840695Y-66652876D01*
X134983552Y-66700495D01*
X135554980Y-67271923D01*
X135554980Y-66652876D01*
X156045066Y-92984580D02*
X156045066Y-91984580D01*
X156378400Y-92698866D01*
X156711733Y-91984580D01*
X156711733Y-92984580D01*
X157187923Y-92984580D02*
X157187923Y-91984580D01*
X157187923Y-92460771D02*
X157759352Y-92460771D01*
X157759352Y-92984580D02*
X157759352Y-91984580D01*
X158759352Y-92984580D02*
X158187923Y-92984580D01*
X158473638Y-92984580D02*
X158473638Y-91984580D01*
X158378400Y-92127438D01*
X158283161Y-92222676D01*
X158187923Y-92270295D01*
X161429866Y-93060780D02*
X161429866Y-92060780D01*
X161763200Y-92775066D01*
X162096533Y-92060780D01*
X162096533Y-93060780D01*
X162572723Y-93060780D02*
X162572723Y-92060780D01*
X162572723Y-92536971D02*
X163144152Y-92536971D01*
X163144152Y-93060780D02*
X163144152Y-92060780D01*
X163572723Y-92156019D02*
X163620342Y-92108400D01*
X163715580Y-92060780D01*
X163953676Y-92060780D01*
X164048914Y-92108400D01*
X164096533Y-92156019D01*
X164144152Y-92251257D01*
X164144152Y-92346495D01*
X164096533Y-92489352D01*
X163525104Y-93060780D01*
X164144152Y-93060780D01*
X160731295Y-78382761D02*
X160874152Y-78430380D01*
X161112247Y-78430380D01*
X161207485Y-78382761D01*
X161255104Y-78335142D01*
X161302723Y-78239904D01*
X161302723Y-78144666D01*
X161255104Y-78049428D01*
X161207485Y-78001809D01*
X161112247Y-77954190D01*
X160921771Y-77906571D01*
X160826533Y-77858952D01*
X160778914Y-77811333D01*
X160731295Y-77716095D01*
X160731295Y-77620857D01*
X160778914Y-77525619D01*
X160826533Y-77478000D01*
X160921771Y-77430380D01*
X161159866Y-77430380D01*
X161302723Y-77478000D01*
X161683676Y-77525619D02*
X161731295Y-77478000D01*
X161826533Y-77430380D01*
X162064628Y-77430380D01*
X162159866Y-77478000D01*
X162207485Y-77525619D01*
X162255104Y-77620857D01*
X162255104Y-77716095D01*
X162207485Y-77858952D01*
X161636057Y-78430380D01*
X162255104Y-78430380D01*
X199845704Y-123870980D02*
X199845704Y-122870980D01*
X200083800Y-122870980D01*
X200226657Y-122918600D01*
X200321895Y-123013838D01*
X200369514Y-123109076D01*
X200417133Y-123299552D01*
X200417133Y-123442409D01*
X200369514Y-123632885D01*
X200321895Y-123728123D01*
X200226657Y-123823361D01*
X200083800Y-123870980D01*
X199845704Y-123870980D01*
X201036180Y-122870980D02*
X201131419Y-122870980D01*
X201226657Y-122918600D01*
X201274276Y-122966219D01*
X201321895Y-123061457D01*
X201369514Y-123251933D01*
X201369514Y-123490028D01*
X201321895Y-123680504D01*
X201274276Y-123775742D01*
X201226657Y-123823361D01*
X201131419Y-123870980D01*
X201036180Y-123870980D01*
X200940942Y-123823361D01*
X200893323Y-123775742D01*
X200845704Y-123680504D01*
X200798085Y-123490028D01*
X200798085Y-123251933D01*
X200845704Y-123061457D01*
X200893323Y-122966219D01*
X200940942Y-122918600D01*
X201036180Y-122870980D01*
X163297800Y-148055914D02*
X163743998Y-147160980D01*
X163957078Y-147267217D01*
X164063678Y-147373576D01*
X164106415Y-147501303D01*
X164106536Y-147607782D01*
X164064162Y-147799493D01*
X164000419Y-147927341D01*
X163872813Y-148076557D01*
X163787702Y-148140542D01*
X163659975Y-148183278D01*
X163510880Y-148162152D01*
X163297800Y-148055914D01*
X164661510Y-148735835D02*
X164150119Y-148480865D01*
X164405814Y-148608350D02*
X164852012Y-147713415D01*
X164703038Y-147798768D01*
X164575311Y-147841505D01*
X164468831Y-147841626D01*
X122210604Y-119523380D02*
X122210604Y-118523380D01*
X122448700Y-118523380D01*
X122591557Y-118571000D01*
X122686795Y-118666238D01*
X122734414Y-118761476D01*
X122782033Y-118951952D01*
X122782033Y-119094809D01*
X122734414Y-119285285D01*
X122686795Y-119380523D01*
X122591557Y-119475761D01*
X122448700Y-119523380D01*
X122210604Y-119523380D01*
X123162985Y-118618619D02*
X123210604Y-118571000D01*
X123305842Y-118523380D01*
X123543938Y-118523380D01*
X123639176Y-118571000D01*
X123686795Y-118618619D01*
X123734414Y-118713857D01*
X123734414Y-118809095D01*
X123686795Y-118951952D01*
X123115366Y-119523380D01*
X123734414Y-119523380D01*
X155497303Y-148943187D02*
X155051105Y-148048253D01*
X155264185Y-147942015D01*
X155413280Y-147920889D01*
X155541007Y-147963625D01*
X155626118Y-148027610D01*
X155753724Y-148176826D01*
X155817467Y-148304674D01*
X155859841Y-148496385D01*
X155859720Y-148602864D01*
X155816983Y-148730591D01*
X155710383Y-148836950D01*
X155497303Y-148943187D01*
X155860808Y-147644550D02*
X156414815Y-147368332D01*
X156286483Y-147857992D01*
X156414331Y-147794250D01*
X156520811Y-147794371D01*
X156584674Y-147815739D01*
X156669785Y-147879723D01*
X156776023Y-148092803D01*
X156775902Y-148199282D01*
X156754533Y-148263146D01*
X156690549Y-148348257D01*
X156434853Y-148475742D01*
X156328374Y-148475621D01*
X156264511Y-148454253D01*
X191547761Y-129503419D02*
X191452523Y-129455800D01*
X191357285Y-129360561D01*
X191214428Y-129217704D01*
X191119190Y-129170085D01*
X191023952Y-129170085D01*
X191071571Y-129408180D02*
X190976333Y-129360561D01*
X190881095Y-129265323D01*
X190833476Y-129074847D01*
X190833476Y-128741514D01*
X190881095Y-128551038D01*
X190976333Y-128455800D01*
X191071571Y-128408180D01*
X191262047Y-128408180D01*
X191357285Y-128455800D01*
X191452523Y-128551038D01*
X191500142Y-128741514D01*
X191500142Y-129074847D01*
X191452523Y-129265323D01*
X191357285Y-129360561D01*
X191262047Y-129408180D01*
X191071571Y-129408180D01*
X192119190Y-128408180D02*
X192214428Y-128408180D01*
X192309666Y-128455800D01*
X192357285Y-128503419D01*
X192404904Y-128598657D01*
X192452523Y-128789133D01*
X192452523Y-129027228D01*
X192404904Y-129217704D01*
X192357285Y-129312942D01*
X192309666Y-129360561D01*
X192214428Y-129408180D01*
X192119190Y-129408180D01*
X192023952Y-129360561D01*
X191976333Y-129312942D01*
X191928714Y-129217704D01*
X191881095Y-129027228D01*
X191881095Y-128789133D01*
X191928714Y-128598657D01*
X191976333Y-128503419D01*
X192023952Y-128455800D01*
X192119190Y-128408180D01*
X172456388Y-141858378D02*
X172371277Y-141922362D01*
X172243550Y-141965099D01*
X172051959Y-142029204D01*
X171966848Y-142093188D01*
X171924353Y-142178420D01*
X172158681Y-142242042D02*
X172073570Y-142306026D01*
X171945843Y-142348763D01*
X171754132Y-142306389D01*
X171455820Y-142157656D01*
X171306604Y-142030050D01*
X171263867Y-141902324D01*
X171263746Y-141795844D01*
X171348736Y-141625380D01*
X171433847Y-141561396D01*
X171561574Y-141518659D01*
X171753285Y-141561033D01*
X172051597Y-141709766D01*
X172200813Y-141837372D01*
X172243550Y-141965099D01*
X172243671Y-142071578D01*
X172158681Y-142242042D01*
X172774859Y-141006180D02*
X172519888Y-141517571D01*
X172647373Y-141261876D02*
X171752439Y-140815678D01*
X171837792Y-140964652D01*
X171880529Y-141092379D01*
X171880650Y-141198859D01*
X128809761Y-129325619D02*
X128714523Y-129278000D01*
X128619285Y-129182761D01*
X128476428Y-129039904D01*
X128381190Y-128992285D01*
X128285952Y-128992285D01*
X128333571Y-129230380D02*
X128238333Y-129182761D01*
X128143095Y-129087523D01*
X128095476Y-128897047D01*
X128095476Y-128563714D01*
X128143095Y-128373238D01*
X128238333Y-128278000D01*
X128333571Y-128230380D01*
X128524047Y-128230380D01*
X128619285Y-128278000D01*
X128714523Y-128373238D01*
X128762142Y-128563714D01*
X128762142Y-128897047D01*
X128714523Y-129087523D01*
X128619285Y-129182761D01*
X128524047Y-129230380D01*
X128333571Y-129230380D01*
X129143095Y-128325619D02*
X129190714Y-128278000D01*
X129285952Y-128230380D01*
X129524047Y-128230380D01*
X129619285Y-128278000D01*
X129666904Y-128325619D01*
X129714523Y-128420857D01*
X129714523Y-128516095D01*
X129666904Y-128658952D01*
X129095476Y-129230380D01*
X129714523Y-129230380D01*
X147625620Y-141916514D02*
X147625741Y-141810035D01*
X147668478Y-141682308D01*
X147732583Y-141490718D01*
X147732704Y-141384238D01*
X147690209Y-141299006D01*
X147498377Y-141447860D02*
X147498498Y-141341380D01*
X147541235Y-141213654D01*
X147690451Y-141086048D01*
X147988762Y-140937315D01*
X148180474Y-140894941D01*
X148308200Y-140937678D01*
X148393311Y-141001662D01*
X148478301Y-141172126D01*
X148478181Y-141278605D01*
X148435444Y-141406332D01*
X148286228Y-141533938D01*
X147987916Y-141682671D01*
X147796205Y-141725045D01*
X147668478Y-141682308D01*
X147583367Y-141618324D01*
X147498377Y-141447860D01*
X148733272Y-141683517D02*
X149009489Y-142237524D01*
X148519829Y-142109192D01*
X148583572Y-142237040D01*
X148583451Y-142343520D01*
X148562083Y-142407383D01*
X148498098Y-142492494D01*
X148285019Y-142598732D01*
X148178539Y-142598611D01*
X148114676Y-142577242D01*
X148029565Y-142513258D01*
X147902080Y-142257562D01*
X147902201Y-142151083D01*
X147923569Y-142087220D01*
X163517342Y-67717942D02*
X163469723Y-67765561D01*
X163326866Y-67813180D01*
X163231628Y-67813180D01*
X163088771Y-67765561D01*
X162993533Y-67670323D01*
X162945914Y-67575085D01*
X162898295Y-67384609D01*
X162898295Y-67241752D01*
X162945914Y-67051276D01*
X162993533Y-66956038D01*
X163088771Y-66860800D01*
X163231628Y-66813180D01*
X163326866Y-66813180D01*
X163469723Y-66860800D01*
X163517342Y-66908419D01*
X164469723Y-67813180D02*
X163898295Y-67813180D01*
X164184009Y-67813180D02*
X164184009Y-66813180D01*
X164088771Y-66956038D01*
X163993533Y-67051276D01*
X163898295Y-67098895D01*
X165088771Y-66813180D02*
X165184009Y-66813180D01*
X165279247Y-66860800D01*
X165326866Y-66908419D01*
X165374485Y-67003657D01*
X165422104Y-67194133D01*
X165422104Y-67432228D01*
X165374485Y-67622704D01*
X165326866Y-67717942D01*
X165279247Y-67765561D01*
X165184009Y-67813180D01*
X165088771Y-67813180D01*
X164993533Y-67765561D01*
X164945914Y-67717942D01*
X164898295Y-67622704D01*
X164850676Y-67432228D01*
X164850676Y-67194133D01*
X164898295Y-67003657D01*
X164945914Y-66908419D01*
X164993533Y-66860800D01*
X165088771Y-66813180D01*
X162047742Y-58930457D02*
X162095361Y-58978076D01*
X162142980Y-59120933D01*
X162142980Y-59216171D01*
X162095361Y-59359028D01*
X162000123Y-59454266D01*
X161904885Y-59501885D01*
X161714409Y-59549504D01*
X161571552Y-59549504D01*
X161381076Y-59501885D01*
X161285838Y-59454266D01*
X161190600Y-59359028D01*
X161142980Y-59216171D01*
X161142980Y-59120933D01*
X161190600Y-58978076D01*
X161238219Y-58930457D01*
X162142980Y-57978076D02*
X162142980Y-58549504D01*
X162142980Y-58263790D02*
X161142980Y-58263790D01*
X161285838Y-58359028D01*
X161381076Y-58454266D01*
X161428695Y-58549504D01*
X161142980Y-57120933D02*
X161142980Y-57311409D01*
X161190600Y-57406647D01*
X161238219Y-57454266D01*
X161381076Y-57549504D01*
X161571552Y-57597123D01*
X161952504Y-57597123D01*
X162047742Y-57549504D01*
X162095361Y-57501885D01*
X162142980Y-57406647D01*
X162142980Y-57216171D01*
X162095361Y-57120933D01*
X162047742Y-57073314D01*
X161952504Y-57025695D01*
X161714409Y-57025695D01*
X161619171Y-57073314D01*
X161571552Y-57120933D01*
X161523933Y-57216171D01*
X161523933Y-57406647D01*
X161571552Y-57501885D01*
X161619171Y-57549504D01*
X161714409Y-57597123D01*
X144351476Y-70353180D02*
X144351476Y-69353180D01*
X144684809Y-70067466D01*
X145018142Y-69353180D01*
X145018142Y-70353180D01*
X146018142Y-70353180D02*
X145446714Y-70353180D01*
X145732428Y-70353180D02*
X145732428Y-69353180D01*
X145637190Y-69496038D01*
X145541952Y-69591276D01*
X145446714Y-69638895D01*
X174348876Y-69921380D02*
X174348876Y-68921380D01*
X174682209Y-69635666D01*
X175015542Y-68921380D01*
X175015542Y-69921380D01*
X175444114Y-69016619D02*
X175491733Y-68969000D01*
X175586971Y-68921380D01*
X175825066Y-68921380D01*
X175920304Y-68969000D01*
X175967923Y-69016619D01*
X176015542Y-69111857D01*
X176015542Y-69207095D01*
X175967923Y-69349952D01*
X175396495Y-69921380D01*
X176015542Y-69921380D01*
X167835342Y-67362342D02*
X167787723Y-67409961D01*
X167644866Y-67457580D01*
X167549628Y-67457580D01*
X167406771Y-67409961D01*
X167311533Y-67314723D01*
X167263914Y-67219485D01*
X167216295Y-67029009D01*
X167216295Y-66886152D01*
X167263914Y-66695676D01*
X167311533Y-66600438D01*
X167406771Y-66505200D01*
X167549628Y-66457580D01*
X167644866Y-66457580D01*
X167787723Y-66505200D01*
X167835342Y-66552819D01*
X168787723Y-67457580D02*
X168216295Y-67457580D01*
X168502009Y-67457580D02*
X168502009Y-66457580D01*
X168406771Y-66600438D01*
X168311533Y-66695676D01*
X168216295Y-66743295D01*
X169121057Y-66457580D02*
X169740104Y-66457580D01*
X169406771Y-66838533D01*
X169549628Y-66838533D01*
X169644866Y-66886152D01*
X169692485Y-66933771D01*
X169740104Y-67029009D01*
X169740104Y-67267104D01*
X169692485Y-67362342D01*
X169644866Y-67409961D01*
X169549628Y-67457580D01*
X169263914Y-67457580D01*
X169168676Y-67409961D01*
X169121057Y-67362342D01*
X137339780Y-78279523D02*
X136339780Y-78279523D01*
X137054066Y-77946190D01*
X136339780Y-77612857D01*
X137339780Y-77612857D01*
X136339780Y-77231904D02*
X136339780Y-76612857D01*
X136720733Y-76946190D01*
X136720733Y-76803333D01*
X136768352Y-76708095D01*
X136815971Y-76660476D01*
X136911209Y-76612857D01*
X137149304Y-76612857D01*
X137244542Y-76660476D01*
X137292161Y-76708095D01*
X137339780Y-76803333D01*
X137339780Y-77089047D01*
X137292161Y-77184285D01*
X137244542Y-77231904D01*
X166194180Y-78381123D02*
X165194180Y-78381123D01*
X165908466Y-78047790D01*
X165194180Y-77714457D01*
X166194180Y-77714457D01*
X165527514Y-76809695D02*
X166194180Y-76809695D01*
X165146561Y-77047790D02*
X165860847Y-77285885D01*
X165860847Y-76666838D01*
X147734495Y-56449980D02*
X148305923Y-56449980D01*
X148020209Y-57449980D02*
X148020209Y-56449980D01*
X148639257Y-57449980D02*
X148639257Y-56449980D01*
X149020209Y-56449980D01*
X149115447Y-56497600D01*
X149163066Y-56545219D01*
X149210685Y-56640457D01*
X149210685Y-56783314D01*
X149163066Y-56878552D01*
X149115447Y-56926171D01*
X149020209Y-56973790D01*
X148639257Y-56973790D01*
X149544019Y-56449980D02*
X150163066Y-56449980D01*
X149829733Y-56830933D01*
X149972590Y-56830933D01*
X150067828Y-56878552D01*
X150115447Y-56926171D01*
X150163066Y-57021409D01*
X150163066Y-57259504D01*
X150115447Y-57354742D01*
X150067828Y-57402361D01*
X149972590Y-57449980D01*
X149686876Y-57449980D01*
X149591638Y-57402361D01*
X149544019Y-57354742D01*
X118102580Y-106163904D02*
X118102580Y-105592476D01*
X119102580Y-105878190D02*
X118102580Y-105878190D01*
X119102580Y-105259142D02*
X118102580Y-105259142D01*
X118102580Y-104878190D01*
X118150200Y-104782952D01*
X118197819Y-104735333D01*
X118293057Y-104687714D01*
X118435914Y-104687714D01*
X118531152Y-104735333D01*
X118578771Y-104782952D01*
X118626390Y-104878190D01*
X118626390Y-105259142D01*
X118435914Y-103830571D02*
X119102580Y-103830571D01*
X118054961Y-104068666D02*
X118769247Y-104306761D01*
X118769247Y-103687714D01*
X160558266Y-132421380D02*
X160558266Y-133135666D01*
X160510647Y-133278523D01*
X160415409Y-133373761D01*
X160272552Y-133421380D01*
X160177314Y-133421380D01*
X161034457Y-133421380D02*
X161034457Y-132421380D01*
X161415409Y-132421380D01*
X161510647Y-132469000D01*
X161558266Y-132516619D01*
X161605885Y-132611857D01*
X161605885Y-132754714D01*
X161558266Y-132849952D01*
X161510647Y-132897571D01*
X161415409Y-132945190D01*
X161034457Y-132945190D01*
X162463028Y-132754714D02*
X162463028Y-133421380D01*
X162224933Y-132373761D02*
X161986838Y-133088047D01*
X162605885Y-133088047D01*
X126250866Y-55751361D02*
X126393723Y-55798980D01*
X126631819Y-55798980D01*
X126727057Y-55751361D01*
X126774676Y-55703742D01*
X126822295Y-55608504D01*
X126822295Y-55513266D01*
X126774676Y-55418028D01*
X126727057Y-55370409D01*
X126631819Y-55322790D01*
X126441342Y-55275171D01*
X126346104Y-55227552D01*
X126298485Y-55179933D01*
X126250866Y-55084695D01*
X126250866Y-54989457D01*
X126298485Y-54894219D01*
X126346104Y-54846600D01*
X126441342Y-54798980D01*
X126679438Y-54798980D01*
X126822295Y-54846600D01*
X127155628Y-54798980D02*
X127393723Y-55798980D01*
X127584200Y-55084695D01*
X127774676Y-55798980D01*
X128012771Y-54798980D01*
X128917533Y-55798980D02*
X128346104Y-55798980D01*
X128631819Y-55798980D02*
X128631819Y-54798980D01*
X128536580Y-54941838D01*
X128441342Y-55037076D01*
X128346104Y-55084695D01*
X177573371Y-133170561D02*
X177716228Y-133218180D01*
X177954323Y-133218180D01*
X178049561Y-133170561D01*
X178097180Y-133122942D01*
X178144800Y-133027704D01*
X178144800Y-132932466D01*
X178097180Y-132837228D01*
X178049561Y-132789609D01*
X177954323Y-132741990D01*
X177763847Y-132694371D01*
X177668609Y-132646752D01*
X177620990Y-132599133D01*
X177573371Y-132503895D01*
X177573371Y-132408657D01*
X177620990Y-132313419D01*
X177668609Y-132265800D01*
X177763847Y-132218180D01*
X178001942Y-132218180D01*
X178144800Y-132265800D01*
X178478133Y-132218180D02*
X178716228Y-133218180D01*
X178906704Y-132503895D01*
X179097180Y-133218180D01*
X179335276Y-132218180D01*
X179478133Y-133313419D02*
X180240038Y-133313419D01*
X181049561Y-133218180D02*
X180716228Y-132741990D01*
X180478133Y-133218180D02*
X180478133Y-132218180D01*
X180859085Y-132218180D01*
X180954323Y-132265800D01*
X181001942Y-132313419D01*
X181049561Y-132408657D01*
X181049561Y-132551514D01*
X181001942Y-132646752D01*
X180954323Y-132694371D01*
X180859085Y-132741990D01*
X180478133Y-132741990D01*
X181430514Y-133170561D02*
X181573371Y-133218180D01*
X181811466Y-133218180D01*
X181906704Y-133170561D01*
X181954323Y-133122942D01*
X182001942Y-133027704D01*
X182001942Y-132932466D01*
X181954323Y-132837228D01*
X181906704Y-132789609D01*
X181811466Y-132741990D01*
X181620990Y-132694371D01*
X181525752Y-132646752D01*
X181478133Y-132599133D01*
X181430514Y-132503895D01*
X181430514Y-132408657D01*
X181478133Y-132313419D01*
X181525752Y-132265800D01*
X181620990Y-132218180D01*
X181859085Y-132218180D01*
X182001942Y-132265800D01*
X182287657Y-132218180D02*
X182859085Y-132218180D01*
X182573371Y-133218180D02*
X182573371Y-132218180D01*
X183716228Y-133218180D02*
X183144800Y-133218180D01*
X183430514Y-133218180D02*
X183430514Y-132218180D01*
X183335276Y-132361038D01*
X183240038Y-132456276D01*
X183144800Y-132503895D01*
X141706980Y-135613733D02*
X142421266Y-135613733D01*
X142564123Y-135661352D01*
X142659361Y-135756590D01*
X142706980Y-135899447D01*
X142706980Y-135994685D01*
X141706980Y-134708971D02*
X141706980Y-134899447D01*
X141754600Y-134994685D01*
X141802219Y-135042304D01*
X141945076Y-135137542D01*
X142135552Y-135185161D01*
X142516504Y-135185161D01*
X142611742Y-135137542D01*
X142659361Y-135089923D01*
X142706980Y-134994685D01*
X142706980Y-134804209D01*
X142659361Y-134708971D01*
X142611742Y-134661352D01*
X142516504Y-134613733D01*
X142278409Y-134613733D01*
X142183171Y-134661352D01*
X142135552Y-134708971D01*
X142087933Y-134804209D01*
X142087933Y-134994685D01*
X142135552Y-135089923D01*
X142183171Y-135137542D01*
X142278409Y-135185161D01*
X132029580Y-135588333D02*
X132743866Y-135588333D01*
X132886723Y-135635952D01*
X132981961Y-135731190D01*
X133029580Y-135874047D01*
X133029580Y-135969285D01*
X132029580Y-135207380D02*
X132029580Y-134540714D01*
X133029580Y-134969285D01*
X174255180Y-138763333D02*
X174969466Y-138763333D01*
X175112323Y-138810952D01*
X175207561Y-138906190D01*
X175255180Y-139049047D01*
X175255180Y-139144285D01*
X174683752Y-138144285D02*
X174636133Y-138239523D01*
X174588514Y-138287142D01*
X174493276Y-138334761D01*
X174445657Y-138334761D01*
X174350419Y-138287142D01*
X174302800Y-138239523D01*
X174255180Y-138144285D01*
X174255180Y-137953809D01*
X174302800Y-137858571D01*
X174350419Y-137810952D01*
X174445657Y-137763333D01*
X174493276Y-137763333D01*
X174588514Y-137810952D01*
X174636133Y-137858571D01*
X174683752Y-137953809D01*
X174683752Y-138144285D01*
X174731371Y-138239523D01*
X174778990Y-138287142D01*
X174874228Y-138334761D01*
X175064704Y-138334761D01*
X175159942Y-138287142D01*
X175207561Y-138239523D01*
X175255180Y-138144285D01*
X175255180Y-137953809D01*
X175207561Y-137858571D01*
X175159942Y-137810952D01*
X175064704Y-137763333D01*
X174874228Y-137763333D01*
X174778990Y-137810952D01*
X174731371Y-137858571D01*
X174683752Y-137953809D01*
X186610380Y-138788733D02*
X187324666Y-138788733D01*
X187467523Y-138836352D01*
X187562761Y-138931590D01*
X187610380Y-139074447D01*
X187610380Y-139169685D01*
X187610380Y-138264923D02*
X187610380Y-138074447D01*
X187562761Y-137979209D01*
X187515142Y-137931590D01*
X187372285Y-137836352D01*
X187181809Y-137788733D01*
X186800857Y-137788733D01*
X186705619Y-137836352D01*
X186658000Y-137883971D01*
X186610380Y-137979209D01*
X186610380Y-138169685D01*
X186658000Y-138264923D01*
X186705619Y-138312542D01*
X186800857Y-138360161D01*
X187038952Y-138360161D01*
X187134190Y-138312542D01*
X187181809Y-138264923D01*
X187229428Y-138169685D01*
X187229428Y-137979209D01*
X187181809Y-137883971D01*
X187134190Y-137836352D01*
X187038952Y-137788733D01*
X177495295Y-54976780D02*
X177495295Y-55786304D01*
X177542914Y-55881542D01*
X177590533Y-55929161D01*
X177685771Y-55976780D01*
X177876247Y-55976780D01*
X177971485Y-55929161D01*
X178019104Y-55881542D01*
X178066723Y-55786304D01*
X178066723Y-54976780D01*
X178447676Y-54976780D02*
X179066723Y-54976780D01*
X178733390Y-55357733D01*
X178876247Y-55357733D01*
X178971485Y-55405352D01*
X179019104Y-55452971D01*
X179066723Y-55548209D01*
X179066723Y-55786304D01*
X179019104Y-55881542D01*
X178971485Y-55929161D01*
X178876247Y-55976780D01*
X178590533Y-55976780D01*
X178495295Y-55929161D01*
X178447676Y-55881542D01*
X189512819Y-118738638D02*
X189465200Y-118833876D01*
X189369961Y-118929114D01*
X189227104Y-119071971D01*
X189179485Y-119167209D01*
X189179485Y-119262447D01*
X189417580Y-119214828D02*
X189369961Y-119310066D01*
X189274723Y-119405304D01*
X189084247Y-119452923D01*
X188750914Y-119452923D01*
X188560438Y-119405304D01*
X188465200Y-119310066D01*
X188417580Y-119214828D01*
X188417580Y-119024352D01*
X188465200Y-118929114D01*
X188560438Y-118833876D01*
X188750914Y-118786257D01*
X189084247Y-118786257D01*
X189274723Y-118833876D01*
X189369961Y-118929114D01*
X189417580Y-119024352D01*
X189417580Y-119214828D01*
X189417580Y-118310066D02*
X189417580Y-118119590D01*
X189369961Y-118024352D01*
X189322342Y-117976733D01*
X189179485Y-117881495D01*
X188989009Y-117833876D01*
X188608057Y-117833876D01*
X188512819Y-117881495D01*
X188465200Y-117929114D01*
X188417580Y-118024352D01*
X188417580Y-118214828D01*
X188465200Y-118310066D01*
X188512819Y-118357685D01*
X188608057Y-118405304D01*
X188846152Y-118405304D01*
X188941390Y-118357685D01*
X188989009Y-118310066D01*
X189036628Y-118214828D01*
X189036628Y-118024352D01*
X188989009Y-117929114D01*
X188941390Y-117881495D01*
X188846152Y-117833876D01*
X169303771Y-138672819D02*
X169208533Y-138625200D01*
X169113295Y-138529961D01*
X168970438Y-138387104D01*
X168875200Y-138339485D01*
X168779961Y-138339485D01*
X168827580Y-138577580D02*
X168732342Y-138529961D01*
X168637104Y-138434723D01*
X168589485Y-138244247D01*
X168589485Y-137910914D01*
X168637104Y-137720438D01*
X168732342Y-137625200D01*
X168827580Y-137577580D01*
X169018057Y-137577580D01*
X169113295Y-137625200D01*
X169208533Y-137720438D01*
X169256152Y-137910914D01*
X169256152Y-138244247D01*
X169208533Y-138434723D01*
X169113295Y-138529961D01*
X169018057Y-138577580D01*
X168827580Y-138577580D01*
X170208533Y-138577580D02*
X169637104Y-138577580D01*
X169922819Y-138577580D02*
X169922819Y-137577580D01*
X169827580Y-137720438D01*
X169732342Y-137815676D01*
X169637104Y-137863295D01*
X170827580Y-137577580D02*
X170922819Y-137577580D01*
X171018057Y-137625200D01*
X171065676Y-137672819D01*
X171113295Y-137768057D01*
X171160914Y-137958533D01*
X171160914Y-138196628D01*
X171113295Y-138387104D01*
X171065676Y-138482342D01*
X171018057Y-138529961D01*
X170922819Y-138577580D01*
X170827580Y-138577580D01*
X170732342Y-138529961D01*
X170684723Y-138482342D01*
X170637104Y-138387104D01*
X170589485Y-138196628D01*
X170589485Y-137958533D01*
X170637104Y-137768057D01*
X170684723Y-137672819D01*
X170732342Y-137625200D01*
X170827580Y-137577580D01*
X133616771Y-120308619D02*
X133521533Y-120261000D01*
X133426295Y-120165761D01*
X133283438Y-120022904D01*
X133188200Y-119975285D01*
X133092961Y-119975285D01*
X133140580Y-120213380D02*
X133045342Y-120165761D01*
X132950104Y-120070523D01*
X132902485Y-119880047D01*
X132902485Y-119546714D01*
X132950104Y-119356238D01*
X133045342Y-119261000D01*
X133140580Y-119213380D01*
X133331057Y-119213380D01*
X133426295Y-119261000D01*
X133521533Y-119356238D01*
X133569152Y-119546714D01*
X133569152Y-119880047D01*
X133521533Y-120070523D01*
X133426295Y-120165761D01*
X133331057Y-120213380D01*
X133140580Y-120213380D01*
X134521533Y-120213380D02*
X133950104Y-120213380D01*
X134235819Y-120213380D02*
X134235819Y-119213380D01*
X134140580Y-119356238D01*
X134045342Y-119451476D01*
X133950104Y-119499095D01*
X135473914Y-120213380D02*
X134902485Y-120213380D01*
X135188200Y-120213380D02*
X135188200Y-119213380D01*
X135092961Y-119356238D01*
X134997723Y-119451476D01*
X134902485Y-119499095D01*
X152971571Y-141797019D02*
X152876333Y-141749400D01*
X152781095Y-141654161D01*
X152638238Y-141511304D01*
X152543000Y-141463685D01*
X152447761Y-141463685D01*
X152495380Y-141701780D02*
X152400142Y-141654161D01*
X152304904Y-141558923D01*
X152257285Y-141368447D01*
X152257285Y-141035114D01*
X152304904Y-140844638D01*
X152400142Y-140749400D01*
X152495380Y-140701780D01*
X152685857Y-140701780D01*
X152781095Y-140749400D01*
X152876333Y-140844638D01*
X152923952Y-141035114D01*
X152923952Y-141368447D01*
X152876333Y-141558923D01*
X152781095Y-141654161D01*
X152685857Y-141701780D01*
X152495380Y-141701780D01*
X153876333Y-141701780D02*
X153304904Y-141701780D01*
X153590619Y-141701780D02*
X153590619Y-140701780D01*
X153495380Y-140844638D01*
X153400142Y-140939876D01*
X153304904Y-140987495D01*
X154257285Y-140797019D02*
X154304904Y-140749400D01*
X154400142Y-140701780D01*
X154638238Y-140701780D01*
X154733476Y-140749400D01*
X154781095Y-140797019D01*
X154828714Y-140892257D01*
X154828714Y-140987495D01*
X154781095Y-141130352D01*
X154209666Y-141701780D01*
X154828714Y-141701780D01*
X139444457Y-96842342D02*
X139396838Y-96794723D01*
X139349219Y-96651866D01*
X139349219Y-96556628D01*
X139396838Y-96413771D01*
X139492076Y-96318533D01*
X139587314Y-96270914D01*
X139777790Y-96223295D01*
X139920647Y-96223295D01*
X140111123Y-96270914D01*
X140206361Y-96318533D01*
X140301600Y-96413771D01*
X140349219Y-96556628D01*
X140349219Y-96651866D01*
X140301600Y-96794723D01*
X140253980Y-96842342D01*
X140253980Y-97223295D02*
X140301600Y-97270914D01*
X140349219Y-97366152D01*
X140349219Y-97604247D01*
X140301600Y-97699485D01*
X140253980Y-97747104D01*
X140158742Y-97794723D01*
X140063504Y-97794723D01*
X139920647Y-97747104D01*
X139349219Y-97175676D01*
X139349219Y-97794723D01*
X140349219Y-98699485D02*
X140349219Y-98223295D01*
X139873028Y-98175676D01*
X139920647Y-98223295D01*
X139968266Y-98318533D01*
X139968266Y-98556628D01*
X139920647Y-98651866D01*
X139873028Y-98699485D01*
X139777790Y-98747104D01*
X139539695Y-98747104D01*
X139444457Y-98699485D01*
X139396838Y-98651866D01*
X139349219Y-98556628D01*
X139349219Y-98318533D01*
X139396838Y-98223295D01*
X139444457Y-98175676D01*
X158216695Y-107935780D02*
X158216695Y-108745304D01*
X158264314Y-108840542D01*
X158311933Y-108888161D01*
X158407171Y-108935780D01*
X158597647Y-108935780D01*
X158692885Y-108888161D01*
X158740504Y-108840542D01*
X158788123Y-108745304D01*
X158788123Y-107935780D01*
X159788123Y-108935780D02*
X159216695Y-108935780D01*
X159502409Y-108935780D02*
X159502409Y-107935780D01*
X159407171Y-108078638D01*
X159311933Y-108173876D01*
X159216695Y-108221495D01*
X192789276Y-103338380D02*
X192789276Y-104052666D01*
X192741657Y-104195523D01*
X192646419Y-104290761D01*
X192503561Y-104338380D01*
X192408323Y-104338380D01*
X193789276Y-104338380D02*
X193217847Y-104338380D01*
X193503561Y-104338380D02*
X193503561Y-103338380D01*
X193408323Y-103481238D01*
X193313085Y-103576476D01*
X193217847Y-103624095D01*
X194408323Y-103338380D02*
X194503561Y-103338380D01*
X194598800Y-103386000D01*
X194646419Y-103433619D01*
X194694038Y-103528857D01*
X194741657Y-103719333D01*
X194741657Y-103957428D01*
X194694038Y-104147904D01*
X194646419Y-104243142D01*
X194598800Y-104290761D01*
X194503561Y-104338380D01*
X194408323Y-104338380D01*
X194313085Y-104290761D01*
X194265466Y-104243142D01*
X194217847Y-104147904D01*
X194170228Y-103957428D01*
X194170228Y-103719333D01*
X194217847Y-103528857D01*
X194265466Y-103433619D01*
X194313085Y-103386000D01*
X194408323Y-103338380D01*
X143137095Y-58177180D02*
X143708523Y-58177180D01*
X143422809Y-59177180D02*
X143422809Y-58177180D01*
X144041857Y-59177180D02*
X144041857Y-58177180D01*
X144422809Y-58177180D01*
X144518047Y-58224800D01*
X144565666Y-58272419D01*
X144613285Y-58367657D01*
X144613285Y-58510514D01*
X144565666Y-58605752D01*
X144518047Y-58653371D01*
X144422809Y-58700990D01*
X144041857Y-58700990D01*
X145518047Y-58177180D02*
X145041857Y-58177180D01*
X144994238Y-58653371D01*
X145041857Y-58605752D01*
X145137095Y-58558133D01*
X145375190Y-58558133D01*
X145470428Y-58605752D01*
X145518047Y-58653371D01*
X145565666Y-58748609D01*
X145565666Y-58986704D01*
X145518047Y-59081942D01*
X145470428Y-59129561D01*
X145375190Y-59177180D01*
X145137095Y-59177180D01*
X145041857Y-59129561D01*
X144994238Y-59081942D01*
X139504895Y-58202580D02*
X140076323Y-58202580D01*
X139790609Y-59202580D02*
X139790609Y-58202580D01*
X140409657Y-59202580D02*
X140409657Y-58202580D01*
X140790609Y-58202580D01*
X140885847Y-58250200D01*
X140933466Y-58297819D01*
X140981085Y-58393057D01*
X140981085Y-58535914D01*
X140933466Y-58631152D01*
X140885847Y-58678771D01*
X140790609Y-58726390D01*
X140409657Y-58726390D01*
X141838228Y-58202580D02*
X141647752Y-58202580D01*
X141552514Y-58250200D01*
X141504895Y-58297819D01*
X141409657Y-58440676D01*
X141362038Y-58631152D01*
X141362038Y-59012104D01*
X141409657Y-59107342D01*
X141457276Y-59154961D01*
X141552514Y-59202580D01*
X141742990Y-59202580D01*
X141838228Y-59154961D01*
X141885847Y-59107342D01*
X141933466Y-59012104D01*
X141933466Y-58774009D01*
X141885847Y-58678771D01*
X141838228Y-58631152D01*
X141742990Y-58583533D01*
X141552514Y-58583533D01*
X141457276Y-58631152D01*
X141409657Y-58678771D01*
X141362038Y-58774009D01*
%LPC*%
G36*
G01*
X183882400Y-71712800D02*
X182182400Y-71712800D01*
G75*
G02*
X181982400Y-71512800I0J200000D01*
G01*
X181982400Y-69812800D01*
G75*
G02*
X182182400Y-69612800I200000J0D01*
G01*
X183882400Y-69612800D01*
G75*
G02*
X184082400Y-69812800I0J-200000D01*
G01*
X184082400Y-71512800D01*
G75*
G02*
X183882400Y-71712800I-200000J0D01*
G01*
G37*
D13*
X185572400Y-70662800D03*
G36*
G01*
X201532200Y-116955200D02*
X201532200Y-118655200D01*
G75*
G02*
X201332200Y-118855200I-200000J0D01*
G01*
X199632200Y-118855200D01*
G75*
G02*
X199432200Y-118655200I0J200000D01*
G01*
X199432200Y-116955200D01*
G75*
G02*
X199632200Y-116755200I200000J0D01*
G01*
X201332200Y-116755200D01*
G75*
G02*
X201532200Y-116955200I0J-200000D01*
G01*
G37*
X200482200Y-115265200D03*
X200482200Y-112725200D03*
X200482200Y-110185200D03*
X200482200Y-107645200D03*
X200482200Y-105105200D03*
D14*
X168198800Y-100253800D03*
X151790400Y-100253800D03*
X160083500Y-64262000D03*
X160020000Y-139954000D03*
X160096200Y-56413400D03*
X160020000Y-147828000D03*
G36*
G01*
X129201922Y-63424414D02*
X129549218Y-65394030D01*
G75*
G02*
X129386986Y-65625722I-196962J-34730D01*
G01*
X127417370Y-65973018D01*
G75*
G02*
X127185678Y-65810786I-34730J196962D01*
G01*
X126838382Y-63841170D01*
G75*
G02*
X127000614Y-63609478I196962J34730D01*
G01*
X128970230Y-63262182D01*
G75*
G02*
X129201922Y-63424414I34730J-196962D01*
G01*
G37*
D15*
X120709261Y-65937326D03*
G36*
G01*
X125438575Y-61554370D02*
X127170625Y-62554370D01*
G75*
G02*
X127243830Y-62827575I-100000J-173205D01*
G01*
X126243830Y-64559625D01*
G75*
G02*
X125970625Y-64632830I-173205J100000D01*
G01*
X124238575Y-63632830D01*
G75*
G02*
X124165370Y-63359625I100000J173205D01*
G01*
X125165370Y-61627575D01*
G75*
G02*
X125438575Y-61554370I173205J-100000D01*
G01*
G37*
X123204600Y-67423727D03*
G36*
G01*
X193049400Y-61074400D02*
X193049400Y-62674400D01*
G75*
G02*
X192849400Y-62874400I-200000J0D01*
G01*
X191249400Y-62874400D01*
G75*
G02*
X191049400Y-62674400I0J200000D01*
G01*
X191049400Y-61074400D01*
G75*
G02*
X191249400Y-60874400I200000J0D01*
G01*
X192849400Y-60874400D01*
G75*
G02*
X193049400Y-61074400I0J-200000D01*
G01*
G37*
D16*
X189549400Y-61874400D03*
G36*
G01*
X194690800Y-115740500D02*
X194690800Y-116415500D01*
G75*
G02*
X194353300Y-116753000I-337500J0D01*
G01*
X193553300Y-116753000D01*
G75*
G02*
X193215800Y-116415500I0J337500D01*
G01*
X193215800Y-115740500D01*
G75*
G02*
X193553300Y-115403000I337500J0D01*
G01*
X194353300Y-115403000D01*
G75*
G02*
X194690800Y-115740500I0J-337500D01*
G01*
G37*
G36*
G01*
X192965800Y-115740500D02*
X192965800Y-116415500D01*
G75*
G02*
X192628300Y-116753000I-337500J0D01*
G01*
X191828300Y-116753000D01*
G75*
G02*
X191490800Y-116415500I0J337500D01*
G01*
X191490800Y-115740500D01*
G75*
G02*
X191828300Y-115403000I337500J0D01*
G01*
X192628300Y-115403000D01*
G75*
G02*
X192965800Y-115740500I0J-337500D01*
G01*
G37*
G36*
G01*
X192940400Y-110762100D02*
X192940400Y-111437100D01*
G75*
G02*
X192602900Y-111774600I-337500J0D01*
G01*
X191802900Y-111774600D01*
G75*
G02*
X191465400Y-111437100I0J337500D01*
G01*
X191465400Y-110762100D01*
G75*
G02*
X191802900Y-110424600I337500J0D01*
G01*
X192602900Y-110424600D01*
G75*
G02*
X192940400Y-110762100I0J-337500D01*
G01*
G37*
G36*
G01*
X194665400Y-110762100D02*
X194665400Y-111437100D01*
G75*
G02*
X194327900Y-111774600I-337500J0D01*
G01*
X193527900Y-111774600D01*
G75*
G02*
X193190400Y-111437100I0J337500D01*
G01*
X193190400Y-110762100D01*
G75*
G02*
X193527900Y-110424600I337500J0D01*
G01*
X194327900Y-110424600D01*
G75*
G02*
X194665400Y-110762100I0J-337500D01*
G01*
G37*
G36*
G01*
X125226245Y-58797600D02*
X124100155Y-58797600D01*
G75*
G02*
X123763200Y-58460645I0J336955D01*
G01*
X123763200Y-57584555D01*
G75*
G02*
X124100155Y-57247600I336955J0D01*
G01*
X125226245Y-57247600D01*
G75*
G02*
X125563200Y-57584555I0J-336955D01*
G01*
X125563200Y-58460645D01*
G75*
G02*
X125226245Y-58797600I-336955J0D01*
G01*
G37*
G36*
G01*
X125226245Y-56747600D02*
X124100155Y-56747600D01*
G75*
G02*
X123763200Y-56410645I0J336955D01*
G01*
X123763200Y-55534555D01*
G75*
G02*
X124100155Y-55197600I336955J0D01*
G01*
X125226245Y-55197600D01*
G75*
G02*
X125563200Y-55534555I0J-336955D01*
G01*
X125563200Y-56410645D01*
G75*
G02*
X125226245Y-56747600I-336955J0D01*
G01*
G37*
G36*
G01*
X121162245Y-58797600D02*
X120036155Y-58797600D01*
G75*
G02*
X119699200Y-58460645I0J336955D01*
G01*
X119699200Y-57584555D01*
G75*
G02*
X120036155Y-57247600I336955J0D01*
G01*
X121162245Y-57247600D01*
G75*
G02*
X121499200Y-57584555I0J-336955D01*
G01*
X121499200Y-58460645D01*
G75*
G02*
X121162245Y-58797600I-336955J0D01*
G01*
G37*
G36*
G01*
X121162245Y-56747600D02*
X120036155Y-56747600D01*
G75*
G02*
X119699200Y-56410645I0J336955D01*
G01*
X119699200Y-55534555D01*
G75*
G02*
X120036155Y-55197600I336955J0D01*
G01*
X121162245Y-55197600D01*
G75*
G02*
X121499200Y-55534555I0J-336955D01*
G01*
X121499200Y-56410645D01*
G75*
G02*
X121162245Y-56747600I-336955J0D01*
G01*
G37*
G36*
G01*
X123194245Y-56747600D02*
X122068155Y-56747600D01*
G75*
G02*
X121731200Y-56410645I0J336955D01*
G01*
X121731200Y-55534555D01*
G75*
G02*
X122068155Y-55197600I336955J0D01*
G01*
X123194245Y-55197600D01*
G75*
G02*
X123531200Y-55534555I0J-336955D01*
G01*
X123531200Y-56410645D01*
G75*
G02*
X123194245Y-56747600I-336955J0D01*
G01*
G37*
G36*
G01*
X123194245Y-58797600D02*
X122068155Y-58797600D01*
G75*
G02*
X121731200Y-58460645I0J336955D01*
G01*
X121731200Y-57584555D01*
G75*
G02*
X122068155Y-57247600I336955J0D01*
G01*
X123194245Y-57247600D01*
G75*
G02*
X123531200Y-57584555I0J-336955D01*
G01*
X123531200Y-58460645D01*
G75*
G02*
X123194245Y-58797600I-336955J0D01*
G01*
G37*
G36*
G01*
X193290400Y-113037300D02*
X193290400Y-112362300D01*
G75*
G02*
X193627900Y-112024800I337500J0D01*
G01*
X194327900Y-112024800D01*
G75*
G02*
X194665400Y-112362300I0J-337500D01*
G01*
X194665400Y-113037300D01*
G75*
G02*
X194327900Y-113374800I-337500J0D01*
G01*
X193627900Y-113374800D01*
G75*
G02*
X193290400Y-113037300I0J337500D01*
G01*
G37*
G36*
G01*
X191465400Y-113037300D02*
X191465400Y-112362300D01*
G75*
G02*
X191802900Y-112024800I337500J0D01*
G01*
X192502900Y-112024800D01*
G75*
G02*
X192840400Y-112362300I0J-337500D01*
G01*
X192840400Y-113037300D01*
G75*
G02*
X192502900Y-113374800I-337500J0D01*
G01*
X191802900Y-113374800D01*
G75*
G02*
X191465400Y-113037300I0J337500D01*
G01*
G37*
G36*
G01*
X194690800Y-114165700D02*
X194690800Y-114840700D01*
G75*
G02*
X194353300Y-115178200I-337500J0D01*
G01*
X193653300Y-115178200D01*
G75*
G02*
X193315800Y-114840700I0J337500D01*
G01*
X193315800Y-114165700D01*
G75*
G02*
X193653300Y-113828200I337500J0D01*
G01*
X194353300Y-113828200D01*
G75*
G02*
X194690800Y-114165700I0J-337500D01*
G01*
G37*
G36*
G01*
X192865800Y-114165700D02*
X192865800Y-114840700D01*
G75*
G02*
X192528300Y-115178200I-337500J0D01*
G01*
X191828300Y-115178200D01*
G75*
G02*
X191490800Y-114840700I0J337500D01*
G01*
X191490800Y-114165700D01*
G75*
G02*
X191828300Y-113828200I337500J0D01*
G01*
X192528300Y-113828200D01*
G75*
G02*
X192865800Y-114165700I0J-337500D01*
G01*
G37*
G36*
G01*
X121781800Y-113546000D02*
X121781800Y-114546000D01*
G75*
G02*
X121581800Y-114746000I-200000J0D01*
G01*
X120581800Y-114746000D01*
G75*
G02*
X120381800Y-114546000I0J200000D01*
G01*
X120381800Y-113546000D01*
G75*
G02*
X120581800Y-113346000I200000J0D01*
G01*
X121581800Y-113346000D01*
G75*
G02*
X121781800Y-113546000I0J-200000D01*
G01*
G37*
D17*
X119811800Y-114046000D03*
X121081800Y-112776000D03*
X119811800Y-112776000D03*
X121081800Y-111506000D03*
X119811800Y-111506000D03*
X121081800Y-110236000D03*
X119811800Y-110236000D03*
X121081800Y-108966000D03*
X119811800Y-108966000D03*
G36*
G01*
X126204000Y-107225200D02*
X126204000Y-105525200D01*
G75*
G02*
X126404000Y-105325200I200000J0D01*
G01*
X128104000Y-105325200D01*
G75*
G02*
X128304000Y-105525200I0J-200000D01*
G01*
X128304000Y-107225200D01*
G75*
G02*
X128104000Y-107425200I-200000J0D01*
G01*
X126404000Y-107425200D01*
G75*
G02*
X126204000Y-107225200I0J200000D01*
G01*
G37*
D13*
X127254000Y-108915200D03*
X127254000Y-111455200D03*
X127254000Y-113995200D03*
X127254000Y-116535200D03*
D18*
X190677800Y-123596400D03*
X189407800Y-122326400D03*
G36*
G01*
X192797800Y-121676400D02*
X192797800Y-122976400D01*
G75*
G02*
X192597800Y-123176400I-200000J0D01*
G01*
X191297800Y-123176400D01*
G75*
G02*
X191097800Y-122976400I0J200000D01*
G01*
X191097800Y-121676400D01*
G75*
G02*
X191297800Y-121476400I200000J0D01*
G01*
X192597800Y-121476400D01*
G75*
G02*
X192797800Y-121676400I0J-200000D01*
G01*
G37*
G36*
G01*
X167601000Y-133741400D02*
X167601000Y-135041400D01*
G75*
G02*
X167401000Y-135241400I-200000J0D01*
G01*
X166101000Y-135241400D01*
G75*
G02*
X165901000Y-135041400I0J200000D01*
G01*
X165901000Y-133741400D01*
G75*
G02*
X166101000Y-133541400I200000J0D01*
G01*
X167401000Y-133541400D01*
G75*
G02*
X167601000Y-133741400I0J-200000D01*
G01*
G37*
X164211000Y-134391400D03*
X165481000Y-135661400D03*
X129692400Y-123393200D03*
X128422400Y-122123200D03*
G36*
G01*
X131812400Y-121473200D02*
X131812400Y-122773200D01*
G75*
G02*
X131612400Y-122973200I-200000J0D01*
G01*
X130312400Y-122973200D01*
G75*
G02*
X130112400Y-122773200I0J200000D01*
G01*
X130112400Y-121473200D01*
G75*
G02*
X130312400Y-121273200I200000J0D01*
G01*
X131612400Y-121273200D01*
G75*
G02*
X131812400Y-121473200I0J-200000D01*
G01*
G37*
G36*
G01*
X156882200Y-133741400D02*
X156882200Y-135041400D01*
G75*
G02*
X156682200Y-135241400I-200000J0D01*
G01*
X155382200Y-135241400D01*
G75*
G02*
X155182200Y-135041400I0J200000D01*
G01*
X155182200Y-133741400D01*
G75*
G02*
X155382200Y-133541400I200000J0D01*
G01*
X156682200Y-133541400D01*
G75*
G02*
X156882200Y-133741400I0J-200000D01*
G01*
G37*
X153492200Y-134391400D03*
X154762200Y-135661400D03*
X132308600Y-62026800D03*
X133578600Y-60756800D03*
G36*
G01*
X134228600Y-64146800D02*
X132928600Y-64146800D01*
G75*
G02*
X132728600Y-63946800I0J200000D01*
G01*
X132728600Y-62646800D01*
G75*
G02*
X132928600Y-62446800I200000J0D01*
G01*
X134228600Y-62446800D01*
G75*
G02*
X134428600Y-62646800I0J-200000D01*
G01*
X134428600Y-63946800D01*
G75*
G02*
X134228600Y-64146800I-200000J0D01*
G01*
G37*
G36*
G01*
X188708079Y-133667200D02*
X187211921Y-133667200D01*
G75*
G02*
X186885000Y-133340279I0J326921D01*
G01*
X186885000Y-132294121D01*
G75*
G02*
X187211921Y-131967200I326921J0D01*
G01*
X188708079Y-131967200D01*
G75*
G02*
X189035000Y-132294121I0J-326921D01*
G01*
X189035000Y-133340279D01*
G75*
G02*
X188708079Y-133667200I-326921J0D01*
G01*
G37*
G36*
G01*
X188708079Y-130567200D02*
X187211921Y-130567200D01*
G75*
G02*
X186885000Y-130240279I0J326921D01*
G01*
X186885000Y-129194121D01*
G75*
G02*
X187211921Y-128867200I326921J0D01*
G01*
X188708079Y-128867200D01*
G75*
G02*
X189035000Y-129194121I0J-326921D01*
G01*
X189035000Y-130240279D01*
G75*
G02*
X188708079Y-130567200I-326921J0D01*
G01*
G37*
G36*
G01*
X172124321Y-135675600D02*
X173620479Y-135675600D01*
G75*
G02*
X173947400Y-136002521I0J-326921D01*
G01*
X173947400Y-137048679D01*
G75*
G02*
X173620479Y-137375600I-326921J0D01*
G01*
X172124321Y-137375600D01*
G75*
G02*
X171797400Y-137048679I0J326921D01*
G01*
X171797400Y-136002521D01*
G75*
G02*
X172124321Y-135675600I326921J0D01*
G01*
G37*
G36*
G01*
X172124321Y-132575600D02*
X173620479Y-132575600D01*
G75*
G02*
X173947400Y-132902521I0J-326921D01*
G01*
X173947400Y-133948679D01*
G75*
G02*
X173620479Y-134275600I-326921J0D01*
G01*
X172124321Y-134275600D01*
G75*
G02*
X171797400Y-133948679I0J326921D01*
G01*
X171797400Y-132902521D01*
G75*
G02*
X172124321Y-132575600I326921J0D01*
G01*
G37*
G36*
G01*
X133412279Y-130847800D02*
X131916121Y-130847800D01*
G75*
G02*
X131589200Y-130520879I0J326921D01*
G01*
X131589200Y-129474721D01*
G75*
G02*
X131916121Y-129147800I326921J0D01*
G01*
X133412279Y-129147800D01*
G75*
G02*
X133739200Y-129474721I0J-326921D01*
G01*
X133739200Y-130520879D01*
G75*
G02*
X133412279Y-130847800I-326921J0D01*
G01*
G37*
G36*
G01*
X133412279Y-127747800D02*
X131916121Y-127747800D01*
G75*
G02*
X131589200Y-127420879I0J326921D01*
G01*
X131589200Y-126374721D01*
G75*
G02*
X131916121Y-126047800I326921J0D01*
G01*
X133412279Y-126047800D01*
G75*
G02*
X133739200Y-126374721I0J-326921D01*
G01*
X133739200Y-127420879D01*
G75*
G02*
X133412279Y-127747800I-326921J0D01*
G01*
G37*
G36*
G01*
X149696121Y-135421600D02*
X151192279Y-135421600D01*
G75*
G02*
X151519200Y-135748521I0J-326921D01*
G01*
X151519200Y-136794679D01*
G75*
G02*
X151192279Y-137121600I-326921J0D01*
G01*
X149696121Y-137121600D01*
G75*
G02*
X149369200Y-136794679I0J326921D01*
G01*
X149369200Y-135748521D01*
G75*
G02*
X149696121Y-135421600I326921J0D01*
G01*
G37*
G36*
G01*
X149696121Y-132321600D02*
X151192279Y-132321600D01*
G75*
G02*
X151519200Y-132648521I0J-326921D01*
G01*
X151519200Y-133694679D01*
G75*
G02*
X151192279Y-134021600I-326921J0D01*
G01*
X149696121Y-134021600D01*
G75*
G02*
X149369200Y-133694679I0J326921D01*
G01*
X149369200Y-132648521D01*
G75*
G02*
X149696121Y-132321600I326921J0D01*
G01*
G37*
D19*
X198196200Y-63119000D03*
X198196200Y-67945000D03*
X198196200Y-58293000D03*
G36*
G01*
X191885200Y-55515800D02*
X193585200Y-55515800D01*
G75*
G02*
X193785200Y-55715800I0J-200000D01*
G01*
X193785200Y-57415800D01*
G75*
G02*
X193585200Y-57615800I-200000J0D01*
G01*
X191885200Y-57615800D01*
G75*
G02*
X191685200Y-57415800I0J200000D01*
G01*
X191685200Y-55715800D01*
G75*
G02*
X191885200Y-55515800I200000J0D01*
G01*
G37*
G36*
G01*
X137778200Y-137453000D02*
X137778200Y-139153000D01*
G75*
G02*
X137578200Y-139353000I-200000J0D01*
G01*
X135878200Y-139353000D01*
G75*
G02*
X135678200Y-139153000I0J200000D01*
G01*
X135678200Y-137453000D01*
G75*
G02*
X135878200Y-137253000I200000J0D01*
G01*
X137578200Y-137253000D01*
G75*
G02*
X137778200Y-137453000I0J-200000D01*
G01*
G37*
G36*
G01*
X138112400Y-69199000D02*
X136512400Y-69199000D01*
G75*
G02*
X136312400Y-68999000I0J200000D01*
G01*
X136312400Y-67399000D01*
G75*
G02*
X136512400Y-67199000I200000J0D01*
G01*
X138112400Y-67199000D01*
G75*
G02*
X138312400Y-67399000I0J-200000D01*
G01*
X138312400Y-68999000D01*
G75*
G02*
X138112400Y-69199000I-200000J0D01*
G01*
G37*
D20*
X155092400Y-60579000D03*
X139852400Y-68199000D03*
X152552400Y-60579000D03*
X142392400Y-68199000D03*
X150012400Y-60579000D03*
X144932400Y-68199000D03*
X147472400Y-60579000D03*
X147472400Y-68199000D03*
X144932400Y-60579000D03*
X150012400Y-68199000D03*
X142392400Y-60579000D03*
X152552400Y-68199000D03*
X139852400Y-60579000D03*
X155092400Y-68199000D03*
X137312400Y-60579000D03*
D21*
X132254000Y-78376000D03*
X132254000Y-96376000D03*
X187786000Y-78376000D03*
X187786000Y-96376000D03*
D19*
X161493200Y-73406000D03*
X166319200Y-73406000D03*
X156667200Y-73406000D03*
G36*
G01*
X194835600Y-122058000D02*
X194835600Y-120258000D01*
G75*
G02*
X195035600Y-120058000I200000J0D01*
G01*
X196835600Y-120058000D01*
G75*
G02*
X197035600Y-120258000I0J-200000D01*
G01*
X197035600Y-122058000D01*
G75*
G02*
X196835600Y-122258000I-200000J0D01*
G01*
X195035600Y-122258000D01*
G75*
G02*
X194835600Y-122058000I0J200000D01*
G01*
G37*
D22*
X198475600Y-121158000D03*
D15*
X197205600Y-124968000D03*
X165875971Y-145140247D03*
D22*
X163032942Y-142303667D03*
G36*
G01*
X162214223Y-145962806D02*
X160603341Y-145159650D01*
G75*
G02*
X160513594Y-144891423I89240J178987D01*
G01*
X161316750Y-143280541D01*
G75*
G02*
X161584977Y-143190794I178987J-89240D01*
G01*
X163195859Y-143993950D01*
G75*
G02*
X163285606Y-144262177I-89240J-178987D01*
G01*
X162482450Y-145873059D01*
G75*
G02*
X162214223Y-145962806I-178987J89240D01*
G01*
G37*
D15*
X122948700Y-124841000D03*
D22*
X124218700Y-121031000D03*
G36*
G01*
X120578700Y-121931000D02*
X120578700Y-120131000D01*
G75*
G02*
X120778700Y-119931000I200000J0D01*
G01*
X122578700Y-119931000D01*
G75*
G02*
X122778700Y-120131000I0J-200000D01*
G01*
X122778700Y-121931000D01*
G75*
G02*
X122578700Y-122131000I-200000J0D01*
G01*
X120778700Y-122131000D01*
G75*
G02*
X120578700Y-121931000I0J200000D01*
G01*
G37*
G36*
G01*
X155786999Y-141720817D02*
X157397881Y-140917661D01*
G75*
G02*
X157666108Y-141007408I89240J-178987D01*
G01*
X158469264Y-142618290D01*
G75*
G02*
X158379517Y-142886517I-178987J-89240D01*
G01*
X156768635Y-143689673D01*
G75*
G02*
X156500408Y-143599926I-89240J178987D01*
G01*
X155697252Y-141989044D01*
G75*
G02*
X155786999Y-141720817I178987J89240D01*
G01*
G37*
X158216600Y-144576800D03*
D15*
X154240229Y-145140247D03*
G36*
G01*
X189349200Y-127950800D02*
X189349200Y-126150800D01*
G75*
G02*
X189549200Y-125950800I200000J0D01*
G01*
X191349200Y-125950800D01*
G75*
G02*
X191549200Y-126150800I0J-200000D01*
G01*
X191549200Y-127950800D01*
G75*
G02*
X191349200Y-128150800I-200000J0D01*
G01*
X189549200Y-128150800D01*
G75*
G02*
X189349200Y-127950800I0J200000D01*
G01*
G37*
D22*
X192989200Y-127050800D03*
D15*
X191719200Y-130860800D03*
X173699171Y-142574847D03*
D22*
X170856142Y-139738267D03*
G36*
G01*
X170037423Y-143397406D02*
X168426541Y-142594250D01*
G75*
G02*
X168336794Y-142326023I89240J178987D01*
G01*
X169139950Y-140715141D01*
G75*
G02*
X169408177Y-140625394I178987J-89240D01*
G01*
X171019059Y-141428550D01*
G75*
G02*
X171108806Y-141696777I-89240J-178987D01*
G01*
X170305650Y-143307659D01*
G75*
G02*
X170037423Y-143397406I-178987J89240D01*
G01*
G37*
G36*
G01*
X126458800Y-127823800D02*
X126458800Y-126023800D01*
G75*
G02*
X126658800Y-125823800I200000J0D01*
G01*
X128458800Y-125823800D01*
G75*
G02*
X128658800Y-126023800I0J-200000D01*
G01*
X128658800Y-127823800D01*
G75*
G02*
X128458800Y-128023800I-200000J0D01*
G01*
X126658800Y-128023800D01*
G75*
G02*
X126458800Y-127823800I0J200000D01*
G01*
G37*
X130098800Y-126923800D03*
D15*
X128828800Y-130733800D03*
X146442429Y-142574847D03*
D22*
X150418800Y-142011400D03*
G36*
G01*
X147989199Y-139155417D02*
X149600081Y-138352261D01*
G75*
G02*
X149868308Y-138442008I89240J-178987D01*
G01*
X150671464Y-140052890D01*
G75*
G02*
X150581717Y-140321117I-178987J-89240D01*
G01*
X148970835Y-141124273D01*
G75*
G02*
X148702608Y-141034526I-89240J178987D01*
G01*
X147899452Y-139423644D01*
G75*
G02*
X147989199Y-139155417I178987J89240D01*
G01*
G37*
G36*
G01*
X163309469Y-64835000D02*
X164858531Y-64835000D01*
G75*
G02*
X165184000Y-65160469I0J-325469D01*
G01*
X165184000Y-66234531D01*
G75*
G02*
X164858531Y-66560000I-325469J0D01*
G01*
X163309469Y-66560000D01*
G75*
G02*
X162984000Y-66234531I0J325469D01*
G01*
X162984000Y-65160469D01*
G75*
G02*
X163309469Y-64835000I325469J0D01*
G01*
G37*
G36*
G01*
X163309469Y-61710000D02*
X164858531Y-61710000D01*
G75*
G02*
X165184000Y-62035469I0J-325469D01*
G01*
X165184000Y-63109531D01*
G75*
G02*
X164858531Y-63435000I-325469J0D01*
G01*
X163309469Y-63435000D01*
G75*
G02*
X162984000Y-63109531I0J325469D01*
G01*
X162984000Y-62035469D01*
G75*
G02*
X163309469Y-61710000I325469J0D01*
G01*
G37*
G36*
G01*
X166890600Y-60537600D02*
X165290600Y-60537600D01*
G75*
G02*
X165090600Y-60337600I0J200000D01*
G01*
X165090600Y-58737600D01*
G75*
G02*
X165290600Y-58537600I200000J0D01*
G01*
X166890600Y-58537600D01*
G75*
G02*
X167090600Y-58737600I0J-200000D01*
G01*
X167090600Y-60337600D01*
G75*
G02*
X166890600Y-60537600I-200000J0D01*
G01*
G37*
D16*
X166090600Y-57037600D03*
G36*
G01*
X142211800Y-73458332D02*
X142211800Y-74991668D01*
G75*
G02*
X141878468Y-75325000I-333332J0D01*
G01*
X140945132Y-75325000D01*
G75*
G02*
X140611800Y-74991668I0J333332D01*
G01*
X140611800Y-73458332D01*
G75*
G02*
X140945132Y-73125000I333332J0D01*
G01*
X141878468Y-73125000D01*
G75*
G02*
X142211800Y-73458332I0J-333332D01*
G01*
G37*
G36*
G01*
X149811800Y-73458332D02*
X149811800Y-74991668D01*
G75*
G02*
X149478468Y-75325000I-333332J0D01*
G01*
X148545132Y-75325000D01*
G75*
G02*
X148211800Y-74991668I0J333332D01*
G01*
X148211800Y-73458332D01*
G75*
G02*
X148545132Y-73125000I333332J0D01*
G01*
X149478468Y-73125000D01*
G75*
G02*
X149811800Y-73458332I0J-333332D01*
G01*
G37*
G36*
G01*
X143211800Y-70975000D02*
X143211800Y-72425000D01*
G75*
G02*
X142961800Y-72675000I-250000J0D01*
G01*
X142461800Y-72675000D01*
G75*
G02*
X142211800Y-72425000I0J250000D01*
G01*
X142211800Y-70975000D01*
G75*
G02*
X142461800Y-70725000I250000J0D01*
G01*
X142961800Y-70725000D01*
G75*
G02*
X143211800Y-70975000I0J-250000D01*
G01*
G37*
G36*
G01*
X144211800Y-70975000D02*
X144211800Y-72425000D01*
G75*
G02*
X143961800Y-72675000I-250000J0D01*
G01*
X143461800Y-72675000D01*
G75*
G02*
X143211800Y-72425000I0J250000D01*
G01*
X143211800Y-70975000D01*
G75*
G02*
X143461800Y-70725000I250000J0D01*
G01*
X143961800Y-70725000D01*
G75*
G02*
X144211800Y-70975000I0J-250000D01*
G01*
G37*
G36*
G01*
X145211800Y-70975000D02*
X145211800Y-72425000D01*
G75*
G02*
X144961800Y-72675000I-250000J0D01*
G01*
X144461800Y-72675000D01*
G75*
G02*
X144211800Y-72425000I0J250000D01*
G01*
X144211800Y-70975000D01*
G75*
G02*
X144461800Y-70725000I250000J0D01*
G01*
X144961800Y-70725000D01*
G75*
G02*
X145211800Y-70975000I0J-250000D01*
G01*
G37*
G36*
G01*
X146211800Y-70975000D02*
X146211800Y-72425000D01*
G75*
G02*
X145961800Y-72675000I-250000J0D01*
G01*
X145461800Y-72675000D01*
G75*
G02*
X145211800Y-72425000I0J250000D01*
G01*
X145211800Y-70975000D01*
G75*
G02*
X145461800Y-70725000I250000J0D01*
G01*
X145961800Y-70725000D01*
G75*
G02*
X146211800Y-70975000I0J-250000D01*
G01*
G37*
G36*
G01*
X147211800Y-70975000D02*
X147211800Y-72425000D01*
G75*
G02*
X146961800Y-72675000I-250000J0D01*
G01*
X146461800Y-72675000D01*
G75*
G02*
X146211800Y-72425000I0J250000D01*
G01*
X146211800Y-70975000D01*
G75*
G02*
X146461800Y-70725000I250000J0D01*
G01*
X146961800Y-70725000D01*
G75*
G02*
X147211800Y-70975000I0J-250000D01*
G01*
G37*
G36*
G01*
X148211800Y-70975000D02*
X148211800Y-72425000D01*
G75*
G02*
X147961800Y-72675000I-250000J0D01*
G01*
X147461800Y-72675000D01*
G75*
G02*
X147211800Y-72425000I0J250000D01*
G01*
X147211800Y-70975000D01*
G75*
G02*
X147461800Y-70725000I250000J0D01*
G01*
X147961800Y-70725000D01*
G75*
G02*
X148211800Y-70975000I0J-250000D01*
G01*
G37*
G36*
G01*
X178158400Y-70644800D02*
X178158400Y-72094800D01*
G75*
G02*
X177908400Y-72344800I-250000J0D01*
G01*
X177408400Y-72344800D01*
G75*
G02*
X177158400Y-72094800I0J250000D01*
G01*
X177158400Y-70644800D01*
G75*
G02*
X177408400Y-70394800I250000J0D01*
G01*
X177908400Y-70394800D01*
G75*
G02*
X178158400Y-70644800I0J-250000D01*
G01*
G37*
G36*
G01*
X177158400Y-70644800D02*
X177158400Y-72094800D01*
G75*
G02*
X176908400Y-72344800I-250000J0D01*
G01*
X176408400Y-72344800D01*
G75*
G02*
X176158400Y-72094800I0J250000D01*
G01*
X176158400Y-70644800D01*
G75*
G02*
X176408400Y-70394800I250000J0D01*
G01*
X176908400Y-70394800D01*
G75*
G02*
X177158400Y-70644800I0J-250000D01*
G01*
G37*
G36*
G01*
X176158400Y-70644800D02*
X176158400Y-72094800D01*
G75*
G02*
X175908400Y-72344800I-250000J0D01*
G01*
X175408400Y-72344800D01*
G75*
G02*
X175158400Y-72094800I0J250000D01*
G01*
X175158400Y-70644800D01*
G75*
G02*
X175408400Y-70394800I250000J0D01*
G01*
X175908400Y-70394800D01*
G75*
G02*
X176158400Y-70644800I0J-250000D01*
G01*
G37*
G36*
G01*
X175158400Y-70644800D02*
X175158400Y-72094800D01*
G75*
G02*
X174908400Y-72344800I-250000J0D01*
G01*
X174408400Y-72344800D01*
G75*
G02*
X174158400Y-72094800I0J250000D01*
G01*
X174158400Y-70644800D01*
G75*
G02*
X174408400Y-70394800I250000J0D01*
G01*
X174908400Y-70394800D01*
G75*
G02*
X175158400Y-70644800I0J-250000D01*
G01*
G37*
G36*
G01*
X174158400Y-70644800D02*
X174158400Y-72094800D01*
G75*
G02*
X173908400Y-72344800I-250000J0D01*
G01*
X173408400Y-72344800D01*
G75*
G02*
X173158400Y-72094800I0J250000D01*
G01*
X173158400Y-70644800D01*
G75*
G02*
X173408400Y-70394800I250000J0D01*
G01*
X173908400Y-70394800D01*
G75*
G02*
X174158400Y-70644800I0J-250000D01*
G01*
G37*
G36*
G01*
X173158400Y-70644800D02*
X173158400Y-72094800D01*
G75*
G02*
X172908400Y-72344800I-250000J0D01*
G01*
X172408400Y-72344800D01*
G75*
G02*
X172158400Y-72094800I0J250000D01*
G01*
X172158400Y-70644800D01*
G75*
G02*
X172408400Y-70394800I250000J0D01*
G01*
X172908400Y-70394800D01*
G75*
G02*
X173158400Y-70644800I0J-250000D01*
G01*
G37*
G36*
G01*
X179758400Y-73128132D02*
X179758400Y-74661468D01*
G75*
G02*
X179425068Y-74994800I-333332J0D01*
G01*
X178491732Y-74994800D01*
G75*
G02*
X178158400Y-74661468I0J333332D01*
G01*
X178158400Y-73128132D01*
G75*
G02*
X178491732Y-72794800I333332J0D01*
G01*
X179425068Y-72794800D01*
G75*
G02*
X179758400Y-73128132I0J-333332D01*
G01*
G37*
G36*
G01*
X172158400Y-73128132D02*
X172158400Y-74661468D01*
G75*
G02*
X171825068Y-74994800I-333332J0D01*
G01*
X170891732Y-74994800D01*
G75*
G02*
X170558400Y-74661468I0J333332D01*
G01*
X170558400Y-73128132D01*
G75*
G02*
X170891732Y-72794800I333332J0D01*
G01*
X171825068Y-72794800D01*
G75*
G02*
X172158400Y-73128132I0J-333332D01*
G01*
G37*
G36*
G01*
X167754469Y-64504800D02*
X169303531Y-64504800D01*
G75*
G02*
X169629000Y-64830269I0J-325469D01*
G01*
X169629000Y-65904331D01*
G75*
G02*
X169303531Y-66229800I-325469J0D01*
G01*
X167754469Y-66229800D01*
G75*
G02*
X167429000Y-65904331I0J325469D01*
G01*
X167429000Y-64830269D01*
G75*
G02*
X167754469Y-64504800I325469J0D01*
G01*
G37*
G36*
G01*
X167754469Y-61379800D02*
X169303531Y-61379800D01*
G75*
G02*
X169629000Y-61705269I0J-325469D01*
G01*
X169629000Y-62779331D01*
G75*
G02*
X169303531Y-63104800I-325469J0D01*
G01*
X167754469Y-63104800D01*
G75*
G02*
X167429000Y-62779331I0J325469D01*
G01*
X167429000Y-61705269D01*
G75*
G02*
X167754469Y-61379800I325469J0D01*
G01*
G37*
D13*
X151917400Y-77470000D03*
X149377400Y-77470000D03*
X146837400Y-77470000D03*
X144297400Y-77470000D03*
X141757400Y-77470000D03*
G36*
G01*
X140067400Y-78520000D02*
X138367400Y-78520000D01*
G75*
G02*
X138167400Y-78320000I0J200000D01*
G01*
X138167400Y-76620000D01*
G75*
G02*
X138367400Y-76420000I200000J0D01*
G01*
X140067400Y-76420000D01*
G75*
G02*
X140267400Y-76620000I0J-200000D01*
G01*
X140267400Y-78320000D01*
G75*
G02*
X140067400Y-78520000I-200000J0D01*
G01*
G37*
G36*
G01*
X168921800Y-78621600D02*
X167221800Y-78621600D01*
G75*
G02*
X167021800Y-78421600I0J200000D01*
G01*
X167021800Y-76721600D01*
G75*
G02*
X167221800Y-76521600I200000J0D01*
G01*
X168921800Y-76521600D01*
G75*
G02*
X169121800Y-76721600I0J-200000D01*
G01*
X169121800Y-78421600D01*
G75*
G02*
X168921800Y-78621600I-200000J0D01*
G01*
G37*
X170611800Y-77571600D03*
X173151800Y-77571600D03*
X175691800Y-77571600D03*
X178231800Y-77571600D03*
X180771800Y-77571600D03*
G36*
G01*
X151146800Y-58431800D02*
X151146800Y-56731800D01*
G75*
G02*
X151346800Y-56531800I200000J0D01*
G01*
X153046800Y-56531800D01*
G75*
G02*
X153246800Y-56731800I0J-200000D01*
G01*
X153246800Y-58431800D01*
G75*
G02*
X153046800Y-58631800I-200000J0D01*
G01*
X151346800Y-58631800D01*
G75*
G02*
X151146800Y-58431800I0J200000D01*
G01*
G37*
G36*
G01*
X121830200Y-105952000D02*
X120130200Y-105952000D01*
G75*
G02*
X119930200Y-105752000I0J200000D01*
G01*
X119930200Y-104052000D01*
G75*
G02*
X120130200Y-103852000I200000J0D01*
G01*
X121830200Y-103852000D01*
G75*
G02*
X122030200Y-104052000I0J-200000D01*
G01*
X122030200Y-105752000D01*
G75*
G02*
X121830200Y-105952000I-200000J0D01*
G01*
G37*
G36*
G01*
X159677800Y-134344400D02*
X158177800Y-134344400D01*
G75*
G02*
X157977800Y-134144400I0J200000D01*
G01*
X157977800Y-133144400D01*
G75*
G02*
X158177800Y-132944400I200000J0D01*
G01*
X159677800Y-132944400D01*
G75*
G02*
X159877800Y-133144400I0J-200000D01*
G01*
X159877800Y-134144400D01*
G75*
G02*
X159677800Y-134344400I-200000J0D01*
G01*
G37*
G36*
G01*
X159677800Y-133044400D02*
X158177800Y-133044400D01*
G75*
G02*
X157977800Y-132844400I0J200000D01*
G01*
X157977800Y-131844400D01*
G75*
G02*
X158177800Y-131644400I200000J0D01*
G01*
X159677800Y-131644400D01*
G75*
G02*
X159877800Y-131844400I0J-200000D01*
G01*
X159877800Y-132844400D01*
G75*
G02*
X159677800Y-133044400I-200000J0D01*
G01*
G37*
G36*
G01*
X134757600Y-58073800D02*
X134757600Y-56073800D01*
G75*
G02*
X134957600Y-55873800I200000J0D01*
G01*
X137457600Y-55873800D01*
G75*
G02*
X137657600Y-56073800I0J-200000D01*
G01*
X137657600Y-58073800D01*
G75*
G02*
X137457600Y-58273800I-200000J0D01*
G01*
X134957600Y-58273800D01*
G75*
G02*
X134757600Y-58073800I0J200000D01*
G01*
G37*
G36*
G01*
X126197600Y-58073800D02*
X126197600Y-56073800D01*
G75*
G02*
X126397600Y-55873800I200000J0D01*
G01*
X128897600Y-55873800D01*
G75*
G02*
X129097600Y-56073800I0J-200000D01*
G01*
X129097600Y-58073800D01*
G75*
G02*
X128897600Y-58273800I-200000J0D01*
G01*
X126397600Y-58273800D01*
G75*
G02*
X126197600Y-58073800I0J200000D01*
G01*
G37*
G36*
G01*
X175041800Y-135747000D02*
X175041800Y-133747000D01*
G75*
G02*
X175241800Y-133547000I200000J0D01*
G01*
X177741800Y-133547000D01*
G75*
G02*
X177941800Y-133747000I0J-200000D01*
G01*
X177941800Y-135747000D01*
G75*
G02*
X177741800Y-135947000I-200000J0D01*
G01*
X175241800Y-135947000D01*
G75*
G02*
X175041800Y-135747000I0J200000D01*
G01*
G37*
G36*
G01*
X183601800Y-135747000D02*
X183601800Y-133747000D01*
G75*
G02*
X183801800Y-133547000I200000J0D01*
G01*
X186301800Y-133547000D01*
G75*
G02*
X186501800Y-133747000I0J-200000D01*
G01*
X186501800Y-135747000D01*
G75*
G02*
X186301800Y-135947000I-200000J0D01*
G01*
X183801800Y-135947000D01*
G75*
G02*
X183601800Y-135747000I0J200000D01*
G01*
G37*
D23*
X146754600Y-135280400D03*
G36*
G01*
X145429600Y-136155400D02*
X144079600Y-136155400D01*
G75*
G02*
X143879600Y-135955400I0J200000D01*
G01*
X143879600Y-134605400D01*
G75*
G02*
X144079600Y-134405400I200000J0D01*
G01*
X145429600Y-134405400D01*
G75*
G02*
X145629600Y-134605400I0J-200000D01*
G01*
X145629600Y-135955400D01*
G75*
G02*
X145429600Y-136155400I-200000J0D01*
G01*
G37*
G36*
G01*
X135752200Y-136130000D02*
X134402200Y-136130000D01*
G75*
G02*
X134202200Y-135930000I0J200000D01*
G01*
X134202200Y-134580000D01*
G75*
G02*
X134402200Y-134380000I200000J0D01*
G01*
X135752200Y-134380000D01*
G75*
G02*
X135952200Y-134580000I0J-200000D01*
G01*
X135952200Y-135930000D01*
G75*
G02*
X135752200Y-136130000I-200000J0D01*
G01*
G37*
X137077200Y-135255000D03*
X178987200Y-138455400D03*
G36*
G01*
X177662200Y-139330400D02*
X176312200Y-139330400D01*
G75*
G02*
X176112200Y-139130400I0J200000D01*
G01*
X176112200Y-137780400D01*
G75*
G02*
X176312200Y-137580400I200000J0D01*
G01*
X177662200Y-137580400D01*
G75*
G02*
X177862200Y-137780400I0J-200000D01*
G01*
X177862200Y-139130400D01*
G75*
G02*
X177662200Y-139330400I-200000J0D01*
G01*
G37*
G36*
G01*
X183983000Y-137580400D02*
X185333000Y-137580400D01*
G75*
G02*
X185533000Y-137780400I0J-200000D01*
G01*
X185533000Y-139130400D01*
G75*
G02*
X185333000Y-139330400I-200000J0D01*
G01*
X183983000Y-139330400D01*
G75*
G02*
X183783000Y-139130400I0J200000D01*
G01*
X183783000Y-137780400D01*
G75*
G02*
X183983000Y-137580400I200000J0D01*
G01*
G37*
X182658000Y-138455400D03*
G36*
G01*
X186608400Y-63889800D02*
X186608400Y-64989800D01*
G75*
G02*
X186408400Y-65189800I-200000J0D01*
G01*
X181808400Y-65189800D01*
G75*
G02*
X181608400Y-64989800I0J200000D01*
G01*
X181608400Y-63889800D01*
G75*
G02*
X181808400Y-63689800I200000J0D01*
G01*
X186408400Y-63689800D01*
G75*
G02*
X186608400Y-63889800I0J-200000D01*
G01*
G37*
G36*
G01*
X186608400Y-61349800D02*
X186608400Y-62449800D01*
G75*
G02*
X186408400Y-62649800I-200000J0D01*
G01*
X181808400Y-62649800D01*
G75*
G02*
X181608400Y-62449800I0J200000D01*
G01*
X181608400Y-61349800D01*
G75*
G02*
X181808400Y-61149800I200000J0D01*
G01*
X186408400Y-61149800D01*
G75*
G02*
X186608400Y-61349800I0J-200000D01*
G01*
G37*
G36*
G01*
X186608400Y-58809800D02*
X186608400Y-59909800D01*
G75*
G02*
X186408400Y-60109800I-200000J0D01*
G01*
X181808400Y-60109800D01*
G75*
G02*
X181608400Y-59909800I0J200000D01*
G01*
X181608400Y-58809800D01*
G75*
G02*
X181808400Y-58609800I200000J0D01*
G01*
X186408400Y-58609800D01*
G75*
G02*
X186608400Y-58809800I0J-200000D01*
G01*
G37*
G36*
G01*
X179858400Y-56499799D02*
X179858400Y-67299801D01*
G75*
G02*
X179658401Y-67499800I-199999J0D01*
G01*
X170258399Y-67499800D01*
G75*
G02*
X170058400Y-67299801I0J199999D01*
G01*
X170058400Y-56499799D01*
G75*
G02*
X170258399Y-56299800I199999J0D01*
G01*
X179658401Y-56299800D01*
G75*
G02*
X179858400Y-56499799I0J-199999D01*
G01*
G37*
D24*
X176047400Y-58343800D03*
X176047400Y-60375800D03*
X178079400Y-60375800D03*
X178079400Y-58343800D03*
X174015400Y-58343800D03*
X171983400Y-58343800D03*
X174015400Y-60375800D03*
X171983400Y-60375800D03*
X171983400Y-62407800D03*
X174015400Y-62407800D03*
X176047400Y-62407800D03*
X178079400Y-62407800D03*
X171983400Y-64439800D03*
X174015400Y-64439800D03*
X176047400Y-64439800D03*
X178079400Y-64439800D03*
X178079400Y-66471800D03*
X176047400Y-66471800D03*
X174015400Y-66471800D03*
X171983400Y-66471800D03*
G36*
G01*
X190915200Y-120293400D02*
X190115200Y-120293400D01*
G75*
G02*
X189915200Y-120093400I0J200000D01*
G01*
X189915200Y-119193400D01*
G75*
G02*
X190115200Y-118993400I200000J0D01*
G01*
X190915200Y-118993400D01*
G75*
G02*
X191115200Y-119193400I0J-200000D01*
G01*
X191115200Y-120093400D01*
G75*
G02*
X190915200Y-120293400I-200000J0D01*
G01*
G37*
G36*
G01*
X192815200Y-120293400D02*
X192015200Y-120293400D01*
G75*
G02*
X191815200Y-120093400I0J200000D01*
G01*
X191815200Y-119193400D01*
G75*
G02*
X192015200Y-118993400I200000J0D01*
G01*
X192815200Y-118993400D01*
G75*
G02*
X193015200Y-119193400I0J-200000D01*
G01*
X193015200Y-120093400D01*
G75*
G02*
X192815200Y-120293400I-200000J0D01*
G01*
G37*
G36*
G01*
X191865200Y-118293400D02*
X191065200Y-118293400D01*
G75*
G02*
X190865200Y-118093400I0J200000D01*
G01*
X190865200Y-117193400D01*
G75*
G02*
X191065200Y-116993400I200000J0D01*
G01*
X191865200Y-116993400D01*
G75*
G02*
X192065200Y-117193400I0J-200000D01*
G01*
X192065200Y-118093400D01*
G75*
G02*
X191865200Y-118293400I-200000J0D01*
G01*
G37*
G36*
G01*
X169347400Y-135083600D02*
X169347400Y-135883600D01*
G75*
G02*
X169147400Y-136083600I-200000J0D01*
G01*
X168247400Y-136083600D01*
G75*
G02*
X168047400Y-135883600I0J200000D01*
G01*
X168047400Y-135083600D01*
G75*
G02*
X168247400Y-134883600I200000J0D01*
G01*
X169147400Y-134883600D01*
G75*
G02*
X169347400Y-135083600I0J-200000D01*
G01*
G37*
G36*
G01*
X171347400Y-134133600D02*
X171347400Y-134933600D01*
G75*
G02*
X171147400Y-135133600I-200000J0D01*
G01*
X170247400Y-135133600D01*
G75*
G02*
X170047400Y-134933600I0J200000D01*
G01*
X170047400Y-134133600D01*
G75*
G02*
X170247400Y-133933600I200000J0D01*
G01*
X171147400Y-133933600D01*
G75*
G02*
X171347400Y-134133600I0J-200000D01*
G01*
G37*
G36*
G01*
X171347400Y-136033600D02*
X171347400Y-136833600D01*
G75*
G02*
X171147400Y-137033600I-200000J0D01*
G01*
X170247400Y-137033600D01*
G75*
G02*
X170047400Y-136833600I0J200000D01*
G01*
X170047400Y-136033600D01*
G75*
G02*
X170247400Y-135833600I200000J0D01*
G01*
X171147400Y-135833600D01*
G75*
G02*
X171347400Y-136033600I0J-200000D01*
G01*
G37*
G36*
G01*
X133689000Y-123874800D02*
X132889000Y-123874800D01*
G75*
G02*
X132689000Y-123674800I0J200000D01*
G01*
X132689000Y-122774800D01*
G75*
G02*
X132889000Y-122574800I200000J0D01*
G01*
X133689000Y-122574800D01*
G75*
G02*
X133889000Y-122774800I0J-200000D01*
G01*
X133889000Y-123674800D01*
G75*
G02*
X133689000Y-123874800I-200000J0D01*
G01*
G37*
G36*
G01*
X135589000Y-123874800D02*
X134789000Y-123874800D01*
G75*
G02*
X134589000Y-123674800I0J200000D01*
G01*
X134589000Y-122774800D01*
G75*
G02*
X134789000Y-122574800I200000J0D01*
G01*
X135589000Y-122574800D01*
G75*
G02*
X135789000Y-122774800I0J-200000D01*
G01*
X135789000Y-123674800D01*
G75*
G02*
X135589000Y-123874800I-200000J0D01*
G01*
G37*
G36*
G01*
X134639000Y-121874800D02*
X133839000Y-121874800D01*
G75*
G02*
X133639000Y-121674800I0J200000D01*
G01*
X133639000Y-120774800D01*
G75*
G02*
X133839000Y-120574800I200000J0D01*
G01*
X134639000Y-120574800D01*
G75*
G02*
X134839000Y-120774800I0J-200000D01*
G01*
X134839000Y-121674800D01*
G75*
G02*
X134639000Y-121874800I-200000J0D01*
G01*
G37*
G36*
G01*
X153117600Y-139211800D02*
X153917600Y-139211800D01*
G75*
G02*
X154117600Y-139411800I0J-200000D01*
G01*
X154117600Y-140311800D01*
G75*
G02*
X153917600Y-140511800I-200000J0D01*
G01*
X153117600Y-140511800D01*
G75*
G02*
X152917600Y-140311800I0J200000D01*
G01*
X152917600Y-139411800D01*
G75*
G02*
X153117600Y-139211800I200000J0D01*
G01*
G37*
G36*
G01*
X152167600Y-137211800D02*
X152967600Y-137211800D01*
G75*
G02*
X153167600Y-137411800I0J-200000D01*
G01*
X153167600Y-138311800D01*
G75*
G02*
X152967600Y-138511800I-200000J0D01*
G01*
X152167600Y-138511800D01*
G75*
G02*
X151967600Y-138311800I0J200000D01*
G01*
X151967600Y-137411800D01*
G75*
G02*
X152167600Y-137211800I200000J0D01*
G01*
G37*
G36*
G01*
X154067600Y-137211800D02*
X154867600Y-137211800D01*
G75*
G02*
X155067600Y-137411800I0J-200000D01*
G01*
X155067600Y-138311800D01*
G75*
G02*
X154867600Y-138511800I-200000J0D01*
G01*
X154067600Y-138511800D01*
G75*
G02*
X153867600Y-138311800I0J200000D01*
G01*
X153867600Y-137411800D01*
G75*
G02*
X154067600Y-137211800I200000J0D01*
G01*
G37*
G36*
G01*
X138772731Y-100062600D02*
X137223669Y-100062600D01*
G75*
G02*
X136898200Y-99737131I0J325469D01*
G01*
X136898200Y-98663069D01*
G75*
G02*
X137223669Y-98337600I325469J0D01*
G01*
X138772731Y-98337600D01*
G75*
G02*
X139098200Y-98663069I0J-325469D01*
G01*
X139098200Y-99737131D01*
G75*
G02*
X138772731Y-100062600I-325469J0D01*
G01*
G37*
G36*
G01*
X138772731Y-96937600D02*
X137223669Y-96937600D01*
G75*
G02*
X136898200Y-96612131I0J325469D01*
G01*
X136898200Y-95538069D01*
G75*
G02*
X137223669Y-95212600I325469J0D01*
G01*
X138772731Y-95212600D01*
G75*
G02*
X139098200Y-95538069I0J-325469D01*
G01*
X139098200Y-96612131D01*
G75*
G02*
X138772731Y-96937600I-325469J0D01*
G01*
G37*
D25*
X139522200Y-116840000D03*
X139522200Y-119380000D03*
X139522200Y-121920000D03*
X139522200Y-124460000D03*
X183972200Y-128270000D03*
G36*
G01*
X183122200Y-111980000D02*
X184822200Y-111980000D01*
G75*
G02*
X185022200Y-112180000I0J-200000D01*
G01*
X185022200Y-113880000D01*
G75*
G02*
X184822200Y-114080000I-200000J0D01*
G01*
X183122200Y-114080000D01*
G75*
G02*
X182922200Y-113880000I0J200000D01*
G01*
X182922200Y-112180000D01*
G75*
G02*
X183122200Y-111980000I200000J0D01*
G01*
G37*
X181432200Y-128270000D03*
X181432200Y-113030000D03*
X178892200Y-128270000D03*
X178892200Y-113030000D03*
X176352200Y-128270000D03*
X176352200Y-113030000D03*
X173812200Y-128270000D03*
X173812200Y-113030000D03*
X171272200Y-128270000D03*
X171272200Y-113030000D03*
X168732200Y-128270000D03*
X168732200Y-113030000D03*
X166192200Y-128270000D03*
X166192200Y-113030000D03*
X163652200Y-128270000D03*
X163652200Y-113030000D03*
X161112200Y-128270000D03*
X161112200Y-113030000D03*
X158572200Y-128270000D03*
X158572200Y-113030000D03*
X156032200Y-128270000D03*
X156032200Y-113030000D03*
X153492200Y-128270000D03*
X153492200Y-113030000D03*
X150952200Y-128270000D03*
X150952200Y-113030000D03*
X148412200Y-128270000D03*
X148412200Y-113030000D03*
X145872200Y-128270000D03*
X145872200Y-113030000D03*
X143332200Y-128270000D03*
X143332200Y-113030000D03*
X140792200Y-128270000D03*
X140792200Y-113030000D03*
X138252200Y-128270000D03*
X138252200Y-113030000D03*
X135712200Y-128270000D03*
X135712200Y-113030000D03*
G36*
G01*
X197874600Y-116929800D02*
X197874600Y-118629800D01*
G75*
G02*
X197674600Y-118829800I-200000J0D01*
G01*
X195974600Y-118829800D01*
G75*
G02*
X195774600Y-118629800I0J200000D01*
G01*
X195774600Y-116929800D01*
G75*
G02*
X195974600Y-116729800I200000J0D01*
G01*
X197674600Y-116729800D01*
G75*
G02*
X197874600Y-116929800I0J-200000D01*
G01*
G37*
D13*
X196824600Y-115239800D03*
X196824600Y-112699800D03*
X196824600Y-110159800D03*
X196824600Y-107619800D03*
X196824600Y-105079800D03*
G36*
G01*
X143399800Y-57111000D02*
X143399800Y-55411000D01*
G75*
G02*
X143599800Y-55211000I200000J0D01*
G01*
X145299800Y-55211000D01*
G75*
G02*
X145499800Y-55411000I0J-200000D01*
G01*
X145499800Y-57111000D01*
G75*
G02*
X145299800Y-57311000I-200000J0D01*
G01*
X143599800Y-57311000D01*
G75*
G02*
X143399800Y-57111000I0J200000D01*
G01*
G37*
G36*
G01*
X139742200Y-57085600D02*
X139742200Y-55385600D01*
G75*
G02*
X139942200Y-55185600I200000J0D01*
G01*
X141642200Y-55185600D01*
G75*
G02*
X141842200Y-55385600I0J-200000D01*
G01*
X141842200Y-57085600D01*
G75*
G02*
X141642200Y-57285600I-200000J0D01*
G01*
X139942200Y-57285600D01*
G75*
G02*
X139742200Y-57085600I0J200000D01*
G01*
G37*
M02*
