G04 #@! TF.GenerationSoftware,KiCad,Pcbnew,(5.1.12-1-10_14)*
G04 #@! TF.CreationDate,2023-02-02T16:13:30-08:00*
G04 #@! TF.ProjectId,mouse_v2_PAIN,6d6f7573-655f-4763-925f-5041494e2e6b,rev?*
G04 #@! TF.SameCoordinates,Original*
G04 #@! TF.FileFunction,Paste,Bot*
G04 #@! TF.FilePolarity,Positive*
%FSLAX46Y46*%
G04 Gerber Fmt 4.6, Leading zero omitted, Abs format (unit mm)*
G04 Created by KiCad (PCBNEW (5.1.12-1-10_14)) date 2023-02-02 16:13:30*
%MOMM*%
%LPD*%
G01*
G04 APERTURE LIST*
G04 APERTURE END LIST*
G36*
G01*
X128463400Y-59598399D02*
X128463400Y-60848401D01*
G75*
G02*
X128213401Y-61098400I-249999J0D01*
G01*
X127413399Y-61098400D01*
G75*
G02*
X127163400Y-60848401I0J249999D01*
G01*
X127163400Y-59598399D01*
G75*
G02*
X127413399Y-59348400I249999J0D01*
G01*
X128213401Y-59348400D01*
G75*
G02*
X128463400Y-59598399I0J-249999D01*
G01*
G37*
G36*
G01*
X125363400Y-59598399D02*
X125363400Y-60848401D01*
G75*
G02*
X125113401Y-61098400I-249999J0D01*
G01*
X124313399Y-61098400D01*
G75*
G02*
X124063400Y-60848401I0J249999D01*
G01*
X124063400Y-59598399D01*
G75*
G02*
X124313399Y-59348400I249999J0D01*
G01*
X125113401Y-59348400D01*
G75*
G02*
X125363400Y-59598399I0J-249999D01*
G01*
G37*
G36*
G01*
X118602599Y-61936200D02*
X119852601Y-61936200D01*
G75*
G02*
X120102600Y-62186199I0J-249999D01*
G01*
X120102600Y-62986201D01*
G75*
G02*
X119852601Y-63236200I-249999J0D01*
G01*
X118602599Y-63236200D01*
G75*
G02*
X118352600Y-62986201I0J249999D01*
G01*
X118352600Y-62186199D01*
G75*
G02*
X118602599Y-61936200I249999J0D01*
G01*
G37*
G36*
G01*
X118602599Y-58836200D02*
X119852601Y-58836200D01*
G75*
G02*
X120102600Y-59086199I0J-249999D01*
G01*
X120102600Y-59886201D01*
G75*
G02*
X119852601Y-60136200I-249999J0D01*
G01*
X118602599Y-60136200D01*
G75*
G02*
X118352600Y-59886201I0J249999D01*
G01*
X118352600Y-59086199D01*
G75*
G02*
X118602599Y-58836200I249999J0D01*
G01*
G37*
G36*
G01*
X121726799Y-58861000D02*
X122976801Y-58861000D01*
G75*
G02*
X123226800Y-59110999I0J-249999D01*
G01*
X123226800Y-59911001D01*
G75*
G02*
X122976801Y-60161000I-249999J0D01*
G01*
X121726799Y-60161000D01*
G75*
G02*
X121476800Y-59911001I0J249999D01*
G01*
X121476800Y-59110999D01*
G75*
G02*
X121726799Y-58861000I249999J0D01*
G01*
G37*
G36*
G01*
X121726799Y-61961000D02*
X122976801Y-61961000D01*
G75*
G02*
X123226800Y-62210999I0J-249999D01*
G01*
X123226800Y-63011001D01*
G75*
G02*
X122976801Y-63261000I-249999J0D01*
G01*
X121726799Y-63261000D01*
G75*
G02*
X121476800Y-63011001I0J249999D01*
G01*
X121476800Y-62210999D01*
G75*
G02*
X121726799Y-61961000I249999J0D01*
G01*
G37*
G36*
G01*
X136560600Y-63489602D02*
X136560600Y-62189598D01*
G75*
G02*
X136810598Y-61939600I249998J0D01*
G01*
X137635602Y-61939600D01*
G75*
G02*
X137885600Y-62189598I0J-249998D01*
G01*
X137885600Y-63489602D01*
G75*
G02*
X137635602Y-63739600I-249998J0D01*
G01*
X136810598Y-63739600D01*
G75*
G02*
X136560600Y-63489602I0J249998D01*
G01*
G37*
G36*
G01*
X139685600Y-63489602D02*
X139685600Y-62189598D01*
G75*
G02*
X139935598Y-61939600I249998J0D01*
G01*
X140760602Y-61939600D01*
G75*
G02*
X141010600Y-62189598I0J-249998D01*
G01*
X141010600Y-63489602D01*
G75*
G02*
X140760602Y-63739600I-249998J0D01*
G01*
X139935598Y-63739600D01*
G75*
G02*
X139685600Y-63489602I0J249998D01*
G01*
G37*
G36*
G01*
X154650202Y-66512400D02*
X153350198Y-66512400D01*
G75*
G02*
X153100200Y-66262402I0J249998D01*
G01*
X153100200Y-65437398D01*
G75*
G02*
X153350198Y-65187400I249998J0D01*
G01*
X154650202Y-65187400D01*
G75*
G02*
X154900200Y-65437398I0J-249998D01*
G01*
X154900200Y-66262402D01*
G75*
G02*
X154650202Y-66512400I-249998J0D01*
G01*
G37*
G36*
G01*
X154650202Y-63387400D02*
X153350198Y-63387400D01*
G75*
G02*
X153100200Y-63137402I0J249998D01*
G01*
X153100200Y-62312398D01*
G75*
G02*
X153350198Y-62062400I249998J0D01*
G01*
X154650202Y-62062400D01*
G75*
G02*
X154900200Y-62312398I0J-249998D01*
G01*
X154900200Y-63137402D01*
G75*
G02*
X154650202Y-63387400I-249998J0D01*
G01*
G37*
G36*
G01*
X191124000Y-119389999D02*
X191124000Y-120640001D01*
G75*
G02*
X190874001Y-120890000I-249999J0D01*
G01*
X190073999Y-120890000D01*
G75*
G02*
X189824000Y-120640001I0J249999D01*
G01*
X189824000Y-119389999D01*
G75*
G02*
X190073999Y-119140000I249999J0D01*
G01*
X190874001Y-119140000D01*
G75*
G02*
X191124000Y-119389999I0J-249999D01*
G01*
G37*
G36*
G01*
X194224000Y-119389999D02*
X194224000Y-120640001D01*
G75*
G02*
X193974001Y-120890000I-249999J0D01*
G01*
X193173999Y-120890000D01*
G75*
G02*
X192924000Y-120640001I0J249999D01*
G01*
X192924000Y-119389999D01*
G75*
G02*
X193173999Y-119140000I249999J0D01*
G01*
X193974001Y-119140000D01*
G75*
G02*
X194224000Y-119389999I0J-249999D01*
G01*
G37*
G36*
G01*
X166156801Y-138317400D02*
X164906799Y-138317400D01*
G75*
G02*
X164656800Y-138067401I0J249999D01*
G01*
X164656800Y-137267399D01*
G75*
G02*
X164906799Y-137017400I249999J0D01*
G01*
X166156801Y-137017400D01*
G75*
G02*
X166406800Y-137267399I0J-249999D01*
G01*
X166406800Y-138067401D01*
G75*
G02*
X166156801Y-138317400I-249999J0D01*
G01*
G37*
G36*
G01*
X166156801Y-141417400D02*
X164906799Y-141417400D01*
G75*
G02*
X164656800Y-141167401I0J249999D01*
G01*
X164656800Y-140367399D01*
G75*
G02*
X164906799Y-140117400I249999J0D01*
G01*
X166156801Y-140117400D01*
G75*
G02*
X166406800Y-140367399I0J-249999D01*
G01*
X166406800Y-141167401D01*
G75*
G02*
X166156801Y-141417400I-249999J0D01*
G01*
G37*
G36*
G01*
X128916000Y-120538401D02*
X128916000Y-119288399D01*
G75*
G02*
X129165999Y-119038400I249999J0D01*
G01*
X129966001Y-119038400D01*
G75*
G02*
X130216000Y-119288399I0J-249999D01*
G01*
X130216000Y-120538401D01*
G75*
G02*
X129966001Y-120788400I-249999J0D01*
G01*
X129165999Y-120788400D01*
G75*
G02*
X128916000Y-120538401I0J249999D01*
G01*
G37*
G36*
G01*
X125816000Y-120538401D02*
X125816000Y-119288399D01*
G75*
G02*
X126065999Y-119038400I249999J0D01*
G01*
X126866001Y-119038400D01*
G75*
G02*
X127116000Y-119288399I0J-249999D01*
G01*
X127116000Y-120538401D01*
G75*
G02*
X126866001Y-120788400I-249999J0D01*
G01*
X126065999Y-120788400D01*
G75*
G02*
X125816000Y-120538401I0J249999D01*
G01*
G37*
G36*
G01*
X155031601Y-141442800D02*
X153781599Y-141442800D01*
G75*
G02*
X153531600Y-141192801I0J249999D01*
G01*
X153531600Y-140392799D01*
G75*
G02*
X153781599Y-140142800I249999J0D01*
G01*
X155031601Y-140142800D01*
G75*
G02*
X155281600Y-140392799I0J-249999D01*
G01*
X155281600Y-141192801D01*
G75*
G02*
X155031601Y-141442800I-249999J0D01*
G01*
G37*
G36*
G01*
X155031601Y-138342800D02*
X153781599Y-138342800D01*
G75*
G02*
X153531600Y-138092801I0J249999D01*
G01*
X153531600Y-137292799D01*
G75*
G02*
X153781599Y-137042800I249999J0D01*
G01*
X155031601Y-137042800D01*
G75*
G02*
X155281600Y-137292799I0J-249999D01*
G01*
X155281600Y-138092801D01*
G75*
G02*
X155031601Y-138342800I-249999J0D01*
G01*
G37*
G36*
G01*
X131003201Y-104687800D02*
X129753199Y-104687800D01*
G75*
G02*
X129503200Y-104437801I0J249999D01*
G01*
X129503200Y-103637799D01*
G75*
G02*
X129753199Y-103387800I249999J0D01*
G01*
X131003201Y-103387800D01*
G75*
G02*
X131253200Y-103637799I0J-249999D01*
G01*
X131253200Y-104437801D01*
G75*
G02*
X131003201Y-104687800I-249999J0D01*
G01*
G37*
G36*
G01*
X131003201Y-107787800D02*
X129753199Y-107787800D01*
G75*
G02*
X129503200Y-107537801I0J249999D01*
G01*
X129503200Y-106737799D01*
G75*
G02*
X129753199Y-106487800I249999J0D01*
G01*
X131003201Y-106487800D01*
G75*
G02*
X131253200Y-106737799I0J-249999D01*
G01*
X131253200Y-107537801D01*
G75*
G02*
X131003201Y-107787800I-249999J0D01*
G01*
G37*
G36*
G01*
X133467001Y-107762400D02*
X132216999Y-107762400D01*
G75*
G02*
X131967000Y-107512401I0J249999D01*
G01*
X131967000Y-106712399D01*
G75*
G02*
X132216999Y-106462400I249999J0D01*
G01*
X133467001Y-106462400D01*
G75*
G02*
X133717000Y-106712399I0J-249999D01*
G01*
X133717000Y-107512401D01*
G75*
G02*
X133467001Y-107762400I-249999J0D01*
G01*
G37*
G36*
G01*
X133467001Y-104662400D02*
X132216999Y-104662400D01*
G75*
G02*
X131967000Y-104412401I0J249999D01*
G01*
X131967000Y-103612399D01*
G75*
G02*
X132216999Y-103362400I249999J0D01*
G01*
X133467001Y-103362400D01*
G75*
G02*
X133717000Y-103612399I0J-249999D01*
G01*
X133717000Y-104412401D01*
G75*
G02*
X133467001Y-104662400I-249999J0D01*
G01*
G37*
G36*
G01*
X131104801Y-57621600D02*
X129854799Y-57621600D01*
G75*
G02*
X129604800Y-57371601I0J249999D01*
G01*
X129604800Y-56571599D01*
G75*
G02*
X129854799Y-56321600I249999J0D01*
G01*
X131104801Y-56321600D01*
G75*
G02*
X131354800Y-56571599I0J-249999D01*
G01*
X131354800Y-57371601D01*
G75*
G02*
X131104801Y-57621600I-249999J0D01*
G01*
G37*
G36*
G01*
X131104801Y-60721600D02*
X129854799Y-60721600D01*
G75*
G02*
X129604800Y-60471601I0J249999D01*
G01*
X129604800Y-59671599D01*
G75*
G02*
X129854799Y-59421600I249999J0D01*
G01*
X131104801Y-59421600D01*
G75*
G02*
X131354800Y-59671599I0J-249999D01*
G01*
X131354800Y-60471601D01*
G75*
G02*
X131104801Y-60721600I-249999J0D01*
G01*
G37*
G36*
G01*
X188661201Y-128361800D02*
X187411199Y-128361800D01*
G75*
G02*
X187161200Y-128111801I0J249999D01*
G01*
X187161200Y-127311799D01*
G75*
G02*
X187411199Y-127061800I249999J0D01*
G01*
X188661201Y-127061800D01*
G75*
G02*
X188911200Y-127311799I0J-249999D01*
G01*
X188911200Y-128111801D01*
G75*
G02*
X188661201Y-128361800I-249999J0D01*
G01*
G37*
G36*
G01*
X188661201Y-125261800D02*
X187411199Y-125261800D01*
G75*
G02*
X187161200Y-125011801I0J249999D01*
G01*
X187161200Y-124211799D01*
G75*
G02*
X187411199Y-123961800I249999J0D01*
G01*
X188661201Y-123961800D01*
G75*
G02*
X188911200Y-124211799I0J-249999D01*
G01*
X188911200Y-125011801D01*
G75*
G02*
X188661201Y-125261800I-249999J0D01*
G01*
G37*
G36*
G01*
X169250199Y-132750200D02*
X170500201Y-132750200D01*
G75*
G02*
X170750200Y-133000199I0J-249999D01*
G01*
X170750200Y-133800201D01*
G75*
G02*
X170500201Y-134050200I-249999J0D01*
G01*
X169250199Y-134050200D01*
G75*
G02*
X169000200Y-133800201I0J249999D01*
G01*
X169000200Y-133000199D01*
G75*
G02*
X169250199Y-132750200I249999J0D01*
G01*
G37*
G36*
G01*
X169250199Y-135850200D02*
X170500201Y-135850200D01*
G75*
G02*
X170750200Y-136100199I0J-249999D01*
G01*
X170750200Y-136900201D01*
G75*
G02*
X170500201Y-137150200I-249999J0D01*
G01*
X169250199Y-137150200D01*
G75*
G02*
X169000200Y-136900201I0J249999D01*
G01*
X169000200Y-136100199D01*
G75*
G02*
X169250199Y-135850200I249999J0D01*
G01*
G37*
G36*
G01*
X133080599Y-120355000D02*
X134330601Y-120355000D01*
G75*
G02*
X134580600Y-120604999I0J-249999D01*
G01*
X134580600Y-121405001D01*
G75*
G02*
X134330601Y-121655000I-249999J0D01*
G01*
X133080599Y-121655000D01*
G75*
G02*
X132830600Y-121405001I0J249999D01*
G01*
X132830600Y-120604999D01*
G75*
G02*
X133080599Y-120355000I249999J0D01*
G01*
G37*
G36*
G01*
X133080599Y-123455000D02*
X134330601Y-123455000D01*
G75*
G02*
X134580600Y-123704999I0J-249999D01*
G01*
X134580600Y-124505001D01*
G75*
G02*
X134330601Y-124755000I-249999J0D01*
G01*
X133080599Y-124755000D01*
G75*
G02*
X132830600Y-124505001I0J249999D01*
G01*
X132830600Y-123704999D01*
G75*
G02*
X133080599Y-123455000I249999J0D01*
G01*
G37*
G36*
G01*
X158328199Y-132521600D02*
X159578201Y-132521600D01*
G75*
G02*
X159828200Y-132771599I0J-249999D01*
G01*
X159828200Y-133571601D01*
G75*
G02*
X159578201Y-133821600I-249999J0D01*
G01*
X158328199Y-133821600D01*
G75*
G02*
X158078200Y-133571601I0J249999D01*
G01*
X158078200Y-132771599D01*
G75*
G02*
X158328199Y-132521600I249999J0D01*
G01*
G37*
G36*
G01*
X158328199Y-135621600D02*
X159578201Y-135621600D01*
G75*
G02*
X159828200Y-135871599I0J-249999D01*
G01*
X159828200Y-136671601D01*
G75*
G02*
X159578201Y-136921600I-249999J0D01*
G01*
X158328199Y-136921600D01*
G75*
G02*
X158078200Y-136671601I0J249999D01*
G01*
X158078200Y-135871599D01*
G75*
G02*
X158328199Y-135621600I249999J0D01*
G01*
G37*
G36*
G01*
X144896000Y-130515199D02*
X144896000Y-131765201D01*
G75*
G02*
X144646001Y-132015200I-249999J0D01*
G01*
X143845999Y-132015200D01*
G75*
G02*
X143596000Y-131765201I0J249999D01*
G01*
X143596000Y-130515199D01*
G75*
G02*
X143845999Y-130265200I249999J0D01*
G01*
X144646001Y-130265200D01*
G75*
G02*
X144896000Y-130515199I0J-249999D01*
G01*
G37*
G36*
G01*
X147996000Y-130515199D02*
X147996000Y-131765201D01*
G75*
G02*
X147746001Y-132015200I-249999J0D01*
G01*
X146945999Y-132015200D01*
G75*
G02*
X146696000Y-131765201I0J249999D01*
G01*
X146696000Y-130515199D01*
G75*
G02*
X146945999Y-130265200I249999J0D01*
G01*
X147746001Y-130265200D01*
G75*
G02*
X147996000Y-130515199I0J-249999D01*
G01*
G37*
G36*
G01*
X128760556Y-67106733D02*
X128135555Y-68189266D01*
G75*
G02*
X127794050Y-68280772I-216505J124999D01*
G01*
X127101227Y-67880771D01*
G75*
G02*
X127009722Y-67539267I125000J216505D01*
G01*
X127634723Y-66456734D01*
G75*
G02*
X127976228Y-66365228I216505J-124999D01*
G01*
X128669051Y-66765229D01*
G75*
G02*
X128760556Y-67106733I-125000J-216505D01*
G01*
G37*
G36*
G01*
X126075878Y-65556733D02*
X125450877Y-66639266D01*
G75*
G02*
X125109372Y-66730772I-216505J124999D01*
G01*
X124416549Y-66330771D01*
G75*
G02*
X124325044Y-65989267I125000J216505D01*
G01*
X124950045Y-64906734D01*
G75*
G02*
X125291550Y-64815228I216505J-124999D01*
G01*
X125984373Y-65215229D01*
G75*
G02*
X126075878Y-65556733I-125000J-216505D01*
G01*
G37*
G36*
G01*
X157108999Y-121346800D02*
X158359001Y-121346800D01*
G75*
G02*
X158609000Y-121596799I0J-249999D01*
G01*
X158609000Y-122396801D01*
G75*
G02*
X158359001Y-122646800I-249999J0D01*
G01*
X157108999Y-122646800D01*
G75*
G02*
X156859000Y-122396801I0J249999D01*
G01*
X156859000Y-121596799D01*
G75*
G02*
X157108999Y-121346800I249999J0D01*
G01*
G37*
G36*
G01*
X157108999Y-118246800D02*
X158359001Y-118246800D01*
G75*
G02*
X158609000Y-118496799I0J-249999D01*
G01*
X158609000Y-119296801D01*
G75*
G02*
X158359001Y-119546800I-249999J0D01*
G01*
X157108999Y-119546800D01*
G75*
G02*
X156859000Y-119296801I0J249999D01*
G01*
X156859000Y-118496799D01*
G75*
G02*
X157108999Y-118246800I249999J0D01*
G01*
G37*
G36*
G01*
X155565001Y-122646800D02*
X154314999Y-122646800D01*
G75*
G02*
X154065000Y-122396801I0J249999D01*
G01*
X154065000Y-121596799D01*
G75*
G02*
X154314999Y-121346800I249999J0D01*
G01*
X155565001Y-121346800D01*
G75*
G02*
X155815000Y-121596799I0J-249999D01*
G01*
X155815000Y-122396801D01*
G75*
G02*
X155565001Y-122646800I-249999J0D01*
G01*
G37*
G36*
G01*
X155565001Y-119546800D02*
X154314999Y-119546800D01*
G75*
G02*
X154065000Y-119296801I0J249999D01*
G01*
X154065000Y-118496799D01*
G75*
G02*
X154314999Y-118246800I249999J0D01*
G01*
X155565001Y-118246800D01*
G75*
G02*
X155815000Y-118496799I0J-249999D01*
G01*
X155815000Y-119296801D01*
G75*
G02*
X155565001Y-119546800I-249999J0D01*
G01*
G37*
G36*
G01*
X190307198Y-65745400D02*
X191607202Y-65745400D01*
G75*
G02*
X191857200Y-65995398I0J-249998D01*
G01*
X191857200Y-66820402D01*
G75*
G02*
X191607202Y-67070400I-249998J0D01*
G01*
X190307198Y-67070400D01*
G75*
G02*
X190057200Y-66820402I0J249998D01*
G01*
X190057200Y-65995398D01*
G75*
G02*
X190307198Y-65745400I249998J0D01*
G01*
G37*
G36*
G01*
X190307198Y-68870400D02*
X191607202Y-68870400D01*
G75*
G02*
X191857200Y-69120398I0J-249998D01*
G01*
X191857200Y-69945402D01*
G75*
G02*
X191607202Y-70195400I-249998J0D01*
G01*
X190307198Y-70195400D01*
G75*
G02*
X190057200Y-69945402I0J249998D01*
G01*
X190057200Y-69120398D01*
G75*
G02*
X190307198Y-68870400I249998J0D01*
G01*
G37*
G36*
G01*
X135087400Y-108523802D02*
X135087400Y-107223798D01*
G75*
G02*
X135337398Y-106973800I249998J0D01*
G01*
X136162402Y-106973800D01*
G75*
G02*
X136412400Y-107223798I0J-249998D01*
G01*
X136412400Y-108523802D01*
G75*
G02*
X136162402Y-108773800I-249998J0D01*
G01*
X135337398Y-108773800D01*
G75*
G02*
X135087400Y-108523802I0J249998D01*
G01*
G37*
G36*
G01*
X138212400Y-108523802D02*
X138212400Y-107223798D01*
G75*
G02*
X138462398Y-106973800I249998J0D01*
G01*
X139287402Y-106973800D01*
G75*
G02*
X139537400Y-107223798I0J-249998D01*
G01*
X139537400Y-108523802D01*
G75*
G02*
X139287402Y-108773800I-249998J0D01*
G01*
X138462398Y-108773800D01*
G75*
G02*
X138212400Y-108523802I0J249998D01*
G01*
G37*
G36*
G01*
X138212400Y-106161602D02*
X138212400Y-104861598D01*
G75*
G02*
X138462398Y-104611600I249998J0D01*
G01*
X139287402Y-104611600D01*
G75*
G02*
X139537400Y-104861598I0J-249998D01*
G01*
X139537400Y-106161602D01*
G75*
G02*
X139287402Y-106411600I-249998J0D01*
G01*
X138462398Y-106411600D01*
G75*
G02*
X138212400Y-106161602I0J249998D01*
G01*
G37*
G36*
G01*
X135087400Y-106161602D02*
X135087400Y-104861598D01*
G75*
G02*
X135337398Y-104611600I249998J0D01*
G01*
X136162402Y-104611600D01*
G75*
G02*
X136412400Y-104861598I0J-249998D01*
G01*
X136412400Y-106161602D01*
G75*
G02*
X136162402Y-106411600I-249998J0D01*
G01*
X135337398Y-106411600D01*
G75*
G02*
X135087400Y-106161602I0J249998D01*
G01*
G37*
G36*
G01*
X137304600Y-99495200D02*
X137604600Y-99495200D01*
G75*
G02*
X137754600Y-99645200I0J-150000D01*
G01*
X137754600Y-100670200D01*
G75*
G02*
X137604600Y-100820200I-150000J0D01*
G01*
X137304600Y-100820200D01*
G75*
G02*
X137154600Y-100670200I0J150000D01*
G01*
X137154600Y-99645200D01*
G75*
G02*
X137304600Y-99495200I150000J0D01*
G01*
G37*
G36*
G01*
X138254600Y-99495200D02*
X138554600Y-99495200D01*
G75*
G02*
X138704600Y-99645200I0J-150000D01*
G01*
X138704600Y-100670200D01*
G75*
G02*
X138554600Y-100820200I-150000J0D01*
G01*
X138254600Y-100820200D01*
G75*
G02*
X138104600Y-100670200I0J150000D01*
G01*
X138104600Y-99645200D01*
G75*
G02*
X138254600Y-99495200I150000J0D01*
G01*
G37*
G36*
G01*
X139204600Y-99495200D02*
X139504600Y-99495200D01*
G75*
G02*
X139654600Y-99645200I0J-150000D01*
G01*
X139654600Y-100670200D01*
G75*
G02*
X139504600Y-100820200I-150000J0D01*
G01*
X139204600Y-100820200D01*
G75*
G02*
X139054600Y-100670200I0J150000D01*
G01*
X139054600Y-99645200D01*
G75*
G02*
X139204600Y-99495200I150000J0D01*
G01*
G37*
G36*
G01*
X139204600Y-101770200D02*
X139504600Y-101770200D01*
G75*
G02*
X139654600Y-101920200I0J-150000D01*
G01*
X139654600Y-102945200D01*
G75*
G02*
X139504600Y-103095200I-150000J0D01*
G01*
X139204600Y-103095200D01*
G75*
G02*
X139054600Y-102945200I0J150000D01*
G01*
X139054600Y-101920200D01*
G75*
G02*
X139204600Y-101770200I150000J0D01*
G01*
G37*
G36*
G01*
X137304600Y-101770200D02*
X137604600Y-101770200D01*
G75*
G02*
X137754600Y-101920200I0J-150000D01*
G01*
X137754600Y-102945200D01*
G75*
G02*
X137604600Y-103095200I-150000J0D01*
G01*
X137304600Y-103095200D01*
G75*
G02*
X137154600Y-102945200I0J150000D01*
G01*
X137154600Y-101920200D01*
G75*
G02*
X137304600Y-101770200I150000J0D01*
G01*
G37*
G36*
G01*
X134757398Y-99515100D02*
X136057402Y-99515100D01*
G75*
G02*
X136307400Y-99765098I0J-249998D01*
G01*
X136307400Y-100590102D01*
G75*
G02*
X136057402Y-100840100I-249998J0D01*
G01*
X134757398Y-100840100D01*
G75*
G02*
X134507400Y-100590102I0J249998D01*
G01*
X134507400Y-99765098D01*
G75*
G02*
X134757398Y-99515100I249998J0D01*
G01*
G37*
G36*
G01*
X134757398Y-102640100D02*
X136057402Y-102640100D01*
G75*
G02*
X136307400Y-102890098I0J-249998D01*
G01*
X136307400Y-103715102D01*
G75*
G02*
X136057402Y-103965100I-249998J0D01*
G01*
X134757398Y-103965100D01*
G75*
G02*
X134507400Y-103715102I0J249998D01*
G01*
X134507400Y-102890098D01*
G75*
G02*
X134757398Y-102640100I249998J0D01*
G01*
G37*
G36*
G01*
X138187000Y-110936802D02*
X138187000Y-109636798D01*
G75*
G02*
X138436998Y-109386800I249998J0D01*
G01*
X139262002Y-109386800D01*
G75*
G02*
X139512000Y-109636798I0J-249998D01*
G01*
X139512000Y-110936802D01*
G75*
G02*
X139262002Y-111186800I-249998J0D01*
G01*
X138436998Y-111186800D01*
G75*
G02*
X138187000Y-110936802I0J249998D01*
G01*
G37*
G36*
G01*
X135062000Y-110936802D02*
X135062000Y-109636798D01*
G75*
G02*
X135311998Y-109386800I249998J0D01*
G01*
X136137002Y-109386800D01*
G75*
G02*
X136387000Y-109636798I0J-249998D01*
G01*
X136387000Y-110936802D01*
G75*
G02*
X136137002Y-111186800I-249998J0D01*
G01*
X135311998Y-111186800D01*
G75*
G02*
X135062000Y-110936802I0J249998D01*
G01*
G37*
G36*
G01*
X178496000Y-135473202D02*
X178496000Y-134173198D01*
G75*
G02*
X178745998Y-133923200I249998J0D01*
G01*
X179571002Y-133923200D01*
G75*
G02*
X179821000Y-134173198I0J-249998D01*
G01*
X179821000Y-135473202D01*
G75*
G02*
X179571002Y-135723200I-249998J0D01*
G01*
X178745998Y-135723200D01*
G75*
G02*
X178496000Y-135473202I0J249998D01*
G01*
G37*
G36*
G01*
X181621000Y-135473202D02*
X181621000Y-134173198D01*
G75*
G02*
X181870998Y-133923200I249998J0D01*
G01*
X182696002Y-133923200D01*
G75*
G02*
X182946000Y-134173198I0J-249998D01*
G01*
X182946000Y-135473202D01*
G75*
G02*
X182696002Y-135723200I-249998J0D01*
G01*
X181870998Y-135723200D01*
G75*
G02*
X181621000Y-135473202I0J249998D01*
G01*
G37*
G36*
G01*
X179898400Y-124114399D02*
X179898400Y-125364401D01*
G75*
G02*
X179648401Y-125614400I-249999J0D01*
G01*
X178848399Y-125614400D01*
G75*
G02*
X178598400Y-125364401I0J249999D01*
G01*
X178598400Y-124114399D01*
G75*
G02*
X178848399Y-123864400I249999J0D01*
G01*
X179648401Y-123864400D01*
G75*
G02*
X179898400Y-124114399I0J-249999D01*
G01*
G37*
G36*
G01*
X176798400Y-124114399D02*
X176798400Y-125364401D01*
G75*
G02*
X176548401Y-125614400I-249999J0D01*
G01*
X175748399Y-125614400D01*
G75*
G02*
X175498400Y-125364401I0J249999D01*
G01*
X175498400Y-124114399D01*
G75*
G02*
X175748399Y-123864400I249999J0D01*
G01*
X176548401Y-123864400D01*
G75*
G02*
X176798400Y-124114399I0J-249999D01*
G01*
G37*
G36*
G01*
X194045602Y-70195400D02*
X192745598Y-70195400D01*
G75*
G02*
X192495600Y-69945402I0J249998D01*
G01*
X192495600Y-69120398D01*
G75*
G02*
X192745598Y-68870400I249998J0D01*
G01*
X194045602Y-68870400D01*
G75*
G02*
X194295600Y-69120398I0J-249998D01*
G01*
X194295600Y-69945402D01*
G75*
G02*
X194045602Y-70195400I-249998J0D01*
G01*
G37*
G36*
G01*
X194045602Y-67070400D02*
X192745598Y-67070400D01*
G75*
G02*
X192495600Y-66820402I0J249998D01*
G01*
X192495600Y-65995398D01*
G75*
G02*
X192745598Y-65745400I249998J0D01*
G01*
X194045602Y-65745400D01*
G75*
G02*
X194295600Y-65995398I0J-249998D01*
G01*
X194295600Y-66820402D01*
G75*
G02*
X194045602Y-67070400I-249998J0D01*
G01*
G37*
G36*
G01*
X139989400Y-133969400D02*
X141239400Y-133969400D01*
G75*
G02*
X141489400Y-134219400I0J-250000D01*
G01*
X141489400Y-135144400D01*
G75*
G02*
X141239400Y-135394400I-250000J0D01*
G01*
X139989400Y-135394400D01*
G75*
G02*
X139739400Y-135144400I0J250000D01*
G01*
X139739400Y-134219400D01*
G75*
G02*
X139989400Y-133969400I250000J0D01*
G01*
G37*
G36*
G01*
X139989400Y-136944400D02*
X141239400Y-136944400D01*
G75*
G02*
X141489400Y-137194400I0J-250000D01*
G01*
X141489400Y-138119400D01*
G75*
G02*
X141239400Y-138369400I-250000J0D01*
G01*
X139989400Y-138369400D01*
G75*
G02*
X139739400Y-138119400I0J250000D01*
G01*
X139739400Y-137194400D01*
G75*
G02*
X139989400Y-136944400I250000J0D01*
G01*
G37*
G36*
G01*
X142770500Y-138648202D02*
X142770500Y-137348198D01*
G75*
G02*
X143020498Y-137098200I249998J0D01*
G01*
X143845502Y-137098200D01*
G75*
G02*
X144095500Y-137348198I0J-249998D01*
G01*
X144095500Y-138648202D01*
G75*
G02*
X143845502Y-138898200I-249998J0D01*
G01*
X143020498Y-138898200D01*
G75*
G02*
X142770500Y-138648202I0J249998D01*
G01*
G37*
G36*
G01*
X145895500Y-138648202D02*
X145895500Y-137348198D01*
G75*
G02*
X146145498Y-137098200I249998J0D01*
G01*
X146970502Y-137098200D01*
G75*
G02*
X147220500Y-137348198I0J-249998D01*
G01*
X147220500Y-138648202D01*
G75*
G02*
X146970502Y-138898200I-249998J0D01*
G01*
X146145498Y-138898200D01*
G75*
G02*
X145895500Y-138648202I0J249998D01*
G01*
G37*
G36*
G01*
X187441000Y-134655798D02*
X187441000Y-135955802D01*
G75*
G02*
X187191002Y-136205800I-249998J0D01*
G01*
X186365998Y-136205800D01*
G75*
G02*
X186116000Y-135955802I0J249998D01*
G01*
X186116000Y-134655798D01*
G75*
G02*
X186365998Y-134405800I249998J0D01*
G01*
X187191002Y-134405800D01*
G75*
G02*
X187441000Y-134655798I0J-249998D01*
G01*
G37*
G36*
G01*
X190566000Y-134655798D02*
X190566000Y-135955802D01*
G75*
G02*
X190316002Y-136205800I-249998J0D01*
G01*
X189490998Y-136205800D01*
G75*
G02*
X189241000Y-135955802I0J249998D01*
G01*
X189241000Y-134655798D01*
G75*
G02*
X189490998Y-134405800I249998J0D01*
G01*
X190316002Y-134405800D01*
G75*
G02*
X190566000Y-134655798I0J-249998D01*
G01*
G37*
G36*
G01*
X132958602Y-136235400D02*
X131658598Y-136235400D01*
G75*
G02*
X131408600Y-135985402I0J249998D01*
G01*
X131408600Y-135160398D01*
G75*
G02*
X131658598Y-134910400I249998J0D01*
G01*
X132958602Y-134910400D01*
G75*
G02*
X133208600Y-135160398I0J-249998D01*
G01*
X133208600Y-135985402D01*
G75*
G02*
X132958602Y-136235400I-249998J0D01*
G01*
G37*
G36*
G01*
X132958602Y-133110400D02*
X131658598Y-133110400D01*
G75*
G02*
X131408600Y-132860402I0J249998D01*
G01*
X131408600Y-132035398D01*
G75*
G02*
X131658598Y-131785400I249998J0D01*
G01*
X132958602Y-131785400D01*
G75*
G02*
X133208600Y-132035398I0J-249998D01*
G01*
X133208600Y-132860402D01*
G75*
G02*
X132958602Y-133110400I-249998J0D01*
G01*
G37*
G36*
G01*
X173979602Y-136793400D02*
X172679598Y-136793400D01*
G75*
G02*
X172429600Y-136543402I0J249998D01*
G01*
X172429600Y-135718398D01*
G75*
G02*
X172679598Y-135468400I249998J0D01*
G01*
X173979602Y-135468400D01*
G75*
G02*
X174229600Y-135718398I0J-249998D01*
G01*
X174229600Y-136543402D01*
G75*
G02*
X173979602Y-136793400I-249998J0D01*
G01*
G37*
G36*
G01*
X173979602Y-139918400D02*
X172679598Y-139918400D01*
G75*
G02*
X172429600Y-139668402I0J249998D01*
G01*
X172429600Y-138843398D01*
G75*
G02*
X172679598Y-138593400I249998J0D01*
G01*
X173979602Y-138593400D01*
G75*
G02*
X174229600Y-138843398I0J-249998D01*
G01*
X174229600Y-139668402D01*
G75*
G02*
X173979602Y-139918400I-249998J0D01*
G01*
G37*
M02*
