G04 #@! TF.GenerationSoftware,KiCad,Pcbnew,(5.1.7)-1*
G04 #@! TF.CreationDate,2021-05-02T01:51:04-07:00*
G04 #@! TF.ProjectId,mouse_v2,6d6f7573-655f-4763-922e-6b696361645f,rev?*
G04 #@! TF.SameCoordinates,Original*
G04 #@! TF.FileFunction,Soldermask,Top*
G04 #@! TF.FilePolarity,Negative*
%FSLAX46Y46*%
G04 Gerber Fmt 4.6, Leading zero omitted, Abs format (unit mm)*
G04 Created by KiCad (PCBNEW (5.1.7)-1) date 2021-05-02 01:51:04*
%MOMM*%
%LPD*%
G01*
G04 APERTURE LIST*
%ADD10C,2.000000*%
%ADD11C,1.700000*%
%ADD12C,2.900000*%
%ADD13O,2.000000X2.000000*%
%ADD14C,1.924000*%
%ADD15C,2.400000*%
%ADD16C,2.200000*%
%ADD17O,2.100000X2.100000*%
%ADD18C,2.076400*%
%ADD19C,2.584400*%
%ADD20O,1.750000X1.750000*%
%ADD21C,2.600000*%
%ADD22C,0.100000*%
G04 APERTURE END LIST*
G36*
G01*
X156275175Y-75578000D02*
X158684825Y-75578000D01*
G75*
G02*
X159005000Y-75898175I0J-320175D01*
G01*
X159005000Y-77082825D01*
G75*
G02*
X158684825Y-77403000I-320175J0D01*
G01*
X156275175Y-77403000D01*
G75*
G02*
X155955000Y-77082825I0J320175D01*
G01*
X155955000Y-75898175D01*
G75*
G02*
X156275175Y-75578000I320175J0D01*
G01*
G37*
G36*
G01*
X156275175Y-78553000D02*
X158684825Y-78553000D01*
G75*
G02*
X159005000Y-78873175I0J-320175D01*
G01*
X159005000Y-80057825D01*
G75*
G02*
X158684825Y-80378000I-320175J0D01*
G01*
X156275175Y-80378000D01*
G75*
G02*
X155955000Y-80057825I0J320175D01*
G01*
X155955000Y-78873175D01*
G75*
G02*
X156275175Y-78553000I320175J0D01*
G01*
G37*
D10*
X169254800Y-62788800D03*
G36*
G01*
X172754800Y-61988800D02*
X172754800Y-63588800D01*
G75*
G02*
X172554800Y-63788800I-200000J0D01*
G01*
X170954800Y-63788800D01*
G75*
G02*
X170754800Y-63588800I0J200000D01*
G01*
X170754800Y-61988800D01*
G75*
G02*
X170954800Y-61788800I200000J0D01*
G01*
X172554800Y-61788800D01*
G75*
G02*
X172754800Y-61988800I0J-200000D01*
G01*
G37*
G36*
G01*
X172754800Y-68034000D02*
X172754800Y-69634000D01*
G75*
G02*
X172554800Y-69834000I-200000J0D01*
G01*
X170954800Y-69834000D01*
G75*
G02*
X170754800Y-69634000I0J200000D01*
G01*
X170754800Y-68034000D01*
G75*
G02*
X170954800Y-67834000I200000J0D01*
G01*
X172554800Y-67834000D01*
G75*
G02*
X172754800Y-68034000I0J-200000D01*
G01*
G37*
X169254800Y-68834000D03*
D11*
X190500000Y-121285000D03*
G36*
G01*
X193690000Y-122135000D02*
X192390000Y-122135000D01*
G75*
G02*
X192190000Y-121935000I0J200000D01*
G01*
X192190000Y-120635000D01*
G75*
G02*
X192390000Y-120435000I200000J0D01*
G01*
X193690000Y-120435000D01*
G75*
G02*
X193890000Y-120635000I0J-200000D01*
G01*
X193890000Y-121935000D01*
G75*
G02*
X193690000Y-122135000I-200000J0D01*
G01*
G37*
X191770000Y-120015000D03*
X183415940Y-120990360D03*
G36*
G01*
X185535940Y-119070360D02*
X185535940Y-120370360D01*
G75*
G02*
X185335940Y-120570360I-200000J0D01*
G01*
X184035940Y-120570360D01*
G75*
G02*
X183835940Y-120370360I0J200000D01*
G01*
X183835940Y-119070360D01*
G75*
G02*
X184035940Y-118870360I200000J0D01*
G01*
X185335940Y-118870360D01*
G75*
G02*
X185535940Y-119070360I0J-200000D01*
G01*
G37*
X184685940Y-122260360D03*
X129540000Y-120840500D03*
G36*
G01*
X126350000Y-119990500D02*
X127650000Y-119990500D01*
G75*
G02*
X127850000Y-120190500I0J-200000D01*
G01*
X127850000Y-121490500D01*
G75*
G02*
X127650000Y-121690500I-200000J0D01*
G01*
X126350000Y-121690500D01*
G75*
G02*
X126150000Y-121490500I0J200000D01*
G01*
X126150000Y-120190500D01*
G75*
G02*
X126350000Y-119990500I200000J0D01*
G01*
G37*
X128270000Y-122110500D03*
X136982200Y-121462800D03*
G36*
G01*
X134862200Y-123382800D02*
X134862200Y-122082800D01*
G75*
G02*
X135062200Y-121882800I200000J0D01*
G01*
X136362200Y-121882800D01*
G75*
G02*
X136562200Y-122082800I0J-200000D01*
G01*
X136562200Y-123382800D01*
G75*
G02*
X136362200Y-123582800I-200000J0D01*
G01*
X135062200Y-123582800D01*
G75*
G02*
X134862200Y-123382800I0J200000D01*
G01*
G37*
X135712200Y-120192800D03*
D12*
X198069200Y-58319200D03*
X198069200Y-63069200D03*
X198069200Y-67769200D03*
D10*
X146405600Y-59893200D03*
D13*
X136245600Y-59893200D03*
D14*
X140055600Y-61885200D03*
X140105600Y-56885200D03*
G36*
G01*
X174333200Y-69436425D02*
X174333200Y-67926775D01*
G75*
G02*
X174653375Y-67606600I320175J0D01*
G01*
X175838025Y-67606600D01*
G75*
G02*
X176158200Y-67926775I0J-320175D01*
G01*
X176158200Y-69436425D01*
G75*
G02*
X175838025Y-69756600I-320175J0D01*
G01*
X174653375Y-69756600D01*
G75*
G02*
X174333200Y-69436425I0J320175D01*
G01*
G37*
G36*
G01*
X177308200Y-69436425D02*
X177308200Y-67926775D01*
G75*
G02*
X177628375Y-67606600I320175J0D01*
G01*
X178813025Y-67606600D01*
G75*
G02*
X179133200Y-67926775I0J-320175D01*
G01*
X179133200Y-69436425D01*
G75*
G02*
X178813025Y-69756600I-320175J0D01*
G01*
X177628375Y-69756600D01*
G75*
G02*
X177308200Y-69436425I0J320175D01*
G01*
G37*
D15*
X126885700Y-61853200D03*
X126885700Y-57353200D03*
X133385700Y-61853200D03*
X133385700Y-57353200D03*
G36*
G01*
X174401800Y-60798800D02*
X174401800Y-59698800D01*
G75*
G02*
X174601800Y-59498800I200000J0D01*
G01*
X179201800Y-59498800D01*
G75*
G02*
X179401800Y-59698800I0J-200000D01*
G01*
X179401800Y-60798800D01*
G75*
G02*
X179201800Y-60998800I-200000J0D01*
G01*
X174601800Y-60998800D01*
G75*
G02*
X174401800Y-60798800I0J200000D01*
G01*
G37*
G36*
G01*
X174401800Y-63338800D02*
X174401800Y-62238800D01*
G75*
G02*
X174601800Y-62038800I200000J0D01*
G01*
X179201800Y-62038800D01*
G75*
G02*
X179401800Y-62238800I0J-200000D01*
G01*
X179401800Y-63338800D01*
G75*
G02*
X179201800Y-63538800I-200000J0D01*
G01*
X174601800Y-63538800D01*
G75*
G02*
X174401800Y-63338800I0J200000D01*
G01*
G37*
G36*
G01*
X174401800Y-65878800D02*
X174401800Y-64778800D01*
G75*
G02*
X174601800Y-64578800I200000J0D01*
G01*
X179201800Y-64578800D01*
G75*
G02*
X179401800Y-64778800I0J-200000D01*
G01*
X179401800Y-65878800D01*
G75*
G02*
X179201800Y-66078800I-200000J0D01*
G01*
X174601800Y-66078800D01*
G75*
G02*
X174401800Y-65878800I0J200000D01*
G01*
G37*
G36*
G01*
X181151800Y-68188801D02*
X181151800Y-57388799D01*
G75*
G02*
X181351799Y-57188800I199999J0D01*
G01*
X190751801Y-57188800D01*
G75*
G02*
X190951800Y-57388799I0J-199999D01*
G01*
X190951800Y-68188801D01*
G75*
G02*
X190751801Y-68388800I-199999J0D01*
G01*
X181351799Y-68388800D01*
G75*
G02*
X181151800Y-68188801I0J199999D01*
G01*
G37*
D10*
X128905000Y-115570000D03*
D13*
X128905000Y-105410000D03*
X155473400Y-144805400D03*
D10*
X155473400Y-134645400D03*
X184785000Y-105410000D03*
D13*
X184785000Y-115570000D03*
X135255000Y-115570000D03*
D10*
X135255000Y-105410000D03*
X136347200Y-62941200D03*
D13*
X146507200Y-62941200D03*
X135890000Y-130810000D03*
D10*
X146050000Y-130810000D03*
X164592000Y-134645400D03*
D13*
X164592000Y-144805400D03*
X132080000Y-115570000D03*
D10*
X132080000Y-105410000D03*
X174244000Y-130810000D03*
D13*
X184404000Y-130810000D03*
X161544000Y-130810000D03*
D10*
X171704000Y-130810000D03*
X191135000Y-115570000D03*
D13*
X191135000Y-105410000D03*
X152400000Y-134620000D03*
D10*
X152400000Y-144780000D03*
X125730000Y-105410000D03*
D13*
X125730000Y-115570000D03*
X167640000Y-134620000D03*
D10*
X167640000Y-144780000D03*
X194310000Y-105410000D03*
D13*
X194310000Y-115570000D03*
X187960000Y-115570000D03*
D10*
X187960000Y-105410000D03*
X148590000Y-130810000D03*
D13*
X158750000Y-130810000D03*
G36*
G01*
X126077800Y-127823800D02*
X126077800Y-126023800D01*
G75*
G02*
X126277800Y-125823800I200000J0D01*
G01*
X128077800Y-125823800D01*
G75*
G02*
X128277800Y-126023800I0J-200000D01*
G01*
X128277800Y-127823800D01*
G75*
G02*
X128077800Y-128023800I-200000J0D01*
G01*
X126277800Y-128023800D01*
G75*
G02*
X126077800Y-127823800I0J200000D01*
G01*
G37*
D16*
X129717800Y-126923800D03*
X198475600Y-121158000D03*
G36*
G01*
X194835600Y-122058000D02*
X194835600Y-120258000D01*
G75*
G02*
X195035600Y-120058000I200000J0D01*
G01*
X196835600Y-120058000D01*
G75*
G02*
X197035600Y-120258000I0J-200000D01*
G01*
X197035600Y-122058000D01*
G75*
G02*
X196835600Y-122258000I-200000J0D01*
G01*
X195035600Y-122258000D01*
G75*
G02*
X194835600Y-122058000I0J200000D01*
G01*
G37*
X170856142Y-139738267D03*
G36*
G01*
X170037423Y-143397406D02*
X168426541Y-142594250D01*
G75*
G02*
X168336794Y-142326023I89240J178987D01*
G01*
X169139950Y-140715141D01*
G75*
G02*
X169408177Y-140625394I178987J-89240D01*
G01*
X171019059Y-141428550D01*
G75*
G02*
X171108806Y-141696777I-89240J-178987D01*
G01*
X170305650Y-143307659D01*
G75*
G02*
X170037423Y-143397406I-178987J89240D01*
G01*
G37*
G36*
G01*
X171690400Y-74710000D02*
X169990400Y-74710000D01*
G75*
G02*
X169790400Y-74510000I0J200000D01*
G01*
X169790400Y-72810000D01*
G75*
G02*
X169990400Y-72610000I200000J0D01*
G01*
X171690400Y-72610000D01*
G75*
G02*
X171890400Y-72810000I0J-200000D01*
G01*
X171890400Y-74510000D01*
G75*
G02*
X171690400Y-74710000I-200000J0D01*
G01*
G37*
D17*
X173380400Y-73660000D03*
G36*
G01*
X162214223Y-145962806D02*
X160603341Y-145159650D01*
G75*
G02*
X160513594Y-144891423I89240J178987D01*
G01*
X161316750Y-143280541D01*
G75*
G02*
X161584977Y-143190794I178987J-89240D01*
G01*
X163195859Y-143993950D01*
G75*
G02*
X163285606Y-144262177I-89240J-178987D01*
G01*
X162482450Y-145873059D01*
G75*
G02*
X162214223Y-145962806I-178987J89240D01*
G01*
G37*
D16*
X163032942Y-142303667D03*
X124218700Y-121031000D03*
G36*
G01*
X120578700Y-121931000D02*
X120578700Y-120131000D01*
G75*
G02*
X120778700Y-119931000I200000J0D01*
G01*
X122578700Y-119931000D01*
G75*
G02*
X122778700Y-120131000I0J-200000D01*
G01*
X122778700Y-121931000D01*
G75*
G02*
X122578700Y-122131000I-200000J0D01*
G01*
X120778700Y-122131000D01*
G75*
G02*
X120578700Y-121931000I0J200000D01*
G01*
G37*
G36*
G01*
X155786999Y-141720817D02*
X157397881Y-140917661D01*
G75*
G02*
X157666108Y-141007408I89240J-178987D01*
G01*
X158469264Y-142618290D01*
G75*
G02*
X158379517Y-142886517I-178987J-89240D01*
G01*
X156768635Y-143689673D01*
G75*
G02*
X156500408Y-143599926I-89240J178987D01*
G01*
X155697252Y-141989044D01*
G75*
G02*
X155786999Y-141720817I178987J89240D01*
G01*
G37*
X158216600Y-144576800D03*
G36*
G01*
X189349200Y-127950800D02*
X189349200Y-126150800D01*
G75*
G02*
X189549200Y-125950800I200000J0D01*
G01*
X191349200Y-125950800D01*
G75*
G02*
X191549200Y-126150800I0J-200000D01*
G01*
X191549200Y-127950800D01*
G75*
G02*
X191349200Y-128150800I-200000J0D01*
G01*
X189549200Y-128150800D01*
G75*
G02*
X189349200Y-127950800I0J200000D01*
G01*
G37*
X192989200Y-127050800D03*
X150418800Y-142011400D03*
G36*
G01*
X147989199Y-139155417D02*
X149600081Y-138352261D01*
G75*
G02*
X149868308Y-138442008I89240J-178987D01*
G01*
X150671464Y-140052890D01*
G75*
G02*
X150581717Y-140321117I-178987J-89240D01*
G01*
X148970835Y-141124273D01*
G75*
G02*
X148702608Y-141034526I-89240J178987D01*
G01*
X147899452Y-139423644D01*
G75*
G02*
X147989199Y-139155417I178987J89240D01*
G01*
G37*
G36*
G01*
X140936980Y-75251920D02*
X139260580Y-75251920D01*
G75*
G02*
X139060580Y-75051920I0J200000D01*
G01*
X139060580Y-73375520D01*
G75*
G02*
X139260580Y-73175520I200000J0D01*
G01*
X140936980Y-73175520D01*
G75*
G02*
X141136980Y-73375520I0J-200000D01*
G01*
X141136980Y-75051920D01*
G75*
G02*
X140936980Y-75251920I-200000J0D01*
G01*
G37*
D18*
X142638780Y-74213720D03*
X145178780Y-74213720D03*
X147718780Y-74213720D03*
X150258780Y-74213720D03*
X152798780Y-74213720D03*
X155338780Y-74213720D03*
X157878780Y-74213720D03*
X157878780Y-66593720D03*
X155338780Y-66593720D03*
X152798780Y-66593720D03*
X150258780Y-66593720D03*
X147718780Y-66593720D03*
X145178780Y-66593720D03*
X142638780Y-66593720D03*
X140098780Y-66593720D03*
D19*
X131873000Y-96274400D03*
X131873000Y-78274400D03*
X188040000Y-78274400D03*
X188040000Y-96274400D03*
G36*
G01*
X180179000Y-73303500D02*
X180179000Y-71603500D01*
G75*
G02*
X180379000Y-71403500I200000J0D01*
G01*
X182079000Y-71403500D01*
G75*
G02*
X182279000Y-71603500I0J-200000D01*
G01*
X182279000Y-73303500D01*
G75*
G02*
X182079000Y-73503500I-200000J0D01*
G01*
X180379000Y-73503500D01*
G75*
G02*
X180179000Y-73303500I0J200000D01*
G01*
G37*
D17*
X181229000Y-74993500D03*
D20*
X167655240Y-78038960D03*
X169655240Y-78038960D03*
X171655240Y-78038960D03*
X173655240Y-78038960D03*
X175655240Y-78038960D03*
G36*
G01*
X176980240Y-77163960D02*
X178330240Y-77163960D01*
G75*
G02*
X178530240Y-77363960I0J-200000D01*
G01*
X178530240Y-78713960D01*
G75*
G02*
X178330240Y-78913960I-200000J0D01*
G01*
X176980240Y-78913960D01*
G75*
G02*
X176780240Y-78713960I0J200000D01*
G01*
X176780240Y-77363960D01*
G75*
G02*
X176980240Y-77163960I200000J0D01*
G01*
G37*
G36*
G01*
X143270600Y-78776800D02*
X141920600Y-78776800D01*
G75*
G02*
X141720600Y-78576800I0J200000D01*
G01*
X141720600Y-77226800D01*
G75*
G02*
X141920600Y-77026800I200000J0D01*
G01*
X143270600Y-77026800D01*
G75*
G02*
X143470600Y-77226800I0J-200000D01*
G01*
X143470600Y-78576800D01*
G75*
G02*
X143270600Y-78776800I-200000J0D01*
G01*
G37*
X144595600Y-77901800D03*
X146595600Y-77901800D03*
X148595600Y-77901800D03*
X150595600Y-77901800D03*
X152595600Y-77901800D03*
G36*
G01*
X192386775Y-57594800D02*
X193896425Y-57594800D01*
G75*
G02*
X194216600Y-57914975I0J-320175D01*
G01*
X194216600Y-59099625D01*
G75*
G02*
X193896425Y-59419800I-320175J0D01*
G01*
X192386775Y-59419800D01*
G75*
G02*
X192066600Y-59099625I0J320175D01*
G01*
X192066600Y-57914975D01*
G75*
G02*
X192386775Y-57594800I320175J0D01*
G01*
G37*
G36*
G01*
X192386775Y-60569800D02*
X193896425Y-60569800D01*
G75*
G02*
X194216600Y-60889975I0J-320175D01*
G01*
X194216600Y-62074625D01*
G75*
G02*
X193896425Y-62394800I-320175J0D01*
G01*
X192386775Y-62394800D01*
G75*
G02*
X192066600Y-62074625I0J320175D01*
G01*
X192066600Y-60889975D01*
G75*
G02*
X192386775Y-60569800I320175J0D01*
G01*
G37*
G36*
G01*
X122512800Y-117056800D02*
X122512800Y-118756800D01*
G75*
G02*
X122312800Y-118956800I-200000J0D01*
G01*
X120612800Y-118956800D01*
G75*
G02*
X120412800Y-118756800I0J200000D01*
G01*
X120412800Y-117056800D01*
G75*
G02*
X120612800Y-116856800I200000J0D01*
G01*
X122312800Y-116856800D01*
G75*
G02*
X122512800Y-117056800I0J-200000D01*
G01*
G37*
D17*
X121462800Y-115366800D03*
X121462800Y-112826800D03*
X121462800Y-110286800D03*
X121462800Y-107746800D03*
X121462800Y-105206800D03*
D10*
X143764000Y-120000000D03*
X143764000Y-122540000D03*
X143764000Y-125080000D03*
X143764000Y-127620000D03*
X143764000Y-117460000D03*
X143764000Y-114920000D03*
X143764000Y-112380000D03*
X146304000Y-127620000D03*
X148844000Y-127620000D03*
X151384000Y-127620000D03*
X153924000Y-127620000D03*
X156464000Y-127620000D03*
X159004000Y-127620000D03*
X161544000Y-127620000D03*
X164084000Y-127620000D03*
X166624000Y-127620000D03*
X169164000Y-127620000D03*
X171704000Y-127620000D03*
X174244000Y-127620000D03*
X176784000Y-127620000D03*
X174244000Y-125080000D03*
X146304000Y-112380000D03*
X148844000Y-112380000D03*
X151384000Y-112380000D03*
X153924000Y-112380000D03*
X156464000Y-112380000D03*
X159004000Y-112380000D03*
X161544000Y-112380000D03*
X164084000Y-112380000D03*
X166624000Y-112380000D03*
X169164000Y-112380000D03*
X171704000Y-112380000D03*
X174244000Y-112380000D03*
X176784000Y-112380000D03*
X148844000Y-125080000D03*
X151384000Y-125080000D03*
X148844000Y-122540000D03*
X151384000Y-122540000D03*
X148844000Y-120000000D03*
X151384000Y-120000000D03*
X148844000Y-117460000D03*
X151384000Y-117460000D03*
X148844000Y-114920000D03*
X151384000Y-114920000D03*
G36*
G01*
X169147200Y-120308000D02*
X169147200Y-122008000D01*
G75*
G02*
X168947200Y-122208000I-200000J0D01*
G01*
X167247200Y-122208000D01*
G75*
G02*
X167047200Y-122008000I0J200000D01*
G01*
X167047200Y-120308000D01*
G75*
G02*
X167247200Y-120108000I200000J0D01*
G01*
X168947200Y-120108000D01*
G75*
G02*
X169147200Y-120308000I0J-200000D01*
G01*
G37*
D17*
X168097200Y-118618000D03*
D21*
X181229000Y-113411000D03*
X139255500Y-113411000D03*
D13*
X164896800Y-69494400D03*
D10*
X164896800Y-79654400D03*
X164896800Y-67157600D03*
D13*
X164896800Y-56997600D03*
D21*
X160083500Y-61899800D03*
X160083500Y-139915900D03*
X160096200Y-58026300D03*
X160070800Y-136067800D03*
D11*
X149047200Y-58724800D03*
G36*
G01*
X151167200Y-56804800D02*
X151167200Y-58104800D01*
G75*
G02*
X150967200Y-58304800I-200000J0D01*
G01*
X149667200Y-58304800D01*
G75*
G02*
X149467200Y-58104800I0J200000D01*
G01*
X149467200Y-56804800D01*
G75*
G02*
X149667200Y-56604800I200000J0D01*
G01*
X150967200Y-56604800D01*
G75*
G02*
X151167200Y-56804800I0J-200000D01*
G01*
G37*
X150317200Y-59994800D03*
D15*
X126885700Y-69524000D03*
X126885700Y-65024000D03*
X133385700Y-69524000D03*
X133385700Y-65024000D03*
G36*
G01*
X137130500Y-136056000D02*
X137130500Y-137756000D01*
G75*
G02*
X136930500Y-137956000I-200000J0D01*
G01*
X135230500Y-137956000D01*
G75*
G02*
X135030500Y-137756000I0J200000D01*
G01*
X135030500Y-136056000D01*
G75*
G02*
X135230500Y-135856000I200000J0D01*
G01*
X136930500Y-135856000D01*
G75*
G02*
X137130500Y-136056000I0J-200000D01*
G01*
G37*
D17*
X136080500Y-134366000D03*
G36*
G01*
X120523500Y-67002000D02*
X120523500Y-66602000D01*
G75*
G02*
X120723500Y-66402000I200000J0D01*
G01*
X121358500Y-66402000D01*
G75*
G02*
X121558500Y-66602000I0J-200000D01*
G01*
X121558500Y-67002000D01*
G75*
G02*
X121358500Y-67202000I-200000J0D01*
G01*
X120723500Y-67202000D01*
G75*
G02*
X120523500Y-67002000I0J200000D01*
G01*
G37*
G36*
G01*
X121338500Y-67002000D02*
X121338500Y-66602000D01*
G75*
G02*
X121538500Y-66402000I200000J0D01*
G01*
X122173500Y-66402000D01*
G75*
G02*
X122373500Y-66602000I0J-200000D01*
G01*
X122373500Y-67002000D01*
G75*
G02*
X122173500Y-67202000I-200000J0D01*
G01*
X121538500Y-67202000D01*
G75*
G02*
X121338500Y-67002000I0J200000D01*
G01*
G37*
G36*
G01*
X121338500Y-58112000D02*
X121338500Y-57712000D01*
G75*
G02*
X121538500Y-57512000I200000J0D01*
G01*
X122173500Y-57512000D01*
G75*
G02*
X122373500Y-57712000I0J-200000D01*
G01*
X122373500Y-58112000D01*
G75*
G02*
X122173500Y-58312000I-200000J0D01*
G01*
X121538500Y-58312000D01*
G75*
G02*
X121338500Y-58112000I0J200000D01*
G01*
G37*
G36*
G01*
X120523500Y-58112000D02*
X120523500Y-57712000D01*
G75*
G02*
X120723500Y-57512000I200000J0D01*
G01*
X121358500Y-57512000D01*
G75*
G02*
X121558500Y-57712000I0J-200000D01*
G01*
X121558500Y-58112000D01*
G75*
G02*
X121358500Y-58312000I-200000J0D01*
G01*
X120723500Y-58312000D01*
G75*
G02*
X120523500Y-58112000I0J200000D01*
G01*
G37*
G36*
G01*
X120523500Y-62430000D02*
X120523500Y-62030000D01*
G75*
G02*
X120723500Y-61830000I200000J0D01*
G01*
X121358500Y-61830000D01*
G75*
G02*
X121558500Y-62030000I0J-200000D01*
G01*
X121558500Y-62430000D01*
G75*
G02*
X121358500Y-62630000I-200000J0D01*
G01*
X120723500Y-62630000D01*
G75*
G02*
X120523500Y-62430000I0J200000D01*
G01*
G37*
G36*
G01*
X121338500Y-62430000D02*
X121338500Y-62030000D01*
G75*
G02*
X121538500Y-61830000I200000J0D01*
G01*
X122173500Y-61830000D01*
G75*
G02*
X122373500Y-62030000I0J-200000D01*
G01*
X122373500Y-62430000D01*
G75*
G02*
X122173500Y-62630000I-200000J0D01*
G01*
X121538500Y-62630000D01*
G75*
G02*
X121338500Y-62430000I0J200000D01*
G01*
G37*
D22*
G36*
X163375738Y-144081400D02*
G01*
X163376842Y-144083068D01*
X163376636Y-144084082D01*
X163076774Y-144685511D01*
X162884488Y-145071177D01*
X162871998Y-145096228D01*
X162871824Y-145096577D01*
X162794332Y-145252002D01*
X162781668Y-145277402D01*
X162713114Y-145414900D01*
X162712922Y-145415285D01*
X162706581Y-145428003D01*
X162700450Y-145440300D01*
X162700258Y-145440685D01*
X162647115Y-145547273D01*
X162646850Y-145547805D01*
X162643810Y-145553902D01*
X162631146Y-145579302D01*
X162589509Y-145662813D01*
X162576845Y-145688213D01*
X162552394Y-145737254D01*
X162552106Y-145737832D01*
X162539730Y-145762654D01*
X162539442Y-145763232D01*
X162395000Y-146052938D01*
X162392318Y-146053836D01*
X160423462Y-145072200D01*
X160422358Y-145070532D01*
X160422564Y-145069518D01*
X160422566Y-145069513D01*
X160427038Y-145069513D01*
X162392313Y-146049363D01*
X162535862Y-145761448D01*
X162536150Y-145760870D01*
X162548526Y-145736048D01*
X162548814Y-145735470D01*
X162573265Y-145686429D01*
X162585929Y-145661029D01*
X162627566Y-145577518D01*
X162640230Y-145552118D01*
X162643270Y-145546021D01*
X162643535Y-145545489D01*
X162696678Y-145438901D01*
X162696870Y-145438516D01*
X162703001Y-145426219D01*
X162709342Y-145413501D01*
X162709534Y-145413116D01*
X162778088Y-145275618D01*
X162790752Y-145250218D01*
X162868244Y-145094793D01*
X162868418Y-145094444D01*
X162880908Y-145069393D01*
X163073194Y-144683727D01*
X163372163Y-144084087D01*
X161406888Y-143104237D01*
X161405512Y-143106996D01*
X161381875Y-143154405D01*
X161281056Y-143356616D01*
X161280768Y-143357194D01*
X161259793Y-143399263D01*
X161215781Y-143487538D01*
X161155930Y-143607580D01*
X161155665Y-143608112D01*
X161096199Y-143727382D01*
X161070062Y-143779805D01*
X161010382Y-143899504D01*
X160956114Y-144008349D01*
X160943450Y-144033749D01*
X160930782Y-144059157D01*
X160726006Y-144469874D01*
X160427038Y-145069513D01*
X160422566Y-145069513D01*
X160722426Y-144468089D01*
X160927202Y-144057372D01*
X160939870Y-144031964D01*
X160952534Y-144006564D01*
X161006802Y-143897719D01*
X161066482Y-143778020D01*
X161092619Y-143725597D01*
X161152085Y-143606327D01*
X161152350Y-143605795D01*
X161212201Y-143485753D01*
X161256213Y-143397478D01*
X161277188Y-143355409D01*
X161277476Y-143354831D01*
X161378295Y-143152620D01*
X161401932Y-143105211D01*
X161404200Y-143100662D01*
X161406882Y-143099764D01*
X163375738Y-144081400D01*
G37*
G36*
X157577972Y-140826753D02*
G01*
X157578658Y-140827529D01*
X157580926Y-140832078D01*
X157624490Y-140919454D01*
X157624490Y-140919455D01*
X157624723Y-140919922D01*
X157684789Y-141040395D01*
X157685054Y-141040927D01*
X157743650Y-141158452D01*
X157743938Y-141159030D01*
X157744520Y-141160197D01*
X157770657Y-141212620D01*
X157820735Y-141313061D01*
X157830508Y-141332662D01*
X157830773Y-141333194D01*
X157890239Y-141452464D01*
X157909937Y-141491972D01*
X158009266Y-141691195D01*
X158055656Y-141784239D01*
X158114713Y-141902689D01*
X158260432Y-142194956D01*
X158560294Y-142796385D01*
X158560172Y-142798381D01*
X158559396Y-142799067D01*
X156590540Y-143780703D01*
X156588544Y-143780581D01*
X156587858Y-143779805D01*
X156561953Y-143727847D01*
X156461134Y-143525636D01*
X156460846Y-143525058D01*
X156439871Y-143482989D01*
X156336008Y-143274672D01*
X156335743Y-143274140D01*
X156276277Y-143154870D01*
X156250140Y-143102447D01*
X156190289Y-142982405D01*
X156190024Y-142981873D01*
X156130558Y-142862603D01*
X156110860Y-142823095D01*
X155965141Y-142530828D01*
X155906084Y-142412378D01*
X155606225Y-141810954D01*
X155610695Y-141810954D01*
X155909664Y-142410594D01*
X155968721Y-142529044D01*
X156114440Y-142821311D01*
X156134138Y-142860819D01*
X156193604Y-142980089D01*
X156193869Y-142980621D01*
X156253720Y-143100663D01*
X156279857Y-143153086D01*
X156339323Y-143272356D01*
X156339588Y-143272888D01*
X156443451Y-143481205D01*
X156464426Y-143523274D01*
X156464714Y-143523852D01*
X156565533Y-143726063D01*
X156590545Y-143776230D01*
X158555821Y-142796380D01*
X158256852Y-142196740D01*
X158111133Y-141904473D01*
X158052076Y-141786023D01*
X158005686Y-141692979D01*
X157906357Y-141493756D01*
X157886659Y-141454248D01*
X157827193Y-141334978D01*
X157826928Y-141334446D01*
X157817155Y-141314845D01*
X157767077Y-141214404D01*
X157740940Y-141161981D01*
X157740358Y-141160814D01*
X157740070Y-141160236D01*
X157681474Y-141042711D01*
X157681209Y-141042179D01*
X157621143Y-140921706D01*
X157621143Y-140921705D01*
X157620910Y-140921237D01*
X157577346Y-140833862D01*
X157575971Y-140831104D01*
X155610695Y-141810954D01*
X155606225Y-141810954D01*
X155606222Y-141810949D01*
X155607120Y-141808267D01*
X157575976Y-140826631D01*
X157577972Y-140826753D01*
G37*
G36*
X171198938Y-141516000D02*
G01*
X171200042Y-141517668D01*
X171199836Y-141518682D01*
X170899974Y-142120111D01*
X170754255Y-142412378D01*
X170695198Y-142530828D01*
X170648808Y-142623872D01*
X170549479Y-142823095D01*
X170529781Y-142862603D01*
X170470315Y-142981873D01*
X170470050Y-142982405D01*
X170460277Y-143002006D01*
X170410199Y-143102447D01*
X170384062Y-143154870D01*
X170324596Y-143274140D01*
X170324331Y-143274672D01*
X170220468Y-143482989D01*
X170218200Y-143487538D01*
X170215518Y-143488436D01*
X168246662Y-142506800D01*
X168245558Y-142505132D01*
X168245764Y-142504118D01*
X168245766Y-142504113D01*
X168250237Y-142504113D01*
X170215512Y-143483963D01*
X170216888Y-143481204D01*
X170320751Y-143272887D01*
X170321016Y-143272355D01*
X170380482Y-143153085D01*
X170406619Y-143100662D01*
X170456697Y-143000221D01*
X170466470Y-142980620D01*
X170466735Y-142980088D01*
X170526201Y-142860818D01*
X170545899Y-142821310D01*
X170645228Y-142622087D01*
X170691618Y-142529043D01*
X170750675Y-142410593D01*
X170896394Y-142118326D01*
X171195362Y-141518687D01*
X169230087Y-140538837D01*
X169205075Y-140589004D01*
X169129233Y-140741119D01*
X169104256Y-140791215D01*
X169103968Y-140791793D01*
X169082993Y-140833862D01*
X169039429Y-140921238D01*
X168979130Y-141042179D01*
X168978865Y-141042711D01*
X168920269Y-141160236D01*
X168919981Y-141160814D01*
X168919399Y-141161981D01*
X168893262Y-141214404D01*
X168833411Y-141334446D01*
X168833146Y-141334978D01*
X168773680Y-141454248D01*
X168753982Y-141493756D01*
X168608263Y-141786023D01*
X168549206Y-141904473D01*
X168250237Y-142504113D01*
X168245766Y-142504113D01*
X168545626Y-141902689D01*
X168604683Y-141784239D01*
X168750402Y-141491972D01*
X168770100Y-141452464D01*
X168829566Y-141333194D01*
X168829831Y-141332662D01*
X168889682Y-141212620D01*
X168915819Y-141160197D01*
X168916401Y-141159030D01*
X168916689Y-141158452D01*
X168975285Y-141040927D01*
X168975550Y-141040395D01*
X169035849Y-140919454D01*
X169079413Y-140832078D01*
X169100388Y-140790009D01*
X169100676Y-140789431D01*
X169125653Y-140739335D01*
X169201495Y-140587220D01*
X169227400Y-140535262D01*
X169230082Y-140534364D01*
X171198938Y-141516000D01*
G37*
G36*
X149780172Y-138261353D02*
G01*
X149780858Y-138262129D01*
X149959918Y-138621268D01*
X149960218Y-138621870D01*
X150032708Y-138767262D01*
X150032973Y-138767794D01*
X150033330Y-138768510D01*
X150033596Y-138769043D01*
X150092439Y-138887064D01*
X150257856Y-139218839D01*
X150462632Y-139629556D01*
X150762494Y-140230985D01*
X150761596Y-140233667D01*
X148792740Y-141215303D01*
X148790744Y-141215181D01*
X148790058Y-141214405D01*
X148788127Y-141210532D01*
X148787827Y-141209930D01*
X148787790Y-141209856D01*
X148764153Y-141162447D01*
X148714715Y-141063290D01*
X148663334Y-140960236D01*
X148663046Y-140959658D01*
X148644124Y-140921706D01*
X148642071Y-140917589D01*
X148598059Y-140829314D01*
X148554278Y-140741503D01*
X148538208Y-140709272D01*
X148537943Y-140708740D01*
X148478477Y-140589470D01*
X148452340Y-140537047D01*
X148448631Y-140529608D01*
X148448488Y-140529321D01*
X148313060Y-140257695D01*
X148108284Y-139846978D01*
X147808425Y-139245554D01*
X147812895Y-139245554D01*
X148111864Y-139845194D01*
X148316640Y-140255911D01*
X148452068Y-140527537D01*
X148452211Y-140527824D01*
X148455920Y-140535263D01*
X148482057Y-140587686D01*
X148541523Y-140706956D01*
X148541788Y-140707488D01*
X148557858Y-140739719D01*
X148601639Y-140827530D01*
X148645651Y-140915805D01*
X148647704Y-140919922D01*
X148666626Y-140957874D01*
X148666914Y-140958452D01*
X148718295Y-141061506D01*
X148767733Y-141160663D01*
X148791369Y-141208070D01*
X148791407Y-141208146D01*
X148791707Y-141208748D01*
X148792745Y-141210830D01*
X150758021Y-140230980D01*
X150459052Y-139631340D01*
X150254276Y-139220623D01*
X150088859Y-138888848D01*
X150030016Y-138770827D01*
X150029750Y-138770294D01*
X150029393Y-138769578D01*
X150029128Y-138769046D01*
X149956638Y-138623654D01*
X149956338Y-138623052D01*
X149778171Y-138265704D01*
X147812895Y-139245554D01*
X147808425Y-139245554D01*
X147808422Y-139245549D01*
X147809320Y-139242867D01*
X149778176Y-138261231D01*
X149780172Y-138261353D01*
G37*
G36*
X184195122Y-121322323D02*
G01*
X184195449Y-121324122D01*
X184190175Y-121341506D01*
X184187812Y-121365498D01*
X184190175Y-121389489D01*
X184197175Y-121412564D01*
X184208540Y-121433827D01*
X184223835Y-121452464D01*
X184242472Y-121467760D01*
X184263736Y-121479125D01*
X184286810Y-121486125D01*
X184310802Y-121488488D01*
X184334793Y-121486125D01*
X184352179Y-121480851D01*
X184354127Y-121481305D01*
X184354708Y-121483219D01*
X184353525Y-121484613D01*
X184286200Y-121512500D01*
X184147980Y-121604855D01*
X184030435Y-121722400D01*
X183938080Y-121860620D01*
X183910193Y-121927944D01*
X183908606Y-121929162D01*
X183906758Y-121928397D01*
X183906431Y-121926598D01*
X183911705Y-121909214D01*
X183914068Y-121885222D01*
X183911705Y-121861231D01*
X183904705Y-121838156D01*
X183893340Y-121816893D01*
X183878045Y-121798256D01*
X183859408Y-121782960D01*
X183838144Y-121771595D01*
X183815070Y-121764595D01*
X183791078Y-121762232D01*
X183767087Y-121764595D01*
X183749701Y-121769869D01*
X183747753Y-121769415D01*
X183747172Y-121767501D01*
X183748355Y-121766107D01*
X183815680Y-121738220D01*
X183953900Y-121645865D01*
X184071445Y-121528320D01*
X184163800Y-121390100D01*
X184191687Y-121322776D01*
X184193274Y-121321558D01*
X184195122Y-121322323D01*
G37*
G36*
X128764253Y-121172915D02*
G01*
X128792140Y-121240240D01*
X128884495Y-121378460D01*
X129002040Y-121496005D01*
X129140260Y-121588360D01*
X129207584Y-121616247D01*
X129208802Y-121617834D01*
X129208037Y-121619682D01*
X129206238Y-121620009D01*
X129188854Y-121614735D01*
X129164862Y-121612372D01*
X129140871Y-121614735D01*
X129117796Y-121621735D01*
X129096533Y-121633100D01*
X129077896Y-121648395D01*
X129062600Y-121667032D01*
X129051235Y-121688296D01*
X129044235Y-121711370D01*
X129041872Y-121735362D01*
X129044235Y-121759353D01*
X129049509Y-121776739D01*
X129049055Y-121778687D01*
X129047141Y-121779268D01*
X129045747Y-121778085D01*
X129017860Y-121710760D01*
X128925505Y-121572540D01*
X128807960Y-121454995D01*
X128669740Y-121362640D01*
X128602416Y-121334753D01*
X128601198Y-121333166D01*
X128601963Y-121331318D01*
X128603762Y-121330991D01*
X128621146Y-121336265D01*
X128645138Y-121338628D01*
X128669129Y-121336265D01*
X128692204Y-121329265D01*
X128713467Y-121317900D01*
X128732104Y-121302605D01*
X128747400Y-121283968D01*
X128758765Y-121262704D01*
X128765765Y-121239630D01*
X128768128Y-121215638D01*
X128765765Y-121191647D01*
X128760491Y-121174261D01*
X128760945Y-121172313D01*
X128762859Y-121171732D01*
X128764253Y-121172915D01*
G37*
G36*
X136491382Y-120524763D02*
G01*
X136491709Y-120526562D01*
X136486435Y-120543946D01*
X136484072Y-120567938D01*
X136486435Y-120591929D01*
X136493435Y-120615004D01*
X136504800Y-120636267D01*
X136520095Y-120654904D01*
X136538732Y-120670200D01*
X136559996Y-120681565D01*
X136583070Y-120688565D01*
X136607062Y-120690928D01*
X136631053Y-120688565D01*
X136648439Y-120683291D01*
X136650387Y-120683745D01*
X136650968Y-120685659D01*
X136649785Y-120687053D01*
X136582460Y-120714940D01*
X136444240Y-120807295D01*
X136326695Y-120924840D01*
X136234340Y-121063060D01*
X136206453Y-121130384D01*
X136204866Y-121131602D01*
X136203018Y-121130837D01*
X136202691Y-121129038D01*
X136207965Y-121111654D01*
X136210328Y-121087662D01*
X136207965Y-121063671D01*
X136200965Y-121040596D01*
X136189600Y-121019333D01*
X136174305Y-121000696D01*
X136155668Y-120985400D01*
X136134404Y-120974035D01*
X136111330Y-120967035D01*
X136087338Y-120964672D01*
X136063347Y-120967035D01*
X136045961Y-120972309D01*
X136044013Y-120971855D01*
X136043432Y-120969941D01*
X136044615Y-120968547D01*
X136111940Y-120940660D01*
X136250160Y-120848305D01*
X136367705Y-120730760D01*
X136460060Y-120592540D01*
X136487947Y-120525216D01*
X136489534Y-120523998D01*
X136491382Y-120524763D01*
G37*
G36*
X190994253Y-120347415D02*
G01*
X191022140Y-120414740D01*
X191114495Y-120552960D01*
X191232040Y-120670505D01*
X191370260Y-120762860D01*
X191437584Y-120790747D01*
X191438802Y-120792334D01*
X191438037Y-120794182D01*
X191436238Y-120794509D01*
X191418854Y-120789235D01*
X191394862Y-120786872D01*
X191370871Y-120789235D01*
X191347796Y-120796235D01*
X191326533Y-120807600D01*
X191307896Y-120822895D01*
X191292600Y-120841532D01*
X191281235Y-120862796D01*
X191274235Y-120885870D01*
X191271872Y-120909862D01*
X191274235Y-120933853D01*
X191279509Y-120951239D01*
X191279055Y-120953187D01*
X191277141Y-120953768D01*
X191275747Y-120952585D01*
X191247860Y-120885260D01*
X191155505Y-120747040D01*
X191037960Y-120629495D01*
X190899740Y-120537140D01*
X190832416Y-120509253D01*
X190831198Y-120507666D01*
X190831963Y-120505818D01*
X190833762Y-120505491D01*
X190851146Y-120510765D01*
X190875138Y-120513128D01*
X190899129Y-120510765D01*
X190922204Y-120503765D01*
X190943467Y-120492400D01*
X190962104Y-120477105D01*
X190977400Y-120458468D01*
X190988765Y-120437204D01*
X190995765Y-120414130D01*
X190998128Y-120390138D01*
X190995765Y-120366147D01*
X190990491Y-120348761D01*
X190990945Y-120346813D01*
X190992859Y-120346232D01*
X190994253Y-120347415D01*
G37*
G36*
X159006165Y-80056199D02*
G01*
X159007000Y-80057825D01*
X159007000Y-80132825D01*
X159006990Y-80133021D01*
X159001804Y-80185677D01*
X159001728Y-80186062D01*
X158988160Y-80230788D01*
X158988010Y-80231150D01*
X158965976Y-80272373D01*
X158965758Y-80272699D01*
X158936107Y-80308830D01*
X158935830Y-80309107D01*
X158899699Y-80338758D01*
X158899373Y-80338976D01*
X158858150Y-80361010D01*
X158857788Y-80361160D01*
X158813062Y-80374728D01*
X158812677Y-80374804D01*
X158760021Y-80379990D01*
X158759825Y-80380000D01*
X158684825Y-80380000D01*
X158683093Y-80379000D01*
X158683093Y-80377000D01*
X158684629Y-80376010D01*
X158746893Y-80369878D01*
X158806582Y-80351771D01*
X158861589Y-80322370D01*
X158909802Y-80282802D01*
X158949370Y-80234589D01*
X158978771Y-80179582D01*
X158996878Y-80119893D01*
X159003010Y-80057629D01*
X159004175Y-80056003D01*
X159006165Y-80056199D01*
G37*
G36*
X155956990Y-80057629D02*
G01*
X155963122Y-80119893D01*
X155981229Y-80179582D01*
X156010630Y-80234589D01*
X156050198Y-80282802D01*
X156098411Y-80322370D01*
X156153418Y-80351771D01*
X156213107Y-80369878D01*
X156275371Y-80376010D01*
X156276997Y-80377175D01*
X156276801Y-80379165D01*
X156275175Y-80380000D01*
X156200175Y-80380000D01*
X156199979Y-80379990D01*
X156147323Y-80374804D01*
X156146938Y-80374728D01*
X156102212Y-80361160D01*
X156101850Y-80361010D01*
X156060627Y-80338976D01*
X156060301Y-80338758D01*
X156024170Y-80309107D01*
X156023893Y-80308830D01*
X155994242Y-80272699D01*
X155994024Y-80272373D01*
X155971990Y-80231150D01*
X155971840Y-80230788D01*
X155958272Y-80186062D01*
X155958196Y-80185677D01*
X155953010Y-80133021D01*
X155953000Y-80132825D01*
X155953000Y-80057825D01*
X155954000Y-80056093D01*
X155956000Y-80056093D01*
X155956990Y-80057629D01*
G37*
G36*
X156276907Y-78552000D02*
G01*
X156276907Y-78554000D01*
X156275371Y-78554990D01*
X156213107Y-78561122D01*
X156153418Y-78579229D01*
X156098411Y-78608630D01*
X156050198Y-78648198D01*
X156010630Y-78696411D01*
X155981229Y-78751418D01*
X155963122Y-78811107D01*
X155956990Y-78873371D01*
X155955825Y-78874997D01*
X155953835Y-78874801D01*
X155953000Y-78873175D01*
X155953000Y-78798175D01*
X155953010Y-78797979D01*
X155958196Y-78745323D01*
X155958272Y-78744938D01*
X155971840Y-78700212D01*
X155971990Y-78699850D01*
X155994024Y-78658627D01*
X155994242Y-78658301D01*
X156023893Y-78622170D01*
X156024170Y-78621893D01*
X156060301Y-78592242D01*
X156060627Y-78592024D01*
X156101850Y-78569990D01*
X156102212Y-78569840D01*
X156146938Y-78556272D01*
X156147323Y-78556196D01*
X156199979Y-78551010D01*
X156200175Y-78551000D01*
X156275175Y-78551000D01*
X156276907Y-78552000D01*
G37*
G36*
X158760021Y-78551010D02*
G01*
X158812677Y-78556196D01*
X158813062Y-78556272D01*
X158857788Y-78569840D01*
X158858150Y-78569990D01*
X158899373Y-78592024D01*
X158899699Y-78592242D01*
X158935830Y-78621893D01*
X158936107Y-78622170D01*
X158965758Y-78658301D01*
X158965976Y-78658627D01*
X158988010Y-78699850D01*
X158988160Y-78700212D01*
X159001728Y-78744938D01*
X159001804Y-78745323D01*
X159006990Y-78797979D01*
X159007000Y-78798175D01*
X159007000Y-78873175D01*
X159006000Y-78874907D01*
X159004000Y-78874907D01*
X159003010Y-78873371D01*
X158996878Y-78811107D01*
X158978771Y-78751418D01*
X158949370Y-78696411D01*
X158909802Y-78648198D01*
X158861589Y-78608630D01*
X158806582Y-78579229D01*
X158746893Y-78561122D01*
X158684629Y-78554990D01*
X158683003Y-78553825D01*
X158683199Y-78551835D01*
X158684825Y-78551000D01*
X158759825Y-78551000D01*
X158760021Y-78551010D01*
G37*
G36*
X159006165Y-77081199D02*
G01*
X159007000Y-77082825D01*
X159007000Y-77157825D01*
X159006990Y-77158021D01*
X159001804Y-77210677D01*
X159001728Y-77211062D01*
X158988160Y-77255788D01*
X158988010Y-77256150D01*
X158965976Y-77297373D01*
X158965758Y-77297699D01*
X158936107Y-77333830D01*
X158935830Y-77334107D01*
X158899699Y-77363758D01*
X158899373Y-77363976D01*
X158858150Y-77386010D01*
X158857788Y-77386160D01*
X158813062Y-77399728D01*
X158812677Y-77399804D01*
X158760021Y-77404990D01*
X158759825Y-77405000D01*
X158684825Y-77405000D01*
X158683093Y-77404000D01*
X158683093Y-77402000D01*
X158684629Y-77401010D01*
X158746893Y-77394878D01*
X158806582Y-77376771D01*
X158861589Y-77347370D01*
X158909802Y-77307802D01*
X158949370Y-77259589D01*
X158978771Y-77204582D01*
X158996878Y-77144893D01*
X159003010Y-77082629D01*
X159004175Y-77081003D01*
X159006165Y-77081199D01*
G37*
G36*
X155956990Y-77082629D02*
G01*
X155963122Y-77144893D01*
X155981229Y-77204582D01*
X156010630Y-77259589D01*
X156050198Y-77307802D01*
X156098411Y-77347370D01*
X156153418Y-77376771D01*
X156213107Y-77394878D01*
X156275371Y-77401010D01*
X156276997Y-77402175D01*
X156276801Y-77404165D01*
X156275175Y-77405000D01*
X156200175Y-77405000D01*
X156199979Y-77404990D01*
X156147323Y-77399804D01*
X156146938Y-77399728D01*
X156102212Y-77386160D01*
X156101850Y-77386010D01*
X156060627Y-77363976D01*
X156060301Y-77363758D01*
X156024170Y-77334107D01*
X156023893Y-77333830D01*
X155994242Y-77297699D01*
X155994024Y-77297373D01*
X155971990Y-77256150D01*
X155971840Y-77255788D01*
X155958272Y-77211062D01*
X155958196Y-77210677D01*
X155953010Y-77158021D01*
X155953000Y-77157825D01*
X155953000Y-77082825D01*
X155954000Y-77081093D01*
X155956000Y-77081093D01*
X155956990Y-77082629D01*
G37*
G36*
X156276907Y-75577000D02*
G01*
X156276907Y-75579000D01*
X156275371Y-75579990D01*
X156213107Y-75586122D01*
X156153418Y-75604229D01*
X156098411Y-75633630D01*
X156050198Y-75673198D01*
X156010630Y-75721411D01*
X155981229Y-75776418D01*
X155963122Y-75836107D01*
X155956990Y-75898371D01*
X155955825Y-75899997D01*
X155953835Y-75899801D01*
X155953000Y-75898175D01*
X155953000Y-75823175D01*
X155953010Y-75822979D01*
X155958196Y-75770323D01*
X155958272Y-75769938D01*
X155971840Y-75725212D01*
X155971990Y-75724850D01*
X155994024Y-75683627D01*
X155994242Y-75683301D01*
X156023893Y-75647170D01*
X156024170Y-75646893D01*
X156060301Y-75617242D01*
X156060627Y-75617024D01*
X156101850Y-75594990D01*
X156102212Y-75594840D01*
X156146938Y-75581272D01*
X156147323Y-75581196D01*
X156199979Y-75576010D01*
X156200175Y-75576000D01*
X156275175Y-75576000D01*
X156276907Y-75577000D01*
G37*
G36*
X158760021Y-75576010D02*
G01*
X158812677Y-75581196D01*
X158813062Y-75581272D01*
X158857788Y-75594840D01*
X158858150Y-75594990D01*
X158899373Y-75617024D01*
X158899699Y-75617242D01*
X158935830Y-75646893D01*
X158936107Y-75647170D01*
X158965758Y-75683301D01*
X158965976Y-75683627D01*
X158988010Y-75724850D01*
X158988160Y-75725212D01*
X159001728Y-75769938D01*
X159001804Y-75770323D01*
X159006990Y-75822979D01*
X159007000Y-75823175D01*
X159007000Y-75898175D01*
X159006000Y-75899907D01*
X159004000Y-75899907D01*
X159003010Y-75898371D01*
X158996878Y-75836107D01*
X158978771Y-75776418D01*
X158949370Y-75721411D01*
X158909802Y-75673198D01*
X158861589Y-75633630D01*
X158806582Y-75604229D01*
X158746893Y-75586122D01*
X158684629Y-75579990D01*
X158683003Y-75578825D01*
X158683199Y-75576835D01*
X158684825Y-75576000D01*
X158759825Y-75576000D01*
X158760021Y-75576010D01*
G37*
G36*
X174335190Y-69436229D02*
G01*
X174341322Y-69498493D01*
X174359429Y-69558182D01*
X174388830Y-69613189D01*
X174428398Y-69661402D01*
X174476611Y-69700970D01*
X174531618Y-69730371D01*
X174591307Y-69748478D01*
X174653571Y-69754610D01*
X174655197Y-69755775D01*
X174655001Y-69757765D01*
X174653375Y-69758600D01*
X174578375Y-69758600D01*
X174578179Y-69758590D01*
X174525523Y-69753404D01*
X174525138Y-69753328D01*
X174480412Y-69739760D01*
X174480050Y-69739610D01*
X174438827Y-69717576D01*
X174438501Y-69717358D01*
X174402370Y-69687707D01*
X174402093Y-69687430D01*
X174372442Y-69651299D01*
X174372224Y-69650973D01*
X174350190Y-69609750D01*
X174350040Y-69609388D01*
X174336472Y-69564662D01*
X174336396Y-69564277D01*
X174331210Y-69511621D01*
X174331200Y-69511425D01*
X174331200Y-69436425D01*
X174332200Y-69434693D01*
X174334200Y-69434693D01*
X174335190Y-69436229D01*
G37*
G36*
X179134365Y-69434799D02*
G01*
X179135200Y-69436425D01*
X179135200Y-69511425D01*
X179135190Y-69511621D01*
X179130004Y-69564277D01*
X179129928Y-69564662D01*
X179116360Y-69609388D01*
X179116210Y-69609750D01*
X179094176Y-69650973D01*
X179093958Y-69651299D01*
X179064307Y-69687430D01*
X179064030Y-69687707D01*
X179027899Y-69717358D01*
X179027573Y-69717576D01*
X178986350Y-69739610D01*
X178985988Y-69739760D01*
X178941262Y-69753328D01*
X178940877Y-69753404D01*
X178888221Y-69758590D01*
X178888025Y-69758600D01*
X178813025Y-69758600D01*
X178811293Y-69757600D01*
X178811293Y-69755600D01*
X178812829Y-69754610D01*
X178875093Y-69748478D01*
X178934782Y-69730371D01*
X178989789Y-69700970D01*
X179038002Y-69661402D01*
X179077570Y-69613189D01*
X179106971Y-69558182D01*
X179125078Y-69498493D01*
X179131210Y-69436229D01*
X179132375Y-69434603D01*
X179134365Y-69434799D01*
G37*
G36*
X177310190Y-69436229D02*
G01*
X177316322Y-69498493D01*
X177334429Y-69558182D01*
X177363830Y-69613189D01*
X177403398Y-69661402D01*
X177451611Y-69700970D01*
X177506618Y-69730371D01*
X177566307Y-69748478D01*
X177628571Y-69754610D01*
X177630197Y-69755775D01*
X177630001Y-69757765D01*
X177628375Y-69758600D01*
X177553375Y-69758600D01*
X177553179Y-69758590D01*
X177500523Y-69753404D01*
X177500138Y-69753328D01*
X177455412Y-69739760D01*
X177455050Y-69739610D01*
X177413827Y-69717576D01*
X177413501Y-69717358D01*
X177377370Y-69687707D01*
X177377093Y-69687430D01*
X177347442Y-69651299D01*
X177347224Y-69650973D01*
X177325190Y-69609750D01*
X177325040Y-69609388D01*
X177311472Y-69564662D01*
X177311396Y-69564277D01*
X177306210Y-69511621D01*
X177306200Y-69511425D01*
X177306200Y-69436425D01*
X177307200Y-69434693D01*
X177309200Y-69434693D01*
X177310190Y-69436229D01*
G37*
G36*
X176159365Y-69434799D02*
G01*
X176160200Y-69436425D01*
X176160200Y-69511425D01*
X176160190Y-69511621D01*
X176155004Y-69564277D01*
X176154928Y-69564662D01*
X176141360Y-69609388D01*
X176141210Y-69609750D01*
X176119176Y-69650973D01*
X176118958Y-69651299D01*
X176089307Y-69687430D01*
X176089030Y-69687707D01*
X176052899Y-69717358D01*
X176052573Y-69717576D01*
X176011350Y-69739610D01*
X176010988Y-69739760D01*
X175966262Y-69753328D01*
X175965877Y-69753404D01*
X175913221Y-69758590D01*
X175913025Y-69758600D01*
X175838025Y-69758600D01*
X175836293Y-69757600D01*
X175836293Y-69755600D01*
X175837829Y-69754610D01*
X175900093Y-69748478D01*
X175959782Y-69730371D01*
X176014789Y-69700970D01*
X176063002Y-69661402D01*
X176102570Y-69613189D01*
X176131971Y-69558182D01*
X176150078Y-69498493D01*
X176156210Y-69436229D01*
X176157375Y-69434603D01*
X176159365Y-69434799D01*
G37*
G36*
X174655107Y-67605600D02*
G01*
X174655107Y-67607600D01*
X174653571Y-67608590D01*
X174591307Y-67614722D01*
X174531618Y-67632829D01*
X174476611Y-67662230D01*
X174428398Y-67701798D01*
X174388830Y-67750011D01*
X174359429Y-67805018D01*
X174341322Y-67864707D01*
X174335190Y-67926971D01*
X174334025Y-67928597D01*
X174332035Y-67928401D01*
X174331200Y-67926775D01*
X174331200Y-67851775D01*
X174331210Y-67851579D01*
X174336396Y-67798923D01*
X174336472Y-67798538D01*
X174350040Y-67753812D01*
X174350190Y-67753450D01*
X174372224Y-67712227D01*
X174372442Y-67711901D01*
X174402093Y-67675770D01*
X174402370Y-67675493D01*
X174438501Y-67645842D01*
X174438827Y-67645624D01*
X174480050Y-67623590D01*
X174480412Y-67623440D01*
X174525138Y-67609872D01*
X174525523Y-67609796D01*
X174578179Y-67604610D01*
X174578375Y-67604600D01*
X174653375Y-67604600D01*
X174655107Y-67605600D01*
G37*
G36*
X177630107Y-67605600D02*
G01*
X177630107Y-67607600D01*
X177628571Y-67608590D01*
X177566307Y-67614722D01*
X177506618Y-67632829D01*
X177451611Y-67662230D01*
X177403398Y-67701798D01*
X177363830Y-67750011D01*
X177334429Y-67805018D01*
X177316322Y-67864707D01*
X177310190Y-67926971D01*
X177309025Y-67928597D01*
X177307035Y-67928401D01*
X177306200Y-67926775D01*
X177306200Y-67851775D01*
X177306210Y-67851579D01*
X177311396Y-67798923D01*
X177311472Y-67798538D01*
X177325040Y-67753812D01*
X177325190Y-67753450D01*
X177347224Y-67712227D01*
X177347442Y-67711901D01*
X177377093Y-67675770D01*
X177377370Y-67675493D01*
X177413501Y-67645842D01*
X177413827Y-67645624D01*
X177455050Y-67623590D01*
X177455412Y-67623440D01*
X177500138Y-67609872D01*
X177500523Y-67609796D01*
X177553179Y-67604610D01*
X177553375Y-67604600D01*
X177628375Y-67604600D01*
X177630107Y-67605600D01*
G37*
G36*
X175913221Y-67604610D02*
G01*
X175965877Y-67609796D01*
X175966262Y-67609872D01*
X176010988Y-67623440D01*
X176011350Y-67623590D01*
X176052573Y-67645624D01*
X176052899Y-67645842D01*
X176089030Y-67675493D01*
X176089307Y-67675770D01*
X176118958Y-67711901D01*
X176119176Y-67712227D01*
X176141210Y-67753450D01*
X176141360Y-67753812D01*
X176154928Y-67798538D01*
X176155004Y-67798923D01*
X176160190Y-67851579D01*
X176160200Y-67851775D01*
X176160200Y-67926775D01*
X176159200Y-67928507D01*
X176157200Y-67928507D01*
X176156210Y-67926971D01*
X176150078Y-67864707D01*
X176131971Y-67805018D01*
X176102570Y-67750011D01*
X176063002Y-67701798D01*
X176014789Y-67662230D01*
X175959782Y-67632829D01*
X175900093Y-67614722D01*
X175837829Y-67608590D01*
X175836203Y-67607425D01*
X175836399Y-67605435D01*
X175838025Y-67604600D01*
X175913025Y-67604600D01*
X175913221Y-67604610D01*
G37*
G36*
X178888221Y-67604610D02*
G01*
X178940877Y-67609796D01*
X178941262Y-67609872D01*
X178985988Y-67623440D01*
X178986350Y-67623590D01*
X179027573Y-67645624D01*
X179027899Y-67645842D01*
X179064030Y-67675493D01*
X179064307Y-67675770D01*
X179093958Y-67711901D01*
X179094176Y-67712227D01*
X179116210Y-67753450D01*
X179116360Y-67753812D01*
X179129928Y-67798538D01*
X179130004Y-67798923D01*
X179135190Y-67851579D01*
X179135200Y-67851775D01*
X179135200Y-67926775D01*
X179134200Y-67928507D01*
X179132200Y-67928507D01*
X179131210Y-67926971D01*
X179125078Y-67864707D01*
X179106971Y-67805018D01*
X179077570Y-67750011D01*
X179038002Y-67701798D01*
X178989789Y-67662230D01*
X178934782Y-67632829D01*
X178875093Y-67614722D01*
X178812829Y-67608590D01*
X178811203Y-67607425D01*
X178811399Y-67605435D01*
X178813025Y-67604600D01*
X178888025Y-67604600D01*
X178888221Y-67604610D01*
G37*
G36*
X192068590Y-62074429D02*
G01*
X192074722Y-62136693D01*
X192092829Y-62196382D01*
X192122230Y-62251389D01*
X192161798Y-62299602D01*
X192210011Y-62339170D01*
X192265018Y-62368571D01*
X192324707Y-62386678D01*
X192386971Y-62392810D01*
X192388597Y-62393975D01*
X192388401Y-62395965D01*
X192386775Y-62396800D01*
X192311775Y-62396800D01*
X192311579Y-62396790D01*
X192258923Y-62391604D01*
X192258538Y-62391528D01*
X192213812Y-62377960D01*
X192213450Y-62377810D01*
X192172227Y-62355776D01*
X192171901Y-62355558D01*
X192135770Y-62325907D01*
X192135493Y-62325630D01*
X192105842Y-62289499D01*
X192105624Y-62289173D01*
X192083590Y-62247950D01*
X192083440Y-62247588D01*
X192069872Y-62202862D01*
X192069796Y-62202477D01*
X192064610Y-62149821D01*
X192064600Y-62149625D01*
X192064600Y-62074625D01*
X192065600Y-62072893D01*
X192067600Y-62072893D01*
X192068590Y-62074429D01*
G37*
G36*
X194217765Y-62072999D02*
G01*
X194218600Y-62074625D01*
X194218600Y-62149625D01*
X194218590Y-62149821D01*
X194213404Y-62202477D01*
X194213328Y-62202862D01*
X194199760Y-62247588D01*
X194199610Y-62247950D01*
X194177576Y-62289173D01*
X194177358Y-62289499D01*
X194147707Y-62325630D01*
X194147430Y-62325907D01*
X194111299Y-62355558D01*
X194110973Y-62355776D01*
X194069750Y-62377810D01*
X194069388Y-62377960D01*
X194024662Y-62391528D01*
X194024277Y-62391604D01*
X193971621Y-62396790D01*
X193971425Y-62396800D01*
X193896425Y-62396800D01*
X193894693Y-62395800D01*
X193894693Y-62393800D01*
X193896229Y-62392810D01*
X193958493Y-62386678D01*
X194018182Y-62368571D01*
X194073189Y-62339170D01*
X194121402Y-62299602D01*
X194160970Y-62251389D01*
X194190371Y-62196382D01*
X194208478Y-62136693D01*
X194214610Y-62074429D01*
X194215775Y-62072803D01*
X194217765Y-62072999D01*
G37*
G36*
X192388507Y-60568800D02*
G01*
X192388507Y-60570800D01*
X192386971Y-60571790D01*
X192324707Y-60577922D01*
X192265018Y-60596029D01*
X192210011Y-60625430D01*
X192161798Y-60664998D01*
X192122230Y-60713211D01*
X192092829Y-60768218D01*
X192074722Y-60827907D01*
X192068590Y-60890171D01*
X192067425Y-60891797D01*
X192065435Y-60891601D01*
X192064600Y-60889975D01*
X192064600Y-60814975D01*
X192064610Y-60814779D01*
X192069796Y-60762123D01*
X192069872Y-60761738D01*
X192083440Y-60717012D01*
X192083590Y-60716650D01*
X192105624Y-60675427D01*
X192105842Y-60675101D01*
X192135493Y-60638970D01*
X192135770Y-60638693D01*
X192171901Y-60609042D01*
X192172227Y-60608824D01*
X192213450Y-60586790D01*
X192213812Y-60586640D01*
X192258538Y-60573072D01*
X192258923Y-60572996D01*
X192311579Y-60567810D01*
X192311775Y-60567800D01*
X192386775Y-60567800D01*
X192388507Y-60568800D01*
G37*
G36*
X193971621Y-60567810D02*
G01*
X194024277Y-60572996D01*
X194024662Y-60573072D01*
X194069388Y-60586640D01*
X194069750Y-60586790D01*
X194110973Y-60608824D01*
X194111299Y-60609042D01*
X194147430Y-60638693D01*
X194147707Y-60638970D01*
X194177358Y-60675101D01*
X194177576Y-60675427D01*
X194199610Y-60716650D01*
X194199760Y-60717012D01*
X194213328Y-60761738D01*
X194213404Y-60762123D01*
X194218590Y-60814779D01*
X194218600Y-60814975D01*
X194218600Y-60889975D01*
X194217600Y-60891707D01*
X194215600Y-60891707D01*
X194214610Y-60890171D01*
X194208478Y-60827907D01*
X194190371Y-60768218D01*
X194160970Y-60713211D01*
X194121402Y-60664998D01*
X194073189Y-60625430D01*
X194018182Y-60596029D01*
X193958493Y-60577922D01*
X193896229Y-60571790D01*
X193894603Y-60570625D01*
X193894799Y-60568635D01*
X193896425Y-60567800D01*
X193971425Y-60567800D01*
X193971621Y-60567810D01*
G37*
G36*
X149826382Y-59056763D02*
G01*
X149826709Y-59058562D01*
X149821435Y-59075946D01*
X149819072Y-59099938D01*
X149821435Y-59123929D01*
X149828435Y-59147004D01*
X149839800Y-59168267D01*
X149855095Y-59186904D01*
X149873732Y-59202200D01*
X149894996Y-59213565D01*
X149918070Y-59220565D01*
X149942062Y-59222928D01*
X149966053Y-59220565D01*
X149983439Y-59215291D01*
X149985387Y-59215745D01*
X149985968Y-59217659D01*
X149984785Y-59219053D01*
X149917460Y-59246940D01*
X149779240Y-59339295D01*
X149661695Y-59456840D01*
X149569340Y-59595060D01*
X149541453Y-59662384D01*
X149539866Y-59663602D01*
X149538018Y-59662837D01*
X149537691Y-59661038D01*
X149542965Y-59643654D01*
X149545328Y-59619662D01*
X149542965Y-59595671D01*
X149535965Y-59572596D01*
X149524600Y-59551333D01*
X149509305Y-59532696D01*
X149490668Y-59517400D01*
X149469404Y-59506035D01*
X149446330Y-59499035D01*
X149422338Y-59496672D01*
X149398347Y-59499035D01*
X149380961Y-59504309D01*
X149379013Y-59503855D01*
X149378432Y-59501941D01*
X149379615Y-59500547D01*
X149446940Y-59472660D01*
X149585160Y-59380305D01*
X149702705Y-59262760D01*
X149795060Y-59124540D01*
X149822947Y-59057216D01*
X149824534Y-59055998D01*
X149826382Y-59056763D01*
G37*
G36*
X192068590Y-59099429D02*
G01*
X192074722Y-59161693D01*
X192092829Y-59221382D01*
X192122230Y-59276389D01*
X192161798Y-59324602D01*
X192210011Y-59364170D01*
X192265018Y-59393571D01*
X192324707Y-59411678D01*
X192386971Y-59417810D01*
X192388597Y-59418975D01*
X192388401Y-59420965D01*
X192386775Y-59421800D01*
X192311775Y-59421800D01*
X192311579Y-59421790D01*
X192258923Y-59416604D01*
X192258538Y-59416528D01*
X192213812Y-59402960D01*
X192213450Y-59402810D01*
X192172227Y-59380776D01*
X192171901Y-59380558D01*
X192135770Y-59350907D01*
X192135493Y-59350630D01*
X192105842Y-59314499D01*
X192105624Y-59314173D01*
X192083590Y-59272950D01*
X192083440Y-59272588D01*
X192069872Y-59227862D01*
X192069796Y-59227477D01*
X192064610Y-59174821D01*
X192064600Y-59174625D01*
X192064600Y-59099625D01*
X192065600Y-59097893D01*
X192067600Y-59097893D01*
X192068590Y-59099429D01*
G37*
G36*
X194217765Y-59097999D02*
G01*
X194218600Y-59099625D01*
X194218600Y-59174625D01*
X194218590Y-59174821D01*
X194213404Y-59227477D01*
X194213328Y-59227862D01*
X194199760Y-59272588D01*
X194199610Y-59272950D01*
X194177576Y-59314173D01*
X194177358Y-59314499D01*
X194147707Y-59350630D01*
X194147430Y-59350907D01*
X194111299Y-59380558D01*
X194110973Y-59380776D01*
X194069750Y-59402810D01*
X194069388Y-59402960D01*
X194024662Y-59416528D01*
X194024277Y-59416604D01*
X193971621Y-59421790D01*
X193971425Y-59421800D01*
X193896425Y-59421800D01*
X193894693Y-59420800D01*
X193894693Y-59418800D01*
X193896229Y-59417810D01*
X193958493Y-59411678D01*
X194018182Y-59393571D01*
X194073189Y-59364170D01*
X194121402Y-59324602D01*
X194160970Y-59276389D01*
X194190371Y-59221382D01*
X194208478Y-59161693D01*
X194214610Y-59099429D01*
X194215775Y-59097803D01*
X194217765Y-59097999D01*
G37*
G36*
X192388507Y-57593800D02*
G01*
X192388507Y-57595800D01*
X192386971Y-57596790D01*
X192324707Y-57602922D01*
X192265018Y-57621029D01*
X192210011Y-57650430D01*
X192161798Y-57689998D01*
X192122230Y-57738211D01*
X192092829Y-57793218D01*
X192074722Y-57852907D01*
X192068590Y-57915171D01*
X192067425Y-57916797D01*
X192065435Y-57916601D01*
X192064600Y-57914975D01*
X192064600Y-57839975D01*
X192064610Y-57839779D01*
X192069796Y-57787123D01*
X192069872Y-57786738D01*
X192083440Y-57742012D01*
X192083590Y-57741650D01*
X192105624Y-57700427D01*
X192105842Y-57700101D01*
X192135493Y-57663970D01*
X192135770Y-57663693D01*
X192171901Y-57634042D01*
X192172227Y-57633824D01*
X192213450Y-57611790D01*
X192213812Y-57611640D01*
X192258538Y-57598072D01*
X192258923Y-57597996D01*
X192311579Y-57592810D01*
X192311775Y-57592800D01*
X192386775Y-57592800D01*
X192388507Y-57593800D01*
G37*
G36*
X193971621Y-57592810D02*
G01*
X194024277Y-57597996D01*
X194024662Y-57598072D01*
X194069388Y-57611640D01*
X194069750Y-57611790D01*
X194110973Y-57633824D01*
X194111299Y-57634042D01*
X194147430Y-57663693D01*
X194147707Y-57663970D01*
X194177358Y-57700101D01*
X194177576Y-57700427D01*
X194199610Y-57741650D01*
X194199760Y-57742012D01*
X194213328Y-57786738D01*
X194213404Y-57787123D01*
X194218590Y-57839779D01*
X194218600Y-57839975D01*
X194218600Y-57914975D01*
X194217600Y-57916707D01*
X194215600Y-57916707D01*
X194214610Y-57915171D01*
X194208478Y-57852907D01*
X194190371Y-57793218D01*
X194160970Y-57738211D01*
X194121402Y-57689998D01*
X194073189Y-57650430D01*
X194018182Y-57621029D01*
X193958493Y-57602922D01*
X193896229Y-57596790D01*
X193894603Y-57595625D01*
X193894799Y-57593635D01*
X193896425Y-57592800D01*
X193971425Y-57592800D01*
X193971621Y-57592810D01*
G37*
M02*
