G04 #@! TF.GenerationSoftware,KiCad,Pcbnew,(5.1.7)-1*
G04 #@! TF.CreationDate,2021-05-02T01:51:04-07:00*
G04 #@! TF.ProjectId,mouse_v2,6d6f7573-655f-4763-922e-6b696361645f,rev?*
G04 #@! TF.SameCoordinates,Original*
G04 #@! TF.FileFunction,Paste,Top*
G04 #@! TF.FilePolarity,Positive*
%FSLAX46Y46*%
G04 Gerber Fmt 4.6, Leading zero omitted, Abs format (unit mm)*
G04 Created by KiCad (PCBNEW (5.1.7)-1) date 2021-05-02 01:51:04*
%MOMM*%
%LPD*%
G01*
G04 APERTURE LIST*
%ADD10R,4.600000X1.100000*%
%ADD11R,4.550000X5.250000*%
G04 APERTURE END LIST*
G36*
G01*
X156405000Y-75778000D02*
X158555000Y-75778000D01*
G75*
G02*
X158805000Y-76028000I0J-250000D01*
G01*
X158805000Y-76953000D01*
G75*
G02*
X158555000Y-77203000I-250000J0D01*
G01*
X156405000Y-77203000D01*
G75*
G02*
X156155000Y-76953000I0J250000D01*
G01*
X156155000Y-76028000D01*
G75*
G02*
X156405000Y-75778000I250000J0D01*
G01*
G37*
G36*
G01*
X156405000Y-78753000D02*
X158555000Y-78753000D01*
G75*
G02*
X158805000Y-79003000I0J-250000D01*
G01*
X158805000Y-79928000D01*
G75*
G02*
X158555000Y-80178000I-250000J0D01*
G01*
X156405000Y-80178000D01*
G75*
G02*
X156155000Y-79928000I0J250000D01*
G01*
X156155000Y-79003000D01*
G75*
G02*
X156405000Y-78753000I250000J0D01*
G01*
G37*
G36*
G01*
X174533200Y-69306600D02*
X174533200Y-68056600D01*
G75*
G02*
X174783200Y-67806600I250000J0D01*
G01*
X175708200Y-67806600D01*
G75*
G02*
X175958200Y-68056600I0J-250000D01*
G01*
X175958200Y-69306600D01*
G75*
G02*
X175708200Y-69556600I-250000J0D01*
G01*
X174783200Y-69556600D01*
G75*
G02*
X174533200Y-69306600I0J250000D01*
G01*
G37*
G36*
G01*
X177508200Y-69306600D02*
X177508200Y-68056600D01*
G75*
G02*
X177758200Y-67806600I250000J0D01*
G01*
X178683200Y-67806600D01*
G75*
G02*
X178933200Y-68056600I0J-250000D01*
G01*
X178933200Y-69306600D01*
G75*
G02*
X178683200Y-69556600I-250000J0D01*
G01*
X177758200Y-69556600D01*
G75*
G02*
X177508200Y-69306600I0J250000D01*
G01*
G37*
D10*
X176901800Y-60248800D03*
X176901800Y-62788800D03*
X176901800Y-65328800D03*
D11*
X188476800Y-65563800D03*
X183626800Y-60013800D03*
X188476800Y-60013800D03*
X183626800Y-65563800D03*
G36*
G01*
X192516600Y-57794800D02*
X193766600Y-57794800D01*
G75*
G02*
X194016600Y-58044800I0J-250000D01*
G01*
X194016600Y-58969800D01*
G75*
G02*
X193766600Y-59219800I-250000J0D01*
G01*
X192516600Y-59219800D01*
G75*
G02*
X192266600Y-58969800I0J250000D01*
G01*
X192266600Y-58044800D01*
G75*
G02*
X192516600Y-57794800I250000J0D01*
G01*
G37*
G36*
G01*
X192516600Y-60769800D02*
X193766600Y-60769800D01*
G75*
G02*
X194016600Y-61019800I0J-250000D01*
G01*
X194016600Y-61944800D01*
G75*
G02*
X193766600Y-62194800I-250000J0D01*
G01*
X192516600Y-62194800D01*
G75*
G02*
X192266600Y-61944800I0J250000D01*
G01*
X192266600Y-61019800D01*
G75*
G02*
X192516600Y-60769800I250000J0D01*
G01*
G37*
G36*
G01*
X120787000Y-66892000D02*
X120787000Y-66712000D01*
G75*
G02*
X120877000Y-66622000I90000J0D01*
G01*
X121155000Y-66622000D01*
G75*
G02*
X121245000Y-66712000I0J-90000D01*
G01*
X121245000Y-66892000D01*
G75*
G02*
X121155000Y-66982000I-90000J0D01*
G01*
X120877000Y-66982000D01*
G75*
G02*
X120787000Y-66892000I0J90000D01*
G01*
G37*
G36*
G01*
X121652000Y-66892000D02*
X121652000Y-66712000D01*
G75*
G02*
X121742000Y-66622000I90000J0D01*
G01*
X122020000Y-66622000D01*
G75*
G02*
X122110000Y-66712000I0J-90000D01*
G01*
X122110000Y-66892000D01*
G75*
G02*
X122020000Y-66982000I-90000J0D01*
G01*
X121742000Y-66982000D01*
G75*
G02*
X121652000Y-66892000I0J90000D01*
G01*
G37*
G36*
G01*
X121652000Y-58002000D02*
X121652000Y-57822000D01*
G75*
G02*
X121742000Y-57732000I90000J0D01*
G01*
X122020000Y-57732000D01*
G75*
G02*
X122110000Y-57822000I0J-90000D01*
G01*
X122110000Y-58002000D01*
G75*
G02*
X122020000Y-58092000I-90000J0D01*
G01*
X121742000Y-58092000D01*
G75*
G02*
X121652000Y-58002000I0J90000D01*
G01*
G37*
G36*
G01*
X120787000Y-58002000D02*
X120787000Y-57822000D01*
G75*
G02*
X120877000Y-57732000I90000J0D01*
G01*
X121155000Y-57732000D01*
G75*
G02*
X121245000Y-57822000I0J-90000D01*
G01*
X121245000Y-58002000D01*
G75*
G02*
X121155000Y-58092000I-90000J0D01*
G01*
X120877000Y-58092000D01*
G75*
G02*
X120787000Y-58002000I0J90000D01*
G01*
G37*
G36*
G01*
X120787000Y-62320000D02*
X120787000Y-62140000D01*
G75*
G02*
X120877000Y-62050000I90000J0D01*
G01*
X121155000Y-62050000D01*
G75*
G02*
X121245000Y-62140000I0J-90000D01*
G01*
X121245000Y-62320000D01*
G75*
G02*
X121155000Y-62410000I-90000J0D01*
G01*
X120877000Y-62410000D01*
G75*
G02*
X120787000Y-62320000I0J90000D01*
G01*
G37*
G36*
G01*
X121652000Y-62320000D02*
X121652000Y-62140000D01*
G75*
G02*
X121742000Y-62050000I90000J0D01*
G01*
X122020000Y-62050000D01*
G75*
G02*
X122110000Y-62140000I0J-90000D01*
G01*
X122110000Y-62320000D01*
G75*
G02*
X122020000Y-62410000I-90000J0D01*
G01*
X121742000Y-62410000D01*
G75*
G02*
X121652000Y-62320000I0J90000D01*
G01*
G37*
M02*
