G04 #@! TF.GenerationSoftware,KiCad,Pcbnew,(5.1.7)-1*
G04 #@! TF.CreationDate,2021-05-02T01:51:04-07:00*
G04 #@! TF.ProjectId,mouse_v2,6d6f7573-655f-4763-922e-6b696361645f,rev?*
G04 #@! TF.SameCoordinates,Original*
G04 #@! TF.FileFunction,Paste,Bot*
G04 #@! TF.FilePolarity,Positive*
%FSLAX46Y46*%
G04 Gerber Fmt 4.6, Leading zero omitted, Abs format (unit mm)*
G04 Created by KiCad (PCBNEW (5.1.7)-1) date 2021-05-02 01:51:04*
%MOMM*%
%LPD*%
G01*
G04 APERTURE LIST*
G04 APERTURE END LIST*
G36*
G01*
X137131900Y-64995700D02*
X138381900Y-64995700D01*
G75*
G02*
X138631900Y-65245700I0J-250000D01*
G01*
X138631900Y-66170700D01*
G75*
G02*
X138381900Y-66420700I-250000J0D01*
G01*
X137131900Y-66420700D01*
G75*
G02*
X136881900Y-66170700I0J250000D01*
G01*
X136881900Y-65245700D01*
G75*
G02*
X137131900Y-64995700I250000J0D01*
G01*
G37*
G36*
G01*
X137131900Y-67970700D02*
X138381900Y-67970700D01*
G75*
G02*
X138631900Y-68220700I0J-250000D01*
G01*
X138631900Y-69145700D01*
G75*
G02*
X138381900Y-69395700I-250000J0D01*
G01*
X137131900Y-69395700D01*
G75*
G02*
X136881900Y-69145700I0J250000D01*
G01*
X136881900Y-68220700D01*
G75*
G02*
X137131900Y-67970700I250000J0D01*
G01*
G37*
G36*
G01*
X120736000Y-69713000D02*
X120736000Y-68463000D01*
G75*
G02*
X120986000Y-68213000I250000J0D01*
G01*
X121786000Y-68213000D01*
G75*
G02*
X122036000Y-68463000I0J-250000D01*
G01*
X122036000Y-69713000D01*
G75*
G02*
X121786000Y-69963000I-250000J0D01*
G01*
X120986000Y-69963000D01*
G75*
G02*
X120736000Y-69713000I0J250000D01*
G01*
G37*
G36*
G01*
X123836000Y-69713000D02*
X123836000Y-68463000D01*
G75*
G02*
X124086000Y-68213000I250000J0D01*
G01*
X124886000Y-68213000D01*
G75*
G02*
X125136000Y-68463000I0J-250000D01*
G01*
X125136000Y-69713000D01*
G75*
G02*
X124886000Y-69963000I-250000J0D01*
G01*
X124086000Y-69963000D01*
G75*
G02*
X123836000Y-69713000I0J250000D01*
G01*
G37*
G36*
G01*
X123836000Y-60823000D02*
X123836000Y-59573000D01*
G75*
G02*
X124086000Y-59323000I250000J0D01*
G01*
X124886000Y-59323000D01*
G75*
G02*
X125136000Y-59573000I0J-250000D01*
G01*
X125136000Y-60823000D01*
G75*
G02*
X124886000Y-61073000I-250000J0D01*
G01*
X124086000Y-61073000D01*
G75*
G02*
X123836000Y-60823000I0J250000D01*
G01*
G37*
G36*
G01*
X120736000Y-60823000D02*
X120736000Y-59573000D01*
G75*
G02*
X120986000Y-59323000I250000J0D01*
G01*
X121786000Y-59323000D01*
G75*
G02*
X122036000Y-59573000I0J-250000D01*
G01*
X122036000Y-60823000D01*
G75*
G02*
X121786000Y-61073000I-250000J0D01*
G01*
X120986000Y-61073000D01*
G75*
G02*
X120736000Y-60823000I0J250000D01*
G01*
G37*
G36*
G01*
X120736000Y-65141000D02*
X120736000Y-63891000D01*
G75*
G02*
X120986000Y-63641000I250000J0D01*
G01*
X121786000Y-63641000D01*
G75*
G02*
X122036000Y-63891000I0J-250000D01*
G01*
X122036000Y-65141000D01*
G75*
G02*
X121786000Y-65391000I-250000J0D01*
G01*
X120986000Y-65391000D01*
G75*
G02*
X120736000Y-65141000I0J250000D01*
G01*
G37*
G36*
G01*
X123836000Y-65141000D02*
X123836000Y-63891000D01*
G75*
G02*
X124086000Y-63641000I250000J0D01*
G01*
X124886000Y-63641000D01*
G75*
G02*
X125136000Y-63891000I0J-250000D01*
G01*
X125136000Y-65141000D01*
G75*
G02*
X124886000Y-65391000I-250000J0D01*
G01*
X124086000Y-65391000D01*
G75*
G02*
X123836000Y-65141000I0J250000D01*
G01*
G37*
M02*
