M48
; DRILL file {KiCad (5.1.7)-1} date 05/02/21 01:52:04
; FORMAT={-:-/ absolute / metric / decimal}
; #@! TF.CreationDate,2021-05-02T01:52:04-07:00
; #@! TF.GenerationSoftware,Kicad,Pcbnew,(5.1.7)-1
; #@! TF.FileFunction,Plated,1,2,PTH
FMAT,2
METRIC
T1C0.400
T2C0.750
T3C0.762
T4C0.800
T5C0.900
T6C1.000
T7C1.100
T8C1.118
T9C1.900
%
G90
G05
T1
X122.936Y-57.912
X122.936Y-62.23
X122.936Y-66.802
X124.269Y-108.458
X124.486Y-60.198
X124.486Y-64.516
X124.486Y-69.088
X127.94Y-110.236
X128.016Y-111.15
X129.007Y-110.236
X129.007Y-111.176
X130.099Y-110.236
X130.124Y-111.15
X133.985Y-78.105
X133.985Y-79.375
X135.255Y-78.105
X135.255Y-79.375
X139.649Y-119.482
X141.783Y-122.276
X142.215Y-112.928
X143.916Y-72.136
X144.945Y-116.205
X144.983Y-110.185
X145.085Y-126.289
X149.047Y-106.985
X154.33Y-63.157
X155.067Y-63.868
X156.007Y-64.491
X156.781Y-65.202
X160.934Y-117.5
X160.934Y-118.466
X160.934Y-119.482
X160.934Y-120.447
X162.001Y-117.5
X162.001Y-118.516
X162.001Y-119.532
X162.052Y-120.498
X162.707Y-105.918
X174.752Y-104.038
X174.803Y-104.953
X175.666Y-104.038
X175.717Y-104.953
X175.895Y-118.491
X176.276Y-132.842
X176.632Y-104.038
X176.632Y-104.953
X177.597Y-104.038
X177.597Y-104.953
X197.167Y-116.776
X197.167Y-117.729
X197.167Y-118.618
X198.12Y-118.618
X198.183Y-117.729
X198.247Y-116.776
T2
X135.712Y-120.193
X135.712Y-122.733
X136.982Y-121.463
X183.416Y-120.99
X184.686Y-119.72
X184.686Y-122.26
X149.047Y-58.725
X150.317Y-57.455
X150.317Y-59.995
X127.0Y-120.84
X128.27Y-122.11
X129.54Y-120.84
X190.5Y-121.285
X191.77Y-120.015
X193.04Y-121.285
T3
X140.056Y-61.885
X140.106Y-56.885
T4
X138.684Y-134.62
X138.684Y-136.652
X140.716Y-134.62
X140.716Y-136.652
X164.846Y-60.96
X164.846Y-62.738
X165.1Y-73.406
X166.497Y-62.725
X166.522Y-60.96
X167.894Y-73.152
X181.762Y-70.002
X183.388Y-59.944
X183.388Y-61.976
X183.388Y-64.008
X183.642Y-70.053
X183.642Y-71.78
X185.42Y-70.053
X185.522Y-71.78
X185.928Y-59.944
X185.928Y-61.976
X185.928Y-64.008
X188.468Y-59.944
X188.468Y-61.976
X188.468Y-64.008
X190.5Y-81.229
X184.785Y-105.41
X184.785Y-115.57
X167.64Y-134.62
X167.64Y-144.78
X136.246Y-59.893
X146.406Y-59.893
X164.592Y-134.645
X164.592Y-144.805
X187.96Y-105.41
X187.96Y-115.57
X164.897Y-56.998
X164.897Y-67.158
X128.905Y-105.41
X128.905Y-115.57
X135.89Y-130.81
X146.05Y-130.81
X136.347Y-62.941
X146.507Y-62.941
X164.897Y-69.494
X164.897Y-79.654
X167.655Y-78.039
X169.655Y-78.039
X171.655Y-78.039
X173.655Y-78.039
X175.655Y-78.039
X177.655Y-78.039
X194.31Y-105.41
X194.31Y-115.57
X191.135Y-105.41
X191.135Y-115.57
X125.73Y-105.41
X125.73Y-115.57
X142.596Y-77.902
X144.596Y-77.902
X146.596Y-77.902
X148.596Y-77.902
X150.596Y-77.902
X152.596Y-77.902
X135.255Y-105.41
X135.255Y-115.57
X132.08Y-105.41
X132.08Y-115.57
X152.4Y-134.62
X152.4Y-144.78
X169.255Y-68.834
X171.755Y-68.834
X148.59Y-130.81
X158.75Y-130.81
X155.473Y-134.645
X155.473Y-144.805
X161.544Y-130.81
X171.704Y-130.81
X169.255Y-62.789
X171.755Y-62.789
X174.244Y-130.81
X184.404Y-130.81
T5
X169.723Y-142.011
X170.856Y-139.738
X161.9Y-144.577
X163.033Y-142.304
X190.449Y-127.051
X192.989Y-127.051
X121.679Y-121.031
X124.219Y-121.031
X127.178Y-126.924
X129.718Y-126.924
X195.936Y-121.158
X198.476Y-121.158
X157.083Y-142.304
X158.217Y-144.577
X149.285Y-139.738
X150.419Y-142.011
T6
X170.84Y-73.66
X173.38Y-73.66
X181.229Y-72.453
X181.229Y-74.993
X168.097Y-118.618
X168.097Y-121.158
X121.463Y-105.207
X121.463Y-107.747
X121.463Y-110.287
X121.463Y-112.827
X121.463Y-115.367
X121.463Y-117.907
X136.081Y-134.366
X136.081Y-136.906
T7
X143.764Y-112.38
X143.764Y-114.92
X143.764Y-117.46
X143.764Y-120.0
X143.764Y-122.54
X143.764Y-125.08
X143.764Y-127.62
X146.304Y-112.38
X146.304Y-127.62
X148.844Y-112.38
X148.844Y-114.92
X148.844Y-117.46
X148.844Y-120.0
X148.844Y-122.54
X148.844Y-125.08
X148.844Y-127.62
X151.384Y-112.38
X151.384Y-114.92
X151.384Y-117.46
X151.384Y-120.0
X151.384Y-122.54
X151.384Y-125.08
X151.384Y-127.62
X153.924Y-112.38
X153.924Y-127.62
X156.464Y-112.38
X156.464Y-127.62
X159.004Y-112.38
X159.004Y-127.62
X161.544Y-112.38
X161.544Y-127.62
X164.084Y-112.38
X164.084Y-127.62
X166.624Y-112.38
X166.624Y-127.62
X169.164Y-112.38
X169.164Y-127.62
X171.704Y-112.38
X171.704Y-127.62
X174.244Y-112.38
X174.244Y-125.08
X174.244Y-127.62
X176.784Y-112.38
X176.784Y-127.62
X126.886Y-57.353
X126.886Y-61.853
X133.386Y-57.353
X133.386Y-61.853
X126.886Y-65.024
X126.886Y-69.524
X133.386Y-65.024
X133.386Y-69.524
T8
X140.099Y-66.594
X140.099Y-74.214
X142.639Y-66.594
X142.639Y-74.214
X145.179Y-66.594
X145.179Y-74.214
X147.719Y-66.594
X147.719Y-74.214
X150.259Y-66.594
X150.259Y-74.214
X152.799Y-66.594
X152.799Y-74.214
X155.339Y-66.594
X155.339Y-74.214
X157.879Y-66.594
X157.879Y-74.214
T9
X198.069Y-58.319
X198.069Y-63.069
X198.069Y-67.769
T0
M30
