G04 #@! TF.GenerationSoftware,KiCad,Pcbnew,(5.1.7)-1*
G04 #@! TF.CreationDate,2021-05-02T01:51:04-07:00*
G04 #@! TF.ProjectId,mouse_v2,6d6f7573-655f-4763-922e-6b696361645f,rev?*
G04 #@! TF.SameCoordinates,Original*
G04 #@! TF.FileFunction,Legend,Bot*
G04 #@! TF.FilePolarity,Positive*
%FSLAX46Y46*%
G04 Gerber Fmt 4.6, Leading zero omitted, Abs format (unit mm)*
G04 Created by KiCad (PCBNEW (5.1.7)-1) date 2021-05-02 01:51:04*
%MOMM*%
%LPD*%
G01*
G04 APERTURE LIST*
%ADD10C,0.300000*%
%ADD11C,0.200000*%
%ADD12C,0.120000*%
%ADD13C,0.150000*%
%ADD14C,2.000000*%
%ADD15C,1.700000*%
%ADD16C,2.900000*%
%ADD17O,2.000000X2.000000*%
%ADD18C,1.924000*%
%ADD19C,2.400000*%
%ADD20C,2.200000*%
%ADD21O,2.100000X2.100000*%
%ADD22C,2.076400*%
%ADD23C,2.584400*%
%ADD24O,1.750000X1.750000*%
%ADD25C,2.600000*%
G04 APERTURE END LIST*
D10*
X150964285Y-103701428D02*
X150964285Y-102630000D01*
X150892857Y-102415714D01*
X150750000Y-102272857D01*
X150535714Y-102201428D01*
X150392857Y-102201428D01*
X151678571Y-102344285D02*
X151750000Y-102272857D01*
X151678571Y-102201428D01*
X151607142Y-102272857D01*
X151678571Y-102344285D01*
X151678571Y-102201428D01*
X154250000Y-102201428D02*
X153535714Y-102201428D01*
X153535714Y-103701428D01*
X154964285Y-102201428D02*
X154821428Y-102272857D01*
X154750000Y-102344285D01*
X154678571Y-102487142D01*
X154678571Y-102915714D01*
X154750000Y-103058571D01*
X154821428Y-103130000D01*
X154964285Y-103201428D01*
X155178571Y-103201428D01*
X155321428Y-103130000D01*
X155392857Y-103058571D01*
X155464285Y-102915714D01*
X155464285Y-102487142D01*
X155392857Y-102344285D01*
X155321428Y-102272857D01*
X155178571Y-102201428D01*
X154964285Y-102201428D01*
X155964285Y-103201428D02*
X156250000Y-102201428D01*
X156535714Y-102915714D01*
X156821428Y-102201428D01*
X157107142Y-103201428D01*
X157750000Y-102272857D02*
X157750000Y-102201428D01*
X157678571Y-102058571D01*
X157607142Y-101987142D01*
X160392857Y-102344285D02*
X160321428Y-102272857D01*
X160107142Y-102201428D01*
X159964285Y-102201428D01*
X159750000Y-102272857D01*
X159607142Y-102415714D01*
X159535714Y-102558571D01*
X159464285Y-102844285D01*
X159464285Y-103058571D01*
X159535714Y-103344285D01*
X159607142Y-103487142D01*
X159750000Y-103630000D01*
X159964285Y-103701428D01*
X160107142Y-103701428D01*
X160321428Y-103630000D01*
X160392857Y-103558571D01*
X161035714Y-102344285D02*
X161107142Y-102272857D01*
X161035714Y-102201428D01*
X160964285Y-102272857D01*
X161035714Y-102344285D01*
X161035714Y-102201428D01*
X162892857Y-102201428D02*
X162892857Y-103701428D01*
X163250000Y-103701428D01*
X163464285Y-103630000D01*
X163607142Y-103487142D01*
X163678571Y-103344285D01*
X163750000Y-103058571D01*
X163750000Y-102844285D01*
X163678571Y-102558571D01*
X163607142Y-102415714D01*
X163464285Y-102272857D01*
X163250000Y-102201428D01*
X162892857Y-102201428D01*
X164392857Y-102201428D02*
X164392857Y-103201428D01*
X164392857Y-103701428D02*
X164321428Y-103630000D01*
X164392857Y-103558571D01*
X164464285Y-103630000D01*
X164392857Y-103701428D01*
X164392857Y-103558571D01*
X165750000Y-102201428D02*
X165750000Y-102987142D01*
X165678571Y-103130000D01*
X165535714Y-103201428D01*
X165250000Y-103201428D01*
X165107142Y-103130000D01*
X165750000Y-102272857D02*
X165607142Y-102201428D01*
X165250000Y-102201428D01*
X165107142Y-102272857D01*
X165035714Y-102415714D01*
X165035714Y-102558571D01*
X165107142Y-102701428D01*
X165250000Y-102772857D01*
X165607142Y-102772857D01*
X165750000Y-102844285D01*
X166321428Y-103201428D02*
X167107142Y-103201428D01*
X166321428Y-102201428D01*
X167107142Y-102201428D01*
X151321428Y-99651428D02*
X151321428Y-101151428D01*
X152178571Y-99651428D02*
X151535714Y-100508571D01*
X152178571Y-101151428D02*
X151321428Y-100294285D01*
X152821428Y-99651428D02*
X152821428Y-100651428D01*
X152821428Y-101151428D02*
X152750000Y-101080000D01*
X152821428Y-101008571D01*
X152892857Y-101080000D01*
X152821428Y-101151428D01*
X152821428Y-101008571D01*
X153321428Y-100651428D02*
X153892857Y-100651428D01*
X153535714Y-101151428D02*
X153535714Y-99865714D01*
X153607142Y-99722857D01*
X153750000Y-99651428D01*
X153892857Y-99651428D01*
X154392857Y-100222857D02*
X155535714Y-100222857D01*
X156250000Y-99651428D02*
X156250000Y-101151428D01*
X156750000Y-100080000D01*
X157250000Y-101151428D01*
X157250000Y-99651428D01*
X158178571Y-99651428D02*
X158035714Y-99722857D01*
X157964285Y-99794285D01*
X157892857Y-99937142D01*
X157892857Y-100365714D01*
X157964285Y-100508571D01*
X158035714Y-100580000D01*
X158178571Y-100651428D01*
X158392857Y-100651428D01*
X158535714Y-100580000D01*
X158607142Y-100508571D01*
X158678571Y-100365714D01*
X158678571Y-99937142D01*
X158607142Y-99794285D01*
X158535714Y-99722857D01*
X158392857Y-99651428D01*
X158178571Y-99651428D01*
X159964285Y-100651428D02*
X159964285Y-99651428D01*
X159321428Y-100651428D02*
X159321428Y-99865714D01*
X159392857Y-99722857D01*
X159535714Y-99651428D01*
X159750000Y-99651428D01*
X159892857Y-99722857D01*
X159964285Y-99794285D01*
X160607142Y-99722857D02*
X160750000Y-99651428D01*
X161035714Y-99651428D01*
X161178571Y-99722857D01*
X161250000Y-99865714D01*
X161250000Y-99937142D01*
X161178571Y-100080000D01*
X161035714Y-100151428D01*
X160821428Y-100151428D01*
X160678571Y-100222857D01*
X160607142Y-100365714D01*
X160607142Y-100437142D01*
X160678571Y-100580000D01*
X160821428Y-100651428D01*
X161035714Y-100651428D01*
X161178571Y-100580000D01*
X162464285Y-99722857D02*
X162321428Y-99651428D01*
X162035714Y-99651428D01*
X161892857Y-99722857D01*
X161821428Y-99865714D01*
X161821428Y-100437142D01*
X161892857Y-100580000D01*
X162035714Y-100651428D01*
X162321428Y-100651428D01*
X162464285Y-100580000D01*
X162535714Y-100437142D01*
X162535714Y-100294285D01*
X161821428Y-100151428D01*
X164178571Y-100651428D02*
X164535714Y-99651428D01*
X164892857Y-100651428D01*
X166250000Y-99651428D02*
X165392857Y-99651428D01*
X165821428Y-99651428D02*
X165821428Y-101151428D01*
X165678571Y-100937142D01*
X165535714Y-100794285D01*
X165392857Y-100722857D01*
X156178571Y-98458571D02*
X156250000Y-98530000D01*
X156392857Y-98601428D01*
X156750000Y-98601428D01*
X156892857Y-98530000D01*
X156964285Y-98458571D01*
X157035714Y-98315714D01*
X157035714Y-98172857D01*
X156964285Y-97958571D01*
X156107142Y-97101428D01*
X157035714Y-97101428D01*
X157964285Y-98601428D02*
X158107142Y-98601428D01*
X158250000Y-98530000D01*
X158321428Y-98458571D01*
X158392857Y-98315714D01*
X158464285Y-98030000D01*
X158464285Y-97672857D01*
X158392857Y-97387142D01*
X158321428Y-97244285D01*
X158250000Y-97172857D01*
X158107142Y-97101428D01*
X157964285Y-97101428D01*
X157821428Y-97172857D01*
X157750000Y-97244285D01*
X157678571Y-97387142D01*
X157607142Y-97672857D01*
X157607142Y-98030000D01*
X157678571Y-98315714D01*
X157750000Y-98458571D01*
X157821428Y-98530000D01*
X157964285Y-98601428D01*
X159035714Y-98458571D02*
X159107142Y-98530000D01*
X159250000Y-98601428D01*
X159607142Y-98601428D01*
X159750000Y-98530000D01*
X159821428Y-98458571D01*
X159892857Y-98315714D01*
X159892857Y-98172857D01*
X159821428Y-97958571D01*
X158964285Y-97101428D01*
X159892857Y-97101428D01*
X160821428Y-98601428D02*
X160964285Y-98601428D01*
X161107142Y-98530000D01*
X161178571Y-98458571D01*
X161250000Y-98315714D01*
X161321428Y-98030000D01*
X161321428Y-97672857D01*
X161250000Y-97387142D01*
X161178571Y-97244285D01*
X161107142Y-97172857D01*
X160964285Y-97101428D01*
X160821428Y-97101428D01*
X160678571Y-97172857D01*
X160607142Y-97244285D01*
X160535714Y-97387142D01*
X160464285Y-97672857D01*
X160464285Y-98030000D01*
X160535714Y-98315714D01*
X160607142Y-98458571D01*
X160678571Y-98530000D01*
X160821428Y-98601428D01*
D11*
X149225000Y-104140000D02*
X149225000Y-96520000D01*
X168910000Y-104140000D02*
X149209760Y-104140000D01*
X168910000Y-96674940D02*
X168910000Y-104140000D01*
X149225000Y-96520000D02*
X168945560Y-96507300D01*
D12*
X136846900Y-66593636D02*
X136846900Y-67797764D01*
X138666900Y-66593636D02*
X138666900Y-67797764D01*
X144595600Y-58523200D02*
X144595600Y-61263200D01*
X144595600Y-61263200D02*
X138055600Y-61263200D01*
X138055600Y-61263200D02*
X138055600Y-58523200D01*
X138055600Y-58523200D02*
X144595600Y-58523200D01*
X145365600Y-59893200D02*
X144595600Y-59893200D01*
X137285600Y-59893200D02*
X138055600Y-59893200D01*
X155473400Y-143765400D02*
X155473400Y-142995400D01*
X155473400Y-135685400D02*
X155473400Y-136455400D01*
X154103400Y-142995400D02*
X154103400Y-136455400D01*
X156843400Y-142995400D02*
X154103400Y-142995400D01*
X156843400Y-136455400D02*
X156843400Y-142995400D01*
X154103400Y-136455400D02*
X156843400Y-136455400D01*
X138157200Y-64311200D02*
X138157200Y-61571200D01*
X138157200Y-61571200D02*
X144697200Y-61571200D01*
X144697200Y-61571200D02*
X144697200Y-64311200D01*
X144697200Y-64311200D02*
X138157200Y-64311200D01*
X137387200Y-62941200D02*
X138157200Y-62941200D01*
X145467200Y-62941200D02*
X144697200Y-62941200D01*
X163222000Y-136455400D02*
X165962000Y-136455400D01*
X165962000Y-136455400D02*
X165962000Y-142995400D01*
X165962000Y-142995400D02*
X163222000Y-142995400D01*
X163222000Y-142995400D02*
X163222000Y-136455400D01*
X164592000Y-135685400D02*
X164592000Y-136455400D01*
X164592000Y-143765400D02*
X164592000Y-142995400D01*
X152400000Y-135660000D02*
X152400000Y-136430000D01*
X152400000Y-143740000D02*
X152400000Y-142970000D01*
X153770000Y-136430000D02*
X153770000Y-142970000D01*
X151030000Y-136430000D02*
X153770000Y-136430000D01*
X151030000Y-142970000D02*
X151030000Y-136430000D01*
X153770000Y-142970000D02*
X151030000Y-142970000D01*
X167640000Y-135660000D02*
X167640000Y-136430000D01*
X167640000Y-143740000D02*
X167640000Y-142970000D01*
X169010000Y-136430000D02*
X169010000Y-142970000D01*
X166270000Y-136430000D02*
X169010000Y-136430000D01*
X166270000Y-142970000D02*
X166270000Y-136430000D01*
X169010000Y-142970000D02*
X166270000Y-142970000D01*
X122208936Y-68178000D02*
X123663064Y-68178000D01*
X122208936Y-69998000D02*
X123663064Y-69998000D01*
X122208936Y-61108000D02*
X123663064Y-61108000D01*
X122208936Y-59288000D02*
X123663064Y-59288000D01*
X122208936Y-63606000D02*
X123663064Y-63606000D01*
X122208936Y-65426000D02*
X123663064Y-65426000D01*
D13*
X138152142Y-70572333D02*
X138199761Y-70524714D01*
X138247380Y-70381857D01*
X138247380Y-70286619D01*
X138199761Y-70143761D01*
X138104523Y-70048523D01*
X138009285Y-70000904D01*
X137818809Y-69953285D01*
X137675952Y-69953285D01*
X137485476Y-70000904D01*
X137390238Y-70048523D01*
X137295000Y-70143761D01*
X137247380Y-70286619D01*
X137247380Y-70381857D01*
X137295000Y-70524714D01*
X137342619Y-70572333D01*
X137342619Y-70953285D02*
X137295000Y-71000904D01*
X137247380Y-71096142D01*
X137247380Y-71334238D01*
X137295000Y-71429476D01*
X137342619Y-71477095D01*
X137437857Y-71524714D01*
X137533095Y-71524714D01*
X137675952Y-71477095D01*
X138247380Y-70905666D01*
X138247380Y-71524714D01*
X143962357Y-58237380D02*
X144295690Y-57761190D01*
X144533785Y-58237380D02*
X144533785Y-57237380D01*
X144152833Y-57237380D01*
X144057595Y-57285000D01*
X144009976Y-57332619D01*
X143962357Y-57427857D01*
X143962357Y-57570714D01*
X144009976Y-57665952D01*
X144057595Y-57713571D01*
X144152833Y-57761190D01*
X144533785Y-57761190D01*
X143009976Y-58237380D02*
X143581404Y-58237380D01*
X143295690Y-58237380D02*
X143295690Y-57237380D01*
X143390928Y-57380238D01*
X143486166Y-57475476D01*
X143581404Y-57523095D01*
X142438547Y-57665952D02*
X142533785Y-57618333D01*
X142581404Y-57570714D01*
X142629023Y-57475476D01*
X142629023Y-57427857D01*
X142581404Y-57332619D01*
X142533785Y-57285000D01*
X142438547Y-57237380D01*
X142248071Y-57237380D01*
X142152833Y-57285000D01*
X142105214Y-57332619D01*
X142057595Y-57427857D01*
X142057595Y-57475476D01*
X142105214Y-57570714D01*
X142152833Y-57618333D01*
X142248071Y-57665952D01*
X142438547Y-57665952D01*
X142533785Y-57713571D01*
X142581404Y-57761190D01*
X142629023Y-57856428D01*
X142629023Y-58046904D01*
X142581404Y-58142142D01*
X142533785Y-58189761D01*
X142438547Y-58237380D01*
X142248071Y-58237380D01*
X142152833Y-58189761D01*
X142105214Y-58142142D01*
X142057595Y-58046904D01*
X142057595Y-57856428D01*
X142105214Y-57761190D01*
X142152833Y-57713571D01*
X142248071Y-57665952D01*
X153639780Y-134986733D02*
X153163590Y-134653400D01*
X153639780Y-134415304D02*
X152639780Y-134415304D01*
X152639780Y-134796257D01*
X152687400Y-134891495D01*
X152735019Y-134939114D01*
X152830257Y-134986733D01*
X152973114Y-134986733D01*
X153068352Y-134939114D01*
X153115971Y-134891495D01*
X153163590Y-134796257D01*
X153163590Y-134415304D01*
X152973114Y-135843876D02*
X153639780Y-135843876D01*
X152592161Y-135605780D02*
X153306447Y-135367685D01*
X153306447Y-135986733D01*
X144089357Y-65539880D02*
X144422690Y-65063690D01*
X144660785Y-65539880D02*
X144660785Y-64539880D01*
X144279833Y-64539880D01*
X144184595Y-64587500D01*
X144136976Y-64635119D01*
X144089357Y-64730357D01*
X144089357Y-64873214D01*
X144136976Y-64968452D01*
X144184595Y-65016071D01*
X144279833Y-65063690D01*
X144660785Y-65063690D01*
X143136976Y-65539880D02*
X143708404Y-65539880D01*
X143422690Y-65539880D02*
X143422690Y-64539880D01*
X143517928Y-64682738D01*
X143613166Y-64777976D01*
X143708404Y-64825595D01*
X142803642Y-64539880D02*
X142136976Y-64539880D01*
X142565547Y-65539880D01*
X167330380Y-134986733D02*
X166854190Y-134653400D01*
X167330380Y-134415304D02*
X166330380Y-134415304D01*
X166330380Y-134796257D01*
X166378000Y-134891495D01*
X166425619Y-134939114D01*
X166520857Y-134986733D01*
X166663714Y-134986733D01*
X166758952Y-134939114D01*
X166806571Y-134891495D01*
X166854190Y-134796257D01*
X166854190Y-134415304D01*
X166425619Y-135367685D02*
X166378000Y-135415304D01*
X166330380Y-135510542D01*
X166330380Y-135748638D01*
X166378000Y-135843876D01*
X166425619Y-135891495D01*
X166520857Y-135939114D01*
X166616095Y-135939114D01*
X166758952Y-135891495D01*
X167330380Y-135320066D01*
X167330380Y-135939114D01*
X155222380Y-134961333D02*
X154746190Y-134628000D01*
X155222380Y-134389904D02*
X154222380Y-134389904D01*
X154222380Y-134770857D01*
X154270000Y-134866095D01*
X154317619Y-134913714D01*
X154412857Y-134961333D01*
X154555714Y-134961333D01*
X154650952Y-134913714D01*
X154698571Y-134866095D01*
X154746190Y-134770857D01*
X154746190Y-134389904D01*
X154650952Y-135532761D02*
X154603333Y-135437523D01*
X154555714Y-135389904D01*
X154460476Y-135342285D01*
X154412857Y-135342285D01*
X154317619Y-135389904D01*
X154270000Y-135437523D01*
X154222380Y-135532761D01*
X154222380Y-135723238D01*
X154270000Y-135818476D01*
X154317619Y-135866095D01*
X154412857Y-135913714D01*
X154460476Y-135913714D01*
X154555714Y-135866095D01*
X154603333Y-135818476D01*
X154650952Y-135723238D01*
X154650952Y-135532761D01*
X154698571Y-135437523D01*
X154746190Y-135389904D01*
X154841428Y-135342285D01*
X155031904Y-135342285D01*
X155127142Y-135389904D01*
X155174761Y-135437523D01*
X155222380Y-135532761D01*
X155222380Y-135723238D01*
X155174761Y-135818476D01*
X155127142Y-135866095D01*
X155031904Y-135913714D01*
X154841428Y-135913714D01*
X154746190Y-135866095D01*
X154698571Y-135818476D01*
X154650952Y-135723238D01*
X165806380Y-134707333D02*
X165330190Y-134374000D01*
X165806380Y-134135904D02*
X164806380Y-134135904D01*
X164806380Y-134516857D01*
X164854000Y-134612095D01*
X164901619Y-134659714D01*
X164996857Y-134707333D01*
X165139714Y-134707333D01*
X165234952Y-134659714D01*
X165282571Y-134612095D01*
X165330190Y-134516857D01*
X165330190Y-134135904D01*
X164806380Y-135564476D02*
X164806380Y-135374000D01*
X164854000Y-135278761D01*
X164901619Y-135231142D01*
X165044476Y-135135904D01*
X165234952Y-135088285D01*
X165615904Y-135088285D01*
X165711142Y-135135904D01*
X165758761Y-135183523D01*
X165806380Y-135278761D01*
X165806380Y-135469238D01*
X165758761Y-135564476D01*
X165711142Y-135612095D01*
X165615904Y-135659714D01*
X165377809Y-135659714D01*
X165282571Y-135612095D01*
X165234952Y-135564476D01*
X165187333Y-135469238D01*
X165187333Y-135278761D01*
X165234952Y-135183523D01*
X165282571Y-135135904D01*
X165377809Y-135088285D01*
X123578857Y-71360380D02*
X123912190Y-70884190D01*
X124150285Y-71360380D02*
X124150285Y-70360380D01*
X123769333Y-70360380D01*
X123674095Y-70408000D01*
X123626476Y-70455619D01*
X123578857Y-70550857D01*
X123578857Y-70693714D01*
X123626476Y-70788952D01*
X123674095Y-70836571D01*
X123769333Y-70884190D01*
X124150285Y-70884190D01*
X122626476Y-71360380D02*
X123197904Y-71360380D01*
X122912190Y-71360380D02*
X122912190Y-70360380D01*
X123007428Y-70503238D01*
X123102666Y-70598476D01*
X123197904Y-70646095D01*
X122150285Y-71360380D02*
X121959809Y-71360380D01*
X121864571Y-71312761D01*
X121816952Y-71265142D01*
X121721714Y-71122285D01*
X121674095Y-70931809D01*
X121674095Y-70550857D01*
X121721714Y-70455619D01*
X121769333Y-70408000D01*
X121864571Y-70360380D01*
X122055047Y-70360380D01*
X122150285Y-70408000D01*
X122197904Y-70455619D01*
X122245523Y-70550857D01*
X122245523Y-70788952D01*
X122197904Y-70884190D01*
X122150285Y-70931809D01*
X122055047Y-70979428D01*
X121864571Y-70979428D01*
X121769333Y-70931809D01*
X121721714Y-70884190D01*
X121674095Y-70788952D01*
X123578857Y-62470380D02*
X123912190Y-61994190D01*
X124150285Y-62470380D02*
X124150285Y-61470380D01*
X123769333Y-61470380D01*
X123674095Y-61518000D01*
X123626476Y-61565619D01*
X123578857Y-61660857D01*
X123578857Y-61803714D01*
X123626476Y-61898952D01*
X123674095Y-61946571D01*
X123769333Y-61994190D01*
X124150285Y-61994190D01*
X123197904Y-61565619D02*
X123150285Y-61518000D01*
X123055047Y-61470380D01*
X122816952Y-61470380D01*
X122721714Y-61518000D01*
X122674095Y-61565619D01*
X122626476Y-61660857D01*
X122626476Y-61756095D01*
X122674095Y-61898952D01*
X123245523Y-62470380D01*
X122626476Y-62470380D01*
X122007428Y-61470380D02*
X121912190Y-61470380D01*
X121816952Y-61518000D01*
X121769333Y-61565619D01*
X121721714Y-61660857D01*
X121674095Y-61851333D01*
X121674095Y-62089428D01*
X121721714Y-62279904D01*
X121769333Y-62375142D01*
X121816952Y-62422761D01*
X121912190Y-62470380D01*
X122007428Y-62470380D01*
X122102666Y-62422761D01*
X122150285Y-62375142D01*
X122197904Y-62279904D01*
X122245523Y-62089428D01*
X122245523Y-61851333D01*
X122197904Y-61660857D01*
X122150285Y-61565619D01*
X122102666Y-61518000D01*
X122007428Y-61470380D01*
X123578857Y-66788380D02*
X123912190Y-66312190D01*
X124150285Y-66788380D02*
X124150285Y-65788380D01*
X123769333Y-65788380D01*
X123674095Y-65836000D01*
X123626476Y-65883619D01*
X123578857Y-65978857D01*
X123578857Y-66121714D01*
X123626476Y-66216952D01*
X123674095Y-66264571D01*
X123769333Y-66312190D01*
X124150285Y-66312190D01*
X123197904Y-65883619D02*
X123150285Y-65836000D01*
X123055047Y-65788380D01*
X122816952Y-65788380D01*
X122721714Y-65836000D01*
X122674095Y-65883619D01*
X122626476Y-65978857D01*
X122626476Y-66074095D01*
X122674095Y-66216952D01*
X123245523Y-66788380D01*
X122626476Y-66788380D01*
X121674095Y-66788380D02*
X122245523Y-66788380D01*
X121959809Y-66788380D02*
X121959809Y-65788380D01*
X122055047Y-65931238D01*
X122150285Y-66026476D01*
X122245523Y-66074095D01*
%LPC*%
G36*
G01*
X137002075Y-64795700D02*
X138511725Y-64795700D01*
G75*
G02*
X138831900Y-65115875I0J-320175D01*
G01*
X138831900Y-66300525D01*
G75*
G02*
X138511725Y-66620700I-320175J0D01*
G01*
X137002075Y-66620700D01*
G75*
G02*
X136681900Y-66300525I0J320175D01*
G01*
X136681900Y-65115875D01*
G75*
G02*
X137002075Y-64795700I320175J0D01*
G01*
G37*
G36*
G01*
X137002075Y-67770700D02*
X138511725Y-67770700D01*
G75*
G02*
X138831900Y-68090875I0J-320175D01*
G01*
X138831900Y-69275525D01*
G75*
G02*
X138511725Y-69595700I-320175J0D01*
G01*
X137002075Y-69595700D01*
G75*
G02*
X136681900Y-69275525I0J320175D01*
G01*
X136681900Y-68090875D01*
G75*
G02*
X137002075Y-67770700I320175J0D01*
G01*
G37*
D14*
X169254800Y-62788800D03*
G36*
G01*
X172754800Y-61988800D02*
X172754800Y-63588800D01*
G75*
G02*
X172554800Y-63788800I-200000J0D01*
G01*
X170954800Y-63788800D01*
G75*
G02*
X170754800Y-63588800I0J200000D01*
G01*
X170754800Y-61988800D01*
G75*
G02*
X170954800Y-61788800I200000J0D01*
G01*
X172554800Y-61788800D01*
G75*
G02*
X172754800Y-61988800I0J-200000D01*
G01*
G37*
G36*
G01*
X172754800Y-68034000D02*
X172754800Y-69634000D01*
G75*
G02*
X172554800Y-69834000I-200000J0D01*
G01*
X170954800Y-69834000D01*
G75*
G02*
X170754800Y-69634000I0J200000D01*
G01*
X170754800Y-68034000D01*
G75*
G02*
X170954800Y-67834000I200000J0D01*
G01*
X172554800Y-67834000D01*
G75*
G02*
X172754800Y-68034000I0J-200000D01*
G01*
G37*
X169254800Y-68834000D03*
D15*
X190500000Y-121285000D03*
G36*
G01*
X193690000Y-122135000D02*
X192390000Y-122135000D01*
G75*
G02*
X192190000Y-121935000I0J200000D01*
G01*
X192190000Y-120635000D01*
G75*
G02*
X192390000Y-120435000I200000J0D01*
G01*
X193690000Y-120435000D01*
G75*
G02*
X193890000Y-120635000I0J-200000D01*
G01*
X193890000Y-121935000D01*
G75*
G02*
X193690000Y-122135000I-200000J0D01*
G01*
G37*
X191770000Y-120015000D03*
X183415940Y-120990360D03*
G36*
G01*
X185535940Y-119070360D02*
X185535940Y-120370360D01*
G75*
G02*
X185335940Y-120570360I-200000J0D01*
G01*
X184035940Y-120570360D01*
G75*
G02*
X183835940Y-120370360I0J200000D01*
G01*
X183835940Y-119070360D01*
G75*
G02*
X184035940Y-118870360I200000J0D01*
G01*
X185335940Y-118870360D01*
G75*
G02*
X185535940Y-119070360I0J-200000D01*
G01*
G37*
X184685940Y-122260360D03*
X129540000Y-120840500D03*
G36*
G01*
X126350000Y-119990500D02*
X127650000Y-119990500D01*
G75*
G02*
X127850000Y-120190500I0J-200000D01*
G01*
X127850000Y-121490500D01*
G75*
G02*
X127650000Y-121690500I-200000J0D01*
G01*
X126350000Y-121690500D01*
G75*
G02*
X126150000Y-121490500I0J200000D01*
G01*
X126150000Y-120190500D01*
G75*
G02*
X126350000Y-119990500I200000J0D01*
G01*
G37*
X128270000Y-122110500D03*
X136982200Y-121462800D03*
G36*
G01*
X134862200Y-123382800D02*
X134862200Y-122082800D01*
G75*
G02*
X135062200Y-121882800I200000J0D01*
G01*
X136362200Y-121882800D01*
G75*
G02*
X136562200Y-122082800I0J-200000D01*
G01*
X136562200Y-123382800D01*
G75*
G02*
X136362200Y-123582800I-200000J0D01*
G01*
X135062200Y-123582800D01*
G75*
G02*
X134862200Y-123382800I0J200000D01*
G01*
G37*
X135712200Y-120192800D03*
D16*
X198069200Y-58319200D03*
X198069200Y-63069200D03*
X198069200Y-67769200D03*
D14*
X146405600Y-59893200D03*
D17*
X136245600Y-59893200D03*
D18*
X140055600Y-61885200D03*
X140105600Y-56885200D03*
D19*
X126885700Y-61853200D03*
X126885700Y-57353200D03*
X133385700Y-61853200D03*
X133385700Y-57353200D03*
D14*
X128905000Y-115570000D03*
D17*
X128905000Y-105410000D03*
X155473400Y-144805400D03*
D14*
X155473400Y-134645400D03*
X184785000Y-105410000D03*
D17*
X184785000Y-115570000D03*
X135255000Y-115570000D03*
D14*
X135255000Y-105410000D03*
X136347200Y-62941200D03*
D17*
X146507200Y-62941200D03*
X135890000Y-130810000D03*
D14*
X146050000Y-130810000D03*
X164592000Y-134645400D03*
D17*
X164592000Y-144805400D03*
X132080000Y-115570000D03*
D14*
X132080000Y-105410000D03*
X174244000Y-130810000D03*
D17*
X184404000Y-130810000D03*
X161544000Y-130810000D03*
D14*
X171704000Y-130810000D03*
X191135000Y-115570000D03*
D17*
X191135000Y-105410000D03*
X152400000Y-134620000D03*
D14*
X152400000Y-144780000D03*
X125730000Y-105410000D03*
D17*
X125730000Y-115570000D03*
X167640000Y-134620000D03*
D14*
X167640000Y-144780000D03*
X194310000Y-105410000D03*
D17*
X194310000Y-115570000D03*
X187960000Y-115570000D03*
D14*
X187960000Y-105410000D03*
X148590000Y-130810000D03*
D17*
X158750000Y-130810000D03*
G36*
G01*
X126077800Y-127823800D02*
X126077800Y-126023800D01*
G75*
G02*
X126277800Y-125823800I200000J0D01*
G01*
X128077800Y-125823800D01*
G75*
G02*
X128277800Y-126023800I0J-200000D01*
G01*
X128277800Y-127823800D01*
G75*
G02*
X128077800Y-128023800I-200000J0D01*
G01*
X126277800Y-128023800D01*
G75*
G02*
X126077800Y-127823800I0J200000D01*
G01*
G37*
D20*
X129717800Y-126923800D03*
X198475600Y-121158000D03*
G36*
G01*
X194835600Y-122058000D02*
X194835600Y-120258000D01*
G75*
G02*
X195035600Y-120058000I200000J0D01*
G01*
X196835600Y-120058000D01*
G75*
G02*
X197035600Y-120258000I0J-200000D01*
G01*
X197035600Y-122058000D01*
G75*
G02*
X196835600Y-122258000I-200000J0D01*
G01*
X195035600Y-122258000D01*
G75*
G02*
X194835600Y-122058000I0J200000D01*
G01*
G37*
X170856142Y-139738267D03*
G36*
G01*
X170037423Y-143397406D02*
X168426541Y-142594250D01*
G75*
G02*
X168336794Y-142326023I89240J178987D01*
G01*
X169139950Y-140715141D01*
G75*
G02*
X169408177Y-140625394I178987J-89240D01*
G01*
X171019059Y-141428550D01*
G75*
G02*
X171108806Y-141696777I-89240J-178987D01*
G01*
X170305650Y-143307659D01*
G75*
G02*
X170037423Y-143397406I-178987J89240D01*
G01*
G37*
G36*
G01*
X171690400Y-74710000D02*
X169990400Y-74710000D01*
G75*
G02*
X169790400Y-74510000I0J200000D01*
G01*
X169790400Y-72810000D01*
G75*
G02*
X169990400Y-72610000I200000J0D01*
G01*
X171690400Y-72610000D01*
G75*
G02*
X171890400Y-72810000I0J-200000D01*
G01*
X171890400Y-74510000D01*
G75*
G02*
X171690400Y-74710000I-200000J0D01*
G01*
G37*
D21*
X173380400Y-73660000D03*
G36*
G01*
X162214223Y-145962806D02*
X160603341Y-145159650D01*
G75*
G02*
X160513594Y-144891423I89240J178987D01*
G01*
X161316750Y-143280541D01*
G75*
G02*
X161584977Y-143190794I178987J-89240D01*
G01*
X163195859Y-143993950D01*
G75*
G02*
X163285606Y-144262177I-89240J-178987D01*
G01*
X162482450Y-145873059D01*
G75*
G02*
X162214223Y-145962806I-178987J89240D01*
G01*
G37*
D20*
X163032942Y-142303667D03*
X124218700Y-121031000D03*
G36*
G01*
X120578700Y-121931000D02*
X120578700Y-120131000D01*
G75*
G02*
X120778700Y-119931000I200000J0D01*
G01*
X122578700Y-119931000D01*
G75*
G02*
X122778700Y-120131000I0J-200000D01*
G01*
X122778700Y-121931000D01*
G75*
G02*
X122578700Y-122131000I-200000J0D01*
G01*
X120778700Y-122131000D01*
G75*
G02*
X120578700Y-121931000I0J200000D01*
G01*
G37*
G36*
G01*
X155786999Y-141720817D02*
X157397881Y-140917661D01*
G75*
G02*
X157666108Y-141007408I89240J-178987D01*
G01*
X158469264Y-142618290D01*
G75*
G02*
X158379517Y-142886517I-178987J-89240D01*
G01*
X156768635Y-143689673D01*
G75*
G02*
X156500408Y-143599926I-89240J178987D01*
G01*
X155697252Y-141989044D01*
G75*
G02*
X155786999Y-141720817I178987J89240D01*
G01*
G37*
X158216600Y-144576800D03*
G36*
G01*
X189349200Y-127950800D02*
X189349200Y-126150800D01*
G75*
G02*
X189549200Y-125950800I200000J0D01*
G01*
X191349200Y-125950800D01*
G75*
G02*
X191549200Y-126150800I0J-200000D01*
G01*
X191549200Y-127950800D01*
G75*
G02*
X191349200Y-128150800I-200000J0D01*
G01*
X189549200Y-128150800D01*
G75*
G02*
X189349200Y-127950800I0J200000D01*
G01*
G37*
X192989200Y-127050800D03*
X150418800Y-142011400D03*
G36*
G01*
X147989199Y-139155417D02*
X149600081Y-138352261D01*
G75*
G02*
X149868308Y-138442008I89240J-178987D01*
G01*
X150671464Y-140052890D01*
G75*
G02*
X150581717Y-140321117I-178987J-89240D01*
G01*
X148970835Y-141124273D01*
G75*
G02*
X148702608Y-141034526I-89240J178987D01*
G01*
X147899452Y-139423644D01*
G75*
G02*
X147989199Y-139155417I178987J89240D01*
G01*
G37*
G36*
G01*
X140936980Y-75251920D02*
X139260580Y-75251920D01*
G75*
G02*
X139060580Y-75051920I0J200000D01*
G01*
X139060580Y-73375520D01*
G75*
G02*
X139260580Y-73175520I200000J0D01*
G01*
X140936980Y-73175520D01*
G75*
G02*
X141136980Y-73375520I0J-200000D01*
G01*
X141136980Y-75051920D01*
G75*
G02*
X140936980Y-75251920I-200000J0D01*
G01*
G37*
D22*
X142638780Y-74213720D03*
X145178780Y-74213720D03*
X147718780Y-74213720D03*
X150258780Y-74213720D03*
X152798780Y-74213720D03*
X155338780Y-74213720D03*
X157878780Y-74213720D03*
X157878780Y-66593720D03*
X155338780Y-66593720D03*
X152798780Y-66593720D03*
X150258780Y-66593720D03*
X147718780Y-66593720D03*
X145178780Y-66593720D03*
X142638780Y-66593720D03*
X140098780Y-66593720D03*
D23*
X131873000Y-96274400D03*
X131873000Y-78274400D03*
X188040000Y-78274400D03*
X188040000Y-96274400D03*
G36*
G01*
X180179000Y-73303500D02*
X180179000Y-71603500D01*
G75*
G02*
X180379000Y-71403500I200000J0D01*
G01*
X182079000Y-71403500D01*
G75*
G02*
X182279000Y-71603500I0J-200000D01*
G01*
X182279000Y-73303500D01*
G75*
G02*
X182079000Y-73503500I-200000J0D01*
G01*
X180379000Y-73503500D01*
G75*
G02*
X180179000Y-73303500I0J200000D01*
G01*
G37*
D21*
X181229000Y-74993500D03*
D24*
X167655240Y-78038960D03*
X169655240Y-78038960D03*
X171655240Y-78038960D03*
X173655240Y-78038960D03*
X175655240Y-78038960D03*
G36*
G01*
X176980240Y-77163960D02*
X178330240Y-77163960D01*
G75*
G02*
X178530240Y-77363960I0J-200000D01*
G01*
X178530240Y-78713960D01*
G75*
G02*
X178330240Y-78913960I-200000J0D01*
G01*
X176980240Y-78913960D01*
G75*
G02*
X176780240Y-78713960I0J200000D01*
G01*
X176780240Y-77363960D01*
G75*
G02*
X176980240Y-77163960I200000J0D01*
G01*
G37*
G36*
G01*
X143270600Y-78776800D02*
X141920600Y-78776800D01*
G75*
G02*
X141720600Y-78576800I0J200000D01*
G01*
X141720600Y-77226800D01*
G75*
G02*
X141920600Y-77026800I200000J0D01*
G01*
X143270600Y-77026800D01*
G75*
G02*
X143470600Y-77226800I0J-200000D01*
G01*
X143470600Y-78576800D01*
G75*
G02*
X143270600Y-78776800I-200000J0D01*
G01*
G37*
X144595600Y-77901800D03*
X146595600Y-77901800D03*
X148595600Y-77901800D03*
X150595600Y-77901800D03*
X152595600Y-77901800D03*
G36*
G01*
X122512800Y-117056800D02*
X122512800Y-118756800D01*
G75*
G02*
X122312800Y-118956800I-200000J0D01*
G01*
X120612800Y-118956800D01*
G75*
G02*
X120412800Y-118756800I0J200000D01*
G01*
X120412800Y-117056800D01*
G75*
G02*
X120612800Y-116856800I200000J0D01*
G01*
X122312800Y-116856800D01*
G75*
G02*
X122512800Y-117056800I0J-200000D01*
G01*
G37*
D21*
X121462800Y-115366800D03*
X121462800Y-112826800D03*
X121462800Y-110286800D03*
X121462800Y-107746800D03*
X121462800Y-105206800D03*
D14*
X143764000Y-120000000D03*
X143764000Y-122540000D03*
X143764000Y-125080000D03*
X143764000Y-127620000D03*
X143764000Y-117460000D03*
X143764000Y-114920000D03*
X143764000Y-112380000D03*
X146304000Y-127620000D03*
X148844000Y-127620000D03*
X151384000Y-127620000D03*
X153924000Y-127620000D03*
X156464000Y-127620000D03*
X159004000Y-127620000D03*
X161544000Y-127620000D03*
X164084000Y-127620000D03*
X166624000Y-127620000D03*
X169164000Y-127620000D03*
X171704000Y-127620000D03*
X174244000Y-127620000D03*
X176784000Y-127620000D03*
X174244000Y-125080000D03*
X146304000Y-112380000D03*
X148844000Y-112380000D03*
X151384000Y-112380000D03*
X153924000Y-112380000D03*
X156464000Y-112380000D03*
X159004000Y-112380000D03*
X161544000Y-112380000D03*
X164084000Y-112380000D03*
X166624000Y-112380000D03*
X169164000Y-112380000D03*
X171704000Y-112380000D03*
X174244000Y-112380000D03*
X176784000Y-112380000D03*
X148844000Y-125080000D03*
X151384000Y-125080000D03*
X148844000Y-122540000D03*
X151384000Y-122540000D03*
X148844000Y-120000000D03*
X151384000Y-120000000D03*
X148844000Y-117460000D03*
X151384000Y-117460000D03*
X148844000Y-114920000D03*
X151384000Y-114920000D03*
G36*
G01*
X169147200Y-120308000D02*
X169147200Y-122008000D01*
G75*
G02*
X168947200Y-122208000I-200000J0D01*
G01*
X167247200Y-122208000D01*
G75*
G02*
X167047200Y-122008000I0J200000D01*
G01*
X167047200Y-120308000D01*
G75*
G02*
X167247200Y-120108000I200000J0D01*
G01*
X168947200Y-120108000D01*
G75*
G02*
X169147200Y-120308000I0J-200000D01*
G01*
G37*
D21*
X168097200Y-118618000D03*
D25*
X181229000Y-113411000D03*
X139255500Y-113411000D03*
G36*
G01*
X120536000Y-69836077D02*
X120536000Y-68339923D01*
G75*
G02*
X120862923Y-68013000I326923J0D01*
G01*
X121909077Y-68013000D01*
G75*
G02*
X122236000Y-68339923I0J-326923D01*
G01*
X122236000Y-69836077D01*
G75*
G02*
X121909077Y-70163000I-326923J0D01*
G01*
X120862923Y-70163000D01*
G75*
G02*
X120536000Y-69836077I0J326923D01*
G01*
G37*
G36*
G01*
X123636000Y-69836077D02*
X123636000Y-68339923D01*
G75*
G02*
X123962923Y-68013000I326923J0D01*
G01*
X125009077Y-68013000D01*
G75*
G02*
X125336000Y-68339923I0J-326923D01*
G01*
X125336000Y-69836077D01*
G75*
G02*
X125009077Y-70163000I-326923J0D01*
G01*
X123962923Y-70163000D01*
G75*
G02*
X123636000Y-69836077I0J326923D01*
G01*
G37*
G36*
G01*
X123636000Y-60946077D02*
X123636000Y-59449923D01*
G75*
G02*
X123962923Y-59123000I326923J0D01*
G01*
X125009077Y-59123000D01*
G75*
G02*
X125336000Y-59449923I0J-326923D01*
G01*
X125336000Y-60946077D01*
G75*
G02*
X125009077Y-61273000I-326923J0D01*
G01*
X123962923Y-61273000D01*
G75*
G02*
X123636000Y-60946077I0J326923D01*
G01*
G37*
G36*
G01*
X120536000Y-60946077D02*
X120536000Y-59449923D01*
G75*
G02*
X120862923Y-59123000I326923J0D01*
G01*
X121909077Y-59123000D01*
G75*
G02*
X122236000Y-59449923I0J-326923D01*
G01*
X122236000Y-60946077D01*
G75*
G02*
X121909077Y-61273000I-326923J0D01*
G01*
X120862923Y-61273000D01*
G75*
G02*
X120536000Y-60946077I0J326923D01*
G01*
G37*
G36*
G01*
X120536000Y-65264077D02*
X120536000Y-63767923D01*
G75*
G02*
X120862923Y-63441000I326923J0D01*
G01*
X121909077Y-63441000D01*
G75*
G02*
X122236000Y-63767923I0J-326923D01*
G01*
X122236000Y-65264077D01*
G75*
G02*
X121909077Y-65591000I-326923J0D01*
G01*
X120862923Y-65591000D01*
G75*
G02*
X120536000Y-65264077I0J326923D01*
G01*
G37*
G36*
G01*
X123636000Y-65264077D02*
X123636000Y-63767923D01*
G75*
G02*
X123962923Y-63441000I326923J0D01*
G01*
X125009077Y-63441000D01*
G75*
G02*
X125336000Y-63767923I0J-326923D01*
G01*
X125336000Y-65264077D01*
G75*
G02*
X125009077Y-65591000I-326923J0D01*
G01*
X123962923Y-65591000D01*
G75*
G02*
X123636000Y-65264077I0J326923D01*
G01*
G37*
D17*
X164896800Y-69494400D03*
D14*
X164896800Y-79654400D03*
X164896800Y-67157600D03*
D17*
X164896800Y-56997600D03*
D25*
X160083500Y-61899800D03*
X160083500Y-139915900D03*
X160096200Y-58026300D03*
X160070800Y-136067800D03*
D15*
X149047200Y-58724800D03*
G36*
G01*
X151167200Y-56804800D02*
X151167200Y-58104800D01*
G75*
G02*
X150967200Y-58304800I-200000J0D01*
G01*
X149667200Y-58304800D01*
G75*
G02*
X149467200Y-58104800I0J200000D01*
G01*
X149467200Y-56804800D01*
G75*
G02*
X149667200Y-56604800I200000J0D01*
G01*
X150967200Y-56604800D01*
G75*
G02*
X151167200Y-56804800I0J-200000D01*
G01*
G37*
X150317200Y-59994800D03*
D19*
X126885700Y-69524000D03*
X126885700Y-65024000D03*
X133385700Y-69524000D03*
X133385700Y-65024000D03*
G36*
G01*
X137130500Y-136056000D02*
X137130500Y-137756000D01*
G75*
G02*
X136930500Y-137956000I-200000J0D01*
G01*
X135230500Y-137956000D01*
G75*
G02*
X135030500Y-137756000I0J200000D01*
G01*
X135030500Y-136056000D01*
G75*
G02*
X135230500Y-135856000I200000J0D01*
G01*
X136930500Y-135856000D01*
G75*
G02*
X137130500Y-136056000I0J-200000D01*
G01*
G37*
D21*
X136080500Y-134366000D03*
M02*
