G04 #@! TF.GenerationSoftware,KiCad,Pcbnew,(5.1.7)-1*
G04 #@! TF.CreationDate,2021-05-02T01:51:04-07:00*
G04 #@! TF.ProjectId,mouse_v2,6d6f7573-655f-4763-922e-6b696361645f,rev?*
G04 #@! TF.SameCoordinates,Original*
G04 #@! TF.FileFunction,Soldermask,Bot*
G04 #@! TF.FilePolarity,Negative*
%FSLAX46Y46*%
G04 Gerber Fmt 4.6, Leading zero omitted, Abs format (unit mm)*
G04 Created by KiCad (PCBNEW (5.1.7)-1) date 2021-05-02 01:51:04*
%MOMM*%
%LPD*%
G01*
G04 APERTURE LIST*
%ADD10C,2.000000*%
%ADD11C,1.700000*%
%ADD12C,2.900000*%
%ADD13O,2.000000X2.000000*%
%ADD14C,1.924000*%
%ADD15C,2.400000*%
%ADD16C,2.200000*%
%ADD17O,2.100000X2.100000*%
%ADD18C,2.076400*%
%ADD19C,2.584400*%
%ADD20O,1.750000X1.750000*%
%ADD21C,2.600000*%
%ADD22C,0.100000*%
G04 APERTURE END LIST*
G36*
G01*
X137002075Y-64795700D02*
X138511725Y-64795700D01*
G75*
G02*
X138831900Y-65115875I0J-320175D01*
G01*
X138831900Y-66300525D01*
G75*
G02*
X138511725Y-66620700I-320175J0D01*
G01*
X137002075Y-66620700D01*
G75*
G02*
X136681900Y-66300525I0J320175D01*
G01*
X136681900Y-65115875D01*
G75*
G02*
X137002075Y-64795700I320175J0D01*
G01*
G37*
G36*
G01*
X137002075Y-67770700D02*
X138511725Y-67770700D01*
G75*
G02*
X138831900Y-68090875I0J-320175D01*
G01*
X138831900Y-69275525D01*
G75*
G02*
X138511725Y-69595700I-320175J0D01*
G01*
X137002075Y-69595700D01*
G75*
G02*
X136681900Y-69275525I0J320175D01*
G01*
X136681900Y-68090875D01*
G75*
G02*
X137002075Y-67770700I320175J0D01*
G01*
G37*
D10*
X169254800Y-62788800D03*
G36*
G01*
X172754800Y-61988800D02*
X172754800Y-63588800D01*
G75*
G02*
X172554800Y-63788800I-200000J0D01*
G01*
X170954800Y-63788800D01*
G75*
G02*
X170754800Y-63588800I0J200000D01*
G01*
X170754800Y-61988800D01*
G75*
G02*
X170954800Y-61788800I200000J0D01*
G01*
X172554800Y-61788800D01*
G75*
G02*
X172754800Y-61988800I0J-200000D01*
G01*
G37*
G36*
G01*
X172754800Y-68034000D02*
X172754800Y-69634000D01*
G75*
G02*
X172554800Y-69834000I-200000J0D01*
G01*
X170954800Y-69834000D01*
G75*
G02*
X170754800Y-69634000I0J200000D01*
G01*
X170754800Y-68034000D01*
G75*
G02*
X170954800Y-67834000I200000J0D01*
G01*
X172554800Y-67834000D01*
G75*
G02*
X172754800Y-68034000I0J-200000D01*
G01*
G37*
X169254800Y-68834000D03*
D11*
X190500000Y-121285000D03*
G36*
G01*
X193690000Y-122135000D02*
X192390000Y-122135000D01*
G75*
G02*
X192190000Y-121935000I0J200000D01*
G01*
X192190000Y-120635000D01*
G75*
G02*
X192390000Y-120435000I200000J0D01*
G01*
X193690000Y-120435000D01*
G75*
G02*
X193890000Y-120635000I0J-200000D01*
G01*
X193890000Y-121935000D01*
G75*
G02*
X193690000Y-122135000I-200000J0D01*
G01*
G37*
X191770000Y-120015000D03*
X183415940Y-120990360D03*
G36*
G01*
X185535940Y-119070360D02*
X185535940Y-120370360D01*
G75*
G02*
X185335940Y-120570360I-200000J0D01*
G01*
X184035940Y-120570360D01*
G75*
G02*
X183835940Y-120370360I0J200000D01*
G01*
X183835940Y-119070360D01*
G75*
G02*
X184035940Y-118870360I200000J0D01*
G01*
X185335940Y-118870360D01*
G75*
G02*
X185535940Y-119070360I0J-200000D01*
G01*
G37*
X184685940Y-122260360D03*
X129540000Y-120840500D03*
G36*
G01*
X126350000Y-119990500D02*
X127650000Y-119990500D01*
G75*
G02*
X127850000Y-120190500I0J-200000D01*
G01*
X127850000Y-121490500D01*
G75*
G02*
X127650000Y-121690500I-200000J0D01*
G01*
X126350000Y-121690500D01*
G75*
G02*
X126150000Y-121490500I0J200000D01*
G01*
X126150000Y-120190500D01*
G75*
G02*
X126350000Y-119990500I200000J0D01*
G01*
G37*
X128270000Y-122110500D03*
X136982200Y-121462800D03*
G36*
G01*
X134862200Y-123382800D02*
X134862200Y-122082800D01*
G75*
G02*
X135062200Y-121882800I200000J0D01*
G01*
X136362200Y-121882800D01*
G75*
G02*
X136562200Y-122082800I0J-200000D01*
G01*
X136562200Y-123382800D01*
G75*
G02*
X136362200Y-123582800I-200000J0D01*
G01*
X135062200Y-123582800D01*
G75*
G02*
X134862200Y-123382800I0J200000D01*
G01*
G37*
X135712200Y-120192800D03*
D12*
X198069200Y-58319200D03*
X198069200Y-63069200D03*
X198069200Y-67769200D03*
D10*
X146405600Y-59893200D03*
D13*
X136245600Y-59893200D03*
D14*
X140055600Y-61885200D03*
X140105600Y-56885200D03*
D15*
X126885700Y-61853200D03*
X126885700Y-57353200D03*
X133385700Y-61853200D03*
X133385700Y-57353200D03*
D10*
X128905000Y-115570000D03*
D13*
X128905000Y-105410000D03*
X155473400Y-144805400D03*
D10*
X155473400Y-134645400D03*
X184785000Y-105410000D03*
D13*
X184785000Y-115570000D03*
X135255000Y-115570000D03*
D10*
X135255000Y-105410000D03*
X136347200Y-62941200D03*
D13*
X146507200Y-62941200D03*
X135890000Y-130810000D03*
D10*
X146050000Y-130810000D03*
X164592000Y-134645400D03*
D13*
X164592000Y-144805400D03*
X132080000Y-115570000D03*
D10*
X132080000Y-105410000D03*
X174244000Y-130810000D03*
D13*
X184404000Y-130810000D03*
X161544000Y-130810000D03*
D10*
X171704000Y-130810000D03*
X191135000Y-115570000D03*
D13*
X191135000Y-105410000D03*
X152400000Y-134620000D03*
D10*
X152400000Y-144780000D03*
X125730000Y-105410000D03*
D13*
X125730000Y-115570000D03*
X167640000Y-134620000D03*
D10*
X167640000Y-144780000D03*
X194310000Y-105410000D03*
D13*
X194310000Y-115570000D03*
X187960000Y-115570000D03*
D10*
X187960000Y-105410000D03*
X148590000Y-130810000D03*
D13*
X158750000Y-130810000D03*
G36*
G01*
X126077800Y-127823800D02*
X126077800Y-126023800D01*
G75*
G02*
X126277800Y-125823800I200000J0D01*
G01*
X128077800Y-125823800D01*
G75*
G02*
X128277800Y-126023800I0J-200000D01*
G01*
X128277800Y-127823800D01*
G75*
G02*
X128077800Y-128023800I-200000J0D01*
G01*
X126277800Y-128023800D01*
G75*
G02*
X126077800Y-127823800I0J200000D01*
G01*
G37*
D16*
X129717800Y-126923800D03*
X198475600Y-121158000D03*
G36*
G01*
X194835600Y-122058000D02*
X194835600Y-120258000D01*
G75*
G02*
X195035600Y-120058000I200000J0D01*
G01*
X196835600Y-120058000D01*
G75*
G02*
X197035600Y-120258000I0J-200000D01*
G01*
X197035600Y-122058000D01*
G75*
G02*
X196835600Y-122258000I-200000J0D01*
G01*
X195035600Y-122258000D01*
G75*
G02*
X194835600Y-122058000I0J200000D01*
G01*
G37*
X170856142Y-139738267D03*
G36*
G01*
X170037423Y-143397406D02*
X168426541Y-142594250D01*
G75*
G02*
X168336794Y-142326023I89240J178987D01*
G01*
X169139950Y-140715141D01*
G75*
G02*
X169408177Y-140625394I178987J-89240D01*
G01*
X171019059Y-141428550D01*
G75*
G02*
X171108806Y-141696777I-89240J-178987D01*
G01*
X170305650Y-143307659D01*
G75*
G02*
X170037423Y-143397406I-178987J89240D01*
G01*
G37*
G36*
G01*
X171690400Y-74710000D02*
X169990400Y-74710000D01*
G75*
G02*
X169790400Y-74510000I0J200000D01*
G01*
X169790400Y-72810000D01*
G75*
G02*
X169990400Y-72610000I200000J0D01*
G01*
X171690400Y-72610000D01*
G75*
G02*
X171890400Y-72810000I0J-200000D01*
G01*
X171890400Y-74510000D01*
G75*
G02*
X171690400Y-74710000I-200000J0D01*
G01*
G37*
D17*
X173380400Y-73660000D03*
G36*
G01*
X162214223Y-145962806D02*
X160603341Y-145159650D01*
G75*
G02*
X160513594Y-144891423I89240J178987D01*
G01*
X161316750Y-143280541D01*
G75*
G02*
X161584977Y-143190794I178987J-89240D01*
G01*
X163195859Y-143993950D01*
G75*
G02*
X163285606Y-144262177I-89240J-178987D01*
G01*
X162482450Y-145873059D01*
G75*
G02*
X162214223Y-145962806I-178987J89240D01*
G01*
G37*
D16*
X163032942Y-142303667D03*
X124218700Y-121031000D03*
G36*
G01*
X120578700Y-121931000D02*
X120578700Y-120131000D01*
G75*
G02*
X120778700Y-119931000I200000J0D01*
G01*
X122578700Y-119931000D01*
G75*
G02*
X122778700Y-120131000I0J-200000D01*
G01*
X122778700Y-121931000D01*
G75*
G02*
X122578700Y-122131000I-200000J0D01*
G01*
X120778700Y-122131000D01*
G75*
G02*
X120578700Y-121931000I0J200000D01*
G01*
G37*
G36*
G01*
X155786999Y-141720817D02*
X157397881Y-140917661D01*
G75*
G02*
X157666108Y-141007408I89240J-178987D01*
G01*
X158469264Y-142618290D01*
G75*
G02*
X158379517Y-142886517I-178987J-89240D01*
G01*
X156768635Y-143689673D01*
G75*
G02*
X156500408Y-143599926I-89240J178987D01*
G01*
X155697252Y-141989044D01*
G75*
G02*
X155786999Y-141720817I178987J89240D01*
G01*
G37*
X158216600Y-144576800D03*
G36*
G01*
X189349200Y-127950800D02*
X189349200Y-126150800D01*
G75*
G02*
X189549200Y-125950800I200000J0D01*
G01*
X191349200Y-125950800D01*
G75*
G02*
X191549200Y-126150800I0J-200000D01*
G01*
X191549200Y-127950800D01*
G75*
G02*
X191349200Y-128150800I-200000J0D01*
G01*
X189549200Y-128150800D01*
G75*
G02*
X189349200Y-127950800I0J200000D01*
G01*
G37*
X192989200Y-127050800D03*
X150418800Y-142011400D03*
G36*
G01*
X147989199Y-139155417D02*
X149600081Y-138352261D01*
G75*
G02*
X149868308Y-138442008I89240J-178987D01*
G01*
X150671464Y-140052890D01*
G75*
G02*
X150581717Y-140321117I-178987J-89240D01*
G01*
X148970835Y-141124273D01*
G75*
G02*
X148702608Y-141034526I-89240J178987D01*
G01*
X147899452Y-139423644D01*
G75*
G02*
X147989199Y-139155417I178987J89240D01*
G01*
G37*
G36*
G01*
X140936980Y-75251920D02*
X139260580Y-75251920D01*
G75*
G02*
X139060580Y-75051920I0J200000D01*
G01*
X139060580Y-73375520D01*
G75*
G02*
X139260580Y-73175520I200000J0D01*
G01*
X140936980Y-73175520D01*
G75*
G02*
X141136980Y-73375520I0J-200000D01*
G01*
X141136980Y-75051920D01*
G75*
G02*
X140936980Y-75251920I-200000J0D01*
G01*
G37*
D18*
X142638780Y-74213720D03*
X145178780Y-74213720D03*
X147718780Y-74213720D03*
X150258780Y-74213720D03*
X152798780Y-74213720D03*
X155338780Y-74213720D03*
X157878780Y-74213720D03*
X157878780Y-66593720D03*
X155338780Y-66593720D03*
X152798780Y-66593720D03*
X150258780Y-66593720D03*
X147718780Y-66593720D03*
X145178780Y-66593720D03*
X142638780Y-66593720D03*
X140098780Y-66593720D03*
D19*
X131873000Y-96274400D03*
X131873000Y-78274400D03*
X188040000Y-78274400D03*
X188040000Y-96274400D03*
G36*
G01*
X180179000Y-73303500D02*
X180179000Y-71603500D01*
G75*
G02*
X180379000Y-71403500I200000J0D01*
G01*
X182079000Y-71403500D01*
G75*
G02*
X182279000Y-71603500I0J-200000D01*
G01*
X182279000Y-73303500D01*
G75*
G02*
X182079000Y-73503500I-200000J0D01*
G01*
X180379000Y-73503500D01*
G75*
G02*
X180179000Y-73303500I0J200000D01*
G01*
G37*
D17*
X181229000Y-74993500D03*
D20*
X167655240Y-78038960D03*
X169655240Y-78038960D03*
X171655240Y-78038960D03*
X173655240Y-78038960D03*
X175655240Y-78038960D03*
G36*
G01*
X176980240Y-77163960D02*
X178330240Y-77163960D01*
G75*
G02*
X178530240Y-77363960I0J-200000D01*
G01*
X178530240Y-78713960D01*
G75*
G02*
X178330240Y-78913960I-200000J0D01*
G01*
X176980240Y-78913960D01*
G75*
G02*
X176780240Y-78713960I0J200000D01*
G01*
X176780240Y-77363960D01*
G75*
G02*
X176980240Y-77163960I200000J0D01*
G01*
G37*
G36*
G01*
X143270600Y-78776800D02*
X141920600Y-78776800D01*
G75*
G02*
X141720600Y-78576800I0J200000D01*
G01*
X141720600Y-77226800D01*
G75*
G02*
X141920600Y-77026800I200000J0D01*
G01*
X143270600Y-77026800D01*
G75*
G02*
X143470600Y-77226800I0J-200000D01*
G01*
X143470600Y-78576800D01*
G75*
G02*
X143270600Y-78776800I-200000J0D01*
G01*
G37*
X144595600Y-77901800D03*
X146595600Y-77901800D03*
X148595600Y-77901800D03*
X150595600Y-77901800D03*
X152595600Y-77901800D03*
G36*
G01*
X122512800Y-117056800D02*
X122512800Y-118756800D01*
G75*
G02*
X122312800Y-118956800I-200000J0D01*
G01*
X120612800Y-118956800D01*
G75*
G02*
X120412800Y-118756800I0J200000D01*
G01*
X120412800Y-117056800D01*
G75*
G02*
X120612800Y-116856800I200000J0D01*
G01*
X122312800Y-116856800D01*
G75*
G02*
X122512800Y-117056800I0J-200000D01*
G01*
G37*
D17*
X121462800Y-115366800D03*
X121462800Y-112826800D03*
X121462800Y-110286800D03*
X121462800Y-107746800D03*
X121462800Y-105206800D03*
D10*
X143764000Y-120000000D03*
X143764000Y-122540000D03*
X143764000Y-125080000D03*
X143764000Y-127620000D03*
X143764000Y-117460000D03*
X143764000Y-114920000D03*
X143764000Y-112380000D03*
X146304000Y-127620000D03*
X148844000Y-127620000D03*
X151384000Y-127620000D03*
X153924000Y-127620000D03*
X156464000Y-127620000D03*
X159004000Y-127620000D03*
X161544000Y-127620000D03*
X164084000Y-127620000D03*
X166624000Y-127620000D03*
X169164000Y-127620000D03*
X171704000Y-127620000D03*
X174244000Y-127620000D03*
X176784000Y-127620000D03*
X174244000Y-125080000D03*
X146304000Y-112380000D03*
X148844000Y-112380000D03*
X151384000Y-112380000D03*
X153924000Y-112380000D03*
X156464000Y-112380000D03*
X159004000Y-112380000D03*
X161544000Y-112380000D03*
X164084000Y-112380000D03*
X166624000Y-112380000D03*
X169164000Y-112380000D03*
X171704000Y-112380000D03*
X174244000Y-112380000D03*
X176784000Y-112380000D03*
X148844000Y-125080000D03*
X151384000Y-125080000D03*
X148844000Y-122540000D03*
X151384000Y-122540000D03*
X148844000Y-120000000D03*
X151384000Y-120000000D03*
X148844000Y-117460000D03*
X151384000Y-117460000D03*
X148844000Y-114920000D03*
X151384000Y-114920000D03*
G36*
G01*
X169147200Y-120308000D02*
X169147200Y-122008000D01*
G75*
G02*
X168947200Y-122208000I-200000J0D01*
G01*
X167247200Y-122208000D01*
G75*
G02*
X167047200Y-122008000I0J200000D01*
G01*
X167047200Y-120308000D01*
G75*
G02*
X167247200Y-120108000I200000J0D01*
G01*
X168947200Y-120108000D01*
G75*
G02*
X169147200Y-120308000I0J-200000D01*
G01*
G37*
D17*
X168097200Y-118618000D03*
D21*
X181229000Y-113411000D03*
X139255500Y-113411000D03*
G36*
G01*
X120536000Y-69836077D02*
X120536000Y-68339923D01*
G75*
G02*
X120862923Y-68013000I326923J0D01*
G01*
X121909077Y-68013000D01*
G75*
G02*
X122236000Y-68339923I0J-326923D01*
G01*
X122236000Y-69836077D01*
G75*
G02*
X121909077Y-70163000I-326923J0D01*
G01*
X120862923Y-70163000D01*
G75*
G02*
X120536000Y-69836077I0J326923D01*
G01*
G37*
G36*
G01*
X123636000Y-69836077D02*
X123636000Y-68339923D01*
G75*
G02*
X123962923Y-68013000I326923J0D01*
G01*
X125009077Y-68013000D01*
G75*
G02*
X125336000Y-68339923I0J-326923D01*
G01*
X125336000Y-69836077D01*
G75*
G02*
X125009077Y-70163000I-326923J0D01*
G01*
X123962923Y-70163000D01*
G75*
G02*
X123636000Y-69836077I0J326923D01*
G01*
G37*
G36*
G01*
X123636000Y-60946077D02*
X123636000Y-59449923D01*
G75*
G02*
X123962923Y-59123000I326923J0D01*
G01*
X125009077Y-59123000D01*
G75*
G02*
X125336000Y-59449923I0J-326923D01*
G01*
X125336000Y-60946077D01*
G75*
G02*
X125009077Y-61273000I-326923J0D01*
G01*
X123962923Y-61273000D01*
G75*
G02*
X123636000Y-60946077I0J326923D01*
G01*
G37*
G36*
G01*
X120536000Y-60946077D02*
X120536000Y-59449923D01*
G75*
G02*
X120862923Y-59123000I326923J0D01*
G01*
X121909077Y-59123000D01*
G75*
G02*
X122236000Y-59449923I0J-326923D01*
G01*
X122236000Y-60946077D01*
G75*
G02*
X121909077Y-61273000I-326923J0D01*
G01*
X120862923Y-61273000D01*
G75*
G02*
X120536000Y-60946077I0J326923D01*
G01*
G37*
G36*
G01*
X120536000Y-65264077D02*
X120536000Y-63767923D01*
G75*
G02*
X120862923Y-63441000I326923J0D01*
G01*
X121909077Y-63441000D01*
G75*
G02*
X122236000Y-63767923I0J-326923D01*
G01*
X122236000Y-65264077D01*
G75*
G02*
X121909077Y-65591000I-326923J0D01*
G01*
X120862923Y-65591000D01*
G75*
G02*
X120536000Y-65264077I0J326923D01*
G01*
G37*
G36*
G01*
X123636000Y-65264077D02*
X123636000Y-63767923D01*
G75*
G02*
X123962923Y-63441000I326923J0D01*
G01*
X125009077Y-63441000D01*
G75*
G02*
X125336000Y-63767923I0J-326923D01*
G01*
X125336000Y-65264077D01*
G75*
G02*
X125009077Y-65591000I-326923J0D01*
G01*
X123962923Y-65591000D01*
G75*
G02*
X123636000Y-65264077I0J326923D01*
G01*
G37*
D13*
X164896800Y-69494400D03*
D10*
X164896800Y-79654400D03*
X164896800Y-67157600D03*
D13*
X164896800Y-56997600D03*
D21*
X160083500Y-61899800D03*
X160083500Y-139915900D03*
X160096200Y-58026300D03*
X160070800Y-136067800D03*
D11*
X149047200Y-58724800D03*
G36*
G01*
X151167200Y-56804800D02*
X151167200Y-58104800D01*
G75*
G02*
X150967200Y-58304800I-200000J0D01*
G01*
X149667200Y-58304800D01*
G75*
G02*
X149467200Y-58104800I0J200000D01*
G01*
X149467200Y-56804800D01*
G75*
G02*
X149667200Y-56604800I200000J0D01*
G01*
X150967200Y-56604800D01*
G75*
G02*
X151167200Y-56804800I0J-200000D01*
G01*
G37*
X150317200Y-59994800D03*
D15*
X126885700Y-69524000D03*
X126885700Y-65024000D03*
X133385700Y-69524000D03*
X133385700Y-65024000D03*
G36*
G01*
X137130500Y-136056000D02*
X137130500Y-137756000D01*
G75*
G02*
X136930500Y-137956000I-200000J0D01*
G01*
X135230500Y-137956000D01*
G75*
G02*
X135030500Y-137756000I0J200000D01*
G01*
X135030500Y-136056000D01*
G75*
G02*
X135230500Y-135856000I200000J0D01*
G01*
X136930500Y-135856000D01*
G75*
G02*
X137130500Y-136056000I0J-200000D01*
G01*
G37*
D17*
X136080500Y-134366000D03*
D22*
G36*
X163375738Y-144081400D02*
G01*
X163376842Y-144083068D01*
X163376636Y-144084082D01*
X163076774Y-144685511D01*
X162884488Y-145071177D01*
X162871998Y-145096228D01*
X162871824Y-145096577D01*
X162794332Y-145252002D01*
X162781668Y-145277402D01*
X162713114Y-145414900D01*
X162712922Y-145415285D01*
X162706581Y-145428003D01*
X162700450Y-145440300D01*
X162700258Y-145440685D01*
X162647115Y-145547273D01*
X162646850Y-145547805D01*
X162643810Y-145553902D01*
X162631146Y-145579302D01*
X162589509Y-145662813D01*
X162576845Y-145688213D01*
X162552394Y-145737254D01*
X162552106Y-145737832D01*
X162539730Y-145762654D01*
X162539442Y-145763232D01*
X162395000Y-146052938D01*
X162392318Y-146053836D01*
X160423462Y-145072200D01*
X160422358Y-145070532D01*
X160422564Y-145069518D01*
X160422566Y-145069513D01*
X160427038Y-145069513D01*
X162392313Y-146049363D01*
X162535862Y-145761448D01*
X162536150Y-145760870D01*
X162548526Y-145736048D01*
X162548814Y-145735470D01*
X162573265Y-145686429D01*
X162585929Y-145661029D01*
X162627566Y-145577518D01*
X162640230Y-145552118D01*
X162643270Y-145546021D01*
X162643535Y-145545489D01*
X162696678Y-145438901D01*
X162696870Y-145438516D01*
X162703001Y-145426219D01*
X162709342Y-145413501D01*
X162709534Y-145413116D01*
X162778088Y-145275618D01*
X162790752Y-145250218D01*
X162868244Y-145094793D01*
X162868418Y-145094444D01*
X162880908Y-145069393D01*
X163073194Y-144683727D01*
X163372163Y-144084087D01*
X161406888Y-143104237D01*
X161405512Y-143106996D01*
X161381875Y-143154405D01*
X161281056Y-143356616D01*
X161280768Y-143357194D01*
X161259793Y-143399263D01*
X161215781Y-143487538D01*
X161155930Y-143607580D01*
X161155665Y-143608112D01*
X161096199Y-143727382D01*
X161070062Y-143779805D01*
X161010382Y-143899504D01*
X160956114Y-144008349D01*
X160943450Y-144033749D01*
X160930782Y-144059157D01*
X160726006Y-144469874D01*
X160427038Y-145069513D01*
X160422566Y-145069513D01*
X160722426Y-144468089D01*
X160927202Y-144057372D01*
X160939870Y-144031964D01*
X160952534Y-144006564D01*
X161006802Y-143897719D01*
X161066482Y-143778020D01*
X161092619Y-143725597D01*
X161152085Y-143606327D01*
X161152350Y-143605795D01*
X161212201Y-143485753D01*
X161256213Y-143397478D01*
X161277188Y-143355409D01*
X161277476Y-143354831D01*
X161378295Y-143152620D01*
X161401932Y-143105211D01*
X161404200Y-143100662D01*
X161406882Y-143099764D01*
X163375738Y-144081400D01*
G37*
G36*
X157577972Y-140826753D02*
G01*
X157578658Y-140827529D01*
X157580926Y-140832078D01*
X157624490Y-140919454D01*
X157624490Y-140919455D01*
X157624723Y-140919922D01*
X157684789Y-141040395D01*
X157685054Y-141040927D01*
X157743650Y-141158452D01*
X157743938Y-141159030D01*
X157744520Y-141160197D01*
X157770657Y-141212620D01*
X157820735Y-141313061D01*
X157830508Y-141332662D01*
X157830773Y-141333194D01*
X157890239Y-141452464D01*
X157909937Y-141491972D01*
X158009266Y-141691195D01*
X158055656Y-141784239D01*
X158114713Y-141902689D01*
X158260432Y-142194956D01*
X158560294Y-142796385D01*
X158560172Y-142798381D01*
X158559396Y-142799067D01*
X156590540Y-143780703D01*
X156588544Y-143780581D01*
X156587858Y-143779805D01*
X156561953Y-143727847D01*
X156461134Y-143525636D01*
X156460846Y-143525058D01*
X156439871Y-143482989D01*
X156336008Y-143274672D01*
X156335743Y-143274140D01*
X156276277Y-143154870D01*
X156250140Y-143102447D01*
X156190289Y-142982405D01*
X156190024Y-142981873D01*
X156130558Y-142862603D01*
X156110860Y-142823095D01*
X155965141Y-142530828D01*
X155906084Y-142412378D01*
X155606225Y-141810954D01*
X155610695Y-141810954D01*
X155909664Y-142410594D01*
X155968721Y-142529044D01*
X156114440Y-142821311D01*
X156134138Y-142860819D01*
X156193604Y-142980089D01*
X156193869Y-142980621D01*
X156253720Y-143100663D01*
X156279857Y-143153086D01*
X156339323Y-143272356D01*
X156339588Y-143272888D01*
X156443451Y-143481205D01*
X156464426Y-143523274D01*
X156464714Y-143523852D01*
X156565533Y-143726063D01*
X156590545Y-143776230D01*
X158555821Y-142796380D01*
X158256852Y-142196740D01*
X158111133Y-141904473D01*
X158052076Y-141786023D01*
X158005686Y-141692979D01*
X157906357Y-141493756D01*
X157886659Y-141454248D01*
X157827193Y-141334978D01*
X157826928Y-141334446D01*
X157817155Y-141314845D01*
X157767077Y-141214404D01*
X157740940Y-141161981D01*
X157740358Y-141160814D01*
X157740070Y-141160236D01*
X157681474Y-141042711D01*
X157681209Y-141042179D01*
X157621143Y-140921706D01*
X157621143Y-140921705D01*
X157620910Y-140921237D01*
X157577346Y-140833862D01*
X157575971Y-140831104D01*
X155610695Y-141810954D01*
X155606225Y-141810954D01*
X155606222Y-141810949D01*
X155607120Y-141808267D01*
X157575976Y-140826631D01*
X157577972Y-140826753D01*
G37*
G36*
X171198938Y-141516000D02*
G01*
X171200042Y-141517668D01*
X171199836Y-141518682D01*
X170899974Y-142120111D01*
X170754255Y-142412378D01*
X170695198Y-142530828D01*
X170648808Y-142623872D01*
X170549479Y-142823095D01*
X170529781Y-142862603D01*
X170470315Y-142981873D01*
X170470050Y-142982405D01*
X170460277Y-143002006D01*
X170410199Y-143102447D01*
X170384062Y-143154870D01*
X170324596Y-143274140D01*
X170324331Y-143274672D01*
X170220468Y-143482989D01*
X170218200Y-143487538D01*
X170215518Y-143488436D01*
X168246662Y-142506800D01*
X168245558Y-142505132D01*
X168245764Y-142504118D01*
X168245766Y-142504113D01*
X168250237Y-142504113D01*
X170215512Y-143483963D01*
X170216888Y-143481204D01*
X170320751Y-143272887D01*
X170321016Y-143272355D01*
X170380482Y-143153085D01*
X170406619Y-143100662D01*
X170456697Y-143000221D01*
X170466470Y-142980620D01*
X170466735Y-142980088D01*
X170526201Y-142860818D01*
X170545899Y-142821310D01*
X170645228Y-142622087D01*
X170691618Y-142529043D01*
X170750675Y-142410593D01*
X170896394Y-142118326D01*
X171195362Y-141518687D01*
X169230087Y-140538837D01*
X169205075Y-140589004D01*
X169129233Y-140741119D01*
X169104256Y-140791215D01*
X169103968Y-140791793D01*
X169082993Y-140833862D01*
X169039429Y-140921238D01*
X168979130Y-141042179D01*
X168978865Y-141042711D01*
X168920269Y-141160236D01*
X168919981Y-141160814D01*
X168919399Y-141161981D01*
X168893262Y-141214404D01*
X168833411Y-141334446D01*
X168833146Y-141334978D01*
X168773680Y-141454248D01*
X168753982Y-141493756D01*
X168608263Y-141786023D01*
X168549206Y-141904473D01*
X168250237Y-142504113D01*
X168245766Y-142504113D01*
X168545626Y-141902689D01*
X168604683Y-141784239D01*
X168750402Y-141491972D01*
X168770100Y-141452464D01*
X168829566Y-141333194D01*
X168829831Y-141332662D01*
X168889682Y-141212620D01*
X168915819Y-141160197D01*
X168916401Y-141159030D01*
X168916689Y-141158452D01*
X168975285Y-141040927D01*
X168975550Y-141040395D01*
X169035849Y-140919454D01*
X169079413Y-140832078D01*
X169100388Y-140790009D01*
X169100676Y-140789431D01*
X169125653Y-140739335D01*
X169201495Y-140587220D01*
X169227400Y-140535262D01*
X169230082Y-140534364D01*
X171198938Y-141516000D01*
G37*
G36*
X149780172Y-138261353D02*
G01*
X149780858Y-138262129D01*
X149959918Y-138621268D01*
X149960218Y-138621870D01*
X150032708Y-138767262D01*
X150032973Y-138767794D01*
X150033330Y-138768510D01*
X150033596Y-138769043D01*
X150092439Y-138887064D01*
X150257856Y-139218839D01*
X150462632Y-139629556D01*
X150762494Y-140230985D01*
X150761596Y-140233667D01*
X148792740Y-141215303D01*
X148790744Y-141215181D01*
X148790058Y-141214405D01*
X148788127Y-141210532D01*
X148787827Y-141209930D01*
X148787790Y-141209856D01*
X148764153Y-141162447D01*
X148714715Y-141063290D01*
X148663334Y-140960236D01*
X148663046Y-140959658D01*
X148644124Y-140921706D01*
X148642071Y-140917589D01*
X148598059Y-140829314D01*
X148554278Y-140741503D01*
X148538208Y-140709272D01*
X148537943Y-140708740D01*
X148478477Y-140589470D01*
X148452340Y-140537047D01*
X148448631Y-140529608D01*
X148448488Y-140529321D01*
X148313060Y-140257695D01*
X148108284Y-139846978D01*
X147808425Y-139245554D01*
X147812895Y-139245554D01*
X148111864Y-139845194D01*
X148316640Y-140255911D01*
X148452068Y-140527537D01*
X148452211Y-140527824D01*
X148455920Y-140535263D01*
X148482057Y-140587686D01*
X148541523Y-140706956D01*
X148541788Y-140707488D01*
X148557858Y-140739719D01*
X148601639Y-140827530D01*
X148645651Y-140915805D01*
X148647704Y-140919922D01*
X148666626Y-140957874D01*
X148666914Y-140958452D01*
X148718295Y-141061506D01*
X148767733Y-141160663D01*
X148791369Y-141208070D01*
X148791407Y-141208146D01*
X148791707Y-141208748D01*
X148792745Y-141210830D01*
X150758021Y-140230980D01*
X150459052Y-139631340D01*
X150254276Y-139220623D01*
X150088859Y-138888848D01*
X150030016Y-138770827D01*
X150029750Y-138770294D01*
X150029393Y-138769578D01*
X150029128Y-138769046D01*
X149956638Y-138623654D01*
X149956338Y-138623052D01*
X149778171Y-138265704D01*
X147812895Y-139245554D01*
X147808425Y-139245554D01*
X147808422Y-139245549D01*
X147809320Y-139242867D01*
X149778176Y-138261231D01*
X149780172Y-138261353D01*
G37*
G36*
X184195122Y-121322323D02*
G01*
X184195449Y-121324122D01*
X184190175Y-121341506D01*
X184187812Y-121365498D01*
X184190175Y-121389489D01*
X184197175Y-121412564D01*
X184208540Y-121433827D01*
X184223835Y-121452464D01*
X184242472Y-121467760D01*
X184263736Y-121479125D01*
X184286810Y-121486125D01*
X184310802Y-121488488D01*
X184334793Y-121486125D01*
X184352179Y-121480851D01*
X184354127Y-121481305D01*
X184354708Y-121483219D01*
X184353525Y-121484613D01*
X184286200Y-121512500D01*
X184147980Y-121604855D01*
X184030435Y-121722400D01*
X183938080Y-121860620D01*
X183910193Y-121927944D01*
X183908606Y-121929162D01*
X183906758Y-121928397D01*
X183906431Y-121926598D01*
X183911705Y-121909214D01*
X183914068Y-121885222D01*
X183911705Y-121861231D01*
X183904705Y-121838156D01*
X183893340Y-121816893D01*
X183878045Y-121798256D01*
X183859408Y-121782960D01*
X183838144Y-121771595D01*
X183815070Y-121764595D01*
X183791078Y-121762232D01*
X183767087Y-121764595D01*
X183749701Y-121769869D01*
X183747753Y-121769415D01*
X183747172Y-121767501D01*
X183748355Y-121766107D01*
X183815680Y-121738220D01*
X183953900Y-121645865D01*
X184071445Y-121528320D01*
X184163800Y-121390100D01*
X184191687Y-121322776D01*
X184193274Y-121321558D01*
X184195122Y-121322323D01*
G37*
G36*
X128764253Y-121172915D02*
G01*
X128792140Y-121240240D01*
X128884495Y-121378460D01*
X129002040Y-121496005D01*
X129140260Y-121588360D01*
X129207584Y-121616247D01*
X129208802Y-121617834D01*
X129208037Y-121619682D01*
X129206238Y-121620009D01*
X129188854Y-121614735D01*
X129164862Y-121612372D01*
X129140871Y-121614735D01*
X129117796Y-121621735D01*
X129096533Y-121633100D01*
X129077896Y-121648395D01*
X129062600Y-121667032D01*
X129051235Y-121688296D01*
X129044235Y-121711370D01*
X129041872Y-121735362D01*
X129044235Y-121759353D01*
X129049509Y-121776739D01*
X129049055Y-121778687D01*
X129047141Y-121779268D01*
X129045747Y-121778085D01*
X129017860Y-121710760D01*
X128925505Y-121572540D01*
X128807960Y-121454995D01*
X128669740Y-121362640D01*
X128602416Y-121334753D01*
X128601198Y-121333166D01*
X128601963Y-121331318D01*
X128603762Y-121330991D01*
X128621146Y-121336265D01*
X128645138Y-121338628D01*
X128669129Y-121336265D01*
X128692204Y-121329265D01*
X128713467Y-121317900D01*
X128732104Y-121302605D01*
X128747400Y-121283968D01*
X128758765Y-121262704D01*
X128765765Y-121239630D01*
X128768128Y-121215638D01*
X128765765Y-121191647D01*
X128760491Y-121174261D01*
X128760945Y-121172313D01*
X128762859Y-121171732D01*
X128764253Y-121172915D01*
G37*
G36*
X136491382Y-120524763D02*
G01*
X136491709Y-120526562D01*
X136486435Y-120543946D01*
X136484072Y-120567938D01*
X136486435Y-120591929D01*
X136493435Y-120615004D01*
X136504800Y-120636267D01*
X136520095Y-120654904D01*
X136538732Y-120670200D01*
X136559996Y-120681565D01*
X136583070Y-120688565D01*
X136607062Y-120690928D01*
X136631053Y-120688565D01*
X136648439Y-120683291D01*
X136650387Y-120683745D01*
X136650968Y-120685659D01*
X136649785Y-120687053D01*
X136582460Y-120714940D01*
X136444240Y-120807295D01*
X136326695Y-120924840D01*
X136234340Y-121063060D01*
X136206453Y-121130384D01*
X136204866Y-121131602D01*
X136203018Y-121130837D01*
X136202691Y-121129038D01*
X136207965Y-121111654D01*
X136210328Y-121087662D01*
X136207965Y-121063671D01*
X136200965Y-121040596D01*
X136189600Y-121019333D01*
X136174305Y-121000696D01*
X136155668Y-120985400D01*
X136134404Y-120974035D01*
X136111330Y-120967035D01*
X136087338Y-120964672D01*
X136063347Y-120967035D01*
X136045961Y-120972309D01*
X136044013Y-120971855D01*
X136043432Y-120969941D01*
X136044615Y-120968547D01*
X136111940Y-120940660D01*
X136250160Y-120848305D01*
X136367705Y-120730760D01*
X136460060Y-120592540D01*
X136487947Y-120525216D01*
X136489534Y-120523998D01*
X136491382Y-120524763D01*
G37*
G36*
X190994253Y-120347415D02*
G01*
X191022140Y-120414740D01*
X191114495Y-120552960D01*
X191232040Y-120670505D01*
X191370260Y-120762860D01*
X191437584Y-120790747D01*
X191438802Y-120792334D01*
X191438037Y-120794182D01*
X191436238Y-120794509D01*
X191418854Y-120789235D01*
X191394862Y-120786872D01*
X191370871Y-120789235D01*
X191347796Y-120796235D01*
X191326533Y-120807600D01*
X191307896Y-120822895D01*
X191292600Y-120841532D01*
X191281235Y-120862796D01*
X191274235Y-120885870D01*
X191271872Y-120909862D01*
X191274235Y-120933853D01*
X191279509Y-120951239D01*
X191279055Y-120953187D01*
X191277141Y-120953768D01*
X191275747Y-120952585D01*
X191247860Y-120885260D01*
X191155505Y-120747040D01*
X191037960Y-120629495D01*
X190899740Y-120537140D01*
X190832416Y-120509253D01*
X190831198Y-120507666D01*
X190831963Y-120505818D01*
X190833762Y-120505491D01*
X190851146Y-120510765D01*
X190875138Y-120513128D01*
X190899129Y-120510765D01*
X190922204Y-120503765D01*
X190943467Y-120492400D01*
X190962104Y-120477105D01*
X190977400Y-120458468D01*
X190988765Y-120437204D01*
X190995765Y-120414130D01*
X190998128Y-120390138D01*
X190995765Y-120366147D01*
X190990491Y-120348761D01*
X190990945Y-120346813D01*
X190992859Y-120346232D01*
X190994253Y-120347415D01*
G37*
G36*
X123637990Y-69835881D02*
G01*
X123644252Y-69899462D01*
X123662743Y-69960416D01*
X123692767Y-70016590D01*
X123733175Y-70065825D01*
X123782410Y-70106233D01*
X123838584Y-70136257D01*
X123899538Y-70154748D01*
X123963119Y-70161010D01*
X123964745Y-70162175D01*
X123964549Y-70164165D01*
X123962923Y-70165000D01*
X123892141Y-70165000D01*
X123891945Y-70164990D01*
X123837149Y-70159593D01*
X123836764Y-70159517D01*
X123789980Y-70145325D01*
X123789618Y-70145175D01*
X123746500Y-70122128D01*
X123746174Y-70121910D01*
X123708382Y-70090895D01*
X123708105Y-70090618D01*
X123677090Y-70052826D01*
X123676872Y-70052500D01*
X123653825Y-70009382D01*
X123653675Y-70009020D01*
X123639483Y-69962236D01*
X123639407Y-69961851D01*
X123634010Y-69907055D01*
X123634000Y-69906859D01*
X123634000Y-69836077D01*
X123635000Y-69834345D01*
X123637000Y-69834345D01*
X123637990Y-69835881D01*
G37*
G36*
X122237165Y-69834451D02*
G01*
X122238000Y-69836077D01*
X122238000Y-69906859D01*
X122237990Y-69907055D01*
X122232593Y-69961851D01*
X122232517Y-69962236D01*
X122218325Y-70009020D01*
X122218175Y-70009382D01*
X122195128Y-70052500D01*
X122194910Y-70052826D01*
X122163895Y-70090618D01*
X122163618Y-70090895D01*
X122125826Y-70121910D01*
X122125500Y-70122128D01*
X122082382Y-70145175D01*
X122082020Y-70145325D01*
X122035236Y-70159517D01*
X122034851Y-70159593D01*
X121980055Y-70164990D01*
X121979859Y-70165000D01*
X121909077Y-70165000D01*
X121907345Y-70164000D01*
X121907345Y-70162000D01*
X121908881Y-70161010D01*
X121972462Y-70154748D01*
X122033416Y-70136257D01*
X122089590Y-70106233D01*
X122138825Y-70065825D01*
X122179233Y-70016590D01*
X122209257Y-69960416D01*
X122227748Y-69899462D01*
X122234010Y-69835881D01*
X122235175Y-69834255D01*
X122237165Y-69834451D01*
G37*
G36*
X120537990Y-69835881D02*
G01*
X120544252Y-69899462D01*
X120562743Y-69960416D01*
X120592767Y-70016590D01*
X120633175Y-70065825D01*
X120682410Y-70106233D01*
X120738584Y-70136257D01*
X120799538Y-70154748D01*
X120863119Y-70161010D01*
X120864745Y-70162175D01*
X120864549Y-70164165D01*
X120862923Y-70165000D01*
X120792141Y-70165000D01*
X120791945Y-70164990D01*
X120737149Y-70159593D01*
X120736764Y-70159517D01*
X120689980Y-70145325D01*
X120689618Y-70145175D01*
X120646500Y-70122128D01*
X120646174Y-70121910D01*
X120608382Y-70090895D01*
X120608105Y-70090618D01*
X120577090Y-70052826D01*
X120576872Y-70052500D01*
X120553825Y-70009382D01*
X120553675Y-70009020D01*
X120539483Y-69962236D01*
X120539407Y-69961851D01*
X120534010Y-69907055D01*
X120534000Y-69906859D01*
X120534000Y-69836077D01*
X120535000Y-69834345D01*
X120537000Y-69834345D01*
X120537990Y-69835881D01*
G37*
G36*
X125337165Y-69834451D02*
G01*
X125338000Y-69836077D01*
X125338000Y-69906859D01*
X125337990Y-69907055D01*
X125332593Y-69961851D01*
X125332517Y-69962236D01*
X125318325Y-70009020D01*
X125318175Y-70009382D01*
X125295128Y-70052500D01*
X125294910Y-70052826D01*
X125263895Y-70090618D01*
X125263618Y-70090895D01*
X125225826Y-70121910D01*
X125225500Y-70122128D01*
X125182382Y-70145175D01*
X125182020Y-70145325D01*
X125135236Y-70159517D01*
X125134851Y-70159593D01*
X125080055Y-70164990D01*
X125079859Y-70165000D01*
X125009077Y-70165000D01*
X125007345Y-70164000D01*
X125007345Y-70162000D01*
X125008881Y-70161010D01*
X125072462Y-70154748D01*
X125133416Y-70136257D01*
X125189590Y-70106233D01*
X125238825Y-70065825D01*
X125279233Y-70016590D01*
X125309257Y-69960416D01*
X125327748Y-69899462D01*
X125334010Y-69835881D01*
X125335175Y-69834255D01*
X125337165Y-69834451D01*
G37*
G36*
X136683890Y-69275329D02*
G01*
X136690022Y-69337593D01*
X136708129Y-69397282D01*
X136737530Y-69452289D01*
X136777098Y-69500502D01*
X136825311Y-69540070D01*
X136880318Y-69569471D01*
X136940007Y-69587578D01*
X137002271Y-69593710D01*
X137003897Y-69594875D01*
X137003701Y-69596865D01*
X137002075Y-69597700D01*
X136927075Y-69597700D01*
X136926879Y-69597690D01*
X136874223Y-69592504D01*
X136873838Y-69592428D01*
X136829112Y-69578860D01*
X136828750Y-69578710D01*
X136787527Y-69556676D01*
X136787201Y-69556458D01*
X136751070Y-69526807D01*
X136750793Y-69526530D01*
X136721142Y-69490399D01*
X136720924Y-69490073D01*
X136698890Y-69448850D01*
X136698740Y-69448488D01*
X136685172Y-69403762D01*
X136685096Y-69403377D01*
X136679910Y-69350721D01*
X136679900Y-69350525D01*
X136679900Y-69275525D01*
X136680900Y-69273793D01*
X136682900Y-69273793D01*
X136683890Y-69275329D01*
G37*
G36*
X138833065Y-69273899D02*
G01*
X138833900Y-69275525D01*
X138833900Y-69350525D01*
X138833890Y-69350721D01*
X138828704Y-69403377D01*
X138828628Y-69403762D01*
X138815060Y-69448488D01*
X138814910Y-69448850D01*
X138792876Y-69490073D01*
X138792658Y-69490399D01*
X138763007Y-69526530D01*
X138762730Y-69526807D01*
X138726599Y-69556458D01*
X138726273Y-69556676D01*
X138685050Y-69578710D01*
X138684688Y-69578860D01*
X138639962Y-69592428D01*
X138639577Y-69592504D01*
X138586921Y-69597690D01*
X138586725Y-69597700D01*
X138511725Y-69597700D01*
X138509993Y-69596700D01*
X138509993Y-69594700D01*
X138511529Y-69593710D01*
X138573793Y-69587578D01*
X138633482Y-69569471D01*
X138688489Y-69540070D01*
X138736702Y-69500502D01*
X138776270Y-69452289D01*
X138805671Y-69397282D01*
X138823778Y-69337593D01*
X138829910Y-69275329D01*
X138831075Y-69273703D01*
X138833065Y-69273899D01*
G37*
G36*
X120864655Y-68012000D02*
G01*
X120864655Y-68014000D01*
X120863119Y-68014990D01*
X120799538Y-68021252D01*
X120738584Y-68039743D01*
X120682410Y-68069767D01*
X120633175Y-68110175D01*
X120592767Y-68159410D01*
X120562743Y-68215584D01*
X120544252Y-68276538D01*
X120537990Y-68340119D01*
X120536825Y-68341745D01*
X120534835Y-68341549D01*
X120534000Y-68339923D01*
X120534000Y-68269141D01*
X120534010Y-68268945D01*
X120539407Y-68214149D01*
X120539483Y-68213764D01*
X120553675Y-68166980D01*
X120553825Y-68166618D01*
X120576872Y-68123500D01*
X120577090Y-68123174D01*
X120608105Y-68085382D01*
X120608382Y-68085105D01*
X120646174Y-68054090D01*
X120646500Y-68053872D01*
X120689618Y-68030825D01*
X120689980Y-68030675D01*
X120736764Y-68016483D01*
X120737149Y-68016407D01*
X120791945Y-68011010D01*
X120792141Y-68011000D01*
X120862923Y-68011000D01*
X120864655Y-68012000D01*
G37*
G36*
X123964655Y-68012000D02*
G01*
X123964655Y-68014000D01*
X123963119Y-68014990D01*
X123899538Y-68021252D01*
X123838584Y-68039743D01*
X123782410Y-68069767D01*
X123733175Y-68110175D01*
X123692767Y-68159410D01*
X123662743Y-68215584D01*
X123644252Y-68276538D01*
X123637990Y-68340119D01*
X123636825Y-68341745D01*
X123634835Y-68341549D01*
X123634000Y-68339923D01*
X123634000Y-68269141D01*
X123634010Y-68268945D01*
X123639407Y-68214149D01*
X123639483Y-68213764D01*
X123653675Y-68166980D01*
X123653825Y-68166618D01*
X123676872Y-68123500D01*
X123677090Y-68123174D01*
X123708105Y-68085382D01*
X123708382Y-68085105D01*
X123746174Y-68054090D01*
X123746500Y-68053872D01*
X123789618Y-68030825D01*
X123789980Y-68030675D01*
X123836764Y-68016483D01*
X123837149Y-68016407D01*
X123891945Y-68011010D01*
X123892141Y-68011000D01*
X123962923Y-68011000D01*
X123964655Y-68012000D01*
G37*
G36*
X125080055Y-68011010D02*
G01*
X125134851Y-68016407D01*
X125135236Y-68016483D01*
X125182020Y-68030675D01*
X125182382Y-68030825D01*
X125225500Y-68053872D01*
X125225826Y-68054090D01*
X125263618Y-68085105D01*
X125263895Y-68085382D01*
X125294910Y-68123174D01*
X125295128Y-68123500D01*
X125318175Y-68166618D01*
X125318325Y-68166980D01*
X125332517Y-68213764D01*
X125332593Y-68214149D01*
X125337990Y-68268945D01*
X125338000Y-68269141D01*
X125338000Y-68339923D01*
X125337000Y-68341655D01*
X125335000Y-68341655D01*
X125334010Y-68340119D01*
X125327748Y-68276538D01*
X125309257Y-68215584D01*
X125279233Y-68159410D01*
X125238825Y-68110175D01*
X125189590Y-68069767D01*
X125133416Y-68039743D01*
X125072462Y-68021252D01*
X125008881Y-68014990D01*
X125007255Y-68013825D01*
X125007451Y-68011835D01*
X125009077Y-68011000D01*
X125079859Y-68011000D01*
X125080055Y-68011010D01*
G37*
G36*
X121980055Y-68011010D02*
G01*
X122034851Y-68016407D01*
X122035236Y-68016483D01*
X122082020Y-68030675D01*
X122082382Y-68030825D01*
X122125500Y-68053872D01*
X122125826Y-68054090D01*
X122163618Y-68085105D01*
X122163895Y-68085382D01*
X122194910Y-68123174D01*
X122195128Y-68123500D01*
X122218175Y-68166618D01*
X122218325Y-68166980D01*
X122232517Y-68213764D01*
X122232593Y-68214149D01*
X122237990Y-68268945D01*
X122238000Y-68269141D01*
X122238000Y-68339923D01*
X122237000Y-68341655D01*
X122235000Y-68341655D01*
X122234010Y-68340119D01*
X122227748Y-68276538D01*
X122209257Y-68215584D01*
X122179233Y-68159410D01*
X122138825Y-68110175D01*
X122089590Y-68069767D01*
X122033416Y-68039743D01*
X121972462Y-68021252D01*
X121908881Y-68014990D01*
X121907255Y-68013825D01*
X121907451Y-68011835D01*
X121909077Y-68011000D01*
X121979859Y-68011000D01*
X121980055Y-68011010D01*
G37*
G36*
X137003807Y-67769700D02*
G01*
X137003807Y-67771700D01*
X137002271Y-67772690D01*
X136940007Y-67778822D01*
X136880318Y-67796929D01*
X136825311Y-67826330D01*
X136777098Y-67865898D01*
X136737530Y-67914111D01*
X136708129Y-67969118D01*
X136690022Y-68028807D01*
X136683890Y-68091071D01*
X136682725Y-68092697D01*
X136680735Y-68092501D01*
X136679900Y-68090875D01*
X136679900Y-68015875D01*
X136679910Y-68015679D01*
X136685096Y-67963023D01*
X136685172Y-67962638D01*
X136698740Y-67917912D01*
X136698890Y-67917550D01*
X136720924Y-67876327D01*
X136721142Y-67876001D01*
X136750793Y-67839870D01*
X136751070Y-67839593D01*
X136787201Y-67809942D01*
X136787527Y-67809724D01*
X136828750Y-67787690D01*
X136829112Y-67787540D01*
X136873838Y-67773972D01*
X136874223Y-67773896D01*
X136926879Y-67768710D01*
X136927075Y-67768700D01*
X137002075Y-67768700D01*
X137003807Y-67769700D01*
G37*
G36*
X138586921Y-67768710D02*
G01*
X138639577Y-67773896D01*
X138639962Y-67773972D01*
X138684688Y-67787540D01*
X138685050Y-67787690D01*
X138726273Y-67809724D01*
X138726599Y-67809942D01*
X138762730Y-67839593D01*
X138763007Y-67839870D01*
X138792658Y-67876001D01*
X138792876Y-67876327D01*
X138814910Y-67917550D01*
X138815060Y-67917912D01*
X138828628Y-67962638D01*
X138828704Y-67963023D01*
X138833890Y-68015679D01*
X138833900Y-68015875D01*
X138833900Y-68090875D01*
X138832900Y-68092607D01*
X138830900Y-68092607D01*
X138829910Y-68091071D01*
X138823778Y-68028807D01*
X138805671Y-67969118D01*
X138776270Y-67914111D01*
X138736702Y-67865898D01*
X138688489Y-67826330D01*
X138633482Y-67796929D01*
X138573793Y-67778822D01*
X138511529Y-67772690D01*
X138509903Y-67771525D01*
X138510099Y-67769535D01*
X138511725Y-67768700D01*
X138586725Y-67768700D01*
X138586921Y-67768710D01*
G37*
G36*
X136683890Y-66300329D02*
G01*
X136690022Y-66362593D01*
X136708129Y-66422282D01*
X136737530Y-66477289D01*
X136777098Y-66525502D01*
X136825311Y-66565070D01*
X136880318Y-66594471D01*
X136940007Y-66612578D01*
X137002271Y-66618710D01*
X137003897Y-66619875D01*
X137003701Y-66621865D01*
X137002075Y-66622700D01*
X136927075Y-66622700D01*
X136926879Y-66622690D01*
X136874223Y-66617504D01*
X136873838Y-66617428D01*
X136829112Y-66603860D01*
X136828750Y-66603710D01*
X136787527Y-66581676D01*
X136787201Y-66581458D01*
X136751070Y-66551807D01*
X136750793Y-66551530D01*
X136721142Y-66515399D01*
X136720924Y-66515073D01*
X136698890Y-66473850D01*
X136698740Y-66473488D01*
X136685172Y-66428762D01*
X136685096Y-66428377D01*
X136679910Y-66375721D01*
X136679900Y-66375525D01*
X136679900Y-66300525D01*
X136680900Y-66298793D01*
X136682900Y-66298793D01*
X136683890Y-66300329D01*
G37*
G36*
X138833065Y-66298899D02*
G01*
X138833900Y-66300525D01*
X138833900Y-66375525D01*
X138833890Y-66375721D01*
X138830790Y-66407197D01*
X138830790Y-66427818D01*
X138830554Y-66428761D01*
X138827531Y-66434417D01*
X138823466Y-66445777D01*
X138815060Y-66473489D01*
X138814910Y-66473851D01*
X138792876Y-66515073D01*
X138792658Y-66515399D01*
X138763007Y-66551530D01*
X138762730Y-66551807D01*
X138726599Y-66581458D01*
X138726273Y-66581676D01*
X138685050Y-66603710D01*
X138684688Y-66603860D01*
X138639962Y-66617428D01*
X138639577Y-66617504D01*
X138586921Y-66622690D01*
X138586725Y-66622700D01*
X138511725Y-66622700D01*
X138509993Y-66621700D01*
X138509993Y-66619700D01*
X138511529Y-66618710D01*
X138573793Y-66612578D01*
X138633482Y-66594471D01*
X138688489Y-66565070D01*
X138736702Y-66525502D01*
X138776270Y-66477289D01*
X138805671Y-66422282D01*
X138823778Y-66362593D01*
X138829910Y-66300329D01*
X138831075Y-66298703D01*
X138833065Y-66298899D01*
G37*
G36*
X123637990Y-65263881D02*
G01*
X123644252Y-65327462D01*
X123662743Y-65388416D01*
X123692767Y-65444590D01*
X123733175Y-65493825D01*
X123782410Y-65534233D01*
X123838584Y-65564257D01*
X123899538Y-65582748D01*
X123963119Y-65589010D01*
X123964745Y-65590175D01*
X123964549Y-65592165D01*
X123962923Y-65593000D01*
X123892141Y-65593000D01*
X123891945Y-65592990D01*
X123837149Y-65587593D01*
X123836764Y-65587517D01*
X123789980Y-65573325D01*
X123789618Y-65573175D01*
X123746500Y-65550128D01*
X123746174Y-65549910D01*
X123708382Y-65518895D01*
X123708105Y-65518618D01*
X123677090Y-65480826D01*
X123676872Y-65480500D01*
X123653825Y-65437382D01*
X123653675Y-65437020D01*
X123639483Y-65390236D01*
X123639407Y-65389851D01*
X123634010Y-65335055D01*
X123634000Y-65334859D01*
X123634000Y-65264077D01*
X123635000Y-65262345D01*
X123637000Y-65262345D01*
X123637990Y-65263881D01*
G37*
G36*
X125337165Y-65262451D02*
G01*
X125338000Y-65264077D01*
X125338000Y-65334859D01*
X125337990Y-65335055D01*
X125332593Y-65389851D01*
X125332517Y-65390236D01*
X125318325Y-65437020D01*
X125318175Y-65437382D01*
X125295128Y-65480500D01*
X125294910Y-65480826D01*
X125263895Y-65518618D01*
X125263618Y-65518895D01*
X125225826Y-65549910D01*
X125225500Y-65550128D01*
X125182382Y-65573175D01*
X125182020Y-65573325D01*
X125135236Y-65587517D01*
X125134851Y-65587593D01*
X125080055Y-65592990D01*
X125079859Y-65593000D01*
X125009077Y-65593000D01*
X125007345Y-65592000D01*
X125007345Y-65590000D01*
X125008881Y-65589010D01*
X125072462Y-65582748D01*
X125133416Y-65564257D01*
X125189590Y-65534233D01*
X125238825Y-65493825D01*
X125279233Y-65444590D01*
X125309257Y-65388416D01*
X125327748Y-65327462D01*
X125334010Y-65263881D01*
X125335175Y-65262255D01*
X125337165Y-65262451D01*
G37*
G36*
X122237165Y-65262451D02*
G01*
X122238000Y-65264077D01*
X122238000Y-65334859D01*
X122237990Y-65335055D01*
X122232593Y-65389851D01*
X122232517Y-65390236D01*
X122218325Y-65437020D01*
X122218175Y-65437382D01*
X122195128Y-65480500D01*
X122194910Y-65480826D01*
X122163895Y-65518618D01*
X122163618Y-65518895D01*
X122125826Y-65549910D01*
X122125500Y-65550128D01*
X122082382Y-65573175D01*
X122082020Y-65573325D01*
X122035236Y-65587517D01*
X122034851Y-65587593D01*
X121980055Y-65592990D01*
X121979859Y-65593000D01*
X121909077Y-65593000D01*
X121907345Y-65592000D01*
X121907345Y-65590000D01*
X121908881Y-65589010D01*
X121972462Y-65582748D01*
X122033416Y-65564257D01*
X122089590Y-65534233D01*
X122138825Y-65493825D01*
X122179233Y-65444590D01*
X122209257Y-65388416D01*
X122227748Y-65327462D01*
X122234010Y-65263881D01*
X122235175Y-65262255D01*
X122237165Y-65262451D01*
G37*
G36*
X120537990Y-65263881D02*
G01*
X120544252Y-65327462D01*
X120562743Y-65388416D01*
X120592767Y-65444590D01*
X120633175Y-65493825D01*
X120682410Y-65534233D01*
X120738584Y-65564257D01*
X120799538Y-65582748D01*
X120863119Y-65589010D01*
X120864745Y-65590175D01*
X120864549Y-65592165D01*
X120862923Y-65593000D01*
X120792141Y-65593000D01*
X120791945Y-65592990D01*
X120737149Y-65587593D01*
X120736764Y-65587517D01*
X120689980Y-65573325D01*
X120689618Y-65573175D01*
X120646500Y-65550128D01*
X120646174Y-65549910D01*
X120608382Y-65518895D01*
X120608105Y-65518618D01*
X120577090Y-65480826D01*
X120576872Y-65480500D01*
X120553825Y-65437382D01*
X120553675Y-65437020D01*
X120539483Y-65390236D01*
X120539407Y-65389851D01*
X120534010Y-65335055D01*
X120534000Y-65334859D01*
X120534000Y-65264077D01*
X120535000Y-65262345D01*
X120537000Y-65262345D01*
X120537990Y-65263881D01*
G37*
G36*
X137003807Y-64794700D02*
G01*
X137003807Y-64796700D01*
X137002271Y-64797690D01*
X136940007Y-64803822D01*
X136880318Y-64821929D01*
X136825311Y-64851330D01*
X136777098Y-64890898D01*
X136737530Y-64939111D01*
X136708129Y-64994118D01*
X136690022Y-65053807D01*
X136683890Y-65116071D01*
X136682725Y-65117697D01*
X136680735Y-65117501D01*
X136679900Y-65115875D01*
X136679900Y-65040875D01*
X136679910Y-65040679D01*
X136685096Y-64988023D01*
X136685172Y-64987638D01*
X136698740Y-64942912D01*
X136698890Y-64942550D01*
X136720924Y-64901327D01*
X136721142Y-64901001D01*
X136750793Y-64864870D01*
X136751070Y-64864593D01*
X136787201Y-64834942D01*
X136787527Y-64834724D01*
X136828750Y-64812690D01*
X136829112Y-64812540D01*
X136873838Y-64798972D01*
X136874223Y-64798896D01*
X136926879Y-64793710D01*
X136927075Y-64793700D01*
X137002075Y-64793700D01*
X137003807Y-64794700D01*
G37*
G36*
X138586921Y-64793710D02*
G01*
X138639577Y-64798896D01*
X138639962Y-64798972D01*
X138684688Y-64812540D01*
X138685050Y-64812690D01*
X138726273Y-64834724D01*
X138726599Y-64834942D01*
X138762730Y-64864593D01*
X138763007Y-64864870D01*
X138792658Y-64901001D01*
X138792876Y-64901327D01*
X138814910Y-64942550D01*
X138815060Y-64942912D01*
X138828628Y-64987638D01*
X138828704Y-64988023D01*
X138833890Y-65040679D01*
X138833900Y-65040875D01*
X138833900Y-65115875D01*
X138832900Y-65117607D01*
X138830900Y-65117607D01*
X138829910Y-65116071D01*
X138823778Y-65053807D01*
X138805671Y-64994118D01*
X138776270Y-64939111D01*
X138736702Y-64890898D01*
X138688489Y-64851330D01*
X138633482Y-64821929D01*
X138573793Y-64803822D01*
X138511529Y-64797690D01*
X138509903Y-64796525D01*
X138510099Y-64794535D01*
X138511725Y-64793700D01*
X138586725Y-64793700D01*
X138586921Y-64793710D01*
G37*
G36*
X123964655Y-63440000D02*
G01*
X123964655Y-63442000D01*
X123963119Y-63442990D01*
X123899538Y-63449252D01*
X123838584Y-63467743D01*
X123782410Y-63497767D01*
X123733175Y-63538175D01*
X123692767Y-63587410D01*
X123662743Y-63643584D01*
X123644252Y-63704538D01*
X123637990Y-63768119D01*
X123636825Y-63769745D01*
X123634835Y-63769549D01*
X123634000Y-63767923D01*
X123634000Y-63697141D01*
X123634010Y-63696945D01*
X123639407Y-63642149D01*
X123639483Y-63641764D01*
X123653675Y-63594980D01*
X123653825Y-63594618D01*
X123676872Y-63551500D01*
X123677090Y-63551174D01*
X123708105Y-63513382D01*
X123708382Y-63513105D01*
X123746174Y-63482090D01*
X123746500Y-63481872D01*
X123789618Y-63458825D01*
X123789980Y-63458675D01*
X123836764Y-63444483D01*
X123837149Y-63444407D01*
X123891945Y-63439010D01*
X123892141Y-63439000D01*
X123962923Y-63439000D01*
X123964655Y-63440000D01*
G37*
G36*
X120864655Y-63440000D02*
G01*
X120864655Y-63442000D01*
X120863119Y-63442990D01*
X120799538Y-63449252D01*
X120738584Y-63467743D01*
X120682410Y-63497767D01*
X120633175Y-63538175D01*
X120592767Y-63587410D01*
X120562743Y-63643584D01*
X120544252Y-63704538D01*
X120537990Y-63768119D01*
X120536825Y-63769745D01*
X120534835Y-63769549D01*
X120534000Y-63767923D01*
X120534000Y-63697141D01*
X120534010Y-63696945D01*
X120539407Y-63642149D01*
X120539483Y-63641764D01*
X120553675Y-63594980D01*
X120553825Y-63594618D01*
X120576872Y-63551500D01*
X120577090Y-63551174D01*
X120608105Y-63513382D01*
X120608382Y-63513105D01*
X120646174Y-63482090D01*
X120646500Y-63481872D01*
X120689618Y-63458825D01*
X120689980Y-63458675D01*
X120736764Y-63444483D01*
X120737149Y-63444407D01*
X120791945Y-63439010D01*
X120792141Y-63439000D01*
X120862923Y-63439000D01*
X120864655Y-63440000D01*
G37*
G36*
X121980055Y-63439010D02*
G01*
X122034851Y-63444407D01*
X122035236Y-63444483D01*
X122082020Y-63458675D01*
X122082382Y-63458825D01*
X122125500Y-63481872D01*
X122125826Y-63482090D01*
X122163618Y-63513105D01*
X122163895Y-63513382D01*
X122194910Y-63551174D01*
X122195128Y-63551500D01*
X122218175Y-63594618D01*
X122218325Y-63594980D01*
X122232517Y-63641764D01*
X122232593Y-63642149D01*
X122237990Y-63696945D01*
X122238000Y-63697141D01*
X122238000Y-63767923D01*
X122237000Y-63769655D01*
X122235000Y-63769655D01*
X122234010Y-63768119D01*
X122227748Y-63704538D01*
X122209257Y-63643584D01*
X122179233Y-63587410D01*
X122138825Y-63538175D01*
X122089590Y-63497767D01*
X122033416Y-63467743D01*
X121972462Y-63449252D01*
X121908881Y-63442990D01*
X121907255Y-63441825D01*
X121907451Y-63439835D01*
X121909077Y-63439000D01*
X121979859Y-63439000D01*
X121980055Y-63439010D01*
G37*
G36*
X125080055Y-63439010D02*
G01*
X125134851Y-63444407D01*
X125135236Y-63444483D01*
X125182020Y-63458675D01*
X125182382Y-63458825D01*
X125225500Y-63481872D01*
X125225826Y-63482090D01*
X125263618Y-63513105D01*
X125263895Y-63513382D01*
X125294910Y-63551174D01*
X125295128Y-63551500D01*
X125318175Y-63594618D01*
X125318325Y-63594980D01*
X125332517Y-63641764D01*
X125332593Y-63642149D01*
X125337990Y-63696945D01*
X125338000Y-63697141D01*
X125338000Y-63767923D01*
X125337000Y-63769655D01*
X125335000Y-63769655D01*
X125334010Y-63768119D01*
X125327748Y-63704538D01*
X125309257Y-63643584D01*
X125279233Y-63587410D01*
X125238825Y-63538175D01*
X125189590Y-63497767D01*
X125133416Y-63467743D01*
X125072462Y-63449252D01*
X125008881Y-63442990D01*
X125007255Y-63441825D01*
X125007451Y-63439835D01*
X125009077Y-63439000D01*
X125079859Y-63439000D01*
X125080055Y-63439010D01*
G37*
G36*
X123637990Y-60945881D02*
G01*
X123644252Y-61009462D01*
X123662743Y-61070416D01*
X123692767Y-61126590D01*
X123733175Y-61175825D01*
X123782410Y-61216233D01*
X123838584Y-61246257D01*
X123899538Y-61264748D01*
X123963119Y-61271010D01*
X123964745Y-61272175D01*
X123964549Y-61274165D01*
X123962923Y-61275000D01*
X123892141Y-61275000D01*
X123891945Y-61274990D01*
X123837149Y-61269593D01*
X123836764Y-61269517D01*
X123789980Y-61255325D01*
X123789618Y-61255175D01*
X123746500Y-61232128D01*
X123746174Y-61231910D01*
X123708382Y-61200895D01*
X123708105Y-61200618D01*
X123677090Y-61162826D01*
X123676872Y-61162500D01*
X123653825Y-61119382D01*
X123653675Y-61119020D01*
X123639483Y-61072236D01*
X123639407Y-61071851D01*
X123634010Y-61017055D01*
X123634000Y-61016859D01*
X123634000Y-60946077D01*
X123635000Y-60944345D01*
X123637000Y-60944345D01*
X123637990Y-60945881D01*
G37*
G36*
X120537990Y-60945881D02*
G01*
X120544252Y-61009462D01*
X120562743Y-61070416D01*
X120592767Y-61126590D01*
X120633175Y-61175825D01*
X120682410Y-61216233D01*
X120738584Y-61246257D01*
X120799538Y-61264748D01*
X120863119Y-61271010D01*
X120864745Y-61272175D01*
X120864549Y-61274165D01*
X120862923Y-61275000D01*
X120792141Y-61275000D01*
X120791945Y-61274990D01*
X120737149Y-61269593D01*
X120736764Y-61269517D01*
X120689980Y-61255325D01*
X120689618Y-61255175D01*
X120646500Y-61232128D01*
X120646174Y-61231910D01*
X120608382Y-61200895D01*
X120608105Y-61200618D01*
X120577090Y-61162826D01*
X120576872Y-61162500D01*
X120553825Y-61119382D01*
X120553675Y-61119020D01*
X120539483Y-61072236D01*
X120539407Y-61071851D01*
X120534010Y-61017055D01*
X120534000Y-61016859D01*
X120534000Y-60946077D01*
X120535000Y-60944345D01*
X120537000Y-60944345D01*
X120537990Y-60945881D01*
G37*
G36*
X122237165Y-60944451D02*
G01*
X122238000Y-60946077D01*
X122238000Y-61016859D01*
X122237990Y-61017055D01*
X122232593Y-61071851D01*
X122232517Y-61072236D01*
X122218325Y-61119020D01*
X122218175Y-61119382D01*
X122195128Y-61162500D01*
X122194910Y-61162826D01*
X122163895Y-61200618D01*
X122163618Y-61200895D01*
X122125826Y-61231910D01*
X122125500Y-61232128D01*
X122082382Y-61255175D01*
X122082020Y-61255325D01*
X122035236Y-61269517D01*
X122034851Y-61269593D01*
X121980055Y-61274990D01*
X121979859Y-61275000D01*
X121909077Y-61275000D01*
X121907345Y-61274000D01*
X121907345Y-61272000D01*
X121908881Y-61271010D01*
X121972462Y-61264748D01*
X122033416Y-61246257D01*
X122089590Y-61216233D01*
X122138825Y-61175825D01*
X122179233Y-61126590D01*
X122209257Y-61070416D01*
X122227748Y-61009462D01*
X122234010Y-60945881D01*
X122235175Y-60944255D01*
X122237165Y-60944451D01*
G37*
G36*
X125337165Y-60944451D02*
G01*
X125338000Y-60946077D01*
X125338000Y-61016859D01*
X125337990Y-61017055D01*
X125332593Y-61071851D01*
X125332517Y-61072236D01*
X125318325Y-61119020D01*
X125318175Y-61119382D01*
X125295128Y-61162500D01*
X125294910Y-61162826D01*
X125263895Y-61200618D01*
X125263618Y-61200895D01*
X125225826Y-61231910D01*
X125225500Y-61232128D01*
X125182382Y-61255175D01*
X125182020Y-61255325D01*
X125135236Y-61269517D01*
X125134851Y-61269593D01*
X125080055Y-61274990D01*
X125079859Y-61275000D01*
X125009077Y-61275000D01*
X125007345Y-61274000D01*
X125007345Y-61272000D01*
X125008881Y-61271010D01*
X125072462Y-61264748D01*
X125133416Y-61246257D01*
X125189590Y-61216233D01*
X125238825Y-61175825D01*
X125279233Y-61126590D01*
X125309257Y-61070416D01*
X125327748Y-61009462D01*
X125334010Y-60945881D01*
X125335175Y-60944255D01*
X125337165Y-60944451D01*
G37*
G36*
X149826382Y-59056763D02*
G01*
X149826709Y-59058562D01*
X149821435Y-59075946D01*
X149819072Y-59099938D01*
X149821435Y-59123929D01*
X149828435Y-59147004D01*
X149839800Y-59168267D01*
X149855095Y-59186904D01*
X149873732Y-59202200D01*
X149894996Y-59213565D01*
X149918070Y-59220565D01*
X149942062Y-59222928D01*
X149966053Y-59220565D01*
X149983439Y-59215291D01*
X149985387Y-59215745D01*
X149985968Y-59217659D01*
X149984785Y-59219053D01*
X149917460Y-59246940D01*
X149779240Y-59339295D01*
X149661695Y-59456840D01*
X149569340Y-59595060D01*
X149541453Y-59662384D01*
X149539866Y-59663602D01*
X149538018Y-59662837D01*
X149537691Y-59661038D01*
X149542965Y-59643654D01*
X149545328Y-59619662D01*
X149542965Y-59595671D01*
X149535965Y-59572596D01*
X149524600Y-59551333D01*
X149509305Y-59532696D01*
X149490668Y-59517400D01*
X149469404Y-59506035D01*
X149446330Y-59499035D01*
X149422338Y-59496672D01*
X149398347Y-59499035D01*
X149380961Y-59504309D01*
X149379013Y-59503855D01*
X149378432Y-59501941D01*
X149379615Y-59500547D01*
X149446940Y-59472660D01*
X149585160Y-59380305D01*
X149702705Y-59262760D01*
X149795060Y-59124540D01*
X149822947Y-59057216D01*
X149824534Y-59055998D01*
X149826382Y-59056763D01*
G37*
G36*
X123964655Y-59122000D02*
G01*
X123964655Y-59124000D01*
X123963119Y-59124990D01*
X123899538Y-59131252D01*
X123838584Y-59149743D01*
X123782410Y-59179767D01*
X123733175Y-59220175D01*
X123692767Y-59269410D01*
X123662743Y-59325584D01*
X123644252Y-59386538D01*
X123637990Y-59450119D01*
X123636825Y-59451745D01*
X123634835Y-59451549D01*
X123634000Y-59449923D01*
X123634000Y-59379141D01*
X123634010Y-59378945D01*
X123639407Y-59324149D01*
X123639483Y-59323764D01*
X123653675Y-59276980D01*
X123653825Y-59276618D01*
X123676872Y-59233500D01*
X123677090Y-59233174D01*
X123708105Y-59195382D01*
X123708382Y-59195105D01*
X123746174Y-59164090D01*
X123746500Y-59163872D01*
X123789618Y-59140825D01*
X123789980Y-59140675D01*
X123836764Y-59126483D01*
X123837149Y-59126407D01*
X123891945Y-59121010D01*
X123892141Y-59121000D01*
X123962923Y-59121000D01*
X123964655Y-59122000D01*
G37*
G36*
X120864655Y-59122000D02*
G01*
X120864655Y-59124000D01*
X120863119Y-59124990D01*
X120799538Y-59131252D01*
X120738584Y-59149743D01*
X120682410Y-59179767D01*
X120633175Y-59220175D01*
X120592767Y-59269410D01*
X120562743Y-59325584D01*
X120544252Y-59386538D01*
X120537990Y-59450119D01*
X120536825Y-59451745D01*
X120534835Y-59451549D01*
X120534000Y-59449923D01*
X120534000Y-59379141D01*
X120534010Y-59378945D01*
X120539407Y-59324149D01*
X120539483Y-59323764D01*
X120553675Y-59276980D01*
X120553825Y-59276618D01*
X120576872Y-59233500D01*
X120577090Y-59233174D01*
X120608105Y-59195382D01*
X120608382Y-59195105D01*
X120646174Y-59164090D01*
X120646500Y-59163872D01*
X120689618Y-59140825D01*
X120689980Y-59140675D01*
X120736764Y-59126483D01*
X120737149Y-59126407D01*
X120791945Y-59121010D01*
X120792141Y-59121000D01*
X120862923Y-59121000D01*
X120864655Y-59122000D01*
G37*
G36*
X121980055Y-59121010D02*
G01*
X122034851Y-59126407D01*
X122035236Y-59126483D01*
X122082020Y-59140675D01*
X122082382Y-59140825D01*
X122125500Y-59163872D01*
X122125826Y-59164090D01*
X122163618Y-59195105D01*
X122163895Y-59195382D01*
X122194910Y-59233174D01*
X122195128Y-59233500D01*
X122218175Y-59276618D01*
X122218325Y-59276980D01*
X122232517Y-59323764D01*
X122232593Y-59324149D01*
X122237990Y-59378945D01*
X122238000Y-59379141D01*
X122238000Y-59449923D01*
X122237000Y-59451655D01*
X122235000Y-59451655D01*
X122234010Y-59450119D01*
X122227748Y-59386538D01*
X122209257Y-59325584D01*
X122179233Y-59269410D01*
X122138825Y-59220175D01*
X122089590Y-59179767D01*
X122033416Y-59149743D01*
X121972462Y-59131252D01*
X121908881Y-59124990D01*
X121907255Y-59123825D01*
X121907451Y-59121835D01*
X121909077Y-59121000D01*
X121979859Y-59121000D01*
X121980055Y-59121010D01*
G37*
G36*
X125080055Y-59121010D02*
G01*
X125134851Y-59126407D01*
X125135236Y-59126483D01*
X125182020Y-59140675D01*
X125182382Y-59140825D01*
X125225500Y-59163872D01*
X125225826Y-59164090D01*
X125263618Y-59195105D01*
X125263895Y-59195382D01*
X125294910Y-59233174D01*
X125295128Y-59233500D01*
X125318175Y-59276618D01*
X125318325Y-59276980D01*
X125332517Y-59323764D01*
X125332593Y-59324149D01*
X125337990Y-59378945D01*
X125338000Y-59379141D01*
X125338000Y-59449923D01*
X125337000Y-59451655D01*
X125335000Y-59451655D01*
X125334010Y-59450119D01*
X125327748Y-59386538D01*
X125309257Y-59325584D01*
X125279233Y-59269410D01*
X125238825Y-59220175D01*
X125189590Y-59179767D01*
X125133416Y-59149743D01*
X125072462Y-59131252D01*
X125008881Y-59124990D01*
X125007255Y-59123825D01*
X125007451Y-59121835D01*
X125009077Y-59121000D01*
X125079859Y-59121000D01*
X125080055Y-59121010D01*
G37*
M02*
