G04 #@! TF.GenerationSoftware,KiCad,Pcbnew,(5.1.7)-1*
G04 #@! TF.CreationDate,2021-05-02T01:51:04-07:00*
G04 #@! TF.ProjectId,mouse_v2,6d6f7573-655f-4763-922e-6b696361645f,rev?*
G04 #@! TF.SameCoordinates,Original*
G04 #@! TF.FileFunction,Legend,Top*
G04 #@! TF.FilePolarity,Positive*
%FSLAX46Y46*%
G04 Gerber Fmt 4.6, Leading zero omitted, Abs format (unit mm)*
G04 Created by KiCad (PCBNEW (5.1.7)-1) date 2021-05-02 01:51:04*
%MOMM*%
%LPD*%
G01*
G04 APERTURE LIST*
%ADD10C,0.100000*%
%ADD11C,0.120000*%
%ADD12C,0.150000*%
%ADD13C,0.152400*%
%ADD14C,2.000000*%
%ADD15C,1.700000*%
%ADD16C,2.900000*%
%ADD17O,2.000000X2.000000*%
%ADD18C,1.924000*%
%ADD19C,2.400000*%
%ADD20C,2.200000*%
%ADD21O,2.100000X2.100000*%
%ADD22C,2.076400*%
%ADD23C,2.584400*%
%ADD24O,1.750000X1.750000*%
%ADD25C,2.600000*%
G04 APERTURE END LIST*
D10*
X123443952Y-59682071D02*
X122682047Y-59682071D01*
X123063000Y-59301119D02*
X123063000Y-60063023D01*
X120332452Y-59682071D02*
X119570547Y-59682071D01*
X123380452Y-64063571D02*
X122618547Y-64063571D01*
X122999500Y-63682619D02*
X122999500Y-64444523D01*
X120332452Y-64063571D02*
X119570547Y-64063571D01*
X120205452Y-68572071D02*
X119443547Y-68572071D01*
X123380452Y-68572071D02*
X122618547Y-68572071D01*
X122999500Y-68191119D02*
X122999500Y-68953023D01*
X191444571Y-58102547D02*
X191444571Y-58864452D01*
X191063619Y-58483500D02*
X191825523Y-58483500D01*
X191444571Y-61341047D02*
X191444571Y-62102952D01*
X175513952Y-70477071D02*
X174752047Y-70477071D01*
X175133000Y-70096119D02*
X175133000Y-70858023D01*
X178688952Y-70477071D02*
X177927047Y-70477071D01*
X192492380Y-68571904D02*
X193301904Y-68571904D01*
X193397142Y-68524285D01*
X193444761Y-68476666D01*
X193492380Y-68381428D01*
X193492380Y-68190952D01*
X193444761Y-68095714D01*
X193397142Y-68048095D01*
X193301904Y-68000476D01*
X192492380Y-68000476D01*
X193444761Y-67571904D02*
X193492380Y-67429047D01*
X193492380Y-67190952D01*
X193444761Y-67095714D01*
X193397142Y-67048095D01*
X193301904Y-67000476D01*
X193206666Y-67000476D01*
X193111428Y-67048095D01*
X193063809Y-67095714D01*
X193016190Y-67190952D01*
X192968571Y-67381428D01*
X192920952Y-67476666D01*
X192873333Y-67524285D01*
X192778095Y-67571904D01*
X192682857Y-67571904D01*
X192587619Y-67524285D01*
X192540000Y-67476666D01*
X192492380Y-67381428D01*
X192492380Y-67143333D01*
X192540000Y-67000476D01*
X192968571Y-66238571D02*
X193016190Y-66095714D01*
X193063809Y-66048095D01*
X193159047Y-66000476D01*
X193301904Y-66000476D01*
X193397142Y-66048095D01*
X193444761Y-66095714D01*
X193492380Y-66190952D01*
X193492380Y-66571904D01*
X192492380Y-66571904D01*
X192492380Y-66238571D01*
X192540000Y-66143333D01*
X192587619Y-66095714D01*
X192682857Y-66048095D01*
X192778095Y-66048095D01*
X192873333Y-66095714D01*
X192920952Y-66143333D01*
X192968571Y-66238571D01*
X192968571Y-66571904D01*
X173672452Y-76001571D02*
X172910547Y-76001571D01*
X178823928Y-72262952D02*
X178823928Y-71501047D01*
X178498547Y-75001428D02*
X179260452Y-75001428D01*
X178879500Y-75382380D02*
X178879500Y-74620476D01*
X170434047Y-76017428D02*
X171195952Y-76017428D01*
X170815000Y-76398380D02*
X170815000Y-75636476D01*
X177157451Y-75825000D02*
X177086022Y-75789285D01*
X176978880Y-75789285D01*
X176871737Y-75825000D01*
X176800308Y-75896428D01*
X176764594Y-75967857D01*
X176728880Y-76110714D01*
X176728880Y-76217857D01*
X176764594Y-76360714D01*
X176800308Y-76432142D01*
X176871737Y-76503571D01*
X176978880Y-76539285D01*
X177050308Y-76539285D01*
X177157451Y-76503571D01*
X177193165Y-76467857D01*
X177193165Y-76217857D01*
X177050308Y-76217857D01*
X177514594Y-76539285D02*
X177514594Y-75789285D01*
X177943165Y-76539285D01*
X177943165Y-75789285D01*
X178300308Y-76539285D02*
X178300308Y-75789285D01*
X178478880Y-75789285D01*
X178586022Y-75825000D01*
X178657451Y-75896428D01*
X178693165Y-75967857D01*
X178728880Y-76110714D01*
X178728880Y-76217857D01*
X178693165Y-76360714D01*
X178657451Y-76432142D01*
X178586022Y-76503571D01*
X178478880Y-76539285D01*
X178300308Y-76539285D01*
X142240071Y-75987560D02*
X142168642Y-75951845D01*
X142061500Y-75951845D01*
X141954357Y-75987560D01*
X141882928Y-76058988D01*
X141847214Y-76130417D01*
X141811500Y-76273274D01*
X141811500Y-76380417D01*
X141847214Y-76523274D01*
X141882928Y-76594702D01*
X141954357Y-76666131D01*
X142061500Y-76701845D01*
X142132928Y-76701845D01*
X142240071Y-76666131D01*
X142275785Y-76630417D01*
X142275785Y-76380417D01*
X142132928Y-76380417D01*
X142597214Y-76701845D02*
X142597214Y-75951845D01*
X143025785Y-76701845D01*
X143025785Y-75951845D01*
X143382928Y-76701845D02*
X143382928Y-75951845D01*
X143561500Y-75951845D01*
X143668642Y-75987560D01*
X143740071Y-76058988D01*
X143775785Y-76130417D01*
X143811500Y-76273274D01*
X143811500Y-76380417D01*
X143775785Y-76523274D01*
X143740071Y-76594702D01*
X143668642Y-76666131D01*
X143561500Y-76701845D01*
X143382928Y-76701845D01*
X193294047Y-130055928D02*
X194055952Y-130055928D01*
X125984047Y-129992428D02*
X126745952Y-129992428D01*
X126365000Y-130373380D02*
X126365000Y-129611476D01*
X130111547Y-129992428D02*
X130873452Y-129992428D01*
X189357047Y-129992428D02*
X190118952Y-129992428D01*
X189738000Y-130373380D02*
X189738000Y-129611476D01*
X194754547Y-124213928D02*
X195516452Y-124213928D01*
X198755047Y-124213928D02*
X199516952Y-124213928D01*
X199136000Y-124594880D02*
X199136000Y-123832976D01*
X155849095Y-146121943D02*
X156189056Y-146803798D01*
X155678148Y-146632851D02*
X156360003Y-146292891D01*
X153880595Y-142692943D02*
X154220556Y-143374798D01*
X171724943Y-144263798D02*
X172064904Y-143581943D01*
X172235851Y-144092851D02*
X171553996Y-143752891D01*
X163914443Y-146740298D02*
X164254404Y-146058443D01*
X173439443Y-140771298D02*
X173779404Y-140089443D01*
X165501943Y-143311298D02*
X165841904Y-142629443D01*
X166012851Y-143140351D02*
X165330996Y-142800391D01*
X148102095Y-143518443D02*
X148442056Y-144200298D01*
X146451095Y-140025943D02*
X146791056Y-140707798D01*
X146280148Y-140536851D02*
X146962003Y-140196891D01*
X120586547Y-124213928D02*
X121348452Y-124213928D01*
X124650547Y-124213928D02*
X125412452Y-124213928D01*
X125031500Y-124594880D02*
X125031500Y-123832976D01*
D11*
X156120000Y-77375936D02*
X156120000Y-78580064D01*
X158840000Y-77375936D02*
X158840000Y-78580064D01*
X173124800Y-62788800D02*
G75*
G03*
X173124800Y-62788800I-2620000J0D01*
G01*
X170504800Y-65368800D02*
X170504800Y-60208800D01*
X170464800Y-65368800D02*
X170464800Y-60208800D01*
X170424800Y-65367800D02*
X170424800Y-60209800D01*
X170384800Y-65366800D02*
X170384800Y-60210800D01*
X170344800Y-65364800D02*
X170344800Y-60212800D01*
X170304800Y-65361800D02*
X170304800Y-60215800D01*
X170264800Y-65357800D02*
X170264800Y-63828800D01*
X170264800Y-61748800D02*
X170264800Y-60219800D01*
X170224800Y-65353800D02*
X170224800Y-63828800D01*
X170224800Y-61748800D02*
X170224800Y-60223800D01*
X170184800Y-65349800D02*
X170184800Y-63828800D01*
X170184800Y-61748800D02*
X170184800Y-60227800D01*
X170144800Y-65344800D02*
X170144800Y-63828800D01*
X170144800Y-61748800D02*
X170144800Y-60232800D01*
X170104800Y-65338800D02*
X170104800Y-63828800D01*
X170104800Y-61748800D02*
X170104800Y-60238800D01*
X170064800Y-65331800D02*
X170064800Y-63828800D01*
X170064800Y-61748800D02*
X170064800Y-60245800D01*
X170024800Y-65324800D02*
X170024800Y-63828800D01*
X170024800Y-61748800D02*
X170024800Y-60252800D01*
X169984800Y-65316800D02*
X169984800Y-63828800D01*
X169984800Y-61748800D02*
X169984800Y-60260800D01*
X169944800Y-65308800D02*
X169944800Y-63828800D01*
X169944800Y-61748800D02*
X169944800Y-60268800D01*
X169904800Y-65299800D02*
X169904800Y-63828800D01*
X169904800Y-61748800D02*
X169904800Y-60277800D01*
X169864800Y-65289800D02*
X169864800Y-63828800D01*
X169864800Y-61748800D02*
X169864800Y-60287800D01*
X169824800Y-65279800D02*
X169824800Y-63828800D01*
X169824800Y-61748800D02*
X169824800Y-60297800D01*
X169783800Y-65268800D02*
X169783800Y-63828800D01*
X169783800Y-61748800D02*
X169783800Y-60308800D01*
X169743800Y-65256800D02*
X169743800Y-63828800D01*
X169743800Y-61748800D02*
X169743800Y-60320800D01*
X169703800Y-65243800D02*
X169703800Y-63828800D01*
X169703800Y-61748800D02*
X169703800Y-60333800D01*
X169663800Y-65230800D02*
X169663800Y-63828800D01*
X169663800Y-61748800D02*
X169663800Y-60346800D01*
X169623800Y-65216800D02*
X169623800Y-63828800D01*
X169623800Y-61748800D02*
X169623800Y-60360800D01*
X169583800Y-65202800D02*
X169583800Y-63828800D01*
X169583800Y-61748800D02*
X169583800Y-60374800D01*
X169543800Y-65186800D02*
X169543800Y-63828800D01*
X169543800Y-61748800D02*
X169543800Y-60390800D01*
X169503800Y-65170800D02*
X169503800Y-63828800D01*
X169503800Y-61748800D02*
X169503800Y-60406800D01*
X169463800Y-65153800D02*
X169463800Y-63828800D01*
X169463800Y-61748800D02*
X169463800Y-60423800D01*
X169423800Y-65136800D02*
X169423800Y-63828800D01*
X169423800Y-61748800D02*
X169423800Y-60440800D01*
X169383800Y-65117800D02*
X169383800Y-63828800D01*
X169383800Y-61748800D02*
X169383800Y-60459800D01*
X169343800Y-65098800D02*
X169343800Y-63828800D01*
X169343800Y-61748800D02*
X169343800Y-60478800D01*
X169303800Y-65078800D02*
X169303800Y-63828800D01*
X169303800Y-61748800D02*
X169303800Y-60498800D01*
X169263800Y-65056800D02*
X169263800Y-63828800D01*
X169263800Y-61748800D02*
X169263800Y-60520800D01*
X169223800Y-65035800D02*
X169223800Y-63828800D01*
X169223800Y-61748800D02*
X169223800Y-60541800D01*
X169183800Y-65012800D02*
X169183800Y-63828800D01*
X169183800Y-61748800D02*
X169183800Y-60564800D01*
X169143800Y-64988800D02*
X169143800Y-63828800D01*
X169143800Y-61748800D02*
X169143800Y-60588800D01*
X169103800Y-64963800D02*
X169103800Y-63828800D01*
X169103800Y-61748800D02*
X169103800Y-60613800D01*
X169063800Y-64937800D02*
X169063800Y-63828800D01*
X169063800Y-61748800D02*
X169063800Y-60639800D01*
X169023800Y-64910800D02*
X169023800Y-63828800D01*
X169023800Y-61748800D02*
X169023800Y-60666800D01*
X168983800Y-64883800D02*
X168983800Y-63828800D01*
X168983800Y-61748800D02*
X168983800Y-60693800D01*
X168943800Y-64853800D02*
X168943800Y-63828800D01*
X168943800Y-61748800D02*
X168943800Y-60723800D01*
X168903800Y-64823800D02*
X168903800Y-63828800D01*
X168903800Y-61748800D02*
X168903800Y-60753800D01*
X168863800Y-64792800D02*
X168863800Y-63828800D01*
X168863800Y-61748800D02*
X168863800Y-60784800D01*
X168823800Y-64759800D02*
X168823800Y-63828800D01*
X168823800Y-61748800D02*
X168823800Y-60817800D01*
X168783800Y-64725800D02*
X168783800Y-63828800D01*
X168783800Y-61748800D02*
X168783800Y-60851800D01*
X168743800Y-64689800D02*
X168743800Y-63828800D01*
X168743800Y-61748800D02*
X168743800Y-60887800D01*
X168703800Y-64652800D02*
X168703800Y-63828800D01*
X168703800Y-61748800D02*
X168703800Y-60924800D01*
X168663800Y-64614800D02*
X168663800Y-63828800D01*
X168663800Y-61748800D02*
X168663800Y-60962800D01*
X168623800Y-64573800D02*
X168623800Y-63828800D01*
X168623800Y-61748800D02*
X168623800Y-61003800D01*
X168583800Y-64531800D02*
X168583800Y-63828800D01*
X168583800Y-61748800D02*
X168583800Y-61045800D01*
X168543800Y-64487800D02*
X168543800Y-63828800D01*
X168543800Y-61748800D02*
X168543800Y-61089800D01*
X168503800Y-64441800D02*
X168503800Y-63828800D01*
X168503800Y-61748800D02*
X168503800Y-61135800D01*
X168463800Y-64393800D02*
X168463800Y-63828800D01*
X168463800Y-61748800D02*
X168463800Y-61183800D01*
X168423800Y-64342800D02*
X168423800Y-63828800D01*
X168423800Y-61748800D02*
X168423800Y-61234800D01*
X168383800Y-64288800D02*
X168383800Y-63828800D01*
X168383800Y-61748800D02*
X168383800Y-61288800D01*
X168343800Y-64231800D02*
X168343800Y-63828800D01*
X168343800Y-61748800D02*
X168343800Y-61345800D01*
X168303800Y-64171800D02*
X168303800Y-63828800D01*
X168303800Y-61748800D02*
X168303800Y-61405800D01*
X168263800Y-64107800D02*
X168263800Y-63828800D01*
X168263800Y-61748800D02*
X168263800Y-61469800D01*
X168223800Y-64039800D02*
X168223800Y-63828800D01*
X168223800Y-61748800D02*
X168223800Y-61537800D01*
X168183800Y-63966800D02*
X168183800Y-61610800D01*
X168143800Y-63886800D02*
X168143800Y-61690800D01*
X168103800Y-63799800D02*
X168103800Y-61777800D01*
X168063800Y-63703800D02*
X168063800Y-61873800D01*
X168023800Y-63593800D02*
X168023800Y-61983800D01*
X167983800Y-63465800D02*
X167983800Y-62111800D01*
X167943800Y-63306800D02*
X167943800Y-62270800D01*
X167903800Y-63072800D02*
X167903800Y-62504800D01*
X173309575Y-64263800D02*
X172809575Y-64263800D01*
X173059575Y-64513800D02*
X173059575Y-64013800D01*
X173059575Y-70559000D02*
X173059575Y-70059000D01*
X173309575Y-70309000D02*
X172809575Y-70309000D01*
X167903800Y-69118000D02*
X167903800Y-68550000D01*
X167943800Y-69352000D02*
X167943800Y-68316000D01*
X167983800Y-69511000D02*
X167983800Y-68157000D01*
X168023800Y-69639000D02*
X168023800Y-68029000D01*
X168063800Y-69749000D02*
X168063800Y-67919000D01*
X168103800Y-69845000D02*
X168103800Y-67823000D01*
X168143800Y-69932000D02*
X168143800Y-67736000D01*
X168183800Y-70012000D02*
X168183800Y-67656000D01*
X168223800Y-67794000D02*
X168223800Y-67583000D01*
X168223800Y-70085000D02*
X168223800Y-69874000D01*
X168263800Y-67794000D02*
X168263800Y-67515000D01*
X168263800Y-70153000D02*
X168263800Y-69874000D01*
X168303800Y-67794000D02*
X168303800Y-67451000D01*
X168303800Y-70217000D02*
X168303800Y-69874000D01*
X168343800Y-67794000D02*
X168343800Y-67391000D01*
X168343800Y-70277000D02*
X168343800Y-69874000D01*
X168383800Y-67794000D02*
X168383800Y-67334000D01*
X168383800Y-70334000D02*
X168383800Y-69874000D01*
X168423800Y-67794000D02*
X168423800Y-67280000D01*
X168423800Y-70388000D02*
X168423800Y-69874000D01*
X168463800Y-67794000D02*
X168463800Y-67229000D01*
X168463800Y-70439000D02*
X168463800Y-69874000D01*
X168503800Y-67794000D02*
X168503800Y-67181000D01*
X168503800Y-70487000D02*
X168503800Y-69874000D01*
X168543800Y-67794000D02*
X168543800Y-67135000D01*
X168543800Y-70533000D02*
X168543800Y-69874000D01*
X168583800Y-67794000D02*
X168583800Y-67091000D01*
X168583800Y-70577000D02*
X168583800Y-69874000D01*
X168623800Y-67794000D02*
X168623800Y-67049000D01*
X168623800Y-70619000D02*
X168623800Y-69874000D01*
X168663800Y-67794000D02*
X168663800Y-67008000D01*
X168663800Y-70660000D02*
X168663800Y-69874000D01*
X168703800Y-67794000D02*
X168703800Y-66970000D01*
X168703800Y-70698000D02*
X168703800Y-69874000D01*
X168743800Y-67794000D02*
X168743800Y-66933000D01*
X168743800Y-70735000D02*
X168743800Y-69874000D01*
X168783800Y-67794000D02*
X168783800Y-66897000D01*
X168783800Y-70771000D02*
X168783800Y-69874000D01*
X168823800Y-67794000D02*
X168823800Y-66863000D01*
X168823800Y-70805000D02*
X168823800Y-69874000D01*
X168863800Y-67794000D02*
X168863800Y-66830000D01*
X168863800Y-70838000D02*
X168863800Y-69874000D01*
X168903800Y-67794000D02*
X168903800Y-66799000D01*
X168903800Y-70869000D02*
X168903800Y-69874000D01*
X168943800Y-67794000D02*
X168943800Y-66769000D01*
X168943800Y-70899000D02*
X168943800Y-69874000D01*
X168983800Y-67794000D02*
X168983800Y-66739000D01*
X168983800Y-70929000D02*
X168983800Y-69874000D01*
X169023800Y-67794000D02*
X169023800Y-66712000D01*
X169023800Y-70956000D02*
X169023800Y-69874000D01*
X169063800Y-67794000D02*
X169063800Y-66685000D01*
X169063800Y-70983000D02*
X169063800Y-69874000D01*
X169103800Y-67794000D02*
X169103800Y-66659000D01*
X169103800Y-71009000D02*
X169103800Y-69874000D01*
X169143800Y-67794000D02*
X169143800Y-66634000D01*
X169143800Y-71034000D02*
X169143800Y-69874000D01*
X169183800Y-67794000D02*
X169183800Y-66610000D01*
X169183800Y-71058000D02*
X169183800Y-69874000D01*
X169223800Y-67794000D02*
X169223800Y-66587000D01*
X169223800Y-71081000D02*
X169223800Y-69874000D01*
X169263800Y-67794000D02*
X169263800Y-66566000D01*
X169263800Y-71102000D02*
X169263800Y-69874000D01*
X169303800Y-67794000D02*
X169303800Y-66544000D01*
X169303800Y-71124000D02*
X169303800Y-69874000D01*
X169343800Y-67794000D02*
X169343800Y-66524000D01*
X169343800Y-71144000D02*
X169343800Y-69874000D01*
X169383800Y-67794000D02*
X169383800Y-66505000D01*
X169383800Y-71163000D02*
X169383800Y-69874000D01*
X169423800Y-67794000D02*
X169423800Y-66486000D01*
X169423800Y-71182000D02*
X169423800Y-69874000D01*
X169463800Y-67794000D02*
X169463800Y-66469000D01*
X169463800Y-71199000D02*
X169463800Y-69874000D01*
X169503800Y-67794000D02*
X169503800Y-66452000D01*
X169503800Y-71216000D02*
X169503800Y-69874000D01*
X169543800Y-67794000D02*
X169543800Y-66436000D01*
X169543800Y-71232000D02*
X169543800Y-69874000D01*
X169583800Y-67794000D02*
X169583800Y-66420000D01*
X169583800Y-71248000D02*
X169583800Y-69874000D01*
X169623800Y-67794000D02*
X169623800Y-66406000D01*
X169623800Y-71262000D02*
X169623800Y-69874000D01*
X169663800Y-67794000D02*
X169663800Y-66392000D01*
X169663800Y-71276000D02*
X169663800Y-69874000D01*
X169703800Y-67794000D02*
X169703800Y-66379000D01*
X169703800Y-71289000D02*
X169703800Y-69874000D01*
X169743800Y-67794000D02*
X169743800Y-66366000D01*
X169743800Y-71302000D02*
X169743800Y-69874000D01*
X169783800Y-67794000D02*
X169783800Y-66354000D01*
X169783800Y-71314000D02*
X169783800Y-69874000D01*
X169824800Y-67794000D02*
X169824800Y-66343000D01*
X169824800Y-71325000D02*
X169824800Y-69874000D01*
X169864800Y-67794000D02*
X169864800Y-66333000D01*
X169864800Y-71335000D02*
X169864800Y-69874000D01*
X169904800Y-67794000D02*
X169904800Y-66323000D01*
X169904800Y-71345000D02*
X169904800Y-69874000D01*
X169944800Y-67794000D02*
X169944800Y-66314000D01*
X169944800Y-71354000D02*
X169944800Y-69874000D01*
X169984800Y-67794000D02*
X169984800Y-66306000D01*
X169984800Y-71362000D02*
X169984800Y-69874000D01*
X170024800Y-67794000D02*
X170024800Y-66298000D01*
X170024800Y-71370000D02*
X170024800Y-69874000D01*
X170064800Y-67794000D02*
X170064800Y-66291000D01*
X170064800Y-71377000D02*
X170064800Y-69874000D01*
X170104800Y-67794000D02*
X170104800Y-66284000D01*
X170104800Y-71384000D02*
X170104800Y-69874000D01*
X170144800Y-67794000D02*
X170144800Y-66278000D01*
X170144800Y-71390000D02*
X170144800Y-69874000D01*
X170184800Y-67794000D02*
X170184800Y-66273000D01*
X170184800Y-71395000D02*
X170184800Y-69874000D01*
X170224800Y-67794000D02*
X170224800Y-66269000D01*
X170224800Y-71399000D02*
X170224800Y-69874000D01*
X170264800Y-67794000D02*
X170264800Y-66265000D01*
X170264800Y-71403000D02*
X170264800Y-69874000D01*
X170304800Y-71407000D02*
X170304800Y-66261000D01*
X170344800Y-71410000D02*
X170344800Y-66258000D01*
X170384800Y-71412000D02*
X170384800Y-66256000D01*
X170424800Y-71413000D02*
X170424800Y-66255000D01*
X170464800Y-71414000D02*
X170464800Y-66254000D01*
X170504800Y-71414000D02*
X170504800Y-66254000D01*
X173124800Y-68834000D02*
G75*
G03*
X173124800Y-68834000I-2620000J0D01*
G01*
X189970000Y-123135000D02*
X193570000Y-123135000D01*
X193608478Y-123123478D02*
G75*
G03*
X191770000Y-118685000I-1838478J1838478D01*
G01*
X189931522Y-123123478D02*
G75*
G02*
X191770000Y-118685000I1838478J1838478D01*
G01*
X186535940Y-122790360D02*
X186535940Y-119190360D01*
X186524418Y-122828838D02*
G75*
G02*
X182085940Y-120990360I-1838478J1838478D01*
G01*
X186524418Y-119151882D02*
G75*
G03*
X182085940Y-120990360I-1838478J-1838478D01*
G01*
X130070000Y-118990500D02*
X126470000Y-118990500D01*
X126431522Y-119002022D02*
G75*
G03*
X128270000Y-123440500I1838478J-1838478D01*
G01*
X130108478Y-119002022D02*
G75*
G02*
X128270000Y-123440500I-1838478J-1838478D01*
G01*
X133862200Y-119662800D02*
X133862200Y-123262800D01*
X133873722Y-119624322D02*
G75*
G02*
X138312200Y-121462800I1838478J-1838478D01*
G01*
X133873722Y-123301278D02*
G75*
G03*
X138312200Y-121462800I1838478J1838478D01*
G01*
D12*
X194769200Y-69369200D02*
X201369200Y-69369200D01*
X201369200Y-56669200D02*
X194769200Y-56669200D01*
X201369200Y-56669200D02*
X201369200Y-69369200D01*
X194769200Y-56669200D02*
X194769200Y-69369200D01*
X144591016Y-59385200D02*
G75*
G03*
X144591016Y-59385200I-4535416J0D01*
G01*
D11*
X176131136Y-67771600D02*
X177335264Y-67771600D01*
X176131136Y-69591600D02*
X177335264Y-69591600D01*
X127885700Y-62853200D02*
X132385700Y-62853200D01*
X126635700Y-58853200D02*
X126635700Y-60353200D01*
X132385700Y-56353200D02*
X127885700Y-56353200D01*
X133635700Y-60353200D02*
X133635700Y-58853200D01*
X181226800Y-57588800D02*
X179726800Y-57588800D01*
X179726800Y-57588800D02*
X179726800Y-59398800D01*
X179726800Y-59398800D02*
X174601800Y-59398800D01*
X181226800Y-67988800D02*
X179726800Y-67988800D01*
X179726800Y-67988800D02*
X179726800Y-66178800D01*
X179726800Y-66178800D02*
X178626800Y-66178800D01*
X127535000Y-113760000D02*
X130275000Y-113760000D01*
X130275000Y-113760000D02*
X130275000Y-107220000D01*
X130275000Y-107220000D02*
X127535000Y-107220000D01*
X127535000Y-107220000D02*
X127535000Y-113760000D01*
X128905000Y-114530000D02*
X128905000Y-113760000D01*
X128905000Y-106450000D02*
X128905000Y-107220000D01*
X186155000Y-107220000D02*
X183415000Y-107220000D01*
X183415000Y-107220000D02*
X183415000Y-113760000D01*
X183415000Y-113760000D02*
X186155000Y-113760000D01*
X186155000Y-113760000D02*
X186155000Y-107220000D01*
X184785000Y-106450000D02*
X184785000Y-107220000D01*
X184785000Y-114530000D02*
X184785000Y-113760000D01*
X135255000Y-114530000D02*
X135255000Y-113760000D01*
X135255000Y-106450000D02*
X135255000Y-107220000D01*
X136625000Y-113760000D02*
X136625000Y-107220000D01*
X133885000Y-113760000D02*
X136625000Y-113760000D01*
X133885000Y-107220000D02*
X133885000Y-113760000D01*
X136625000Y-107220000D02*
X133885000Y-107220000D01*
X136930000Y-130810000D02*
X137700000Y-130810000D01*
X145010000Y-130810000D02*
X144240000Y-130810000D01*
X137700000Y-132180000D02*
X144240000Y-132180000D01*
X137700000Y-129440000D02*
X137700000Y-132180000D01*
X144240000Y-129440000D02*
X137700000Y-129440000D01*
X144240000Y-132180000D02*
X144240000Y-129440000D01*
X132080000Y-114530000D02*
X132080000Y-113760000D01*
X132080000Y-106450000D02*
X132080000Y-107220000D01*
X133450000Y-113760000D02*
X133450000Y-107220000D01*
X130710000Y-113760000D02*
X133450000Y-113760000D01*
X130710000Y-107220000D02*
X130710000Y-113760000D01*
X133450000Y-107220000D02*
X130710000Y-107220000D01*
X176054000Y-129440000D02*
X176054000Y-132180000D01*
X176054000Y-132180000D02*
X182594000Y-132180000D01*
X182594000Y-132180000D02*
X182594000Y-129440000D01*
X182594000Y-129440000D02*
X176054000Y-129440000D01*
X175284000Y-130810000D02*
X176054000Y-130810000D01*
X183364000Y-130810000D02*
X182594000Y-130810000D01*
X162584000Y-130810000D02*
X163354000Y-130810000D01*
X170664000Y-130810000D02*
X169894000Y-130810000D01*
X163354000Y-132180000D02*
X169894000Y-132180000D01*
X163354000Y-129440000D02*
X163354000Y-132180000D01*
X169894000Y-129440000D02*
X163354000Y-129440000D01*
X169894000Y-132180000D02*
X169894000Y-129440000D01*
X189765000Y-113760000D02*
X192505000Y-113760000D01*
X192505000Y-113760000D02*
X192505000Y-107220000D01*
X192505000Y-107220000D02*
X189765000Y-107220000D01*
X189765000Y-107220000D02*
X189765000Y-113760000D01*
X191135000Y-114530000D02*
X191135000Y-113760000D01*
X191135000Y-106450000D02*
X191135000Y-107220000D01*
X127100000Y-107220000D02*
X124360000Y-107220000D01*
X124360000Y-107220000D02*
X124360000Y-113760000D01*
X124360000Y-113760000D02*
X127100000Y-113760000D01*
X127100000Y-113760000D02*
X127100000Y-107220000D01*
X125730000Y-106450000D02*
X125730000Y-107220000D01*
X125730000Y-114530000D02*
X125730000Y-113760000D01*
X195680000Y-107220000D02*
X192940000Y-107220000D01*
X192940000Y-107220000D02*
X192940000Y-113760000D01*
X192940000Y-113760000D02*
X195680000Y-113760000D01*
X195680000Y-113760000D02*
X195680000Y-107220000D01*
X194310000Y-106450000D02*
X194310000Y-107220000D01*
X194310000Y-114530000D02*
X194310000Y-113760000D01*
X187960000Y-114530000D02*
X187960000Y-113760000D01*
X187960000Y-106450000D02*
X187960000Y-107220000D01*
X189330000Y-113760000D02*
X189330000Y-107220000D01*
X186590000Y-113760000D02*
X189330000Y-113760000D01*
X186590000Y-107220000D02*
X186590000Y-113760000D01*
X189330000Y-107220000D02*
X186590000Y-107220000D01*
X150400000Y-129440000D02*
X150400000Y-132180000D01*
X150400000Y-132180000D02*
X156940000Y-132180000D01*
X156940000Y-132180000D02*
X156940000Y-129440000D01*
X156940000Y-129440000D02*
X150400000Y-129440000D01*
X149630000Y-130810000D02*
X150400000Y-130810000D01*
X157710000Y-130810000D02*
X156940000Y-130810000D01*
X126887800Y-130673800D02*
X126887800Y-134533800D01*
X130007800Y-130673800D02*
X130007800Y-134533800D01*
X126887800Y-130673800D02*
X130007800Y-130673800D01*
X130407800Y-130673800D02*
X130407800Y-131793800D01*
X130407800Y-131793800D02*
X130007800Y-131793800D01*
X130007800Y-131793800D02*
X130007800Y-130673800D01*
X130007800Y-130673800D02*
X130407800Y-130673800D01*
X127177800Y-128003800D02*
X127177800Y-130673800D01*
X127177800Y-130673800D02*
X127177800Y-130673800D01*
X127177800Y-130673800D02*
X127177800Y-128003800D01*
X127177800Y-128003800D02*
X127177800Y-128003800D01*
X129717800Y-128003800D02*
X129717800Y-130673800D01*
X129717800Y-130673800D02*
X129717800Y-130673800D01*
X129717800Y-130673800D02*
X129717800Y-128003800D01*
X129717800Y-128003800D02*
X129717800Y-128003800D01*
X130007800Y-134533800D02*
G75*
G02*
X126887800Y-134533800I-1560000J0D01*
G01*
X198475600Y-122238000D02*
X198475600Y-122238000D01*
X198475600Y-124908000D02*
X198475600Y-122238000D01*
X198475600Y-124908000D02*
X198475600Y-124908000D01*
X198475600Y-122238000D02*
X198475600Y-124908000D01*
X195935600Y-122238000D02*
X195935600Y-122238000D01*
X195935600Y-124908000D02*
X195935600Y-122238000D01*
X195935600Y-124908000D02*
X195935600Y-124908000D01*
X195935600Y-122238000D02*
X195935600Y-124908000D01*
X198765600Y-124908000D02*
X199165600Y-124908000D01*
X198765600Y-126028000D02*
X198765600Y-124908000D01*
X199165600Y-126028000D02*
X198765600Y-126028000D01*
X199165600Y-124908000D02*
X199165600Y-126028000D01*
X195645600Y-124908000D02*
X198765600Y-124908000D01*
X198765600Y-124908000D02*
X198765600Y-128768000D01*
X195645600Y-124908000D02*
X195645600Y-128768000D01*
X198765600Y-128768000D02*
G75*
G02*
X195645600Y-128768000I-1560000J0D01*
G01*
X171822672Y-140220159D02*
X171822672Y-140220159D01*
X174212147Y-141411509D02*
X171822672Y-140220159D01*
X174212147Y-141411509D02*
X174212147Y-141411509D01*
X171822672Y-140220159D02*
X174212147Y-141411509D01*
X170689329Y-142493294D02*
X170689329Y-142493294D01*
X173078804Y-143684642D02*
X170689329Y-142493294D01*
X173078804Y-143684642D02*
X173078804Y-143684642D01*
X170689329Y-142493294D02*
X173078804Y-143684642D01*
X174341544Y-141151978D02*
X174520023Y-140794004D01*
X175343870Y-141651719D02*
X174341544Y-141151978D01*
X175522349Y-141293745D02*
X175343870Y-141651719D01*
X174520023Y-140794004D02*
X175522349Y-141293745D01*
X172949406Y-143944173D02*
X174341544Y-141151978D01*
X174341544Y-141151978D02*
X177795990Y-142874301D01*
X172949406Y-143944173D02*
X176403853Y-145666496D01*
X177795991Y-142874302D02*
G75*
G02*
X176403853Y-145666496I-696069J-1396097D01*
G01*
X172110400Y-74990000D02*
X172110400Y-72330000D01*
X172110400Y-74990000D02*
X174710400Y-74990000D01*
X174710400Y-74990000D02*
X174710400Y-72330000D01*
X172110400Y-72330000D02*
X174710400Y-72330000D01*
X169510400Y-72330000D02*
X170840400Y-72330000D01*
X169510400Y-73660000D02*
X169510400Y-72330000D01*
X165126206Y-146509573D02*
X168580653Y-148231896D01*
X166518344Y-143717378D02*
X169972790Y-145439701D01*
X165126206Y-146509573D02*
X166518344Y-143717378D01*
X166696823Y-143359404D02*
X167699149Y-143859145D01*
X167699149Y-143859145D02*
X167520670Y-144217119D01*
X167520670Y-144217119D02*
X166518344Y-143717378D01*
X166518344Y-143717378D02*
X166696823Y-143359404D01*
X162866129Y-145058694D02*
X165255604Y-146250042D01*
X165255604Y-146250042D02*
X165255604Y-146250042D01*
X165255604Y-146250042D02*
X162866129Y-145058694D01*
X162866129Y-145058694D02*
X162866129Y-145058694D01*
X163999472Y-142785559D02*
X166388947Y-143976909D01*
X166388947Y-143976909D02*
X166388947Y-143976909D01*
X166388947Y-143976909D02*
X163999472Y-142785559D01*
X163999472Y-142785559D02*
X163999472Y-142785559D01*
X169972791Y-145439702D02*
G75*
G02*
X168580653Y-148231896I-696069J-1396097D01*
G01*
X124218700Y-122111000D02*
X124218700Y-122111000D01*
X124218700Y-124781000D02*
X124218700Y-122111000D01*
X124218700Y-124781000D02*
X124218700Y-124781000D01*
X124218700Y-122111000D02*
X124218700Y-124781000D01*
X121678700Y-122111000D02*
X121678700Y-122111000D01*
X121678700Y-124781000D02*
X121678700Y-122111000D01*
X121678700Y-124781000D02*
X121678700Y-124781000D01*
X121678700Y-122111000D02*
X121678700Y-124781000D01*
X124508700Y-124781000D02*
X124908700Y-124781000D01*
X124508700Y-125901000D02*
X124508700Y-124781000D01*
X124908700Y-125901000D02*
X124508700Y-125901000D01*
X124908700Y-124781000D02*
X124908700Y-125901000D01*
X121388700Y-124781000D02*
X124508700Y-124781000D01*
X124508700Y-124781000D02*
X124508700Y-128641000D01*
X121388700Y-124781000D02*
X121388700Y-128641000D01*
X124508700Y-128641000D02*
G75*
G02*
X121388700Y-128641000I-1560000J0D01*
G01*
X153597857Y-143717378D02*
X150143410Y-145439701D01*
X154989994Y-146509573D02*
X151535547Y-148231897D01*
X153597857Y-143717378D02*
X154989994Y-146509573D01*
X155168473Y-146867547D02*
X154166147Y-147367288D01*
X154166147Y-147367288D02*
X153987667Y-147009315D01*
X153987667Y-147009315D02*
X154989994Y-146509573D01*
X154989994Y-146509573D02*
X155168473Y-146867547D01*
X156116729Y-142785561D02*
X153727254Y-143976909D01*
X153727254Y-143976909D02*
X153727254Y-143976909D01*
X153727254Y-143976909D02*
X156116729Y-142785561D01*
X156116729Y-142785561D02*
X156116729Y-142785561D01*
X157250071Y-145058694D02*
X154860597Y-146250042D01*
X154860597Y-146250042D02*
X154860597Y-146250042D01*
X154860597Y-146250042D02*
X157250071Y-145058694D01*
X157250071Y-145058694D02*
X157250071Y-145058694D01*
X151535548Y-148231897D02*
G75*
G02*
X150143410Y-145439701I-696069J1396098D01*
G01*
X190159200Y-130800800D02*
X190159200Y-134660800D01*
X193279200Y-130800800D02*
X193279200Y-134660800D01*
X190159200Y-130800800D02*
X193279200Y-130800800D01*
X193679200Y-130800800D02*
X193679200Y-131920800D01*
X193679200Y-131920800D02*
X193279200Y-131920800D01*
X193279200Y-131920800D02*
X193279200Y-130800800D01*
X193279200Y-130800800D02*
X193679200Y-130800800D01*
X190449200Y-128130800D02*
X190449200Y-130800800D01*
X190449200Y-130800800D02*
X190449200Y-130800800D01*
X190449200Y-130800800D02*
X190449200Y-128130800D01*
X190449200Y-128130800D02*
X190449200Y-128130800D01*
X192989200Y-128130800D02*
X192989200Y-130800800D01*
X192989200Y-130800800D02*
X192989200Y-130800800D01*
X192989200Y-130800800D02*
X192989200Y-128130800D01*
X192989200Y-128130800D02*
X192989200Y-128130800D01*
X193279200Y-134660800D02*
G75*
G02*
X190159200Y-134660800I-1560000J0D01*
G01*
X149452271Y-142493294D02*
X149452271Y-142493294D01*
X147062797Y-143684642D02*
X149452271Y-142493294D01*
X147062797Y-143684642D02*
X147062797Y-143684642D01*
X149452271Y-142493294D02*
X147062797Y-143684642D01*
X148318929Y-140220161D02*
X148318929Y-140220161D01*
X145929454Y-141411509D02*
X148318929Y-140220161D01*
X145929454Y-141411509D02*
X145929454Y-141411509D01*
X148318929Y-140220161D02*
X145929454Y-141411509D01*
X147192193Y-143944173D02*
X147370673Y-144302147D01*
X146189867Y-144443915D02*
X147192193Y-143944173D01*
X146368347Y-144801888D02*
X146189867Y-144443915D01*
X147370673Y-144302147D02*
X146368347Y-144801888D01*
X145800058Y-141151977D02*
X147192193Y-143944173D01*
X147192193Y-143944173D02*
X143737747Y-145666497D01*
X145800058Y-141151977D02*
X142345609Y-142874302D01*
X143737749Y-145666496D02*
G75*
G02*
X142345609Y-142874302I-696070J1396097D01*
G01*
D13*
X158843980Y-73324720D02*
X158843980Y-67482720D01*
X139133580Y-67482720D02*
X139133580Y-70098920D01*
X139133580Y-70098920D02*
X139133580Y-70708520D01*
X139133580Y-70708520D02*
X139133580Y-72892920D01*
D10*
X139133580Y-70098920D02*
G75*
G02*
X139133580Y-70708520I0J-304800D01*
G01*
D12*
X127623000Y-94774400D02*
X139123000Y-94774400D01*
X127623000Y-79774400D02*
X139123000Y-79774400D01*
X139123000Y-87274400D02*
X139123000Y-79774400D01*
X139123000Y-87274400D02*
X139123000Y-94774400D01*
X127623000Y-100574400D02*
X136123000Y-100574400D01*
X127623000Y-73974400D02*
X136123000Y-73974400D01*
X127623000Y-87274400D02*
X127623000Y-73974400D01*
X127623000Y-87274400D02*
X127623000Y-100574400D01*
X136123000Y-81274400D02*
X136123000Y-73974400D01*
X136123000Y-93274400D02*
X136123000Y-100574400D01*
X112623000Y-73274400D02*
X112623000Y-101274400D01*
X126423000Y-101274400D02*
X112623000Y-101274400D01*
X126423000Y-73274400D02*
X112623000Y-73274400D01*
X126423000Y-87274400D02*
X126423000Y-101274400D01*
X126423000Y-87274400D02*
X126423000Y-73274400D01*
X117623000Y-85774400D02*
X117623000Y-88774400D01*
X127623000Y-88774400D02*
X117623000Y-88774400D01*
X127623000Y-85774400D02*
X117623000Y-85774400D01*
X127623000Y-93274400D02*
X127623000Y-88774400D01*
X127623000Y-81274400D02*
X127623000Y-85774400D01*
X158623000Y-93274400D02*
X127623000Y-93274400D01*
X158623000Y-81274400D02*
X127623000Y-81274400D01*
X158623000Y-87274400D02*
X158623000Y-81274400D01*
X158623000Y-87274400D02*
X158623000Y-93274400D01*
X192290000Y-79774400D02*
X180790000Y-79774400D01*
X192290000Y-94774400D02*
X180790000Y-94774400D01*
X180790000Y-87274400D02*
X180790000Y-94774400D01*
X180790000Y-87274400D02*
X180790000Y-79774400D01*
X192290000Y-73974400D02*
X183790000Y-73974400D01*
X192290000Y-100574400D02*
X183790000Y-100574400D01*
X192290000Y-87274400D02*
X192290000Y-100574400D01*
X192290000Y-87274400D02*
X192290000Y-73974400D01*
X183790000Y-93274400D02*
X183790000Y-100574400D01*
X183790000Y-81274400D02*
X183790000Y-73974400D01*
X207290000Y-101274400D02*
X207290000Y-73274400D01*
X193490000Y-73274400D02*
X207290000Y-73274400D01*
X193490000Y-101274400D02*
X207290000Y-101274400D01*
X193490000Y-87274400D02*
X193490000Y-73274400D01*
X193490000Y-87274400D02*
X193490000Y-101274400D01*
X202290000Y-88774400D02*
X202290000Y-85774400D01*
X192290000Y-85774400D02*
X202290000Y-85774400D01*
X192290000Y-88774400D02*
X202290000Y-88774400D01*
X192290000Y-81274400D02*
X192290000Y-85774400D01*
X192290000Y-93274400D02*
X192290000Y-88774400D01*
X161290000Y-81274400D02*
X192290000Y-81274400D01*
X161290000Y-93274400D02*
X192290000Y-93274400D01*
X161290000Y-87274400D02*
X161290000Y-93274400D01*
X161290000Y-87274400D02*
X161290000Y-81274400D01*
D11*
X179899000Y-73723500D02*
X182559000Y-73723500D01*
X179899000Y-73723500D02*
X179899000Y-76323500D01*
X179899000Y-76323500D02*
X182559000Y-76323500D01*
X182559000Y-73723500D02*
X182559000Y-76323500D01*
X182559000Y-71123500D02*
X182559000Y-72453500D01*
X181229000Y-71123500D02*
X182559000Y-71123500D01*
X178715240Y-78038960D02*
X178715240Y-79098960D01*
X178715240Y-79098960D02*
X177655240Y-79098960D01*
X176655240Y-79098960D02*
X166595240Y-79098960D01*
X166595240Y-76978960D02*
X166595240Y-79098960D01*
X176655240Y-76978960D02*
X166595240Y-76978960D01*
X176655240Y-76978960D02*
X176655240Y-79098960D01*
X143595600Y-78961800D02*
X143595600Y-76841800D01*
X143595600Y-78961800D02*
X153655600Y-78961800D01*
X153655600Y-78961800D02*
X153655600Y-76841800D01*
X143595600Y-76841800D02*
X153655600Y-76841800D01*
X141535600Y-76841800D02*
X142595600Y-76841800D01*
X141535600Y-77901800D02*
X141535600Y-76841800D01*
X194051600Y-59392736D02*
X194051600Y-60596864D01*
X192231600Y-59392736D02*
X192231600Y-60596864D01*
X122792800Y-119236800D02*
X121462800Y-119236800D01*
X122792800Y-117906800D02*
X122792800Y-119236800D01*
X122792800Y-116636800D02*
X120132800Y-116636800D01*
X120132800Y-116636800D02*
X120132800Y-103876800D01*
X122792800Y-116636800D02*
X122792800Y-103876800D01*
X122792800Y-103876800D02*
X120132800Y-103876800D01*
D10*
G36*
X164211000Y-119873000D02*
G01*
X163957000Y-120127000D01*
X163703000Y-119746000D01*
X163957000Y-119492000D01*
X164211000Y-119873000D01*
G37*
X164211000Y-119873000D02*
X163957000Y-120127000D01*
X163703000Y-119746000D01*
X163957000Y-119492000D01*
X164211000Y-119873000D01*
G36*
X163830000Y-120254000D02*
G01*
X163576000Y-120508000D01*
X163322000Y-120127000D01*
X163576000Y-119873000D01*
X163830000Y-120254000D01*
G37*
X163830000Y-120254000D02*
X163576000Y-120508000D01*
X163322000Y-120127000D01*
X163576000Y-119873000D01*
X163830000Y-120254000D01*
G36*
X161925000Y-119492000D02*
G01*
X161671000Y-119746000D01*
X161417000Y-119365000D01*
X161671000Y-119111000D01*
X161925000Y-119492000D01*
G37*
X161925000Y-119492000D02*
X161671000Y-119746000D01*
X161417000Y-119365000D01*
X161671000Y-119111000D01*
X161925000Y-119492000D01*
G36*
X162306000Y-120000000D02*
G01*
X162052000Y-120254000D01*
X161798000Y-119873000D01*
X162052000Y-119619000D01*
X162306000Y-120000000D01*
G37*
X162306000Y-120000000D02*
X162052000Y-120254000D01*
X161798000Y-119873000D01*
X162052000Y-119619000D01*
X162306000Y-120000000D01*
G36*
X162687000Y-120508000D02*
G01*
X162433000Y-120762000D01*
X162179000Y-120381000D01*
X162433000Y-120127000D01*
X162687000Y-120508000D01*
G37*
X162687000Y-120508000D02*
X162433000Y-120762000D01*
X162179000Y-120381000D01*
X162433000Y-120127000D01*
X162687000Y-120508000D01*
G36*
X162687000Y-119619000D02*
G01*
X162433000Y-119873000D01*
X162179000Y-119492000D01*
X162433000Y-119238000D01*
X162687000Y-119619000D01*
G37*
X162687000Y-119619000D02*
X162433000Y-119873000D01*
X162179000Y-119492000D01*
X162433000Y-119238000D01*
X162687000Y-119619000D01*
G36*
X163068000Y-120127000D02*
G01*
X162814000Y-120381000D01*
X162560000Y-120000000D01*
X162814000Y-119746000D01*
X163068000Y-120127000D01*
G37*
X163068000Y-120127000D02*
X162814000Y-120381000D01*
X162560000Y-120000000D01*
X162814000Y-119746000D01*
X163068000Y-120127000D01*
G36*
X163449000Y-120635000D02*
G01*
X163195000Y-120889000D01*
X162941000Y-120508000D01*
X163195000Y-120254000D01*
X163449000Y-120635000D01*
G37*
X163449000Y-120635000D02*
X163195000Y-120889000D01*
X162941000Y-120508000D01*
X163195000Y-120254000D01*
X163449000Y-120635000D01*
D12*
X155194000Y-121905000D02*
X155194000Y-125080000D01*
X152654000Y-121905000D02*
X155194000Y-121905000D01*
X152654000Y-125080000D02*
X152654000Y-121905000D01*
X155194000Y-125080000D02*
X152654000Y-125080000D01*
X178054000Y-111110000D02*
X178054000Y-128890000D01*
X142494000Y-111110000D02*
X178054000Y-111110000D01*
X142494000Y-128890000D02*
X142494000Y-111110000D01*
X178054000Y-128890000D02*
X142494000Y-128890000D01*
X155829000Y-114920000D02*
X165989000Y-114920000D01*
X155829000Y-125080000D02*
X165989000Y-125080000D01*
X165989000Y-125080000D02*
X165989000Y-114920000D01*
X155829000Y-114920000D02*
X155829000Y-125080000D01*
X150114000Y-121270000D02*
X145542000Y-121270000D01*
X150114000Y-118730000D02*
X150114000Y-121270000D01*
X145542000Y-118730000D02*
X150114000Y-118730000D01*
X145542000Y-121270000D02*
X145542000Y-118730000D01*
X172974000Y-116190000D02*
X178054000Y-116190000D01*
X172974000Y-123810000D02*
X178054000Y-123810000D01*
X172974000Y-116190000D02*
X172974000Y-123810000D01*
X179324000Y-123810000D02*
X178054000Y-123810000D01*
X179324000Y-116190000D02*
X179324000Y-123810000D01*
X178054000Y-116190000D02*
X179324000Y-116190000D01*
D11*
X169427200Y-122488000D02*
X168097200Y-122488000D01*
X169427200Y-121158000D02*
X169427200Y-122488000D01*
X169427200Y-119888000D02*
X166767200Y-119888000D01*
X166767200Y-119888000D02*
X166767200Y-117288000D01*
X169427200Y-119888000D02*
X169427200Y-117288000D01*
X169427200Y-117288000D02*
X166767200Y-117288000D01*
X163526800Y-77844400D02*
X166266800Y-77844400D01*
X166266800Y-77844400D02*
X166266800Y-71304400D01*
X166266800Y-71304400D02*
X163526800Y-71304400D01*
X163526800Y-71304400D02*
X163526800Y-77844400D01*
X164896800Y-78614400D02*
X164896800Y-77844400D01*
X164896800Y-70534400D02*
X164896800Y-71304400D01*
X164896800Y-58037600D02*
X164896800Y-58807600D01*
X164896800Y-66117600D02*
X164896800Y-65347600D01*
X163526800Y-58807600D02*
X163526800Y-65347600D01*
X166266800Y-58807600D02*
X163526800Y-58807600D01*
X166266800Y-65347600D02*
X166266800Y-58807600D01*
X163526800Y-65347600D02*
X166266800Y-65347600D01*
X152167200Y-60524800D02*
X152167200Y-56924800D01*
X152155678Y-60563278D02*
G75*
G02*
X147717200Y-58724800I-1838478J1838478D01*
G01*
X152155678Y-56886322D02*
G75*
G03*
X147717200Y-58724800I-1838478J-1838478D01*
G01*
X127885700Y-70524000D02*
X132385700Y-70524000D01*
X126635700Y-66524000D02*
X126635700Y-68024000D01*
X132385700Y-64024000D02*
X127885700Y-64024000D01*
X133635700Y-68024000D02*
X133635700Y-66524000D01*
X137410500Y-133036000D02*
X134750500Y-133036000D01*
X137410500Y-135636000D02*
X137410500Y-133036000D01*
X134750500Y-135636000D02*
X134750500Y-133036000D01*
X137410500Y-135636000D02*
X134750500Y-135636000D01*
X137410500Y-136906000D02*
X137410500Y-138236000D01*
X137410500Y-138236000D02*
X136080500Y-138236000D01*
D10*
X120463500Y-66802000D02*
G75*
G03*
X120463500Y-66802000I-50000J0D01*
G01*
X120463500Y-57912000D02*
G75*
G03*
X120463500Y-57912000I-50000J0D01*
G01*
X120463500Y-62230000D02*
G75*
G03*
X120463500Y-62230000I-50000J0D01*
G01*
D12*
X160117142Y-78144666D02*
X160164761Y-78192285D01*
X160212380Y-78335142D01*
X160212380Y-78430380D01*
X160164761Y-78573238D01*
X160069523Y-78668476D01*
X159974285Y-78716095D01*
X159783809Y-78763714D01*
X159640952Y-78763714D01*
X159450476Y-78716095D01*
X159355238Y-78668476D01*
X159260000Y-78573238D01*
X159212380Y-78430380D01*
X159212380Y-78335142D01*
X159260000Y-78192285D01*
X159307619Y-78144666D01*
X159545714Y-77287523D02*
X160212380Y-77287523D01*
X159164761Y-77525619D02*
X159879047Y-77763714D01*
X159879047Y-77144666D01*
X167536833Y-60237642D02*
X167489214Y-60285261D01*
X167346357Y-60332880D01*
X167251119Y-60332880D01*
X167108261Y-60285261D01*
X167013023Y-60190023D01*
X166965404Y-60094785D01*
X166917785Y-59904309D01*
X166917785Y-59761452D01*
X166965404Y-59570976D01*
X167013023Y-59475738D01*
X167108261Y-59380500D01*
X167251119Y-59332880D01*
X167346357Y-59332880D01*
X167489214Y-59380500D01*
X167536833Y-59428119D01*
X168489214Y-60332880D02*
X167917785Y-60332880D01*
X168203500Y-60332880D02*
X168203500Y-59332880D01*
X168108261Y-59475738D01*
X168013023Y-59570976D01*
X167917785Y-59618595D01*
X167473333Y-66397142D02*
X167425714Y-66444761D01*
X167282857Y-66492380D01*
X167187619Y-66492380D01*
X167044761Y-66444761D01*
X166949523Y-66349523D01*
X166901904Y-66254285D01*
X166854285Y-66063809D01*
X166854285Y-65920952D01*
X166901904Y-65730476D01*
X166949523Y-65635238D01*
X167044761Y-65540000D01*
X167187619Y-65492380D01*
X167282857Y-65492380D01*
X167425714Y-65540000D01*
X167473333Y-65587619D01*
X167806666Y-65492380D02*
X168425714Y-65492380D01*
X168092380Y-65873333D01*
X168235238Y-65873333D01*
X168330476Y-65920952D01*
X168378095Y-65968571D01*
X168425714Y-66063809D01*
X168425714Y-66301904D01*
X168378095Y-66397142D01*
X168330476Y-66444761D01*
X168235238Y-66492380D01*
X167949523Y-66492380D01*
X167854285Y-66444761D01*
X167806666Y-66397142D01*
X190754095Y-123912380D02*
X191325523Y-123912380D01*
X191039809Y-124912380D02*
X191039809Y-123912380D01*
X191849333Y-123912380D02*
X191944571Y-123912380D01*
X192039809Y-123960000D01*
X192087428Y-124007619D01*
X192135047Y-124102857D01*
X192182666Y-124293333D01*
X192182666Y-124531428D01*
X192135047Y-124721904D01*
X192087428Y-124817142D01*
X192039809Y-124864761D01*
X191944571Y-124912380D01*
X191849333Y-124912380D01*
X191754095Y-124864761D01*
X191706476Y-124817142D01*
X191658857Y-124721904D01*
X191611238Y-124531428D01*
X191611238Y-124293333D01*
X191658857Y-124102857D01*
X191706476Y-124007619D01*
X191754095Y-123960000D01*
X191849333Y-123912380D01*
X180578320Y-121752264D02*
X180578320Y-121180836D01*
X181578320Y-121466550D02*
X180578320Y-121466550D01*
X181578320Y-120323693D02*
X181578320Y-120895121D01*
X181578320Y-120609407D02*
X180578320Y-120609407D01*
X180721178Y-120704645D01*
X180816416Y-120799883D01*
X180864035Y-120895121D01*
X127508095Y-123852880D02*
X128079523Y-123852880D01*
X127793809Y-124852880D02*
X127793809Y-123852880D01*
X128365238Y-123948119D02*
X128412857Y-123900500D01*
X128508095Y-123852880D01*
X128746190Y-123852880D01*
X128841428Y-123900500D01*
X128889047Y-123948119D01*
X128936666Y-124043357D01*
X128936666Y-124138595D01*
X128889047Y-124281452D01*
X128317619Y-124852880D01*
X128936666Y-124852880D01*
X138724580Y-122224704D02*
X138724580Y-121653276D01*
X139724580Y-121938990D02*
X138724580Y-121938990D01*
X138724580Y-121415180D02*
X138724580Y-120796133D01*
X139105533Y-121129466D01*
X139105533Y-120986609D01*
X139153152Y-120891371D01*
X139200771Y-120843752D01*
X139296009Y-120796133D01*
X139534104Y-120796133D01*
X139629342Y-120843752D01*
X139676961Y-120891371D01*
X139724580Y-120986609D01*
X139724580Y-121272323D01*
X139676961Y-121367561D01*
X139629342Y-121415180D01*
X197358095Y-56221261D02*
X197500952Y-56268880D01*
X197739047Y-56268880D01*
X197834285Y-56221261D01*
X197881904Y-56173642D01*
X197929523Y-56078404D01*
X197929523Y-55983166D01*
X197881904Y-55887928D01*
X197834285Y-55840309D01*
X197739047Y-55792690D01*
X197548571Y-55745071D01*
X197453333Y-55697452D01*
X197405714Y-55649833D01*
X197358095Y-55554595D01*
X197358095Y-55459357D01*
X197405714Y-55364119D01*
X197453333Y-55316500D01*
X197548571Y-55268880D01*
X197786666Y-55268880D01*
X197929523Y-55316500D01*
X198881904Y-56268880D02*
X198310476Y-56268880D01*
X198596190Y-56268880D02*
X198596190Y-55268880D01*
X198500952Y-55411738D01*
X198405714Y-55506976D01*
X198310476Y-55554595D01*
X144026047Y-55554571D02*
X144168904Y-55602190D01*
X144216523Y-55649809D01*
X144264142Y-55745047D01*
X144264142Y-55887904D01*
X144216523Y-55983142D01*
X144168904Y-56030761D01*
X144073666Y-56078380D01*
X143692714Y-56078380D01*
X143692714Y-55078380D01*
X144026047Y-55078380D01*
X144121285Y-55126000D01*
X144168904Y-55173619D01*
X144216523Y-55268857D01*
X144216523Y-55364095D01*
X144168904Y-55459333D01*
X144121285Y-55506952D01*
X144026047Y-55554571D01*
X143692714Y-55554571D01*
X144597476Y-55078380D02*
X145264142Y-55078380D01*
X144597476Y-56078380D01*
X145264142Y-56078380D01*
X146168904Y-56078380D02*
X145597476Y-56078380D01*
X145883190Y-56078380D02*
X145883190Y-55078380D01*
X145787952Y-55221238D01*
X145692714Y-55316476D01*
X145597476Y-55364095D01*
X143073428Y-63944452D02*
X143073428Y-63182547D01*
X137040928Y-55625952D02*
X137040928Y-54864047D01*
X137421880Y-55245000D02*
X136659976Y-55245000D01*
X176553833Y-71159642D02*
X176506214Y-71207261D01*
X176363357Y-71254880D01*
X176268119Y-71254880D01*
X176125261Y-71207261D01*
X176030023Y-71112023D01*
X175982404Y-71016785D01*
X175934785Y-70826309D01*
X175934785Y-70683452D01*
X175982404Y-70492976D01*
X176030023Y-70397738D01*
X176125261Y-70302500D01*
X176268119Y-70254880D01*
X176363357Y-70254880D01*
X176506214Y-70302500D01*
X176553833Y-70350119D01*
X177030023Y-71254880D02*
X177220500Y-71254880D01*
X177315738Y-71207261D01*
X177363357Y-71159642D01*
X177458595Y-71016785D01*
X177506214Y-70826309D01*
X177506214Y-70445357D01*
X177458595Y-70350119D01*
X177410976Y-70302500D01*
X177315738Y-70254880D01*
X177125261Y-70254880D01*
X177030023Y-70302500D01*
X176982404Y-70350119D01*
X176934785Y-70445357D01*
X176934785Y-70683452D01*
X176982404Y-70778690D01*
X177030023Y-70826309D01*
X177125261Y-70873928D01*
X177315738Y-70873928D01*
X177410976Y-70826309D01*
X177458595Y-70778690D01*
X177506214Y-70683452D01*
X129373795Y-55757961D02*
X129516652Y-55805580D01*
X129754747Y-55805580D01*
X129849985Y-55757961D01*
X129897604Y-55710342D01*
X129945223Y-55615104D01*
X129945223Y-55519866D01*
X129897604Y-55424628D01*
X129849985Y-55377009D01*
X129754747Y-55329390D01*
X129564271Y-55281771D01*
X129469033Y-55234152D01*
X129421414Y-55186533D01*
X129373795Y-55091295D01*
X129373795Y-54996057D01*
X129421414Y-54900819D01*
X129469033Y-54853200D01*
X129564271Y-54805580D01*
X129802366Y-54805580D01*
X129945223Y-54853200D01*
X130326176Y-54900819D02*
X130373795Y-54853200D01*
X130469033Y-54805580D01*
X130707128Y-54805580D01*
X130802366Y-54853200D01*
X130849985Y-54900819D01*
X130897604Y-54996057D01*
X130897604Y-55091295D01*
X130849985Y-55234152D01*
X130278557Y-55805580D01*
X130897604Y-55805580D01*
X181991095Y-55586380D02*
X181991095Y-56395904D01*
X182038714Y-56491142D01*
X182086333Y-56538761D01*
X182181571Y-56586380D01*
X182372047Y-56586380D01*
X182467285Y-56538761D01*
X182514904Y-56491142D01*
X182562523Y-56395904D01*
X182562523Y-55586380D01*
X182943476Y-55586380D02*
X183562523Y-55586380D01*
X183229190Y-55967333D01*
X183372047Y-55967333D01*
X183467285Y-56014952D01*
X183514904Y-56062571D01*
X183562523Y-56157809D01*
X183562523Y-56395904D01*
X183514904Y-56491142D01*
X183467285Y-56538761D01*
X183372047Y-56586380D01*
X183086333Y-56586380D01*
X182991095Y-56538761D01*
X182943476Y-56491142D01*
X128389142Y-118054380D02*
X128055809Y-117578190D01*
X127817714Y-118054380D02*
X127817714Y-117054380D01*
X128198666Y-117054380D01*
X128293904Y-117102000D01*
X128341523Y-117149619D01*
X128389142Y-117244857D01*
X128389142Y-117387714D01*
X128341523Y-117482952D01*
X128293904Y-117530571D01*
X128198666Y-117578190D01*
X127817714Y-117578190D01*
X129341523Y-118054380D02*
X128770095Y-118054380D01*
X129055809Y-118054380D02*
X129055809Y-117054380D01*
X128960571Y-117197238D01*
X128865333Y-117292476D01*
X128770095Y-117340095D01*
X130293904Y-118054380D02*
X129722476Y-118054380D01*
X130008190Y-118054380D02*
X130008190Y-117054380D01*
X129912952Y-117197238D01*
X129817714Y-117292476D01*
X129722476Y-117340095D01*
X184491333Y-117800380D02*
X184158000Y-117324190D01*
X183919904Y-117800380D02*
X183919904Y-116800380D01*
X184300857Y-116800380D01*
X184396095Y-116848000D01*
X184443714Y-116895619D01*
X184491333Y-116990857D01*
X184491333Y-117133714D01*
X184443714Y-117228952D01*
X184396095Y-117276571D01*
X184300857Y-117324190D01*
X183919904Y-117324190D01*
X185443714Y-117800380D02*
X184872285Y-117800380D01*
X185158000Y-117800380D02*
X185158000Y-116800380D01*
X185062761Y-116943238D01*
X184967523Y-117038476D01*
X184872285Y-117086095D01*
X135215333Y-118054380D02*
X134882000Y-117578190D01*
X134643904Y-118054380D02*
X134643904Y-117054380D01*
X135024857Y-117054380D01*
X135120095Y-117102000D01*
X135167714Y-117149619D01*
X135215333Y-117244857D01*
X135215333Y-117387714D01*
X135167714Y-117482952D01*
X135120095Y-117530571D01*
X135024857Y-117578190D01*
X134643904Y-117578190D01*
X135548666Y-117054380D02*
X136167714Y-117054380D01*
X135834380Y-117435333D01*
X135977238Y-117435333D01*
X136072476Y-117482952D01*
X136120095Y-117530571D01*
X136167714Y-117625809D01*
X136167714Y-117863904D01*
X136120095Y-117959142D01*
X136072476Y-118006761D01*
X135977238Y-118054380D01*
X135691523Y-118054380D01*
X135596285Y-118006761D01*
X135548666Y-117959142D01*
X140327142Y-133632380D02*
X139993809Y-133156190D01*
X139755714Y-133632380D02*
X139755714Y-132632380D01*
X140136666Y-132632380D01*
X140231904Y-132680000D01*
X140279523Y-132727619D01*
X140327142Y-132822857D01*
X140327142Y-132965714D01*
X140279523Y-133060952D01*
X140231904Y-133108571D01*
X140136666Y-133156190D01*
X139755714Y-133156190D01*
X141279523Y-133632380D02*
X140708095Y-133632380D01*
X140993809Y-133632380D02*
X140993809Y-132632380D01*
X140898571Y-132775238D01*
X140803333Y-132870476D01*
X140708095Y-132918095D01*
X142136666Y-132632380D02*
X141946190Y-132632380D01*
X141850952Y-132680000D01*
X141803333Y-132727619D01*
X141708095Y-132870476D01*
X141660476Y-133060952D01*
X141660476Y-133441904D01*
X141708095Y-133537142D01*
X141755714Y-133584761D01*
X141850952Y-133632380D01*
X142041428Y-133632380D01*
X142136666Y-133584761D01*
X142184285Y-133537142D01*
X142231904Y-133441904D01*
X142231904Y-133203809D01*
X142184285Y-133108571D01*
X142136666Y-133060952D01*
X142041428Y-133013333D01*
X141850952Y-133013333D01*
X141755714Y-133060952D01*
X141708095Y-133108571D01*
X141660476Y-133203809D01*
X131437142Y-118054380D02*
X131103809Y-117578190D01*
X130865714Y-118054380D02*
X130865714Y-117054380D01*
X131246666Y-117054380D01*
X131341904Y-117102000D01*
X131389523Y-117149619D01*
X131437142Y-117244857D01*
X131437142Y-117387714D01*
X131389523Y-117482952D01*
X131341904Y-117530571D01*
X131246666Y-117578190D01*
X130865714Y-117578190D01*
X132389523Y-118054380D02*
X131818095Y-118054380D01*
X132103809Y-118054380D02*
X132103809Y-117054380D01*
X132008571Y-117197238D01*
X131913333Y-117292476D01*
X131818095Y-117340095D01*
X133294285Y-117054380D02*
X132818095Y-117054380D01*
X132770476Y-117530571D01*
X132818095Y-117482952D01*
X132913333Y-117435333D01*
X133151428Y-117435333D01*
X133246666Y-117482952D01*
X133294285Y-117530571D01*
X133341904Y-117625809D01*
X133341904Y-117863904D01*
X133294285Y-117959142D01*
X133246666Y-118006761D01*
X133151428Y-118054380D01*
X132913333Y-118054380D01*
X132818095Y-118006761D01*
X132770476Y-117959142D01*
X178681142Y-133548380D02*
X178347809Y-133072190D01*
X178109714Y-133548380D02*
X178109714Y-132548380D01*
X178490666Y-132548380D01*
X178585904Y-132596000D01*
X178633523Y-132643619D01*
X178681142Y-132738857D01*
X178681142Y-132881714D01*
X178633523Y-132976952D01*
X178585904Y-133024571D01*
X178490666Y-133072190D01*
X178109714Y-133072190D01*
X179633523Y-133548380D02*
X179062095Y-133548380D01*
X179347809Y-133548380D02*
X179347809Y-132548380D01*
X179252571Y-132691238D01*
X179157333Y-132786476D01*
X179062095Y-132834095D01*
X180490666Y-132881714D02*
X180490666Y-133548380D01*
X180252571Y-132500761D02*
X180014476Y-133215047D01*
X180633523Y-133215047D01*
X165981142Y-133484880D02*
X165647809Y-133008690D01*
X165409714Y-133484880D02*
X165409714Y-132484880D01*
X165790666Y-132484880D01*
X165885904Y-132532500D01*
X165933523Y-132580119D01*
X165981142Y-132675357D01*
X165981142Y-132818214D01*
X165933523Y-132913452D01*
X165885904Y-132961071D01*
X165790666Y-133008690D01*
X165409714Y-133008690D01*
X166933523Y-133484880D02*
X166362095Y-133484880D01*
X166647809Y-133484880D02*
X166647809Y-132484880D01*
X166552571Y-132627738D01*
X166457333Y-132722976D01*
X166362095Y-132770595D01*
X167552571Y-132484880D02*
X167647809Y-132484880D01*
X167743047Y-132532500D01*
X167790666Y-132580119D01*
X167838285Y-132675357D01*
X167885904Y-132865833D01*
X167885904Y-133103928D01*
X167838285Y-133294404D01*
X167790666Y-133389642D01*
X167743047Y-133437261D01*
X167647809Y-133484880D01*
X167552571Y-133484880D01*
X167457333Y-133437261D01*
X167409714Y-133389642D01*
X167362095Y-133294404D01*
X167314476Y-133103928D01*
X167314476Y-132865833D01*
X167362095Y-132675357D01*
X167409714Y-132580119D01*
X167457333Y-132532500D01*
X167552571Y-132484880D01*
X191095333Y-117800380D02*
X190762000Y-117324190D01*
X190523904Y-117800380D02*
X190523904Y-116800380D01*
X190904857Y-116800380D01*
X191000095Y-116848000D01*
X191047714Y-116895619D01*
X191095333Y-116990857D01*
X191095333Y-117133714D01*
X191047714Y-117228952D01*
X191000095Y-117276571D01*
X190904857Y-117324190D01*
X190523904Y-117324190D01*
X191571523Y-117800380D02*
X191762000Y-117800380D01*
X191857238Y-117752761D01*
X191904857Y-117705142D01*
X192000095Y-117562285D01*
X192047714Y-117371809D01*
X192047714Y-116990857D01*
X192000095Y-116895619D01*
X191952476Y-116848000D01*
X191857238Y-116800380D01*
X191666761Y-116800380D01*
X191571523Y-116848000D01*
X191523904Y-116895619D01*
X191476285Y-116990857D01*
X191476285Y-117228952D01*
X191523904Y-117324190D01*
X191571523Y-117371809D01*
X191666761Y-117419428D01*
X191857238Y-117419428D01*
X191952476Y-117371809D01*
X192000095Y-117324190D01*
X192047714Y-117228952D01*
X125563333Y-118054380D02*
X125230000Y-117578190D01*
X124991904Y-118054380D02*
X124991904Y-117054380D01*
X125372857Y-117054380D01*
X125468095Y-117102000D01*
X125515714Y-117149619D01*
X125563333Y-117244857D01*
X125563333Y-117387714D01*
X125515714Y-117482952D01*
X125468095Y-117530571D01*
X125372857Y-117578190D01*
X124991904Y-117578190D01*
X125896666Y-117054380D02*
X126563333Y-117054380D01*
X126134761Y-118054380D01*
X194143333Y-117800380D02*
X193810000Y-117324190D01*
X193571904Y-117800380D02*
X193571904Y-116800380D01*
X193952857Y-116800380D01*
X194048095Y-116848000D01*
X194095714Y-116895619D01*
X194143333Y-116990857D01*
X194143333Y-117133714D01*
X194095714Y-117228952D01*
X194048095Y-117276571D01*
X193952857Y-117324190D01*
X193571904Y-117324190D01*
X195048095Y-116800380D02*
X194571904Y-116800380D01*
X194524285Y-117276571D01*
X194571904Y-117228952D01*
X194667142Y-117181333D01*
X194905238Y-117181333D01*
X195000476Y-117228952D01*
X195048095Y-117276571D01*
X195095714Y-117371809D01*
X195095714Y-117609904D01*
X195048095Y-117705142D01*
X195000476Y-117752761D01*
X194905238Y-117800380D01*
X194667142Y-117800380D01*
X194571904Y-117752761D01*
X194524285Y-117705142D01*
X187317142Y-117800380D02*
X186983809Y-117324190D01*
X186745714Y-117800380D02*
X186745714Y-116800380D01*
X187126666Y-116800380D01*
X187221904Y-116848000D01*
X187269523Y-116895619D01*
X187317142Y-116990857D01*
X187317142Y-117133714D01*
X187269523Y-117228952D01*
X187221904Y-117276571D01*
X187126666Y-117324190D01*
X186745714Y-117324190D01*
X188269523Y-117800380D02*
X187698095Y-117800380D01*
X187983809Y-117800380D02*
X187983809Y-116800380D01*
X187888571Y-116943238D01*
X187793333Y-117038476D01*
X187698095Y-117086095D01*
X188602857Y-116800380D02*
X189221904Y-116800380D01*
X188888571Y-117181333D01*
X189031428Y-117181333D01*
X189126666Y-117228952D01*
X189174285Y-117276571D01*
X189221904Y-117371809D01*
X189221904Y-117609904D01*
X189174285Y-117705142D01*
X189126666Y-117752761D01*
X189031428Y-117800380D01*
X188745714Y-117800380D01*
X188650476Y-117752761D01*
X188602857Y-117705142D01*
X153535142Y-133548380D02*
X153201809Y-133072190D01*
X152963714Y-133548380D02*
X152963714Y-132548380D01*
X153344666Y-132548380D01*
X153439904Y-132596000D01*
X153487523Y-132643619D01*
X153535142Y-132738857D01*
X153535142Y-132881714D01*
X153487523Y-132976952D01*
X153439904Y-133024571D01*
X153344666Y-133072190D01*
X152963714Y-133072190D01*
X154487523Y-133548380D02*
X153916095Y-133548380D01*
X154201809Y-133548380D02*
X154201809Y-132548380D01*
X154106571Y-132691238D01*
X154011333Y-132786476D01*
X153916095Y-132834095D01*
X154868476Y-132643619D02*
X154916095Y-132596000D01*
X155011333Y-132548380D01*
X155249428Y-132548380D01*
X155344666Y-132596000D01*
X155392285Y-132643619D01*
X155439904Y-132738857D01*
X155439904Y-132834095D01*
X155392285Y-132976952D01*
X154820857Y-133548380D01*
X155439904Y-133548380D01*
X130079761Y-137834619D02*
X129984523Y-137787000D01*
X129889285Y-137691761D01*
X129746428Y-137548904D01*
X129651190Y-137501285D01*
X129555952Y-137501285D01*
X129603571Y-137739380D02*
X129508333Y-137691761D01*
X129413095Y-137596523D01*
X129365476Y-137406047D01*
X129365476Y-137072714D01*
X129413095Y-136882238D01*
X129508333Y-136787000D01*
X129603571Y-136739380D01*
X129794047Y-136739380D01*
X129889285Y-136787000D01*
X129984523Y-136882238D01*
X130032142Y-137072714D01*
X130032142Y-137406047D01*
X129984523Y-137596523D01*
X129889285Y-137691761D01*
X129794047Y-137739380D01*
X129603571Y-137739380D01*
X130413095Y-136834619D02*
X130460714Y-136787000D01*
X130555952Y-136739380D01*
X130794047Y-136739380D01*
X130889285Y-136787000D01*
X130936904Y-136834619D01*
X130984523Y-136929857D01*
X130984523Y-137025095D01*
X130936904Y-137167952D01*
X130365476Y-137739380D01*
X130984523Y-137739380D01*
X194778404Y-131833880D02*
X194778404Y-130833880D01*
X195016500Y-130833880D01*
X195159357Y-130881500D01*
X195254595Y-130976738D01*
X195302214Y-131071976D01*
X195349833Y-131262452D01*
X195349833Y-131405309D01*
X195302214Y-131595785D01*
X195254595Y-131691023D01*
X195159357Y-131786261D01*
X195016500Y-131833880D01*
X194778404Y-131833880D01*
X195968880Y-130833880D02*
X196064119Y-130833880D01*
X196159357Y-130881500D01*
X196206976Y-130929119D01*
X196254595Y-131024357D01*
X196302214Y-131214833D01*
X196302214Y-131452928D01*
X196254595Y-131643404D01*
X196206976Y-131738642D01*
X196159357Y-131786261D01*
X196064119Y-131833880D01*
X195968880Y-131833880D01*
X195873642Y-131786261D01*
X195826023Y-131738642D01*
X195778404Y-131643404D01*
X195730785Y-131452928D01*
X195730785Y-131214833D01*
X195778404Y-131024357D01*
X195826023Y-130929119D01*
X195873642Y-130881500D01*
X195968880Y-130833880D01*
X175585741Y-140515888D02*
X175521757Y-140430777D01*
X175479020Y-140303050D01*
X175414915Y-140111459D01*
X175350931Y-140026348D01*
X175265699Y-139983853D01*
X175202077Y-140218181D02*
X175138093Y-140133070D01*
X175095356Y-140005343D01*
X175137730Y-139813632D01*
X175286463Y-139515320D01*
X175414069Y-139366104D01*
X175541795Y-139323367D01*
X175648275Y-139323246D01*
X175818739Y-139408236D01*
X175882723Y-139493347D01*
X175925460Y-139621074D01*
X175883086Y-139812785D01*
X175734353Y-140111097D01*
X175606747Y-140260313D01*
X175479020Y-140303050D01*
X175372541Y-140303171D01*
X175202077Y-140218181D01*
X176437939Y-140834359D02*
X175926548Y-140579388D01*
X176182243Y-140706873D02*
X176628441Y-139811939D01*
X176479467Y-139897292D01*
X176351740Y-139940029D01*
X176245260Y-139940150D01*
X175744831Y-74486354D02*
X175792450Y-74343497D01*
X175840069Y-74295878D01*
X175935307Y-74248259D01*
X176078164Y-74248259D01*
X176173402Y-74295878D01*
X176221021Y-74343497D01*
X176268640Y-74438735D01*
X176268640Y-74819687D01*
X175268640Y-74819687D01*
X175268640Y-74486354D01*
X175316260Y-74391116D01*
X175363879Y-74343497D01*
X175459117Y-74295878D01*
X175554355Y-74295878D01*
X175649593Y-74343497D01*
X175697212Y-74391116D01*
X175744831Y-74486354D01*
X175744831Y-74819687D01*
X175268640Y-73962544D02*
X175268640Y-73391116D01*
X176268640Y-73676830D02*
X175268640Y-73676830D01*
X176268640Y-72533973D02*
X176268640Y-73105401D01*
X176268640Y-72819687D02*
X175268640Y-72819687D01*
X175411498Y-72914925D01*
X175506736Y-73010163D01*
X175554355Y-73105401D01*
X163602601Y-148221014D02*
X164048799Y-147326080D01*
X164261879Y-147432317D01*
X164368479Y-147538676D01*
X164411216Y-147666403D01*
X164411337Y-147772882D01*
X164368963Y-147964593D01*
X164305220Y-148092441D01*
X164177614Y-148241657D01*
X164092503Y-148305642D01*
X163964776Y-148348378D01*
X163815681Y-148327252D01*
X163602601Y-148221014D01*
X164966311Y-148900935D02*
X164454920Y-148645965D01*
X164710615Y-148773450D02*
X165156813Y-147878515D01*
X165007839Y-147963868D01*
X164880112Y-148006605D01*
X164773632Y-148006726D01*
X123785404Y-131706880D02*
X123785404Y-130706880D01*
X124023500Y-130706880D01*
X124166357Y-130754500D01*
X124261595Y-130849738D01*
X124309214Y-130944976D01*
X124356833Y-131135452D01*
X124356833Y-131278309D01*
X124309214Y-131468785D01*
X124261595Y-131564023D01*
X124166357Y-131659261D01*
X124023500Y-131706880D01*
X123785404Y-131706880D01*
X124737785Y-130802119D02*
X124785404Y-130754500D01*
X124880642Y-130706880D01*
X125118738Y-130706880D01*
X125213976Y-130754500D01*
X125261595Y-130802119D01*
X125309214Y-130897357D01*
X125309214Y-130992595D01*
X125261595Y-131135452D01*
X124690166Y-131706880D01*
X125309214Y-131706880D01*
X155433804Y-148816187D02*
X154987606Y-147921253D01*
X155200686Y-147815015D01*
X155349781Y-147793889D01*
X155477508Y-147836625D01*
X155562619Y-147900610D01*
X155690225Y-148049826D01*
X155753968Y-148177674D01*
X155796342Y-148369385D01*
X155796221Y-148475864D01*
X155753484Y-148603591D01*
X155646884Y-148709950D01*
X155433804Y-148816187D01*
X155797309Y-147517550D02*
X156351316Y-147241332D01*
X156222984Y-147730992D01*
X156350832Y-147667250D01*
X156457312Y-147667371D01*
X156521175Y-147688739D01*
X156606286Y-147752723D01*
X156712524Y-147965803D01*
X156712403Y-148072282D01*
X156691034Y-148136146D01*
X156627050Y-148221257D01*
X156371354Y-148348742D01*
X156264875Y-148348621D01*
X156201012Y-148327253D01*
X189896761Y-137771119D02*
X189801523Y-137723500D01*
X189706285Y-137628261D01*
X189563428Y-137485404D01*
X189468190Y-137437785D01*
X189372952Y-137437785D01*
X189420571Y-137675880D02*
X189325333Y-137628261D01*
X189230095Y-137533023D01*
X189182476Y-137342547D01*
X189182476Y-137009214D01*
X189230095Y-136818738D01*
X189325333Y-136723500D01*
X189420571Y-136675880D01*
X189611047Y-136675880D01*
X189706285Y-136723500D01*
X189801523Y-136818738D01*
X189849142Y-137009214D01*
X189849142Y-137342547D01*
X189801523Y-137533023D01*
X189706285Y-137628261D01*
X189611047Y-137675880D01*
X189420571Y-137675880D01*
X190468190Y-136675880D02*
X190563428Y-136675880D01*
X190658666Y-136723500D01*
X190706285Y-136771119D01*
X190753904Y-136866357D01*
X190801523Y-137056833D01*
X190801523Y-137294928D01*
X190753904Y-137485404D01*
X190706285Y-137580642D01*
X190658666Y-137628261D01*
X190563428Y-137675880D01*
X190468190Y-137675880D01*
X190372952Y-137628261D01*
X190325333Y-137580642D01*
X190277714Y-137485404D01*
X190230095Y-137294928D01*
X190230095Y-137056833D01*
X190277714Y-136866357D01*
X190325333Y-136771119D01*
X190372952Y-136723500D01*
X190468190Y-136675880D01*
X144441274Y-140623737D02*
X144334795Y-140623616D01*
X144207068Y-140580879D01*
X144015478Y-140516774D01*
X143908998Y-140516653D01*
X143823766Y-140559148D01*
X143972620Y-140750980D02*
X143866140Y-140750859D01*
X143738414Y-140708122D01*
X143610808Y-140558906D01*
X143462075Y-140260595D01*
X143419701Y-140068883D01*
X143462438Y-139941157D01*
X143526422Y-139856046D01*
X143696886Y-139771056D01*
X143803365Y-139771176D01*
X143931092Y-139813913D01*
X144058698Y-139963129D01*
X144207431Y-140261441D01*
X144249805Y-140453152D01*
X144207068Y-140580879D01*
X144143084Y-140665990D01*
X143972620Y-140750980D01*
X144208277Y-139516085D02*
X144762284Y-139239868D01*
X144633952Y-139729528D01*
X144761800Y-139665785D01*
X144868280Y-139665906D01*
X144932143Y-139687274D01*
X145017254Y-139751259D01*
X145123492Y-139964338D01*
X145123371Y-140070818D01*
X145102002Y-140134681D01*
X145038018Y-140219792D01*
X144782322Y-140347277D01*
X144675843Y-140347156D01*
X144611980Y-140325788D01*
X159472380Y-71437404D02*
X160281904Y-71437404D01*
X160377142Y-71389785D01*
X160424761Y-71342166D01*
X160472380Y-71246928D01*
X160472380Y-71056452D01*
X160424761Y-70961214D01*
X160377142Y-70913595D01*
X160281904Y-70865976D01*
X159472380Y-70865976D01*
X159567619Y-70437404D02*
X159520000Y-70389785D01*
X159472380Y-70294547D01*
X159472380Y-70056452D01*
X159520000Y-69961214D01*
X159567619Y-69913595D01*
X159662857Y-69865976D01*
X159758095Y-69865976D01*
X159900952Y-69913595D01*
X160472380Y-70485023D01*
X160472380Y-69865976D01*
X136604476Y-96464380D02*
X136604476Y-95464380D01*
X136937809Y-96178666D01*
X137271142Y-95464380D01*
X137271142Y-96464380D01*
X138271142Y-96464380D02*
X137699714Y-96464380D01*
X137985428Y-96464380D02*
X137985428Y-95464380D01*
X137890190Y-95607238D01*
X137794952Y-95702476D01*
X137699714Y-95750095D01*
X181562476Y-96210380D02*
X181562476Y-95210380D01*
X181895809Y-95924666D01*
X182229142Y-95210380D01*
X182229142Y-96210380D01*
X182657714Y-95305619D02*
X182705333Y-95258000D01*
X182800571Y-95210380D01*
X183038666Y-95210380D01*
X183133904Y-95258000D01*
X183181523Y-95305619D01*
X183229142Y-95400857D01*
X183229142Y-95496095D01*
X183181523Y-95638952D01*
X182610095Y-96210380D01*
X183229142Y-96210380D01*
X178077880Y-73866333D02*
X178792166Y-73866333D01*
X178935023Y-73913952D01*
X179030261Y-74009190D01*
X179077880Y-74152047D01*
X179077880Y-74247285D01*
X178411214Y-72961571D02*
X179077880Y-72961571D01*
X178030261Y-73199666D02*
X178744547Y-73437761D01*
X178744547Y-72818714D01*
X179607620Y-78800864D02*
X180417144Y-78800864D01*
X180512382Y-78753245D01*
X180560001Y-78705626D01*
X180607620Y-78610388D01*
X180607620Y-78419912D01*
X180560001Y-78324674D01*
X180512382Y-78277055D01*
X180417144Y-78229436D01*
X179607620Y-78229436D01*
X179940954Y-77324674D02*
X180607620Y-77324674D01*
X179560001Y-77562769D02*
X180274287Y-77800864D01*
X180274287Y-77181817D01*
X139547980Y-78663704D02*
X140357504Y-78663704D01*
X140452742Y-78616085D01*
X140500361Y-78568466D01*
X140547980Y-78473228D01*
X140547980Y-78282752D01*
X140500361Y-78187514D01*
X140452742Y-78139895D01*
X140357504Y-78092276D01*
X139547980Y-78092276D01*
X139547980Y-77139895D02*
X139547980Y-77616085D01*
X140024171Y-77663704D01*
X139976552Y-77616085D01*
X139928933Y-77520847D01*
X139928933Y-77282752D01*
X139976552Y-77187514D01*
X140024171Y-77139895D01*
X140119409Y-77092276D01*
X140357504Y-77092276D01*
X140452742Y-77139895D01*
X140500361Y-77187514D01*
X140547980Y-77282752D01*
X140547980Y-77520847D01*
X140500361Y-77616085D01*
X140452742Y-77663704D01*
X192460642Y-64047642D02*
X192413023Y-64095261D01*
X192270166Y-64142880D01*
X192174928Y-64142880D01*
X192032071Y-64095261D01*
X191936833Y-64000023D01*
X191889214Y-63904785D01*
X191841595Y-63714309D01*
X191841595Y-63571452D01*
X191889214Y-63380976D01*
X191936833Y-63285738D01*
X192032071Y-63190500D01*
X192174928Y-63142880D01*
X192270166Y-63142880D01*
X192413023Y-63190500D01*
X192460642Y-63238119D01*
X193413023Y-64142880D02*
X192841595Y-64142880D01*
X193127309Y-64142880D02*
X193127309Y-63142880D01*
X193032071Y-63285738D01*
X192936833Y-63380976D01*
X192841595Y-63428595D01*
X194032071Y-63142880D02*
X194127309Y-63142880D01*
X194222547Y-63190500D01*
X194270166Y-63238119D01*
X194317785Y-63333357D01*
X194365404Y-63523833D01*
X194365404Y-63761928D01*
X194317785Y-63952404D01*
X194270166Y-64047642D01*
X194222547Y-64095261D01*
X194127309Y-64142880D01*
X194032071Y-64142880D01*
X193936833Y-64095261D01*
X193889214Y-64047642D01*
X193841595Y-63952404D01*
X193793976Y-63761928D01*
X193793976Y-63523833D01*
X193841595Y-63333357D01*
X193889214Y-63238119D01*
X193936833Y-63190500D01*
X194032071Y-63142880D01*
X118705380Y-111902833D02*
X119419666Y-111902833D01*
X119562523Y-111950452D01*
X119657761Y-112045690D01*
X119705380Y-112188547D01*
X119705380Y-112283785D01*
X119705380Y-110902833D02*
X119705380Y-111474261D01*
X119705380Y-111188547D02*
X118705380Y-111188547D01*
X118848238Y-111283785D01*
X118943476Y-111379023D01*
X118991095Y-111474261D01*
X159512095Y-109434380D02*
X159512095Y-110243904D01*
X159559714Y-110339142D01*
X159607333Y-110386761D01*
X159702571Y-110434380D01*
X159893047Y-110434380D01*
X159988285Y-110386761D01*
X160035904Y-110339142D01*
X160083523Y-110243904D01*
X160083523Y-109434380D01*
X161083523Y-110434380D02*
X160512095Y-110434380D01*
X160797809Y-110434380D02*
X160797809Y-109434380D01*
X160702571Y-109577238D01*
X160607333Y-109672476D01*
X160512095Y-109720095D01*
X160336666Y-123083333D02*
X159636666Y-123083333D01*
X160136666Y-122850000D01*
X159636666Y-122616666D01*
X160336666Y-122616666D01*
X160336666Y-122283333D02*
X159636666Y-122283333D01*
X160336666Y-121950000D02*
X159636666Y-121950000D01*
X160136666Y-121716666D01*
X159636666Y-121483333D01*
X160336666Y-121483333D01*
X159636666Y-121216666D02*
X160336666Y-120750000D01*
X159636666Y-120750000D02*
X160336666Y-121216666D01*
X160336666Y-120083333D02*
X160003333Y-120316666D01*
X160336666Y-120483333D02*
X159636666Y-120483333D01*
X159636666Y-120216666D01*
X159670000Y-120150000D01*
X159703333Y-120116666D01*
X159770000Y-120083333D01*
X159870000Y-120083333D01*
X159936666Y-120116666D01*
X159970000Y-120150000D01*
X160003333Y-120216666D01*
X160003333Y-120483333D01*
X159636666Y-119883333D02*
X159636666Y-119483333D01*
X160336666Y-119683333D02*
X159636666Y-119683333D01*
X160336666Y-118883333D02*
X160336666Y-119283333D01*
X160336666Y-119083333D02*
X159636666Y-119083333D01*
X159736666Y-119150000D01*
X159803333Y-119216666D01*
X159836666Y-119283333D01*
X159636666Y-118450000D02*
X159636666Y-118383333D01*
X159670000Y-118316666D01*
X159703333Y-118283333D01*
X159770000Y-118250000D01*
X159903333Y-118216666D01*
X160070000Y-118216666D01*
X160203333Y-118250000D01*
X160270000Y-118283333D01*
X160303333Y-118316666D01*
X160336666Y-118383333D01*
X160336666Y-118450000D01*
X160303333Y-118516666D01*
X160270000Y-118550000D01*
X160203333Y-118583333D01*
X160070000Y-118616666D01*
X159903333Y-118616666D01*
X159770000Y-118583333D01*
X159703333Y-118550000D01*
X159670000Y-118516666D01*
X159636666Y-118450000D01*
X159636666Y-117616666D02*
X159636666Y-117750000D01*
X159670000Y-117816666D01*
X159703333Y-117850000D01*
X159803333Y-117916666D01*
X159936666Y-117950000D01*
X160203333Y-117950000D01*
X160270000Y-117916666D01*
X160303333Y-117883333D01*
X160336666Y-117816666D01*
X160336666Y-117683333D01*
X160303333Y-117616666D01*
X160270000Y-117583333D01*
X160203333Y-117550000D01*
X160036666Y-117550000D01*
X159970000Y-117583333D01*
X159936666Y-117616666D01*
X159903333Y-117683333D01*
X159903333Y-117816666D01*
X159936666Y-117883333D01*
X159970000Y-117916666D01*
X160036666Y-117950000D01*
X159703333Y-117283333D02*
X159670000Y-117250000D01*
X159636666Y-117183333D01*
X159636666Y-117016666D01*
X159670000Y-116950000D01*
X159703333Y-116916666D01*
X159770000Y-116883333D01*
X159836666Y-116883333D01*
X159936666Y-116916666D01*
X160336666Y-117316666D01*
X160336666Y-116883333D01*
X158812666Y-121400000D02*
X158112666Y-121400000D01*
X158112666Y-121233333D01*
X158146000Y-121133333D01*
X158212666Y-121066666D01*
X158279333Y-121033333D01*
X158412666Y-121000000D01*
X158512666Y-121000000D01*
X158646000Y-121033333D01*
X158712666Y-121066666D01*
X158779333Y-121133333D01*
X158812666Y-121233333D01*
X158812666Y-121400000D01*
X158112666Y-120800000D02*
X158812666Y-120566666D01*
X158112666Y-120333333D01*
X158812666Y-119766666D02*
X158812666Y-120100000D01*
X158112666Y-120100000D01*
X158112666Y-119233333D02*
X158112666Y-119366666D01*
X158146000Y-119433333D01*
X158179333Y-119466666D01*
X158279333Y-119533333D01*
X158412666Y-119566666D01*
X158679333Y-119566666D01*
X158746000Y-119533333D01*
X158779333Y-119500000D01*
X158812666Y-119433333D01*
X158812666Y-119300000D01*
X158779333Y-119233333D01*
X158746000Y-119200000D01*
X158679333Y-119166666D01*
X158512666Y-119166666D01*
X158446000Y-119200000D01*
X158412666Y-119233333D01*
X158379333Y-119300000D01*
X158379333Y-119433333D01*
X158412666Y-119500000D01*
X158446000Y-119533333D01*
X158512666Y-119566666D01*
X158612666Y-118900000D02*
X158612666Y-118566666D01*
X158812666Y-118966666D02*
X158112666Y-118733333D01*
X158812666Y-118500000D01*
X167763866Y-122940380D02*
X167763866Y-123654666D01*
X167716247Y-123797523D01*
X167621009Y-123892761D01*
X167478152Y-123940380D01*
X167382914Y-123940380D01*
X168192438Y-123035619D02*
X168240057Y-122988000D01*
X168335295Y-122940380D01*
X168573390Y-122940380D01*
X168668628Y-122988000D01*
X168716247Y-123035619D01*
X168763866Y-123130857D01*
X168763866Y-123226095D01*
X168716247Y-123368952D01*
X168144819Y-123940380D01*
X168763866Y-123940380D01*
X162979180Y-75217257D02*
X162502990Y-75550590D01*
X162979180Y-75788685D02*
X161979180Y-75788685D01*
X161979180Y-75407733D01*
X162026800Y-75312495D01*
X162074419Y-75264876D01*
X162169657Y-75217257D01*
X162312514Y-75217257D01*
X162407752Y-75264876D01*
X162455371Y-75312495D01*
X162502990Y-75407733D01*
X162502990Y-75788685D01*
X162074419Y-74836304D02*
X162026800Y-74788685D01*
X161979180Y-74693447D01*
X161979180Y-74455352D01*
X162026800Y-74360114D01*
X162074419Y-74312495D01*
X162169657Y-74264876D01*
X162264895Y-74264876D01*
X162407752Y-74312495D01*
X162979180Y-74883923D01*
X162979180Y-74264876D01*
X162074419Y-73883923D02*
X162026800Y-73836304D01*
X161979180Y-73741066D01*
X161979180Y-73502971D01*
X162026800Y-73407733D01*
X162074419Y-73360114D01*
X162169657Y-73312495D01*
X162264895Y-73312495D01*
X162407752Y-73360114D01*
X162979180Y-73931542D01*
X162979180Y-73312495D01*
X163139380Y-62682357D02*
X162663190Y-63015690D01*
X163139380Y-63253785D02*
X162139380Y-63253785D01*
X162139380Y-62872833D01*
X162187000Y-62777595D01*
X162234619Y-62729976D01*
X162329857Y-62682357D01*
X162472714Y-62682357D01*
X162567952Y-62729976D01*
X162615571Y-62777595D01*
X162663190Y-62872833D01*
X162663190Y-63253785D01*
X162234619Y-62301404D02*
X162187000Y-62253785D01*
X162139380Y-62158547D01*
X162139380Y-61920452D01*
X162187000Y-61825214D01*
X162234619Y-61777595D01*
X162329857Y-61729976D01*
X162425095Y-61729976D01*
X162567952Y-61777595D01*
X163139380Y-62349023D01*
X163139380Y-61729976D01*
X162139380Y-61396642D02*
X162139380Y-60777595D01*
X162520333Y-61110928D01*
X162520333Y-60968071D01*
X162567952Y-60872833D01*
X162615571Y-60825214D01*
X162710809Y-60777595D01*
X162948904Y-60777595D01*
X163044142Y-60825214D01*
X163091761Y-60872833D01*
X163139380Y-60968071D01*
X163139380Y-61253785D01*
X163091761Y-61349023D01*
X163044142Y-61396642D01*
X149542595Y-61682380D02*
X150114023Y-61682380D01*
X149828309Y-62682380D02*
X149828309Y-61682380D01*
X150875928Y-62015714D02*
X150875928Y-62682380D01*
X150637833Y-61634761D02*
X150399738Y-62349047D01*
X151018785Y-62349047D01*
X129373795Y-72159761D02*
X129516652Y-72207380D01*
X129754747Y-72207380D01*
X129849985Y-72159761D01*
X129897604Y-72112142D01*
X129945223Y-72016904D01*
X129945223Y-71921666D01*
X129897604Y-71826428D01*
X129849985Y-71778809D01*
X129754747Y-71731190D01*
X129564271Y-71683571D01*
X129469033Y-71635952D01*
X129421414Y-71588333D01*
X129373795Y-71493095D01*
X129373795Y-71397857D01*
X129421414Y-71302619D01*
X129469033Y-71255000D01*
X129564271Y-71207380D01*
X129802366Y-71207380D01*
X129945223Y-71255000D01*
X130278557Y-71207380D02*
X130897604Y-71207380D01*
X130564271Y-71588333D01*
X130707128Y-71588333D01*
X130802366Y-71635952D01*
X130849985Y-71683571D01*
X130897604Y-71778809D01*
X130897604Y-72016904D01*
X130849985Y-72112142D01*
X130802366Y-72159761D01*
X130707128Y-72207380D01*
X130421414Y-72207380D01*
X130326176Y-72159761D01*
X130278557Y-72112142D01*
X135747166Y-138688380D02*
X135747166Y-139402666D01*
X135699547Y-139545523D01*
X135604309Y-139640761D01*
X135461452Y-139688380D01*
X135366214Y-139688380D01*
X136128119Y-138688380D02*
X136747166Y-138688380D01*
X136413833Y-139069333D01*
X136556690Y-139069333D01*
X136651928Y-139116952D01*
X136699547Y-139164571D01*
X136747166Y-139259809D01*
X136747166Y-139497904D01*
X136699547Y-139593142D01*
X136651928Y-139640761D01*
X136556690Y-139688380D01*
X136270976Y-139688380D01*
X136175738Y-139640761D01*
X136128119Y-139593142D01*
X120710404Y-66204380D02*
X120710404Y-65204380D01*
X120948500Y-65204380D01*
X121091357Y-65252000D01*
X121186595Y-65347238D01*
X121234214Y-65442476D01*
X121281833Y-65632952D01*
X121281833Y-65775809D01*
X121234214Y-65966285D01*
X121186595Y-66061523D01*
X121091357Y-66156761D01*
X120948500Y-66204380D01*
X120710404Y-66204380D01*
X122138976Y-65537714D02*
X122138976Y-66204380D01*
X121900880Y-65156761D02*
X121662785Y-65871047D01*
X122281833Y-65871047D01*
X120710404Y-57314380D02*
X120710404Y-56314380D01*
X120948500Y-56314380D01*
X121091357Y-56362000D01*
X121186595Y-56457238D01*
X121234214Y-56552476D01*
X121281833Y-56742952D01*
X121281833Y-56885809D01*
X121234214Y-57076285D01*
X121186595Y-57171523D01*
X121091357Y-57266761D01*
X120948500Y-57314380D01*
X120710404Y-57314380D01*
X122186595Y-56314380D02*
X121710404Y-56314380D01*
X121662785Y-56790571D01*
X121710404Y-56742952D01*
X121805642Y-56695333D01*
X122043738Y-56695333D01*
X122138976Y-56742952D01*
X122186595Y-56790571D01*
X122234214Y-56885809D01*
X122234214Y-57123904D01*
X122186595Y-57219142D01*
X122138976Y-57266761D01*
X122043738Y-57314380D01*
X121805642Y-57314380D01*
X121710404Y-57266761D01*
X121662785Y-57219142D01*
X120710404Y-61632380D02*
X120710404Y-60632380D01*
X120948500Y-60632380D01*
X121091357Y-60680000D01*
X121186595Y-60775238D01*
X121234214Y-60870476D01*
X121281833Y-61060952D01*
X121281833Y-61203809D01*
X121234214Y-61394285D01*
X121186595Y-61489523D01*
X121091357Y-61584761D01*
X120948500Y-61632380D01*
X120710404Y-61632380D01*
X122138976Y-60632380D02*
X121948500Y-60632380D01*
X121853261Y-60680000D01*
X121805642Y-60727619D01*
X121710404Y-60870476D01*
X121662785Y-61060952D01*
X121662785Y-61441904D01*
X121710404Y-61537142D01*
X121758023Y-61584761D01*
X121853261Y-61632380D01*
X122043738Y-61632380D01*
X122138976Y-61584761D01*
X122186595Y-61537142D01*
X122234214Y-61441904D01*
X122234214Y-61203809D01*
X122186595Y-61108571D01*
X122138976Y-61060952D01*
X122043738Y-61013333D01*
X121853261Y-61013333D01*
X121758023Y-61060952D01*
X121710404Y-61108571D01*
X121662785Y-61203809D01*
%LPC*%
G36*
G01*
X156275175Y-75578000D02*
X158684825Y-75578000D01*
G75*
G02*
X159005000Y-75898175I0J-320175D01*
G01*
X159005000Y-77082825D01*
G75*
G02*
X158684825Y-77403000I-320175J0D01*
G01*
X156275175Y-77403000D01*
G75*
G02*
X155955000Y-77082825I0J320175D01*
G01*
X155955000Y-75898175D01*
G75*
G02*
X156275175Y-75578000I320175J0D01*
G01*
G37*
G36*
G01*
X156275175Y-78553000D02*
X158684825Y-78553000D01*
G75*
G02*
X159005000Y-78873175I0J-320175D01*
G01*
X159005000Y-80057825D01*
G75*
G02*
X158684825Y-80378000I-320175J0D01*
G01*
X156275175Y-80378000D01*
G75*
G02*
X155955000Y-80057825I0J320175D01*
G01*
X155955000Y-78873175D01*
G75*
G02*
X156275175Y-78553000I320175J0D01*
G01*
G37*
D14*
X169254800Y-62788800D03*
G36*
G01*
X172754800Y-61988800D02*
X172754800Y-63588800D01*
G75*
G02*
X172554800Y-63788800I-200000J0D01*
G01*
X170954800Y-63788800D01*
G75*
G02*
X170754800Y-63588800I0J200000D01*
G01*
X170754800Y-61988800D01*
G75*
G02*
X170954800Y-61788800I200000J0D01*
G01*
X172554800Y-61788800D01*
G75*
G02*
X172754800Y-61988800I0J-200000D01*
G01*
G37*
G36*
G01*
X172754800Y-68034000D02*
X172754800Y-69634000D01*
G75*
G02*
X172554800Y-69834000I-200000J0D01*
G01*
X170954800Y-69834000D01*
G75*
G02*
X170754800Y-69634000I0J200000D01*
G01*
X170754800Y-68034000D01*
G75*
G02*
X170954800Y-67834000I200000J0D01*
G01*
X172554800Y-67834000D01*
G75*
G02*
X172754800Y-68034000I0J-200000D01*
G01*
G37*
X169254800Y-68834000D03*
D15*
X190500000Y-121285000D03*
G36*
G01*
X193690000Y-122135000D02*
X192390000Y-122135000D01*
G75*
G02*
X192190000Y-121935000I0J200000D01*
G01*
X192190000Y-120635000D01*
G75*
G02*
X192390000Y-120435000I200000J0D01*
G01*
X193690000Y-120435000D01*
G75*
G02*
X193890000Y-120635000I0J-200000D01*
G01*
X193890000Y-121935000D01*
G75*
G02*
X193690000Y-122135000I-200000J0D01*
G01*
G37*
X191770000Y-120015000D03*
X183415940Y-120990360D03*
G36*
G01*
X185535940Y-119070360D02*
X185535940Y-120370360D01*
G75*
G02*
X185335940Y-120570360I-200000J0D01*
G01*
X184035940Y-120570360D01*
G75*
G02*
X183835940Y-120370360I0J200000D01*
G01*
X183835940Y-119070360D01*
G75*
G02*
X184035940Y-118870360I200000J0D01*
G01*
X185335940Y-118870360D01*
G75*
G02*
X185535940Y-119070360I0J-200000D01*
G01*
G37*
X184685940Y-122260360D03*
X129540000Y-120840500D03*
G36*
G01*
X126350000Y-119990500D02*
X127650000Y-119990500D01*
G75*
G02*
X127850000Y-120190500I0J-200000D01*
G01*
X127850000Y-121490500D01*
G75*
G02*
X127650000Y-121690500I-200000J0D01*
G01*
X126350000Y-121690500D01*
G75*
G02*
X126150000Y-121490500I0J200000D01*
G01*
X126150000Y-120190500D01*
G75*
G02*
X126350000Y-119990500I200000J0D01*
G01*
G37*
X128270000Y-122110500D03*
X136982200Y-121462800D03*
G36*
G01*
X134862200Y-123382800D02*
X134862200Y-122082800D01*
G75*
G02*
X135062200Y-121882800I200000J0D01*
G01*
X136362200Y-121882800D01*
G75*
G02*
X136562200Y-122082800I0J-200000D01*
G01*
X136562200Y-123382800D01*
G75*
G02*
X136362200Y-123582800I-200000J0D01*
G01*
X135062200Y-123582800D01*
G75*
G02*
X134862200Y-123382800I0J200000D01*
G01*
G37*
X135712200Y-120192800D03*
D16*
X198069200Y-58319200D03*
X198069200Y-63069200D03*
X198069200Y-67769200D03*
D14*
X146405600Y-59893200D03*
D17*
X136245600Y-59893200D03*
D18*
X140055600Y-61885200D03*
X140105600Y-56885200D03*
G36*
G01*
X174333200Y-69436425D02*
X174333200Y-67926775D01*
G75*
G02*
X174653375Y-67606600I320175J0D01*
G01*
X175838025Y-67606600D01*
G75*
G02*
X176158200Y-67926775I0J-320175D01*
G01*
X176158200Y-69436425D01*
G75*
G02*
X175838025Y-69756600I-320175J0D01*
G01*
X174653375Y-69756600D01*
G75*
G02*
X174333200Y-69436425I0J320175D01*
G01*
G37*
G36*
G01*
X177308200Y-69436425D02*
X177308200Y-67926775D01*
G75*
G02*
X177628375Y-67606600I320175J0D01*
G01*
X178813025Y-67606600D01*
G75*
G02*
X179133200Y-67926775I0J-320175D01*
G01*
X179133200Y-69436425D01*
G75*
G02*
X178813025Y-69756600I-320175J0D01*
G01*
X177628375Y-69756600D01*
G75*
G02*
X177308200Y-69436425I0J320175D01*
G01*
G37*
D19*
X126885700Y-61853200D03*
X126885700Y-57353200D03*
X133385700Y-61853200D03*
X133385700Y-57353200D03*
G36*
G01*
X174401800Y-60798800D02*
X174401800Y-59698800D01*
G75*
G02*
X174601800Y-59498800I200000J0D01*
G01*
X179201800Y-59498800D01*
G75*
G02*
X179401800Y-59698800I0J-200000D01*
G01*
X179401800Y-60798800D01*
G75*
G02*
X179201800Y-60998800I-200000J0D01*
G01*
X174601800Y-60998800D01*
G75*
G02*
X174401800Y-60798800I0J200000D01*
G01*
G37*
G36*
G01*
X174401800Y-63338800D02*
X174401800Y-62238800D01*
G75*
G02*
X174601800Y-62038800I200000J0D01*
G01*
X179201800Y-62038800D01*
G75*
G02*
X179401800Y-62238800I0J-200000D01*
G01*
X179401800Y-63338800D01*
G75*
G02*
X179201800Y-63538800I-200000J0D01*
G01*
X174601800Y-63538800D01*
G75*
G02*
X174401800Y-63338800I0J200000D01*
G01*
G37*
G36*
G01*
X174401800Y-65878800D02*
X174401800Y-64778800D01*
G75*
G02*
X174601800Y-64578800I200000J0D01*
G01*
X179201800Y-64578800D01*
G75*
G02*
X179401800Y-64778800I0J-200000D01*
G01*
X179401800Y-65878800D01*
G75*
G02*
X179201800Y-66078800I-200000J0D01*
G01*
X174601800Y-66078800D01*
G75*
G02*
X174401800Y-65878800I0J200000D01*
G01*
G37*
G36*
G01*
X181151800Y-68188801D02*
X181151800Y-57388799D01*
G75*
G02*
X181351799Y-57188800I199999J0D01*
G01*
X190751801Y-57188800D01*
G75*
G02*
X190951800Y-57388799I0J-199999D01*
G01*
X190951800Y-68188801D01*
G75*
G02*
X190751801Y-68388800I-199999J0D01*
G01*
X181351799Y-68388800D01*
G75*
G02*
X181151800Y-68188801I0J199999D01*
G01*
G37*
D14*
X128905000Y-115570000D03*
D17*
X128905000Y-105410000D03*
X155473400Y-144805400D03*
D14*
X155473400Y-134645400D03*
X184785000Y-105410000D03*
D17*
X184785000Y-115570000D03*
X135255000Y-115570000D03*
D14*
X135255000Y-105410000D03*
X136347200Y-62941200D03*
D17*
X146507200Y-62941200D03*
X135890000Y-130810000D03*
D14*
X146050000Y-130810000D03*
X164592000Y-134645400D03*
D17*
X164592000Y-144805400D03*
X132080000Y-115570000D03*
D14*
X132080000Y-105410000D03*
X174244000Y-130810000D03*
D17*
X184404000Y-130810000D03*
X161544000Y-130810000D03*
D14*
X171704000Y-130810000D03*
X191135000Y-115570000D03*
D17*
X191135000Y-105410000D03*
X152400000Y-134620000D03*
D14*
X152400000Y-144780000D03*
X125730000Y-105410000D03*
D17*
X125730000Y-115570000D03*
X167640000Y-134620000D03*
D14*
X167640000Y-144780000D03*
X194310000Y-105410000D03*
D17*
X194310000Y-115570000D03*
X187960000Y-115570000D03*
D14*
X187960000Y-105410000D03*
X148590000Y-130810000D03*
D17*
X158750000Y-130810000D03*
G36*
G01*
X126077800Y-127823800D02*
X126077800Y-126023800D01*
G75*
G02*
X126277800Y-125823800I200000J0D01*
G01*
X128077800Y-125823800D01*
G75*
G02*
X128277800Y-126023800I0J-200000D01*
G01*
X128277800Y-127823800D01*
G75*
G02*
X128077800Y-128023800I-200000J0D01*
G01*
X126277800Y-128023800D01*
G75*
G02*
X126077800Y-127823800I0J200000D01*
G01*
G37*
D20*
X129717800Y-126923800D03*
X198475600Y-121158000D03*
G36*
G01*
X194835600Y-122058000D02*
X194835600Y-120258000D01*
G75*
G02*
X195035600Y-120058000I200000J0D01*
G01*
X196835600Y-120058000D01*
G75*
G02*
X197035600Y-120258000I0J-200000D01*
G01*
X197035600Y-122058000D01*
G75*
G02*
X196835600Y-122258000I-200000J0D01*
G01*
X195035600Y-122258000D01*
G75*
G02*
X194835600Y-122058000I0J200000D01*
G01*
G37*
X170856142Y-139738267D03*
G36*
G01*
X170037423Y-143397406D02*
X168426541Y-142594250D01*
G75*
G02*
X168336794Y-142326023I89240J178987D01*
G01*
X169139950Y-140715141D01*
G75*
G02*
X169408177Y-140625394I178987J-89240D01*
G01*
X171019059Y-141428550D01*
G75*
G02*
X171108806Y-141696777I-89240J-178987D01*
G01*
X170305650Y-143307659D01*
G75*
G02*
X170037423Y-143397406I-178987J89240D01*
G01*
G37*
G36*
G01*
X171690400Y-74710000D02*
X169990400Y-74710000D01*
G75*
G02*
X169790400Y-74510000I0J200000D01*
G01*
X169790400Y-72810000D01*
G75*
G02*
X169990400Y-72610000I200000J0D01*
G01*
X171690400Y-72610000D01*
G75*
G02*
X171890400Y-72810000I0J-200000D01*
G01*
X171890400Y-74510000D01*
G75*
G02*
X171690400Y-74710000I-200000J0D01*
G01*
G37*
D21*
X173380400Y-73660000D03*
G36*
G01*
X162214223Y-145962806D02*
X160603341Y-145159650D01*
G75*
G02*
X160513594Y-144891423I89240J178987D01*
G01*
X161316750Y-143280541D01*
G75*
G02*
X161584977Y-143190794I178987J-89240D01*
G01*
X163195859Y-143993950D01*
G75*
G02*
X163285606Y-144262177I-89240J-178987D01*
G01*
X162482450Y-145873059D01*
G75*
G02*
X162214223Y-145962806I-178987J89240D01*
G01*
G37*
D20*
X163032942Y-142303667D03*
X124218700Y-121031000D03*
G36*
G01*
X120578700Y-121931000D02*
X120578700Y-120131000D01*
G75*
G02*
X120778700Y-119931000I200000J0D01*
G01*
X122578700Y-119931000D01*
G75*
G02*
X122778700Y-120131000I0J-200000D01*
G01*
X122778700Y-121931000D01*
G75*
G02*
X122578700Y-122131000I-200000J0D01*
G01*
X120778700Y-122131000D01*
G75*
G02*
X120578700Y-121931000I0J200000D01*
G01*
G37*
G36*
G01*
X155786999Y-141720817D02*
X157397881Y-140917661D01*
G75*
G02*
X157666108Y-141007408I89240J-178987D01*
G01*
X158469264Y-142618290D01*
G75*
G02*
X158379517Y-142886517I-178987J-89240D01*
G01*
X156768635Y-143689673D01*
G75*
G02*
X156500408Y-143599926I-89240J178987D01*
G01*
X155697252Y-141989044D01*
G75*
G02*
X155786999Y-141720817I178987J89240D01*
G01*
G37*
X158216600Y-144576800D03*
G36*
G01*
X189349200Y-127950800D02*
X189349200Y-126150800D01*
G75*
G02*
X189549200Y-125950800I200000J0D01*
G01*
X191349200Y-125950800D01*
G75*
G02*
X191549200Y-126150800I0J-200000D01*
G01*
X191549200Y-127950800D01*
G75*
G02*
X191349200Y-128150800I-200000J0D01*
G01*
X189549200Y-128150800D01*
G75*
G02*
X189349200Y-127950800I0J200000D01*
G01*
G37*
X192989200Y-127050800D03*
X150418800Y-142011400D03*
G36*
G01*
X147989199Y-139155417D02*
X149600081Y-138352261D01*
G75*
G02*
X149868308Y-138442008I89240J-178987D01*
G01*
X150671464Y-140052890D01*
G75*
G02*
X150581717Y-140321117I-178987J-89240D01*
G01*
X148970835Y-141124273D01*
G75*
G02*
X148702608Y-141034526I-89240J178987D01*
G01*
X147899452Y-139423644D01*
G75*
G02*
X147989199Y-139155417I178987J89240D01*
G01*
G37*
G36*
G01*
X140936980Y-75251920D02*
X139260580Y-75251920D01*
G75*
G02*
X139060580Y-75051920I0J200000D01*
G01*
X139060580Y-73375520D01*
G75*
G02*
X139260580Y-73175520I200000J0D01*
G01*
X140936980Y-73175520D01*
G75*
G02*
X141136980Y-73375520I0J-200000D01*
G01*
X141136980Y-75051920D01*
G75*
G02*
X140936980Y-75251920I-200000J0D01*
G01*
G37*
D22*
X142638780Y-74213720D03*
X145178780Y-74213720D03*
X147718780Y-74213720D03*
X150258780Y-74213720D03*
X152798780Y-74213720D03*
X155338780Y-74213720D03*
X157878780Y-74213720D03*
X157878780Y-66593720D03*
X155338780Y-66593720D03*
X152798780Y-66593720D03*
X150258780Y-66593720D03*
X147718780Y-66593720D03*
X145178780Y-66593720D03*
X142638780Y-66593720D03*
X140098780Y-66593720D03*
D23*
X131873000Y-96274400D03*
X131873000Y-78274400D03*
X188040000Y-78274400D03*
X188040000Y-96274400D03*
G36*
G01*
X180179000Y-73303500D02*
X180179000Y-71603500D01*
G75*
G02*
X180379000Y-71403500I200000J0D01*
G01*
X182079000Y-71403500D01*
G75*
G02*
X182279000Y-71603500I0J-200000D01*
G01*
X182279000Y-73303500D01*
G75*
G02*
X182079000Y-73503500I-200000J0D01*
G01*
X180379000Y-73503500D01*
G75*
G02*
X180179000Y-73303500I0J200000D01*
G01*
G37*
D21*
X181229000Y-74993500D03*
D24*
X167655240Y-78038960D03*
X169655240Y-78038960D03*
X171655240Y-78038960D03*
X173655240Y-78038960D03*
X175655240Y-78038960D03*
G36*
G01*
X176980240Y-77163960D02*
X178330240Y-77163960D01*
G75*
G02*
X178530240Y-77363960I0J-200000D01*
G01*
X178530240Y-78713960D01*
G75*
G02*
X178330240Y-78913960I-200000J0D01*
G01*
X176980240Y-78913960D01*
G75*
G02*
X176780240Y-78713960I0J200000D01*
G01*
X176780240Y-77363960D01*
G75*
G02*
X176980240Y-77163960I200000J0D01*
G01*
G37*
G36*
G01*
X143270600Y-78776800D02*
X141920600Y-78776800D01*
G75*
G02*
X141720600Y-78576800I0J200000D01*
G01*
X141720600Y-77226800D01*
G75*
G02*
X141920600Y-77026800I200000J0D01*
G01*
X143270600Y-77026800D01*
G75*
G02*
X143470600Y-77226800I0J-200000D01*
G01*
X143470600Y-78576800D01*
G75*
G02*
X143270600Y-78776800I-200000J0D01*
G01*
G37*
X144595600Y-77901800D03*
X146595600Y-77901800D03*
X148595600Y-77901800D03*
X150595600Y-77901800D03*
X152595600Y-77901800D03*
G36*
G01*
X192386775Y-57594800D02*
X193896425Y-57594800D01*
G75*
G02*
X194216600Y-57914975I0J-320175D01*
G01*
X194216600Y-59099625D01*
G75*
G02*
X193896425Y-59419800I-320175J0D01*
G01*
X192386775Y-59419800D01*
G75*
G02*
X192066600Y-59099625I0J320175D01*
G01*
X192066600Y-57914975D01*
G75*
G02*
X192386775Y-57594800I320175J0D01*
G01*
G37*
G36*
G01*
X192386775Y-60569800D02*
X193896425Y-60569800D01*
G75*
G02*
X194216600Y-60889975I0J-320175D01*
G01*
X194216600Y-62074625D01*
G75*
G02*
X193896425Y-62394800I-320175J0D01*
G01*
X192386775Y-62394800D01*
G75*
G02*
X192066600Y-62074625I0J320175D01*
G01*
X192066600Y-60889975D01*
G75*
G02*
X192386775Y-60569800I320175J0D01*
G01*
G37*
G36*
G01*
X122512800Y-117056800D02*
X122512800Y-118756800D01*
G75*
G02*
X122312800Y-118956800I-200000J0D01*
G01*
X120612800Y-118956800D01*
G75*
G02*
X120412800Y-118756800I0J200000D01*
G01*
X120412800Y-117056800D01*
G75*
G02*
X120612800Y-116856800I200000J0D01*
G01*
X122312800Y-116856800D01*
G75*
G02*
X122512800Y-117056800I0J-200000D01*
G01*
G37*
D21*
X121462800Y-115366800D03*
X121462800Y-112826800D03*
X121462800Y-110286800D03*
X121462800Y-107746800D03*
X121462800Y-105206800D03*
D14*
X143764000Y-120000000D03*
X143764000Y-122540000D03*
X143764000Y-125080000D03*
X143764000Y-127620000D03*
X143764000Y-117460000D03*
X143764000Y-114920000D03*
X143764000Y-112380000D03*
X146304000Y-127620000D03*
X148844000Y-127620000D03*
X151384000Y-127620000D03*
X153924000Y-127620000D03*
X156464000Y-127620000D03*
X159004000Y-127620000D03*
X161544000Y-127620000D03*
X164084000Y-127620000D03*
X166624000Y-127620000D03*
X169164000Y-127620000D03*
X171704000Y-127620000D03*
X174244000Y-127620000D03*
X176784000Y-127620000D03*
X174244000Y-125080000D03*
X146304000Y-112380000D03*
X148844000Y-112380000D03*
X151384000Y-112380000D03*
X153924000Y-112380000D03*
X156464000Y-112380000D03*
X159004000Y-112380000D03*
X161544000Y-112380000D03*
X164084000Y-112380000D03*
X166624000Y-112380000D03*
X169164000Y-112380000D03*
X171704000Y-112380000D03*
X174244000Y-112380000D03*
X176784000Y-112380000D03*
X148844000Y-125080000D03*
X151384000Y-125080000D03*
X148844000Y-122540000D03*
X151384000Y-122540000D03*
X148844000Y-120000000D03*
X151384000Y-120000000D03*
X148844000Y-117460000D03*
X151384000Y-117460000D03*
X148844000Y-114920000D03*
X151384000Y-114920000D03*
G36*
G01*
X169147200Y-120308000D02*
X169147200Y-122008000D01*
G75*
G02*
X168947200Y-122208000I-200000J0D01*
G01*
X167247200Y-122208000D01*
G75*
G02*
X167047200Y-122008000I0J200000D01*
G01*
X167047200Y-120308000D01*
G75*
G02*
X167247200Y-120108000I200000J0D01*
G01*
X168947200Y-120108000D01*
G75*
G02*
X169147200Y-120308000I0J-200000D01*
G01*
G37*
D21*
X168097200Y-118618000D03*
D25*
X181229000Y-113411000D03*
X139255500Y-113411000D03*
D17*
X164896800Y-69494400D03*
D14*
X164896800Y-79654400D03*
X164896800Y-67157600D03*
D17*
X164896800Y-56997600D03*
D25*
X160083500Y-61899800D03*
X160083500Y-139915900D03*
X160096200Y-58026300D03*
X160070800Y-136067800D03*
D15*
X149047200Y-58724800D03*
G36*
G01*
X151167200Y-56804800D02*
X151167200Y-58104800D01*
G75*
G02*
X150967200Y-58304800I-200000J0D01*
G01*
X149667200Y-58304800D01*
G75*
G02*
X149467200Y-58104800I0J200000D01*
G01*
X149467200Y-56804800D01*
G75*
G02*
X149667200Y-56604800I200000J0D01*
G01*
X150967200Y-56604800D01*
G75*
G02*
X151167200Y-56804800I0J-200000D01*
G01*
G37*
X150317200Y-59994800D03*
D19*
X126885700Y-69524000D03*
X126885700Y-65024000D03*
X133385700Y-69524000D03*
X133385700Y-65024000D03*
G36*
G01*
X137130500Y-136056000D02*
X137130500Y-137756000D01*
G75*
G02*
X136930500Y-137956000I-200000J0D01*
G01*
X135230500Y-137956000D01*
G75*
G02*
X135030500Y-137756000I0J200000D01*
G01*
X135030500Y-136056000D01*
G75*
G02*
X135230500Y-135856000I200000J0D01*
G01*
X136930500Y-135856000D01*
G75*
G02*
X137130500Y-136056000I0J-200000D01*
G01*
G37*
D21*
X136080500Y-134366000D03*
G36*
G01*
X120523500Y-67002000D02*
X120523500Y-66602000D01*
G75*
G02*
X120723500Y-66402000I200000J0D01*
G01*
X121358500Y-66402000D01*
G75*
G02*
X121558500Y-66602000I0J-200000D01*
G01*
X121558500Y-67002000D01*
G75*
G02*
X121358500Y-67202000I-200000J0D01*
G01*
X120723500Y-67202000D01*
G75*
G02*
X120523500Y-67002000I0J200000D01*
G01*
G37*
G36*
G01*
X121338500Y-67002000D02*
X121338500Y-66602000D01*
G75*
G02*
X121538500Y-66402000I200000J0D01*
G01*
X122173500Y-66402000D01*
G75*
G02*
X122373500Y-66602000I0J-200000D01*
G01*
X122373500Y-67002000D01*
G75*
G02*
X122173500Y-67202000I-200000J0D01*
G01*
X121538500Y-67202000D01*
G75*
G02*
X121338500Y-67002000I0J200000D01*
G01*
G37*
G36*
G01*
X121338500Y-58112000D02*
X121338500Y-57712000D01*
G75*
G02*
X121538500Y-57512000I200000J0D01*
G01*
X122173500Y-57512000D01*
G75*
G02*
X122373500Y-57712000I0J-200000D01*
G01*
X122373500Y-58112000D01*
G75*
G02*
X122173500Y-58312000I-200000J0D01*
G01*
X121538500Y-58312000D01*
G75*
G02*
X121338500Y-58112000I0J200000D01*
G01*
G37*
G36*
G01*
X120523500Y-58112000D02*
X120523500Y-57712000D01*
G75*
G02*
X120723500Y-57512000I200000J0D01*
G01*
X121358500Y-57512000D01*
G75*
G02*
X121558500Y-57712000I0J-200000D01*
G01*
X121558500Y-58112000D01*
G75*
G02*
X121358500Y-58312000I-200000J0D01*
G01*
X120723500Y-58312000D01*
G75*
G02*
X120523500Y-58112000I0J200000D01*
G01*
G37*
G36*
G01*
X120523500Y-62430000D02*
X120523500Y-62030000D01*
G75*
G02*
X120723500Y-61830000I200000J0D01*
G01*
X121358500Y-61830000D01*
G75*
G02*
X121558500Y-62030000I0J-200000D01*
G01*
X121558500Y-62430000D01*
G75*
G02*
X121358500Y-62630000I-200000J0D01*
G01*
X120723500Y-62630000D01*
G75*
G02*
X120523500Y-62430000I0J200000D01*
G01*
G37*
G36*
G01*
X121338500Y-62430000D02*
X121338500Y-62030000D01*
G75*
G02*
X121538500Y-61830000I200000J0D01*
G01*
X122173500Y-61830000D01*
G75*
G02*
X122373500Y-62030000I0J-200000D01*
G01*
X122373500Y-62430000D01*
G75*
G02*
X122173500Y-62630000I-200000J0D01*
G01*
X121538500Y-62630000D01*
G75*
G02*
X121338500Y-62430000I0J200000D01*
G01*
G37*
M02*
